<svg xmlns="http://www.w3.org/2000/svg" width="34.814" height="120.92" viewBox="0 0 34.814 120.92"><g transform="translate(-569.757 -577.67)"><path d="M850.677,853.28c-.158.251-.013.516-.519.315a2.871,2.871,0,0,1,.04-1.208,1.415,1.415,0,0,1,.484.711Zm3.237,5.413a1.739,1.739,0,0,1-.845-.021.822.822,0,0,1,.361-1.035l.356.011A1.242,1.242,0,0,1,853.914,858.693ZM862,833.644a13.227,13.227,0,0,0,.455-2.914,11.265,11.265,0,0,1,.1-3.106c.837-.08.438-1.28.748-1.847,1.147-2.093,1.639.495,1.663,1.449.013.524.211.166-.2.732-.174.241-.866.257-.834.668.037.484.783.353.957.671a3.548,3.548,0,0,1-.016,1.321c-.061.879.067,1.652.013,2.486a2.16,2.16,0,0,1-.869-.021c.053-.3-.056-.66,0-.954a2.677,2.677,0,0,0-.957-.024c-.192.807.855,2.128.27,2.938a1.057,1.057,0,0,1-1.422.032C861.623,834.713,861.935,833.989,862,833.644Zm-2,36.73c-.107.652.048.337-.732.714-.4.192-.679.211-.928.585-1.486.361-.473-2.686-.42-3.464.155.013.358-.04.51-.013.016-.139.013-.281.04-.417.8-.23.748-1.179,1.195-1.692C860.529,867.19,860.2,869.085,859.995,870.374Zm1.823-12.087c-.4,0-.823-.008-1.227-.032-.16-.89.519-1.222.412-2.106a4.492,4.492,0,0,1,.949.3.97.97,0,0,1-.166.591A3.767,3.767,0,0,1,861.818,858.286Zm-.47-2.858c-.15-.243-.016-.548-.134-.8-.155-.345-.647-.575-.794-.9-.211-.457.163-.941-.4-1.206-.011-.4.013-.818.005-1.222-.227.019-.4-.131-.593-.134a.807.807,0,0,1,.273-.8c.529.756.981-.144.543-.684.374-.577.131-1.291.241-1.957s.564-1.184.508-1.847c.428.051.564.457.657.842-.021-.1-.043-.2-.059-.3l.16.719c-.037-.12-.067-.265-.1-.412a9.172,9.172,0,0,1,.412,2.3c-.027.756-.671,2.023-.158,2.684.535-.454.743-1.235,1.628-1.117-.019.8-.3,1.537-.318,2.39a14.078,14.078,0,0,1,.1,2.489,10.531,10.531,0,0,1-1.184.4C861.377,855.915,861.7,856,861.347,855.429Zm1.323-10.564c.1-.457.342-.77.863-.454.286.171.31,1.783-.086,1.863-.083.016-.842.08-.845-.019A5.932,5.932,0,0,1,862.671,844.865Zm.318,48.689a3.133,3.133,0,0,1-.31.981c-.043.078-.687.628-.692.436a20.828,20.828,0,0,1,.067-2.585c.209.053.468.032.618.193a.07.07,0,0,0,.013.016c.115.139.078.361.2.505s.326.2.462.318A2.555,2.555,0,0,1,862.989,893.554Zm1.331-52.434c-.259-.059-.609.067-.869.005a17.48,17.48,0,0,0,.182,2.3c-.756.011-1.542-.008-2.3-.059.062-.938-.444-1.732-.4-2.585.045-.754.561-1.267.767-1.941s-.24-2.077-.032-2.328a2.84,2.84,0,0,1,2.368-.27c.655.561.008,1.932.187,2.662.12.492.5.62.495,1.176C864.718,840.391,864.25,840.637,864.32,841.12Zm3.264,63.815a.749.749,0,0,1-.684-.543c-.123-.339.1-.543.238-.15C867.273,904.658,867.805,904.38,867.583,904.936Zm1.7,3.432a1.7,1.7,0,0,1-.842-.021c.019-1-.724-1.513-.47-2.638a1.538,1.538,0,0,1,.663.016,3.5,3.5,0,0,0,.043.738,2.225,2.225,0,0,0,.3.668C869.257,907.537,869.508,907.831,869.286,908.368Zm3-101.128.524.548c.182.2.412.144.323.508a2.475,2.475,0,0,1-.658.182A.893.893,0,0,1,872.283,807.24Zm-1.729,100.452c-.628,0-.588-.922-.267-.818-.027.238.211.19.3.337C870.639,907.288,870.649,907.692,870.553,907.692Zm6.461-61.765-.182.174a7.172,7.172,0,0,1,.612.38,3.4,3.4,0,0,1-.778-.061C876.6,846.073,876.8,846.092,877.014,845.926Zm-4.9,66.088c0-.163,0-.321.013-.481a2.611,2.611,0,0,1,1.427.433c.134.083.46.184.524.323A13.034,13.034,0,0,0,872.114,912.014Zm3.208-.3a9.6,9.6,0,0,0-.671-.708c.048-.425-.075-.941-.021-1.366-.815-.224-.6-1.561-.107-2.021.337.371.326.823.553,1.214.013.024.027.048.04.07a1.7,1.7,0,0,1,.326.775A16.213,16.213,0,0,1,875.322,911.712Zm1.072-7.444c-.326.54-.572.078-.588-.31-.008-.23.045-1.438.457-.719a1.307,1.307,0,0,1,.161.484A.944.944,0,0,1,876.394,904.268Zm2.97,14.285c-.051-.676.676-.6,1.013-1.016a2.752,2.752,0,0,1,.414.1c-.131.136-.086.286-.342.438.147.158.23.465.414.6a3.626,3.626,0,0,1-.8,0l.088.091A1.317,1.317,0,0,0,879.364,918.552Zm4.552,7.006a11.544,11.544,0,0,1-.15,1.679c-.551.011-1.123-.005-1.673-.043a2.492,2.492,0,0,0-1.962-3.713c-.016-.869.158-1.705.158-2.553a2.985,2.985,0,0,1,1.136-.091c.318-.831,1.123-.687,1.9-.636a4.511,4.511,0,0,0-.2,2.122c.283.465,1.072.326,1.1.992.008.257-.422.559-.518.807C883.416,924.852,883.849,924.967,883.916,925.558Z" transform="translate(-280 -229)" fill="#5751c8" stroke="#5751c8" stroke-width="0.7"/></g></svg>