<svg xmlns="http://www.w3.org/2000/svg" width="155.846" height="85.5" viewBox="0 0 155.846 85.5"><g transform="translate(-28.141 -163.249)"><g transform="translate(28.391 163.499)"><path d="M637.836,640.832l-.139.207-.1.046-.1.043-.268.075-.106.136-.064.25-.1.148-.01.014-.019.015-.182.147-.108.142-.051.148-.059.108-.038.184-.021.042-.053.1-.089.11-.142.107-.449.027-.3.184-.29.1-.138.148-.088.067-.081.062-.148.06h-.011l-.256.028-.246-.011-.576.3-.171.077-.078.092-.16.192-.153.059-.073-.052-.019-.013-.167-.076-.276-.033-.289.017-.169-.141-.115-.166-.023-.232-.051-.141-.1-.083-.158-.083-.185-.035-.09.073-.066.162-.047-.055-.005-.1-.07-.162.04-.452-.18-.129-.049-.2-.34-.323.01-.178.1-.188,0-.122-.022-.04.124-.042.1-.053.143-.082.085-.027.081,0,.052.02.067.064.08.019.079.011.119-.029.11-.051.03-.014.132-.062.342.071.486-.169.305.012.416-.08.456-.025.581-.075.283-.039.387-.026.222-.111.216-.692.2-.323.659-1.411.191-.209.3-.328.121-.338.349-.032.2-.117.4-.037.657.626.435.627-.216.141-.06.135-.128.211-.089.1-.03.035-.141.078-.061.16-.008.02-.124.325-.093.419-.068.154-.079.176-.076.146Z" transform="translate(-531.386 -559.243)" fill="#5751c8" stroke="#eaecff" stroke-linecap="round" stroke-linejoin="round" stroke-miterlimit="10" stroke-width="0.5"/><path d="M630.495,629.5l-.069.086.447-.038.565.1.161.161.12.314-.121.338-.3.328-.191.209-.659,1.411-.2.323-.216.691-.222.112-.387.027-.283.039-.581.075-.456.025-.416.08-.305-.012-.486.169-.342-.07-.132.062-.03.014-.11.051-.119.029-.079-.012-.08-.018-.067-.064-.051-.02-.081,0-.085.027-.143.081-.1.054-.124.041-.041-.076.015-.128.1-.062.125-.208.1-.109v-.053l-.05-.115.076-.083.2-.135.059-.087-.085.016-.043-.064-.14,0-.206-.08-.159-.027-.179-.134-.242-.383-.1-.281-.038-.219-.06-.12-.053-.206.034-.09.152-.11.051-.134-.113.059-.178-.068-.006.064-.046,0-.071-.042-.208-.241-.042-.152.562-.419.126-.122.033-.117.131-.046.324.018.1-.159-.055-.151.15.005.24-.042.093-.012.132-.089.162-.179.127-.071.2-.054.112-.031.338-.061.03-.005,1.623-.834.242.033.2.034.029,0,.8.05.193.24.144.311Z" transform="translate(-526.042 -551.869)" fill="#5751c8" stroke="#eaecff" stroke-linecap="round" stroke-linejoin="round" stroke-miterlimit="10" stroke-width="0.5"/><path d="M629.385,600.166l-.112.083-.2.06-.037.257.41.057.012.124-.116.108.083.137-.151.009.009.243.156.076-.185.413-.062.065-.063.067.04.3.021.158.174.013-.007.068-.205.238.136-.028.11-.034.112.005.4.869-.8-.05-.029,0-.2-.034-.242-.032-1.624.834-.03.005-.338.061-.112.031-.2.054-.127.071-.162.179-.132.089-.093.012-.24.042-.15,0-.025-.068.053-.228,0-.112-.062-.151-.009-.09.052-.029,0-.055-.065-.161-.075-.13-.106-.107-.226.019-.074-.077-.07-.187-.1-.391.108-.069-.133-.05-.05-.053.051-.085.123-.089.034-.069-.175-.13-.065-.108-.041-.1.126-.02-.062-.058-.2-.014-.147-.125.015-.234.092-.051,0-.2-.081-.277v-.123l-.076-.373-.025-.31.076-.048.069.058.076-.024.116.239.165.03.151-.107.072-.126.087-.045.1.057.066-.086-.038-.081.1.057.085.006.17.261.127.109.1-.056.218-.171-.024-.05.069-.065.108.012.107-.144.169-.149.042-.126-.048-.082.156-.184.1-.114.221-.207.333-.265.084-.172.264-.1.3-.206.269-.221.028-.023.809.768.273.163.054.184.284.063.091.075-.021.256Z" transform="translate(-526.047 -526.725)" fill="#5751c8" stroke="#eaecff" stroke-linecap="round" stroke-linejoin="round" stroke-miterlimit="10" stroke-width="0.5"/><path d="M658.281,601.135l0,.512-.3.229-.743.9-.049.145.045.352-.356.1-.426.443-.5.649-.125.378-.115.446-.266.242-.355.218-.414.1-.144-.311-.192-.24-.4-.87-.112-.005-.11.034-.136.028.205-.238.007-.068-.173-.013-.021-.158-.04-.3.063-.067.062-.065.185-.413-.156-.076-.009-.244.151-.009-.084-.137.116-.109-.012-.124-.41-.057.018-.129.019-.128.2-.06.112-.082.243-.281.021-.256-.091-.075-.284-.063-.078-.27,1.143.472.312-.049.421-.3.741-.052,1.074-.2.08-.045.548-.309.25.219Z" transform="translate(-550.475 -528.563)" fill="#5751c8" stroke="#eaecff" stroke-linecap="round" stroke-linejoin="round" stroke-miterlimit="10" stroke-width="0.5"/><path d="M665.911,618.7l.07.049.186-.075,1.165.788-.027.044-.056.156-.027.076-.073.2-.119.035h-.112l-.14.12-.059.182.026.165.005.033-.017.341-.025.17-.1.173-.01.019-.14.187-.1.225-.157.266-.332-.011-.184-.014-.2.02-.271-.071-.172-.116-.084-.111-.083-.1-.215-.058-.238.065-.116.075-.435-.627-.657-.626-.4.037-.2.117-.348.032-.12-.314-.161-.161-.565-.1-.447.038.069-.087-.256-.351.413-.1.356-.218.266-.242.115-.446.125-.378.5-.649.426-.443.356-.1.208.141.453.081,1.259.025.345.339.208.513.1.408Z" transform="translate(-556.596 -542.222)" fill="#5751c8" stroke="#eaecff" stroke-linecap="round" stroke-linejoin="round" stroke-miterlimit="10" stroke-width="0.5"/><path d="M680.03,595.647l.17,0,.286-.1.166.019.045.352.4.7-.012.454.251.4-.077.429-.394.1-.19-.084-.219-.143-.134.064-.134.109-.1.167-1.165-.788-.186.074-.07-.049.014-.266-.1-.409-.208-.512-.346-.339-1.258-.024-.453-.081-.208-.141-.045-.352.049-.145.743-.9.3-.229,0-.512-.087-.337-.251-.219.607-.715,1.144-.32,1.354-.482-.133.2-.214.513-.011.073-.074.486-.026.171.3.8-.511.781.065.492-.089.218.018.311.138.042Z" transform="translate(-569.348 -520.869)" fill="#5751c8" stroke="#eaecff" stroke-linecap="round" stroke-linejoin="round" stroke-miterlimit="10" stroke-width="0.5"/><path d="M652.742,566.536l.533.306.061.145.193.044.3.026.108.111,0,.149.345.357.242-.016.214-.065.3-.172.394-.119.081.082.062.254.168.391.036.208-.017.259.2.24.036.164.03.13.272.211.432.231.057.337-.085.516-.2.3-1.354.483-1.144.32-.607.715-.548.309-.08.046-1.074.2-.741.052-.421.3-.311.049-1.143-.472.025.086-.273-.163-.809-.768.048-.038.079-.046.382-.221.13.036-.015.038-.076.017.018.069.142-.027-.017.189.083-.015.031-.006.221-.1.006-.2.262-.1.265-.129.35-.391.232-.111.315.019.12-.051.034-.122.1-.021.075.085h.117l.081-.141.052-.305.05-.135-.025-.082-.05-.055-.093-.021-.037-.083.13-.118.1-.163-.131-.286.086-.107.031-.149-.086-.2-.109-.16-.1-.19.015-.116.25-.158.025-.149.085-.018.011-.1.151-.172.154-.417.1-.085.4-.2.109-.136-.006-.217.137-.078.121.139.141-.083.1-.089Z" transform="translate(-545.93 -500.13)" fill="#5751c8" stroke="#eaecff" stroke-linecap="round" stroke-linejoin="round" stroke-miterlimit="10" stroke-width="0.5"/><path d="M697.97,560.42l.053.132.647-.2.067.7.163.958.036.2-.032.2.144.333.057.091.048.163.965.271.5.21.239.074.076.024.113.17.092.226.068.483-.038.849-.628.136-.369.138-.619-.133-.424-.2-.473-.372-.256-.189-.231-.014L698,564.7l-.345.206-.362.739-.123.911-.093.519.041.37-.053.314.046.37.049.307.161.319-.106.237-.019.214-.1.085-.084-.217-.08-.43-.229-.536-.365-.564-.3-.475-.077,0-.221-.023-.11-.057.062-.084-.01-.114.028-.117.069-.123-.188-.083-.281-.33-.332.037-.191.117-.255.4-.088.4-.121.5-.3-.8.026-.171.085-.559.214-.513.337-.5.085-.515-.057-.337-.432-.231-.271-.212-.03-.13-.036-.164-.2-.24.017-.258-.036-.208-.168-.391-.062-.254,1.093-.57,0-.067.131-.044.292-.039.175.066.356-.124.151.036.115-.055.158-.227.119-.013.089-.1.446-.159.564-.143.162-.041.06-.078.092-.119.259-.112.143-.1.012.111Z" transform="translate(-583.911 -494.868)" fill="#5751c8" stroke="#eaecff" stroke-linecap="round" stroke-linejoin="round" stroke-miterlimit="10" stroke-width="0.5"/><path d="M704.305,569.574l-.126.267-.046.1-.208.513-.134.418-.171.164-.111.106-.145.126-.1.089-.34.142-.19.118-.166.159-.213.266-.3.135-.307.237-.26-.04-.258.014-.515.24-.27-.066-.344-.1-.109.036-.084.028-.068.256-.633.691-.166.232-.026.117-.114.178-.15.273.027.139.08.421-.078.093-.1.059-.094.3.062.152.079.132.034.162-.072.213-.252.223-.228.257-.129.163-.086.044-.165.085-.231-.007h-.029l-.215-.07-.143-.231-.176-.13-.112-.05.394-.1.077-.429-.251-.4.012-.454-.4-.7-.045-.352-.166-.019-.286.1-.17-.005-.645-.2-.139-.042-.018-.311.089-.218-.065-.492.51-.781.121-.5.088-.4.256-.4.191-.117.332-.037.281.33.188.084-.069.123-.028.117.01.114-.062.084.109.057.222.023.077,0,.3.475.365.564.229.536.08.43.084.217.1-.086.02-.214.106-.236-.161-.319-.049-.307-.045-.369.053-.314-.041-.37.093-.519.123-.911.362-.739.345-.207.173-.027.231.013.257.189.474.372.423.2.619.133.369-.138.667-.145.657-.18.6-.912.65-1.236.392-.892.271-.57.068-.141.221-.3.336.052.095.26.185.45.278.389-.245.273-.542.233-.115.181-.047.075-.058.265-.085.382-.141.354-.245.35-.066.1-.026.035-.339.441Z" transform="translate(-585.41 -499.092)" fill="#5751c8" stroke="#eaecff" stroke-linecap="round" stroke-linejoin="round" stroke-miterlimit="10" stroke-width="0.5"/><path d="M730.139,529.834h-.009l-.006-.01v-.009l.01-.007.012.009v.008Zm6.709-.885,1.224.119,1.178-.176.394.072.485.323.264.431.062.243.149.6.019.638-.171.479-.108.252-.129.242-.061.249.056.453-.092,0-.181.053-.263.134-.238-.073-.244-.028-.257-.021-.058.186-.092.077-.069.057-.186.054-.01,0-.178-.084-.153-.121-.412-.038-.261-.1-.2.1-.333.174-.205.252-.082.2-.3.064-.357-.073-.347-.078-.189-.006-.184.138-.05.078-.169.264-.32.121-.251.043-.057.055-.055.054-.168.163-.079.076h-.024l-.464.021-.344.169-.926.536-.408.081-.175.151-.115.248-.022.047-.032.01-.424.131-.048.054-.278-.389-.185-.451-.095-.26-.336-.052-.221.3-.068.141-.271.57-.392.892-.65,1.236-.605.912-.656.18-.04.009.038-.849-.068-.484-.092-.225-.113-.17-.076-.024-.238-.074-.5-.21-.965-.271-.048-.163-.057-.091-.144-.334.032-.2-.036-.2-.163-.958-.067-.7.079-.025.316-.2.27-.047.046.122-.023.2.012.108.128.085.2.28.138-.023.129.006.146.1h.168l.07-.03.037-.016.061-.364.077-.108,0-.19-.059-.044.1-.126.154-.047.161-.19.562-.342.589-.258.054-.14-.084-.075.14-.015.024-.116-.014-.1.247-.04.161-.058-.317.01-.065-.066.108-.077.078-.092.419-.3.015-.263.051-.1.135-.027.028-.011.1,0h.169l.13-.123.061-.1-.165-.116-.127-.166-.069-.173-.178-.177-.06-.118.015-.177-.186-.255-.1-.061.212-.061.214-.02.135.028.085.158.084.024.123-.078.124-.036.018-.342.04-.066.162-.045.087.088,0,.177-.065.1.041.047.151.1.087-.026-.008-.127.119-.135.259-.008.069.088.074-.04.029-.371.032-.109.206-.047.133.092.052.146.044.1.221-.006.131-.036.075-.132.058-.108.268-.067.767.275.4.082.274-.027.216-.044.235-.046.866-.3,1.329-.355Zm-6.717.8,0,.011-.012,0-.005-.01,0-.013h.01l.007,0Z" transform="translate(-610.142 -468.689)" fill="#5751c8" stroke="#eaecff" stroke-linecap="round" stroke-linejoin="round" stroke-miterlimit="10" stroke-width="0.5"/><path d="M792.789,483l.619.176.225-.04h.009l.128-.022-.025.424-.034.053-.049.088-.005.023-.012.009-.061.112-.021.038-.161.128-.026.01-.3.107-.074.108.01.079.018.14.049.384.016.2.107.1.189-.012.106.038.009.12-.007.242.042.267.044.2.014.064.125.072.119.123.125.26.142.143.12.206-.022.205-.063.229-.064.118-.119.271-.1.116-.025.066-.168.274,0,.016-.053.193,0,.207.015.2.034.157.159.105.226.058.208.164.118.319.139.369.21.166.451.139.115.4.186.162-.155.3.085.213.143.057.139.082.1.326.127.114.216.088.034.124.069.322.1.293.173.117.2.154.646.325.119.533.221.083.135.017.074.259.127.128.147.132.146.159.232.224.205.078.131.079.063.2.014.59.155.183.2.044.238.1.1.132.107.134.061.219.056.212.175.115.186.092.253-.042.1.291.094.18.311.18.152.322,0,.225-.138.136-.009.008-.256.192-.082.205-.045.246-.07.228-.011.036-.17.057-.243-.058-.245-.232-.217-.222-.166-.029-.244.1-.255.157-.129.064-.134.067-.2.037-.23-.043-.008,0-.106-.08-.177-.134-.133-.135-.068-.088-.1-.126-.2-.162-.136-.13-.251-.1-.211-.029-.174-.077-.215-.11-.185-.2-.22-.151-.3-.111-.263-.029-.227-.018-.281.006-.445-.005-.255.005-.426-.131-.16-.067-.383-.19-.2-.078-.261-.167-.072-.21-.021-.157-.018-.209.069-.135.2-.1.157-.131.127-.062.12-.135.03-.122.022-.2-.163-.2.015-.14.016-.127-.106-.123-.265.04-.239-.042-.126-.1-.175-.222-.07-.3-.071-.287-.065-.171-.366-.1-.14-.114-.18-.163-.093-.113-.13-.144-.127-.2-.126-.246-.084-.159-.1-.113-.2-.049-.176-.037-.082-.017-.158-.088-.182-.074-.346.071-.148.025-.174-.027h-.189l-.339-.216-.166-.126-.271-.1-.091.171-.056.124-.183.178-.142.01-.287-.084-.19-.047-.162-.032-.246.042-.123.082-.262.048-.188-.03-.237-.063-.265-.013-.2.115-.043.064-.045.065-.16.143,0,0-.1.132v.148l.033.075.055.125-.092.054-.022.013-.121.06-.145.128-.154.1-.11.139-.247.091-.108.048-.14.147-.143.185-.129.157-.194.174-.171.2-.216.135-.153-.188-.145-.1-.176-.1-.146-.044-.154.1-.21.043-.187-.073-.232-.117-.106.049-.132.065-.242-.006-.169,0-.169.008-.166.022-.22.126-.224.2-.107.005-.056-.453.061-.249.129-.242.109-.251.171-.479-.02-.638-.148-.6-.062-.243-.264-.431-.486-.323-.394-.072-1.178.176-1.224-.119-.663.039-1.329.355-.866.3-.1-.346-.315-.525-.312-.771-.064-.284-.02-.34-.109-.4-.114-.313-.071-.391.818-.169,1.041-.068.4.061.608-.163.58.008.375-.087,1.346-.069.643.112.862.268.682-.041.91-.054.651.089,1.583.545,1.9.566-.047-1.219.577-.945,2.21-3.32.831-.248.681-.042,1.359-.168Z" transform="translate(-650.625 -430.357)" fill="#5751c8" stroke="#eaecff" stroke-linecap="round" stroke-linejoin="round" stroke-miterlimit="10" stroke-width="0.5"/><path d="M748.7,484.029l-2.21,3.32-.577.945.047,1.22-1.9-.566-1.583-.545-.651-.088-.91.054-.682.04-.862-.268-.643-.112-1.346.069-.376.086-.58-.008-.608.163-.4-.061-1.041.068-.817.168.071.39.114.313.109.4.02.34.064.284.312.771.315.525.1.346-.235.046-.216.045-.274.027-.4-.083-.767-.275-.268.067-.057.107-.075.133-.131.036-.221.006-.044-.1-.052-.146-.133-.092-.206.047-.032.109-.029.371-.074.04-.069-.088-.259.008-.12.135.008.127-.088.026-.151-.1-.041-.047.065-.1,0-.177-.088-.088-.162.045-.04.066-.018.342-.125.036-.123.079-.084-.024-.085-.158-.135-.028-.214.02-.212.062v-.144l-.052-.066-.264.012-.045-.1.075-.028-.026-.121-.068-.058-.007-.1-.121-.03-.03.192-.088.192-.049-.372-.09.04-.055.205-.107-.118-.115-.005-.071-.114.072-.11-.016-.079-.044-.022-.042-.021-.185-.03-.259.006-.431.13-.145.1-.072.223-.033.281-.139.364-.178.169-.038-.109.056-.141,0-.117-.13-.235-.025-.155.011-.241-.053-.129-.161.009-.166.27-.278.205-.038.127.032.1.069.059.021.06-.255-.091-.016-.122-.054-.082-.174-.069,0-.137.074-.3.057-.081.113-.057.108-.1-.133-.308.038-.112.126-.088.267-.078.049-.137.055-.356-.065-.153-.014-.194.034-.059.144-.082.091-.083-.076-.148-.147-.106-.1-.136.057-.083-.036-.216.013-.48-.016-.22,1.384-.244.392-.07,1.4-.246.091.081.349-.331.19-.135.23-.274.218-.214.167-.061.15-.145.065-.22.125-.192.306-.063.432-.128.347-.148.145-.008.454-.15.058.091.147.029.051.1-.113.08.067.084.2-.033.56.145.173.111.075-.033.048.093.279.12.19.008.1.028.128.148.077-.032.1.095.125.019.048.069.162-.006.128.1.082.1.045.053.174.039.159-.03.148.1.269-.035.178.024.128-.016.12.155.2-.046.186.075.165.009.173-.1.3-.242.156-.187.357-.244.082-.154.046-.143.017-.161.05-.125.192-.128.114-.122.059-.553.408-.558.11-.083.152.121.151.043.112-.123.142-.09,0-.1.451-.051.044-.056.176,0,.089.071.21-.041.049-.083.085.025.1-.049.115,0,.091.207.114.032.038.073.164-.025.141-.049.131.01.114-.108.179-.02.194.018.1.045.319.026.149-.05.07.023.222.153.186-.235.1-.083.322-.038.18,0,.225-.129.2-.2.417,0,.171.076.21-.039.206.2.141-.005-.01.105.159.141.315.173.223,0,.2.079.449-.2.2-.263.068-.16.189-.083.143-.157.15-.022.174-.083.135-.1.166.282.133.057Zm-17.915,7.965.012,0,.005-.012,0-.007-.007,0h-.009l0,.012Zm.01.071.006.01h.009l.006-.008v-.008l-.012-.008-.011.007Z" transform="translate(-610.817 -430.928)" fill="#5751c8" stroke="#eaecff" stroke-linecap="round" stroke-linejoin="round" stroke-miterlimit="10" stroke-width="0.5"/><path d="M718.531,491.439l1.177-.041.247-.023.137.01.268.115.23.1.373-.056.708.069.392.333.247.18.3.054.166-.285.291-.044.254.163.308-.018.093.376-.179.059-.144.008-.347.148-.432.128-.306.063-.125.192-.065.22-.149.145-.168.061-.218.214-.23.274-.19.135-.349.331-.091-.081-1.4.246-.392.07-1.384.244-.2.073-.175.012-.126-.038-.295-.373-.165-.06-.16.05-.1-.13-.128-.222-.116-.079-.173.011-.053-.253,0-.158.092-.227-.091-.046-.108-.015-.192.016-.114-.176-.01-.177-.1-.3-.163-.353.2.078.151.018.242-.134.334-.032.332-.077.225-.167.222-.028.316-.09.177-.09.37-.119.555-.179.128-.076Z" transform="translate(-602.026 -437.353)" fill="#5751c8" stroke="#eaecff" stroke-linecap="round" stroke-linejoin="round" stroke-miterlimit="10" stroke-width="0.5"/><path d="M712.7,456.279l.446.045,1.566-.515-.653.439.116.348-.112.348-.093.208-.172.149-.191.139-.26.25-.127.285-.055.2-.022.148.006.382.283.6.054.069.845.573.43.2.862-.04.4.126.539.128.867.035.458.037-.01.481-.519.873-.341.36-.291.044-.166.285-.3-.054-.247-.181-.392-.333-.708-.069-.373.056-.23-.095-.268-.115-.137-.01-.247.023-1.177.041-.092.046-.128.076-.555.179-.37.119-.177.09-.316.09-.222.029-.225.167-.332.077-.334.032-.242.134-.152-.018-.2-.078.054-.105.022-.1.017-.08h0l.089-.427-.483-.132-.215.25-.047-.168.006-.183.042-.207.126-.129.238-.041.045-.119-.1-.12-.384-.042-.116-.062-.056-.094.01-.162-.011-.064-.018-.114-.064-.136-.01-.12-.2-.067-.123-.113-.021-.131.115-.061.2-.051.04-.01.333-.177.076-.072-.22-.471.208-.216.161-.236.14-.134.132-.209.021-.191.093-.118.287-.481.146-.141.157-.072.213-.182.055-.262.154-.129.37-.152.195-.051.071-.063.386-.479.05-.12.677.159Z" transform="translate(-595.973 -407.647)" fill="#5751c8" stroke="#eaecff" stroke-linecap="round" stroke-linejoin="round" stroke-miterlimit="10" stroke-width="0.5"/><path d="M746.729,449.617l1.268.565.661.56.44.059.593.093.363.043.838.035,1.587.183,1.594.31,1.25-.054.707-.256,1.342-.217-.237.6.043.381.459.357.172.331-.371.449-.2.4.277.5.462.42.332.13h.684l.332.151.207.344-.135.1-.174.083-.15.022-.143.157-.189.083-.068.159-.2.264-.449.2-.2-.079-.223,0-.316-.173-.159-.141.01-.105-.141.005-.206-.2-.21.04-.171-.076-.417,0-.2.2-.225.129-.18,0-.322.038-.1.083-.186.235-.222-.153-.071-.023-.148.05-.319-.027-.1-.045-.194-.018-.178.02-.114.108-.131-.01-.141.049-.164.025-.038-.073-.114-.032-.091-.207-.115,0-.1.049-.085-.025-.049.083-.21.041-.089-.071-.176,0-.044.056-.451.051,0,.1-.143.09-.112.123-.151-.043-.152-.121-.11.083-.408.558-.059.553-.114.122-.192.128-.049.125-.017.161-.046.143-.082.154-.357.244-.157.187-.12.1-.18.145-.173.1-.165-.009-.186-.075-.2.046-.12-.155-.128.016-.178-.024-.269.036-.148-.1-.159.03-.174-.039-.128-.151-.128-.1-.162.006-.048-.068-.125-.019-.1-.1-.077.032-.128-.148-.1-.029-.19-.008-.279-.12-.048-.093-.075.033-.173-.111-.561-.145-.2.033-.066-.084.113-.08-.051-.1-.147-.029-.058-.091-.275.091-.093-.376-.308.018-.255-.163.341-.36.519-.873.01-.481-.458-.038-.867-.035-.539-.128-.4-.126-.862.04-.429-.2-.845-.573-.054-.069-.283-.6-.006-.382.022-.148.055-.2.127-.285.26-.25.191-.139.172-.149.093-.208.112-.348-.116-.347.653-.44.649-.232.455-.012.334-.048.375-.175.516-.152.28-.061.932-.153,1.159-.235Z" transform="translate(-622.38 -402.239)" fill="#5751c8" stroke="#eaecff" stroke-linecap="round" stroke-linejoin="round" stroke-miterlimit="10" stroke-width="0.5"/><path d="M797.937,339.528l.3.252.17.157.161.078.518.293.291.118.456.037.164.1.3.147.181.177.171.326.136.427.106.262.11.194.223.1.384-.027.123.015.264.033.4,0,.679-.076.253-.315.182-.087.272-.075.363-.123h.125l.157.17.178.245.27.225,0,.124.043.208.145.206.246.035.067.009.126.018.281.046.257.222.336.229.153.033.192-.009.263.162.2-.077.473-.266.111-.121.228-.272.113-.323.1-.153.165-.129.245-.023.13-.044.339-.188.342-.159.064.023.091.033.165.125.234.107.218.014.134.044.112.138.256.2.363.288.194.2.2.406.126.315.127.088.111.046.135.021.256.041.266-.052.292-.122.268-.042.11.156.189.4.2.157.346-.062.359-.076.373.036.288.151.376.177.046.173.154.178.238-.016.143.023.175.08.221.154.217.177.052.042.149.024.217.034.267.163.067.061.12.111.236.2.311.336.01.209-.212.083-.139-.091-.135-.053-.278-.1-.216.132-.041.1-.059.145-.182.219-.263.3-.26.294-.021.068-.061.2-.051.185.065.194.143.168.094.127,0,0,.143.187-.018.151-.293.321-.242.269-.013.015-.165.228-.04.228.006.258.121.207.193.075.342.029.359-.06.118-.019.183-.03.245-.03.194-.077.027.228-.14.313.266.383.133-.041.206.071.239.083.2.11.162.073.1.089-.023.146-.054.126-.246.079-.02,0L818,351.9l-.052.175-.123.383-.012.037-.113.2.01.13.008.1.038.456-.043.566.2.235.142.152.009.124-.165.174-.061.1.043.16.223.253.053.215-.273.115-.178.2-.17.065-.4-.16-.177-.07-.209.04-.375.133.019-.417.013-.254-.055-.126-.214-.255-.168-.133-.18.1-.351.181-.191.079-.624.339-.235.183-.142.262-.108.172-.258.249-.149.152-.2.174-.247.244-.169.25,0,.005-.046.034-.042.076-.058.073-.037.087-.022.052-.128.132-.033.02-.156.092-.172.076.033.16-.117.129-.025.066-.063.064-.209.115-.207.08-.181.068-.074.261-.15.171-.091.083-.244.092-.324.1-.1.151.04.122.016.047.137.219-.079.243-.065.3-.03.222-.13.052-.14-.05-.107-.038-.407-.209-.142.076-.136.17-.22.094-.289-.066-.227.105-.324.274-.056.161-.059.3-.109.307-.052.153-.043.07-.1.17-.211.187-.1.183-.04.337-.1.242h-.019l-.507-.039-.257.1-.164.129-.079.205-.1.033-.159.124-.363.063-.619-.176h-1.406l-1.359.168-.681.042-.832.249-.442-.006-.133-.057-.166-.282-.207-.344-.332-.151h-.684l-.332-.13-.462-.42-.277-.5.2-.4.371-.449-.171-.331-.459-.357-.043-.382.347-.875-.069-.508-.327-.386-.006-.426-.321-.28-.67.233-.366-.405-.779-.637-.9-.4-2.154-.149-.214-.053-.009-.13-.079-.159-.038-.112-.06-.153.024-.137-.054-.154-.074.033-.158-.327-.355-.656-.492-.291-.609-.142-.675-.174-.278-.411-.216-.45-.5-.4-.312-.48.041-.359.328-.341.315-.553.217-.619-.03-.5.183-.653,0-.606-.26-.663-.82-1.557-.148-.919.048-.788.157-.544.212-.691.044-.546.279-.066.819-.227.239-.031.116.2.178.684.324.024.224.531.067-.017.281-.071.26-.142.088-.379.029-.274.018-.257.006-.151.029-.171.173-.289.2-.2.166-.264.111-.114.3-.125.268-.07.444,0,.259.09.108.046.252-.166.343-.36.443-.254.2-.337.512-.333.5-.124.606.018.469-.02.549-.1Z" transform="translate(-663.265 -310.516)" fill="#5751c8" stroke="#eaecff" stroke-linecap="round" stroke-linejoin="round" stroke-miterlimit="10" stroke-width="0.5"/><path d="M738.513,360.526l.82,1.557.26.663,0,.606-.183.653.03.5-.217.619-.314.553-.328.341-.041.359.312.48.5.4.216.45.278.411.675.174.609.142.492.291.355.656.158.327.074-.033.054.154-.023.137.059.153.038.112.079.159.009.13.214.053,2.154.149.9.4.779.637.366.406.671-.233.32.28.006.427.327.386.069.508-.11.276-1.342.217-.707.256-1.25.054-1.594-.31-1.587-.183-.838-.035-.363-.043-.593-.093-.44-.059-.661-.56-1.268-.565-.906-.283-1.159.235-.932.153-.28.061-.517.152-.374.175-.334.048-.455.012-.649.232-1.566.515-.446-.045-.706-.19-.677-.159.01-.188.069-.012.079.019.173-.068-.043-.255.145.117.069-.052-.037-.1.023-.082.121-.065.1-.107-.043-.126h.065l.1.086.026-.1-.131-.155.02-.149.093-.063.256-.027.015-.2.106-.09.22-.317.067-.124-.045-.1.094-.084-.006-.125-.138.005-.025-.058.016-.081.322-.342.3-.492.151-.09.047-.028.2-.25-.027-.144-.2-1.094.023-.578-.021-.363-.157-.418-.112-.293.318-.724.177-.545.476-.605.126-.435-.1-.337.362-.3.148-.394-.053-.275-.078-.231.206-.033.158.012.283.083.361.107.151.026.088-.055.294-.039.193.051.1.1.174.1.094.132.185.063.229.079.246.055.04-.162.256-.176.285-.123.089-.093.089-.145.057-.151.228-.232.174-.091.314-.48.12-.131.185-.154.375-.256.2-.041.178.036h.285l.333-.065-.052-.167-.14-.311-.168-.312-.369-.545-.166-.422.058-.089.375-.225.047-.234.117-.252.1-.164.128-.125.342-.2.13-.143.044-.109.032-.41.045-.149.125-.173.161-.149.141-.206.124.061-.044.546-.212.691-.157.545-.047.788Z" transform="translate(-613.126 -325.098)" fill="#5751c8" stroke="#eaecff" stroke-linecap="round" stroke-linejoin="round" stroke-miterlimit="10" stroke-width="0.5"/><path d="M706.8,334.633l.1.089.147.015.109.011.286-.012.307.043.146.049.1.125.064.08.149.266-.141.206-.161.149-.125.173-.045.149-.032.41-.044.108-.13.143-.342.2-.128.125-.1.164-.117.252-.047.234-.375.225-.058.089.166.422.369.545.168.312.14.311.052.167-.333.065h-.285l-.178-.036-.2.041-.375.256-.185.154-.12.131-.313.48-.174.091-.228.232-.057.151-.089.145-.089.093-.285.123-.256.176-.04.161-.246-.056-.414-.142-.093-.132-.174-.1-.1-.1-.193-.051-.294.039-.088.055-.151-.026-.361-.107-.283-.083-.158-.012-.206.034.078.231.053.275-.148.394-.362.3.1.337-.126.435-1.816.084-.56.4-.594.417-.333.117-.124.177-.327.073-.23.129-.194.073-.237.129-.4-.03-.539.254-.456.168-.3.026-.032-.025-.148-.366-.127-.3-.243-.111-.257.211-.166.134-.3-.036-.174-.293.167-.384-.129-.331-.306-.089-.1-.333-.228-.4-.661-1.585-.011-.164-.015-.227.038-.4-.036-.265-.075-.326.049-.4.084-.247.05-.15.038-.11.366-.374.26-.214.161-.127.107-.155.152-.158.148-.058.134-.115.241-.2.144-.137.2-.411.514-.943.807-1.312.631.083.62.232.243.111.189.123.1.164.059.175.3.321h.3l.346-.011.36-.191.631-.545,1.294-.959.667-.182.287.037.913.09.561.166,1.134.32.434-.025.874-.93.426-.475,1.422-.3.295-.146.388-.794-.012-.647.274-.46.027.016.188.1.029.014.27.13.3.172.218.142.159.141.149.23.051.289-.08.129-.065.106-.66.325-.154.227-.282.249-.36.3-.319.216-.312.27-.259.219-.214.221Z" transform="translate(-582.631 -303.42)" fill="#5751c8" stroke="#eaecff" stroke-linecap="round" stroke-linejoin="round" stroke-miterlimit="10" stroke-width="0.5"/><path d="M633.41,320.394l.9.507.674-.124,1.137.686.421.084,1.087.153.442.125,1.106.473.468.252.373-.107.537-.2.42.083.3.2.435.318.752.236.607.351.277.237.034.059.093-.021.072-.092h.081l.1.04.024.053.039.092.007.114.026.09.133.022.034.083.032.078-.07.124-.005.086.089.046.062.057.034.029.047.118-.028.127-.046.077v.033l0,.132-.016.156-.057.06-.807,1.312-.514.943-.2.412-.144.137-.241.2-.134.115-.149.058-.152.158-.107.155-.161.127-.26.214-.367.374-.037.11-.05.15-.084.248-.049.4.074.326.036.265-.038.4.015.227.011.164.661,1.585.228.4.1.333.306.089.129.331-.167.384.174.293.3.036.166-.134.257-.211.243.111.127.3.148.366.032.025.3-.026.456-.168.539-.254.4.03.237-.13.193-.073.23-.129.327-.073.124-.177.333-.117.594-.417.56-.4,1.816-.084-.477.605-.177.545-.318.725.112.293.157.418.021.363-.023.578.2,1.094.027.144-.2.249-.047.028-.151.09-.187,0-.359.008-1.027-.013-2.458-.033-4.756.756-1.017.161-.248.213-.2.3-.218-.045-.246.05-.461-.87-.336-.64-.15-.316,0-.011.057-.129.076-.384.073-.172.137-.147.133-.217.067-.284.1-1.015-.016-.7.023-.3-.047-.359-.006-.208-.057-.224-.091-.113-.039-.12-.131-.621-.044-1.141.042-.875-.043-.582-.068-.1-.256-.155-.079-.117,0-.175-.036-.036-.182.014-.025-.146-.16-.17-.052.038-.047.078-.125.042-.385.241-.511.132-.171-.038-.167.111-.063.105-.1.037-.181.166-.074-.066-.051-.1,0-.273-.049-.132-.114-.147-.187-.163-.016-.231-.113-.205-.228-.177-.075-.105-.535.079-.116-.088-.053.009-.3.051-.049.089-.254.13-.1-.077-.188-.253-.035-.138.05-.288-.118-.035-.076-.111-.072-.28.038-.148-.024-.094-.1-.008-.084.019-.109-.027-.416-.135L631,327.73l-.046-.3.052-.267-.086-.414.025-.123-.015-.1-.026-.074-.135-.145-.1-.065-.025-.07-.12-.018-.1-.195.386-.273.036-.111.05-.036-.038-.084-.012-.209-.082-.095-.014-.379.023-.364.045-.022.035-.077.075-.038.126-.162.133-.119.339-.076.166-.4.093-.1.273-.077.137-.067.037-.091-.046-.12.035-.158-.057-.133.225-.388.147-.138.042-.11-.018-.127-.244-.4-.508-.048-.063-.283.012-.155-.061-.087-.044-.157.293.008.249-.614.341-.684.221-.1.22.2Z" transform="translate(-531.229 -293.786)" fill="#5751c8" stroke="#eaecff" stroke-linecap="round" stroke-linejoin="round" stroke-miterlimit="10" stroke-width="0.5"/><path d="M635.618,165.794l.17.183.322.347.15.264.163.323-.008.163v.9l.149.131.243.183.167.126.134.349.079.2.452.427.239.479.262.236.2.045.387-.122h.01l.442.009.268-.03.011-.018.464-.713.194-.088.654-.211.135-.145.184-.3.118-.131.154-.029.161.068.015.015.007.008.178.187.167.369.151.212-.008.312-.064.291-.021.09-.185.226-.217.271-.046.13-.068.195-.071.278-.09.511-.3.337-.361.067-.591.066-.064.007-.032.015-.407.2-.475.072-.153,0-.17.038-.113.187-.167.13-.264.066-.018,0-.268.076-.256.264-.055.149-.146.387-.085.194-.109.263-.367.362-.149.085-.264.15-.165.037-.2.044-.818.2-.25.107.609.36.38.319.306.483.144.485.108.212.2.272.128.115.142.332.01.311-.092.284-.466.294-.178.133-.013.274-.092.108-.125.177.282.259.212.176.083.236.039.242.22.037.283-.25.48-.244.279-.141.324-.2.507-.437.165-.5.121-.185.189-.2.339-.393.109-.257.177-.213.188-.117.206-.113.127-.095.188-.14.395-.377.1-.108.132-.14.278-.076.3-.039.534-.007.406-.061.431-.075.392-.041.072-.032.289-.132.005,0,.228-.117.147-.2.04-.055.073-.054.2-.146.069-.036.3-.158.22-.166.2-.1.268-.157.172-.035-.308.822-.146.332-.154.327-.139.34-.094.3-.1.161-.16.35.12.346.008.021,0,.014.088.244.1.22.157.081.011,0,.185-.05.32-.219.143-.029.074.169.055.29.041.222.194.321.15.2.076.2.025.065-.029.342,0,.376.06.389.136.139.13.134.171.3.017.029.017.019.169.185.1.233.12.175.255.328.238.256.3.172.25.309.131.183.09.236.147.336.012.413-.041.154-.1.2-.27.478-.293.512-.346.228-.32.1-.734.055-.131.046-.125.045-.365.258-.239.272-.2.134-.165.016-.305.021-.052.113.106.121.021.024.1.192.16.22.088.189.128.234.013.022.106.18-.02.169-.247.215-.284.289-.371.28-.351.258-.126.163-.107.121-.166.306-.144.072-.2-.09-.215-.168-.169.014-.019.117.187.366.026.191.011.223-.151.06h-.173l-.21-.016-.413.01-.073.023-.349.109-.076.082-.207.221-.2.388-.136.087-.1.063-.03.112-.027-.016-.044.074-.036.06-.193.325.012.647-.388.794-.295.146-1.422.3-.426.475-.873.93-.434.025-1.134-.32-.561-.166-.912-.09-.287-.037-.667.182-1.294.959-.631.545-.36.191-.346.011h-.3l-.3-.321-.059-.175-.1-.164-.189-.123-.243-.111-.62-.232-.631-.083.057-.06.016-.156,0-.132v-.033l.046-.077.028-.127-.047-.118-.034-.029-.062-.057-.089-.046.005-.086.07-.124-.032-.078-.034-.083-.133-.022-.026-.09-.007-.114-.04-.092-.024-.053-.1-.04h-.081l-.072.092-.093.021-.034-.059-.278-.237-.607-.351-.752-.236-.435-.318-.3-.2-.42-.083-.537.2-.373.107-.468-.252-1.106-.474-.442-.125-1.087-.153-.421-.084-1.137-.686-.674.124-.9-.507-.437-.7-.22-.2-.221.1-.341.684-.249.614-.293-.008-.037-.134-.059-.49L616,189.63l.023-.541-.088-.222-.144-.228-.019-.322-.072-.325.011-.17-.055-.261-.066-.176-.109-.075.413-.321.048-.065.131-.333.255-.118.039-.174.068-.15-.276-.348-.168-.325-.02-.135.08-.261-.4-.255-.066-.171,0-.165-.062-.026-.025-.152-.145-.406.04-.153-.067-.07-.177,0-.08-.075-.07-.131-.071-.038-.214.036-.066-.058-.034-.16-.079-.054-.042-.216.121-.1-.175-.244.016-.363-.205-.341.234-.19.01-.076-.091-.243.05-.116-.189-.089.243-.288-.01-.07-.112-.247-.315-.114,0-.177-.145-.075-.045-.091.039-.138-.026-.114-.2-.06-.1.121-.315.2-.276.059-.1.007-.137-.032-.221-.128-.016-.137.1-.2.047-.05-.027-.055-.109-.053-.041-.069v-.265l-.018-.056-.29-.19-.06-.394.214-.089.1-.115.224-.553.142-.05.13-.084.042-.113-.079-.339-.1-.032-.089-.079.112-.278.143-.036.216-.093.3-.046h.139l.163.1.259.113.344.09.388.139.757.1.289.082.408.057.27.024.162-.131.128-.1.206-.014.254.108.231.023.181-.039.119-.191.128-.354.131-.2.091-.157.228-.17.032-.074.036-.084.062-.41.042-.588-.026-.435.063-.353.027-.153.185-.091.278.107.376.1.283.11.229.045-.036-.513.005-.169-.021-.221-.028-.28-.047-.375-.01-.035-.117-.452-.135-.332,0-.174.19-.058.4-.051.509-.054.159-.028-.022-.306.029-.43.122-.365.137-.238.167-.028.421.2.29.162.177-.034.118-.193.24-.148.2-.155.333-.2.25-.2.224-.292.121-.25.11-.182.116-.014.237.058.306-.143.41-.439.028-.39.492-.495.194-.23.115-.145.144-.008.118.265.124.279.146.039.155-.1.023-.022.165-.16.23-.224.193-.122.359.038.2-.16.266-.283.4-.568.138-.187.223-.009.265.033.275.034.686.076.575.014.223-.155.295-.411.232-.207.151-.116.243-.063.3-.3.268-.38.225-.3.233-.24.29-.257.358-.137.291-.05.178.042.072.068.085.08.24.322.348.517.3.28.42.273.3.24Z" transform="translate(-515.96 -163.499)" fill="#5751c8" stroke="#eaecff" stroke-linecap="round" stroke-linejoin="round" stroke-miterlimit="10" stroke-width="0.5"/><path d="M594.708,308.03l.174,0,.121-.016.126,0,.09.1.141.1.187.034.123.063.111.146.119.02.5-.2.208-.069.168.021.208.118.1.035.129-.03.21-.128.106-.064.233-.146.108.075.066.176.055.261-.011.17.072.326.019.322.144.228.088.222-.023.541.282.335.059.49.081.291.061.087-.012.155.063.283.508.048.244.4.017.127-.042.11-.147.138-.225.388.057.133-.035.158.046.12-.037.091-.137.067-.273.077-.093.1-.166.4-.339.076-.133.119-.125.162-.074.037-.035.077-.045.022-.023.364.013.379.082.095.012.209.038.084-.05.036-.036.111-.386.273.1.195.12.018.025.07.1.065.135.145.027.074.015.1-.025.123.086.414-.052.267.047.3.117.074.416.135.109.027.084-.019.1.008.024.094-.039.148.073.28.076.111.119.035-.05.288.036.138.188.252.1.077.254-.13.049-.089.3-.051-.066.132-.252.468-.46.619-.462.026-.4.022-.065.082-.108.137.058.486.037.661-.048.247-.334.123-.4.057-.288.4.052.381-.4.581-1.114.515-.319.4-.461.06-.34-.016-.4-.536-.406-.641-.2-.3-.345-.086-.369.02-.256-.16-.366-.469-.078-.309-.09-.519-.026-.488,0-.593.293-.3-.018-.321-.015-.271-.027-.487-.275-.509-.266-.335-.362-.4-.26-.23-.2-.3.016-.281.321-.332.383-.335.035-.491-.029-.523-.039-.321-.016-.13.056-.091.157-.077.12-.109.084-.13.115-.012.129-.041.229-.156.1-.223.043-.093-.033-.152-.05-.113-.036-.082-.011-.285.088-.148.163-.152.129-.224.127-.089.03-.16.044-.03.093-.063.2-.109.066-.106-.029-.159-.049-.042-.122-.152-.03-.037.02-.148.048-.082.078-.135.06-.187.048-.15.1-.113.268-.059.053-.143-.1-.182-.059-.107,0-.116-.047-.084-.283-.174-.195-.092-.07-.121-.035-.179,0-.324.059-.357-.007-.126,0-.087-.006-.112.039-.158-.016-.147.029-.4.286-.1.372-.11.251-.027.1.092.177-.052.231-.212Z" transform="translate(-498.228 -284.207)" fill="#5751c8" stroke="#eaecff" stroke-linecap="round" stroke-linejoin="round" stroke-miterlimit="10" stroke-width="0.5"/><path d="M629.96,377.834l.116.088.535-.079.075.105.228.177.114.2.016.231.186.163.115.147.049.132,0,.273.051.1.074.066.181-.166.1-.037.063-.105.167-.111.171.038.51-.132.385-.241.124-.042.047-.078.052-.038.16.17.025.146.182-.014.036.036,0,.175.079.117.256.155.068.1.043.582-.042.875.044,1.141.011.055.049.236.052.249.018.082.04.12.091.113.057.224.007.208.047.359-.023.3.017.7-.1,1.015-.067.284-.133.217-.138.147-.073.172-.075.384-.057.129,0,.011.15.316.337.64.461.87-.112.329-.017.272-.548.3-.042.084.069.145-.016.1-.275.072-.176.086-.246.5-2.182.882-.055-.219.014-.3-.016-.079-.073-.644-.007-.655-.03-.441-.016-.569-.026-.746-.062-.417-.065-.431.051-.368.148-.591-.04-.445.026-.113.055-.519-.326-.445-.754-.189-.991-.5-.11-.261,0-.517-.147-.384-.43-.35-.442.007-.366-.051-.379,0-.474-.147.4-.581-.052-.381.288-.4.4-.057.334-.123.048-.247-.037-.661-.058-.486.173-.219.4-.022.462-.026.46-.619.253-.468.065-.132Z" transform="translate(-528.181 -342.52)" fill="#5751c8" stroke="#eaecff" stroke-linecap="round" stroke-linejoin="round" stroke-miterlimit="10" stroke-width="0.5"/><path d="M598.012,400.213l.256.16.369-.02.345.086.2.3.407.641.4.536.341.016.179-.023.168-.022h0l.112-.014.062-.079.058-.072.062-.078.068-.086.069-.087,1.115-.515.474.147.379,0,.366.051.442-.007.43.35.147.384,0,.517.11.261.991.5.754.189.325.445-.055.519-.026.113.015.162.025.282-.148.591-.807-.084-1.348.317-1.038-.027-.593.033-1.036-.214-.412-.032-1.317-.773L598.6,404.1l-1.211.062.266-1.476.227-1.046Z" transform="translate(-503.636 -361.211)" fill="#5751c8" stroke="#eaecff" stroke-linecap="round" stroke-linejoin="round" stroke-miterlimit="10" stroke-width="0.5"/><path d="M596.357,425.172l1.035.214.593-.033,1.038.027,1.348-.317.807.084-.051.368.065.431.062.417.026.746.016.569.03.441.007.655.072.644.016.079-.014.3.055.219-.067.027-.062.025-1.112.448L598.5,429.8l-.037-.015-.081-.034-.209.111-.417.108-.705.28-.082.033-.1.041-.566.225-1.081.476-1.345.552-1.006.413-.57-.713-.356-1.124.027-.386-.069-.451-.024-.206-.08-.593-.156-.259.013-.449.053-.238-.252-.638,0-.46-.381-.87.264-.154.284-.1.1-.005.332-.915.063-.573,1.211-.062,1.307.582,1.317.773Z" transform="translate(-498.36 -380.9)" fill="#5751c8" stroke="#eaecff" stroke-linecap="round" stroke-linejoin="round" stroke-miterlimit="10" stroke-width="0.5"/><path d="M565.073,430.052l.931.11.409-.031.434.177.47.273.221.251.381.87,0,.46.252.638-.053.238-.013.449.156.259.08.594.024.206.069.451-.027.386.356,1.124.57.713-1.348.553-.5.166-.21.076-.707.255-.037.014-.256.169-1.489.5-1.2.5-.608.109-.072-.062-.011-.119.1-.03.1.021-.158-.247-.016-.095,0-.107.06-.115.018-.087.049-.081.08-.075.007-.106-.029-.087.07-.01.109-.07-.032-.068.042-.033.117,0,.04-.084.091-.03L563.6,438l0-.12.044-.155.12-.027.064-.129.056-.136-.067-.062-.135-.053.128-.281.11-.118v-.184l.209-.152-.142-.172.023-.081.165-.056.122-.088.107-.143.119-.067.092-.115-.105-.1-.112,0-.186.06-.126-.023-.079-.126-.218-.343.366-.238.063-.111.093.009.156-.441.1-.4.14-.631.036-.5.318-.249.035-.821-.322-.107-.415-.066-.325-.161-.541.207-.41-.168.1-.3.045-.063.172-.078.113-.076.107-.106.092-.35.093-.106.342-.227.123-.082.061-.1.246-.1Z" transform="translate(-474.828 -386.134)" fill="#5751c8" stroke="#eaecff" stroke-linecap="round" stroke-linejoin="round" stroke-miterlimit="10" stroke-width="0.5"/><path d="M542.832,338.647l.3.368.427.466.084.035.075.031.007,0,.063.026.124.052.09.038.336-.088.388-.231.266-.224.339-.019.443.185.275.509.325.3.056.451.029.523-.034.491-.383.335-.321.332-.015.281.2.3.058.052.071.062.13.116.362.4.266.335.275.509.027.487.032.592-.293.3,0,.593.027.488.09.519.029.115.05.195.035.044.062.08.269.344-.134,1.424-.227,1.046-.266,1.476-.063.573-.332.915-.1.005-.284.1-.175.1-.09.052-.221-.251-.47-.274-.433-.177-.409.031-.93-.11-.489.026-.246.1-.02-.073-.159-.137-.113-.148-.1-.037-.052-.1-.4-.319.382-.461.326-.178.1-.171.038-.135.079-.1.1-.077.055-.09.057-.274.074-.15-.106-.076-.224-.161-.169-.21-.375-.025-.122-.072-.026-.123-.109-.167.017-.19-.015-.32.1-.609-.053-.14-.1-.135-.2-.146-.139-.159-.2-.311-.262-.146.18-.111.127.016.09.06.078.02.1-.078.076-.1.191-.014.154-.046.145-.019.321-.044-.052-.114,0-.079,0-.07,0-.055-.066-.139-.249-.266-.059-.125-.069-.085,0-.178.034-.2-.024-.272-.179-.122-.083-.114,0-.226-.161-.3-.088-.105-.031-.145-.073-.179-.08-.07-.025-.178-.16-.049-.078-.151-.028-.147.029-.125-.1-.42-.173-.493-.106-.427-.078-.111-.178-.106-.329.013-.451-.029-.307-.086-.249-.007-.138-.1-.106-.021-.107.12-.184,0-.276-.065-.357-.025-.32.054-.084-.249-.4-.638-.036-.109.143-.279-.018-.149-.039-.176-.268-.6.126-.186-.01-.452.016-.06.185-.231.074-.161,0-.045.007-.078.487-.161.757-.285.366-.089.493-.027.473.184.392.4.2.234.307-.017.273-.085.332-.158.358-.229.258-.363.135-.357.25.057.236.371Z" transform="translate(-453.017 -309.038)" fill="#5751c8" stroke="#eaecff" stroke-linecap="round" stroke-linejoin="round" stroke-miterlimit="10" stroke-width="0.5"/><path d="M459.965,201.065l.08.259-.013.438-.072.46.019.319.142.147.3-.08.278-.143.316-.191.2-.113.162-.094.154-.031.509-.044.251.062.311.156.393.266.319.11.211-.025.3.037h.031l.462-.008.286,0,.093.1.29.174.136.09.235.16.269.143.167.061.311.067.071-.093-.212-.271-.221-.256-.173-.167-.337-.226-.152-.224h.287l.2.065.163.094.257.165.085.036.158.068.285.131.372.047.017,0,.3.048.335.052.371.017.167.008.114.1.186.324.135.228.093.056.133.081.638-.016.24.055.6.11.506,0,.164-.018.282-.03.081-.009.623-.1.273.01-.05.488.106.236-.013.132-.015.145.023.24.207.187.245.117.152-.037-.112.277.089.079.1.032.079.339-.042.113-.13.084-.142.05-.224.553-.1.115-.214.089.06.394.289.19.018.056v.265l.041.069.109.053.027.055-.047.05-.1.2.016.137.221.128.138.032.1-.007.276-.059.315-.2.1-.121.2.06.026.114-.039.138.045.091.145.075,0,.177.315.114.112.247.01.07-.243.288.189.089-.05.116.091.243-.01.076-.234.19.205.341-.016.363.175.245-.121.1.042.216.079.054.034.16.066.058.214-.036.071.038.07.131.081.075.177,0,.067.07-.04.153.145.406.025.152.062.026,0,.165.066.171.4.255-.08.261.02.135.168.325.276.348-.068.15-.039.174-.255.118-.131.333-.048.065-.413.321-.233.146-.106.065-.21.127-.129.03-.1-.035-.208-.118-.168-.021-.208.069-.5.2-.119-.02-.111-.146-.123-.063-.187-.034-.141-.1-.09-.1-.126,0-.121.016-.173,0-.11.011-.231.212-.177.052-.1-.093-.251.027-.372.11-.286.1-.029.4.016.147-.039.158.006.112,0,.087.007.126-.059.357,0,.324.035.179.07.121.195.092.283.175.047.084,0,.116.059.106.1.183-.053.143-.268.06-.1.113-.048.15-.06.187-.078.135-.048.082-.02.148.03.037.123.152.049.042.029.159-.066.107-.2.109-.093.063-.044.029-.03.16-.127.089-.13.224-.163.152-.088.148.011.285.036.082.05.113.033.152-.042.093-.1.224-.229.156-.129.041-.115.012-.084.13-.12.11-.157.077-.057.091-.325-.3-.183-.34-.092-.169-.443-.185-.339.019-.266.224-.388.231-.336.088-.443-.185-.427-.466-.3-.368-.334-.471-.236-.371-.25-.057-.135.357-.258.363-.358.229-.332.158-.273.085-.307.017-.2-.234-.392-.4-.473-.184-.493.027-.366.089-.756.285-.487.161-.007.078-.5-.557-.144-1.044-.067-1.248-.093-.9-.169-.692-.644-.467-.918-.652-.814-.358-.654-.667-.286-.386-.328-.383-.356-.031-.757-.111-.307.016-.529.028-.282-.336-.569-.722-1.01-.749-.855-.306-.732-.514-.384-.582-.246-.489-.606-.62-.229-.127v-.714l.126-.465.147-.093-.34-.727-2.632-1.239-.376.048-1.044.188.165-.287.213-.454.255-.192.211-.2.124-.132.193-.236.3-.281.28-.326.215-.26.249-.4.119-.05.137-.035.26-.024.109,0,.182,0,.339-.022.5-.024.174-.081.022-.019.012-.011.138-.119.089-.28.041-.467.044-.258.114-.135.519-.308.063-.038.366-.252.3-.343.138-.105.072.007.2.02.35.026.328.052.083.019.23.053.42.041.224-.019.291-.024.5-.072.328-.155.311-.186.049-.08.182-.291.108-.3.005-.179.008-.253,0-.31.093-.173.156-.066.13-.116.124-.113.292-.231.134-.133.2-.362.039-.3.047-.432-.019-.265.117-.1.353.032.221.139.45.282.3.1.121.116.258.2.1.078.269.172.18.093.133.12.412.369.165.147.331.457.5.379.3.336.155.231.224.2Z" transform="translate(-375.929 -191.811)" fill="#5751c8" stroke="#eaecff" stroke-linecap="round" stroke-linejoin="round" stroke-miterlimit="10" stroke-width="0.5"/><path d="M423.013,267.577l.116.994-.164,1.08-.77,1.773-.1.122-.035.243-.058.092.151.332-1.028,1-.161.577-.05.02-.258-.126-.108-.1-.063-.222-.078-.038-.651-.027-.171-.085-.2.026-.118-.1-.1-.208-.183-.11-.187-.078-.214-.6,0-.128.162-.437-.014-.071-.16-.051-.168-.107-.106-.173-.254-.082-.227.05-.195-.036-.137-.088-.282-.126-.286-.184-.063.034-.061.119.012.249-.127.167-.175-.145-.166-.077-.14,0-.352.164-.2.063-.21.023-.307-.152-.13.075-.149.022-.291-.1-.349-.232-.181-.2-.192-.454-.1-.105-.221-.14-.043-.094-.07-.3-.167-.244.082-.171-.055-.262.019-.28-.044-.09-.112-.023-.1-.227-.079-.085-.129.022-.177.064-.121-.012-.25-.135-.162-.149-.211-.137-.223-.037-.771-.392-.549-.338-.149-.248.1-.815.328-.982-.112-.352-.4-.48-1.092-.839.074-.256.051-.173.073-.14-.042-.592.077-.256.229-.249.215-.137.111-.071.2-.19.082-.122-.008-.262-.091-.108-.363-.289,0-.255.031-.035.329-.374-.069-.338-.1-.3.2-.18.31-.141.081-.018.318-.07.1-.231.239-.4.322-.4.03-.036.209-.267.31-.309.39-.3.672-.49.408-.325.47-.457.04-.141.015-.443.212-.224.147-.329-.017-.116-.031-.223,0-.115v-.023l.066-.387.1-.248.13-.325.17-.3.167-.349,1.044-.188.376-.048,2.633,1.239.34.727-.147.093-.127.465v.714l.229.127.583.6.024.023.246.489.384.582.732.513.856.306,1.01.749.569.722.282.336-.3.751-.31.088-.835,1.31.435.557-.127.639.01.193-.011.14-.233.441-.025.613.2,1.786Z" transform="translate(-346.298 -237.568)" fill="#5751c8" stroke="#eaecff" stroke-linecap="round" stroke-linejoin="round" stroke-miterlimit="10" stroke-width="0.5"/><path d="M497.517,309.121l.084.249.32-.055.356.025.277.065.184,0,.106-.119.106.021.138.1.249.007.308.086.451.029.329-.013.178.107.078.111.106.427.173.493.1.42-.029.125.028.146.078.151.16.049.025.178.08.069.073.179.031.145.088.105.161.3,0,.226.083.114.179.122.024.272-.034.2,0,.178.069.085.059.125.249.266.066.139-.01.2.052.114-.466.063-.154.046-.191.014-.076.1-.1.078-.077-.02-.09-.06-.127-.016-.18.111.262.146.2.311.139.159.039.029-1.178.449-.6.043-.47-.032-1.068.115-.118-.079-.114-.25-.426-.163-.18-.048-.309-.354-.258-.086.14-.464-.023-.2-.089-.224-.058-.154-.016-.3-.388-.406-.289-.092-.251.089-.2-.032-.2-.353-1.191.239-1.127-.54-.831-.055-.383-.44-.8-.471-1.02-1.027-.058-.242-.222-.015-.442-.3-.458,0,.77-1.773.164-1.08-.116-.994-.315-1.2-.2-1.786,0-.049.022-.564.233-.441.011-.14-.01-.193.127-.639-.435-.557.835-1.31.31-.088.3-.751.529-.028.307-.016.757.111.356.031.328.384.286.386.654.667.814.358.918.652.644.467.169.692.093.9.067,1.248.144,1.044.5.557,0,.045-.074.161-.185.231-.016.06.01.452-.126.185.268.6.039.176.018.149-.144.279.036.11Z" transform="translate(-413.137 -276.292)" fill="#5751c8" stroke="#eaecff" stroke-linecap="round" stroke-linejoin="round" stroke-miterlimit="10" stroke-width="0.5"/><path d="M541.2,402.2l.118.079,1.068-.115.47.032.6-.043,1.178-.449.157.117.1.135.053.14-.1.61.015.321-.016.19.109.167.026.123.121.072.375.025.169.21.329.237-.074.15-.057.274-.055.09-.1.077-.078.1-.038.135-.1.171-.326.178-.382.461.4.319.051.1.1.037.114.148.159.137.02.073-.061.1-.148.1-.515-.146-.753.313-.767.148-.583.031-.537.029-.6.234-.378-.544-.237-.362-.141-.516-.005-.277.051-.291.052-.294.02-.117-.013-.438-.21-.374-.173-.568-.073-.477.1-.177.056-.2-.137-.25-.066-.339-.02-.349.18.048.426.163Z" transform="translate(-456.103 -362.461)" fill="#5751c8" stroke="#eaecff" stroke-linecap="round" stroke-linejoin="round" stroke-miterlimit="10" stroke-width="0.5"/><path d="M532.51,405.256l-.24.093-.483-.028-.6-.1-.537,0-.129-.046-.409-.557-.368-.138.243-.334-.027-.105-.132-.252-.258-.378-.034-.506.454-.24.31-.359.072-.318-.087-.209-.115-.507-.233-.572.693-1.221.142-.231.257.086.309.354.02.349.066.339.137.25-.056.2-.1.177.073.477.172.568.211.374.013.438-.02.116-.052.294-.051.291.006.278.141.516.238.362Z" transform="translate(-446.967 -360.406)" fill="#5751c8" stroke="#eaecff" stroke-linecap="round" stroke-linejoin="round" stroke-miterlimit="10" stroke-width="0.5"/><path d="M503.3,423.159l.409.557.129.046.537,0,.6.1.483.028.843-.328.536-.029.583-.031.766-.148.753-.313.515.146-.318.21-.093.106-.033.124-.06.226-.107.106-.113.076-.172.078-.045.063-.1.3.41.168.541-.207.325.161.415.066.322.107-.035.821-.318.249-.036.5-.14.631-.1.4-.156.441-.093-.009-.063.111-.2.13-.166.108.218.343.079.126.126.023.186-.059.112,0,.105.1-.093.115-.119.067-.107.142-.122.089-.165.056-.024.081.142.172-.21.152v.092l-.445.175-.794.285-.454.267-.556.357-.38.113-.3.258-.235-.122-.539-.035-.232-.536-.3-.062.037-.5-.187-.3-.29-.213-.661-.306-.515-.029-.22-.1-.287-.048-.121-.023-.051-.489-.061-.061-.355-.009-1.273.2-.058-.268-.133-.07-.237-.044-.163-.051-.177-.055-.234-.1-.107-.227-.342-.436-.139-.229-.069-.311-.143-.242-.164-.169-.075-.24-.617-.408-.207-.137-.012-.227-.024-.454-.158-.106-.188-.3-.171-.469-.177-.2.666-.059.237.06.168-.124.329-.2.481-.222.673-.231h-.019l1.11-.867.779-.39.4-.173.464-.042.034.506.257.378.132.252.027.105-.243.334Z" transform="translate(-420.151 -378.947)" fill="#5751c8" stroke="#eaecff" stroke-linecap="round" stroke-linejoin="round" stroke-miterlimit="10" stroke-width="0.5"/><path d="M472.65,463.528l.661.307.29.212.187.3-.037.5.3.062.232.536.539.035.235.122.3-.258.38-.113.556-.357.454-.267.794-.285.445-.175v.092l-.109.118-.129.281.136.053.067.062-.056.136-.064.129-.12.026-.044.155,0,.12-.046.081-.091.03-.04.084-.117,0-.042.033.033.068-.109.07-.07.011.029.087-.008.106-.08.075-.048.081-.019.087-.06.115,0,.107.016.095.158.247-.1-.021-.1.03.011.119.072.062.142.089-.137.093-.186.063-.093.63-.238.227-.468.244-.087-.014-.473.018-.073-.052-.058.028-.026.147-.074.134-.377.184-.115-.012-.133.122-.06.17-.117.189-.093.062-.347.111-.154-.058-.252-.053-.061-.071-.127.017-.1.254-.093.046-.408-.183-.231.01-.14.122.08.181.019.114-.114.117-.182-.022-.175.02-.114.079-.236.109-.186.086-.076.169-.135.175-.138.072-.1.02-.155-.047-.282.146-.12.1-.142-.007-.09.039-.128.021-.116-.034-.134.088-.112.108-.206.3-.106.024-.149-.01-.2.122-.119-.018-.139.023-.251.209-.129.008-.143.042-.264.344-.165.029-.233.214-.244.067-.211-.04-.105.012-.241.4-.244.2-.1-.15-.086-.235-.108-.117-.2-.122-.176-.139-.164-.351,0-.2-.266.066-.448.446-.224-.035-.193-.005-.08.089-.1.046-.121.022-.086.163-.124.082-.146-.1-.167.094-.185-.052-.109-.148-.118.041-.061.075-.252-.206-.14.043-.111-.08-.194.022-.116-.171-.185-.119-.1-.126-.129.124-.108.181-.017.081-.311-.03-.029-.12-.082-.177-.291-.183-.212-.1.071-.166.128-.168.126-.106-.019-.139-.11-.1-.1-.025-.08.018-.107-.125-.056.039-.069.121h-.058l-.26.114-.22.446-.212.279-.171-.046.068-.176.438-.736.421-.422.2-.159.282-.3.284-.17.628-.444.106-.1.12-.113.266-.36.31-.2.263-.129.195-.052.093-.152v-.285l-.186-.033-.176.127-.1.038-.5-.257-.17-.121-.119-.179.054-.7.087-.161.119.094.316.366.366-.208.458-.408.139-.16.037-.044.024-.053.172-.134.135-.153.255-.01.211.035.394-.435.144-.049.267-.051.165-.07.058-.09.016-.269.123-.074.344-.015.08-.074.126-.17.163-.021.194-.1.548-.035.769-.449.67-.223.316-.015.16-.008.308-.183.138-.279-.025-.306,1.273-.2.355.01.06.061.051.489.121.023.288.048.22.1Z" transform="translate(-388.889 -413.459)" fill="#5751c8" stroke="#eaecff" stroke-linecap="round" stroke-linejoin="round" stroke-miterlimit="10" stroke-width="0.5"/><path d="M481.865,370.568l.8.472.383.44.831.055,1.127.54,1.191-.239.2.353.2.032.251-.089.289.092.388.406.016.3.059.154.089.223.023.2-.14.464-.142.231-.693,1.221.233.572.115.507.087.209-.072.318-.31.359-.454.24-.464.042-.4.173-.779.39-1.11.867h.019l-.673.231-.481.222-.329.2-.168.124-.237-.06-.665.059-.058-.066-.756-.322-.366-.031-.223-.1-.248-.068-.027-.091-.135-.107-.093-.112-.2-.072-.038-.038.106-.146.051-.48-.322-.471.117-.468-.019-.16-.39-.481-.1-.274.039-.258-.064-.132-.159-.137-.22-.125-.125-.233.2-.251.077-.151-.04-.269.033-.138-.041-.308.036-.263.081-.062.273-.372.108-.035.449.157.148,0,.19-.054-.419-.129-.2-.116-.069-.064.016-.237-.082-.142-.241-.245-.184-.224-.009-.142.06-.278.214-.249.26-.185.175-.167-.07-.369-.346.135.161-.577,1.028-1-.152-.332.059-.092.035-.243.1-.122.458,0,.442.3.222.015.058.242Z" transform="translate(-403.769 -335.127)" fill="#5751c8" stroke="#eaecff" stroke-linecap="round" stroke-linejoin="round" stroke-miterlimit="10" stroke-width="0.5"/><path d="M454.572,408.305l.165.023.054-.033.125.233.22.125.159.136.064.132-.039.258.1.274.39.48.019.16-.116.468.322.471-.051.48-.106.146.037.038.2.072.093.112.135.107.027.091.114.032.133.037.223.1.366.031.756.322.234.269.059.161.112.308.188.3.158.106.024.454.012.227.207.137.617.408.075.24.164.169.039.065.1.177.069.311.139.229.342.436.106.227.234.1.341.105.237.044.134.07.058.268.025.306-.137.279-.308.183-.476.023-.67.223-.769.449-.548.035-.194.1-.163.021-.126.17-.08.074-.344.015-.123.074-.016.269-.058.09-.165.07-.267.051-.144.049-.394.435-.211-.035-.255.01-.135.153-.172.134-.023.053-.176.2-.458.408-.366.208-.11-.127-.206-.239L454.43,421l-.087.161-.255-.111-.291.015-.271.142-.2.011-.515.326-.156-.817-.153-.035-.133-.377-.4-.27h.319l-.052-.275.039-.173.161-.189.269-.292.631-1.015.215-.416.083-.24.148-.072-.011-.405-.139-.292-.361-.536-.093-.166-.3-.209-.383-.258-.17-.18.037-.106.1-.28.045-.117.018-.141-.1.021-.133.014-.118-.007-.139-.008-.064-.027.083-.213.139-.232-.053-.307-.171-.173-.216-.16-.052-.275-.168-.312-.356-.484-.033-.469-.055-.328-.147-.11-.265-.178-.16-.152-.056-.36-.208-.545.021-.275.041-.12.084-.369.334-.078.235-.033.1-.055.114-.127.131-.032h.168l.109-.023.209-.065.082,0,.057.062.038.119.041.048.105.034.077.078.141.271.1.091.071.035.135-.029.037-.008.074-.031.014-.064-.067-.121-.075-.138,0-.1.049-.129.065-.133-.013-.114.027-.091.113-.042.675-.1.129-.057.168-.067.14-.021.1.007.054,0,.039-.029.108-.324.023-.071.085-.04Z" transform="translate(-380.743 -367.914)" fill="#5751c8" stroke="#eaecff" stroke-linecap="round" stroke-linejoin="round" stroke-miterlimit="10" stroke-width="0.5"/><path d="M408.653,442.154l.132.357-.086.12.012.06.071.046.253.058.2.04.023.059.537.342.468.254.246.122.2.025.35.046.581-.272.166-.073h.139l.3-.1.351-.053.413.05.417.031.17.18.383.258.3.209.094.166.36.537.138.292.011.406-.148.072-.083.24-.215.416-.632,1.015-.269.292-.161.189-.039.173.052.275h-.319l.4.27.133.377.153.035.148.775.008.042.515-.326.2-.01.271-.142.291-.015.255.111-.03.4-.024.3.119.179.17.121.5.257.1-.038.175-.127.186.033v.286l-.093.151-.195.052-.263.129-.31.2-.266.36-.226.213-.628.444-.284.17-.282.3-.2.159-.421.422-.438.736-.069.176.073.188.256.1.059.064.012.1-.091.224.118.2.034.16.21.113.173.025.442.363-.01.2.047.3.169.382-.068.121-.016.028-.969.515-.16.124-.074.159-.044,0-.094-.282-.194-.274-.433.022-.822.164-.694.562-.58.678-.927.25-.4-.02-.511-.2.293-1.512-.188-.229-.226-.268-.336-.3-.154-.158-.027-.143-.027-.134-.012-.1-.005-.049-.042-.337-.11-.606-.226-.517-.626-.352-.1-.187.215-1.014.291-.612.039-.365-.091-.294-.215-.117-.372-.026-.2.037-.295.1-.292.032-.241-.094-.3-.225.316,0,.748-.233.278-.147.171-.213.006-.365-.084-.245-.168-.188-.326-.206-.222-.148-.1-.147-.134-.3-.438-.209-.379-.241-.212-.124-.121-.143,0-.192.1-.169.095-.254.014-.215.026-.115.093-.147.047-.059.037-.234-.214-.049-.228-.5-.6-.006-.114-.016-.111-.051-.012-.134.032-.1.045-.1-.009-.2.3-.087.421-.064.44.085.1-.005.626-.125.316-.319.394-.34.7-.213.193-.344.142-.26.69-.4.132-.4-.122-.346-.042-.072-.725.112-.182-.033-.075-.178.038-.194.148-.264.2-.149.375-.083.237-.012.349.143Zm-2.161,7.5-.01.024-.014,0h-.022l-.011-.009,0-.015,0-.023.016-.006.022.007.013.01Z" transform="translate(-341.854 -395.848)" fill="#5751c8" stroke="#eaecff" stroke-linecap="round" stroke-linejoin="round" stroke-miterlimit="10" stroke-width="0.5"/><path d="M401.519,409.593l.123,0,.132-.017.135-.157.157-.072.146-.125.108-.112.053-.259.164-.319.154-.126.21-.064,0-.067.4-.371.173-.319.134-.146.03-.161.092-.251.012-.175.208.545.056.36.16.152.265.178.148.11.055.328.034.469.357.484.168.312.052.275.216.16.171.173.053.307-.139.232-.082.213.064.027.139.008.118.007.133-.014.1-.02L406,411.3l-.045.117-.1.28-.038.107-.417-.031-.414-.05-.351.053-.305.1h-.139l-.166.073-.581.272-.35-.046-.2-.025-.246-.122-.468-.254-.537-.342-.023-.059-.2-.04-.253-.058-.071-.046-.012-.06.086-.12-.132-.356-.234-.33-.349-.143-.237.012-.375.083-.2.149-.148.264-.038.194.075.178.182.033.725-.112.042.072.122.346-.132.4-.691.4-.142.26-.125-.023-.4-.3-.126-.091-.121-.135-.242-.044L398.5,412l-.1.241-.039.01-.085-.309-.239-.037-.289-.008-.09-.062-.068-.116-.027-.285-.056-.115.007-.043-.023-.057-.178-.1-.511-.188v-.187l-.032-.185-.03-.055-.034-.064-.129-.088-.46-.135-.056-.055-.085-.144-.256-.243-.055-.176.021-.176.06-.191.06-.183.223-.687-.213-.218-.133-.215,0-.171.05-.073-.077-.2-.091-.548-.374-.533-.273-.093-.183-.187.073-.431.069-.246-.121-.244-.115-.312-.073-.337.018-.195.5-.344,1.042.371.959.594.44.085.31.134.455.384.428.214.329.9.379,1.81.351.218.435.192.63.257.374.28Z" transform="translate(-334.235 -364.39)" fill="#5751c8" stroke="#eaecff" stroke-linecap="round" stroke-linejoin="round" stroke-miterlimit="10" stroke-width="0.5"/><path d="M403.065,348.11l.121.012.177-.064.128-.022.079.085.1.227.112.023.044.09-.019.28.055.262-.083.171.167.244.07.3.043.094.221.14.1.105.192.454.181.2.272.182.077.051.291.1.149-.022.13-.075.307.152.21-.023.2-.063.352-.164.14,0,.166.078.175.145.127-.167-.012-.248.061-.119.063-.034.285.184.283.126.137.088.195.036.227-.05.254.082.106.173.168.107.16.051.014.071-.162.437,0,.128.214.6.187.078.183.11.1.208.118.1.2-.026.172.085.651.027.079.038.063.222.108.1.258.126.4-.155.07.37-.175.167-.26.185-.214.249-.06.278.009.142.184.224.241.244.082.142-.015.236.07.064.2.116.419.129-.19.054-.148,0-.449-.157-.108.035-.273.372-.081.062-.036.263.041.308-.033.138.04.269-.077.151-.2.251-.054.033-.165-.023-.18-.067-.085.04-.023.071-.108.324-.039.029-.054,0-.1-.007-.14.021-.168.067-.13.057-.675.1-.114.042-.027.091.013.114-.065.133-.049.129,0,.1.075.138.067.121-.013.064-.074.031-.037.008-.135.029-.071-.035-.1-.091-.141-.271-.077-.078-.105-.034-.041-.048-.038-.119-.056-.061-.082,0-.209.065-.109.024h-.168l-.131.032-.114.127-.1.055-.235.033-.334.078-.084.37-.041.12-.033.451-.092.251-.03.161-.134.146-.173.319-.4.371,0,.067-.21.064-.154.126-.164.318-.053.259-.108.112-.146.125-.157.072-.135.157-.132.017-.123,0-.3-.134-.374-.28-.63-.257-.435-.191-.351-.218-.379-1.81-.329-.9-.428-.214-.455-.383-.31-.134-.44-.085-.959-.594L397.709,357l.392-.41.175-.551.094-.376.418-.477.7-.321.258-.384.256-.441.482-.453.218-.377.107-.1.28-.552.259-.87.071-1.075-.03-.327-.2-.561.338-.789.969-1.212.158.1.162.149Z" transform="translate(-336.859 -317.37)" fill="#5751c8" stroke="#eaecff" stroke-linecap="round" stroke-linejoin="round" stroke-miterlimit="10" stroke-width="0.5"/><path d="M305.781,321.256l.329.131.171-.051.214-.17.218-.374.332-.483,1.092.838.4.48.112.351-.328.982-.1.815.149.248.38.234.169.1.771.392.223.037.053.035L309,326.039l-.338.789.2.561.03.327-.071,1.075-.259.87-.28.552-.107.1-.218.377-.482.453-.256.441-.259.384-.7.321-.418.477-.094.376-.175.551-.392.41-.5.344-.068-.084-.581-.261-.847-.212-.195-.085-.144.028-.227-.076-.209-.153-.168-.258-.1-.074-.072-.135-.1-.059-.343-.013-.205-.1-.555-.473-.2-.093-.3-.26-.086-.029-.247.165-.2.3-.151.077-.183.044-.439-.151-.092.034-.059.077-.121.311-.073.286-.213.435-.356.011-.118.036-.152.1-.246.223-.142.162-.2-.173-.2.057-.069-.02-.325-.18-.188-.04-.509-.012-.183-.029-.284-.123h-.193l-.326-.117-.1.013-.109.166-.077.065-.353.079-.059,0-.155-.3-.068-.03-.07.022h-.153l-.131.091-.186-.071-.289-.158-.1-.247-.077-.293-.226-.06-.145.036-.219.068-.054-.093-.017-.1-.132.045-.019-.152.036-.152-.044-.053-.383-.168h-.1l-.043-.088-.018-.119.051-.17-.021-.036-.062-.021-.227.006-.142-.018-.085-.055-.122-.172-.445.138-.2.135-.234.12-.14.045-.091.006-.17-.225-.1-.2-.068-.288-.14-.044-.474.008-.364.2-.15.309-.108.089-.087.041-.064.074-.067.123,0,.143-.09.049-.038-.022.037-.094.031-.076-.086-.429-.036-.178.055-.5.212-.693-.16-.22-.268-.149-.31-.153-.386-.183-.256-.19.032-.219.2-.134.272-.159.171-.105.151-.186.217-.374.164-.238.159-.151.028-.017.453-.271.227-.172.173-.135.161-.119.077-.273.051-.226.159-.674.205-.435.195-.27-.067-.316-.175-.446.051-.228.171-.052.127-.089.213-.108.211-.049.049-.223.017-.237.021-.307.078-.139.034-.061.132-.005.239.025.285-.072.2-.121.521-.174.15-.034.256-.058.175-.04.461-.3.184-.215.008-.009.1-.1.109-.11.3.214.17.334.118.141.195-.055.022-.261.079-.384.108-.159.05-.033.143-.093.116-.008.145.051.223.057.076.05.177.118.017.069.042.174.119.125.252.061.723-.059.366.016.848.037.344-.073.386-.118.1-.032.384-.167.409-.174.415-.242.372-.036.369-.137.29-.145.171-.04.325.124.1.038.382.239.283.123.093.041.263-.1.306-.281.544-.467.429-.311.22-.1.149,0,.218.025.2.053,1.068.758Z" transform="translate(-244.333 -294.473)" fill="#5751c8" stroke="#eaecff" stroke-linecap="round" stroke-linejoin="round" stroke-miterlimit="10" stroke-width="0.5"/><path d="M222.655,387.6l.17.225.091-.006.14-.045.234-.12.2-.135.444-.138.122.172.085.055.142.018.227-.006.062.021.021.036-.051.17.018.119.043.088h.1l.383.168.045.053-.036.152.019.152.132-.045.017.1.054.093.219-.067.145-.036.226.06.077.293.1.247.289.158.186.071.131-.091h.153l.07-.022.068.03.155.3.059,0,.276-.062-.069.281-.1.142-.058.253-.02.2.057.125.05.11.056.112,0,.1-.007.173-.078.471v.3l.065.254.158.158.034.067-.005.042-.031.262.057.322.258.729-.107.2-.034.121.055.094.068.044.136.088.252.1.2.041.146.2.163.214.039.171.2.165.1.149.13.213.106.061.135-.052.137-.081.329.006.178.02.309.11.16.077.121.195.175.167.038.1.114.311.126.4.087.274,0,.165-.143-.037-.275.071-.112.048-.193.195-.132.391-.3.684-.452.592-.339.3-.3.328.038.491-.051-.052-.016.2-.064.182-.054.153-.039.162.045.2.054.135-.008.166-.057.136-.093.054-.151-.024-.163-.018-.134-.065-.061-.037-.119,0-.066-.042-.039-.094-.043-.053-.034.024-.094.1.021.035-.057.114-.008.274,0,.132-.032.251-.063.094-.05.1-.09.342-.094.018-.137.024-.109.074-.094.065-.182.084-.227.042-.261.017-.233,0-.355.072-.1.035-.173.124-.183.129-.178.048-.055,0-.064,0-.109-.026-.046-.07-.061-.094-.155-.17-.107-.093-.079-.165-.114-.151-.092-.115-.081-.023-.106.019-.086.047-.133,0-.079-.021-.061-.016-.064.042-.04.1-.017.126-.039.1-.117.1-.059.1-.064.137-.169.1-.165.1-.132.127-.174.177-.129.019-.14.03-.107.023-.156.047-.077.142-.044-.2-.057-.143-.188-.3-.114-.094-.064-.176.014-.085h-.1l-.306-.138-.279-.287-.149.023-.072.032,0,.095-.037.106-.006.175-.082.133-.206.207-.174,0-.216.1-.08-.023-.089-.06-.5-.039-.114.021-.144.129-.1.007-.323,0-.231.222-.115.057-.086-.035-.274-.29-.2-.162-.077-.027-.286.017-.255.088-.322.061-.109.05-.321.033-.205.1-.087.021-.091-.026-.131-.152-.2.049-.365.128-.1-.081-.2-.025-.135-.048-.2-.481-.174-.026-.168.074-.067-.1-.059-.356-.136-.082-.027-.315-.177-.122-.022-.2.023-.308-.1-.353.005-.11.049-.153-.042-.2-1.376-.489-.052-.061-.214-.145-.029.047-.268-.133,0-.222-.326.011-.228-.027-.257.03-.2-.043-.889.293-.226-.075-.579-.082-.212-.17-.088-.115-.245-.148-.1-.144.152-.351-.167-.18-.16-.165-.169-.381-.025-.054-.334-.492-.2-.217-.2-.216-.39-.288-.491-.1-.053-.145.147-.323.13-.558.1-.414.057-.231.118-.168.052-.073.184-.129.042-.029.226-.186.42-.271.406-.216.033-.029.162-.143.36-.314.031-.026.6-.508.414-.573.208-.065.232.063.089.121-.025.394.028.08.082.226.14.05.095-.032.237-.2.006-.005.2-.113.137-.079.521-.3.582-.333.252-.33.173-.6.253-.238.126-.053.149-.062.215-.089.352-.307.233-.115.266.053.316.234.037.262.093.237.13.119.15-.023.241-.284.258-.384.34-.341-.029-.11-.22-.583-.054-.181-.041-.137-.022-.075.041-.1.035,0,.192-.022.363.019h.008l.4-.153.026-.008.17-.052.075-.022.4.072.217-.036.395-.25.038-.024.319-.353.113,0,.2.039.5.169.659.006.369-.042.341-.173.3-.328.021-.054.038.022.09-.049,0-.143.067-.123.064-.074.087-.041.108-.089.15-.309.364-.2.474-.008.14.044.068.288Z" transform="translate(-177.146 -350.227)" fill="#5751c8" stroke="#eaecff" stroke-linecap="round" stroke-linejoin="round" stroke-miterlimit="10" stroke-width="0.5"/><path d="M338.764,392.334l.555.473.205.1.343.014.1.059.072.135.1.074.168.258.209.153.227.076.144-.028.195.085.847.212.581.261.068.084-.018.195.073.337.043.118.071.195.121.245-.069.246-.074.431.183.187.273.093.374.534.091.548.077.2-.05.073,0,.171.133.214.213.218-.283.87-.06.191-.005.046-.016.131.029.091.027.084.256.243.085.144.056.055.46.135.129.088.034.064.03.055.032.185v.187l.511.188.178.1.023.057-.007.043.056.115.027.285.068.116.09.062.289.008.239.037.085.309.039-.01.1-.241.121-.088.242.044.121.135.126.091.4.3.125.023-.193.344-.7.213-.394.34-.316.319-.626.125-.1.005-.44-.084-.421.063-.3.088.009.2-.045.1-.032.1.012.134.111.051.114.016.6.006.228.5.046.01-.09.073-.37-.195-.346-.089-.264-.168-.206-.139-.429-.131-.083.108-.086.051-.138.126-.043.039h-.082l-.084-.042-.093-.081-.175-.165-.34-.257-.2-.1-.162-.142-.123-.1-.063.075-.1.122-.2.024-.078.022-.063.074-.067.114-.1.033-.082.076-.119.006-.356.1-.182-.023-.079-.037-.051-.024-.078.008-.044.013-.137.042-.072,0-.007-.149-.031-.134-.173-.177-.139-.214-.087-.127-.134-.115-.055-.147-.039-.12-.084-.1-.067-.046-.037-.052-.04-.056-.232-.07-.164,0-.185.054-.2.02-.144-.016-.34.026-.27.045-.12-.017-.26-.151-.036-.073-.114-.052-.255-.141-.088-.093-.067-.071-.046-.2-.024-.175-.055-.125-.082-.094-.1-.117-.033-.158.008-.348-.086-.274-.126-.4-.114-.311-.038-.1-.175-.167-.121-.195-.161-.077-.309-.11-.178-.02-.329-.006-.137.081-.135.053-.106-.061-.13-.213-.1-.149-.2-.165-.039-.171-.163-.215-.146-.2-.2-.042-.252-.1-.136-.088-.068-.044-.055-.094.034-.121.107-.2-.258-.729-.057-.322.031-.262.005-.042-.034-.067-.158-.158-.065-.254v-.3l.078-.471.007-.173,0-.1-.056-.112-.05-.11-.057-.125.02-.2.058-.254.1-.142.069-.281.078-.017.077-.064.109-.166.1-.013.327.117h.193l.284.123.182.029.509.012.188.04.325.181.069.02.2-.057.2.173.142-.162.246-.223.152-.1.118-.036.356-.011.214-.435.073-.286.121-.31.059-.077.092-.034.439.151.183-.044.151-.077.2-.3.247-.165.085.029.3.26Z" transform="translate(-282.23 -354.311)" fill="#5751c8" stroke="#eaecff" stroke-linecap="round" stroke-linejoin="round" stroke-miterlimit="10" stroke-width="0.5"/><path d="M306,451.527l-.007.262.011.153.07.054.081.018.028.041v.085l.124.2.114.075.051.053-.022.086-.055.1-.036.063-.018.094.024.029.057.069.02.093-.058.245-.033.123-.085.06-.02.061-.011.172,0,.067-.013.12-.022.07-.018.056.02.076.03.094-.023.05-.04.054-.039.066-.054.208-.075.247-.062.2-.095.084-.038.039-.128.132-.1.125-.079.081-.046.02-.106.047-.113.091-.077.068-.12.032-.084.06-.053.088-.02.148-.08.14-.07.106-.072.183-.037.079-.163.08-.14.088-.092.149v.06l.059.108.04.13.089.165.049.048.183.151.065.09.062.122.015.234.029.093.056.081-.037.126.036.151.014.057.03.126-.034.447-.095.185-.342.242-.11.127-.017.1-.011.066-.188.571-.34.049-.246.134L303,460.5l-.362-.023-.488-.382-.184-.072-.324.016-.613.03-.116.006-.568.028-.533.066-.545.067-.563.311-.592.434-.337.635-.053-.042-.081-.026-.124.053-.127,0-.122-.037-.2-.08-.095-.14-.313.018-.018-.036.036-.062.094-.051.052-.061.017-.061.04-.025v-.027l-.048-.114-.082-.1,0-.18-.065-.027-.133-.257-.024-.1.016-.2-.421-.23-.015-.083-.213-.138-.107-.209-.175-.13.11-.07.089-.173.075-.023.032-.041.072-.146-.071-.139h.108l.161-.293.076-.095.06-.168-.011-.081-.537-.327-.02-.056.03-.137.093-.191.138-.293.133-.225.056-.058-.032-.132.239-.343,0-.062.091-.287.055-.306.077-.142.156-.047.107-.023.14-.029.129-.019.174-.178.132-.127.165-.1.169-.1.064-.137.059-.1.118-.1.039-.1.017-.126.04-.1.064-.042.061.017.079.021.134,0,.086-.046.106-.019.081.023.092.115.114.151.079.165.107.092.155.17.061.094.045.07.109.026.064,0,.055,0,.178-.048.183-.129.172-.124.1-.035.355-.072.233,0,.261-.017.227-.042.182-.085.094-.065.109-.074.137-.025.094-.018.09-.342.05-.1.063-.094.032-.251,0-.132.008-.274.057-.114-.021-.035.094-.1.034-.024.043.053.039.094.065.042.119,0,.061.037.134.065.163.019.151.024.093-.054.057-.136.008-.166-.054-.135-.046-.2.039-.162.054-.153.064-.182.016-.2.051.052-.038-.491.3-.328.339-.3.452-.592.3-.684.132-.391.193-.195.111-.048.275-.071.143.037,0,.183.033.158.1.117.082.094.055.125.024.176.046.2.067.071.088.093.255.141.114.052.036.073-.065.185-.14.241-.127.291-.153.292Z" transform="translate(-251.589 -401.73)" fill="#5751c8" stroke="#eaecff" stroke-linecap="round" stroke-linejoin="round" stroke-miterlimit="10" stroke-width="0.5"/><path d="M349.9,458.123l.12.017.271-.045.34-.026.144.015.2-.019.185-.054.164,0,.232.07.04.056.037.052.067.046.084.1.039.12.055.147.134.115.086.127.139.214.173.176.031.134.007.149.072,0,.137-.043.044-.013.078-.007.051.024.079.037.152.019.029,0,.356-.1.119-.006.082-.076.1-.033.067-.114.063-.074.078-.022.2-.024.021-.025.083-.1.063-.075.123.1.162.142.155.082.041.022.34.257.175.165.058.051.035.03.084.042h.082l.043-.039.138-.126.086-.051.083-.108.429.132.206.139.264.168.347.089.371.195.09-.073.168.038-.037.234-.047.059-.093.147-.026.115-.014.215-.095.254-.1.168,0,.192.121.143.212.124.379.241.438.209.134.3.1.147.222.148.326.206.168.187.084.245-.006.365-.171.213-.278.148-.748.233-.316,0-.258.058-.137.148-.046-.111-.017-.212-.109-.243-.208-.129-.3-.073-.178-.08-.547.152-.1.183-.265.085-.29-.11-.31.14-.408.056-.444.289-.409.248-.231.141v.268l-.487.366-4.412,2.949-1.119.077-.13-.44-.335-.186-.09.012.188-.571.028-.169.11-.127.342-.242.095-.185.034-.448-.044-.183-.036-.151.037-.126-.055-.081-.029-.093-.015-.234-.062-.122-.065-.09-.183-.151-.049-.048-.09-.165-.04-.13-.015-.028-.043-.08v-.06l.092-.149.14-.088.163-.08.015-.033.022-.046.071-.183.07-.106.08-.141.02-.148.053-.088.084-.06.12-.031.077-.068.113-.091.152-.067.079-.081.1-.125.166-.17.1-.084.062-.2.075-.247.054-.208.039-.066.039-.053.023-.05-.03-.095-.02-.076.04-.126.013-.12.015-.24.019-.061.085-.06.033-.122.058-.245-.02-.093-.057-.069-.024-.03.018-.094.036-.063.055-.1.022-.086-.051-.053-.114-.075-.124-.2v-.085l-.028-.041-.081-.017-.07-.054-.011-.153.007-.262.041-.272.153-.292.128-.291.139-.24.065-.185Zm9.417,5.155.014,0,.01-.024-.007-.015-.013-.01-.022-.007-.016.005,0,.023,0,.015.012.009Z" transform="translate(-294.703 -409.455)" fill="#5751c8" stroke="#eaecff" stroke-linecap="round" stroke-linejoin="round" stroke-miterlimit="10" stroke-width="0.5"/><path d="M398.114,519.177l.11.606.042.337,0,.029,0,.02.012.1.027.134.027.143.154.158.336.3.226.268.187.229-.293,1.512-.116-.047-.507-.015-.48-.219-.541.028-.74.067-.153.014-.618.055-.539.048-.225.28-.128-.129-.115-.052-.372-.021-.3-.167-.2-.16-.113-.136-.172-.287-.189-.326-.184-.433-.179-.224-.252-.079-.188-.136-.258-.268-.1-.361.132-.011.163-.035.328-.174.388-.087.12-.02.11.022.1-.01.062.046.08,0,.082.032.064-.007-.034-.2.624-.351.535-.13.377-.082.229.02.157.154.172.217.038.115.01.112.266-.208.229-.156.355-.279.083-.041.184,0,.264-.163Z" transform="translate(-332.326 -460.574)" fill="#5751c8" stroke="#eaecff" stroke-linecap="round" stroke-linejoin="round" stroke-miterlimit="10" stroke-width="0.5"/><path d="M360.314,493.525l.109.243.017.212.046.111.137-.148.258-.058.3.225.241.094.292-.033.295-.1.2-.037.372.026.215.117.091.294-.038.365-.292.612-.215,1.014.1.186.626.352.226.517-.714.036-.264.163-.184,0-.083.041-.355.279-.229.156-.266.208-.01-.113-.038-.115-.172-.217-.156-.154-.229-.02-.377.082-.535.13-.624.351.034.2-.064.008-.082-.032-.08,0-.062-.046-.1.01-.11-.022-.12.02-.388.087-.328.174-.163.035-.132.011.1.361.258.268.188.136.252.079.179.224.184.433.189.326.172.287.113.136.2.16.3.167.372.021.115.052.128.129-.319.4-.362.707-.342.382-.4.669.016.323.2.395.026.525-.684.763-.563.311-.793.04-1.768.088-.9,0-.553-.215-.588-.173-.306-.349-.1-.643-.05-.281-.368-.143-.375-.265-.232-.313-.026-.525.471-.712.661-.519.442-.236.226-.121.09-.369-.224-.151-.474-.1-.31-.43-.577-.7-.682-.655-.384-.467-.36-.712,1.119-.077,2.828-1.889,1.387-.928.2-.132.488-.365v-.268l.641-.389.445-.289.408-.056.31-.14.29.11.265-.085.1-.182.547-.152.178.08.3.073Z" transform="translate(-297.51 -438.913)" fill="#5751c8" stroke="#eaecff" stroke-linecap="round" stroke-linejoin="round" stroke-miterlimit="10" stroke-width="0.5"/><path d="M309.464,517.745l.362.023.541-.026.246-.134.43-.061.335.186.13.44.36.712.384.467.682.655.577.7.31.43.475.1.224.151-.09.369-.668.357-.661.519-.471.712.026.525.233.313.374.265.368.143.05.281.1.643.079.089.228.26.587.174.553.216.9,0,1.768-.088.793-.04.563-.312.684-.763-.026-.525-.2-.395-.016-.323,2.085.589.936.343.056.476-.15.167-.1.254.051.37-.683.283-.553.347-.766-.121-.479.435-.154.218-.66.122-.479.254-.174.328-.313.388-.291.21-.2.169-.455.712-.146.05-.077.042-.1.039-.157.208-.055.049-.038.142-.095.094-.095.073-.082.137-.155.006-.077.062-.122.07-.046.029-.149.008-.166.053-.084.018-.073-.023-.277-.314-.235-.119h-.068l-.07.034-.009.01-.063.07-.048.07-.03.046-.132.106-.221.1-.036.056-.414.169-.115.055h-.154l-.111-.064-.274-.085-.175.013-.044.482-.3.617-.423.428-.332.018-.065-.076-.136-.013-.1-.01-.056-.025,0-.153-.073-.155-.181-.149-.09-.183-.216-.154-.521-.168-.276-.032-.425.027-.318.027-.217.022-.234-.017-.192-.093-.15-.145-.278.138-.358.142-.338.158-.383.149-.287.054-.256.057-.4-.009-.167-.094-.166-.026-.014-.039-.1-.016-.1-.125-.057-.026.019-.1-.024-.12-.278-.184-.131-.152-.069-.024-.108-.227-.168-.1-.226.022-.064.03-.188.1-.152.131-.36.078-.17.069-.069-.025-.051-.059-.086-.054,0-.048-.04-.09.011-.1-.027-.113.044-.095.08-.078.024-.053-.1-.157.012-.091.035-.047-.016-.06.012-.06.052-.009.056.022.035-.095.09.01-.053-.147-.185-.189.036-.013.1-.117L304.1,529l.09-.068.147-.136.057-.086.031,0,.036-.033.1-.029.05-.161.113-.1.163-.061.139-.021.078-.083.116-.047.1-.082.181-.065.168-.161-.044-.283.03-.082-.053-.083.055-.027.006-.059-.017-.109-.085-.046-.039-.334-.04-.124.154-.061.12-.1.112-.254.051-.053.133-.083.094-.023.166-.154.157-.066.253-.06.049.026.071-.083.4-.228.144-.058.23-.157-.118-.237.116-.227-.032-.2-.1-.233-.012-.243.024-.062-.052-.133-.178-.153-.28-.083-.233-.191-.128-.026-.183-.285-.046-.023h-.05l-.209.081-.058-.036-.084-.009.078-.107.053-.034.046-.091.055-.031.007-.209.044-.123-.02-.047-.108-.111-.032-.171-.053-.114-.023-.174.015-.166-.11-.07.008-.078-.043-.037-.034-.114-.039-.055-.005-.068-.044-.05-.1.018-.053-.017,0-.062-.066-.185-.077-.153-.1-.026-.055-.072.017-.036.1-.065.167-.053.136-.079.136-.115.04-.076.017-.236.093-.115.142-.017.029-.022.04-.094-.021-.075-.074-.083-.054-.123-.115-.11-.268-.031-.153-.154-.1-.064-.083-.105-.037-.015-.362.063-.09-.018-.02-.026.021-.087.079-.16-.1-.061-.228-.086-.042-.032.337-.635.592-.434.563-.311,1.077-.133.568-.028.116-.006.613-.029.324-.016.184.072Z" transform="translate(-258.42 -458.999)" fill="#5751c8" stroke="#eaecff" stroke-linecap="round" stroke-linejoin="round" stroke-miterlimit="10" stroke-width="0.5"/><path d="M328.46,534.447l-.314.217-.18.006-.093.1-.182.1.053.237.044.1-.143.187-.344.376-.128.084-.317.341-.16.128-.26.4-.169.132-.171.1-.175.2-.337.66-.088.262-.137.17-.051.163-.161.03-.167.13-.169.172-.3.174-.112.014-.109.075-.3.209-.254.137.025.135-.073.072-.048,0-.15.1-.113.127-.116.209-.211.173-.409.426-.436.662-.125.154-.382.353-.082.089-.37.4-.11.179-.089.146-.052.026-.133.18-.445.784-.254.243-.257.351-.184.2-.076.045-.211.054-.06.041-.239.344-.215.2-.032.049-.009.088-.018.281h-.111l-.084.027-.01.035.019.047.051.05.052-.01.092-.061.066.053.142.019.021.035-.007.066-.063.073.051.072.049.032.11-.014.077.022.1.075.058.217,0,.375.135.2.053.141.086.03-.043.11.012.023.058.111-.041.1-.075.067-.081.026-.016.1-.03,0-.048-.1h-.024l-.039.117-.1.106-.082-.011-.084-.151-.067.079-.036.168-.1.041-.074-.009-.08-.148-.021-.083-.021-.037-.026,0-.063.4-.07.1-.1.015-.036-.032-.032-.087-.064-.26-.025.01-.02.182-.05.078.008.147-.032.019-.072-.1-.056-.181-.034,0-.007.2-.021.03-.025-.03-.049,0,.025.363-.57.353-.1.085-.227.085-.387.258-.339.341-.026.053.035.084-.07.122-.046.08-.068.072-.042.074-.522.661-.543.163-.4.07-.416.038-.609.249-.14.057-.306.091-.359-.026-.67.1-.518.118-.956.348-.074-.132-.17.1-.322.054-.121-.133-.145-.1-.295-.2-.3-.043-.479-.022-.749-.035-.1-.426-.172-.061-.019-.112.16-.076-.026-.084-.43.1-.221-.013-.4-.3-.185-.248-.024-.071.007-.1.037-.061.082-.062-.019-.087-.077-.081.041-.221-.085-.243.058-.132.007-.048-.023-.045-.09-.005-.05-.078-.01-.072-.22-.376-.172-.1-.119-.245-.185-.257-.149.05-.072-.038-.123.1-.089,0-.082-.042-.176-.206-.034-.008-.043-.109,0-.083-.034-.005-.139-.128-.171-.193-.345-.122-.078.006-.377-.081-.25.066-.093,0-.248-.118-.13,0-.071-.066-.081-.423.047-.14.085-.1.239-.03.1-.041.2-.168.207-.254.135-.03.322,0,.215.009.059-.038.023-.084.132-.087.092-.024.028-.06.219.008.077-.03.39-.287.166.026.167.094.4.009.256-.058.287-.054.383-.149.338-.158.358-.143.278-.138.15.145.192.093.234.017.217-.022.318-.027.425-.027.276.032.521.167.216.154.09.183.181.15.073.155,0,.153.056.025.1.01.136.013.065.076.032.146.132.227.073.1.031.123.072.126.016.209,0,.1.072.132.017.141.006.2,0,.071.064.156.112.1.1.041.074.031.033.134-.086.22-.031.205.118.323.11.072.153.162.075.088.041.182.074.055.144-.009.364.046.118-.048.068-.053.043-.144.062-.039.121.008.163.076.06-.059.015-.079-.006-.128.059-.1.068-.159.086-.061.082,0,.236-.085.136.024.219.067.032.005.136-.085.282-.057.07-.01.189-.111.064-.134.135-.041.054-.054.061-.093.1-.045.124-.046.128-.091.138.016.1.069.048-.053,0-.046.055-.031.072.03.073.031.073-.05.1-.175.1-.079.079-.044.033-.046-.045-.077-.068-.106.015-.032.055-.035.09-.027.044-.036.069-.105.138.019.071-.009.022-.019.052-.043.047-.008.074.023.024.021.08.071.07.076.321-.478.048-.555-.332-.421-.079-.05-.017.026.018.06.018.064-.047.088-.064.026-.142-.038-.063-.064-.022-.022-.1-.139-.133-.164-.1-.057-.206-.192-.086-.108,0-.144.037-.141-.005-.027-.005-.031-.038-.034-.116-.071-.026-.107-.024-.084-.072-.073-.071-.127-.018-.044-.075-.064-.145-.019-.115.051-.119.019-.054-.033-.084-.129.082-.138.1-.073.094-.094.038-.142.055-.049.157-.208.1-.039.077-.042.146-.05.455-.712.2-.169.291-.21.313-.388.174-.328.479-.254.66-.122.154-.218.479-.435.766.121.553-.347.683-.283-.051-.37.1-.254.15-.167-.056-.476-.935-.343-2.086-.589.4-.669.342-.381.362-.707.319-.4.224-.28.54-.047.617-.055.153-.014.74-.067.541-.027.48.218.507.015.628.251.4.02.927-.25.58-.678.693-.562.822-.164.433-.022.194.274.094.282-.409.034-.1.039Z" transform="translate(-257.805 -472.661)" fill="#5751c8" stroke="#eaecff" stroke-linecap="round" stroke-linejoin="round" stroke-miterlimit="10" stroke-width="0.5"/><path d="M357.877,594.67l.073.023.083-.018.166-.053.149-.007.046-.029.122-.07.077-.062.155-.006.084.129.054.033.119-.019.115-.051.145.019.075.064.018.044.071.127.072.073.024.084.026.107.116.071.038.034.01.058-.037.141-.005.144.086.108.206.192.1.058.133.164.1.139.022.022.063.063.142.038.063-.026.047-.088-.018-.064-.018-.06.017-.026.078.05.332.421-.048.555-.321.477-.07-.076-.08-.071-.024-.021-.074-.023-.047.008-.052.043-.022.019-.071.009-.138-.019-.069.106-.044.036-.09.028-.055.035-.015.033.068.106.045.077-.033.047-.079.044-.1.079-.1.175-.074.049-.073-.031-.072-.03-.055.031,0,.045-.048.053-.1-.069-.139-.016-.128.091-.124.046-.069.03-.036.015-.061.093-.053.054-.135.041-.064.134-.189.111-.07.01-.282.057-.135.084-.032-.005-.2-.062-.018-.006-.136-.025-.236.086-.082,0-.086.061-.068.159-.059.1.006.127-.015.079-.06.059-.163-.077-.12-.008-.062.039-.044.144-.068.053-.118.049-.364-.046-.144.009-.074-.055-.041-.182-.075-.089-.153-.162-.11-.072-.118-.323.031-.206.086-.22-.033-.135-.074-.031-.1-.04-.112-.1-.064-.155,0-.071-.006-.2-.017-.141-.072-.132,0-.1-.016-.209-.072-.127-.031-.123-.073-.1-.132-.227-.032-.146.332-.018.423-.428.3-.618.045-.482.175-.013.274.085.111.064h.153l.115-.055.414-.169.036-.056.221-.1.132-.106.031-.046.048-.07.072-.08.071-.035h.068l.235.119Z" transform="translate(-300.636 -523.267)" fill="#5751c8" stroke="#eaecff" stroke-linecap="round" stroke-linejoin="round" stroke-miterlimit="10" stroke-width="0.5"/><path d="M222.085,570.2l.13.047-.064.059-.094.023-.133.084-.051.053-.112.254-.12.1-.154.061.04.124.035.3,0,.036.085.047.017.109-.006.059-.055.027.053.083-.03.082.043.283-.168.161-.181.065-.1.082-.116.047-.078.083-.139.021-.163.061-.113.1-.05.161-.1.029-.036.033-.031,0-.057.086-.147.136-.089.067-.082.022-.1.116-.036.012.185.189.053.147-.09-.01-.036.095-.055-.022-.052.009-.012.06.016.06-.035.047-.012.091.1.157-.023.053-.08.078-.044.1.027.113-.011.1.04.09,0,.048.086.054.051.059.069.025.17-.069.36-.078.152-.131.188-.1.064-.03.227-.022.168.1.108.227.07.024.131.152.278.184.024.12-.019.1.057.026.1.125.1.016.014.039-.39.287-.077.03-.219-.008-.028.06-.092.024-.132.087-.023.084-.059.037-.215-.009-.322,0-.135.03-.207.254-.2.168-.1.041-.239.03-.085.1-.047.139.081.423.071.066.13,0,.247.118.093,0,.25-.066.377.081.078-.006.345.122.171.192.139.128.034.005,0,.083.043.109.034.008.176.206.083.042.089,0,.123-.1.072.037.149-.05.185.257.119.245.172.1.22.376.01.072.05.078.09,0,.023.046-.007.048-.058.132.085.243-.041.221.077.082.019.086-.082.063-.037.061-.007.1.024.071.186.248.4.3.221.012.43-.1.026.084-.16.075.019.112.172.061.1.426-.439.011-.7-.051-2.148.319-1.173.261-1,.358-1.989.436-.438.37-.419-.112-.206-.117-.227.1-.58.126-.5.055-.6-.374-.043,0-.056-.041-.192-.052-.109-.058-.053.012-.213-.145-.309-.136-.277-.077-.506-.215-.175-.1-.128-.031-.106-.064-.084-.16.026-.445-.466-.324-.258-.094-.075-.008-.113-.058-.3-.146-.962-.129-.331-.132-1.058-.314-.433-.05-1.1.189-.364.086-.305-.031-.536-.1-.633-.173-.049.03-.156.389-.295.2-.1-.194-.317-.126-.521-.437-.208-.252-.237-.765.035-.193.207-.356-.171-.216.036-.047.162-.067-.022-.348.134-.175-.017-.315.023-.124.143-.119.094-.067.193-.089.114,0,.093.031.142-.087.319-.064.2-.134.149-.044.188-.129.118.008.081-.088.126-.05.134-.021.236-.215.514-.123.219-.16.09-.1.207-.112.049-.09.1-.042.1-.083.088-.032.392-.03.1.041.372.374.369-.025.089-.006.43-.562.165-.54.065-.641-.072-.529-.2-.256.215-.489.54-.258.479-.071.231.046.26.144-.089.274-.006.142.168.063.071.323-.016.109.058.037.042.043,0,.154-.022.149.022.147.118.148.047.241.043.157,1.474,1.12.195-.019.23.025.287.029.271.125.029.133.147.1.125.127.044.1v.177l.061.213.025.085v.1l-.051.125-.049.119,0,.049.1.075.015.083-.075.252.03.123.083.085.039.153.09.053.089.04.12.032.032.008.042.053.043.1.392.054.169.093.287.284.155.078-.378-1.131.062-.684.4-.784.706-1.161.377-.465.208-.162.24-.244.311-.121.782-.215.124-.4.113-.608.251-.722.637-.945.494-.377.376-.409.4-.247.116.03.544-.019.491-.066.119-.048Z" transform="translate(-174.426 -503.152)" fill="#5751c8" stroke="#eaecff" stroke-linecap="round" stroke-linejoin="round" stroke-miterlimit="10" stroke-width="0.5"/><path d="M240.912,556.456l-.013.128-.224.085-.389.2-.25-.062-.323.026-.226.022-.249.192.409.2.4-.1.577-.059.474-.033.341-.016.61.045.175.279.009.191.054.136.4.044-.019.081,0,.107-1.17-.014-.117.134-.017.065.313.325.048-.022,1.654-.325.776-.079.53-.041.1,0,.128.01.084-.049.128-.176.108-.062.147-.115.248-.091.162-.033-.637.945-.251.722-.113.608-.124.4-.782.214-.311.121-.24.244-.208.163-.377.464-.707,1.161-.4.784-.062.684.378,1.131L241.8,565l-.287-.284-.169-.093-.392-.054-.043-.1-.042-.053-.032-.009-.12-.032-.089-.04-.09-.053-.039-.153-.083-.085-.03-.123.075-.252-.015-.083-.1-.075,0-.049.049-.119.051-.125v-.1l-.025-.084-.061-.213v-.177l-.044-.1-.125-.127-.147-.1-.029-.133-.271-.125-.287-.029-.23-.025-.195.019L237.56,560.9l-.043-.157-.047-.241-.118-.148-.022-.147.022-.149,0-.154-.042-.043-.058-.037.016-.109-.071-.323-.168-.063.006-.142.089-.274-.26-.144-.23-.046-.479.071-.094-.391-.326-.236-.1-.019-.229-.134-.051-.093-.275-.218-.067-.124.051-.073-.007-.069-.1-.21-.156-.181.045-.028.05.053.084-.014-.015-.075-.057-.1.05-.1.227.113.025-.11-.024-.133.017-.1-.056-.047-.015-.129.023-.146.035-.062.17.053.029-.112-.025-.131-.056-.133.013-.369-.028-.207-.091-.206.349-.158,1.036-.6.2.772-.106.175-.326.072-.121.119-.068.159.211.189.4.053.605.075-.016.15-.014.271-.236.241.507.044.5.015.727-.311.708-.086.38-.018.2-.127.1-.356.2-.212.159-.263.013-.32-.158-.142-.1-.294-.02-.425.128-.3.153-.188.2-.009.145.067.227.194.045.139.009.58-.053.492-.1.313-.189.446-.208.223-.1.122.207.171Z" transform="translate(-200.797 -489.305)" fill="#5751c8" stroke="#eaecff" stroke-linecap="round" stroke-linejoin="round" stroke-miterlimit="10" stroke-width="0.5"/><path d="M241.9,547.771l.274.526.1.2.28.892.844.439.548.542.047.317.335.214.654.253.559.026h.206l.231-.135.334-.132.06.018.478-.132,1.086-.46.131-.255.367-.266.379-.019.362-.035.862-.137-.024.062.012.243.1.233.032.2-.116.227.118.237-.23.157-.144.058-.4.229-.071.083-.049-.026-.253.06-.157.066-.1.094-.13-.047-.128-.043-.119.048-.491.066-.544.019-.116-.03-.4.247-.376.409-.494.378-.162.033-.248.091-.147.115-.108.062-.128.176-.084.049-.128-.01-.1,0-.53.041-.776.079-1.654.325-.048.022-.313-.325.017-.064.117-.134,1.17.014,0-.106.019-.081-.4-.044-.054-.136-.009-.191-.175-.279-.611-.045-.341.016-.474.033-.577.059-.4.1-.409-.2.248-.193.226-.022.323-.026.25.062.389-.2.224-.085.012-.128-.111-.133-.207-.171.1-.122.208-.222.188-.446.1-.313.053-.492-.009-.58-.045-.139-.227-.194-.145-.067-.2.009-.153.188-.128.3.02.425.1.294.158.142-.013.32-.159.263-.2.212-.1.356-.2.128-.38.018-.708.086-.727.311-.5-.014-.507-.045.236-.241.014-.271.017-.15-.605-.075-.4-.052-.211-.189.068-.159.121-.119.326-.072.106-.175-.2-.772-1.036.6-.349.158-.067.072-.092-.057-.208-.078.088-.084.107-.055.009-.105-.126-.02-.041-.086.058-.081-.072-.048,0-.027.007-.1.069-.158.053-.161.073-.06.14-.052.073-.072.127-.1.032-.087-.01-.1.048-.065.112-.017.093-.061.123-.063.136-.006.169.223.062.132.038.111.038.051.158-.056.132,0,.041.012.17.159.26.221.243.2.195.045.082.076.169.09.206.078.084.048.066-.092.083-.1.1-.083.11-.084.04-.087.12-.14.1-.076.1-.068.175-.193.14-.135.282-.123.118-.052.118-.226.163-.15.372-.082.184-.08h.179l.185-.088.1.024.1.08.055,0,.545-.28.195-.081Z" transform="translate(-200.973 -484.457)" fill="#5751c8" stroke="#eaecff" stroke-linecap="round" stroke-linejoin="round" stroke-miterlimit="10" stroke-width="0.5"/><path d="M235.778,464.777l.268.133.029-.047.214.146.052.061,1.376.489.042.2-.049.153-.005.11.1.353-.023.308.023.2.177.122.027.315.136.082.059.356.067.1.168-.074.174.026.2.481.135.048.2.025.1.08.365-.128.2-.049.131.152.091.026.087-.022.205-.1.321-.033.109-.05.322-.061.255-.088.286-.017.077.027.2.162.274.29.086.035.115-.057.232-.222.323,0,.1-.007.144-.129.114-.021.5.039.089.06.08.023.216-.1.174,0,.206-.207.082-.133.006-.175.037-.106,0-.095.072-.032.149-.023.279.287.305.138h.1l-.014.085.064.175.114.094.188.3.057.143.044.2-.055.306-.091.287,0,.062-.239.343.032.132-.056.058-.133.225-.138.293-.093.192-.03.137.02.056.537.327.011.081-.06.168-.076.095-.161.294h-.108l.071.139-.072.146-.032.041-.075.023-.089.173-.11.07.175.13.107.209.213.138.015.082.421.23-.006.073-.011.128.024.1.133.257.065.027,0,.18.082.1.048.114v.027l-.04.025-.017.061-.052.061-.094.051-.036.062.018.036.313-.018.095.14.2.08.122.037.127,0,.124-.053.081.026.053.042.042.032.228.086.1.061-.079.16-.021.087.02.026.09.019.362-.064.037.015.083.106.1.064.153.155.268.031.115.11.053.123.074.083.02.075-.04.095-.029.022-.142.017-.093.115-.017.236-.04.075-.136.115-.136.079-.167.054-.1.065-.017.035.055.072.1.026.078.153.066.185,0,.062.053.017.1-.018.044.05.005.068.039.055.034.114.043.037-.007.078.11.07-.015.166.023.174.053.113.032.171.108.111.02.047-.044.124-.007.209-.055.031-.046.091-.054.034-.078.107.084.009.058.037.209-.081h.05l.046.024.183.285.129.026.233.191.28.083.178.154.052.134-.862.137-.362.035-.379.019-.367.266-.131.255-1.086.46-.478.132-.06-.018-.334.132-.231.135h-.206l-.559-.026-.654-.253-.335-.214-.047-.317-.548-.542-.844-.439-.28-.892-.1-.2-.274-.526.266-.112.522-.3.425-.28.109-.2-.035-.167,0-.036-.006-.143-.021-.03.279-.611.446-.287.62-.278.421-.127-.014-.3-.393-.94L244.4,474l-.045.01-.118-.246-.192-.2-.312-.065-.514.016-.927-.067-.215,0-.707-.562-.59-.594-.259-.226-.191-.034-.54-.188-.251-.073-.295-.221-.229-.416-.433-.748-.634-.568-1.258-1.734-.883-1.838-.687-1.689.108-.012.228.028.326-.011Zm4.494,6.683.028.035.027-.007,0-.012,0-.024-.007-.03-.052.011Z" transform="translate(-201.057 -414.938)" fill="#5751c8" stroke="#eaecff" stroke-linecap="round" stroke-linejoin="round" stroke-miterlimit="10" stroke-width="0.5"/><path d="M182.868,469.18l-.027.007-.028-.035,0-.027.052-.011.007.03,0,.024Zm-6.669-6.743.226.075.888-.294.2.043.15-.017.687,1.689.883,1.838,1.258,1.734.634.568.433.748.229.416.295.221.251.073.54.188.191.034.259.226.59.594.707.562.215,0,.927.067.514-.016.312.065.192.2.118.246.045-.01.205.442.393.94.014.3-.421.127-.62.278-.445.287-.279.611.021.03.006.143,0,.036.035.167-.109.2-.425.28-.522.3-.38.16-.195.08-.545.28-.055-.005-.1-.079-.1-.025-.185.088h-.179l-.184.08-.372.081-.163.15-.118.226-.118.052-.282.123-.14.134-.175.193-.1.068-.1.076-.121.141-.04.087-.11.083-.1.083-.083.1-.066.092-.084-.048-.206-.079-.169-.09-.082-.076-.195-.045-.243-.2-.26-.221-.17-.159-.041-.012h-.132l-.158.056-.038-.051-.038-.111-.062-.132-.168-.223v-.128l-.076-.129-.136-.181-.034-.078-.009-.114V476l-.006-.131.045-.11-.008-.068-.088-.052-.07-.077.005-.108-.041-.106,0-.122.041-.04,0-.085.02-.1-.04-.095-.173-.111-.081-.1-.026-.112-.73.137-.519-.288-.228.01-.217.237-.3.1-.717-.166-.481.022-.969.414-.333.3-.293-.276-.094-.218-.028-.285-.57-.01-.391-.249-.024-.531-.176-.738-.3-.253-.337-.091-.663.03-.488-.3-.171-.632-.036-.781v-.017l-.162-.419-.353-.464-.1-.209-.027-.585-.116-.475-.579-.187-.636-.363-1.107,2.243-.054.467-.163-.227-.363-.231.112-.4-.132-.847.216-.342.27-.427.344-.23.255-.17.222-.33.065-.426.166-.076.085-.1.19-.237.249-.2.2-.221.2-.254.228-.15.234.014.132.008.312.258.225.193.259.194.274-.038.146-.078.021-.011.114-.194.27-.445.232-.461.218-.288.266-.351.04-.023.288-.165.068-.039.293-.1.523-.194.458-.235.122-.181.306-.417.374-.447.313-.477.391-.7.081-.184.1.144.245.148.088.115.152.122.06.048Z" transform="translate(-143.598 -412.631)" fill="#5751c8" stroke="#eaecff" stroke-linecap="round" stroke-linejoin="round" stroke-miterlimit="10" stroke-width="0.5"/><path d="M166.346,505.449l.488.3.663-.03.337.091.3.253.176.738.024.532.391.249.57.01.028.285.094.218.293.276.333-.3.969-.414.481-.022.717.166.3-.1.217-.237.228-.011.52.289.73-.137.026.112.081.1.173.111.04.095-.02.1,0,.085-.041.04,0,.122.041.105-.005.108.07.077.088.052.008.068-.045.11.006.131v.09l.009.114.033.078.136.181.076.13v.128l-.136.006-.123.063-.093.061-.112.017-.048.065.01.1-.032.087-.127.1-.072.072-.14.052-.073.06-.053.161-.069.158-.009.128.072.048-.058.08.041.086.126.02-.009.105-.107.055-.088.084.208.078.092.057-.16.114-.24.011h-.159l-.113.033-.2-.019-.295.078-.076-.043-.073-.042-.263.021-.676-.68-.245-.148-.561.185-.514.183-.024.938-.014.274-.125.176-.136.178-.11.144-1.547,1.34-.16.108-.1-.009-.077-.039-.053-.026-.012-.127.012-.053.02-.09-.043-.1-.113-.1-.082-.164-.007-.148,0-.043-.1-.045-.136.009-.147-.11-.182-.1-.178.061-.224.308-.353.186-.1.217-.248.628.376.344.464.554.1.7,0,.229-.016.09.023.161-.018.131-.054.133.044.258.008.171-.075.282-.065.165-.124.1-.01.135-.016.091-.035.109.036.183-.014.154-.1.144-.005.108,0,.072-.041.227-.213.18-.056.115-.08.1-.057.065-.064.1-.037.146-.052.052-.068.057-.11.1-.146.087-.143.1-.086.16-.01.011-.1.113-.117.053-.056.039-.029.141-.1.253-.1.087-.1.067-.036.1-.067.136-.077.043-.084.109-.084-.569-.315-.787.067-.035.127-.127.139-.231.038-.119.005-.073-.074-.2.022-.239.212-.853-.006-.372-.047-.4.109-.313.025-.289-.021-.265-.074-.156-.432-.4.121-.073,0-.081-.06-.087-.118-.091-.134.022-.147.011-.163-.047-.135-.133.178-.24.09-.381-.024-.268.024-.165.122-.232.047-.164.019-.066.106-.23.086-.2.064-.156-.044-.185.009-.165-.245-.268-.2-.283-.128-.145.094-.175.055-.138-.045-.075-.011-.019-.061-.123-.053-.264-.077-.155-.246-.165-.21-.053-.209.072-.119-.057-.109-.182-.075-.094-.2-.065-.17-.049-.087-.019.017-.121.034-.141-.007-.013-.085-.171.025-.159.026-.226-.025-.2-.032-.17.052-.272v-.1l-.157-.263-.062-.161,0-.122.038-.229-.033-.111-.174-.2-.115-.067-.072-.163-.042-.133-.091-.158,0-.077.061-.17.083-.121,0-.1-.033-.115.03-.069.1-.131.134-.338.016-.164.106-.139.17-.147.026-.118-.011-.166-.012-.153.046-.151.261-.183.282-.4.093-.252.019-.2-.007-.319-.056-.191.054-.467,1.107-2.243.636.363.579.187.116.475.027.585.1.208.353.464.162.42.036.8Z" transform="translate(-139.728 -445.657)" fill="#5751c8" stroke="#eaecff" stroke-linecap="round" stroke-linejoin="round" stroke-miterlimit="10" stroke-width="0.5"/><path d="M187.121,559.043l.676.68.263-.021.073.042.076.044.295-.078.2.019.113-.034h.159l.24-.011.16-.113.067-.072.091.206.028.207-.013.369.056.133.025.132-.029.112-.17-.053-.035.062-.023.146.016.129.057.047-.017.1.024.133-.025.11-.227-.113-.05.1.057.1.015.075-.085.014-.05-.052-.045.028.156.181.1.21.007.069-.051.073.067.124.275.218.051.093.229.135.1.019.326.236.094.391-.54.258-.215.489.2.256.072.529-.065.641-.165.54-.43.562-.458.031-.372-.374-.1-.041-.372.029h-.02l-.088.032-.1.083-.1.042-.049.09-.207.112-.09.1-.219.16-.514.123-.236.215-.134.021-.126.05-.081.088-.118-.008-.188.129-.149.044-.2.134-.319.064-.142.087-.093-.031-.114,0-.193.089-.094.067-.143.119-.023.124.017.315-.134.175.022.348-.162.067-.036.047.171.216-.207.355-.035.193.237.765.208.252.521.437.317.126.1.194.158.246v.224l.039.2.015.242-1.569.834-.837.121-.588-.1-.437-.014-.28-.057-.38.078-.183.008L181,573.4l-.3.047h-.179l-.146.04V573.3l-.006-.125-.031-.129-.024-.084.028-.075.111-.022.12-.045.035-.121,0-.107.041-.1.054-.042.114-.169.109-.067.056-.116.047-.087.022-.075-.1-.114.016-.159.057-.081-.005-.119-.05-.082-.052-.146-.069-.2-.043-.121-.047-.27-.162-.423-.075.008-.013.069-.046.061-.03.039-.047-.052-.033-.036-.058.065-.023.08-.025.053-.036.031-.013.011h-.036l-.053-.085-.017-.045-.011-.026-.059-.155.067-.1.038-.113,0-.093-.067-.227v-.065l.084-.109.077-.043.067-.136.036-.1.1-.067.1-.087.1-.254.029-.14.056-.039.117-.053.112-.124.086-.16.143-.1.146-.087.11-.1.068-.057.052-.052.037-.146.064-.1.057-.065.08-.1.056-.115.213-.18.041-.227,0-.072.005-.108.1-.144,0-.035.011-.119-.032-.157,0-.026.035-.109.006-.034.01-.057.01-.135.124-.1.065-.165.075-.282-.008-.17-.044-.258.054-.133.018-.131-.023-.161.016-.09,0-.23-.1-.7-.463-.554-.376-.344.248-.627.1-.218.353-.186.224-.309.178-.061.182.1.147.11.136-.009.1.045,0,.043.007.148.082.164.113.1.043.1-.02.09-.012.053.012.127.053.026.077.038.1.01.16-.108,1.547-1.34.11-.144.136-.178.125-.176.014-.274.024-.938.514-.183.561-.185Z" transform="translate(-155.027 -493.748)" fill="#5751c8" stroke="#eaecff" stroke-linecap="round" stroke-linejoin="round" stroke-miterlimit="10" stroke-width="0.5"/><path d="M113.939,591.2l.034.318.546.027.806-.249.475-.021.694.225.653.141.536.082.476.082.007.036,1.9-.033.416-.272.164.091.124.148.129.055.092.038.15-.056.143-.052.254-.047.077-.071.121-.086.166-.066.09-.143.1-.157.052-.092.432.4.074.156.021.265-.025.289-.109.313.047.4.006.371-.212.853-.022.239.074.2-.005.073-.038.119-.016.025-.123.205-.127.127-.067.035.315.787.084.569v.066l.067.227,0,.093-.038.112-.067.1.058.154.011.027.017.045.053.086h.036l.013-.011.036-.031.025-.053.023-.08.058-.065.033.035.047.052.03-.039.046-.061.013-.068.075-.008.162.423.047.27.043.121.069.2.052.147.05.082.005.119-.057.082-.016.159.1.115-.022.075-.047.087-.056.116-.109.067-.114.17-.054.042-.041.1,0,.108-.035.121-.12.044-.111.023-.028.075.024.084.031.129.006.125v.189l-.207.056-.1.171-.422.363-.371,0-.3.546-.872-.118-.077-.031-.307-.071-.164.07-.706.183-.452.144.043.434-.083.046-.275.092-.227.049-.133.056-.231-.067-.076-.072-.1-.03-.182-.095-1.183.509-.379.192-.473-.023-.222.027-.171-.015-.383.069-.489.027-.141.034-.1-.012-.337-.09.007-.01-.017-.163.019-.232.11-.366.076-.386-.074-.288-.085-.21.131-.328-.131-.456-.246-.048-.059-.155v-.737l-.163-.046-.251-.211-.227-.1-.044-.36-.066-.208-.168-.158-.186-.194-.274.014-.233.016-.092-.247-.222-.122.058-.163-.093-.134-.141-.106,0-.048.007-.13-.041-.374-.148-.321-.016-.2.149-.261.064-.209.089-.068.047-.178-.168-.252-.062-.1-.114-.1-.036-.24.037-.282.264-.162.144-.141.078-.03.185-.071.131-.163.01-.4.138-.2.1-.163.066-.262-.049-.312-.068-.154-.014-.163-.119-.076-.246-.112-.08-.139-.266-.144-.015-.144.239-.157.555-.2.073.012.145.025.137.106.315-.043.18.109.213-.155h.012l.13.013.1-.082.011-.117,0-.026.014-.205.239.026Z" transform="translate(-97.433 -520.645)" fill="#5751c8" stroke="#eaecff" stroke-linecap="round" stroke-linejoin="round" stroke-miterlimit="10" stroke-width="0.5"/><path d="M115.067,518.364l-.1.131-.03.069.033.116,0,.1-.083.121-.061.17,0,.077.091.158.042.133.072.164.115.067.174.2.033.11-.038.23,0,.122.061.161.157.263v.1l-.052.272.032.17.025.2-.026.225-.025.159.093.185-.034.141-.017.122.087.018.17.049.2.065.075.094.109.182.119.057.209-.072.21.053.246.165.077.155.053.264.061.123.056.094-.055.139-.094.175.128.145.2.283.245.268-.009.165.044.185-.064.156-.086.2-.106.23-.019.066-.047.164-.122.233-.024.165.024.268-.09.38-.178.241.135.133.163.047.147-.011.134-.021.118.091.06.087,0,.081-.121.073-.052.092-.1.157-.09.144-.166.066-.121.086-.077.071-.254.047-.143.052-.15.056-.092-.038-.129-.055-.124-.147-.164-.091-.416.272-1.9.033-.007-.036-.476-.081-.537-.083-.653-.141-.694-.224-.475.021-.806.249-.546-.027-.034-.318-.224-.072-.239-.026-.094-.153-.282-.172-.121-.068-.667-.234-.3-.225-.234-.256.014-.54-.094-.107-.237-.266-.066-.3-.023-.324.088-.327.108-.3-.045-.118-.154-.066-.147-.181.033-.375-.038-.167-.114-.159-.155-.023-.245-.112-.134-.174-.078-.308.068-.3-.043-.345-.2-.053-.163-.448.68-.722.563-.184,1.052-.125.218-.338.227-.264.578-.542.543-.317.436-.318.752-.076.476.032.13-.272-.1-.564-.148-.811.275-.226.462-.286.662-.155,1.31-.306,1.269-.27.472-.074.174-.624.363.232.163.227.056.191.007.319-.019.2-.093.252-.282.395-.261.183-.046.151.012.153.011.166-.027.118-.17.147-.106.139-.016.164Z" transform="translate(-92.863 -457.073)" fill="#5751c8" stroke="#eaecff" stroke-linecap="round" stroke-linejoin="round" stroke-miterlimit="10" stroke-width="0.5"/><path d="M89.142,488.506l.229.02.337-.174.557-.238.367-.105.143,0,.134-.017.134-.046.055-.617.392-.164.234-.059.184-.037.1.086.271.227.451.315.156-.047-.065.426-.222.33-.6.4-.487.769.132.847-.286,1.026-.472.074-1.269.271-1.31.306-.662.155-.462.286-.275.226.148.811.1.563-.13.272-.476-.033-.752.076-.436.318-.415.241-.128.075-.154.144-.424.4-.227.264-.218.337-1.053.125-.562.184-.583.618-.1.1.163.448-.378.15-.2.1-.175.206-.081.084-.159.005-.2-.045-.28.173-.138.023-.267.018-.205-.12-.25-.18-.366.02-.274.1-.206-.139-.5.034-.256-.265h-.369l-.206.18-.04-.088-.007-.015-.082-.148-.1-.121L76.8,497.5l-.045-.147,0-.16.1-.283.015-.086-.024-.086-.015-.12.089-.181.032-.056.057-.1.1-.125.234-.066.231-.032.111-.013.166-.038.192-.022.284-.149.192-.036.077-.034.064-.029.683.07.513.148.529-.079.222-.111.186-.092.265-.31.495.021.337-.114.074-.344-.049-.254-.219-.09-.608-.016-.031-.126.22-.194-.133-.136-.178-.035-.091-.018.108-.374-.3-.036-.31-.032-.185-.076.172-.348.513-.928.1-.591-.161-.793-.027-.994-.025-.7.1.012.142.022.281.07.727.193.289-.007.176-.072.313-.275.434-.375.371-.423.528-.538.484-.436.439-.395.385-.193.477-.294.284-.163.265-.069.626-.137.07-.009.25-.031.238.03.24.116.095.115.111.273.193.573.217.517.429.548Z" transform="translate(-68.788 -432.917)" fill="#5751c8" stroke="#eaecff" stroke-linecap="round" stroke-linejoin="round" stroke-miterlimit="10" stroke-width="0.5"/><path d="M61.606,498.742l.039.323.075.227.069.268.316.113.106.216.066.093.053.169.147.5.084.156.266.063.081.116.072.13.081.121.257-.083.363-.1H63.7l.148.014.187.236.1.087.085-.045.312-.165.284-.226.036-.105.075-.223.14-.339.144-.015.126-.02.176-.261.155-.151.124-.163.194.023.025.7.027.994.161.793-.1.591-.513.928-.172.348.185.076.31.032.3.036-.108.374.091.018.178.035.133.136-.22.194.031.126.608.016.219.09.049.254-.074.344-.337.114-.495-.021-.265.31-.186.092-.222.111-.529.079-.513-.148-.683-.07-.064.029-.077.034-.192.036-.284.149-.192.022-.166.038-.111.013-.231.032.063-.2-.07-.146-.134-.03-.188.036-.243.1-.175.05-.094.011-.169-.1-.185-.162-.035-.219-.135-.207-.076-.146-.1-.123-.061-.09-.042-.091-.068-.1-.1-.1-.083-.167-.248-.323-.3-.244-.694-1.235-.1-.759-.227-.488-.041-.229.065-.322-.011-.266,0-.818.012-.463,0-.462-.051-.473.373.1.318.048.344-.013.2-.063.26-.058.273-.119.133-.026.177.168.125-.017.229-.218Z" transform="translate(-54.009 -443.44)" fill="#5751c8" stroke="#eaecff" stroke-linecap="round" stroke-linejoin="round" stroke-miterlimit="10" stroke-width="0.5"/><path d="M29.856,490.948l.221.149.2-.095.176-.031.135.05.018.006.123.01.158.01.109.006.32-.1.208-.045.2.038.288.363.283.436.13.2.222.149.2.1.31.07.3.083.051.473,0,.462-.012.463,0,.818.011.266-.065.322.041.229.227.488.1.76.694,1.235.3.244.248.323.083.167.1.1.068.1.042.091.061.09.1.123.076.146.135.208.035.219.185.163.169.1.094-.011.175-.05.243-.1.188-.036.134.03.07.146-.063.2-.234.066-.1.125-.057.1-.032.056-.089.181.015.12.024.086-.015.086-.1.283,0,.16.045.147.123.191.1.121.082.148.047.1-.039.034-.288.214h-.013l-.269-.015-.23-.071-.547.125-.388.157-.071-.011h0l-.219-.033-.173-.2-.182-.02-.21.02-.224.118-.352.011-.168-.09-.044-.277-.064-.244-.289-.115-.06-.045-.212-.16-.172.018-.1.08-.138.168-.18.115-.165.131-.017.013-.187.1-.157-.045-.04-.216-.066-.206-.145-.133-.289-.12-.21-.147-.133-.266-.2-.566-.1-.057-.084.07-.005,0-.02.017-.178.045-.085-.124-.287-.54-.407-.363-.138-.268.375-.474-.03-.26-.14-.13,0,0-.216-.2-.16-.4.218-.577.583-.6,0-.216.037-.127.173-.107-.063-.177.159-.078.2.053.115-.1.033-.18.2-.128-.022-.279.131-.5-.005-.453.173-.19.09-.15-.02-.214-.233-.181-.033-.173v-.164l-.035-.333-.046-.2-.246-.212-.114-.084-.444-.269-.387.078-.156.152-.133.041-.2-.069-.14-.176-.129-.291-.293-.452-.061-.258.224-.1.175.2.149-.037.131-.245.194-.046.2.164.249-.185Z" transform="translate(-28.391 -436.933)" fill="#5751c8" stroke="#eaecff" stroke-linecap="round" stroke-linejoin="round" stroke-miterlimit="10" stroke-width="0.5"/></g></g></svg>