<svg xmlns="http://www.w3.org/2000/svg" width="160.508" height="112.051" viewBox="0 0 160.508 112.051"><g transform="translate(-24.361 -41.587)"><g transform="translate(24.623 41.834)"><path d="M252.125,332.781c-.171-.043-.73.037-1.056.018-.276-.017-1.183.018-1.526.018-.359,0-1.239-.018-1.6-.018a2.579,2.579,0,0,0-1.038.142,4.248,4.248,0,0,1-1.2.151c-.446,0-.826.035-1.189.035a.645.645,0,0,0-.692.462c-.276.588-.564.224-.914.4-.289.144-.271.468-.541.6-.251.125-.824.749-1.021.754-.222.006-.459.188-.63.541-.224.462-.85.295-.932.5-.091.225-.762.071-.914.071-.406,0-.616.5-1,.4s-.356-.328-.861-.293c-.39.027-.249-.264-.612-.355-.216-.054-1.045.017-1.376-.018-.554-.059-.141.166-.541.266-.1.024-.461.27-.559.275-.451.023-.342.281-.568.337-.4.1-.721-.051-1.021.249-.234.234-.567.367-.861.648-.35.334-.641.067-.932.213a5.409,5.409,0,0,0-.941.506,6.387,6.387,0,0,1-.985.5,1.938,1.938,0,0,1-.843.328c-.772-.018-.768.241-1,.373-.3.166-.566-.006-.9.16a4.493,4.493,0,0,0-1,.506,2.6,2.6,0,0,1-.719.506,3.489,3.489,0,0,0-.719.568,6.1,6.1,0,0,0-.781.577c-.334.334-.433.346-.932.284-1.337-.168-.808.469-1.189.595-.556-.52-.6-.225-.9-.071a3.555,3.555,0,0,1-.967.213c-.485.121-.559.325-.967.488a5.5,5.5,0,0,0-.861.568c-.506.3-.37.646-.719.648-.636,0-.238.261-.63.355a2.385,2.385,0,0,1-.834.053c-.277-.041-.463.139-.612-.053-.325-.417-.314-1.131-.719-.639-.207.251-.637.107-.968.284-.742.4-.911.13-1.02.373-.241.532-.39-.006-.826,0a8.008,8.008,0,0,1-1.127-.018c-.38-.132-.222-.487-.222-.861,0-.418.02-.589-.284-.639-.988-.161-.416.468-.825.515-.144.016-.022.529-.035.861s.311.292.39.719c.156.84.488.415.488.843,0,.229.012.8-.231.861-.415.1-.749.064-1.074.5a6.834,6.834,0,0,1-.648.719c-.191.19-.492.279-.719.506a3.7,3.7,0,0,1-.719.648c-.188.094-.721.146-.861.426-.151.3-.384.4-.568.648a5.206,5.206,0,0,1-.506.719c-.111.111-.335.5-.577.5-.408,0-.347.253-.71.435s-.383.181-.577.568c-.108.216-.215.866-.435.932-.4.121-.512.143-.639.488-.148.4-.256.76-.648.95-.3.146-.212.564-.524.63-.709.15-.344.292-.621.515a4.255,4.255,0,0,0-.364.293c-.111.111-.122.246-.266.391-.1.1-.626.312-.666.47a1.1,1.1,0,0,0,.106.95c.093.187.532.446.47.692-.054.217-.275.648-.506.648a2.772,2.772,0,0,0-.914.213c-.382.119-.5.408-.772.683a2.144,2.144,0,0,0-.533.754,1.456,1.456,0,0,1-.666.737c-.2.1-.379.339-.683.408-.792.181-.683.435-.737.435-.383,0-.763.016-1.145,0-1.239-.054-.627.322-1,.32-.287,0-.574-.01-.932-.036-.705-.051-.405.364-.932.364-.345,0-.323.591-1.074-.115a3.725,3.725,0,0,1-.364-.816c-.114-.362-.585-.281-.932-.293-.4-.014-.527,0-.648,0-.446,0-1-.085-1.074.213-.1.393-.7-.107-.9.08-.635.6-.883.144-1.145.373-.481.42-.689.041-1,.266a1.451,1.451,0,0,1-1.189.222c-.531-.069-.721.355-1.091.355-.41,0-.267-.319-.63-.319-.381,0-.814-.14-1.109.284-.276-.069-.641.1-.95-.053a3.734,3.734,0,0,1-.808-.559c-.213-.213-.61-.051-.879-.32a3.155,3.155,0,0,1-.55-.9,1.333,1.333,0,0,0-.79-.364c-.282,0-.364-.355-.719-.71-.323-.323-1.112-.257-1.562-.257-.409,0-.239-.266-.577-.266-.391,0-.117.311-.586.3-.353-.007-.592.136-.861-.142-.351-.363-.409-.145-.665-.16a.951.951,0,0,0-.843.408c-.092.184-.154.739-.337.923-.1.1-.615-.022-.861.337a2.057,2.057,0,0,1-.95.053c-.49-.122-.564.068-.932.16s-.5.193-.861.284c-.393.1-.49.271-.861.364-.318.079-.706.2-1.029.284a1.653,1.653,0,0,0-.932.311c-.212.182-.7-.032-.967.036-.313.078-.387.55-.728.55-.359,0-.724-.035-1.083-.035a.975.975,0,0,0-.879.311.845.845,0,0,1-.754.319c-.359,0-.573-.053-.932-.053A10.209,10.209,0,0,0,155,365.13c-.262.031-.525.391-.737.6-.192.192.077.633-.337.737a2.647,2.647,0,0,1-.914.089c-.21-.016-.456.029-.843,0a.865.865,0,0,1-.79-.444,7.2,7.2,0,0,1-.453-.613,1.482,1.482,0,0,0-.79-.719,2.524,2.524,0,0,0-.95-.213c-.346-.01-.778.375-.746.506.106.43-.369.642-.666.79-.238.119-.3.4-.754.373a1.555,1.555,0,0,0-.932.435,2.684,2.684,0,0,1-.613.249c-.1-.024-.256.373-.355.373a2.508,2.508,0,0,1-.648.071c-.5,0-.529.189-.861.107a4.03,4.03,0,0,0-1-.319c-.529,0-.584.33-1,.435-.193.048-.584.373-.861.373a2.78,2.78,0,0,1-1-.018c-.3-.075-.6.061-.825-.16a5.425,5.425,0,0,0-.737-.524c-.171-.128-.805-.713-1.109-.408-.24.24-.43.293-.577.586a2.45,2.45,0,0,1-.541.825,1.208,1.208,0,0,1-.985.053,3.358,3.358,0,0,1-.825-.373,4.43,4.43,0,0,0-.71-.426,5.267,5.267,0,0,0-1.083-.08h-1.074a3.42,3.42,0,0,1-1.074,0c-.278-.139-.35-.284-.79-.284a1.072,1.072,0,0,0-.861.284c-.244.244-.023.595-.506.595-.324,0-.618-.006-1.02-.036-.348-.026-.682.018-1.056.018-.393,0-.781-.018-1.2-.018s-.794-.2-.967.337c-.393,0-.444-.071-.861-.071a4.283,4.283,0,0,0-1.207.107c-.144,0-.322-.141-.462-.107-.371.093-.427.328-.9.328-.389,0-.589-.337-.967-.31-.6.042-.615-.281-.985-.32-.2.378-.662.625-.665.284-.007-.568-.566-.4-.684-.515-.045-.045-.552.03-.719-.364s-.213.142-.5-.142c-.222-.222-.488-.129-.79-.355-.2-.147-.738-.26-.861-.506a1.541,1.541,0,0,0-.506-.719,9,9,0,0,1-.79-.5,2.2,2.2,0,0,0-.719-.435,1.631,1.631,0,0,0-1.074-.142c-.338.169-.64.058-.674.524-.02.26-.561-.1-.7.177-.239.479-.252.683-.7.683a2.307,2.307,0,0,1-.861-.16.864.864,0,0,0-.79.142c-.339.169-.4.4-.79.5s-.471.135-.568.523c-.061.243.05.957,0,1.056-.2.394-.061.239-.364.541-.186.186-.677-.2-.861.479-.463.106-.487.488-.719.488h-2.148a4.934,4.934,0,0,1-1.074,0l-.293-.071c-.151.076-.191.4-.355.355-.285-.071-.437-.426-.648-.426a5.87,5.87,0,0,0-1.074,0,2.655,2.655,0,0,0-.825.408c-.279.218-.394.4-.106.666.516.484.249.574.249,1.18a5.679,5.679,0,0,0-.683.612c-.222.229.25.723.364.95a2.058,2.058,0,0,1-.071,1.056,3.4,3.4,0,0,1-.293.861,1.052,1.052,0,0,0-.213.861c.074.294.509.612.381.914-.143.341.218.714.124.808-.142.142-.521.3-.435.648.035.142.5.585.293.79-.109.109-.555.3-.63.692-.067.341-.543,0-.95.1-.258.064-.69.431-.142.568.129.032.939.123.426.577-.243.215-.454.123-.719-.142-.188-.188-.6-.366-.71.071-.062.25-.146.7-.2.932,0,.006-.338,1-.444.79-.036-.072-.72-.651-.648-.364.1.388-.091.64.595.985a.4.4,0,0,1-.257.453,2.035,2.035,0,0,0-.089.577c-.112.056-.466.28-.248.5.2.2-.041.982.231.914.384-.1.647-.178.914.089a1.3,1.3,0,0,1,.506.719c.1.38.228.395.426.79.078.155.381.542.222.861-.174.349-.364.321-.364.79,0,.646.621.258.719.648.094.187.225.259.284.5.168.669.263.01.506.071.082.021.626.027.506.506-.084.336-.609.428-.648.586-.153.609.038.321.355.559.268.2.506.182.506.648a.746.746,0,0,1-.506.719c-.243.061-.568.277-.568.568,0,.379-.293.751-.293.932,0,.415.142.476.142.861,0,.507.193.532.293.932a1.4,1.4,0,0,1-.107,1.083c-.033.066-.446.344-.258.532s.375.553.595.772a3.688,3.688,0,0,1,.408.772c.118.237.307.534.435.79.014.027.238.658.035.861a1.125,1.125,0,0,0-.319.79,1.393,1.393,0,0,1-.222.861c-.208.277-.106.5-.213.932-.039.157.012.778-.142.932-.008.008-.6.882-.142.79.408-.081.678-.07.861-.435.138-.277.471-.471.568-.861.143-.573-.194-.36-.284-.719-.055-.22-.371-.544-.213-.861.1-.193.467-.623.861-.426.151.076.546.314.737.266.24-.06.342.181.71-.16.228-.211.863-.038.994-.319.253-.542-.184-.488,0-.932.1-.239-.4-.273-.719-.435-.446-.223-.506-.147-.506-.719a1.332,1.332,0,0,0-.213-.861,1.047,1.047,0,0,1-.435-.861c0-.231-.01-.842.151-1,.193-.193.607-.3.568-.639a.848.848,0,0,1,.329-.825c.21-.17.208-.663.533-.825.306-.153.275-.435.559-.577.164-.082.536.277.426-.63-.016-.137.265-.261,1.171-.479.362-.087.3-.339.568-.612.169-.169.324-.465.506-.648a1.291,1.291,0,0,1,.932-.284c.356,0,.745.071,1.074.071.375,0,.735-.018,1.074-.018a2.883,2.883,0,0,0,.932-.124c.3-.075.563-.3.79-.355a2.381,2.381,0,0,0,.825-.4c.022-.022.444-.677.47-.684a3.417,3.417,0,0,1,.932.071c.077-.019.466-.162.648-.071.226.113.342.393.568.506.039.02.463.228.612-.071.024-.048.353-.033.391-.071a.492.492,0,0,1,.79,0,2.562,2.562,0,0,1,.506.639c.123.246.583.547.426.861-.145.289-.648.5-.728.683-.108.253.018.337.018.7,0,.64.378.33.639-.018.158-.212.216-.572.435-.79a2.923,2.923,0,0,0,.639-.79c.075-.15.348-.584.648-.284a1.028,1.028,0,0,1,.293.861c0,.534-.067.394.373.284a3.659,3.659,0,0,0,.843-.213c.212-.106.432-.39.683-.453a2.769,2.769,0,0,1,1.056,0c.143.036.822.04.772.24-.046.183-.306.637,0,.79.332.166.565.218.719-.151a.8.8,0,0,1,.781-.568c.358,0,.671-.035,1.03-.035.389,0,.8-.183,1.127.142.008.008.4.661.5.462a1.264,1.264,0,0,1,.7-.6c.227-.052.162.446.311.754.3.622.106.424.728.319.477-.08.7.011.7.32a5.571,5.571,0,0,1-.231.968c0,.407-.341,1.264-.053.976.221-.221.434-.292.648-.506.12-.12.5-.526.5,0,0,.162-.051,1.033.293.861.245-.123.179-.338.479-.488.4-.2.713.048.9-.32.068-.137.73-.318.879-.355.093-.023.116.339.408.355.22-.432.441-.331.523-.249.114.114.22.348-.071.639-.245.245-.579.229-.462.7.083.332.6.718.6,1,0,.27-.426.826-.426,1.047,0,.518.109-.1.621-.1a3.253,3.253,0,0,0,.932,0c.381-.1.266-.2.506-.444a1.651,1.651,0,0,0,.577-.737,2,2,0,0,1,.55-.914c.257-.129.17-.44.47-.666a1.529,1.529,0,0,1,1.216-.355c.346,0,.823.02,1.074-.249.156-.168,1.4-.029,1.722-.035a2.351,2.351,0,0,0,1.047-.275c.15-.075.53-.4.213-.719-.337-.337-.367-.13-.648.151-.147.146-.717.408-.577-.151a2.847,2.847,0,0,1,.364-.932c.214-.214.587-.294.861-.568a3.089,3.089,0,0,0,.568-.648c.156-.312.265-.45.435-.79.114-.229.132-.709.284-.861.21-.21.424-.295.79.071.226.226.581-.31.453.755-.046.381.416,1.09.036,1.162-.251.048-.505.085-.577.2-.341.057.11.3.5.328.028.676.418.709.595.568.2-.163.06.449.506.337.325-.081.529-.005.79-.266.289-.289.1-.483.213-.932a3.836,3.836,0,0,0,.16-.648,4.877,4.877,0,0,1,.346-1.145c.086-.344-.116-.469.053-.808.154-.308.744-.569,1.038-.79.147-.11.382-.511.479-.559.239-.12.457-.32.719-.32.4,0,.743-.182.914.16a4.691,4.691,0,0,1,.2.914c.126.506-.122.541.328.541.683,0,.324.312.5.355.247.062.259.639.506.577.4-.1.351-.287.648-.435a4.128,4.128,0,0,1,.932-.355c.491-.123.57-.055.825-.31.23-.23.259-.439.6-.266.258.129.262.293.577.293.014.009.648.071.719.071.3,0,.489.372.7.16.241-.241-.344-.449.878-.453.259,0,.172-.69.426-.639.238.047.625.266.79.266h1.038c.1,0,.907.007.754.16s-.1.653-.337.772a2.852,2.852,0,0,0-.79.595c-.227.227-.573.315-.843.586-.154.154-.559.485-.613.7a1.856,1.856,0,0,0,.071.932c.183.734.814-.026.79.071.037.009.079.4.213.435.236.068.5-.032.328.142-.139.139.1.446-.107.5-.312.078-.393,0-.577.364a3.866,3.866,0,0,0-.435.861,1.962,1.962,0,0,1-.355.79,1.02,1.02,0,0,0-.426.79,3.281,3.281,0,0,0,.142.932c.077.307.284.417.284.79V399.5c0,.433-.382.617,0,.426a4.363,4.363,0,0,0,.79-.284c.155-.155.528-.2.648-.435.109-.219.086-.55.444-.55a9.224,9.224,0,0,1,1.056,0c.477.077.454-.076.79-.16a2.546,2.546,0,0,0,.719-.364,2.126,2.126,0,0,1,.7-.248c.3,0,.692-.1.879.035.25.187.469-.211.648.506.063.254.444.187.657.55.226.385.037.595.541.595.469,0,.3.111.462.444.184.368.342.129.63.417a1.656,1.656,0,0,1,.506.719,4.289,4.289,0,0,1,.426.781,3.373,3.373,0,0,0,.364.79c.164.327.165.293.674.293.363,0,.151.33.755-.142a2,2,0,0,1,1.074-.435c.205.1.348.061.293.284-.088.352-.388.37-.612.595-.248.248-.05.4-.408.577-.257.129-.77.468-.843.772-.13.542-.661.334-.719.568-.137.548.2.287.5.213.334-.083.613.009.293.435a.66.66,0,0,0-.142.595c.08.32.034.318.5.444s.719-.36.719-.249c0,.54.045.5.577.5.509,0,.472.171.639.506.136.271.344.354.648.506a1.7,1.7,0,0,1,.648.479c.129.129.287.737.426.737.234,0,.929-.081,1,.213a2.306,2.306,0,0,1,.08,1c-.111.444-.295.438-.435.719-.054.108-.324.608-.071.861.123.123.711.38.577.648-.166.331-.3.245-.754.337-.666.136-.508.453-.967.453a2.2,2.2,0,0,0-1.118.284c-.659.426-.405.45-.745.79-.024.024-.056.047-.08.071a2.392,2.392,0,0,1-.639.435c-.343.171-.431.3-.825.3a10.607,10.607,0,0,0-1.189-.124c-.256.064-.548.127-.213.461.159.159.022.582-.568.435-.222-.056-.391-.466-.666-.328s-.507.262-.594.612c-.079.315.19,1.026-.213,1.127-.342.085-.556-.252-.826.018a1.664,1.664,0,0,0-.39.932,2.687,2.687,0,0,1-.151.9,2.6,2.6,0,0,0-.178.683c.086.235.906-.1,1.074.071.411.411-.3.4-.213.577.2.4.049.29.861.284a.856.856,0,0,1,.249.036c0,1.219.3.184,0,1.367-.056.225.1.406-.266.5a1.345,1.345,0,0,1-1.145.31c-.213-.052-.475.261-.577.107-.506-.764-.6-.419-.879-.559a6.417,6.417,0,0,0-.985-.3c-.33-.083-.445-.36-.772-.524a5.889,5.889,0,0,0-.7-.142c-.138.138-.4-.223-.808-.142-.38.076-.478.135-.248.595.277.553-.1.688-.053.879.039.157.06.522.178.639.149.149.459.408.559.541.072.1.555.725.284.861-.109.055-.68.281-.5.648a1.514,1.514,0,0,1,.213,1c-.07.278.229.689,0,.861-.406.3-.373.189-.506.719-.082.329-.218.531-.284.861-.089.444-.276.465-.355.781a1.573,1.573,0,0,0,.071.861c.095.379.214.58.284.861a4.042,4.042,0,0,1,0,.932c0,.39-.271.667-.284.79-.072.663.167.592.32.9.091.183-.133.642.142.612a4.678,4.678,0,0,1,.177.861c.04.184.488.457.488.7,0,.3.21.947-.036,1.021-.39.116-.307.5-.453.79-.156.312-.438.4-.515.7-.085.34-.019.658-.2.879-.276.345-.031.407-.63.932.51.067.812-.031,1.18.018.318.042.055-.233.435-.328a7.538,7.538,0,0,1,1.18.018c.377,0,.632-.018,1.038-.018.334,0,.648.042,1.083.018.521-.03.505-.133.967-.018.524.131.2.121.2.524s-.33.063-.346,1.021c-.011.653.46.382.417.648-.1.6-.03.636.248.914.161.16.019.5.417.5.371-.007.537-.226.808-.5.245-.245.969-.042,1.038-.32a5.565,5.565,0,0,1,.071-.976,4.868,4.868,0,0,1,.666-.533.854.854,0,0,0,.355-.808c0-.571.358-.389.825-.506.512-.128.3-.21.3-.586a3.3,3.3,0,0,1,.222-.932,1.243,1.243,0,0,1,.391-.719c.281-.281.833-.372,1.109-.648a3,3,0,0,0,.595-.985,9.491,9.491,0,0,1,.408-.95,2.791,2.791,0,0,0,.4-.949c.084-.338.113-.985.461-.985.182,0,.424.05.506.213a4.025,4.025,0,0,1,.515.9,1.681,1.681,0,0,0,.293.825c.2.2-.018.386-.018.79,0,.245.218.648.426.648.374,0,.208-.343.577-.435a2.738,2.738,0,0,0,.826-.248c.248-.124.462-.6.719-.346.233.233.261.453.754.453a5.939,5.939,0,0,0,1.109.035c.12-.024.467-.272.586-.3-.017.038-.059-.238-.115-.328-.011,0-.084.028-.08.018.026-.07.056-.056.08-.018.113.035.9-.239.852-.319-.108-.193-.644-1.041-.142-1.109a7.319,7.319,0,0,1,.071-.826,1.913,1.913,0,0,1,.257-.967,2.161,2.161,0,0,1,.515-.577c.408-.4-.222-.7-.142-.861.1-.2.533-.1.648-.2s.013-.569-.222-.586c-.445-.032-.3-.384,0-.683s.152-.473.435-.683c.323-.24.279-.68-.053-.763-.265-.066-.5-.162-.577-.506-.126-.582.2-.748.2-1,0-.419.3-.706.471-1.056a2.606,2.606,0,0,0,.231-.95c0-.528.1-.493.612-.364a4.123,4.123,0,0,1,.932.435c.539.27.282-.016.7-.435.032-.127-.13-.607.018-.754a3.361,3.361,0,0,0,.6-.9c.145-.291.266-.559.453-.932a2.037,2.037,0,0,0,.337-1.251c.42.107.541-.439.311-.754-.258-.353-.346-.1-.346-.577a3.633,3.633,0,0,1,.222-1c.115-.356.5-.1.9-.177s.266-.026.391-.523a2.184,2.184,0,0,1,.648-1.021c.251-.252-.087-.4.2-.825a1.122,1.122,0,0,0,.266-1c0-.42-.152-.874.257-1.038.539-.216.06-.518.266-.7.824-.731.3-.709.594-1,.2-.2.571-.334.728-.648a2.829,2.829,0,0,0,.346-.745c.065-.261.224-.725.32-.994.161-.454.541-.54.541-.932a2.371,2.371,0,0,0-.16-.728,1.621,1.621,0,0,0-.257-.9c-.185-.5-.578-1.079-.879-1.154a3.1,3.1,0,0,0-.719-.089c-.334-.015-.479-.112-.479-.249,0-.325-.055-1.23-.3-1.4-.169-.117-.518.258-.506-.639.016-.438.3-.093.444-.523.122-.377.5.114.7-.666.093-.363.9-.294.861-.666-.092-.833.513-.586.932-.586.5,0,.57-.148.878-.559a4.275,4.275,0,0,0,.559-.808c.016-.6.648-.357.648-.719,0-.531-.072-.847.178-.808.8.127.211-.807.5-.879.261-.065.724,0,.976-.249.191-.191.424-.264.692-.532.14-.14.245-.784.506-.914a3.461,3.461,0,0,1,.515-.222c.8.181.75-.268.648-.6s-.264-.438-.248-.79c.021-.479-.267-.475-.284-.825-.02-.411.559-.43.861-.506s.071-.2,1.251-.124c.344.021.232-.861.577-.861.223,0,.426.021.426.506a2.588,2.588,0,0,1-.071,1.074,4.116,4.116,0,0,0-.284.861c-.067.268-.321.535-.222.932.057.229.1.873.435.79a1.225,1.225,0,0,0,.861-.577c.006-.012.265-.876.355-.515.078.314.5.369.932.284.3-.061.538.064.719-.178a8.538,8.538,0,0,1,.861-.807c.319-.309.376-.955.488-.968.6-.066.771-.022.754-.594,0-.056-.376-.272-.328-.39s-.262-.168-.231-.293c-.037-.111-.153-.224-.106-.408a4.5,4.5,0,0,0,.018-1.038.937.937,0,0,1,.337-.755,6.57,6.57,0,0,0,.435-.861,2.559,2.559,0,0,0,.107-1.473c-.1-.174-.147.05-.249-.355a5.866,5.866,0,0,1,0-1.118c0-.577.289-.306.639-.568.241-.181.216-.464.293-.772a2.308,2.308,0,0,1,.5-.807,2.039,2.039,0,0,0,.719-1c.076-.3.181-.252.506-.577.16-.16.324-.81.426-.861.271-.135.618-.047.879-.178.279-.139.393-.634.559-.967a1.868,1.868,0,0,0,.284-1c0-.373.1-.73.071-1.074-.1-1.1.213-.631.364-.932.1-.207.336-.262.479-.453.159-.212.1-.578.7-.967a6.534,6.534,0,0,0,.426-.772c.175-.294.577-.346.577.124,0,.41.018.557.018.967a1.041,1.041,0,0,0,.213.719c.121.162.346.754.666.435.255-.255.455-.328.648-.63.177-.278.2-.661.461-.7.408-.063.537-.347.754-.595a2.968,2.968,0,0,0,.284-1c.059-.235,0-.742.08-1.056.132-.529.2-.247.568-.612.214-.215.488-.319.648-.639a1.023,1.023,0,0,1,.861-.63.82.82,0,0,0,.719-.284c.3-.52.274-.23.737-.346.532,0,.971-.01,1-.018.492-.123.265-.2.089-.55-.069-.138-.3-.855-.106-.665a2.9,2.9,0,0,0,.639.577c.307.153.168.1.488-.222.221-.221.388-.187.683-.408.218-.163.535-.1.719-.311a1.759,1.759,0,0,1,.9-.373c.331-.083.583-.385.932-.559.266-.133.349-.37.568-.808.024-.048.428-.306.488-.408.206-.35.32-.347.408-.7s.619-.514.7-.843c.072-.29.17-.91.435-1.109a5.7,5.7,0,0,0,.639-.612c.122-.122.549-.648.914-.6.336.041.491.429.665.6.215.215.277.47.648.47a1.6,1.6,0,0,0,.843-.071c.282-.141.55-.22.674-.47a3.1,3.1,0,0,1,.648-.737c.2-.2.764-.116,1.038-.391a2.774,2.774,0,0,0,.666-.772c.238-.476.524-.329.79-.594.158-.158.27-.55.595-.55.247,0,.69-.075.949-.089.477-.025.42.69.9.177.181-.195.088-.523.337-.772.145-.145.561-.5.666-.612a1.145,1.145,0,0,1,.683-.426c.627-.028.531-.3.861-.542.253-.186.227-.018.692-.018.387,0,.653-.344.994-.515.244-.122.792-.337.861-.612.054-.218.606-.767.444-1.092-.143-.285-.3-.347-.3-.683,0-.09-.088-.58.036-.7.311-.3.351-.243.479-.408.431-.556.582-.058.914-.311.588-.448.469-.094.737.018.354.148.653-.137.63.7-.007.266.531.108.914.124.626.027.579.071.772.018.337-.094.469-.368.843-.461a2.015,2.015,0,0,0,.843-.47c.448-.448.632-.151,1.2-.231.093-.187.427-.886.79-.524a.613.613,0,0,0,.772.222c.261-.131.246-.67.533-.612.474.095.441.259.825.355.456.114.485.22.683-.177.117-.234.336-.3.63-.426,1.041-.45.493-.694.737-.754.145-.037.328-.34.461-.382.506-.158.9-.087.807-1.092-.016-.177.068-.628-.107-.861-.076-.1-.49-.774-.665-.825-1.01-.3-.916.286-1.074.293-1.471.063-.275.461-.772.586-.3.075-.464-.158-.5-.6-.026-.353-.293.017-.293-.435,0-.4-.108-.474.071-.737.2-.288.144-.726.222-1.038a2.316,2.316,0,0,0-.169-1.145c-.076-.3-.117-.5-.479-.595-.335-.084-.615-.106-.719-.524s-.157-.469-.595-.55c-.264-.049-.6-.1-.586-.4.04-.978-.42-1.081-.328-1.447.02-.083.379-.5.186-.595s-.386-.191-.417-.479a1.274,1.274,0,0,1,.213-1.083,3.5,3.5,0,0,1,.719-.639c.227-.114.156-.28.329-.453a.958.958,0,0,0,.426-.736c0-.419.5-.613.648-.914.1-.2.452-.644.683-.7.383-.1.342-.2.479-.479.2-.4.41-.259.594-.808a2.718,2.718,0,0,1,.5-.879,3.025,3.025,0,0,0,.453-.914C252.121,332.966,252.548,332.886,252.125,332.781Z" transform="translate(-93.194 -332.768)" fill="#5751c8" stroke="#eaecff" stroke-width="0.5" fill-rule="evenodd"/><path d="M339.813,648.434a3.987,3.987,0,0,1,.507.1l.227,0c-.2,0-.5-.089-.143,0a4.5,4.5,0,0,0,1,.143c.435,0,.646.215.646.574a2.751,2.751,0,0,1-.072,1,2.506,2.506,0,0,1-.5.717c-.184.184-.449.521-.646.717a1.386,1.386,0,0,0-.358.789,4.538,4.538,0,0,0-.072,1,1.572,1.572,0,0,1-.215.932c-.122.243-.259.673,0,.932.3.3.287.536.287,1v1.076a5.326,5.326,0,0,1,0,1.148,4.681,4.681,0,0,0-.072,1.076c0,.383.143.63.143.932a3.434,3.434,0,0,1,0,1.076c-.087.174-.5.449-.43.717a1.611,1.611,0,0,1,0,.932c-.147.293-.285.5-.43.789a4.827,4.827,0,0,0-.43.789c-.066.263-.48.556-.5.646-.082.325.04.737-.215.932-.118,0-.1.215-.146.322" transform="translate(-268.757 -558.785)" fill="#5751c8" stroke="#eaecff" stroke-width="0.5" fill-rule="evenodd"/><path d="M347.5,648.727c.107-.027.193-.023.3-.051a1.375,1.375,0,0,1,.659-.1l.254.055c-.28-.07.615.128.789.359.231.309.076.43.645.43.352,0,.531.344.646.574a3.592,3.592,0,0,1,.287.861c.07.279-.132.618-.072.86.1.418.258.487.072.861a1.577,1.577,0,0,0-.215.932,5.09,5.09,0,0,1-.072,1c-.1.387-.316.445-.072.932.194.388.43.1.43.717a2.345,2.345,0,0,1-.359,1.076c-.207.415.205.589.43.646.2.049.59-.309.789-.359.289-.072.464.287.861.287.508,0,.6.059.789.43a1.45,1.45,0,0,1,0,.932c-.051.2-.022.229-.072.431-.012,0-.1.344-.11.382" transform="translate(-275.277 -558.875)" fill="#5751c8" stroke="#eaecff" stroke-width="0.5" fill-rule="evenodd"/><path d="M367.034,627.882a2.742,2.742,0,0,0-.406-.1l-.249-.021a2.989,2.989,0,0,1-.861-.215c-.175-.175-.3-.43-.646-.43-.365,0-.591-.072-1-.072h-1.148c-.43,0-.688.06-.861-.287-.132-.264-.251-.547-.646-.646s-.5-.067-.5-.574a1.221,1.221,0,0,1,.359-.789c.13-.131.568-.734-.072-.574a3.346,3.346,0,0,0-.789.287c-.348.174-.607.064-1,.143-.309.062-.728.011-.932.215-.224.224-.343.431-.717.431-.633,0-.724-.45-1.219-.574-.366-.091-.679-.034-.932-.287-.174-.174-.428-.285-.646-.5-.125-.125-.516-.343-.574-.574-.123-.493-.3-.506-.574-.143-.124.165-.29.717-.5.717-.452,0-.441-.2-.789-.287a1.515,1.515,0,0,0-.717.072c-.262.065-.669.131-1,.215-.168.042-1.155.172-1.076-.143.225.019-.37-.324-.6-.324" transform="translate(-276.301 -540.516)" fill="#5751c8" stroke="#eaecff" stroke-width="0.5" fill-rule="evenodd"/><path d="M358.3,562.173a.728.728,0,0,1,.3-.1c.071-.018.345-.026.427-.108.125.031.659-.287.861-.287.336,0,.509.143.932.143.258,0,.287-.545.287-.789s.532-.49.645-.717a4.6,4.6,0,0,0,.144-1c.089-.358.335-.195.43-.574.082-.329.3-.443.5-.646.286-.286.026-.5.574-.5.318,0,.681-.394.861-.574.376-.376.654.109.789-.43a.991.991,0,0,1,.574-.717c.078-.039.519.519.574.574a2.322,2.322,0,0,1,.717.072.924.924,0,0,0,.932,0,.7.7,0,0,1,.861.143c.23.23.461.256.645.5.161.214.653.145.932.215s.287.676.287.932c0,.415.149.568-.143.861a.885.885,0,0,0-.144.932c.056.224.534.565.646.789a5.941,5.941,0,0,1,.143,1c.093.371.257.371.431.717.2.393.32.277.43.717s.2.567.5.717c.225.113.64-.353.717-.43.143-.143.8-.11.932-.143a2.406,2.406,0,0,1,1,.072l.287.072c-.051.038.309.082.337.082" transform="translate(-283.013 -492.506)" fill="#5751c8" stroke="#eaecff" stroke-width="0.5" fill-rule="evenodd"/><path d="M323.393,524.386a1.138,1.138,0,0,0,.254-.051l.119-.09c.291.073.059-.557.358-.557.212,0,.144.393.531.393.312,0,.191-.478,1.106-.514.109,0,.151-.629.544-.629.37,0,.641-.588.7-.844.07-.279.08.355.789.215.427-.084.149.45.493.106.215-.215-.272-.806.646-.679.526.072.436.508.493.734.1.392.28.229.367.577.123.491.294-.046.692-.215a1,1,0,0,1,1,.127c.307.23.536.3.536.764,0,.3-.206.536-.287.861s-.321.53-.321.928c0,.234-.424.255-.6.426-.215.215-.139.616-.088.819.036.144.857.143,1,.143.379,0,.653-.437.861-.646.316-.316.475-.232.717-.717.062-.123.964-.077,1.05-.055.467.117.477-.453.59-.68.123-.246.368-.1.368-.556a.739.739,0,0,1,.215-.5c.235-.235.18.737.477.886.365.183.184.435.274.794.106.422.454-.1-.177.759a.891.891,0,0,0-.2.911c.051.1.545.579.916.308.346-.252.483-.5.287.287-.093.374.065.463.426.553a2.855,2.855,0,0,0,.785.025c.261,0,.148.677.148.856,0,.575.061.57.363.646.17.043.239-.661.295-.717.006-.006-.031.564,1.026.325a.965.965,0,0,1,.856.262c.247.246.416.492.6.671.253.253.389.2.481.569.04.16.32.276.4.6.045.18.18.07.22.227.108.054.185.166.328.238" transform="translate(-258.017 -468.056)" fill="#5751c8" stroke="#eaecff" stroke-width="0.5" fill-rule="evenodd"/><path d="M379.832,500.492c.021.028.047.13.1.152l.119.049c.074.295.715.009.789-.287.012-.05.77-.393.861-.574.184-.368.43-.24.43-.717,0-.371-.283-.494-.43-.789s0-.724-.143-1c-.165-.329-.2-.585-.359-.9-.184-.368-.359-.287-.359-.825,0-.379-.2-.388-.287-.717-.116-.464-.025-.527-.287-.789s-.239-.741-.43-.932a4.935,4.935,0,0,1-.287-.717c-.089-.355-.36-.51-.43-.789s-.56.132-.825,0c-.315-.158-.1-.83-.036-1.076.1-.387-.426-.375-.646-.43a1.585,1.585,0,0,1-.789-.5c-.272-.271-.195-.461-.646-.574-.266-.066-.45-.287-.932-.287-.206,0-.348-.359-.789-.359-.477,0,.2-.7.215-.717.162-.162.1-.5.215-.717.122-.245-.533-.528-.717-.5a5.788,5.788,0,0,1-.932.054c-.4,0-.6-.054-1-.054-.515,0-.551-.049-.789-.287s-.215-.459-.215-.861c0-.342.318-.6.574-.789.182-.137.295-.581.431-.717.285-.285.605-.064.861,0,.372.093.5-.355.646-.5a1.3,1.3,0,0,0,.359-.861c0-.5-.126-.485-.359-.717-.256-.256-.477-.1-.359-.574.082-.325.669-.072,1-.072.46,0,.651.138.932-.143a1.22,1.22,0,0,1,.932-.287,4.3,4.3,0,0,0,1-.215c.126-.032.368-.634.431-.717.018-.024.626-.2.645-.215.214-.214-.287-.558-.287-.861,0-.66-.407-.1-.5-.09a1.617,1.617,0,0,1-.789-.143c-.441-.22-.185-.527,0-.556.891-.138.33-.454.52-.5.1-.025.924.072,1.183.072a1,1,0,0,0,.932-.377c.349-.587.316-.488.753-.5.615-.019.646.053.251.663-.236.365.742.163,1.094.233.328.066.3-.013,1.022.036.534.037.189-.205.036-.358-.334-.334-.466-.035-.466-.466,0-.311,1.278.1,1.2-.2-.109-.428.44-.161.861-.179.37-.016.11-.3.448-.287.484.018,1.012.036,1.578.036.149,0-.174-.5,1.022-.3.39.064.272-.073.592-.34.264-.221.171-.355.5-.52.231-.116-.072.368.807.287.465-.043.3.608.538.179.276-.5.531-.433.592-.556.231-.462.418-.3.645-.143a3.949,3.949,0,0,1,.646.538c.185.185.156.47.681.269.2-.076-.328-.433,1-.251.431.059.06-.241.556-.269.572-.032.761.245.986.269.721.077.318.37.538.448s.288.118.2.789c-.029.213-.412-.28-.287.843.038.344.208.208.592.717.208.277.152.572.233.9s.145.427.323.986a8.051,8.051,0,0,1-.072.932c-.021.437.248.485.538-.287.107-.284.405-.8.592-.251.079.233.389.227.628.287.14.035.4.391.52.484.345.086.307.525.341.915.026.3-.036.7-.036,1,0,.373.551.023,0,.574a1.246,1.246,0,0,0-.358.861c0,.471-.431.34-.431.789a2.194,2.194,0,0,1-.215,1c-.153.3-.348.389-.431.717A4.521,4.521,0,0,0,397.48,488a4.612,4.612,0,0,0,.072,1.076c.045.179-.532.419-.646.646-.14.279.143.94-.18,1.112-.291.155-.381.258-.466.681-.015.074.407.238.3.646s.36.154.233.663c-.044.177.055.188-.108.269l-.1.225c-.029.066-.1.1-.152.152" transform="translate(-292.268 -434.248)" fill="#5751c8" stroke="#eaecff" stroke-width="0.5" fill-rule="evenodd"/><path d="M412.4,462.249c-.081.325-.036-.6-.036-.932,0-.492.078-.578.358-.789.315-.236.05-.5.646-.646.189-.047.616-.616.717-.717.3-.3.02-.507.574-.646.322-.08.43-.525.574-.717s.619-.251.95-.251a3.839,3.839,0,0,0,.914-.036c.289-.072-.255-.17.914-.2,1.373-.031.983.249,1.166.341.493.247.424-.1.574.5.1.391.2.409.574.5a3.629,3.629,0,0,0,.986.054,7.379,7.379,0,0,0,1.309,0c.117-.059,0-.5,0-.843,0-.257-.362-.63-.52-.789s-.059-.677,0-.914c.087-.348.809-.228,1-.179.332.083-.187.249.879.09.334-.05.36.5.574.609.31.155.543.308.825.448.32.16.325.422.628.574a3.275,3.275,0,0,0,1.058.143c.809.041.689-.287,1-.287.5,0,.389-.241.717-.269.667-.058.749-.2.789-.43.067-.39.329-.452.717-.646.3-.148.337-.527.574-.646a.8.8,0,0,1,.717-.054c.259.065-.215.575-.215.843,0,.3-.143.179-.251.394s.172.489.663.574c.157.027.094.475.538.771.122.082-.09.788,0,1.148a7.624,7.624,0,0,0,.627.556c.342.171.278.091.412.628.13.519-.032.481-.269.717-.335.335-.332.43-.143.807.152.3.558.184.717.5.06.121.358.012.358.574,0,.193-.415.006-.287,1.13.042.364-.216.377-.359.663-.129.257.54.115.61.394.109.437.586.273.054,1.148-.236.387-.138.6.215.861.094.07-.018.876-.018,1.04,0,.189.276.249.43.287l.242.071c.067.02.135.034.2.051" transform="translate(-321.71 -420.618)" fill="#5751c8" stroke="#eaecff" stroke-width="0.5" fill-rule="evenodd"/><path d="M451.329,374.994c0,.263.757-.5.992-.38.407.2.5.291.5-.215,0-.4.21-.332.442-.215.25.125-.523.814.849.574.388-.068.572.092.717-.5.008-.034-.359-.479-.359-.574,0-.353.505-.388.81-.388.373,0,.507-.215.911-.114.3.075.27-.365.27-.645,0-.374-.589-.451.161-.861.033-.018.882-.037.882-.038-.079-.443.512-.29.768-.034.189.189.321-.208.51-.4.374-.376-.024-.73.308-.7.943.074.571-.277.869-.675.252-.336.777-.3,1.181-.3.383,0,.537.076.919.076.523,0,.518-.214.852-.464s.739-.068.739-.616c0-.523.511-.5.789-.43.4.1.336-.2.43-.574.087-.35.5-.082.359-.646-.03-.118.171-.363.256-.384.347-.087.162.357,1.414.372.883.01.679-.275,1.055-.275a3.075,3.075,0,0,0,.932-.215,1.966,1.966,0,0,0,.932-.358c.256-.256.372-.254.789-.359a3.755,3.755,0,0,0,.789-.359c.378-.189.317-.245.574-.5a1.923,1.923,0,0,0,.574-.789,3.908,3.908,0,0,0,.287-.932c.073-.293.421-.411.574-.717a1.141,1.141,0,0,0-.072-1,1.681,1.681,0,0,1,0-1c.077-.308.633-.337.772-.616a2.559,2.559,0,0,1,.806-.6c.276-.138.435-.469.688-.659.395-.2.716-.467.645-.751-.029-.115.776-.638.819-.671a2.553,2.553,0,0,0,.717-.717,1.574,1.574,0,0,1,.646-.574c.293-.147.287-.545.287-.861a3.759,3.759,0,0,1,.143-.789c.073-.29.448-.444.717-.646a5.044,5.044,0,0,1,.789-.645,2.873,2.873,0,0,0,.717-.646c.249-.249.314-.458.5-.646.356-.356.662-.171,1,0a1.558,1.558,0,0,0,.861.215c.454,0,.586-.222.861-.359a3.66,3.66,0,0,1,.932-.43c.262-.066.37-.436.646-.574.459-.229.333-.059.5-.143.237-.118.727.215,1,.215a5.092,5.092,0,0,0,1-.072,4.852,4.852,0,0,0,.932-.5c.347-.174.736-.189,1.076-.359a1.733,1.733,0,0,0,.646-.574,3.073,3.073,0,0,1,.717-.646,9.533,9.533,0,0,0,.789-.789c.263-.263.3-.417.646-.5.318-.079.684-.135,1-.215.4-.1.431-.284.431-.717s.169-.544.574-.646c.217-.054.516-.516.717-.717.274-.273.4-.226.5-.43A1.232,1.232,0,0,1,497,343.7c.369-.185.369-.254.431-.5a3.17,3.17,0,0,0,.143-.5c0-.036,0-.072.007-.108.009-.134,0-.271,0-.406" transform="translate(-349.619 -339.51)" fill="#5751c8" stroke="#eaecff" stroke-width="0.5" fill-rule="evenodd"/><path d="M592.71,377.7a1.581,1.581,0,0,0-.127-.127l-.122-.1a.672.672,0,0,1-.215-.717,4.1,4.1,0,0,0,.109-.886c0-.4.111-.615-.109-.835-.273-.273-.287-.558-.287-1.076,0-.316.007-.827-.43-.717-.376.094-.354.285-.646.431a5.009,5.009,0,0,1-1,.215,3.32,3.32,0,0,1-.932.215,1.073,1.073,0,0,1-.86-.287c-.156-.156-.427-.5-.646-.5a1.012,1.012,0,0,1-.772-.346,1,1,0,0,1-.19-.751c0-.342-.1-.769.109-1.055s.21-.648.493-.861a2.277,2.277,0,0,0,.717-.717,1.6,1.6,0,0,0,.143-.932c0-.479.182-.585.287-1a1.33,1.33,0,0,1,.5-.717c.363-.363.627-.075.5-.574-.092-.367-.478-.333-.574-.717-.027-.107-.125-1.005-.143-.932.092.074-.11-.213-.193-.3" transform="translate(-446.368 -355.428)" fill="#5751c8" stroke="#eaecff" stroke-width="0.5" fill-rule="evenodd"/><path d="M528.583,411.433a1.48,1.48,0,0,0-.026.279c0,.034,0,.068,0,.1-.019.077.072.815.072,1.148,0,.243.463.528.645.574.318.08.521-.469.646-.717a3.344,3.344,0,0,0,.358-.789,3.534,3.534,0,0,1,.789-.359c.264-.132.028-.649.27-.89.223-.223.856-.124,1.165-.185.433-.087.646.03.646.43,0,.359.3.362.215.717a4.3,4.3,0,0,0-.072,1c0,.359-.276.872-.228,1.228.026.19.625.135,1.017.135.091,0,.587.8.646.861.248.248.637-.085.789-.287.212-.283.041-.607.278-.844a2.185,2.185,0,0,0,.511-.806c.077-.308.443-.586.574-.717.235-.235.327-.342.565-.557a1.9,1.9,0,0,1,.941-.447c.325-.081-.01.678.072,1,.037.151.06.313.143.646s.459.358.789.358a4.308,4.308,0,0,0,.932-.215c.448-.112.044.346.126.675.111.442.644.329,1.093.329.153,0-.1-.286.155-.35.394-.1.991.239,1.41-.211.185-.2.482.035.747-.03a.48.48,0,0,0,.414-.413c.065-.259.507-.432.789-.5a1.809,1.809,0,0,0,.717-.5c.3-.3.187-.316.646-.43.358-.09.618.187.861.43.191.191.812.048,1,0,.174-.043.446.518.5.574.22.22-.014.772-.072,1-.008.033-.048.048-.072.072l-.022.116a1.443,1.443,0,0,0-.025.279" transform="translate(-404.911 -388.473)" fill="#5751c8" stroke="#eaecff" stroke-width="0.5" fill-rule="evenodd"/><path d="M516.536,419.684a.429.429,0,0,1,.025.1c0,.123.013.237.026.38l.01.112c-.019.077.072.815.072,1.148,0,.293-.761.618-.861.717a2.467,2.467,0,0,0-.574.717c-.182.364-.178.4-.574.5a3.809,3.809,0,0,0-.789.358,2.183,2.183,0,0,0-.5.717c-.174.348-.219.653-.359.932s-.544.287-.861.287c-.339,0-.526.6-.574.789-.124.5.214.412.574.5.324.081.717-.344.717.215,0,.4.265.468.5.646s.138-.522.861-.43c.523.066.436.12.359.43-.082.329.16.828,0,1.14-.129.258.433.533.5.582.238.179.135.364.135.713,0,.508-.2.437.029.662a9.7,9.7,0,0,0,1.414.346c.136.034.038.076.072.143l.024.106c.026.112.1.159.127.279" transform="translate(-392.737 -395)" fill="#5751c8" stroke="#eaecff" stroke-width="0.5" fill-rule="evenodd"/><path d="M508.495,390.056c-.026-.013-.091-.032-.1-.051l-.066-.12-.215-.215c-.439-.439-.292.074-.717.287-.263.131-.456.254-.574-.215-.049-.2-.24-.66-.287-.789-.254-.7-.647.076-1.084-.1-.368-.149-.342.129-.692.3a.785.785,0,0,1-.649.012c-.437-.109-.568.083-.874-.071-.124-.062-.072-.267-.62-.13a1.349,1.349,0,0,1-1.022-.367,2.129,2.129,0,0,0-.24-.768c-.141-.131-.045.026.16-.384.224-.448-.17-.254,0-.932a2.78,2.78,0,0,0-.059-.9c-.44-.11-.093-.637-.38-.924a3.851,3.851,0,0,0-.637-.472l-.438-.071" transform="translate(-384.467 -369.556)" fill="#5751c8" stroke="#eaecff" stroke-width="0.5" fill-rule="evenodd"/><path d="M451.875,437.005a.181.181,0,0,1,.051.025,1.251,1.251,0,0,1,.228.279l.056.1c.165.164.471.614.646.789.27.27.594.384.072.646-.206.1-.257.814-.257,1.08,0,.342.38.131.646.2.51.128.317-.02.632.3.231.231.132.926.055,1.08-.088.176-.1.064-.215.143-.113-.113-.3.18-.315.2s-.051.051-.076.076" transform="translate(-350.01 -407.402)" fill="#5751c8" stroke="#eaecff" stroke-width="0.5" fill-rule="evenodd"/><path d="M273.2,454.773c-.008.042-.036.085-.025.127l.03.112a.592.592,0,0,1,0,.143,2.024,2.024,0,0,0-.072,1,1.66,1.66,0,0,0,.574.717c.393.2.143.357.358.789.063.127.348.543.287.789s-.314.664-.215.861c.2.394-.116.611-.072.789.094.375.5.215.5.574a1.143,1.143,0,0,0,.215.861c.226.3.43.395.43.861a4.952,4.952,0,0,1,0,1.076c-.063.251-.613.463-.43.646.341.34.585.132.215.5-.327.327-.155.406,0,.717a6.3,6.3,0,0,1,.359,1c.078.31.283.426.5.645s.2.441.2.9c0,.139,0,1.093,0,1.094-.167.042-.768-.084-.843.215a4.861,4.861,0,0,0,.018,1.094c0,.6-.143.322-.3.646-.13.259-.431.5-.5.789-.03.12-.295.8.09.7.288-.072.708.105,1.058.018.325-.081.356-.357.932-.358.38,0,.486-.646.789-.646.264,0,.782.222,1,0l.574-.574c.439-.439.269-.33.735-.394.759-.1.708-.135.968-.395a5.257,5.257,0,0,0,.61-.556c.184-.423.842-.232.914-.3.254-.254.2-.318.645-.43.386-.1.241-.724.5-.789.539-.135.3-.376.574-.646.224-.223.884-.164,1-.646a4.618,4.618,0,0,1,0-1c.092-.369.38-.318.789-.215.312.078.342.43.646.43.456,0,.845.052,1.147-.251a1.62,1.62,0,0,0,.323-.914c0-.354.482-.682.986-.556.381.1-.141.292.126.359a1.689,1.689,0,0,0,.914-.072c.3-.076.655-.182.735-.5.037-.147.091-.636.5-.43s.378-.072.574-.072c.591,0,.441-.361.717-.43.147-.037.464-.224.574.215.078.314.155.646.574.646.156,0,.957.187,1,0,.176-.7.457.045.717-.215.3-.3.3-.287.717-.287a10,10,0,0,1,1.147,0c.094.377.361.218.807.233,1.142.039,1.019-.4,1.058-.3.077.193.143.717.431.717a1.059,1.059,0,0,0,.861-.5c.179-.359.117-.619.359-.861.08-.08.391-.835.574-.789.376.094.391-.064.807.251.062.047.819.155.932-.072s.329-.311.484-.466c.212-.212.546-.259.789-.5a.976.976,0,0,1,.771-.358c1.445-.006,1.128.341,1.4.341.478,0,.051-.341.412-.341.487,0,.524-.184.861.287.07.1.783.018,1.183.018s.363.035,1.291,0a2.363,2.363,0,0,0,.753-.3,5.346,5.346,0,0,0,.861-.5,6.442,6.442,0,0,0,.646-.646c.25-.251.581-.51.789-.717.227-.227.717-.143.861-.431l.108-.081a.853.853,0,0,1,.33-.1,1.623,1.623,0,0,0,.3-.177" transform="translate(-221.994 -420.124)" fill="#5751c8" stroke="#eaecff" stroke-width="0.5" fill-rule="evenodd"/><path d="M328.988,442.987a.549.549,0,0,0,.026.076.576.576,0,0,1,.1.3l.01.122c.087-.348-.015.727.072,1.076.093.374-.071.571-.143.861a3.6,3.6,0,0,0-.143.932c0,.278-.072.677-.072,1,0,.363.072.594.072,1v1.076a1.75,1.75,0,0,1-.072.717c-.088.354-.25.433-.143.861.124.494-.143.47-.143.932a1.249,1.249,0,0,0,.359.932,2.6,2.6,0,0,0,.717.359c.124.062.232.582.5.717.244.122-.44.307-.646.359-.4.1-.482.1-.646.43-.187.374-.2.63.143.717a2.2,2.2,0,0,0,.717.143l.126.03a1.193,1.193,0,0,0,.279.025" transform="translate(-261.711 -411.685)" fill="#5751c8" stroke="#eaecff" stroke-width="0.5" fill-rule="evenodd"/><path d="M336.518,485.934a.7.7,0,0,1,.177.1l.07.11c.348.087.392.607.646.86.218.218-.015.92-.072,1.148-.1.382-.286.646.072,1,.2.2.607.321.789.5.277.277.656.07,1,0a3.588,3.588,0,0,0,.861-.43c.244-.122.143.611.143.86,0,.289-.359.611-.359,1a1.259,1.259,0,0,1-.359,1c-.218.218-.692.143-1,.143-.261,0-.546.452-.789.574-.491.245-.508.094-.646.646-.093.373.155.691.215.932.076.306-.35.682-.431,1-.062.246-.1.619-.143.789-.077-.12-.049.281-.049.423" transform="translate(-267.414 -442.435)" fill="#5751c8" stroke="#eaecff" stroke-width="0.5" fill-rule="evenodd"/><path d="M294.44,511.425c-.079.316.495.474.574.789a2.144,2.144,0,0,0,.5.646,2.11,2.11,0,0,0,.861.287.85.85,0,0,0,.86-.358c.368-.368.516.2.574.43.1.414.383.359.789.359.494,0,.654-.054.861.358.1.2.677.247.789.359s0,.905,0,1.076v1.291" transform="translate(-237.281 -460.687)" fill="#5751c8" stroke="#eaecff" stroke-width="0.5" fill-rule="evenodd"/><path d="M206.576,476.01l.43-.215c.252-.126.619-.381.861-.5.15-.075.714-.13.789-.43.135-.539.2-.274.5-.574a.808.808,0,0,1,.717-.358,5.239,5.239,0,0,0,1.148,0,4.836,4.836,0,0,0,.932-.215c.447-.224.468-.331.717-.143a6.919,6.919,0,0,1,.932.359c.222.443.308.109.771.34a2.115,2.115,0,0,0,1.237.2c.353-.088.088-.466.287-.466.625,0,.689-.011.861.251a.481.481,0,0,0,.843-.036c.131-.263.018-.564.018-1a.591.591,0,0,1,0-.143c.076-.3.381-.486.287-.861a5.211,5.211,0,0,0-.072-1c-.056-.075-.642-.842-.143-.717.17.043.851.327.932,0s-.013-.736.072-1.076.288-.413.646-.5a4.371,4.371,0,0,0,1-.215c.239-.119.711-.137.932-.358.326-.326.251-.36.144-.789a4.462,4.462,0,0,1-.215-.932,1.54,1.54,0,0,1,.5-.861c.043-.043.687-.491.574-.717-.147-.294-.43-.434-.43-.789,0-.529.188-.465.287-.861.063-.251.115-.71.43-.789.294-.074.475.107.574.5.034.137.3.613.43.646.424.106.528-.052.717-.43a1.478,1.478,0,0,0,.2-.968c-.1-.419.043-.649-.108-.95a1.2,1.2,0,0,1-.215-.879c.062-.247-.117-.762.126-1,.16-.16.674-.416.789-.645a1.487,1.487,0,0,0,.215-.932c0-.5-.186-.53-.287-.932-.094-.377-.135-1.008.144-1.148.007-.04.013-.08.02-.12.023-.137.155-.231.228-.3a.593.593,0,0,0,.1-.33v-.152" transform="translate(-174.376 -420.251)" fill="#5751c8" stroke="#eaecff" stroke-width="0.5" fill-rule="evenodd"/><path d="M229.722,456.559s-.278.12-.279.127c0,.036-.007.072-.011.107-.323.162.095.623-.161.879-.211.211.012,1.136-.054,1.4a1.058,1.058,0,0,0-.036.538c.163.326-.3.673-.394.771-.256.256-.064.693-.52.807-.44.11.128.8.162.843a.918.918,0,0,0,.717.358c.528-.064.646-.079.646.5,0,.429-.262.526-.5.646-.273.137-.37.6-.5.861a3.276,3.276,0,0,0-.108,1.058c0,.35-.254.414-.466.52s-.09.666-.09.932c0,.475-.683-.093-.054.789.217.3.278.543.556.61.26.062.5-.138.646.448.13.519-.013-.12.233.448.124.286-.345-.01-.215,1.076.049.409-.761-.007-.861.341-.076.266-.32.393-.574.52-.2.1-.313.751-.358.932-.041.163-.359.286-.359.789,0,.437.128.48.5.574.472.118.429-.222.574.359a3.458,3.458,0,0,1-.717.43.917.917,0,0,0-.215.072l-.179.179a2.714,2.714,0,0,1-.323.251" transform="translate(-188.841 -421.402)" fill="#5751c8" stroke="#eaecff" stroke-width="0.5" fill-rule="evenodd"/><path d="M185.022,456.949c-.3.074-.427,1.062-.7,1.2-.339.17-.546.174-.646.574-.093.373.282.607.5.717.376.188-.041.543-.215.717a2.144,2.144,0,0,0-.287.861c-.116.466-.089.591-.359.861a2.183,2.183,0,0,0-.574.646c-.151.3-.092.686-.215.932s.607.47.646.574c.122.329-.22.829-.359.932-.382.286-.75.03-.986.5-.172.345-.161.279-.161.932,0,.417.136.713-.341.986-.314.18.922,0,1.273.089a5.379,5.379,0,0,1,0,1.183,1.6,1.6,0,0,1-.143.9c-.116.233-.385-.078-.646-.143-.137-.034-.463.607-.574.717-.317.317.026.489-.431.717a3.118,3.118,0,0,1-.771.215c-.318.079-.237.253-.592.43-.413.207-.5.111-.5.646,0,.446.142.459-.43.574a5.708,5.708,0,0,1-1.147.072.72.72,0,0,1-.215-.072l-.124-.072c-.08-.047-.253.158-.279.177a.288.288,0,0,0-.051.051" transform="translate(-152.982 -421.682)" fill="#5751c8" stroke="#eaecff" stroke-width="0.5" fill-rule="evenodd"/><path d="M150.765,473.208a1.066,1.066,0,0,0,.359.072,4.385,4.385,0,0,0,1.076-.072c.527-.132.591-.285.717-.789.078-.31.151-.866.431-1.076.3-.229.365-.249.43-.574a2.7,2.7,0,0,0,.215-1.219c-.089-.356.3-.429.054-.7-.377-.418-.123-1.221-.269-1.255-.55-.128-.012-1.122-.3-1.237-.48-.19-.294-.69-.2-1.076.1-.412.336.018.43-.359.031-.125.2-1.058.036-1.058a1.129,1.129,0,0,0-.682.161,3.255,3.255,0,0,1-.932.215c-.375.048-.725-.1-.484-.825.087-.261-.532-.3-.377-.61s-.106-.693.287-.646c.938.114.981-.548,1.148-.215s.1.559.5.358a.59.59,0,0,1,.789.072c.12.09.477.6.717.359.255-.255.29-.189.789-.287.481-.095.864,0,.556.305-.476.463.055.779.43.592.327-.163.313-.291.2-.753-.069-.276.324-1.032.036-1-.767.074-.574-.231-.574-.574,0-.484-.192-.293-.359-.628-.127-.253-.544-.423-.377-.789a3.008,3.008,0,0,0,.377-.932c-.045-.636.251-.758.251-.986,0-.484.212-.351.287-.717.037-.181.172-.747.341-.789.283-.071.246-.538.538-.538.03-.012.44-.48.47-.492" transform="translate(-134.415 -420.389)" fill="#5751c8" stroke="#eaecff" stroke-width="0.5" fill-rule="evenodd"/><path d="M101.506,500.6c-.292,0,.6.509.805.715.18.181.4.129.7.072a2.155,2.155,0,0,0,1.076-.466,5.578,5.578,0,0,1,.681-.574,2.376,2.376,0,0,1,1.112-.126c.3,0,.343-.435.431-.609.129-.258.474.522.753.592a2.9,2.9,0,0,0,.932,0c.4,0-.362.419-.143.717.291.4.766.563.861.359.282-.609.336.25.681-.574.451.234.454-.169.52-.484.52.047,1.07.148,1.147-.323.8-.212.6-.108.663-.126.433-.13.426-.05.126.251-.353.353.058.791.233.807a8.06,8.06,0,0,0,.986.054c.488-.018.374-.39.473-.4s.41.345.531.345c.336,0,.176-.2.574-.395.281-.14.255-.828.663-.861.534-.043.455.366.717.7.163.208,1.017-.072,1.291-.072.455,0,.4-.174.717.143.053.053.143-.048.215-.072l.1-.047a.8.8,0,0,0,.1-.177" transform="translate(-99.104 -452.193)" fill="#5751c8" stroke="#eaecff" stroke-width="0.5" fill-rule="evenodd"/><path d="M412.589,480.041a.768.768,0,0,0,.178.3.283.283,0,0,0,.076.051" transform="translate(-321.881 -438.216)" fill="#5751c8" stroke="#eaecff" stroke-width="0.5" fill-rule="evenodd"/><path d="M74,231.96l-.05-.376.4-.368c.557-.515.551-.566-.188-1.548a2.1,2.1,0,0,0-.689-.683c-.238-.1-.282-.1-.62.051-.2.087-.42.187-.488.221-.233.119-.416.064-.72-.214l-.3-.278-.878-.005-.878-.005-.282.415c-.293.431-.418.5-1.691.992a8.269,8.269,0,0,1-2.49.131c-.812-.051-.822-.054-.791-.219.043-.227.274-.422.676-.571a1.559,1.559,0,0,0,.492-.291l.156-.166-.231-.489c-.2-.416-.22-.521-.158-.7a3.779,3.779,0,0,0-.094-1.48,1.789,1.789,0,0,0-.3-.311.586.586,0,0,1-.233-.357.7.7,0,0,1,.49-.542,1.322,1.322,0,0,0,.38-.1,1.06,1.06,0,0,1,.474-.064.939.939,0,0,0,.574-.142,2.142,2.142,0,0,1,.876-.215c.457-.032.556-.063.681-.215a.687.687,0,0,1,.506-.222,4.616,4.616,0,0,0,.524-.091c.13-.037.174-.014.205.1.026.1.117.166.275.2a1.083,1.083,0,0,1,.472.289.637.637,0,0,0,.62.245,1.517,1.517,0,0,1,.68.151.946.946,0,0,0,1.027-.069,2.027,2.027,0,0,1,.558-.255,2.627,2.627,0,0,0,.873-.523c.48-.4.524-.417,1-.46a1.753,1.753,0,0,0,1.291-.566,5.258,5.258,0,0,1,.59-.441c.238-.122.379.03.379.411a.641.641,0,0,0,.179.5.662.662,0,0,1,.179.349,2.212,2.212,0,0,0,.56,1.287c.185.209.427.5.537.642.339.442.531.5,1.512.46,1.17-.048,1.71.107,2.2.629a1.65,1.65,0,0,0,.851.464.748.748,0,0,0,.354-.18c.287-.242.548-.282,1.156-.18.471.079.531.11.769.395.356.425.529.493,1.285.5l.65.005.215.25a2.114,2.114,0,0,1,.312.5,2.643,2.643,0,0,0,.236.452.591.591,0,0,1-.2.859,1.647,1.647,0,0,0-.433.5,2.623,2.623,0,0,1-.648.706,1.7,1.7,0,0,0-.46.456c0,.052-.1.116-.233.142s-.287.062-.354.081c-.095.027-.147-.056-.241-.382-.206-.711-.223-.738-.461-.738a.79.79,0,0,0-.5.257l-.284.257-.282-.3-.282-.3-1.1.048c-1.287.057-1.489.123-1.756.578-.2.336-.279.371-.5.213-.124-.091-.13-.132-.054-.412.115-.425,0-.532-.693-.639a2.037,2.037,0,0,0-1.671.239,2.661,2.661,0,0,1-.825.361l-.448.1v-.188c0-.574-.331-1.084-.7-1.084-.22,0-.394.155-.645.574a2.653,2.653,0,0,1-.377.466,2.7,2.7,0,0,0-.428.61,2.382,2.382,0,0,1-.342.522c-.139.126-.143.121-.192-.249Zm3.531-2.91c.021-.364.029-.377.233-.377.187,0,.211-.025.211-.215s-.024-.215-.215-.215h-.215v-2.08l-.2,0c-.172,0-.292.139-.932,1.055a4.3,4.3,0,0,0-.735,1.252v.2h1.434v.4c0,.393,0,.4.2.377S77.508,229.4,77.528,229.051Z" transform="translate(-53.046 -171.363)" fill="#5751c8" stroke="#eaecff" stroke-width="0.5" opacity="0.06"/><path d="M74.132,232.329c-.207-.207-.076-.575.335-.935a1.42,1.42,0,0,0,.43-.521,6.06,6.06,0,0,0-1.381-1.7,1.649,1.649,0,0,0-.806.151c-.575.226-.6.223-.933-.087-.289-.271-.474-.313-1.228-.279s-.928.094-1.158.4a4.423,4.423,0,0,1-2.562,1.107c-.938.11-2.4-.023-2.4-.219,0-.072.2-.24.441-.375.912-.505.92-.517.709-1.028a4.43,4.43,0,0,1-.2-1.3c-.01-.68-.078-.9-.366-1.211-.452-.481-.277-.818.511-.982a8.959,8.959,0,0,0,.99-.272,5.492,5.492,0,0,1,1.04-.221c.335-.036.61-.121.61-.188s.231-.166.513-.219a1.805,1.805,0,0,1,1.532.495,1.427,1.427,0,0,0,.645.251,7.529,7.529,0,0,1,.789.137,4.026,4.026,0,0,0,2.422-.961,1.657,1.657,0,0,1,1.026-.412,1.661,1.661,0,0,0,1.111-.507c.672-.562.9-.575.976-.055a1.263,1.263,0,0,0,.165.491,3.028,3.028,0,0,1,.276.717,4.239,4.239,0,0,0,.795,1.291l.634.717,1.352.076c1.268.071,1.384.1,1.878.538.585.514.85.56,1.463.254a1.691,1.691,0,0,1,1.85.41c.288.31.471.372,1.106.372.75,0,.767.01,1.154.651.466.771.487,1.032.118,1.424-.151.161-.587.63-.968,1.044-.811.88-1.265.987-1.408.333s-.4-.781-.837-.435l-.373.293-.312-.312c-.287-.287-.4-.3-1.475-.215-.962.08-1.227.158-1.531.449-.508.486-.719.451-.675-.114.036-.464.032-.467-.8-.6a1.906,1.906,0,0,0-1.592.251c-.9.458-1.231.485-1.231.1a1.392,1.392,0,0,0-.344-.679l-.344-.4-.6.643a6.848,6.848,0,0,0-.878,1.181c-.3.573-.318.591-.466.442Zm3.49-3.06q0-.43.215-.43a.215.215,0,1,0,0-.43c-.171,0-.215-.207-.215-1s-.045-1-.211-1a7.049,7.049,0,0,0-1.653,2.246c0,.136.213.193.717.193.7,0,.717.01.717.43q0,.43.215.43T77.623,229.269Z" transform="translate(-53.122 -171.564)" fill="#5751c8" stroke="#eaecff" stroke-width="0.5" opacity="0"/><path d="M74.132,232.329c-.207-.207-.076-.575.335-.935a1.42,1.42,0,0,0,.43-.521,6.06,6.06,0,0,0-1.381-1.7,1.649,1.649,0,0,0-.806.151c-.575.226-.6.223-.933-.087-.289-.271-.474-.313-1.228-.279s-.928.094-1.158.4a4.423,4.423,0,0,1-2.562,1.107c-.938.11-2.4-.023-2.4-.219,0-.072.2-.24.441-.375.912-.505.92-.517.709-1.028a4.43,4.43,0,0,1-.2-1.3c-.01-.68-.078-.9-.366-1.211-.452-.481-.277-.818.511-.982a8.959,8.959,0,0,0,.99-.272,5.492,5.492,0,0,1,1.04-.221c.335-.036.61-.121.61-.188s.231-.166.513-.219a1.805,1.805,0,0,1,1.532.495,1.427,1.427,0,0,0,.645.251,7.529,7.529,0,0,1,.789.137,4.026,4.026,0,0,0,2.422-.961,1.657,1.657,0,0,1,1.026-.412,1.661,1.661,0,0,0,1.111-.507c.672-.562.9-.575.976-.055a1.263,1.263,0,0,0,.165.491,3.028,3.028,0,0,1,.276.717,4.239,4.239,0,0,0,.795,1.291l.634.717,1.352.076c1.268.071,1.384.1,1.878.538.585.514.85.56,1.463.254a1.691,1.691,0,0,1,1.85.41c.288.31.471.372,1.106.372.75,0,.767.01,1.154.651.466.771.487,1.032.118,1.424-.151.161-.587.63-.968,1.044-.811.88-1.265.987-1.408.333s-.4-.781-.837-.435l-.373.293-.312-.312c-.287-.287-.4-.3-1.475-.215-.962.08-1.227.158-1.531.449-.508.486-.719.451-.675-.114.036-.464.032-.467-.8-.6a1.906,1.906,0,0,0-1.592.251c-.9.458-1.231.485-1.231.1a1.392,1.392,0,0,0-.344-.679l-.344-.4-.6.643a6.848,6.848,0,0,0-.878,1.181c-.3.573-.318.591-.466.442Zm3.49-3.06q0-.43.215-.43a.215.215,0,1,0,0-.43c-.171,0-.215-.207-.215-1s-.045-1-.211-1a7.049,7.049,0,0,0-1.653,2.246c0,.136.213.193.717.193.7,0,.717.01.717.43q0,.43.215.43T77.623,229.269Z" transform="translate(-53.122 -171.564)" fill="#5751c8" stroke="#eaecff" stroke-width="0.5" opacity="0"/><path d="M74.132,232.329c-.207-.207-.076-.575.335-.935a1.42,1.42,0,0,0,.43-.521,6.06,6.06,0,0,0-1.381-1.7,1.649,1.649,0,0,0-.806.151c-.575.226-.6.223-.933-.087-.289-.271-.474-.313-1.228-.279s-.928.094-1.158.4a4.423,4.423,0,0,1-2.562,1.107c-.938.11-2.4-.023-2.4-.219,0-.072.2-.24.441-.375.912-.505.92-.517.709-1.028a4.43,4.43,0,0,1-.2-1.3c-.01-.68-.078-.9-.366-1.211-.452-.481-.277-.818.511-.982a8.959,8.959,0,0,0,.99-.272,5.492,5.492,0,0,1,1.04-.221c.335-.036.61-.121.61-.188s.231-.166.513-.219a1.805,1.805,0,0,1,1.532.495,1.427,1.427,0,0,0,.645.251,7.529,7.529,0,0,1,.789.137,4.026,4.026,0,0,0,2.422-.961,1.657,1.657,0,0,1,1.026-.412,1.661,1.661,0,0,0,1.111-.507c.672-.562.9-.575.976-.055a1.263,1.263,0,0,0,.165.491,3.028,3.028,0,0,1,.276.717,4.239,4.239,0,0,0,.795,1.291l.634.717,1.352.076c1.268.071,1.384.1,1.878.538.585.514.85.56,1.463.254a1.691,1.691,0,0,1,1.85.41c.288.31.471.372,1.106.372.75,0,.767.01,1.154.651.466.771.487,1.032.118,1.424-.151.161-.587.63-.968,1.044-.811.88-1.265.987-1.408.333s-.4-.781-.837-.435l-.373.293-.312-.312c-.287-.287-.4-.3-1.475-.215-.962.08-1.227.158-1.531.449-.508.486-.719.451-.675-.114.036-.464.032-.467-.8-.6a1.906,1.906,0,0,0-1.592.251c-.9.458-1.231.485-1.231.1a1.392,1.392,0,0,0-.344-.679l-.344-.4-.6.643a6.848,6.848,0,0,0-.878,1.181c-.3.573-.318.591-.466.442Zm3.49-3.06q0-.43.215-.43a.215.215,0,1,0,0-.43c-.171,0-.215-.207-.215-1s-.045-1-.211-1a7.049,7.049,0,0,0-1.653,2.246c0,.136.213.193.717.193.7,0,.717.01.717.43q0,.43.215.43T77.623,229.269Z" transform="translate(-53.122 -171.564)" fill="#5751c8" stroke="#eaecff" stroke-width="0.5" opacity="0"/><path d="M396.936,150.226c-.035-.139-.166-.562-.291-.94a1.32,1.32,0,0,1-.016-1.079c.158-.3.125-.522-.133-.916a2.108,2.108,0,0,1-.217-1.595c.117-.994.086-1.1-.423-1.5-.471-.37-.514-.488-.3-.823a1.37,1.37,0,0,0-.263-1.817,1.577,1.577,0,0,1-.507-1.02,1.985,1.985,0,0,0-.536-1.122c-.475-.513-.51-.646-.311-1.175.461-1.222-.311-1.276-1.586-.111-1.006.919-2.812,1.7-3.454,1.5a6.271,6.271,0,0,1-2.025-1.332c0-.235.536-.372.991-.253a2.247,2.247,0,0,0,.932-.018c.4-.1.51-.256.51-.73,0-.546.076-.614.811-.732.539-.086.822-.24.842-.459.017-.181.042-.42.056-.532.063-.508.407-.71,1.209-.71.717,0,.914-.088,1.138-.507.149-.279.36-.507.467-.507a1.7,1.7,0,0,0,.666-.507,1.552,1.552,0,0,1,1.381-.507c.993,0,2.354-.656,2.354-1.136,0-.16.2-.284.461-.284.318,0,.579-.219.842-.708.353-.655.436-.7,1.117-.59,1.422.227,5.319-1.258,6.071-2.313a2.476,2.476,0,0,0,.435-.833.214.214,0,0,1,.2-.222c.112,0,.2.521.2,1.166a2.074,2.074,0,0,1-.784,1.978,7.14,7.14,0,0,1-1.364,1.123,2.985,2.985,0,0,0-.993,1.093,2.26,2.26,0,0,1-.907.967c-1.032.382-1.157,1.477-.193,1.689a1.134,1.134,0,0,1,.726.406.665.665,0,0,0,1.015.275c.371-.308.469-.185.614.761a2.73,2.73,0,0,0,.4,1.11,1.2,1.2,0,0,1,.226.806c-.044.391.081.526.656.715a1.751,1.751,0,0,1,1.214,1.452c0,.16-.288.254-.784.254a1.545,1.545,0,0,0-1.039.3.894.894,0,0,1-.59.3,3.545,3.545,0,0,0-1.271.964,2.974,2.974,0,0,0-1.063,1.88,3.253,3.253,0,0,1-1.023,1.9c-1.034,1.142-1.53,1.156-1.53.044,0-.866-.172-1.342-.485-1.342a6.274,6.274,0,0,0-1.4,1.419c-1.016,1.243-1.159,1.528-1.159,2.3,0,1.407-.657,2.819-.888,1.908Zm4.286-10.058a2.693,2.693,0,0,0,.254-1.279c0-.766-.092-1.029-.451-1.28-.569-.4-.858-.4-1.259,0-.773.773-.095,2.126.906,1.809.493-.156.546.337.077.726-.252.209-.4.214-.707.025-.505-.316-.606-.3-.47.051.215.561,1.179.528,1.65-.056Zm-2.789-1.116a5.738,5.738,0,0,0-.137-1.625c-.151-.151-1.08.644-1.08.923,0,.1.183.077.406-.042.385-.206.406-.154.406,1.007,0,.681.09,1.224.2,1.224S398.433,139.909,398.433,139.052Z" transform="translate(-283.992 -102.631)" fill="#5751c8" stroke="#eaecff" stroke-width="0.5" opacity="0"/><path d="M396.936,150.226c-.035-.139-.166-.562-.291-.94a1.32,1.32,0,0,1-.016-1.079c.158-.3.125-.522-.133-.916a2.108,2.108,0,0,1-.217-1.595c.117-.994.086-1.1-.423-1.5-.471-.37-.514-.488-.3-.823a1.37,1.37,0,0,0-.263-1.817,1.577,1.577,0,0,1-.507-1.02,1.985,1.985,0,0,0-.536-1.122c-.475-.513-.51-.646-.311-1.175.461-1.222-.311-1.276-1.586-.111-1.006.919-2.812,1.7-3.454,1.5a6.271,6.271,0,0,1-2.025-1.332c0-.235.536-.372.991-.253a2.247,2.247,0,0,0,.932-.018c.4-.1.51-.256.51-.73,0-.546.076-.614.811-.732.539-.086.822-.24.842-.459.017-.181.042-.42.056-.532.063-.508.407-.71,1.209-.71.717,0,.914-.088,1.138-.507.149-.279.36-.507.467-.507a1.7,1.7,0,0,0,.666-.507,1.552,1.552,0,0,1,1.381-.507c.993,0,2.354-.656,2.354-1.136,0-.16.2-.284.461-.284.318,0,.579-.219.842-.708.353-.655.436-.7,1.117-.59,1.422.227,5.319-1.258,6.071-2.313a2.476,2.476,0,0,0,.435-.833.214.214,0,0,1,.2-.222c.112,0,.2.521.2,1.166a2.074,2.074,0,0,1-.784,1.978,7.14,7.14,0,0,1-1.364,1.123,2.985,2.985,0,0,0-.993,1.093,2.26,2.26,0,0,1-.907.967c-1.032.382-1.157,1.477-.193,1.689a1.134,1.134,0,0,1,.726.406.665.665,0,0,0,1.015.275c.371-.308.469-.185.614.761a2.73,2.73,0,0,0,.4,1.11,1.2,1.2,0,0,1,.226.806c-.044.391.081.526.656.715a1.751,1.751,0,0,1,1.214,1.452c0,.16-.288.254-.784.254a1.545,1.545,0,0,0-1.039.3.894.894,0,0,1-.59.3,3.545,3.545,0,0,0-1.271.964,2.974,2.974,0,0,0-1.063,1.88,3.253,3.253,0,0,1-1.023,1.9c-1.034,1.142-1.53,1.156-1.53.044,0-.866-.172-1.342-.485-1.342a6.274,6.274,0,0,0-1.4,1.419c-1.016,1.243-1.159,1.528-1.159,2.3,0,1.407-.657,2.819-.888,1.908Zm4.286-10.058a2.693,2.693,0,0,0,.254-1.279c0-.766-.092-1.029-.451-1.28-.569-.4-.858-.4-1.259,0-.773.773-.095,2.126.906,1.809.493-.156.546.337.077.726-.252.209-.4.214-.707.025-.505-.316-.606-.3-.47.051.215.561,1.179.528,1.65-.056Zm-2.789-1.116a5.738,5.738,0,0,0-.137-1.625c-.151-.151-1.08.644-1.08.923,0,.1.183.077.406-.042.385-.206.406-.154.406,1.007,0,.681.09,1.224.2,1.224S398.433,139.909,398.433,139.052Z" transform="translate(-283.992 -102.631)" fill="#5751c8" stroke="#eaecff" stroke-width="0.5" opacity="0"/><path d="M396.936,150.226c-.035-.139-.166-.562-.291-.94a1.32,1.32,0,0,1-.016-1.079c.158-.3.125-.522-.133-.916a2.108,2.108,0,0,1-.217-1.595c.117-.994.086-1.1-.423-1.5-.471-.37-.514-.488-.3-.823a1.37,1.37,0,0,0-.263-1.817,1.577,1.577,0,0,1-.507-1.02,1.985,1.985,0,0,0-.536-1.122c-.475-.513-.51-.646-.311-1.175.461-1.222-.311-1.276-1.586-.111-1.006.919-2.812,1.7-3.454,1.5a6.271,6.271,0,0,1-2.025-1.332c0-.235.536-.372.991-.253a2.247,2.247,0,0,0,.932-.018c.4-.1.51-.256.51-.73,0-.546.076-.614.811-.732.539-.086.822-.24.842-.459.017-.181.042-.42.056-.532.063-.508.407-.71,1.209-.71.717,0,.914-.088,1.138-.507.149-.279.36-.507.467-.507a1.7,1.7,0,0,0,.666-.507,1.552,1.552,0,0,1,1.381-.507c.993,0,2.354-.656,2.354-1.136,0-.16.2-.284.461-.284.318,0,.579-.219.842-.708.353-.655.436-.7,1.117-.59,1.422.227,5.319-1.258,6.071-2.313a2.476,2.476,0,0,0,.435-.833.214.214,0,0,1,.2-.222c.112,0,.2.521.2,1.166a2.074,2.074,0,0,1-.784,1.978,7.14,7.14,0,0,1-1.364,1.123,2.985,2.985,0,0,0-.993,1.093,2.26,2.26,0,0,1-.907.967c-1.032.382-1.157,1.477-.193,1.689a1.134,1.134,0,0,1,.726.406.665.665,0,0,0,1.015.275c.371-.308.469-.185.614.761a2.73,2.73,0,0,0,.4,1.11,1.2,1.2,0,0,1,.226.806c-.044.391.081.526.656.715a1.751,1.751,0,0,1,1.214,1.452c0,.16-.288.254-.784.254a1.545,1.545,0,0,0-1.039.3.894.894,0,0,1-.59.3,3.545,3.545,0,0,0-1.271.964,2.974,2.974,0,0,0-1.063,1.88,3.253,3.253,0,0,1-1.023,1.9c-1.034,1.142-1.53,1.156-1.53.044,0-.866-.172-1.342-.485-1.342a6.274,6.274,0,0,0-1.4,1.419c-1.016,1.243-1.159,1.528-1.159,2.3,0,1.407-.657,2.819-.888,1.908Zm4.286-10.058a2.693,2.693,0,0,0,.254-1.279c0-.766-.092-1.029-.451-1.28-.569-.4-.858-.4-1.259,0-.773.773-.095,2.126.906,1.809.493-.156.546.337.077.726-.252.209-.4.214-.707.025-.505-.316-.606-.3-.47.051.215.561,1.179.528,1.65-.056Zm-2.789-1.116a5.738,5.738,0,0,0-.137-1.625c-.151-.151-1.08.644-1.08.923,0,.1.183.077.406-.042.385-.206.406-.154.406,1.007,0,.681.09,1.224.2,1.224S398.433,139.909,398.433,139.052Z" transform="translate(-283.992 -102.631)" fill="#5751c8" stroke="#eaecff" stroke-width="0.5" opacity="0"/><path d="M396.936,150.226c-.035-.139-.166-.562-.291-.94a1.32,1.32,0,0,1-.016-1.079c.158-.3.125-.522-.133-.916a2.108,2.108,0,0,1-.217-1.595c.117-.994.086-1.1-.423-1.5-.471-.37-.514-.488-.3-.823a1.37,1.37,0,0,0-.263-1.817,1.577,1.577,0,0,1-.507-1.02,1.985,1.985,0,0,0-.536-1.122c-.475-.513-.51-.646-.311-1.175.461-1.222-.311-1.276-1.586-.111-1.006.919-2.812,1.7-3.454,1.5a6.271,6.271,0,0,1-2.025-1.332c0-.235.536-.372.991-.253a2.247,2.247,0,0,0,.932-.018c.4-.1.51-.256.51-.73,0-.546.076-.614.811-.732.539-.086.822-.24.842-.459.017-.181.042-.42.056-.532.063-.508.407-.71,1.209-.71.717,0,.914-.088,1.138-.507.149-.279.36-.507.467-.507a1.7,1.7,0,0,0,.666-.507,1.552,1.552,0,0,1,1.381-.507c.993,0,2.354-.656,2.354-1.136,0-.16.2-.284.461-.284.318,0,.579-.219.842-.708.353-.655.436-.7,1.117-.59,1.422.227,5.319-1.258,6.071-2.313a2.476,2.476,0,0,0,.435-.833.214.214,0,0,1,.2-.222c.112,0,.2.521.2,1.166a2.074,2.074,0,0,1-.784,1.978,7.14,7.14,0,0,1-1.364,1.123,2.985,2.985,0,0,0-.993,1.093,2.26,2.26,0,0,1-.907.967c-1.032.382-1.157,1.477-.193,1.689a1.134,1.134,0,0,1,.726.406.665.665,0,0,0,1.015.275c.371-.308.469-.185.614.761a2.73,2.73,0,0,0,.4,1.11,1.2,1.2,0,0,1,.226.806c-.044.391.081.526.656.715a1.751,1.751,0,0,1,1.214,1.452c0,.16-.288.254-.784.254a1.545,1.545,0,0,0-1.039.3.894.894,0,0,1-.59.3,3.545,3.545,0,0,0-1.271.964,2.974,2.974,0,0,0-1.063,1.88,3.253,3.253,0,0,1-1.023,1.9c-1.034,1.142-1.53,1.156-1.53.044,0-.866-.172-1.342-.485-1.342a6.274,6.274,0,0,0-1.4,1.419c-1.016,1.243-1.159,1.528-1.159,2.3,0,1.407-.657,2.819-.888,1.908Zm4.286-10.058a2.693,2.693,0,0,0,.254-1.279c0-.766-.092-1.029-.451-1.28-.569-.4-.858-.4-1.259,0-.773.773-.095,2.126.906,1.809.493-.156.546.337.077.726-.252.209-.4.214-.707.025-.505-.316-.606-.3-.47.051.215.561,1.179.528,1.65-.056Zm-2.789-1.116a5.738,5.738,0,0,0-.137-1.625c-.151-.151-1.08.644-1.08.923,0,.1.183.077.406-.042.385-.206.406-.154.406,1.007,0,.681.09,1.224.2,1.224S398.433,139.909,398.433,139.052Z" transform="translate(-283.992 -102.631)" fill="#5751c8" stroke="#eaecff" stroke-width="0.5" opacity="0"/><path d="M386.451,114.093a4.858,4.858,0,0,0,.176-1.065c.022-.5-.09-.663-.628-.913-.655-.3-.843-.677-.461-.913.342-.212.227-.724-.3-1.356a2.17,2.17,0,0,1-.507-.888c0-.471,1.1-1.551,1.821-1.791,1.084-.361,1.243-.852.575-1.782-.205-.285-.116-.486.557-1.249a4,4,0,0,1,1.016-.928,2.719,2.719,0,0,0,.811-.851,10.279,10.279,0,0,1,1.053-1.254,1.388,1.388,0,0,0,.456-.681,2.674,2.674,0,0,1,1.334-1.29,3.593,3.593,0,0,0,1.016-1.007,4.591,4.591,0,0,1,1.156-1.132,10.049,10.049,0,0,0,1.623-1.192,16.451,16.451,0,0,1,1.672-1.285.717.717,0,0,1,1.11.557.662.662,0,0,0,.2.51,3.279,3.279,0,0,1,.168,1.5,5.735,5.735,0,0,0,.1,1.593c.3.485,3.428.875,3.685.459a1,1,0,0,1,.7-.2c.462,0,.62.125.795.626.192.552.286.611.792.5.572-.126.574-.122.6.946a5.208,5.208,0,0,1-1.345,3.474c-1.052,1.146-4.778,2.454-5.655,1.985-.672-.36-.836-.28-1.21.584-.268.618-.466.811-.83.811a.549.549,0,0,0-.575.371c-.154.59-1.146,1.049-2.266,1.049-.971,0-1.657.342-1.657.826,0,.1-.173.188-.384.188-.243,0-.432.191-.515.522-.115.456-.206.505-.732.39-.376-.083-.6-.05-.6.087,0,.12-.223.219-.5.219-.576,0-.834.326-.754.949.048.373-.08.47-.818.62-.828.168-.872.213-.823.826.046.577-.007.648-.48.648S386.322,114.488,386.451,114.093Zm6.593-9.8v-1.74l-.6.472c-.7.555-.859,1.121-.214.776.385-.206.406-.154.406,1.007,0,.681.09,1.224.2,1.224S393.044,105.314,393.044,104.289Zm3.074,1.245a1.2,1.2,0,0,0,.063-.862,3.606,3.606,0,0,1-.179-1.078c-.016-.69-.039-.71-.828-.71s-.811.011-.811.743a1.911,1.911,0,0,1-.152.9,1.154,1.154,0,0,0,.091,1.261,1.579,1.579,0,0,0,.917.243C395.736,106.029,395.945,105.914,396.118,105.535Z" transform="translate(-282.457 -79.48)" fill="#5751c8" stroke="#eaecff" stroke-width="0.5" opacity="0"/><path d="M464.819,92.945c-.421-1.1.175-2.631.817-2.1.2.167.273.564.232,1.275-.051.875-.126,1.042-.491,1.094A.5.5,0,0,1,464.819,92.945Z" transform="translate(-339.703 -76.849)" fill="#5751c8" stroke="#eaecff" stroke-width="0.5" opacity="0"/><path d="M34.191,171.407a1.277,1.277,0,0,1-.111-.709.429.429,0,0,0-.311-.534c-.276-.071-.247-.1.117-.119a1.565,1.565,0,0,0,1.341-1.65c-.068-.312-.031-.625.084-.7.216-.134.092-1.175-.21-1.768a1.445,1.445,0,0,1,.13-1.058,2.68,2.68,0,0,0,.061-2.314c-.186-.186-.139-.349.2-.713.487-.518.574-1.148.209-1.513-.623-.623,1.1-1.172,2.062-.657.254.136.422.136.506,0a5.694,5.694,0,0,1,2-.2c1.6,0,1.942-.061,2.312-.406a1.474,1.474,0,0,1,.708-.406c.479,0,.759-.465.759-1.263,0-.633.09-.81.487-.961a1.511,1.511,0,0,0,.633-.42c.1-.154.446-.19,1.023-.1.725.109.951.059,1.295-.285a1.492,1.492,0,0,1,.595-.417.814.814,0,0,0,.431-.3,1.148,1.148,0,0,1,.786-.3,4.99,4.99,0,0,1,2.574,1.578,3.134,3.134,0,0,0,1.2.764l.911.348-.556.634a6.2,6.2,0,0,0-.937,1.85c-.209.669-.465,1.438-.569,1.708-.146.382-.095.619.229,1.057a2.118,2.118,0,0,1,.418.979c0,.233.133.414.3.414.213,0,.3.214.3.71,0,.391-.1.71-.217.71s-.162-.173-.087-.407c.171-.537-.311-.716-1.147-.424-.53.185-.71.166-1.009-.105a.754.754,0,0,0-.711-.2.412.412,0,0,1-.479-.081c-.085-.138-.414-.156-.928-.049-.824.171-1.073.561-.784,1.224a2.941,2.941,0,0,1,.259,1.031c.024.217.265.254,1.045.162.912-.108,1.014-.08,1.014.276,0,.218-.09.4-.2.4-.291,0-.488.977-.257,1.271a3.332,3.332,0,0,1,.329,1.113l.132.862H49.15a1.773,1.773,0,0,1-1.244-.3c-.394-.475-.9-.361-1.4.317-.337.456-.526.565-.712.411a.3.3,0,0,0-.467,0c-.291.291-1.392.147-1.328-.173l.1-.5c.059-.293-1.125-.228-1.234.068-.037.1-.334.184-.659.184s-.592.072-.592.159c0,.243-1.193.894-1.4.765-.1-.062-.136-.3-.077-.519.089-.339.006-.406-.5-.406a1.273,1.273,0,0,1-.86-.3.843.843,0,0,0-.532-.3.294.294,0,0,0-.279.3c0,.2-.2.3-.547.3a2.836,2.836,0,0,0-1.268.494c-.934.641-1.74.84-1.96.486Zm10.064-5.037c0-.112-.386-.2-.858-.2h-.858l.744-.613c.862-.71,1.084-1.232.772-1.813-.424-.792-2.033-.407-2.033.486,0,.246.475.1.709-.222a.5.5,0,0,1,.914.222,3,3,0,0,1-.811,1.106,3.477,3.477,0,0,0-.811,1.022c0,.13.453.219,1.116.219.614,0,1.116-.091,1.116-.2Z" transform="translate(-31.039 -122.578)" fill="#5751c8" stroke="#eaecff" stroke-width="0.5" opacity="0"/><path d="M313.494,215.409a.839.839,0,0,1-.245-.454,1.985,1.985,0,0,0-.4-.72,1.926,1.926,0,0,1-.4-.936,2,2,0,0,0-.425-.964c-.5-.632-.445-1.21.119-1.314.6-.111,2.129-1.425,2.121-1.82a1.555,1.555,0,0,0-.3-.735,1.53,1.53,0,0,1-.3-.759,22.213,22.213,0,0,0-1.425-3.919c-1.019-2.291-1.047-2.333-1.541-2.333-.422,0-.478-.085-.433-.659.042-.533-.029-.671-.37-.72a2.83,2.83,0,0,1-1.076-.658,3.482,3.482,0,0,0-1.2-.728c-.832-.2-1.079-.46-.846-.894.3-.554.24-1.15-.122-1.289a7.369,7.369,0,0,0-1.582-.123c-1.856,0-2.212-.555-1.151-1.795.43-.5.686-.646.987-.55s.516-.025.831-.468a1.416,1.416,0,0,0,.089-1.887c-.321-.354-.294-.371.6-.371a2.012,2.012,0,0,0,1.041-.175,1.8,1.8,0,0,1,.876-.278,2.79,2.79,0,0,0,1.443-.734c.593-.554.653-.7.487-1.192-.132-.394-.334-.568-.677-.583-1.034-.047-1.088-.087-.516-.385a3.263,3.263,0,0,1,1.27-.3,1.347,1.347,0,0,0,1.036-.406c.428-.5.83-.526.793-.051-.024.3.182.364,1.341.415,1.355.059,1.6-.054,1.126-.527-.189-.189-.153-.243.162-.243a.981.981,0,0,0,.6-.193,8.4,8.4,0,0,1,2.12-.422,4.7,4.7,0,0,0,2.3-.6c.315-.306.5-.334,1.109-.165.521.144.753.137.807-.025a1.133,1.133,0,0,1,.484-.445c.337-.18.508-.124.976.325.492.471.627.511,1.02.3a3.217,3.217,0,0,1,2.7.039c.379.379.45.775.138.775-.336,0-.228.927.168,1.443a5.934,5.934,0,0,1,.839,2.63c-.12.849.472,1.163.72.381.15-.472.766-.39,1.356.182.512.5.528,2.189.03,3.292a7.129,7.129,0,0,0-.973,3.534c0,.789-.1,1.294-.286,1.435a1.3,1.3,0,0,0-.341.77,1.913,1.913,0,0,1-.311.854c-.2.236-.2.476-.007,1.112.231.77.214.84-.33,1.384a2.6,2.6,0,0,1-1.543.718c-.534.08-1.017.268-1.074.417a4.353,4.353,0,0,0,.421,1.955c.1.247-.015.357-.476.45a1.3,1.3,0,0,0-.907.694,2.418,2.418,0,0,1-1.6,1.141.576.576,0,0,0-.355.526c0,.231-.134.412-.3.412s-.3.18-.3.406a1.362,1.362,0,0,1-.312.761c-.171.2-.545.652-.829,1.014a1.34,1.34,0,0,1-1.113.659.694.694,0,0,0-.788.507c-.106.279-.264.508-.35.509a4.11,4.11,0,0,0-.945.761,1.771,1.771,0,0,1-1.89.689c-.8-.051-1.2.019-1.456.251C313.816,215.576,313.68,215.594,313.494,215.409Zm5.034-16.388a5.586,5.586,0,0,0-.121-1.623c-.307,0-1.29.865-1.182,1.04.076.123.23.108.408-.04.241-.2.286-.042.286,1,0,.969.067,1.242.3,1.242s.3-.316.3-1.623Zm3.043,1.42c0-.112-.338-.2-.751-.2h-.751l.751-.769c.789-.808.948-1.452.459-1.858a1.3,1.3,0,0,0-1.607.234c-.3.475.014.727.343.277.287-.392.964-.371,1.1.034.046.138-.334.681-.845,1.207a5.472,5.472,0,0,0-.929,1.118c0,.089.5.163,1.116.163s1.116-.091,1.116-.2Z" transform="translate(-224.17 -144.275)" fill="#5751c8" stroke="#eaecff" stroke-width="0.5" opacity="0"/><path d="M357.845,193.112a1.355,1.355,0,0,1,.1-.847,9.568,9.568,0,0,0,.351-4.14c-.175-.533-.155-.719.1-.978a1.28,1.28,0,0,0,.32-.788,1.078,1.078,0,0,1,.323-.736c.255-.212.295-.491.189-1.34a1.983,1.983,0,0,1,.185-1.526,1.754,1.754,0,0,0,.318-.784,6.9,6.9,0,0,1,.8-2.026,4.156,4.156,0,0,0,.038-1.514c-.122-1.131-.178-1.231-1-1.782-.65-.436-.937-.528-1.135-.364s-.317.047-.5-.563a5.65,5.65,0,0,1-.235-1.083,1.2,1.2,0,0,0-.406-.667.852.852,0,0,1-.176-1.287c.181-.289.154-.484-.121-.9-.427-.652-1.268-.836-2.629-.575-.876.168-1.069.139-1.576-.236-.554-.41-.6-.413-1.163-.082-.671.4-1.256.443-1.574.126-.158-.158-.363-.065-.728.329-.28.3-.633.5-.784.45a.866.866,0,0,0-.58.051,9.3,9.3,0,0,1-1.775.289l-1.471.14v-.791a1.6,1.6,0,0,1,.659-1.406c.363-.338,1.015-1.01,1.451-1.493a2.4,2.4,0,0,1,1.826-1.026c2.135-.3,2.346-.246,3.324.929.335.4,2.87.455,2.906.06a2.394,2.394,0,0,0-.342-1.511c-.477-.744-.179-1.1.8-.94a2.364,2.364,0,0,1,1.044.366,6.167,6.167,0,0,0,2.3,1.451,5.172,5.172,0,0,0,3.68-1.571c.878-.9,1.234-.924.834-.045-.224.492-.191.59.373,1.105a1.58,1.58,0,0,1,.619,1.15,1.535,1.535,0,0,0,.507,1.061c.522.49.662,1.1.3,1.319-.419.259-.219,1.12.307,1.32.468.178.5.266.379,1.06a5.1,5.1,0,0,1-.295,1.17c-.112.209,0,.433.348.714.465.373.488.461.257.969-.195.428-.2.615-.017.8a1.534,1.534,0,0,1,.238.892c0,.456.108.68.355.738.279.066.247.115-.152.232-.482.141-1.562,1.56-2.536,3.334a3.89,3.89,0,0,1-.784,1.022c-.334.249-.363.465-.249,1.827.112,1.337.075,1.633-.281,2.208-.5.811-.564,2.506-.106,2.886.387.321.391.609.007.609-.163,0-.4.205-.532.456-.665,1.294-1.939,1.969-2.554,1.354-.156-.156-.345-.04-.663.406-.525.737-.734.781-.89.186Zm2.663-19.032a4.707,4.707,0,0,0-.113-1.659c-.1-.1-.44.113-.77.466-.556.6-.566.631-.141.527s.456-.054.456,1.1c0,.882.07,1.192.254,1.131C360.359,175.595,360.469,175.043,360.508,174.08Zm1.972.96a6.41,6.41,0,0,1,.625-1.507,6.015,6.015,0,0,0,.487-.964,2.858,2.858,0,0,0-1.128-.116c-.7,0-1.08.077-1,.2a1.2,1.2,0,0,0,.8.2h.67l-.48.947c-.488.963-.631,1.893-.293,1.893.1,0,.249-.3.324-.659Z" transform="translate(-253.817 -130.488)" fill="#5751c8" stroke="#eaecff" stroke-width="0.5" opacity="0"/><path d="M396.936,150.226c-.035-.139-.166-.562-.291-.94a1.32,1.32,0,0,1-.016-1.079c.158-.3.125-.522-.133-.916a2.108,2.108,0,0,1-.217-1.595c.117-.994.086-1.1-.423-1.5-.471-.37-.514-.488-.3-.823a1.37,1.37,0,0,0-.263-1.817,1.577,1.577,0,0,1-.507-1.02,1.985,1.985,0,0,0-.536-1.122c-.475-.513-.51-.646-.311-1.175.461-1.222-.311-1.276-1.586-.111-1.006.919-2.812,1.7-3.454,1.5a6.271,6.271,0,0,1-2.025-1.332c0-.235.536-.372.991-.253a2.247,2.247,0,0,0,.932-.018c.4-.1.51-.256.51-.73,0-.546.076-.614.811-.732.539-.086.822-.24.842-.459.017-.181.042-.42.056-.532.063-.508.407-.71,1.209-.71.717,0,.914-.088,1.138-.507.149-.279.36-.507.467-.507a1.7,1.7,0,0,0,.666-.507,1.552,1.552,0,0,1,1.381-.507c.993,0,2.354-.656,2.354-1.136,0-.16.2-.284.461-.284.318,0,.579-.219.842-.708.353-.655.436-.7,1.117-.59,1.422.227,5.319-1.258,6.071-2.313a2.476,2.476,0,0,0,.435-.833.214.214,0,0,1,.2-.222c.112,0,.2.521.2,1.166a2.074,2.074,0,0,1-.784,1.978,7.14,7.14,0,0,1-1.364,1.123,2.985,2.985,0,0,0-.993,1.093,2.26,2.26,0,0,1-.907.967c-1.032.382-1.157,1.477-.193,1.689a1.134,1.134,0,0,1,.726.406.665.665,0,0,0,1.015.275c.371-.308.469-.185.614.761a2.73,2.73,0,0,0,.4,1.11,1.2,1.2,0,0,1,.226.806c-.044.391.081.526.656.715a1.751,1.751,0,0,1,1.214,1.452c0,.16-.288.254-.784.254a1.545,1.545,0,0,0-1.039.3.894.894,0,0,1-.59.3,3.545,3.545,0,0,0-1.271.964,2.974,2.974,0,0,0-1.063,1.88,3.253,3.253,0,0,1-1.023,1.9c-1.034,1.142-1.53,1.156-1.53.044,0-.866-.172-1.342-.485-1.342a6.274,6.274,0,0,0-1.4,1.419c-1.016,1.243-1.159,1.528-1.159,2.3,0,1.407-.657,2.819-.888,1.908Zm4.286-10.058a2.693,2.693,0,0,0,.254-1.279c0-.766-.092-1.029-.451-1.28-.569-.4-.858-.4-1.259,0-.773.773-.095,2.126.906,1.809.493-.156.546.337.077.726-.252.209-.4.214-.707.025-.505-.316-.606-.3-.47.051.215.561,1.179.528,1.65-.056Zm-2.789-1.116a5.738,5.738,0,0,0-.137-1.625c-.151-.151-1.08.644-1.08.923,0,.1.183.077.406-.042.385-.206.406-.154.406,1.007,0,.681.09,1.224.2,1.224S398.433,139.909,398.433,139.052Z" transform="translate(-283.992 -102.631)" fill="#5751c8" stroke="#eaecff" stroke-width="0.5" opacity="0"/><path d="M466.864,90.815a.839.839,0,0,0-.73-.406c-.491,0-.507-.038-.378-.9.168-1.118-.05-2.486-.417-2.627a2.762,2.762,0,0,0-1.015.013c-.529.086-.79.256-.921.6a1.144,1.144,0,0,1-.5.6,2.332,2.332,0,0,0-.724.921c-.639,1.253-.888.9-.931-1.308-.037-1.88-.021-1.958.478-2.284.284-.186,1.459-1.255,2.611-2.375,1.746-1.7,2.117-2.167,2.227-2.816.106-.629.322-.919,1.12-1.5a7.924,7.924,0,0,0,1.379-1.262c.376-.517.422-.527,1.192-.273.744.246.877.225,1.886-.286a8,8,0,0,0,1.349-.814c.184-.184.624-.231,1.454-.156a2.59,2.59,0,0,0,1.678-.2,4.648,4.648,0,0,1,1-.454,3.284,3.284,0,0,0,1.065-.668l.558-.522v.5a1.909,1.909,0,0,0,.3.929c.268.383.265.459-.031.7a3.458,3.458,0,0,0-.878,2.075,3.033,3.033,0,0,1-.72,1.356,2.014,2.014,0,0,0-.659,1.895c.057.972.109,1.061.872,1.486,1.491.831,1.622.858,2.729.566a5.1,5.1,0,0,0,1.307-.492c.359-.3.528-.07.528.715a1.163,1.163,0,0,0,.222.8c.142.088.173.463.088,1.035a2.619,2.619,0,0,0,.306,1.809c.556,1.148.338,1.809-.813,2.469-1.053.6-1.3.588-1.134-.072a1.177,1.177,0,0,0-1.1-1.5,1.032,1.032,0,0,1-.717-.2c-.349-.564-1.456-.116-2.855,1.156a3.01,3.01,0,0,1-1.709.584c-.67.076-1.218.217-1.218.314s-.188.177-.419.177c-.318,0-.4-.11-.355-.456.059-.424,0-.452-.882-.4s-.952.026-1.06-.507a3.807,3.807,0,0,1-.069-.964.4.4,0,0,0-.33-.475c-.5-.1-2.43,1.889-2.786,2.873-.3.822-.669.946-1,.333Zm4.26-4.666c0-.112-.319-.2-.71-.2a1.633,1.633,0,0,1-.71-.081,5.489,5.489,0,0,1,.71-.791,2.381,2.381,0,0,0,.71-1.122,1.146,1.146,0,0,0-.941-1.049c-.488,0-1.088.4-1.088.717,0,.386.186.376.64-.035.3-.271.424-.285.675-.077.459.381.394.544-.6,1.514a4.042,4.042,0,0,0-.913,1.108c0,.133.446.221,1.116.221C470.622,86.353,471.124,86.261,471.124,86.15Zm2.029-1.408a4.964,4.964,0,0,0-.172-1.717c-.095-.058-.437.177-.761.524-.552.59-.56.623-.133.519s.456-.048.456.952a3.37,3.37,0,0,0,.135,1.2C473.038,86.577,473.152,86.222,473.152,84.742Z" transform="translate(-337.237 -64.94)" fill="#5751c8" stroke="#eaecff" stroke-width="0.5" opacity="0"/><path d="M466.864,90.815a.839.839,0,0,0-.73-.406c-.491,0-.507-.038-.378-.9.168-1.118-.05-2.486-.417-2.627a2.762,2.762,0,0,0-1.015.013c-.529.086-.79.256-.921.6a1.144,1.144,0,0,1-.5.6,2.332,2.332,0,0,0-.724.921c-.639,1.253-.888.9-.931-1.308-.037-1.88-.021-1.958.478-2.284.284-.186,1.459-1.255,2.611-2.375,1.746-1.7,2.117-2.167,2.227-2.816.106-.629.322-.919,1.12-1.5a7.924,7.924,0,0,0,1.379-1.262c.376-.517.422-.527,1.192-.273.744.246.877.225,1.886-.286a8,8,0,0,0,1.349-.814c.184-.184.624-.231,1.454-.156a2.59,2.59,0,0,0,1.678-.2,4.648,4.648,0,0,1,1-.454,3.284,3.284,0,0,0,1.065-.668l.558-.522v.5a1.909,1.909,0,0,0,.3.929c.268.383.265.459-.031.7a3.458,3.458,0,0,0-.878,2.075,3.033,3.033,0,0,1-.72,1.356,2.014,2.014,0,0,0-.659,1.895c.057.972.109,1.061.872,1.486,1.491.831,1.622.858,2.729.566a5.1,5.1,0,0,0,1.307-.492c.359-.3.528-.07.528.715a1.163,1.163,0,0,0,.222.8c.142.088.173.463.088,1.035a2.619,2.619,0,0,0,.306,1.809c.556,1.148.338,1.809-.813,2.469-1.053.6-1.3.588-1.134-.072a1.177,1.177,0,0,0-1.1-1.5,1.032,1.032,0,0,1-.717-.2c-.349-.564-1.456-.116-2.855,1.156a3.01,3.01,0,0,1-1.709.584c-.67.076-1.218.217-1.218.314s-.188.177-.419.177c-.318,0-.4-.11-.355-.456.059-.424,0-.452-.882-.4s-.952.026-1.06-.507a3.807,3.807,0,0,1-.069-.964.4.4,0,0,0-.33-.475c-.5-.1-2.43,1.889-2.786,2.873-.3.822-.669.946-1,.333Zm4.26-4.666c0-.112-.319-.2-.71-.2a1.633,1.633,0,0,1-.71-.081,5.489,5.489,0,0,1,.71-.791,2.381,2.381,0,0,0,.71-1.122,1.146,1.146,0,0,0-.941-1.049c-.488,0-1.088.4-1.088.717,0,.386.186.376.64-.035.3-.271.424-.285.675-.077.459.381.394.544-.6,1.514a4.042,4.042,0,0,0-.913,1.108c0,.133.446.221,1.116.221C470.622,86.353,471.124,86.261,471.124,86.15Zm2.029-1.408a4.964,4.964,0,0,0-.172-1.717c-.095-.058-.437.177-.761.524-.552.59-.56.623-.133.519s.456-.048.456.952a3.37,3.37,0,0,0,.135,1.2C473.038,86.577,473.152,86.222,473.152,84.742Z" transform="translate(-337.237 -64.94)" fill="#5751c8" stroke="#eaecff" stroke-width="0.5" opacity="0"/><path d="M449.235,134.768a1.4,1.4,0,0,0-1-.719c-.564-.106-.664-.211-.664-.7a1.209,1.209,0,0,0-.294-.818,2.166,2.166,0,0,1-.355-1.191c-.053-.813-.128-.957-.529-1.014a1.13,1.13,0,0,0-.771.186c-.251.209-.323.176-.418-.187-.084-.322-.271-.439-.7-.439-.8,0-.771-.565.042-.848a1.684,1.684,0,0,0,1.008-1.108,1.922,1.922,0,0,1,.9-1.087,6.662,6.662,0,0,0,1.527-1.2c.767-.767,1.007-1.154,1.007-1.625,0-.411.1-.618.3-.618.165,0,.492-.376.726-.835a2.032,2.032,0,0,1,.818-.937.829.829,0,0,0,.508-.565c.082-.328.3-.491.758-.56a1.622,1.622,0,0,1,.744,0,8.462,8.462,0,0,1,.1,1.751c0,1.656,0,1.656.558,1.72a1.107,1.107,0,0,1,.774.469c.385.719,1.007.383,1.711-.923.6-1.117,1.521-2.146,1.915-2.146.093,0,.227.31.3.69.161.859.538,1.184,1.273,1.1.408-.047.629.05.778.34a1.018,1.018,0,0,0,1.375.343,4.137,4.137,0,0,1,1.318-.34c.727-.1,1.154-.27,1.317-.53a.778.778,0,0,1,.48-.385,2.261,2.261,0,0,0,.843-.507c.632-.532,1.144-.647,1.356-.3a1.027,1.027,0,0,0,.715.2c.794,0,1.056.518.7,1.375a1.6,1.6,0,0,1-.641.795,3.565,3.565,0,0,0-1.689,1.4c-.143.372-.293.417-1.144.342-.956-.084-1.007-.059-2.137,1.043a5.319,5.319,0,0,1-1.438,1.128,2.3,2.3,0,0,0-.927.71c-.77.846-1.394.907-2.056.2a1.558,1.558,0,0,0-.84-.507,3.386,3.386,0,0,0-1.931,1.8,3.769,3.769,0,0,1-.6,1.144c-.261.335-.635.827-.831,1.093-.516.7-1.3,1.442-1.522,1.442a8.183,8.183,0,0,0-2.213,1.05c-.7.482-.739.475-1.14-.225Zm2.592-4.882c0-.112-.338-.2-.751-.2h-.751l.751-.769c1.105-1.132.906-2.188-.383-2.035-.579.069-1.094.644-.822.916.088.088.249,0,.358-.193.244-.435.959-.464,1.12-.044.074.194-.23.681-.818,1.31a7.837,7.837,0,0,0-.936,1.111,2.938,2.938,0,0,0,1.116.11C451.324,130.088,451.826,130,451.826,129.885Zm2.637,0c0-.112-.386-.2-.858-.2h-.858l.744-.613c.862-.71,1.084-1.232.772-1.813a1.2,1.2,0,0,0-1.823-.021c-.28.524-.266.622.094.622a.305.305,0,0,0,.3-.3c0-.189.192-.3.507-.3.8,0,.656.768-.3,1.646a3.064,3.064,0,0,0-.811.968c0,.139.43.226,1.116.226.614,0,1.116-.091,1.116-.2Z" transform="translate(-324.837 -98.127)" fill="#5751c8" stroke="#eaecff" stroke-width="0.5" opacity="0"/><path d="M449.235,134.768a1.4,1.4,0,0,0-1-.719c-.564-.106-.664-.211-.664-.7a1.209,1.209,0,0,0-.294-.818,2.166,2.166,0,0,1-.355-1.191c-.053-.813-.128-.957-.529-1.014a1.13,1.13,0,0,0-.771.186c-.251.209-.323.176-.418-.187-.084-.322-.271-.439-.7-.439-.8,0-.771-.565.042-.848a1.684,1.684,0,0,0,1.008-1.108,1.922,1.922,0,0,1,.9-1.087,6.662,6.662,0,0,0,1.527-1.2c.767-.767,1.007-1.154,1.007-1.625,0-.411.1-.618.3-.618.165,0,.492-.376.726-.835a2.032,2.032,0,0,1,.818-.937.829.829,0,0,0,.508-.565c.082-.328.3-.491.758-.56a1.622,1.622,0,0,1,.744,0,8.462,8.462,0,0,1,.1,1.751c0,1.656,0,1.656.558,1.72a1.107,1.107,0,0,1,.774.469c.385.719,1.007.383,1.711-.923.6-1.117,1.521-2.146,1.915-2.146.093,0,.227.31.3.69.161.859.538,1.184,1.273,1.1.408-.047.629.05.778.34a1.018,1.018,0,0,0,1.375.343,4.137,4.137,0,0,1,1.318-.34c.727-.1,1.154-.27,1.317-.53a.778.778,0,0,1,.48-.385,2.261,2.261,0,0,0,.843-.507c.632-.532,1.144-.647,1.356-.3a1.027,1.027,0,0,0,.715.2c.794,0,1.056.518.7,1.375a1.6,1.6,0,0,1-.641.795,3.565,3.565,0,0,0-1.689,1.4c-.143.372-.293.417-1.144.342-.956-.084-1.007-.059-2.137,1.043a5.319,5.319,0,0,1-1.438,1.128,2.3,2.3,0,0,0-.927.71c-.77.846-1.394.907-2.056.2a1.558,1.558,0,0,0-.84-.507,3.386,3.386,0,0,0-1.931,1.8,3.769,3.769,0,0,1-.6,1.144c-.261.335-.635.827-.831,1.093-.516.7-1.3,1.442-1.522,1.442a8.183,8.183,0,0,0-2.213,1.05c-.7.482-.739.475-1.14-.225Zm2.592-4.882c0-.112-.338-.2-.751-.2h-.751l.751-.769c1.105-1.132.906-2.188-.383-2.035-.579.069-1.094.644-.822.916.088.088.249,0,.358-.193.244-.435.959-.464,1.12-.044.074.194-.23.681-.818,1.31a7.837,7.837,0,0,0-.936,1.111,2.938,2.938,0,0,0,1.116.11C451.324,130.088,451.826,130,451.826,129.885Zm2.637,0c0-.112-.386-.2-.858-.2h-.858l.744-.613c.862-.71,1.084-1.232.772-1.813a1.2,1.2,0,0,0-1.823-.021c-.28.524-.266.622.094.622a.305.305,0,0,0,.3-.3c0-.189.192-.3.507-.3.8,0,.656.768-.3,1.646a3.064,3.064,0,0,0-.811.968c0,.139.43.226,1.116.226.614,0,1.116-.091,1.116-.2Z" transform="translate(-324.837 -98.127)" fill="#5751c8" stroke="#eaecff" stroke-width="0.5" opacity="0"/><path d="M449.235,134.768a1.4,1.4,0,0,0-1-.719c-.564-.106-.664-.211-.664-.7a1.209,1.209,0,0,0-.294-.818,2.166,2.166,0,0,1-.355-1.191c-.053-.813-.128-.957-.529-1.014a1.13,1.13,0,0,0-.771.186c-.251.209-.323.176-.418-.187-.084-.322-.271-.439-.7-.439-.8,0-.771-.565.042-.848a1.684,1.684,0,0,0,1.008-1.108,1.922,1.922,0,0,1,.9-1.087,6.662,6.662,0,0,0,1.527-1.2c.767-.767,1.007-1.154,1.007-1.625,0-.411.1-.618.3-.618.165,0,.492-.376.726-.835a2.032,2.032,0,0,1,.818-.937.829.829,0,0,0,.508-.565c.082-.328.3-.491.758-.56a1.622,1.622,0,0,1,.744,0,8.462,8.462,0,0,1,.1,1.751c0,1.656,0,1.656.558,1.72a1.107,1.107,0,0,1,.774.469c.385.719,1.007.383,1.711-.923.6-1.117,1.521-2.146,1.915-2.146.093,0,.227.31.3.69.161.859.538,1.184,1.273,1.1.408-.047.629.05.778.34a1.018,1.018,0,0,0,1.375.343,4.137,4.137,0,0,1,1.318-.34c.727-.1,1.154-.27,1.317-.53a.778.778,0,0,1,.48-.385,2.261,2.261,0,0,0,.843-.507c.632-.532,1.144-.647,1.356-.3a1.027,1.027,0,0,0,.715.2c.794,0,1.056.518.7,1.375a1.6,1.6,0,0,1-.641.795,3.565,3.565,0,0,0-1.689,1.4c-.143.372-.293.417-1.144.342-.956-.084-1.007-.059-2.137,1.043a5.319,5.319,0,0,1-1.438,1.128,2.3,2.3,0,0,0-.927.71c-.77.846-1.394.907-2.056.2a1.558,1.558,0,0,0-.84-.507,3.386,3.386,0,0,0-1.931,1.8,3.769,3.769,0,0,1-.6,1.144c-.261.335-.635.827-.831,1.093-.516.7-1.3,1.442-1.522,1.442a8.183,8.183,0,0,0-2.213,1.05c-.7.482-.739.475-1.14-.225Zm2.592-4.882c0-.112-.338-.2-.751-.2h-.751l.751-.769c1.105-1.132.906-2.188-.383-2.035-.579.069-1.094.644-.822.916.088.088.249,0,.358-.193.244-.435.959-.464,1.12-.044.074.194-.23.681-.818,1.31a7.837,7.837,0,0,0-.936,1.111,2.938,2.938,0,0,0,1.116.11C451.324,130.088,451.826,130,451.826,129.885Zm2.637,0c0-.112-.386-.2-.858-.2h-.858l.744-.613c.862-.71,1.084-1.232.772-1.813a1.2,1.2,0,0,0-1.823-.021c-.28.524-.266.622.094.622a.305.305,0,0,0,.3-.3c0-.189.192-.3.507-.3.8,0,.656.768-.3,1.646a3.064,3.064,0,0,0-.811.968c0,.139.43.226,1.116.226.614,0,1.116-.091,1.116-.2Z" transform="translate(-324.837 -98.127)" fill="#5751c8" stroke="#eaecff" stroke-width="0.5" opacity="0"/><path d="M449.453,137.065a3.338,3.338,0,0,1-.67-.677.908.908,0,0,1-.072-.235.231.231,0,0,0-.082-.178,2.739,2.739,0,0,0-.548-.146,3.553,3.553,0,0,1-.924-.246c-.022-.027-.022-.064,0-.156a4.1,4.1,0,0,0,.046-.9c-.033-.149-.1-.231-.338-.384s-.327-.251-.3-.327a1.162,1.162,0,0,0,.029-.615,1.347,1.347,0,0,1,0-.654c.047-.188.034-.271-.057-.355a1.282,1.282,0,0,0-.849-.109.728.728,0,0,0-.358.275l-.087.124-.125-.085c-.207-.141-.24-.19-.266-.4-.033-.262-.066-.347-.159-.4s-.2-.061-.41-.006a.757.757,0,0,1-.4.01c-.323-.046-.35-.058-.35-.162a1.479,1.479,0,0,1,.324-.754.34.34,0,0,1,.231-.05,1.028,1.028,0,0,0,.818-.279,3.048,3.048,0,0,0,.235-.54,3.749,3.749,0,0,1,.493-.994,2.041,2.041,0,0,1,.853-.472c.434-.135.5-.187.664-.514a2.16,2.16,0,0,1,.839-.914c.508-.292.682-.5.652-.785-.006-.057-.023-.287-.037-.51s-.033-.483-.04-.578l-.014-.172.159.08a.466.466,0,0,0,.654-.119,9.111,9.111,0,0,0,.687-1.331c0-.054.135-.123.539-.275.241-.091.363-.195.39-.333l.015-.074.916.007.916.007.03.063c.023.05.022.1-.007.254a6.425,6.425,0,0,0-.058.672,2.56,2.56,0,0,1-.118.824,1.833,1.833,0,0,0-.1.549c0,.185.005.214.061.273.1.107.268.141.69.141h.375l.174.247c.1.136.225.32.286.41.16.232.218.268.424.268a.744.744,0,0,0,.578-.285.855.855,0,0,0,.277-.6.627.627,0,0,1,.216-.474,2.419,2.419,0,0,0,.421-.7,1.445,1.445,0,0,1,.133-.271,10.5,10.5,0,0,1,1.217-1.161,2.268,2.268,0,0,1,.6-.221,3.655,3.655,0,0,1-.043.367l-.052.358.091.426c.108.5.163.614.364.727a.9.9,0,0,0,.359.1,2.172,2.172,0,0,0,.954-.117,2.629,2.629,0,0,1,.312-.08.721.721,0,0,1-.031.161.622.622,0,0,0,.146.683c.144.127.3.159.745.159.38,0,.391,0,.452-.062a.209.209,0,0,0,.062-.175c0-.144.033-.153.384-.115a1.232,1.232,0,0,0,1.029-.2.231.231,0,0,1,.243-.076c.392.047.416.047.56,0a.639.639,0,0,0,.434-.422c.088-.231.23-.329.671-.464a1.924,1.924,0,0,0,.843-.581c.25-.254.285-.281.431-.325a1.123,1.123,0,0,1,.233-.048.834.834,0,0,1,.481.281c.184.172.317.251.42.251.051,0,.052.011.052,1.122v1.122l-.131.073a9.092,9.092,0,0,0-1.015.9c-.232.23-.242.248-.35.676a.428.428,0,0,1-.206.275c-.04.013-.088-.018-.21-.136-.228-.219-.256-.224-.926-.158-.3.029-.588.065-.639.078a.943.943,0,0,0-.418.4c-.132.2-.133.2-.473.355a.934.934,0,0,0-.5.512,3.218,3.218,0,0,1-.715.733,2.225,2.225,0,0,1-.383.11,2.245,2.245,0,0,0-.395.115,3.366,3.366,0,0,0-.763.782c-.127.215-.158.24-.523.417l-.275.134-.365-.007a1.371,1.371,0,0,1-.444-.045,3.841,3.841,0,0,1-.63-.722.7.7,0,0,0-.5-.3c-.307-.022-.532.119-1.055.663-.193.2-.427.43-.52.508a1.435,1.435,0,0,0-.491.944,2.48,2.48,0,0,1-.126.4,2.142,2.142,0,0,1-.257.246,1.063,1.063,0,0,0-.4.536,2.05,2.05,0,0,1-.625.828,1,1,0,0,0-.373.469c-.181.344-.238.412-.435.523-.077.044-.243.153-.369.243a1.458,1.458,0,0,1-.685.323,1.562,1.562,0,0,0-.717.325.669.669,0,0,1-.24.145,1.824,1.824,0,0,0-.527.2,3.854,3.854,0,0,1-.346.189,1.051,1.051,0,0,0-.383.279.941.941,0,0,1-.174.165.639.639,0,0,1-.124-.054Zm2.137-5.479.007-.2-.8-.007-.8-.007.108-.123c.06-.068.28-.274.491-.458.846-.743,1-.969.973-1.445a.76.76,0,0,0-.271-.58.909.909,0,0,0-.53-.248,1.09,1.09,0,0,0-1.081.392,1.049,1.049,0,0,0-.167.472c0,.062.011.07.118.084a1.832,1.832,0,0,0,.2.016c.079,0,.083-.005.1-.12a.577.577,0,0,1,.637-.514.541.541,0,0,1,.578.557c0,.3-.179.551-.737,1.027-.591.5-.744.668-.881.941a.822.822,0,0,0-.1.392c.009.015.432.021,1.085.017l1.07-.007Zm2.516.006v-.2l-.79-.007-.789-.007.111-.132a5.015,5.015,0,0,1,.428-.4c.844-.719,1.06-1.028,1.034-1.485a.964.964,0,0,0-1.2-.836.911.911,0,0,0-.741.492,1.186,1.186,0,0,0-.121.439,1.84,1.84,0,0,0,.216.025l.208.017v-.075a.615.615,0,0,1,.4-.539.987.987,0,0,1,.453,0,.607.607,0,0,1,.365.4c.075.351-.119.639-.856,1.269-.544.465-.763.737-.841,1.047-.053.212-.133.2,1.065.2h1.066Z" transform="translate(-324.562 -99.819)" fill="#5751c8" stroke="#eaecff" stroke-width="0.5" opacity="0"/><path d="M449.453,137.065a3.338,3.338,0,0,1-.67-.677.908.908,0,0,1-.072-.235.231.231,0,0,0-.082-.178,2.739,2.739,0,0,0-.548-.146,3.553,3.553,0,0,1-.924-.246c-.022-.027-.022-.064,0-.156a4.1,4.1,0,0,0,.046-.9c-.033-.149-.1-.231-.338-.384s-.327-.251-.3-.327a1.162,1.162,0,0,0,.029-.615,1.347,1.347,0,0,1,0-.654c.047-.188.034-.271-.057-.355a1.282,1.282,0,0,0-.849-.109.728.728,0,0,0-.358.275l-.087.124-.125-.085c-.207-.141-.24-.19-.266-.4-.033-.262-.066-.347-.159-.4s-.2-.061-.41-.006a.757.757,0,0,1-.4.01c-.323-.046-.35-.058-.35-.162a1.479,1.479,0,0,1,.324-.754.34.34,0,0,1,.231-.05,1.028,1.028,0,0,0,.818-.279,3.048,3.048,0,0,0,.235-.54,3.749,3.749,0,0,1,.493-.994,2.041,2.041,0,0,1,.853-.472c.434-.135.5-.187.664-.514a2.16,2.16,0,0,1,.839-.914c.508-.292.682-.5.652-.785-.006-.057-.023-.287-.037-.51s-.033-.483-.04-.578l-.014-.172.159.08a.466.466,0,0,0,.654-.119,9.111,9.111,0,0,0,.687-1.331c0-.054.135-.123.539-.275.241-.091.363-.195.39-.333l.015-.074.916.007.916.007.03.063c.023.05.022.1-.007.254a6.425,6.425,0,0,0-.058.672,2.56,2.56,0,0,1-.118.824,1.833,1.833,0,0,0-.1.549c0,.185.005.214.061.273.1.107.268.141.69.141h.375l.174.247c.1.136.225.32.286.41.16.232.218.268.424.268a.744.744,0,0,0,.578-.285.855.855,0,0,0,.277-.6.627.627,0,0,1,.216-.474,2.419,2.419,0,0,0,.421-.7,1.445,1.445,0,0,1,.133-.271,10.5,10.5,0,0,1,1.217-1.161,2.268,2.268,0,0,1,.6-.221,3.655,3.655,0,0,1-.043.367l-.052.358.091.426c.108.5.163.614.364.727a.9.9,0,0,0,.359.1,2.172,2.172,0,0,0,.954-.117,2.629,2.629,0,0,1,.312-.08.721.721,0,0,1-.031.161.622.622,0,0,0,.146.683c.144.127.3.159.745.159.38,0,.391,0,.452-.062a.209.209,0,0,0,.062-.175c0-.144.033-.153.384-.115a1.232,1.232,0,0,0,1.029-.2.231.231,0,0,1,.243-.076c.392.047.416.047.56,0a.639.639,0,0,0,.434-.422c.088-.231.23-.329.671-.464a1.924,1.924,0,0,0,.843-.581c.25-.254.285-.281.431-.325a1.123,1.123,0,0,1,.233-.048.834.834,0,0,1,.481.281c.184.172.317.251.42.251.051,0,.052.011.052,1.122v1.122l-.131.073a9.092,9.092,0,0,0-1.015.9c-.232.23-.242.248-.35.676a.428.428,0,0,1-.206.275c-.04.013-.088-.018-.21-.136-.228-.219-.256-.224-.926-.158-.3.029-.588.065-.639.078a.943.943,0,0,0-.418.4c-.132.2-.133.2-.473.355a.934.934,0,0,0-.5.512,3.218,3.218,0,0,1-.715.733,2.225,2.225,0,0,1-.383.11,2.245,2.245,0,0,0-.395.115,3.366,3.366,0,0,0-.763.782c-.127.215-.158.24-.523.417l-.275.134-.365-.007a1.371,1.371,0,0,1-.444-.045,3.841,3.841,0,0,1-.63-.722.7.7,0,0,0-.5-.3c-.307-.022-.532.119-1.055.663-.193.2-.427.43-.52.508a1.435,1.435,0,0,0-.491.944,2.48,2.48,0,0,1-.126.4,2.142,2.142,0,0,1-.257.246,1.063,1.063,0,0,0-.4.536,2.05,2.05,0,0,1-.625.828,1,1,0,0,0-.373.469c-.181.344-.238.412-.435.523-.077.044-.243.153-.369.243a1.458,1.458,0,0,1-.685.323,1.562,1.562,0,0,0-.717.325.669.669,0,0,1-.24.145,1.824,1.824,0,0,0-.527.2,3.854,3.854,0,0,1-.346.189,1.051,1.051,0,0,0-.383.279.941.941,0,0,1-.174.165.639.639,0,0,1-.124-.054Zm2.137-5.479.007-.2-.8-.007-.8-.007.108-.123c.06-.068.28-.274.491-.458.846-.743,1-.969.973-1.445a.76.76,0,0,0-.271-.58.909.909,0,0,0-.53-.248,1.09,1.09,0,0,0-1.081.392,1.049,1.049,0,0,0-.167.472c0,.062.011.07.118.084a1.832,1.832,0,0,0,.2.016c.079,0,.083-.005.1-.12a.577.577,0,0,1,.637-.514.541.541,0,0,1,.578.557c0,.3-.179.551-.737,1.027-.591.5-.744.668-.881.941a.822.822,0,0,0-.1.392c.009.015.432.021,1.085.017l1.07-.007Zm2.516.006v-.2l-.79-.007-.789-.007.111-.132a5.015,5.015,0,0,1,.428-.4c.844-.719,1.06-1.028,1.034-1.485a.964.964,0,0,0-1.2-.836.911.911,0,0,0-.741.492,1.186,1.186,0,0,0-.121.439,1.84,1.84,0,0,0,.216.025l.208.017v-.075a.615.615,0,0,1,.4-.539.987.987,0,0,1,.453,0,.607.607,0,0,1,.365.4c.075.351-.119.639-.856,1.269-.544.465-.763.737-.841,1.047-.053.212-.133.2,1.065.2h1.066Z" transform="translate(-324.562 -99.819)" fill="#5751c8" stroke="#eaecff" stroke-width="0.5" opacity="0"/><path d="M449.453,137.065a3.338,3.338,0,0,1-.67-.677.908.908,0,0,1-.072-.235.231.231,0,0,0-.082-.178,2.739,2.739,0,0,0-.548-.146,3.553,3.553,0,0,1-.924-.246c-.022-.027-.022-.064,0-.156a4.1,4.1,0,0,0,.046-.9c-.033-.149-.1-.231-.338-.384s-.327-.251-.3-.327a1.162,1.162,0,0,0,.029-.615,1.347,1.347,0,0,1,0-.654c.047-.188.034-.271-.057-.355a1.282,1.282,0,0,0-.849-.109.728.728,0,0,0-.358.275l-.087.124-.125-.085c-.207-.141-.24-.19-.266-.4-.033-.262-.066-.347-.159-.4s-.2-.061-.41-.006a.757.757,0,0,1-.4.01c-.323-.046-.35-.058-.35-.162a1.479,1.479,0,0,1,.324-.754.34.34,0,0,1,.231-.05,1.028,1.028,0,0,0,.818-.279,3.048,3.048,0,0,0,.235-.54,3.749,3.749,0,0,1,.493-.994,2.041,2.041,0,0,1,.853-.472c.434-.135.5-.187.664-.514a2.16,2.16,0,0,1,.839-.914c.508-.292.682-.5.652-.785-.006-.057-.023-.287-.037-.51s-.033-.483-.04-.578l-.014-.172.159.08a.466.466,0,0,0,.654-.119,9.111,9.111,0,0,0,.687-1.331c0-.054.135-.123.539-.275.241-.091.363-.195.39-.333l.015-.074.916.007.916.007.03.063c.023.05.022.1-.007.254a6.425,6.425,0,0,0-.058.672,2.56,2.56,0,0,1-.118.824,1.833,1.833,0,0,0-.1.549c0,.185.005.214.061.273.1.107.268.141.69.141h.375l.174.247c.1.136.225.32.286.41.16.232.218.268.424.268a.744.744,0,0,0,.578-.285.855.855,0,0,0,.277-.6.627.627,0,0,1,.216-.474,2.419,2.419,0,0,0,.421-.7,1.445,1.445,0,0,1,.133-.271,10.5,10.5,0,0,1,1.217-1.161,2.268,2.268,0,0,1,.6-.221,3.655,3.655,0,0,1-.043.367l-.052.358.091.426c.108.5.163.614.364.727a.9.9,0,0,0,.359.1,2.172,2.172,0,0,0,.954-.117,2.629,2.629,0,0,1,.312-.08.721.721,0,0,1-.031.161.622.622,0,0,0,.146.683c.144.127.3.159.745.159.38,0,.391,0,.452-.062a.209.209,0,0,0,.062-.175c0-.144.033-.153.384-.115a1.232,1.232,0,0,0,1.029-.2.231.231,0,0,1,.243-.076c.392.047.416.047.56,0a.639.639,0,0,0,.434-.422c.088-.231.23-.329.671-.464a1.924,1.924,0,0,0,.843-.581c.25-.254.285-.281.431-.325a1.123,1.123,0,0,1,.233-.048.834.834,0,0,1,.481.281c.184.172.317.251.42.251.051,0,.052.011.052,1.122v1.122l-.131.073a9.092,9.092,0,0,0-1.015.9c-.232.23-.242.248-.35.676a.428.428,0,0,1-.206.275c-.04.013-.088-.018-.21-.136-.228-.219-.256-.224-.926-.158-.3.029-.588.065-.639.078a.943.943,0,0,0-.418.4c-.132.2-.133.2-.473.355a.934.934,0,0,0-.5.512,3.218,3.218,0,0,1-.715.733,2.225,2.225,0,0,1-.383.11,2.245,2.245,0,0,0-.395.115,3.366,3.366,0,0,0-.763.782c-.127.215-.158.24-.523.417l-.275.134-.365-.007a1.371,1.371,0,0,1-.444-.045,3.841,3.841,0,0,1-.63-.722.7.7,0,0,0-.5-.3c-.307-.022-.532.119-1.055.663-.193.2-.427.43-.52.508a1.435,1.435,0,0,0-.491.944,2.48,2.48,0,0,1-.126.4,2.142,2.142,0,0,1-.257.246,1.063,1.063,0,0,0-.4.536,2.05,2.05,0,0,1-.625.828,1,1,0,0,0-.373.469c-.181.344-.238.412-.435.523-.077.044-.243.153-.369.243a1.458,1.458,0,0,1-.685.323,1.562,1.562,0,0,0-.717.325.669.669,0,0,1-.24.145,1.824,1.824,0,0,0-.527.2,3.854,3.854,0,0,1-.346.189,1.051,1.051,0,0,0-.383.279.941.941,0,0,1-.174.165.639.639,0,0,1-.124-.054Zm2.137-5.479.007-.2-.8-.007-.8-.007.108-.123c.06-.068.28-.274.491-.458.846-.743,1-.969.973-1.445a.76.76,0,0,0-.271-.58.909.909,0,0,0-.53-.248,1.09,1.09,0,0,0-1.081.392,1.049,1.049,0,0,0-.167.472c0,.062.011.07.118.084a1.832,1.832,0,0,0,.2.016c.079,0,.083-.005.1-.12a.577.577,0,0,1,.637-.514.541.541,0,0,1,.578.557c0,.3-.179.551-.737,1.027-.591.5-.744.668-.881.941a.822.822,0,0,0-.1.392c.009.015.432.021,1.085.017l1.07-.007Zm2.516.006v-.2l-.79-.007-.789-.007.111-.132a5.015,5.015,0,0,1,.428-.4c.844-.719,1.06-1.028,1.034-1.485a.964.964,0,0,0-1.2-.836.911.911,0,0,0-.741.492,1.186,1.186,0,0,0-.121.439,1.84,1.84,0,0,0,.216.025l.208.017v-.075a.615.615,0,0,1,.4-.539.987.987,0,0,1,.453,0,.607.607,0,0,1,.365.4c.075.351-.119.639-.856,1.269-.544.465-.763.737-.841,1.047-.053.212-.133.2,1.065.2h1.066Z" transform="translate(-324.562 -99.819)" fill="#5751c8" stroke="#eaecff" stroke-width="0.5" opacity="0"/><path d="M74.132,232.329c-.207-.207-.076-.575.335-.935a1.42,1.42,0,0,0,.43-.521,6.06,6.06,0,0,0-1.381-1.7,1.649,1.649,0,0,0-.806.151c-.575.226-.6.223-.933-.087-.289-.271-.474-.313-1.228-.279s-.928.094-1.158.4a4.423,4.423,0,0,1-2.562,1.107c-.938.11-2.4-.023-2.4-.219,0-.072.2-.24.441-.375.912-.505.92-.517.709-1.028a4.43,4.43,0,0,1-.2-1.3c-.01-.68-.078-.9-.366-1.211-.452-.481-.277-.818.511-.982a8.959,8.959,0,0,0,.99-.272,5.492,5.492,0,0,1,1.04-.221c.335-.036.61-.121.61-.188s.231-.166.513-.219a1.805,1.805,0,0,1,1.532.495,1.427,1.427,0,0,0,.645.251,7.529,7.529,0,0,1,.789.137,4.026,4.026,0,0,0,2.422-.961,1.657,1.657,0,0,1,1.026-.412,1.661,1.661,0,0,0,1.111-.507c.672-.562.9-.575.976-.055a1.263,1.263,0,0,0,.165.491,3.028,3.028,0,0,1,.276.717,4.239,4.239,0,0,0,.795,1.291l.634.717,1.352.076c1.268.071,1.384.1,1.878.538.585.514.85.56,1.463.254a1.691,1.691,0,0,1,1.85.41c.288.31.471.372,1.106.372.75,0,.767.01,1.154.651.466.771.487,1.032.118,1.424-.151.161-.587.63-.968,1.044-.811.88-1.265.987-1.408.333s-.4-.781-.837-.435l-.373.293-.312-.312c-.287-.287-.4-.3-1.475-.215-.962.08-1.227.158-1.531.449-.508.486-.719.451-.675-.114.036-.464.032-.467-.8-.6a1.906,1.906,0,0,0-1.592.251c-.9.458-1.231.485-1.231.1a1.392,1.392,0,0,0-.344-.679l-.344-.4-.6.643a6.848,6.848,0,0,0-.878,1.181c-.3.573-.318.591-.466.442Zm3.49-3.06q0-.43.215-.43a.215.215,0,1,0,0-.43c-.171,0-.215-.207-.215-1s-.045-1-.211-1a7.049,7.049,0,0,0-1.653,2.246c0,.136.213.193.717.193.7,0,.717.01.717.43q0,.43.215.43T77.623,229.269Z" transform="translate(-53.122 -171.564)" fill="#5751c8" stroke="#eaecff" stroke-width="0.5"/><path d="M74.162,232.221a1.735,1.735,0,0,1,.359-.708,1.8,1.8,0,0,0,.358-.659,3,3,0,0,0-.592-.879c-.5-.582-.662-.684-1.039-.654a2.22,2.22,0,0,0-.591.112c-.312.165-.558.123-.941-.16a1.938,1.938,0,0,0-2.17.17c-.143.177-.261.266-.262.2s-.063-.027-.138.092-.187.217-.249.22a1.525,1.525,0,0,0-.417.174c-.167.093-.345.128-.394.079s-.091-.008-.091.092-.091.148-.2.106a.312.312,0,0,0-.294.016,7.054,7.054,0,0,1-2.819-.058c-.173-.208-.038-.534.168-.407.073.045.134,0,.134-.093s.042-.134.093-.083.248-.073.436-.277c.27-.291.308-.413.176-.571-.092-.111-.119-.2-.06-.2s.036-.085-.05-.189a1.93,1.93,0,0,1-.125-.917,1.318,1.318,0,0,0-.22-1.006c-.256-.283-.36-1.271-.118-1.122a.172.172,0,0,0,.23-.073.245.245,0,0,1,.288-.082c.105.04.212.017.237-.051s.271-.156.547-.194a4.45,4.45,0,0,0,.574-.1,1.353,1.353,0,0,1,.287-.061c.551-.069,1.148-.265,1.148-.377,0-.239,1.459.022,1.937.347a3.5,3.5,0,0,0,2.862.061c.607-.446,1.215-.785,1.285-.715.046.046.083.022.083-.053s.133-.147.3-.159a4.359,4.359,0,0,0,1.751-.847.279.279,0,0,1,.328-.1c.256.1.665.833.535.963-.049.049-.009.09.089.09a.124.124,0,0,1,.118.179,1.4,1.4,0,0,0,.275.714,3.359,3.359,0,0,1,.336.619,2.524,2.524,0,0,0,.483.541c.456.431.536.454,1.434.414.626-.028.951.012.951.117,0,.087.113.145.251.128a1.655,1.655,0,0,1,1.175.505c.2.243,1.247.283,1.389.054a1.148,1.148,0,0,1,.974-.007.376.376,0,0,0,.2.11,1.888,1.888,0,0,1,.493.351,1.791,1.791,0,0,0,1.148.405c.761.057,1.169.246,1.027.477-.043.07-.022.127.047.127.175,0,.612.953.492,1.073a.349.349,0,0,0-.1.207,13.572,13.572,0,0,1-1.96,1.947.363.363,0,0,0-.2.107c-.153.153-.491-.168-.491-.465a.651.651,0,0,0-.218-.433c-.178-.148-.269-.135-.5.073-.26.235-.307.237-.631.024a4.328,4.328,0,0,0-2.382-.176,2.5,2.5,0,0,0-.76.489c-.338.316-.423.342-.536.163a1.18,1.18,0,0,1-.137-.526c0-.573-1.458-.7-2.381-.2-.666.357-1.093.309-1.312-.149-.31-.646-.548-.761-.96-.461-.2.145-.363.334-.365.42a.846.846,0,0,1-.278.4,2.2,2.2,0,0,0-.448.668c-.187.451-.569.574-.569.182Zm3.4-5.787Z" transform="translate(-53.247 -171.599)" fill="#5751c8" stroke="#eaecff" stroke-width="0.5"/><path d="M399.418,192.59c.1-2.036.185-2.235.216-.507a4.737,4.737,0,0,1-.122,1.674C399.429,193.757,399.386,193.232,399.418,192.59Z" transform="translate(-292.969 -148.575)" fill="#5751c8" stroke="#eaecff" stroke-width="0.5"/><path d="M357.785,192.609a3.849,3.849,0,0,1,.223-1.166,8.459,8.459,0,0,0,.164-3.664.7.7,0,0,1,.115-.856,1.483,1.483,0,0,0,.31-.863.7.7,0,0,1,.332-.648c.274-.105.313-.338.223-1.329a2.381,2.381,0,0,1,.169-1.568,1.511,1.511,0,0,0,.284-.741,3.041,3.041,0,0,1,.34-1.014,3.451,3.451,0,0,0,.644-2.139,2.237,2.237,0,0,0-1.208-2.373c-.767-.484-.879-.506-1.092-.214-.2.271-.28.13-.493-.837a4.36,4.36,0,0,0-.675-1.618c-.372-.4-.389-.513-.148-.964a.857.857,0,0,0-.012-1.038,1.78,1.78,0,0,0-.791-.723,4.113,4.113,0,0,0-2.559.262c-.064.1-.391-.041-.726-.323-.729-.613-1.01-.638-1.473-.127-.294.325-.462.355-1.067.187s-.785-.136-1.153.208a3.065,3.065,0,0,1-1.754.538,11.727,11.727,0,0,0-1.623.243,3.388,3.388,0,0,1-.761.143c-.4.027-.456-.066-.456-.73,0-.678.173-.935,1.587-2.361l1.587-1.6,1.441-.142a3.215,3.215,0,0,1,1.862.12c.231.144.42.325.42.4,0,.487.726.777,1.948.777,1.545,0,1.735-.225,1.2-1.42-.494-1.094-.323-1.43.649-1.276a1.97,1.97,0,0,1,.882.289,6.76,6.76,0,0,0,2.627,1.589,6.032,6.032,0,0,0,3.452-1.572,5,5,0,0,1,1.046-.855c.18,0,0,.587-.3.974-.15.193-.033.421.437.851a1.662,1.662,0,0,1,.642,1.129,2.322,2.322,0,0,0,.621,1.25c.569.648.594.737.3,1.057a.9.9,0,0,0,.3,1.537c.512.265.578.38.406.7a2.252,2.252,0,0,0-.206.894.866.866,0,0,1-.225.647c-.143.088-.026.3.321.574.5.4.524.483.291.994-.195.428-.2.615-.017.8a1.4,1.4,0,0,1,.238.834,1.207,1.207,0,0,0,.355.866c.329.25.322.27-.1.276a.948.948,0,0,0-.766.615c-.173.335-.4.609-.512.609a.241.241,0,0,0-.206.254,2.848,2.848,0,0,1-.609.956,2.65,2.65,0,0,0-.6.973,1.642,1.642,0,0,1-.529.761c-.466.432-.513.593-.4,1.36a3.813,3.813,0,0,1-.278,2.875,2.843,2.843,0,0,0-.1,2.783c.352.389.233.789-.235.789a.306.306,0,0,0-.292.316,2.079,2.079,0,0,1-.659.928,1.408,1.408,0,0,1-1.492.5c-.74-.1-.859-.053-1.061.391-.323.709-.845.65-.845-.1Z" transform="translate(-253.726 -130.171)" fill="#5751c8" stroke="#eaecff" stroke-width="0.5"/><path d="M188.282,232.639c-.2-.526.081-.961.58-.891a.579.579,0,0,1,0,1.144A.508.508,0,0,1,188.282,232.639Z" transform="translate(-141.756 -177.807)" fill="#5751c8" stroke="#eaecff" stroke-width="0.5"/><path d="M250.886,374.128a6.47,6.47,0,0,1,.389-.964c.1-.167.262-.5.366-.741a1.5,1.5,0,0,1,.405-.57c.3-.188.267-.865-.081-1.5a6.155,6.155,0,0,1-.789-3.417,5.469,5.469,0,0,0-.091-1.735,2.412,2.412,0,0,1,.192-1.805,9.072,9.072,0,0,1,.66-1.424,1.867,1.867,0,0,0,.112-1.336c-.112-.73-.08-1,.134-1.126.41-.236.347-.642-.2-1.293a2.818,2.818,0,0,1-.563-1.436l-.082-.863.649.122a7.733,7.733,0,0,1,1.612.609,5.225,5.225,0,0,0,1.208.487.76.76,0,0,1,.475.277c.367.442,2.457-.055,2.457-.584,0-.145.16-.232.355-.193,1.478.292,1.471.288,1.471.927a2.613,2.613,0,0,1-.729,1.511,3.484,3.484,0,0,0-.9,2.231,7.073,7.073,0,0,1-.268,1.443c-.056.056.02.393.168.748.291.7.334,6.053.05,6.336a1.429,1.429,0,0,0-.152.743,4.984,4.984,0,0,1-.691,1.77,8.521,8.521,0,0,0-.763,1.556c-.064.335-.316.383-2.3.435a9.176,9.176,0,0,0-2.422.254.879.879,0,0,1-.543.2C250.721,374.787,250.7,374.7,250.886,374.128Z" transform="translate(-186.543 -266.72)" fill="#5751c8" stroke="#eaecff" stroke-width="0.5"/><path d="M386.222,114.307a.537.537,0,0,1,.2-.418c.282-.174.254-1.186-.041-1.481a1.154,1.154,0,0,0-.71-.243c-.557,0-.623-.506-.136-1.043.308-.341.288-.413-.3-1.088a3.413,3.413,0,0,1-.635-.889c0-.544,1.006-1.57,1.782-1.818,1-.317,1.33-1.017.778-1.627-.336-.371-.449-1.04-.176-1.042a18.171,18.171,0,0,0,2.891-2.809,2.753,2.753,0,0,1,.609-.809,2.451,2.451,0,0,0,.609-.86c0-.273.823-.982,1.152-.991a3.468,3.468,0,0,0,1.014-1.013,4.29,4.29,0,0,1,1.181-1.144,10.646,10.646,0,0,0,1.787-1.326c1.68-1.447,2.222-1.533,2.687-.428a4.635,4.635,0,0,1,.281,1.674c-.057,1.333-.019,1.561.316,1.9a5.512,5.512,0,0,0,3.381.362c.7-.435,1.331-.282,1.561.378.213.611.876.843,1.148.4.23-.372.491.006.322.464a1.973,1.973,0,0,0,0,1.035,1.014,1.014,0,0,1-.217,1.076,3.145,3.145,0,0,0-.511,1.06c-.188.855-1.046,1.546-2.782,2.24-1.92.767-3.272.985-3.734.6-.288-.239-.394-.2-.813.328a2.273,2.273,0,0,0-.483.856c0,.139-.178.254-.4.254a1,1,0,0,0-.691.424,2.222,2.222,0,0,1-2.192,1.02c-.814-.037-1.068.043-1.5.472a1.75,1.75,0,0,1-.8.517c-.155,0-.31.205-.346.456-.047.33-.206.46-.572.47a2.819,2.819,0,0,0-.811.14,4.042,4.042,0,0,1-.71.2c-.313.054-.4.216-.377.713.028.612-.015.649-.878.779-.944.142-1.283.507-.9.969.282.34.093.537-.516.537-.277,0-.473-.121-.473-.292Z" transform="translate(-282.366 -79.561)" fill="#5751c8" stroke="#eaecff" stroke-width="0.5"/></g></g></svg>