<svg xmlns="http://www.w3.org/2000/svg" width="115.393" height="120.5" viewBox="0 0 115.393 120.5"><g transform="translate(-13.399 -12.995)"><g transform="translate(13.649 13.245)"><path d="M120.942,53.351l.447.7.192.192v.32l-.383.766-2.044.383-.447-.064.128.83v.83h.192l.192.128.128.575-.319.128-1.15.639-.319.255-.958.511-.255.511v.958l.447,1.724.383,1.66.575,1.341-.575.447-1.533.7.064.7.127.319.383.128.447.766L118,70.4l.255.128.255.766,1.15,1.724.7-.383.383.064,1.98.83.447.255.128.383.128.511.575.383.639.192.958-.447.639-.128.575.128.639.447.83,1.021-.192.192-1.086.447-.7.128.575.958,1.022,2.809.639,1.341-1.086.831-1.724,1.021-1.341,1.022.064.319v.831l-.447.191-.319.383.575,1.341.383.255,1.214-.7,1.533-.7.575.065.256.446-.639.7-.894.83.383.383.383.894-.447,1.022-.894.7.383.7-.447.83-1.405,1.214-.32.83-1.213,1.277-1.341.766-1.341.767-1.022.7-1.469.958-1.149.83-.255.894-.447.83-1.98,1.149-.319.511.127.447.192.7-.319.127-1.214,1.788-.958,1.341-.575.83-1.022,1.4-.511,1.341.383.639.83.511-.511.575-1.341.383-.638.894.958.894.7-.319,1.086,1.021,1.405,1.788v.575l-1.086,1.022.064.255.127.639-.447.383-.639-.575-.767-.383-1.341.895-2.555,1.915-.766.83-.575.383-.383.894-.064.894-.192.383-.767.511-.894.767-.7.575-.766.575-1.341.958-.767.447H97.312l-.575.255-1.852,1.213-1.4.958-1.341-.255-.575-.128-.32.511-1.852.128-2.3-.128-1.725-.192-.575-.319-.128-.064-.639-.511-1.086-1.021-.192-.383-1.277-.575-5.109-2.363-7.089-3.96-5.109-3-1.6-1.086-.894-.7-.766-1.149-1.086-1.469V115.3l-.383-.064-1.149-.064-.383-.767-.447-.191-.894.064-.575.255-1.214-.064-.83.319H52.862l-.383.192-1.788.383-.511.192-.575.255-.575.256-.064-.639v-.192l-.128-.319-.255-.767-.192-.638-.511-1.6-.639.127-.639.32-.319.191-.255-.7-.255-1.405-.766-2.555.064-.766.192-.575-.447-.255-1.469.766-1.724.639-1.086.319-.894.064-.383-.255.319-3.513.192-1.661.639-.83-.83-.383-.255-.895.83-1.468.128-1.022H39.9l-.383-.064-.064-1.533.064-.638-.319-.128-1.6-.319-1.277-.127-1.277-.256-1.533-.255-.958-.256-.255-.32.192-2.49-.128-.767-.064-.511.958-.7.255-.511-.639-1.341-.766-1.277.064-.575,1.149-.384.511-.574-.255-.7-.128-1.405V81.132l.191-1.469.256-.7-.192-.383-1.022.255L31.6,76.853,30.956,75.7l-1.277-.958-.575-.83-.319-.128-.83.128-1.022-1.149-1.149-1.15-.766-1.469-.894-1.533-.639-1.469-.575-.639-.511-.958-.958-1.6-.32-1.149-.447-.958-.7-.447-1.533.894-1.213.383-.447.192-.575.064-.83-.83L13.968,60.76l-.319-.447.192-.319,1.405-1.15.383-.575-.192-1.022-.511-1.086-.128-.83.7-.128.447-.766.319-.767.447-2.427-.575-1.277-.83-.255-.255-1.533,1.469-1.341.958-.958.894-.639.7-.255,1.469-1.405,1.661-1.022,1.341-.766.7-.32.639-.255h.766l1.788.575.766-.511.128-.511.639-.511L30,40.132l.766-1.277,1.086.064.128.7,1.6.83,1.533.192,1.788-.064,1.533-1.086,1.405-.383,1.213-.7,1.214-.447,1.469-.7,1.086-.128,1.469.064.128-.894-.064-.7.32-.766.383-.383.7-1.022.064-.83-.511-.766-.639-.767-.128-.319.639-.575h1.66l.575-.192.447-.383.958-1.277.767-1.022.639-.192.128-.447.128-.511v-.639l.064-.7.064-.447-.766-1.916.447-.064.383-.192.83-.192.766-.383,1.086-.255,1.022-.383,1.6-.639v-.575l.064-.639.447-.319.383-.447.383-.511.83-.383,1.277-.958.575-.319.958-.7.7-.255.7-.383.639-.319,1.022-.319.767.383.319-.192.255-.255.83-.575.639-.319.064.639.575,1.724,1.277,1.661.894.575.894.447,1.086.128.639.192.7.319.447.064,1.149.192.894.255L78.6,21.611l1.022,2.555,1.788,4.854.32.192.511-.064.7-.128.767-.383.319-.128.447.128-.128.639-.383.639-.383.447-.255,1.086-.7.064-1.4-.064-.575.256h-.7l-.128.192-.256.192-.191.064-.32.447-.383.511-.447.256-.447.383-.32.447-.255.383-.32,1.213.575.83.192-.128.83-.128.83-.064,1.214.064.958-.064,1.149.064.255.575.639.83.383.447,1.852-.958,1.086-.447.575-.064,1.022.192h.639l.383-.128-.128-.511-.255-.767.894-.319,1.086-.447.064-1.214.319-.319.383-.128.7-.511.83-.383.448-.575.191-.192.83.128H95.2l.192-.319.575.191.511-.319.319-.511.7-.192.447-.447.319-.447.191-.255h.831l1.214.064.511-.064h1.149l.894-.319.447.447.383.7.511.7.191,1.15.448.7h.319l.7.064h.447l.255.639.319.575-.128.83-.127.639-.192.128-.575.511-.32.191-.255.32-.32.192-.255.192-.639.255-.511.383-.574.447-.575.383-.575.255-.511.383-.83.32-.575.192-.83.192-.767.7-2.3.319-1.789,1.405.32.511.639,1.469.83,1.6.7,1.277,1.086,1.533L99.1,49.9l.83,1.149,1.277,1.533.128.7.192-.064.638-.064.511.064,1.277.447.319-.064.447-.575.511-.192.255-.7v-.383l-.128-.575-.064-.766-.192-.639-.063-.319-.383-.511.128-1.916,1.086-.192.574-.447.83-.128,1.214-.255.958-.128,1.022-.447.895-.128.639-.958,1.341,1.086,2.363,2.874,2.363,2.044,1.086,1.341.447.511,1.15,1.022Z" transform="translate(-13.649 -13.245)" fill="#5751c8"/><path d="M120.942,53.351l.447.7.192.192v.32l-.383.766-2.044.383-.447-.064.128.83v.83h.192l.192.128.128.575-.319.128-1.15.639-.319.255-.958.511-.255.511v.958l.447,1.724.383,1.66.575,1.341-.575.447-1.533.7.064.7.127.319.383.128.447.766L118,70.4l.255.128.255.766,1.15,1.724.7-.383.383.064,1.98.83.447.255.128.383.128.511.575.383.639.192.958-.447.639-.128.575.128.639.447.83,1.021-.192.192-1.086.447-.7.128.575.958,1.022,2.809.639,1.341-1.086.831-1.724,1.021-1.341,1.022.064.319v.831l-.447.191-.319.383.575,1.341.383.255,1.214-.7,1.533-.7.575.065.256.446-.639.7-.894.83.383.383.383.894-.447,1.022-.894.7.383.7-.447.83-1.405,1.214-.32.83-1.213,1.277-1.341.766-1.341.767-1.022.7-1.469.958-1.149.83-.255.894-.447.83-1.98,1.149-.319.511.127.447.192.7-.319.127-1.214,1.788-.958,1.341-.575.83-1.022,1.4-.511,1.341.383.639.83.511-.511.575-1.341.383-.638.894.958.894.7-.319,1.086,1.021,1.405,1.788v.575l-1.086,1.022.064.255.127.639-.447.383-.639-.575-.767-.383-1.341.895-2.555,1.915-.766.83-.575.383-.383.894-.064.894-.192.383-.767.511-.894.767-.7.575-.766.575-1.341.958-.767.447H97.312l-.575.255-1.852,1.213-1.4.958-1.341-.255-.575-.128-.32.511-1.852.128-2.3-.128-1.725-.192-.575-.319-.128-.064-.639-.511-1.086-1.021-.192-.383-1.277-.575-5.109-2.363-7.089-3.96-5.109-3-1.6-1.086-.894-.7-.766-1.149-1.086-1.469V115.3l-.383-.064-1.149-.064-.383-.767-.447-.191-.894.064-.575.255-1.214-.064-.83.319H52.862l-.383.192-1.788.383-.511.192-.575.255-.575.256-.064-.639v-.192l-.128-.319-.255-.767-.192-.638-.511-1.6-.639.127-.639.32-.319.191-.255-.7-.255-1.405-.766-2.555.064-.766.192-.575-.447-.255-1.469.766-1.724.639-1.086.319-.894.064-.383-.255.319-3.513.192-1.661.639-.83-.83-.383-.255-.895.83-1.468.128-1.022H39.9l-.383-.064-.064-1.533.064-.638-.319-.128-1.6-.319-1.277-.127-1.277-.256-1.533-.255-.958-.256-.255-.32.192-2.49-.128-.767-.064-.511.958-.7.255-.511-.639-1.341-.766-1.277.064-.575,1.149-.384.511-.574-.255-.7-.128-1.405V81.132l.191-1.469.256-.7-.192-.383-1.022.255L31.6,76.853,30.956,75.7l-1.277-.958-.575-.83-.319-.128-.83.128-1.022-1.149-1.149-1.15-.766-1.469-.894-1.533-.639-1.469-.575-.639-.511-.958-.958-1.6-.32-1.149-.447-.958-.7-.447-1.533.894-1.213.383-.447.192-.575.064-.83-.83L13.968,60.76l-.319-.447.192-.319,1.405-1.15.383-.575-.192-1.022-.511-1.086-.128-.83.7-.128.447-.766.319-.767.447-2.427-.575-1.277-.83-.255-.255-1.533,1.469-1.341.958-.958.894-.639.7-.255,1.469-1.405,1.661-1.022,1.341-.766.7-.32.639-.255h.766l1.788.575.766-.511.128-.511.639-.511L30,40.132l.766-1.277,1.086.064.128.7,1.6.83,1.533.192,1.788-.064,1.533-1.086,1.405-.383,1.213-.7,1.214-.447,1.469-.7,1.086-.128,1.469.064.128-.894-.064-.7.32-.766.383-.383.7-1.022.064-.83-.511-.766-.639-.767-.128-.319.639-.575h1.66l.575-.192.447-.383.958-1.277.767-1.022.639-.192.128-.447.128-.511v-.639l.064-.7.064-.447-.766-1.916.447-.064.383-.192.83-.192.766-.383,1.086-.255,1.022-.383,1.6-.639v-.575l.064-.639.447-.319.383-.447.383-.511.83-.383,1.277-.958.575-.319.958-.7.7-.255.7-.383.639-.319,1.022-.319.767.383.319-.192.255-.255.83-.575.639-.319.064.639.575,1.724,1.277,1.661.894.575.894.447,1.086.128.639.192.7.319.447.064,1.149.192.894.255L78.6,21.611l1.022,2.555,1.788,4.854.32.192.511-.064.7-.128.767-.383.319-.128.447.128-.128.639-.383.639-.383.447-.255,1.086-.7.064-1.4-.064-.575.256h-.7l-.128.192-.256.192-.191.064-.32.447-.383.511-.447.256-.447.383-.32.447-.255.383-.32,1.213.575.83.192-.128.83-.128.83-.064,1.214.064.958-.064,1.149.064.255.575.639.83.383.447,1.852-.958,1.086-.447.575-.064,1.022.192h.639l.383-.128-.128-.511-.255-.767.894-.319,1.086-.447.064-1.214.319-.319.383-.128.7-.511.83-.383.448-.575.191-.192.83.128H95.2l.192-.319.575.191.511-.319.319-.511.7-.192.447-.447.319-.447.191-.255h.831l1.214.064.511-.064h1.149l.894-.319.447.447.383.7.511.7.191,1.15.448.7h.319l.7.064h.447l.255.639.319.575-.128.83-.127.639-.192.128-.575.511-.32.191-.255.32-.32.192-.255.192-.639.255-.511.383-.574.447-.575.383-.575.255-.511.383-.83.32-.575.192-.83.192-.767.7-2.3.319-1.789,1.405.32.511.639,1.469.83,1.6.7,1.277,1.086,1.533L99.1,49.9l.83,1.149,1.277,1.533.128.7.192-.064.638-.064.511.064,1.277.447.319-.064.447-.575.511-.192.255-.7v-.383l-.128-.575-.064-.766-.192-.639-.063-.319-.383-.511.128-1.916,1.086-.192.574-.447.83-.128,1.214-.255.958-.128,1.022-.447.895-.128.639-.958,1.341,1.086,2.363,2.874,2.363,2.044,1.086,1.341.447.511,1.15,1.022Z" transform="translate(-13.649 -13.245)" fill="none" stroke="#eaecff" stroke-linecap="round" stroke-linejoin="round" stroke-miterlimit="10" stroke-width="0.5"/></g><g transform="translate(13.649 13.245)"><path d="M120.942,53.351l.447.7.192.192v.32l-.383.766-2.044.383-.447-.064.128.83v.83h.192l.192.128.128.575-.319.128-1.15.639-.319.255-.958.511-.255.511v.958l.447,1.724.383,1.66.575,1.341-.575.447-1.533.7.064.7.127.319.383.128.447.766L118,70.4l.255.128.255.766,1.15,1.724.7-.383.383.064,1.98.83.447.255.128.383.128.511.575.383.639.192.958-.447.639-.128.575.128.639.447.83,1.021-.192.192-1.086.447-.7.128.575.958,1.022,2.809.639,1.341-1.086.831-1.724,1.021-1.341,1.022.064.319v.831l-.447.191-.319.383.575,1.341.383.255,1.214-.7,1.533-.7.575.065.256.446-.639.7-.894.83.383.383.383.894-.447,1.022-.894.7.383.7-.447.83-1.405,1.214-.32.83-1.213,1.277-1.341.766-1.341.767-1.022.7-1.469.958-1.149.83-.255.894-.447.83-1.98,1.149-.319.511.127.447.192.7-.319.127-1.214,1.788-.958,1.341-.575.83-1.022,1.4-.511,1.341.383.639.83.511-.511.575-1.341.383-.638.894.958.894.7-.319,1.086,1.021,1.405,1.788v.575l-1.086,1.022.064.255.127.639-.447.383-.639-.575-.767-.383-1.341.895-2.555,1.915-.766.83-.575.383-.383.894-.064.894-.192.383-.767.511-.894.767-.7.575-.766.575-1.341.958-.767.447H97.312l-.575.255-1.852,1.213-1.4.958-1.341-.255-.575-.128-.32.511-1.852.128-2.3-.128-1.725-.192-.575-.319-.128-.064-.639-.511-1.086-1.021-.192-.383-1.277-.575-5.109-2.363-7.089-3.96-5.109-3-1.6-1.086-.894-.7-.766-1.149-1.086-1.469V115.3l-.383-.064-1.149-.064-.383-.767-.447-.191-.894.064-.575.255-1.214-.064-.83.319H52.862l-.383.192-1.788.383-.511.192-.575.255-.575.256-.064-.639v-.192l-.128-.319-.255-.767-.192-.638-.511-1.6-.639.127-.639.32-.319.191-.255-.7-.255-1.405-.766-2.555.064-.766.192-.575-.447-.255-1.469.766-1.724.639-1.086.319-.894.064-.383-.255.319-3.513.192-1.661.639-.83-.83-.383-.255-.895.83-1.468.128-1.022H39.9l-.383-.064-.064-1.533.064-.638-.319-.128-1.6-.319-1.277-.127-1.277-.256-1.533-.255-.958-.256-.255-.32.192-2.49-.128-.767-.064-.511.958-.7.255-.511-.639-1.341-.766-1.277.064-.575,1.149-.384.511-.574-.255-.7-.128-1.405V81.132l.191-1.469.256-.7-.192-.383-1.022.255L31.6,76.853,30.956,75.7l-1.277-.958-.575-.83-.319-.128-.83.128-1.022-1.149-1.149-1.15-.766-1.469-.894-1.533-.639-1.469-.575-.639-.511-.958-.958-1.6-.32-1.149-.447-.958-.7-.447-1.533.894-1.213.383-.447.192-.575.064-.83-.83L13.968,60.76l-.319-.447.192-.319,1.405-1.15.383-.575-.192-1.022-.511-1.086-.128-.83.7-.128.447-.766.319-.767.447-2.427-.575-1.277-.83-.255-.255-1.533,1.469-1.341.958-.958.894-.639.7-.255,1.469-1.405,1.661-1.022,1.341-.766.7-.32.639-.255h.766l1.788.575.766-.511.128-.511.639-.511L30,40.132l.766-1.277,1.086.064.128.7,1.6.83,1.533.192,1.788-.064,1.533-1.086,1.405-.383,1.213-.7,1.214-.447,1.469-.7,1.086-.128,1.469.064.128-.894-.064-.7.32-.766.383-.383.7-1.022.064-.83-.511-.766-.639-.767-.128-.319.639-.575h1.66l.575-.192.447-.383.958-1.277.767-1.022.639-.192.128-.447.128-.511v-.639l.064-.7.064-.447-.766-1.916.447-.064.383-.192.83-.192.766-.383,1.086-.255,1.022-.383,1.6-.639v-.575l.064-.639.447-.319.383-.447.383-.511.83-.383,1.277-.958.575-.319.958-.7.7-.255.7-.383.639-.319,1.022-.319.767.383.319-.192.255-.255.83-.575.639-.319.064.639.575,1.724,1.277,1.661.894.575.894.447,1.086.128.639.192.7.319.447.064,1.149.192.894.255L78.6,21.611l1.022,2.555,1.788,4.854.32.192.511-.064.7-.128.767-.383.319-.128.447.128-.128.639-.383.639-.383.447-.255,1.086-.7.064-1.4-.064-.575.256h-.7l-.128.192-.256.192-.191.064-.32.447-.383.511-.447.256-.447.383-.32.447-.255.383-.32,1.213.575.83.192-.128.83-.128.83-.064,1.214.064.958-.064,1.149.064.255.575.639.83.383.447,1.852-.958,1.086-.447.575-.064,1.022.192h.639l.383-.128-.128-.511-.255-.767.894-.319,1.086-.447.064-1.214.319-.319.383-.128.7-.511.83-.383.448-.575.191-.192.83.128H95.2l.192-.319.575.191.511-.319.319-.511.7-.192.447-.447.319-.447.191-.255h.831l1.214.064.511-.064h1.149l.894-.319.447.447.383.7.511.7.191,1.15.448.7h.319l.7.064h.447l.255.639.319.575-.128.83-.127.639-.192.128-.575.511-.32.191-.255.32-.32.192-.255.192-.639.255-.511.383-.574.447-.575.383-.575.255-.511.383-.83.32-.575.192-.83.192-.767.7-2.3.319-1.789,1.405.32.511.639,1.469.83,1.6.7,1.277,1.086,1.533L99.1,49.9l.83,1.149,1.277,1.533.128.7.192-.064.638-.064.511.064,1.277.447.319-.064.447-.575.511-.192.255-.7v-.383l-.128-.575-.064-.766-.192-.639-.063-.319-.383-.511.128-1.916,1.086-.192.574-.447.83-.128,1.214-.255.958-.128,1.022-.447.895-.128.639-.958,1.341,1.086,2.363,2.874,2.363,2.044,1.086,1.341.447.511,1.15,1.022.191.128" transform="translate(-13.649 -13.245)" fill="none" stroke="#eaecff" stroke-linecap="round" stroke-linejoin="round" stroke-miterlimit="10" stroke-width="0.5"/></g><g transform="translate(13.649 13.245)"><path d="M68.829,13.884l.575,1.724,1.277,1.661.894.575.894.447,1.086.128.639.192.7.319.447.064,1.149.192.894.255L78.6,21.611l1.022,2.555,1.788,4.854.32.192.511-.064.7-.128.767-.383.319-.128.447.128-.128.639-.383.639-.383.447-.255,1.086-.7.064-1.4-.064-.575.256h-.7l-.128.192-.256.192-.191.064-.32.447-.383.511-.447.256-.447.383-.32.447-.255.383-.32,1.213.575.83.192-.128.83-.128.83-.064,1.214.064.958-.064,1.149.064.255.575.639.83.383.447,1.852-.958,1.086-.447.575-.064,1.022.192h.639l.383-.128-.128-.511-.255-.767.894-.319,1.086-.447.064-1.214.319-.319.383-.128.7-.511.83-.383.448-.575.191-.192.83.128H95.2l.192-.319.575.191.511-.319.319-.511.7-.192.447-.447.319-.447.191-.255h.831l1.214.064.511-.064h1.149l.894-.319.447.447.383.7.511.7.191,1.15.448.7h.319l.7.064h.447l.255.639.319.575-.128.83-.127.639-.192.128-.575.511-.32.191-.255.32-.32.192-.255.192-.639.255-.511.383-.574.447-.575.383-.575.255-.511.383-.83.32-.575.192-.83.192-.767.7-2.3.319-1.789,1.405.32.511.639,1.469.83,1.6.7,1.277,1.086,1.533L99.1,49.9l.83,1.149,1.277,1.533.128.7.192-.064.638-.064.511.064,1.277.447.319-.064.447-.575.511-.192.255-.7v-.383l-.128-.575-.064-.766-.192-.639-.063-.319-.383-.511.128-1.916,1.086-.192.574-.447.83-.128,1.214-.255.958-.128,1.022-.447.895-.128.639-.958,1.341,1.086,2.363,2.874,2.363,2.044,1.086,1.341.447.511,1.15,1.022.191.128.447.7.192.192v.32l-.383.766-2.044.383-.447-.064.128.83v.83h.192l.192.128.128.575-.319.128-1.15.639-.319.255-.958.511-.255.511v.958l.447,1.724.383,1.66.575,1.341-.575.447-1.533.7.064.7.127.319.383.128.447.766L118,70.4l.255.128.255.766,1.15,1.724.7-.383.383.064,1.98.83.447.255.128.383.128.511.575.383.639.192.958-.447.639-.128.575.128.639.447.83,1.021-.192.192-1.086.447-.7.128.575.958,1.022,2.809.639,1.341-1.086.831-1.724,1.021-1.341,1.022.064.319v.831l-.447.191-.319.383.575,1.341.383.255,1.214-.7,1.533-.7.575.065.256.446-.639.7-.894.83.383.383.383.894-.447,1.022-.894.7.383.7-.447.83-1.405,1.214-.32.83-1.213,1.277-1.341.766-1.341.767-1.022.7-1.469.958-1.149.83-.255.894-.447.83-1.98,1.149-.319.511.127.447.192.7-.319.127-1.214,1.788-.958,1.341-.575.83-1.022,1.4-.511,1.341.383.639.83.511-.511.575-1.341.383-.638.894.958.894.7-.319,1.086,1.021,1.405,1.788v.575l-1.086,1.022.064.255.127.639-.447.383-.639-.575-.767-.383-1.341.895-2.555,1.915-.766.83-.575.383-.383.894-.064.894-.192.383-.767.511-.894.767-.7.575-.766.575-1.341.958-.767.447H97.312l-.575.255-1.852,1.213-1.4.958-1.341-.255-.575-.128-.32.511-1.852.128-2.3-.128-1.725-.192-.575-.319-.128-.064-.639-.511-1.086-1.021-.192-.383-1.277-.575-5.109-2.363-7.089-3.96-5.109-3-1.6-1.086-.894-.7-.766-1.149-1.086-1.469V115.3l-.383-.064-1.149-.064-.383-.767-.447-.191-.894.064-.575.255-1.214-.064-.83.319H52.862l-.383.192-1.788.383-.511.192-.575.255-.575.256-.064-.639v-.192l-.128-.319-.255-.767-.192-.638-.511-1.6-.639.127-.639.32-.319.191-.255-.7-.255-1.405-.766-2.555.064-.766.192-.575-.447-.255-1.469.766-1.724.639-1.086.319-.894.064-.383-.255.319-3.513.192-1.661.639-.83-.83-.383-.255-.895.83-1.468.128-1.022H39.9l-.383-.064-.064-1.533.064-.638-.319-.128-1.6-.319-1.277-.127-1.277-.256-1.533-.255-.958-.256-.255-.32.192-2.49-.128-.767-.064-.511.958-.7.255-.511-.639-1.341-.766-1.277.064-.575,1.149-.384.511-.574-.255-.7-.128-1.405V81.132l.191-1.469.256-.7-.192-.383-1.022.255L31.6,76.853,30.956,75.7l-1.277-.958-.575-.83-.319-.128-.83.128-1.022-1.149-1.149-1.15-.766-1.469-.894-1.533-.639-1.469-.575-.639-.511-.958-.958-1.6-.32-1.149-.447-.958-.7-.447-1.533.894-1.213.383-.447.192-.575.064-.83-.83L13.968,60.76l-.319-.447.192-.319,1.405-1.15.383-.575-.192-1.022-.511-1.086-.128-.83.7-.128.447-.766.319-.767.447-2.427-.575-1.277-.83-.255-.255-1.533,1.469-1.341.958-.958.894-.639.7-.255,1.469-1.405,1.661-1.022,1.341-.766.7-.32.639-.255h.766l1.788.575.766-.511.128-.511.639-.511L30,40.132l.766-1.277,1.086.064.128.7,1.6.83,1.533.192,1.788-.064,1.533-1.086,1.405-.383,1.213-.7,1.214-.447,1.469-.7,1.086-.128,1.469.064.128-.894-.064-.7.32-.766.383-.383.7-1.022.064-.83-.511-.766-.639-.767-.128-.319.639-.575h1.66l.575-.192.447-.383.958-1.277.767-1.022.639-.192.128-.447.128-.511v-.639l.064-.7.064-.447-.766-1.916.447-.064.383-.192.83-.192.766-.383,1.086-.255,1.022-.383,1.6-.639v-.575l.064-.639.447-.319.383-.447.383-.511.83-.383,1.277-.958.575-.319.958-.7.7-.255.7-.383.639-.319,1.022-.319.767.383.319-.192.255-.255.83-.575.639-.319.064.639" transform="translate(-13.649 -13.245)" fill="none" stroke="#eaecff" stroke-linecap="round" stroke-linejoin="round" stroke-miterlimit="10" stroke-width="0.5"/></g><text transform="translate(72.678 73.695)" fill="#5751c8" font-size="2" font-family="ArialMT, Arial"><tspan x="0" y="0">1</tspan></text></g></svg>