<svg xmlns="http://www.w3.org/2000/svg" width="104.501" height="170.532" viewBox="0 0 104.501 170.532"><g transform="translate(-229.103 -620.336)"><g transform="translate(229.374 620.599)"><path d="M85.037,198.957,84.809,198l-.5-.411-.411.5h-.685v-.365l.411-.319v-.776l-.183-.274v-.639l.593-.319-.137-1.46-.319-.274-.046-.958.183-.958.411-.365-.137-.958-.319-.137-1.323.137-.411-.274-.228-.821v-.365l-.183-.319-.639-.091-.776-.639-.548-.046-.639-.456-.5-.958.046-.548.319-.639-.137-.73.365-.5.639-.319,1-1.186.046-.456.776.091.776,1.323.685.137.274.821.274-.046.319-.593v-.456l.548.046.274.548h.5l.183.5.411.091.365-.137.821.456.228.639.639-.137.137-.228.046-.365.411.137.548.411.319,1.323.639,1.278.685.548.365,1.141.776-.456.137-.593.274-.456.73-.274v-.274l1.05-.274,1.187.319.5.5,1-.046.5.274v.73l-.274.365-.091.821.456.183.091.593.821-.5s.319-.5.593-.913a1.2,1.2,0,0,1,.639-.5l.776.183.456-.548V188l-.593-.593.456-.5-.046-1.871h-.456l-.685-.274h-1.1l-.411.365-.639-.183-.183-.228-.73-.365h-.958l-1.1-.319-.639-.456h-.821l-.5-.365-.046-.548.365-.274-.091-1.141-.274-.411.137-.456.639-.821.046-.776-.411-.411.183-.684.456-.548-.091-.5-.73-.593.091-.5.319-.274.411-1.141.046-.913-.411-.73.091-.411H92.43l-.137.776-.319-.319.228-.958-.319-.365-.73-.5-.091-.639-.274-.411.274-.821.319-.091.137-.548.274-.228-.137-.73-.411-.548-.091-.958-.456-1.643.274-1.78.091-.776-.274-.365.411-.182.456.182v.5l.639-.274.319.137.091.913.411.319h1.05l.456-.365-.091-.913-.137-.639.411-.5.411-.046.913-.456.228-.685.548-.73.548-.228.685-1.232v-.411l-.274-.274.046-.228.593-.274v-.365l.319-.411-.137-.548-.274-.274.548-.319.867.183.5-.319,1.323.046.365.5.411-.091.228-.411.867-.183.411.319.183-.319,1.187.091.593.274.365-.365.958.137.913.958.913.046.958.73,1.05-.046.5-.685.73-.182.319-.639.183-1.05.5-.913-.319-.593.456-.548,1.05-.319v-.456l-.593-.365a5.7,5.7,0,0,0,.685-.867,2.62,2.62,0,0,0-.183-1l.411-.091.593.867h1.05l.958.548.456-.639-.091-.639-.548-.365-.046-.593-.639-.685-.228-.776-.411-.5.411-.73.365-.365.137-.776-.137-.867.411-.593.548-.228.639-.5.365.137.274.593h.456l.456-.639-.091-.411-1-.183-.456-.548.183-.411.821-.091.137-.365.411-.548.046-.365-.319-.274-.183-.456.5-.319-.183-.319.319-.456.639.456.411-.913.411-.137h.73l.046-.5-.183-.5v-.456l.456-.5-.319-.5-.685-.228-.365-.867v-1.323l-.183-.593.411-.5.593.091.5-.183V129l-.73-.639.411-.685.548-.5.456-1.643,1.05-.5.183-.365.365-.228,1.1.183.913-.183a3.487,3.487,0,0,0,.319-.639.656.656,0,0,1,.5-.411l.548-.137.274-.593.821-1,1.187-.137.365-.228,1.141.183.958-.365.274-1.369.365-.091.091-.821-.228-.548-.593-.228-.639-.548V117l.5-.456-.183-.548.73-.73.5-.046.456-.456-.091-.593.5-.319.685.046.776.274,1.05-.685h.365l.639-.593.319-.958v-.867l.685-.548.548.137.228-.365.137-.639.685-.411v-.958l.411-.685h.776l.228-.319.046-.913.411-.456v-.5l-.867-.456-.046-.593-.821.046-.365.73-.913-.365-.091-.411-.685.228-.821-.274-.365-.639-.046-.548-.548.137-.228.73.183.548-.319.5-.365-.091-.046-.456-.365-.5-.137-.867.183-.5-.137-.776-.73-.73-.776-.046-.73-.913.046-.867.593-.73-.274-1.6.5-1.962h.228l-.091-.456-.456-.365-.228-.5-.73-.046-.548.593h-.456l-.411-.685.274-.593.091-1.734,1-1,.365-1.141-.183-1.506-.821-.821-.776-.046-.593.958-.137,1h-.639l-.274-.365-.821-.319-1.05.046-.776-.137-.639-.913-.5-.183v-.274l.365-.137-.183-.456-.73-.365v-.639l.5-.685-.319-1.323-.456-.274-.228-1.278-1.05-.137-.365-.456-1.78-.228-.137-.274.228-.365-.319-.319-.5-.137.046-.73-.548-.867-.274-.319-.228-.867.183-.365-.274-.456-1-.183-.548-.411-.091-.5-.274-.456h-.593l-.821-.456-.228-.228-1.1.137-.821,1.05v.685l-.456.639-.593.091-.685.913-.137.958-.821.958-2.054.821h-1.1l-1.46.228-1.278-.137-.456-.365-1-.319-.821-.958-.411-.548-.274-.274-.639.183-.228.593-1.323.548-.73-.274-1.1.228-.5.867.091.593-.365.639-1.323.593-.5-.046-.593.319.046.5-.411.137-1.05-.046-.365-.639-.365-.046-1,.365-1.46-.046-.319-.411L89.1,81.494l-.639.456-.913-.456-.411-.593h-.319l-.639.593-1.369.183-1.323-.411-.274-.456-.867-.365L80.976,80.4l-.274-.274-.593.228-.319.548-1.369.685-.73-.046-.274.274-.639-.046L76.5,81.4l-.411-.091-.365-.274v-.5s-.456-.5-.685-.821a2.026,2.026,0,0,0-.913-.5l-.365-.593-.411.228-.319.456-.593.593.411,1.05.274.274.091,1.369.365.548.639.137.365.776v.73l-.958.593-1.1.958-.456,1.187-.411.046-.274.274v.548l1.05.365.183,1.323.73.365.319-.137.228-.548.958-.228.913-.958h.548l.5.593.73-.183.365.867,1.323.183.548-.456.73.046.5.411.091,1.05.639.228.183.685v.593l.867.183.365.593.73-.046.274-.228h.548l.274.5.5.548.5.046.456.913h.593l.5.365-.091.73-.319.411-.319-.274-.867,1.506L85.9,99.474l.411.548-.274.593-.548.5H84.9l-.5-.365-.685.274-.5.685-.958.183-.548-.183-1.1.593-.091.73.411,1.187-.365.73-.456.319-1.05,1.46-1.6.5-.319-.274-.685.319.046,1.369.593.685-.046,1.05-.575.455-.4.2v.527l.276.251v.477s-.326.176-.426.226-.025.452-.025.452l.276.376-.025.075h-.727l-.125-.276-.9.376-.251.552-.452.276-.151.477.125.778-.226.2-.251-.05-.276.2v.477l-.351.276-.251-.1.1-.276-.326-.226-.577.1-.351.577h-.251l-.176-.452-.351.176-.3.677-.5.075-.577.452-.452.6-.652.276v.426h-.276l-.577-.3-.251-.978.151-.452-.376-.326-1.079.1-.151-.151-.351.3.176.5.251.226-.125.376-.276-.05-.075-.276-.3-.226v-.125l-.351-.1-.3.251-.151.577-.527.276-.151.5-.326.05-.477-.4-.125-.3.05-.627-.226-.1-.477.2-.226.527-.652.477-.452.05-.477.652.276,1.3.251.3-.025,1.43-.125.477-.276.351.025.452-.4.3-.527.151-.251.351-.251-.125-.376.2.1.5.2.251-.2.1-.5.552.025.552.351.376-.2.251-.276.151-.3-.075-.3.176.1.376.452.276v.3l-.3.276.125.577-.2.3h-.552l-.226-1.154.025-.4-.351-.376-.7.075-.452.351-.1.552-.3.15-.151.4-.05,1.1-.376.552v.552l-.5.5-.426.151.025.226.2.125v.6a2.231,2.231,0,0,1-.276.552l.251.7.276.276-.1.953-.2.1v.878l-.151.351-.326.376-.075.477-.376.1-.6-.151-.075-.3h-.376l-.477.452-.351.978s.05,1.856.05,1.982a2.044,2.044,0,0,1-.2.5l-.05,1.656.477.928-.125,1.279-.125.7-.677.627.025,1.2-.276.125-.176.426-.326.4v.3l.452.451-.326.577-.376.1-.176.6-.778.953-.5.125-.8.552-1,.1-.853.727-.477.025-.828.953v.351l.3.176v.276l-.151.075-.025.9.452.3-.351,1-.452.276v.5l.426.4.125.928.677.477,1.279.075.4.5.351,1.53-.005.907-.446.178-.059.535.327.862.238.267.3,1.248.416.267-.3.356-.3-.059-.683.3-.446.356h-.505l-.505.624v.505l.505.683,1.01-.03,1.04-.683h.327l.327.178h.386l.059.772-.208.357v.772l-.356,1.723-.3.3.267.475-.059.772-.475.267.03.356.505.267.119.624.208.089-.089.654-.208.267-.475-.119-.446.356-.475.03-.356.386.089.208-.238.267-.624.208-.535-.208-.772.327-.119.208-.8.267L42.428,178l-.535.208.03.238.327.059-.032.452.453.091.091.332-.181.393-.363.03-.06.484-.212.121v.3l.7.212.181.423.786-.091.181-.423h.665l.242.514h.574l.453.393.091.937.332.212-.212.574-.181.151v.423l.121.937.212.212-.06.574-.514.453v.453l-.574.272-.574-.181-.181-.544-.393-.151-.091-.121h-.272l-.453.332H42.7l-.272.393.091.635.725.332h.725l.363-.272.574.272v.423l-.665.544.06.242.332.212v.3l-.3.121-.393-.151-.635.363-.03.212-.635.121-.212-.121-.272.121v.3l.786.06.635-.121.332.3.242.212h.332v-.423l-.272-.3.212-.212.363-.121.3-.363.6.06.332.332v.816l.242.635.846.665,1.148.544h.3l.423.3.091.876-.03.635-.272.332.363.484.453.151.3-.151.514.06,1.028.6.181.574.635.091.423-.121.363.3.272.514.786.242.6.514.06.7.212.181v.423l-.363.3-.212-.03-.233.111-.549.122-.488-.091-.488.122-.152.3-.4.03-.061.488.488.213.03.457.518.488.366.03-.183.457-.64.549h-.335l-.488.457-.122.274-.671.4h-.335l-.366.244-.427-.091-.244-.274-.122-.488.183-.335-.152-.3h-.3l-.488.244-.152.457-.3.152h-.457l-.274-.3v-.488l-.183-.3h-.274l.122-.762.274-.091-.03-.366-.549-.549-.427.274h-.335l-.457.427.03.793-.366.335-.4.061-.244-.183-.518.335-.3.884v.274l-.152.64-.823.274-.61.03-.427.488-.03.4.4.64-.244.4-.488.091-.975.914v.61l.427.732v.4l-.671.457-.335-.03-.122.366.061.823-.457.244-.4.579.183,1.28.61.366.549.762.427.823.549.61-.274.64-.762.457-.427.03-.183.427-.7.4h-.4l-.061.457.488.244.732.914.4.762.64,1.737.4.518.4-.335.366-.03.457.335.213-.03.183-.488.762-.488h1.158l.488.244.213.732.762.61.213-.183,1.128,1.067.488.183.213.366.03.732.488.366.549.213.366.579v.518l.274.3.427.152v1.128l.518.762.061,1.1.732.7H52l.213.213-.213.4-.7.427-.457.152-.091.945.091.579.975.213.332-.3.4-.058.433-.289-.058-.462-.2-.462.173-.173.116-.376.318-.058.087.26.607.4.029.376-.462.087-.087.376.058.607.318.116.116.491-.173.231h.925l.694-.462.347-.578.289.029.116.376.549.029.231-.231.116.462-.665.231-.087.665-.347.173-.145.52.491.4.173,1.734.347.578.116,1.214.549.665.029,1.589-.058.318v.26l.376.173.116.462.029.289.636.145.578.116.52-.433v-.318l.78-.318.26-.376.433-.173.116-.347.636-.029.491.52,1.04.549,1.416-.058,1.011.029.116.173,1.011.087.2-.087-.2-.491.26-.838.029-.607.549-.318.26.318.491-.145-.058-1.214.376-.607.549-.231.087-.78-.289-1.358.231-.347.376-.116.231-.347.087-.722-.173-.4.116-.318a.534.534,0,0,0,.26-.2,2.543,2.543,0,0,0,.173-.491l-.491-.491v-.665l.433-.52.116-1.1.376-.376.231.26.462-.231.4-.78.722-.173.231.173.549-.318.318-.578.838-.173.318.173.78-.029.607-.462-.173-.4.116-.722.667-1.047.918-.459.727-.765a2.157,2.157,0,0,1,.115-.765c.115-.153.956-1.071.956-1.071l.8-.115.536-.344v-.382l-.536-.383-.918-.115-.115-.306.574-.077.344-.306-.65-.421.23-.268.076.23.995.536.268-.191-.153-.689.88-1.033,1.109-.5.727.23.65-.191-.153-.306.268-.65h.8l.765-.574.344-1.186-.191-.956.574-1.033.612-.23.383.153.421-.153-.191-1.339.038-.956-.344-.918-.536-.191-.421-.8.115-.612.306-.115.077-.536-.306-.382-.65-.153-.038-.536.459-.268v-.65l-.612-.383-.115-1.109-.038-.8.612-.956.344-.115v-.344l-1.109-.536-.038-.268.383-.306.344.077.536-.459-.5-.268.344-.229.038-.306-.382-.229-.5.268-.88-.268-.115-.459-.344-.191Z" transform="translate(-38.557 -73.599)" fill="#5751c8" stroke="#eaecff" stroke-width="0.5"/><path d="M622.371,400.377l-.442-.48-.331-.813.184-.333v-.37l-.883-.554-.147-.776.147-.407-.589-.776-.294-.222-.1-.436" transform="translate(-572.119 -368.768)" fill="none" stroke="#eaecff" stroke-width="0.5"/><path d="M658.233,437.565l-.408-.082-.1-.117-.2-.035-.151.176-.792.012-.28.211-.944.644-.221-.023-.7-.784h-.8l-1.4.246-.361.562-.373.69-1.864-.035" transform="translate(-599.394 -407.426)" fill="none" stroke="#eaecff" stroke-width="0.5"/><path d="M632.041,476.338l-.278.109-.278-.186-.356-.093.03-1.132-.495-.776-.618-.093-.124-.2-.263-.031-1.376.59-.325.342-.526.093-.154-.264-.649-.093-.247.155-.788-.124-.68-.435v-.388l-.263-.2v-.4l.572-.59.2-.047V472.3l-.355-.248-.634.016-.634-.637-.077-.419.2-.248.077-1.8.34-.512.572-.295.247.031.062.171.649.047.386-.5.309-.031.155-.4-.185-.248-.015-.28.34-.186-.046-.7-1.9-.093-.355-.45.016-.435.185-.435-.046-.388-.835-.652.015-.326.263-.217.371-.59.077-.326-.216-.248-.464-.481-.124-.559.108-.606.124-.14.108-.45.541-.761.788-.543.371-.544" transform="translate(-575.614 -426.228)" fill="none" stroke="#eaecff" stroke-width="0.5"/><path d="M736.251,677.7l-.526-.223-.255-.239H734.9l-2.344.431-.207.08-.3.032-.223.239-.239.638-.415.494-.159.032-.287-.255-1.5-.877-.3-.829V676.6l.207-.351.239-.845.159-.128-.048-.383-.112-.064-.112-.239-.606-.08-.494.351-.383.733-.558.08-.462-.223-.207-.287-1.5-.13-.156.189" transform="translate(-668.457 -625.106)" fill="none" stroke="#eaecff" stroke-width="0.5"/><path d="M682.927,697.271l-.349-.838-1.07-.7-.814-.023-1-1.21-.512-1.093-.093-.837-.489-.7-.07-1.21.372-.489.186-1.582.163-.372.209-.954.3-.907.372-.256.442-.372.558-.047.785-.268.163-.419v-.442l.419-.326.116-.489-.209-.279-.07-.326" transform="translate(-625.914 -633.025)" fill="none" stroke="#eaecff" stroke-width="0.5"/><path d="M519.257,623.525v-1.59l.313-.241V620.8l-.241-.265v-.361l.795-.361.12-.867-.723-1.2-.048-1.277-.217-.554-.867-.457-.241-.771.313-.578.193-1.421-.434-.963-.674-.843-.482-.433" transform="translate(-486.588 -566.309)" fill="none" stroke="#eaecff" stroke-width="0.5"/><path d="M685.674,819.361c-.064,0-1.829-.08-1.829-.08l-.191.239-1.829-.064-.923-.779-.27.08-.111.254-.445.016.016-.509-.859-1.225-1.034-.207-1.893-.875h-.477l-1.925.843-.43.382-.382.032-.255-.143-.954-.191" transform="translate(-628.679 -755.157)" fill="none" stroke="#eaecff" stroke-width="0.5"/><path d="M543.792,769.5l.53.048.273.177.161.257.675.048,1.333-.048.578.337.145.273.787.177.819-.032.707.08.707.723.048.546.305,1.044.482.418.562-.064.546-.466.241-.032.129.225,1.108.546.418.53" transform="translate(-511.118 -712.289)" fill="none" stroke="#eaecff" stroke-width="0.5"/><path d="M603.829,579.762l-.606-.676.163-.443-.047-.28-.723-.21-.769-.816-.21-.559.07-.676-.187-.256-.443-.116-.466-.443-.14-.886-.28-.21-.3-.047-.326-.489v-.536l-.4-.653-1.422-1.515-.816-.489-.256.093-.28-.093-.419-.583-.559-.116-.047-.326.116-.163-.093-.676-.35-.233v-.21l1.422.07.3.326,1.1.07.42-.21.489-.629.886-.093.443-.443.14-.559v-1.049l-.909-1.026a4.76,4.76,0,0,0-.233-1.049c-.093-.047-.49-.187-.49-.187l-.676.047-.583-.653-.42-.187-.163-.326.14-1.049-.676-.466-.047-.769-.4-.466-.373.163-.3-.14-.536-.792-.07-.256v-.4" transform="translate(-557.662 -518.253)" fill="none" stroke="#eaecff" stroke-width="0.5"/><path d="M445.391,777.083l.969-.5,1.967-.7.235-.206.029-.675,1.38-.91.44-.264.264-.529-.117-1.175.352-.264.646-.088.44-.558v-1.028l.352-.5.558-.529.558-.294" transform="translate(-420.807 -711.7)" fill="none" stroke="#eaecff" stroke-width="0.5"/><path d="M327.525,825.294l.147.235.529.264,1.057.029.352.176.7.323,1.057.235.206.176v.382l.235.529.793.675.5.206,1.615.147.206.147h.587l.264-.294h.617l.117.206.675.176" transform="translate(-312.632 -763.493)" fill="none" stroke="#eaecff" stroke-width="0.5"/><path d="M227.978,1295.818l.734-.16.607-.064.83-.319,1.022-1.022,1.916-.99.607-.256,2.107-2.459.83-.447.766-1.086,1.6-.99,1.15-.191" transform="translate(-221.269 -1188.006)" fill="none" stroke="#eaecff" stroke-width="0.5"/><path d="M326.385,869.167l-.8.83-.575.16-.287.287-.1.894-.447,1.341-.383.958.032.511.287.383.255.926-.064,1.086-.192.128v.287l.479.575.1.7-.032,1.022-.16.1.192.447-.032,1.469-.287.607-.16,1.086.287.671.7.479.1.83-.319.287-.575.128-.192.415-.224,1.437-.287.99-.479-.1-.99.766-.83.351-.862-.128-.319.351-.128.926-.224.16v.192l.734.671.16,1.213-.543.255-.894,1.373-1.4.7-.862.16-1.086,1.309-.224.926v1.054l.447.16.351.447.479.032.511-.383h.7l.287.383h.607l.415-.351.447-.032.1.415,1.086.894.16.7-.415.415-.447.1-.319.511.511.83.064.255-.064.8" transform="translate(-301.826 -803.758)" fill="none" stroke="#eaecff" stroke-width="0.5"/><path d="M385.121,1251.18H383.73l-1.249.6-.937.6-.113,1.107-.17,1.051-2.754.937-1.363-.255-.823-.426-.4-.539-1.277-.085" transform="translate(-355.878 -1154.364)" fill="none" stroke="#eaecff" stroke-width="0.5"/><path d="M618.892,1364.545l-.568-.227-.483-.369-1.022-.227-.369-.426-.114-.568-1.022-.71" transform="translate(-576.761 -1256.09)" fill="none" stroke="#eaecff" stroke-width="0.5"/><path d="M502.024,1251.14l.389.6.026.415.571.233.285.286.415.026,1.064-.519h1.193l.259.078.441.1.519-.311,1.064-.078.182-.155h.467l.182.233.856.311v.285l-.234.83-.13.259-.052.6.337.26.285,1.089.078,1.323.337.286.571.182.208.83-.1.545.13.778v.623" transform="translate(-472.784 -1154.327)" fill="none" stroke="#eaecff" stroke-width="0.5"/><path d="M505.918,1102.35l-.116,1.005-1.276,1.161-.619.426-.425.774-.077,4.255-.193,1.393-.89,1.625-1.276,1.586" transform="translate(-471.885 -1017.77)" fill="none" stroke="#eaecff" stroke-width="0.5"/><path d="M413.538,1094.387l.619.7.5-.077.271-.426.735.077.348.155.89.039.851-.542h.193l.348.193.812-.039.193-.309.658-.271h.387l.464.735v1.431l-.425.812-.039.464.542.348.116.774.232.155.232-.348h.387l.116.271.735.232h.425" transform="translate(-391.573 -1010)" fill="none" stroke="#eaecff" stroke-width="0.5"/><path d="M430.413,930.592l-.89-.5h-.774l-.851-.309-.542-.619-.851-.541.116-.464.232-.193.193-.851-.541-.89-.851-.039-.658-.542-.464-.039-.619-.619-.5.348-.425.077.232.5-.387.232-1.083-.155-.542.348-1.083.193" transform="translate(-397.618 -854.986)" fill="none" stroke="#eaecff" stroke-width="0.5"/><path d="M537.862,1001.44l-.348-.569.063-1.012.98-.38.063-.633-.569-1.233L535.9,996.38l-.063-.98.474-1.455.316-1.455" transform="translate(-503.818 -916.942)" fill="none" stroke="#eaecff" stroke-width="0.5"/><path d="M555.8,827.472l-.19,1.138-.727.633-1.708.284-.886-.158-.759.506v.791l-.095.633-.727.664-.538.664v.791l-.411.917-1.328,1.581-1.2,1.044-.791.98v.569l-.443,1.518-.538,1.075" transform="translate(-512.644 -765.491)" fill="none" stroke="#eaecff" stroke-width="0.5"/><path d="M571.079,1126.737l-.368-.409v-.818l-.409-.531v-.286l.9-.531.286-.572,1.349-.776.082-.45-.368-.776.2-.613.368-.409.082-.654-.245-.245-.613.082-.736-.368-.45-.94.082-.94.123-.736-.082-1.021-.736-.818-.245-.981.327-.49.041-.368-.654-.736-.041-.817-.613-.532v-.449l.245-.45-.245-.491-.654-.245-1.1.041v-.613l.368-.94-.041-.327-.45-.654-.49-1.267.245-.654.245-.2v-1.062l-.286-.164-.858.49h-.613l-.572-.49-.286-1.226-.572-.449-.654-.041-.858.327h-2.166l-.858-.531" transform="translate(-525.771 -1017.083)" fill="none" stroke="#eaecff" stroke-width="0.5"/><path d="M495.112,1572.945l.933-.1.526.239.311.383,1.148.717.335.024.646-.215.622-.359.837-.072.526.478.335-.048.215-.311h.526l.048.191.526.12.215-.143-.143-.287-1.028-.335v-1.244l.383-.574.335-.024.287.167,1.387.167.694-.335h.574l.359-.526.048-.766-.287-.861.263-.694.718-.048.1.167h.311l.12-.6-.287-.239.12-.239.024-.263-.5-.622.048-.359.311-.263.335-.072.191.215,1.076.144.263-.167.957-.072.5.359.191.55.143.215.741.167" transform="translate(-466.44 -1443.309)" fill="none" stroke="#eaecff" stroke-width="0.5"/><path d="M469.708,1371.167l.485-.534s.291.049.291-.048v-.461l-.437-.364-.17-1.966-1.626-1.383-.146-.849v-.412l.267-.583.825-.631.7-.121.485-.437.315-1.116.922-1.116.728-.461.995-.825.922-.461,1.868-.121.655.582.388.34.776.073s.582-.121.679-.146,1.238-.17,1.238-.17l.34-.437" transform="translate(-441.655 -1253.573)" fill="none" stroke="#eaecff" stroke-width="0.5"/><path d="M490.644,1518.1l.315-.534.218-.995-.412-.121-.388.388h-.219l-.121-.194h-1.165l-.752-.607v-.34l.146-.315-.049-.971-.315-.364-.1-.437.291-.607.631-.1.243-.9-.34-.437v-.413l.51-.315.437.388.1.413.534.121.315-.291v-1.019l-.9-.849-.243-.728.34-.34.364-.8.073-1.116-.17-.388.485-.582.073-.34.874-.145.1-.485-.51-.218-.631-.485.073-.437.194-.146.073-.607-.34-.364-.51.17-.17.437-1.407.485-.218-.17-.146-.437-.34-.34" transform="translate(-459.533 -1384.952)" fill="none" stroke="#eaecff" stroke-width="0.5"/><path d="M245.072,1443.365l.679-.658.637-.247.247.123.473-.062.843-1.254a9.008,9.008,0,0,1,.925-.658c.082,0,.72-.062.72-.062l.062.164.267-.041.535-.411-.062-.391-.9-.37-.432.061-.576.391-.6.061-.267-.288.226-.329h.247l1.6-.493.74-.411,1.11-.205s.884-.432.966-.452.9-.206.9-.206l.555.206.514.226.185.247-.021,1.193.473.74,1.11.452.206.329-.082.37s-.1.637-.1.72a3.237,3.237,0,0,0,.411.555h.822l.267.062,1.213.062.432.555.164.411.74.473h.74l.514-.37.041-1.172.925-.185.576.391.555.185.7.205.7-.165" transform="translate(-236.957 -1325.484)" fill="none" stroke="#eaecff" stroke-width="0.5"/><path d="M318.75,1654.676l-1.5-.024-.679-.445h-.211l-.515.281-.562-.047-.4-.3-1.779-.07-.491.351.094.748-.468.655-.421.3-1.9.023-2.317-.7-.538-.538-.3.024-.468.562-.936.281-.749-.258-.655-.936-.445-1.053-.351-.141-.562-.047-.351-.328-.211-.375-.538-.164-.445.258-.281.8h-.468v-.421l.234-.585.351-.141.257-.538-.023-.211-.351-.4" transform="translate(-287.653 -1521.529)" fill="none" stroke="#eaecff" stroke-width="0.5"/><path d="M351.985,1710.29l.079,1.182.355,1.143.394.434-.433.473-1.1.473-.236.512.236.552,1.221.394.118.67-.394,1.182-.552,1.5.394,1.221-.079,1.694-.906,1.142-.2,1.143.158.591.276.079.709-.551.276.118.394,1.1-.039.788-.512.157-.552-.354H350.33l-.827-.118-1.418.394-.709.591-1.024.157-.67.749-.2,1.221-1.182.985-.236.67.355.433h1.537l.591.355.118.749-.473.985.079.788.512.906s.236.276-.118.552-.433.354-.433.354" transform="translate(-327.812 -1575.728)" fill="none" stroke="#eaecff" stroke-width="0.5"/><path d="M522.462,1705.34l-.545-.988-.238-1.226-.647-.307h-.545l-.443.307-.579-.341-.886-.273-.443.307-1.294-.2-.307-.239v-1.124l-.817-.647-2.521.034-.477.153-1.7-1.346.375-.307.034-.579-1.5-.2-.715-.681.2-.409v-1.09l.715-.579.511-.239.2-.647-.375-2.282" transform="translate(-479.38 -1559.336)" fill="none" stroke="#eaecff" stroke-width="0.5"/><path d="M570.453,1832.95l2.759.1.818-.511.75-.136,1.226-.988v-.715l-.75-.307-1.192.375-1.669.136-1.124.307-.715.477-.511.1-.341.409.068.307Z" transform="translate(-534.899 -1685.958)" fill="none" stroke="#eaecff" stroke-width="0.5"/><path d="M448.8,1832.818l.574.507.237.574.406.3h.473l.3.372.034.507.574.237.845-.406.169-.845h.405l.676-.3.237-.034.27-.743-.405-.439.169-1.047.169-.372.1-.439.405-.169.135-.507.912-.237.338.338.439-.1.2-.608-.3-.372.034-.27.372-.2-.034-.676.27-.777.406-.034.507-.406.608-.1.068.3.574.068.3.439v.439l.473.439" transform="translate(-423.934 -1682.445)" fill="none" stroke="#eaecff" stroke-width="0.5"/><path d="M637.442,1822.273l.372-.642" transform="translate(-597.068 -1677.915)" fill="none" stroke="#eaecff" stroke-width="0.5"/><path d="M839.019,852.415l.621.131.752-.229.589-.033.36.294.85.131h.72l1.5.621.589.36.785-.065,1.112-.818,1.537-.164.818-.392.621-.065.491.1" transform="translate(-782.072 -788.174)" fill="none" stroke="#eaecff" stroke-width="0.5"/><path d="M969.881,863.356l-.491-.621-1.733-.916h-.425l-.621.491-.654-.164v-1.21l-1.5-1.276-.981-.229-.72.262-.523.491-.981-.065-.458-.392-.033-1.766.981-.948.1-.589-.229-.72.393-.687.1-1.243v-.393" transform="translate(-893.8 -789.27)" fill="none" stroke="#eaecff" stroke-width="0.5"/><path d="M687.377,924.253l-.228-.714-.6-.229-1.142.771-.685-.086-.2-.828.228-.542-.657-.485-.8.171-.314-.257-.343-1.57L681.1,919.2l-.685-.086-.4.114-.286-.685-.485-.228-.685-.057.029-.457.6-1.028-.171-.714-.2-.343,1.542-3.026,1-.171,1.285-.628,1.713-1.4.485-.171h.428l.143.371-.742.942.028.657.457.4h1.6l.343.2.228.342h.343l.086-.171,1.056-.343.257-.228h.286l.2.2.657.086,1.028-.942,1.2-.514.742-.086.771-.428,1-.057.657.114.942-.4.286-1.028.085-1.513-.6-1.028.086-.485.457-.257,1.427.114.286.057.885-.228.857-.542.371-.228.286.257.285-.086.485.143" transform="translate(-634.801 -836.943)" fill="none" stroke="#eaecff" stroke-width="0.5"/><path d="M621.256,1066.206l.343.057.428-.086.485-.428.885-.314.914-.571.314-.542.086-.685.257-.371.6-.428.4-.542" transform="translate(-582.213 -981.008)" fill="none" stroke="#eaecff" stroke-width="0.5"/><path d="M609.342,913.76l-.967-.2-.787.337h-.54l-.2-.72.157-.36-.18-.54-1.012-.135-.337-.427v-.225l-.967-.81-.742.045-.427-.18v-.675l.27-.27.067-.787-.517-.225-.472.247-.54-.022-1.192-.877-1.282-.112-.562.36h-.54l-.472-.135" transform="translate(-560.956 -839.235)" fill="none" stroke="#eaecff" stroke-width="0.5"/><path d="M874.133,447.413l-1.041-.029-.318.116-.376.491-.434.174-.2-.116-.954-.491-.029-1.243-.9-.809-.347.087-.434.491-.492-.173-.9-.665-.087-.838-1.012-.463-1.156-.058-1.561.4-.52-.231-.78-.723-.116-1.156.347-.723-.087-1.1-.665-.723" transform="translate(-803.237 -409.543)" fill="none" stroke="#eaecff" stroke-width="0.5"/><path d="M820.419,172.784l-.174.52.029.4.4.376.665.029,1.041.578.318.752-.087.838-.463.462v.376l.4.376.087,1.07,1.1,1.532.116,1.3-.116.752.058.549.491.462,2.11.607.145.491-.087,1.5-.231.231.231.578-.116.636-.838.462-.694.173-.462.578.029.607-.231.723-.434.2-.26.491.058,1.07.116,1.214.434.78-.029.607-.347.723" transform="translate(-764.843 -164.629)" fill="none" stroke="#eaecff" stroke-width="0.5"/><path d="M970.779,723.877l.774-.464.928-.433.8.062.588-.371.495.062.4.557,1.516.464.557-.4,1.423-.124v-.34l-.155-.4-.588-.464-.124-.371.093-.4-.34-.124-.4.248-.588-.526.062-1.114-.124-.5-1.578-1.7h-.743l-.186.278-.433-.062-.5-.9-.279-1.362-.557-.217-.65-.062-.774-.9-.124-2.073" transform="translate(-902.546 -659.736)" fill="none" stroke="#eaecff" stroke-width="0.5"/><path d="M971.336,547.884l.729-1.167.109-.985.693-.766.292-.693-.219-1.058.584-2.116,1.022-.949.182-.584-.073-.876.4-1.24v-.985l-.62-.73-.109-.62.255-.511-.255-.766.037-.693" transform="translate(-903.511 -495.363)" fill="none" stroke="#eaecff" stroke-width="0.5"/><path d="M1119.323,565.286l-.941-.815-.69-1.066H1117l-1.066.376-1.066-.5-1.317-1.379.125-3.072-.376-.188-2.195,1.066-1.129-.314-1.332-2.006.752-.815.125-1" transform="translate(-1029.534 -515.942)" fill="none" stroke="#eaecff" stroke-width="0.5"/><path d="M1134.07,361.98l-.878-.063-1.066.752-2.571-1.567-1.693.188-2.884-.125-.815,1.129-1.63.878-1,1v.5l.753.251.125.5-.5,1.818-.564.94.5,1.317.125,1.317,2.069.564.188.878,1.442.69v.439l-.313.69.25,1.442.941,1.693v.627l-.941.125-1.5-1.567-1.442-.063-.627-.5-1.254.314-1,.752-1.207.314" transform="translate(-1038.638 -337.465)" fill="none" stroke="#eaecff" stroke-width="0.5"/><path d="M1007.77,515.474l.9-.843.568-.235.647.118,1.411-.079,1.117-.49,1-.1.373.176,1.137.02.98.784.059.745-.039.882,1.043.921" transform="translate(-936.949 -477.651)" fill="none" stroke="#eaecff" stroke-width="0.5"/><path d="M931.044,359.289l.319-.6.638-1.347,1.064-1.773,1.312-.638-.106-.6-1.241-.177-1.064-.532.036-.284.922-.213a.758.758,0,0,1,.284-.177c.142-.035,1.489,0,1.489,0s.284.355.426.355H936.4l.567-.284.532-.071.461.39.425-.213-.177-.638-.177-.319.532-.39.957-.071.354-.142-.5-1.028-.036-.78.5-.851.638.036.319.248.744-.035.425-.248.5.6.354.78.887.355.744-.284.142-1.7v-1.064l.745-.6.354-.035.213.532.6.248,1.064.071,1.028.5.355.638.071.957.213.709.177.567" transform="translate(-866.532 -324.477)" fill="none" stroke="#eaecff" stroke-width="0.5"/><path d="M891.7,164.862l-.284-.39-1.1-.142-.213-1.205.248-1.028-.319-.674.709-.567h.638a.434.434,0,0,0,.39.213h1.276v-.39l-.425-.674.248-.709.815-.284v-.319l-.319-.355-.035-.638.248-.319-.142-.957-1.028.922-.851.142-.177-.851.319-.425.071-.532-.39-.39-.993.284h-.815l-.461.177-.461-.39.425-.815v-.851l-.532-.39.248-.567v-1.17l-.248-.142.284-.532-.39-.319-.567.39h-.922l-.815-.532-.745.071-.957-.78-.39-.638-.284-.142-.106-.6-.248-.142-.6.745-1.205.213-.5-.78h-.745l-.071-.674-.567-.6-1.808.071-.851-.213-.78-.532" transform="translate(-816.271 -140.438)" fill="none" stroke="#eaecff" stroke-width="0.5"/><path d="M85.037,198.957,84.809,198l-.5-.411-.411.5h-.685v-.365l.411-.319v-.776l-.183-.274v-.639l.593-.319-.137-1.46-.319-.274-.046-.958.183-.958.411-.365-.137-.958-.319-.137-1.323.137-.411-.274-.228-.821v-.365l-.183-.319-.639-.091-.776-.639-.548-.046-.639-.456-.5-.958.046-.548.319-.639-.137-.73.365-.5.639-.319,1-1.186.046-.456.776.091.776,1.323.685.137.274.821.274-.046.319-.593v-.456l.548.046.274.548h.5l.183.5.411.091.365-.137.821.456.228.639.639-.137.137-.228.046-.365.411.137.548.411.319,1.323.639,1.278.685.548.365,1.141.776-.456.137-.593.274-.456.73-.274v-.274l1.05-.274,1.187.319.5.5,1-.046.5.274v.73l-.274.365-.091.821.456.183.091.593.821-.5s.319-.5.593-.913a1.2,1.2,0,0,1,.639-.5l.776.183.456-.548V188l-.593-.593.456-.5-.046-1.871h-.456l-.685-.274h-1.1l-.411.365-.639-.183-.183-.228-.73-.365h-.958l-1.1-.319-.639-.456h-.821l-.5-.365-.046-.548.365-.274-.091-1.141-.274-.411.137-.456.639-.821.046-.776-.411-.411.183-.684.456-.548-.091-.5-.73-.593.091-.5.319-.274.411-1.141.046-.913-.411-.73.091-.411H92.43l-.137.776-.319-.319.228-.958-.319-.365-.73-.5-.091-.639-.274-.411.274-.821.319-.091.137-.548.274-.228-.137-.73-.411-.548-.091-.958-.456-1.643.274-1.78.091-.776-.274-.365.411-.182.456.182v.5l.639-.274.319.137.091.913.411.319h1.05l.456-.365-.091-.913-.137-.639.411-.5.411-.046.913-.456.228-.685.548-.73.548-.228.685-1.232v-.411l-.274-.274.046-.228.593-.274v-.365l.319-.411-.137-.548-.274-.274.548-.319.867.183.5-.319,1.323.046.365.5.411-.091.228-.411.867-.183.411.319.183-.319,1.187.091.593.274.365-.365.958.137.913.958.913.046.958.73,1.05-.046.5-.685.73-.182.319-.639.183-1.05.5-.913-.319-.593.456-.548,1.05-.319v-.456l-.593-.365a5.7,5.7,0,0,0,.685-.867,2.62,2.62,0,0,0-.183-1l.411-.091.593.867h1.05l.958.548.456-.639-.091-.639-.548-.365-.046-.593-.639-.685-.228-.776-.411-.5.411-.73.365-.365.137-.776-.137-.867.411-.593.548-.228.639-.5.365.137.274.593h.456l.456-.639-.091-.411-1-.183-.456-.548.183-.411.821-.091.137-.365.411-.548.046-.365-.319-.274-.183-.456.5-.319-.183-.319.319-.456.639.456.411-.913.411-.137h.73l.046-.5-.183-.5v-.456l.456-.5-.319-.5-.685-.228-.365-.867v-1.323l-.183-.593.411-.5.593.091.5-.183V129l-.73-.639.411-.685.548-.5.456-1.643,1.05-.5.183-.365.365-.228,1.1.183.913-.183a3.487,3.487,0,0,0,.319-.639.656.656,0,0,1,.5-.411l.548-.137.274-.593.821-1,1.187-.137.365-.228,1.141.183.958-.365.274-1.369.365-.091.091-.821-.228-.548-.593-.228-.639-.548V117l.5-.456-.183-.548.73-.73.5-.046.456-.456-.091-.593.5-.319.685.046.776.274,1.05-.685h.365l.639-.593.319-.958v-.867l.685-.548.548.137.228-.365.137-.639.685-.411v-.958l.411-.685h.776l.228-.319.046-.913.411-.456v-.5l-.867-.456-.046-.593-.821.046-.365.73-.913-.365-.091-.411-.685.228-.821-.274-.365-.639-.046-.548-.548.137-.228.73.183.548-.319.5-.365-.091-.046-.456-.365-.5-.137-.867.183-.5-.137-.776-.73-.73-.776-.046-.73-.913.046-.867.593-.73-.274-1.6.5-1.962h.228l-.091-.456-.456-.365-.228-.5-.73-.046-.548.593h-.456l-.411-.685.274-.593.091-1.734,1-1,.365-1.141-.183-1.506-.821-.821-.776-.046-.593.958-.137,1h-.639l-.274-.365-.821-.319-1.05.046-.776-.137-.639-.913-.5-.183v-.274l.365-.137-.183-.456-.73-.365v-.639l.5-.685-.319-1.323-.456-.274-.228-1.278-1.05-.137-.365-.456-1.78-.228-.137-.274.228-.365-.319-.319-.5-.137.046-.73-.548-.867-.274-.319-.228-.867.183-.365-.274-.456-1-.183-.548-.411-.091-.5-.274-.456h-.593l-.821-.456-.228-.228-1.1.137-.821,1.05v.685l-.456.639-.593.091-.685.913-.137.958-.821.958-2.054.821h-1.1l-1.46.228-1.278-.137-.456-.365-1-.319-.821-.958-.411-.548-.274-.274-.639.183-.228.593-1.323.548-.73-.274-1.1.228-.5.867.091.593-.365.639-1.323.593-.5-.046-.593.319.046.5-.411.137-1.05-.046-.365-.639-.365-.046-1,.365-1.46-.046-.319-.411L89.1,81.494l-.639.456-.913-.456-.411-.593h-.319l-.639.593-1.369.183-1.323-.411-.274-.456-.867-.365L80.976,80.4l-.274-.274-.593.228-.319.548-1.369.685-.73-.046-.274.274-.639-.046L76.5,81.4l-.411-.091-.365-.274v-.5s-.456-.5-.685-.821a2.026,2.026,0,0,0-.913-.5l-.365-.593-.411.228-.319.456-.593.593.411,1.05.274.274.091,1.369.365.548.639.137.365.776v.73l-.958.593-1.1.958-.456,1.187-.411.046-.274.274v.548l1.05.365.183,1.323.73.365.319-.137.228-.548.958-.228.913-.958h.548l.5.593.73-.183.365.867,1.323.183.548-.456.73.046.5.411.091,1.05.639.228.183.685v.593l.867.183.365.593.73-.046.274-.228h.548l.274.5.5.548.5.046.456.913h.593l.5.365-.091.73-.319.411-.319-.274-.867,1.506L85.9,99.474l.411.548-.274.593-.548.5H84.9l-.5-.365-.685.274-.5.685-.958.183-.548-.183-1.1.593-.091.73.411,1.187-.365.73-.456.319-1.05,1.46-1.6.5-.319-.274-.685.319.046,1.369.593.685-.046,1.05-.575.455-.4.2v.527l.276.251v.477s-.326.176-.426.226-.025.452-.025.452l.276.376-.025.075h-.727l-.125-.276-.9.376-.251.552-.452.276-.151.477.125.778-.226.2-.251-.05-.276.2v.477l-.351.276-.251-.1.1-.276-.326-.226-.577.1-.351.577h-.251l-.176-.452-.351.176-.3.677-.5.075-.577.452-.452.6-.652.276v.426h-.276l-.577-.3-.251-.978.151-.452-.376-.326-1.079.1-.151-.151-.351.3.176.5.251.226-.125.376-.276-.05-.075-.276-.3-.226v-.125l-.351-.1-.3.251-.151.577-.527.276-.151.5-.326.05-.477-.4-.125-.3.05-.627-.226-.1-.477.2-.226.527-.652.477-.452.05-.477.652.276,1.3.251.3-.025,1.43-.125.477-.276.351.025.452-.4.3-.527.151-.251.351-.251-.125-.376.2.1.5.2.251-.2.1-.5.552.025.552.351.376-.2.251-.276.151-.3-.075-.3.176.1.376.452.276v.3l-.3.276.125.577-.2.3h-.552l-.226-1.154.025-.4-.351-.376-.7.075-.452.351-.1.552-.3.15-.151.4-.05,1.1-.376.552v.552l-.5.5-.426.151.025.226.2.125v.6a2.231,2.231,0,0,1-.276.552l.251.7.276.276-.1.953-.2.1v.878l-.151.351-.326.376-.075.477-.376.1-.6-.151-.075-.3h-.376l-.477.452-.351.978s.05,1.856.05,1.982a2.044,2.044,0,0,1-.2.5l-.05,1.656.477.928-.125,1.279-.125.7-.677.627.025,1.2-.276.125-.176.426-.326.4v.3l.452.451-.326.577-.376.1-.176.6-.778.953-.5.125-.8.552-1,.1-.853.727-.477.025-.828.953v.351l.3.176v.276l-.151.075-.025.9.452.3-.351,1-.452.276v.5l.426.4.125.928.677.477,1.279.075.4.5.351,1.53-.005.907-.446.178-.059.535.327.862.238.267.3,1.248.416.267-.3.356-.3-.059-.683.3-.446.356h-.505l-.505.624v.505l.505.683,1.01-.03,1.04-.683h.327l.327.178h.386l.059.772-.208.357v.772l-.356,1.723-.3.3.267.475-.059.772-.475.267.03.356.505.267.119.624.208.089-.089.654-.208.267-.475-.119-.446.356-.475.03-.356.386.089.208-.238.267-.624.208-.535-.208-.772.327-.119.208-.8.267L42.428,178l-.535.208.03.238.327.059-.032.452.453.091.091.332-.181.393-.363.03-.06.484-.212.121v.3l.7.212.181.423.786-.091.181-.423h.665l.242.514h.574l.453.393.091.937.332.212-.212.574-.181.151v.423l.121.937.212.212-.06.574-.514.453v.453l-.574.272-.574-.181-.181-.544-.393-.151-.091-.121h-.272l-.453.332H42.7l-.272.393.091.635.725.332h.725l.363-.272.574.272v.423l-.665.544.06.242.332.212v.3l-.3.121-.393-.151-.635.363-.03.212-.635.121-.212-.121-.272.121v.3l.786.06.635-.121.332.3.242.212h.332v-.423l-.272-.3.212-.212.363-.121.3-.363.6.06.332.332v.816l.242.635.846.665,1.148.544h.3l.423.3.091.876-.03.635-.272.332.363.484.453.151.3-.151.514.06,1.028.6.181.574.635.091.423-.121.363.3.272.514.786.242.6.514.06.7.212.181v.423l-.363.3-.212-.03-.233.111-.549.122-.488-.091-.488.122-.152.3-.4.03-.061.488.488.213.03.457.518.488.366.03-.183.457-.64.549h-.335l-.488.457-.122.274-.671.4h-.335l-.366.244-.427-.091-.244-.274-.122-.488.183-.335-.152-.3h-.3l-.488.244-.152.457-.3.152h-.457l-.274-.3v-.488l-.183-.3h-.274l.122-.762.274-.091-.03-.366-.549-.549-.427.274h-.335l-.457.427.03.793-.366.335-.4.061-.244-.183-.518.335-.3.884v.274l-.152.64-.823.274-.61.03-.427.488-.03.4.4.64-.244.4-.488.091-.975.914v.61l.427.732v.4l-.671.457-.335-.03-.122.366.061.823-.457.244-.4.579.183,1.28.61.366.549.762.427.823.549.61-.274.64-.762.457-.427.03-.183.427-.7.4h-.4l-.061.457.488.244.732.914.4.762.64,1.737.4.518.4-.335.366-.03.457.335.213-.03.183-.488.762-.488h1.158l.488.244.213.732.762.61.213-.183,1.128,1.067.488.183.213.366.03.732.488.366.549.213.366.579v.518l.274.3.427.152v1.128l.518.762.061,1.1.732.7H52l.213.213-.213.4-.7.427-.457.152-.091.945.091.579.975.213.332-.3.4-.058.433-.289-.058-.462-.2-.462.173-.173.116-.376.318-.058.087.26.607.4.029.376-.462.087-.087.376.058.607.318.116.116.491-.173.231h.925l.694-.462.347-.578.289.029.116.376.549.029.231-.231.116.462-.665.231-.087.665-.347.173-.145.52.491.4.173,1.734.347.578.116,1.214.549.665.029,1.589-.058.318v.26l.376.173.116.462.029.289.636.145.578.116.52-.433v-.318l.78-.318.26-.376.433-.173.116-.347.636-.029.491.52,1.04.549,1.416-.058,1.011.029.116.173,1.011.087.2-.087-.2-.491.26-.838.029-.607.549-.318.26.318.491-.145-.058-1.214.376-.607.549-.231.087-.78-.289-1.358.231-.347.376-.116.231-.347.087-.722-.173-.4.116-.318a.534.534,0,0,0,.26-.2,2.543,2.543,0,0,0,.173-.491l-.491-.491v-.665l.433-.52.116-1.1.376-.376.231.26.462-.231.4-.78.722-.173.231.173.549-.318.318-.578.838-.173.318.173.78-.029.607-.462-.173-.4.116-.722.667-1.047.918-.459.727-.765a2.157,2.157,0,0,1,.115-.765c.115-.153.956-1.071.956-1.071l.8-.115.536-.344v-.382l-.536-.383-.918-.115-.115-.306.574-.077.344-.306-.65-.421.23-.268.076.23.995.536.268-.191-.153-.689.88-1.033,1.109-.5.727.23.65-.191-.153-.306.268-.65h.8l.765-.574.344-1.186-.191-.956.574-1.033.612-.23.383.153.421-.153-.191-1.339.038-.956-.344-.918-.536-.191-.421-.8.115-.612.306-.115.077-.536-.306-.382-.65-.153-.038-.536.459-.268v-.65l-.612-.383-.115-1.109-.038-.8.612-.956.344-.115v-.344l-1.109-.536-.038-.268.383-.306.344.077.536-.459-.5-.268.344-.229.038-.306-.382-.229-.5.268-.88-.268-.115-.459-.344-.191Z" transform="translate(-38.557 -73.599)" fill="none" stroke="#eaecff" stroke-linejoin="round" stroke-width="0.5"/><path d="M525.033,583.992l-.329-.254-.41-.151-.312-.259-.423-.012-.465.16.02.329.178.4v.3l-.543-.049-.564.1-.833.063-.528-.228-.369-.383-.37-.691-.735-.18-.787.136-.567.262-.724-.168-1.381.833" transform="translate(-476.645 -541.255)" fill="none" stroke="#eaecff" stroke-width="0.5"/></g></g></svg>