<svg xmlns="http://www.w3.org/2000/svg" width="66.424" height="45.573" viewBox="0 0 66.424 45.573"><g transform="translate(-378.75 -203.808)"><path d="M705.1,324.8l-.7-.13-.838-.49-1.828.1-1.087-.461-4.228.15-.723,1.189-.868.473-.889-1.033.045.015-.045-.055h-.051v-.067h.051v-.334h.048v-.2h.051v-.134h.049V323.7h.051v-.134h.048v-.2h.052v-.2h.049V322.9h.051v-.2h.049v-.2h.05v-.134h.051v-.2h.049v-.2l.051,0v-.135h.049v-.2l.049,0v-.136h.05v-.133h.05v-.133h.05v-.133h.05v-.264h.048v-.133h.1v-.067h.05v-.2h-.05v-.134h-.05v-.265h.05v-.133h.05v-.332h.05v-.6h.051v-1.4h.049v-.731h-.049v-.4h.049v-.265h.049v-.2h.051v-.265h.05v-.066h.049v-.135h.051V315.4h.048v-.068h.052v-.067h.05V315.2h.05v-.531h-.1v-.133h-.051v-.067h-.049V314.4h-.049v-.132h-.051V314h-.05v-1.393h-.051v-1.063h-.049v-.93h-.049v-.067h-.051v-.531h.051v-.4h.049v-.135h.051v-.2h.049v-.266h.05v-.2h.049v-.4h.051v-.2h.048v-.2h.052v-.133h.05v-.134h.05v-.133h.05v-.134h.049v-.2h.049v-.134h.051v-.2h.051V306.7h.05v-.067h.1v-.066h.049V306.5h.051v-.134h.1v-.134h.05v-.066h.049v-.134h.051v-.067h.049v-.2h.052V305.7h.047v-.067h.05v-.2h.049v-.067h.051V305.3h.05v-.131h.049V305.1h.05v-.132h.051V304.9h.049v-.067h.1v-.067h.05V304.7h.049v-.132h.1v-.067h.049v-.066h.051v-.067l.049,0v-.067h.048l0-.067h.051v-.067h.049v-.068h.052v-.067h.049v-.067h.05v-.134h.05v-.066h.1v-.067h.1v-.134h.052v-.067h.05v-.067h.149v-.067h.1v.067h.05v-.134h.1l0-.068h.149v-.066h.05v-.066h.1v-.066h.1v-.068h.049v-.066h.1v-.067h.049v-.135h.051v-.067h.149v-.066h.049v-.067h.1v.067h.051v-.067h.1v-.067h.052v-.066h.048v-.132h.051v-.069h.049v-.064h.051v-.132h.149v-.067h.149v.067h.05v.066h.1v.067h.052v.064h.3v.069h.048v-.069h.052v-.131h-.05v-.066h-.05v-.067h-.051v-.2h.051v-.066h.048v-.134h.052v-.134h.05v-.131h.05v-.4l.05,0v-.131l.585.507.447.318.092.673,1.411.413,1.471.048.566.883.323,1.372.46,1.069.6.83-.1.888-.722.6-.7-.217-1.4-1.09-.652.1-.949,2.341-1.176,1.445-.4.955.178,1.138.859.823.676.083,1.916-.632,1.673-.154,1.244-.537.68.513.535.949.124,1.173-.517,1.212-1.956,1.67-.572,1.175.1,1.478.336.713,1.24.917.131.877-.508,1.087Z" transform="translate(-263.681 -76.568)" fill="#5751c8" stroke="#eaecff" stroke-miterlimit="10" stroke-width="0.5"/><path d="M92.649,189.764v.084H92.6v.134h-.05v.132H92.5v.2h-.049v.265H92.4v.664h.049v.133H92.5v.067h.051v.067l.051,0v.067h.1v.066h.1v-.066h.051v.066H92.9v-.066h.2v-.067l.049,0v-.2H92.8v-.066h-.1v-.066h-.05v-.4h.05v-.133h.051v-.066H92.8v-.134h.051v-.067H92.9v-.066h.05v-.066H93v-.066h.051v-.068H93.1v-.067h.049v-.066h.4v.066h.1v.067h.148v.068h.3v.134h.2v.066h.1v.067h.1v.067h.148v.066h.152v.066h.149v.066h.049v.066h.052l0,.066h.05v.132h.048v.067h.05v.066h.051v.134h.051v.066h.05v.066h.049v.067h.052v.065h.1v.067h.049v.066h.051v.067h.048v.134h.051v.066h.3v.067h.149v.067h.2v-.067h.449v.067h.05v.067h.05v.066h.2v.067h.349v.066h.1l0,.066h.1v.066h.05v.067h.051v.134h.051v.066h.1v.065h.2v.066h.15v.068h.55v.066h.049v.066h.051v.4h-.051v.134h-.049v.066h-.051v.066h-.1v.134h-.049v.067h-.149v.066h-.048v.134h-.052v.067h-.05v.066h-.15v.067h-.1v.067H97.83v.067h-.2v.132h-.051v.066H97.53v.067h-.05v.069h-.1V194.7h-.052v-.067h-.048v-.066h-.1V194.5h-.2v.066h-.2v.066h-.1v.136l-.049,0v.132h-.051v.067h-.2v.066h-.247v.066h-.1v.066h-.1v.067h-.1v.066h-.051v.066h-.149v.066h-.051v.066h-.049v.2h-.051v.067H95.44v.066h-.052v.067h-.049v.068h-.05v.4h-.051v.067H95.09v-.067h-.05v-.066h-.051v-.2h.051v-.066h.05v-.2h-.35v.067h-.246v-.067h-.051v-.133h-.05v.067h-.051v.066h-.1v-.066h-.149v-.067h-.051v-.068h-.1v-.133h.051v-.066h.049v-.268h-.049v-.066h-.5v.066h-.1v.067h-.1v.066h-.05v.066H93.2v.066h-.05v.066H92.9v-.066h-.3v-.134h-.152v-.066h-.2v-.067H92.2v.134h-.049v.066H92v.066h-.2v.066h-.05v.066H91.7v.066h-.1v.068h-.1v.067h-.05v.066h-.1v.067h-.644v-.067h-.152v-.066h-.1v-.067h-.1v-.068h-.2v-.066h-.2v-.066h-.3v-.066h-.4v-.066h-.1v-.066h-.149v-.066h-.149v-.067h-.1v-.066h-.3v-.066h-.051v-.066h-.049v-.067h-.051v-.066h-.1v-.2h-.051v-.066h-.049V194.5h-.051v-.066h-.1v-.067h-.1V194.3h-.1v-.067H87.62v-.066h-.3V194.1h-.2v-.067h-.45v-.067h-.747v.067h-.3v.067h-.15v.067h-.148v.066h-.249v.067h-.2v.067h-.1v.067h-.049v.066h-.149v.066h-.051v.134H84.48v.069l-.1,0v.066h-.049v.133h-.051v.265h-.048v.2h-.052v.2h.052v.333h.049v.2l.051,0v.07h.349v.066h-.051v.132h-.15v.067h-.1v.067h-.149v.066h-.051v.067h-.049v.068h-.051v.066h-.1v.066l-.052,0v.134h-.248v-.067h-.15v-.265h-.048v-.333h-.249v.067h-.051v.134h-.1v.066h-.3v.067h-.052v-.067h-.2v.067h-.2v.068h-.3v.066h-.149v.066l-.2,0v.067h-.048v.067h-.2v.067h-.149v-.067h-.052v-.067h-.048v-.067l-.049,0v-.066h-.1v-.066h-.1v-.068H80.9v-.132h.049v-.067H81v-.2h.051v-.4H81v-.133h-.049v-.132H80.8v-.066h-.051v-.133H80.7v-.066h-.1v-.066h-.049v-.066H80.5v-.067h-.049v-.066H80.4v-.066h-.1v-.066h-.152v-.067H80v-.065l.157-1.154.706-1.669.494-.93.937-.631,2.879-.569,1.563-.719.785-.963.871-.128,1.73.656,2.419,1.083Z" transform="translate(299 16)" fill="#5751c8" stroke="#eaecff" stroke-miterlimit="10" stroke-width="0.5"/></g></svg>