<svg xmlns="http://www.w3.org/2000/svg" width="111.976" height="120.5" viewBox="0 0 111.976 120.5"><g transform="translate(146.923 126.575)"><path d="M97.394,120a3.629,3.629,0,0,1-1.557-.437,4.522,4.522,0,0,1-1.039-.706.154.154,0,0,0-.11-.03,1.381,1.381,0,0,0-.191.021H94.49a1.328,1.328,0,0,1-.2.023.185.185,0,0,1-.082-.014,7.41,7.41,0,0,1-1.178-.785c-.025-.025-.094-.113-.18-.225l0-.005a11.157,11.157,0,0,0-.8-.948c-.082-.082-.041-.29,0-.49h0c.04-.2.082-.408,0-.49a2.571,2.571,0,0,0-.537-.355,2.949,2.949,0,0,1-.641-.431c-.1-.1-.048-.347,0-.589s.1-.49,0-.589a.3.3,0,0,0-.22-.068,2.612,2.612,0,0,0-.475.072h-.005l-.071.015a3.367,3.367,0,0,1-.672.089,1.139,1.139,0,0,1-.52-.109,4.866,4.866,0,0,1-1.374-.982,1.818,1.818,0,0,1-.264-.414h0a3.077,3.077,0,0,0-.52-.762c-.147-.147-.073-.522,0-.883s.147-.736,0-.883a.8.8,0,0,0-.346-.083h0a.918.918,0,0,1-.437-.113.211.211,0,0,1-.032-.25c.036-.108.072-.221-.164-.339a.372.372,0,0,0-.167-.04,1.108,1.108,0,0,0-.626.357,1.361,1.361,0,0,1-.385.272,7.983,7.983,0,0,1-1.354.092,1.839,1.839,0,0,1-.8-.092,3.434,3.434,0,0,0-.922-.587h0a2.581,2.581,0,0,1-.648-.395,3.158,3.158,0,0,1-.436-.831l0,0c-.049-.118-.1-.251-.15-.342a6.317,6.317,0,0,0-.962-.98c-.108-.1-.181-.163-.216-.2a.633.633,0,0,0-.323-.044c-.215,0-.487.02-.667.033h-.018c-.083.006-.144.01-.169.01-.152,0-.318,0-.479-.008h-.019c-.184,0-.373-.009-.569-.009a6.153,6.153,0,0,0-1.254.107,1.982,1.982,0,0,0-1.016.5,1.922,1.922,0,0,0-.2.246,1.494,1.494,0,0,1-.587.538,1.252,1.252,0,0,0-.391.391v0a1.246,1.246,0,0,1-.392.392,5.944,5.944,0,0,1-1.871.219c-.356,0-.645-.014-.68-.023-.3-.075-.431-.12-.429-.147s.07-.028.15-.038h0c.108-.014.231-.029.239-.076s-.046-.076-.157-.131a.2.2,0,0,0-.089-.019.737.737,0,0,0-.2.04l-.009,0a.711.711,0,0,1-.18.037.111.111,0,0,1-.11-.061,3.66,3.66,0,0,0-.245-.469h0a.112.112,0,0,0,0,.039v.008c0,.011,0,.024,0,.036,0,.04,0,.064-.009.076a.023.023,0,0,1-.018.007c-.025,0-.069-.031-.13-.091-.123-.123-.117-.5-.109-.935h0c.011-.695.026-1.559-.479-1.811a.919.919,0,0,0-.462-.09,1.038,1.038,0,0,1-.52-.106c-.071-.036-.092-.118-.114-.2a.4.4,0,0,0-.083-.188.391.391,0,0,0-.2-.076c-.1-.02-.193-.038-.193-.121,0-.016.014-.024.044-.024a.484.484,0,0,1,.1.015l.032.008.03.007h0l-.009-.005a6.516,6.516,0,0,0-2.547-.959h0c-.292-.05-.656-.113-1.181-.218A7.107,7.107,0,0,1,62.525,103h0l-.006,0a4.969,4.969,0,0,0-.687-.234c-.227-.045-.445-.1-.656-.152h0a6.012,6.012,0,0,0-1.5-.24,2.259,2.259,0,0,0-.479.087h0a2.253,2.253,0,0,1-.478.087.268.268,0,0,1-.158-.038.155.155,0,0,1-.06-.137c0-.014.011-.021.034-.021a.408.408,0,0,1,.09.016l.017,0h0a.3.3,0,0,0,.054.012s.005,0,.006,0,0,0-.006-.01a2.716,2.716,0,0,0-1.11-.61l-.007,0c-.147-.052-.3-.107-.453-.173a17,17,0,0,1-2.111-1.05c-.006.043-.024.069-.047.069-.052,0-.081-.048-.112-.1a.247.247,0,0,0-.085-.1,1.806,1.806,0,0,0-.741-.1c-.352,0-.756.033-1.112.062-.283.023-.527.043-.7.043-.087,0-.186,0-.307-.01s-.266-.012-.405-.012a1.286,1.286,0,0,0-.857.218.069.069,0,0,0-.025.069c.029.11.377.2.607.261h0a.966.966,0,0,1,.2.062c.2.2.2.458.2.847,0,.043,0,.088,0,.134,0,.765-.045,1.584-.092,2.452-.051.928-.1,1.888-.1,2.847,0,.075.014.232.032.43a4.326,4.326,0,0,1-.031,1.729,5.886,5.886,0,0,0-.517,1.858v0a4.437,4.437,0,0,1-.267,1.083,1.551,1.551,0,0,0-.169.255l0,0a1.833,1.833,0,0,1-.223.33.913.913,0,0,1-.439.114.8.8,0,0,0-.346.082c-.534.534-.613.593-1.213.593h-.219l-.334,0c-.041,0-.135.007-.274.018-.249.02-.589.046-.866.046a.8.8,0,0,1-.431-.065,4.709,4.709,0,0,0-.51-.4h0l0,0a1.934,1.934,0,0,1-.467-.386c-.029-.086-.052-.157-.072-.22l0-.01a1.137,1.137,0,0,0-.436-.674l-.042-.042-.034-.034c-.066-.066-.032-.232,0-.393s.065-.327,0-.393a5.8,5.8,0,0,1-.588-1.562v-.007a.526.526,0,0,0-.293-.1.529.529,0,0,1-.3-.1,1.014,1.014,0,0,1-.1-.485v-.005a1.026,1.026,0,0,0-.1-.492.174.174,0,0,0-.129-.058.4.4,0,0,0-.117.025h0a.385.385,0,0,1-.121.026c-.084,0-.153-.06-.218-.19a2.345,2.345,0,0,1-.174-.53h0a2.779,2.779,0,0,0-.218-.646,1.3,1.3,0,0,0-.321-.366,1.4,1.4,0,0,1-.464-.616.362.362,0,0,1,.008-.183h0a.267.267,0,0,0-.008-.208c0-.006-.138-.093-.307-.2l-.026-.016c-.333-.216-.789-.511-.844-.566a1.952,1.952,0,0,1-.295-.882h0v0a1.952,1.952,0,0,0-.294-.881c-.071-.071-.145-.143-.217-.213a4.575,4.575,0,0,1-.96-1.161.281.281,0,0,1,.009-.19c.021-.078.041-.152-.009-.2a.3.3,0,0,0-.256-.112h0a.66.66,0,0,1-.332-.084,1.523,1.523,0,0,1-.458-.644v0a2.213,2.213,0,0,0-.326-.529,1.607,1.607,0,0,0-.258-.17,1.88,1.88,0,0,1-.331-.222,2.145,2.145,0,0,1-.257-.61h0l0-.01a3.318,3.318,0,0,0-.131-.359,3.021,3.021,0,0,0-.986-1.076h0a5.887,5.887,0,0,1-.582-.493.974.974,0,0,1-.1-.292v-.006a.975.975,0,0,0-.1-.291,2.674,2.674,0,0,0-.466-.22c-.484-.2-1.216-.511-1.3-.762a1.277,1.277,0,0,1,.011-.56,1.088,1.088,0,0,0-.011-.617c-.117-.235-.17-.326-.189-.326l0,0c-.007.007-.006.033,0,.07,0,0,0,.009,0,.014s0,.019,0,.029a.162.162,0,0,1-.023.1.036.036,0,0,1-.026.011c-.032,0-.082-.033-.147-.1-.032-.032-.726-1.785-.785-1.963a.241.241,0,0,0-.017-.188.088.088,0,0,0-.072-.028.492.492,0,0,0-.125.025h0a.467.467,0,0,1-.116.024.059.059,0,0,1-.059-.03A.422.422,0,0,1,31,91.594c.166-.363.889-.545,1.368-.665a1.5,1.5,0,0,0,.42-.135,2.658,2.658,0,0,0,.443-.716l0,0a3.086,3.086,0,0,1,.537-.85,5.344,5.344,0,0,1,1.444-.745h0a2.868,2.868,0,0,0,.516-.235c.049-.049.03-.123.009-.2h0a.28.28,0,0,1-.009-.191c.02-.041.053-.1.085-.156v0a4.565,4.565,0,0,0,.347-.73c.106-.32.093-.549-.04-.683A4.959,4.959,0,0,0,33.967,86h0a9.191,9.191,0,0,1-1.569-.11c-.55-.138-.961-.255-1.374-.392a.149.149,0,0,0-.047-.007.606.606,0,0,0-.151.028l-.01,0a.575.575,0,0,1-.128.025.062.062,0,0,1-.04-.011.046.046,0,0,1-.015-.039c0-.134.19-.224.392-.32a.868.868,0,0,0,.394-.27,3.42,3.42,0,0,0,.051-.7,2.251,2.251,0,0,0-.051-.673.324.324,0,0,0-.238-.089,2.513,2.513,0,0,0-1.088.521,2.727,2.727,0,0,1-.244.157c-.271.136-.227.409-.185.674a.87.87,0,0,1-.011.5.785.785,0,0,1-.2.1,1.034,1.034,0,0,0-.192.094c-.19.19-.157.806-.125,1.4a3.488,3.488,0,0,1-.071,1.346.614.614,0,0,1-.264.3h0a.645.645,0,0,0-.128.1c-.048.049-.028.181-.008.309v0a.6.6,0,0,1,.007.278,10.287,10.287,0,0,1-.785,1.374,3.218,3.218,0,0,1-.428.34l0,0h0a3.93,3.93,0,0,0-.548.441.524.524,0,0,0-.1.294v0a.529.529,0,0,1-.1.293.089.089,0,0,1-.063.019.718.718,0,0,1-.132-.019H26.5a.73.73,0,0,0-.126-.017.09.09,0,0,0-.065.019c-.226.226-.579.521-.89.781l-.01.009c-.271.227-.527.441-.669.583a.277.277,0,0,1-.2.055,2.334,2.334,0,0,1-.33-.036h0l-.01,0a2.277,2.277,0,0,0-.316-.034.4.4,0,0,0-.126.016,5.918,5.918,0,0,1-1.606.294,1.266,1.266,0,0,1-.552-.1c-.155-.077-1.476-.888-1.57-.981a.623.623,0,0,1-.163-.3.393.393,0,0,0-.229-.292.147.147,0,0,0-.066-.014.508.508,0,0,0-.123.022h0a.486.486,0,0,1-.119.022.111.111,0,0,1-.083-.031c-.065-.066-.032-.232,0-.393s.066-.327,0-.392l-.224-.224-.488-.488-.269-.269a11.2,11.2,0,0,1-.973-3.39,9.665,9.665,0,0,1-.2-3.674,10.07,10.07,0,0,1,2.8-2.729A20.48,20.48,0,0,0,21.8,78.824c.164-.164.131-.53.1-.884s-.065-.719.1-.882a.659.659,0,0,0,.146-.584,1.467,1.467,0,0,1,.05-.594,2.1,2.1,0,0,1,.508-.52h0l.008-.007c.036-.03.062-.051.072-.061.2-.2.065-1.345,0-1.826a6.962,6.962,0,0,0-.389-1.706c-.176-.176-.106-.7-.039-1.206v0a2.736,2.736,0,0,0,.038-.949.991.991,0,0,0-.528-.591,1.254,1.254,0,0,1-.454-.389c-.118-.178-.233-.387-.354-.608v0a4.541,4.541,0,0,0-.626-.96.529.529,0,0,0-.385-.113,4.414,4.414,0,0,0-.79.113h-.011a4.461,4.461,0,0,1-.785.111.526.526,0,0,1-.384-.113c-.25-.25-.061-.93.077-1.427a2.7,2.7,0,0,0,.119-.536,4.919,4.919,0,0,1,.392-1.569,31.74,31.74,0,0,0,.039-5.224c-.022-.662-.039-1.185-.039-1.449a4.159,4.159,0,0,0-.111-.675v0c-.084-.4-.17-.807-.085-.892A3.312,3.312,0,0,0,19.05,54.1c0-.29.625-1.017.784-1.177a1.932,1.932,0,0,0,.063-.566v-.008a4.738,4.738,0,0,1,.06-.678,9.351,9.351,0,0,1-.908-1.1,9.032,9.032,0,0,1-.539-.979l0,0a6.97,6.97,0,0,0-.71-1.214,2.014,2.014,0,0,0-1.1-.748,3.67,3.67,0,0,1-1.57-1.569.28.28,0,0,1,.009-.19v0c.021-.078.041-.152-.009-.2a6.074,6.074,0,0,0-1.741-1.03h0a5.612,5.612,0,0,1-1.594-.932.282.282,0,0,0-.21-.076,1.258,1.258,0,0,0-.256.039h0a1.3,1.3,0,0,1-.267.04l-.05,0c-.183-.02-.365-.058-.541-.094a5.215,5.215,0,0,0-.635-.1c-.111-.009-.293-.01-.532-.01H8.757c-.574,0-1.238-.007-1.814-.058a2.276,2.276,0,0,1-1.238-.325c-.05-.049-.024-.174,0-.295s.05-.245,0-.294a11.373,11.373,0,0,1-.979-1.082,7.572,7.572,0,0,1-.788-1.273,1.422,1.422,0,0,1-.1-.576h0a1.462,1.462,0,0,0-.1-.6,1.945,1.945,0,0,0-.782-.781,1.955,1.955,0,0,1-.788-.788A2.1,2.1,0,0,1,2.2,36.391c.077-.466.157-.947-.029-1.133a1.668,1.668,0,0,0-.428-.291,1.1,1.1,0,0,1-.552-.494,1.838,1.838,0,0,1,0-1.079,1.841,1.841,0,0,0,0-1.08,1.8,1.8,0,0,0-.844-.742h0a.815.815,0,0,1-.332-.238c-.113-.226.466-.664.931-1.016h0a5.112,5.112,0,0,0,.443-.357,5.529,5.529,0,0,1,.945-.717,3.942,3.942,0,0,0,.625-.46c.7-.7,1.358-1.464,1.993-2.2l0-.006c.6-.693,1.162-1.347,1.729-1.915a.926.926,0,0,1,.556-.119h0a.766.766,0,0,0,.424-.077.5.5,0,0,0,.1-.2h0a.493.493,0,0,1,.1-.2,3.379,3.379,0,0,1,1.453-.265,1.3,1.3,0,0,1,.509.069,10.691,10.691,0,0,1,2.354,1.766.121.121,0,0,0,.082.018,1.736,1.736,0,0,0,.21-.021h.008a1.688,1.688,0,0,1,.2-.021c.048,0,.076.008.085.025a7.174,7.174,0,0,0,.981,1.57.988.988,0,0,0,.293.1h0a.987.987,0,0,1,.294.1,3.31,3.31,0,0,1,.546.826,3.723,3.723,0,0,0,.631.94,5.709,5.709,0,0,0,.524.434l0,0a6.693,6.693,0,0,1,.649.543.91.91,0,0,1,.164.426,1.125,1.125,0,0,0,.229.555.175.175,0,0,0,.127.037,1.47,1.47,0,0,0,.259-.036h.006a1.466,1.466,0,0,1,.264-.038.176.176,0,0,1,.128.038,6.581,6.581,0,0,1,.452,1.069v0c.1.271.188.5.234.6l.1.1a16.219,16.219,0,0,1,1.682.124,11.627,11.627,0,0,0,1.251.1,3.2,3.2,0,0,0,1.193-.2,3.4,3.4,0,0,0,1.172-.8c.065-.066.115-.1.147-.1s.049.061.049.114v.023c0,.007,0,.014,0,.02,0,.038,0,.063,0,.07l0,0c.019,0,.072-.091.189-.326a6.607,6.607,0,0,0,.29-2.812v0a18.45,18.45,0,0,1,.028-2,5.119,5.119,0,0,1,.468-1.855,1.72,1.72,0,0,0-.024-.839v0c-.063-.38-.128-.774.024-.925a.061.061,0,0,1,.041-.009,4.978,4.978,0,0,1,.819.213l.008,0a4.514,4.514,0,0,0,.7.186,1.6,1.6,0,0,1,.537.089h0a3.18,3.18,0,0,0,.442.107,1.073,1.073,0,0,0,.171.011c.209,0,.511-.032.831-.067H28.7l.064-.007c.354-.038.725-.075,1.029-.075a.968.968,0,0,1,.64.138,3.264,3.264,0,0,0,1.479.645h0a2.88,2.88,0,0,1,1.268.533.366.366,0,0,0,.267.087,2.6,2.6,0,0,0,.749-.182h0a1.553,1.553,0,0,1,.357-.1c.412,0,.464-.888.506-1.6v0a3.853,3.853,0,0,1,.083-.751,21.424,21.424,0,0,0,.134-3.311v-.012a12.717,12.717,0,0,1,.062-1.976c.1-.1.17-.143.226-.143s.081.035.114.073l0,0a.167.167,0,0,0,.125.077c.075,0,.178-.067.317-.206,0-.334.072-.43.321-.43.085,0,.187.01.317.024l.147.015a2.724,2.724,0,0,1,1.006,2.105,17.373,17.373,0,0,1,.016,2.869c-.019.382-.039.778-.04,1.11,0,.081-.011.194-.022.314v.017h0a2.011,2.011,0,0,0,.024.844,2.325,2.325,0,0,0,1.021.728h0a3.129,3.129,0,0,1,.743.449,1.069,1.069,0,0,0,.586.09c.368,0,.824-.036,1.157-.063h0c.192-.015.344-.027.414-.027.04,0,.136.008.259.018h0c.236.019.594.049.875.049a.8.8,0,0,0,.436-.067l.1-.1.013-.013c1.075-1.058,1.63-1.614,1.648-1.65a1.8,1.8,0,0,0,.064-.712c-.008-.35-.015-.711.132-.858a2.379,2.379,0,0,0,.5-1.359,13.838,13.838,0,0,0,.088-1.781,5.959,5.959,0,0,0-.222-1.183v0a2.83,2.83,0,0,1-.17-1.17l.06-.121a3.065,3.065,0,0,1,.922-1.253.673.673,0,0,1,.276-.082.534.534,0,0,0,.312-.114,1.522,1.522,0,0,0,.187-.758v0a1.612,1.612,0,0,1,.2-.807l.212-.212.5-.5.273-.273.59-.59a6.1,6.1,0,0,1,2.193-.5,30.918,30.918,0,0,1,3.506-.234,5.875,5.875,0,0,1,1.562.14,1.59,1.59,0,0,1,.693.492c.033.036.063.068.092.1a.152.152,0,0,0,.109.03,1.4,1.4,0,0,0,.195-.021h0a1.353,1.353,0,0,1,.2-.022.19.19,0,0,1,.085.015c.113.057.265.142.426.232a6.27,6.27,0,0,0,2.486.97.841.841,0,0,0,.619-.221,3.837,3.837,0,0,0,.357-.818v0a3.14,3.14,0,0,1,.23-.552,2.625,2.625,0,0,0,.694-2.672h0A2.573,2.573,0,0,1,62.615,7a22.326,22.326,0,0,1,3.14-4.71,1.544,1.544,0,0,0,.188-.474h0a2.387,2.387,0,0,1,.4-.9c.065-.065.032-.232,0-.392s-.066-.327,0-.393A.46.46,0,0,1,66.682,0c.688,0,1.775,1.066,1.82,1.111a.109.109,0,0,0,.082.031.481.481,0,0,0,.118-.022h0a.506.506,0,0,1,.123-.022.145.145,0,0,1,.066.014,5.549,5.549,0,0,1,1.374,1.663v0c.068.1.134.2.2.3a24.889,24.889,0,0,1,.971,3.371,16.134,16.134,0,0,1,.6,3.3,14.848,14.848,0,0,0-.634,1.906c-.279.979-.565,2.1-.805,3.164-.277,1.222-.476,2.288-.576,3.082-.12.946-.1,1.5.053,1.66a2.636,2.636,0,0,0,1.674.331c.578,0,1.2-.042,1.755-.08h.013c.43-.029.8-.054,1.072-.054a7.017,7.017,0,0,1,.875.124,11.161,11.161,0,0,0,1.68.21.859.859,0,0,0,.584-.137c.065-.065.032-.232,0-.393s-.066-.327,0-.393a4.214,4.214,0,0,1,.443-.348,4.016,4.016,0,0,0,.931-.829.243.243,0,0,0-.005-.194h0c-.022-.077-.043-.15.005-.2a.1.1,0,0,1,.071-.027.453.453,0,0,1,.122.026h0a.45.45,0,0,0,.124.027.1.1,0,0,0,.073-.027,4.638,4.638,0,0,0,.155-.555v0a5.461,5.461,0,0,1,.237-.817,3.3,3.3,0,0,1,2.009-.375,36.753,36.753,0,0,1,4.126.333l.044.005.3.036a1.265,1.265,0,0,0,.14.007c.163,0,.366-.021.58-.043l.038,0c.241-.025.474-.047.68-.047a1.2,1.2,0,0,1,.524.088,12.855,12.855,0,0,1,2.747,1.963.739.739,0,0,0,.49.1.743.743,0,0,1,.491.1c.046.046.021,2.341.007,3.574l0,.122c0,.3-.005.528-.005.62a2.392,2.392,0,0,0,.784,1.963.086.086,0,0,0,.063.018.743.743,0,0,0,.128-.017h.009a.721.721,0,0,1,.129-.018.088.088,0,0,1,.064.019c.166.166.183.4.05.726a4.188,4.188,0,0,1-.455.76v0a2.813,2.813,0,0,0-.182.278c-.041.082-.076.155-.111.227l0,.005v0a2.442,2.442,0,0,1-.474.747c-.152.152-.11.449-.066.764.052.376.107.765-.131,1a.985.985,0,0,1-.294.1,1.017,1.017,0,0,0-.294.1.416.416,0,0,0-.086.188.336.336,0,0,1-.11.2.726.726,0,0,1-.42.108c-.046,0-.091,0-.138,0H90.5c-.059,0-.1,0-.152,0a.985.985,0,0,0-.455.1,2.571,2.571,0,0,1-1,.274.835.835,0,0,1-.375-.078c-.909-.455-.986-1.2-1.067-1.99v0a3.807,3.807,0,0,0-.307-1.343.705.705,0,0,0-.424-.326.6.6,0,0,1-.36-.263c-.012-.026-.317-.407-.381-.407-.007,0-.01,0-.01.015,0,.046.063.078.119.107h0c.042.022.083.042.086.065a.029.029,0,0,1-.01.024.113.113,0,0,1-.083.031.5.5,0,0,1-.12-.022h-.005a.494.494,0,0,0-.119-.021.139.139,0,0,0-.064.014,4.1,4.1,0,0,0-.669.739A7.739,7.739,0,0,0,84.4,27.8a1.472,1.472,0,0,0-.075.442v0a1.075,1.075,0,0,1-.122.537c-.066.066-.115.1-.147.1s-.033-.012-.041-.036a.272.272,0,0,1-.008-.078c0-.015,0-.029,0-.043a.153.153,0,0,0,0-.069l0,0c-.019,0-.071.092-.188.326a1.128,1.128,0,0,0-.07.587h0a.717.717,0,0,1-.126.589,2.574,2.574,0,0,1-.771.486h0l-.017.008-.194.094a19.418,19.418,0,0,0-1.539,1.528c-.1.1-.2.206-.228.238s-.022.123,0,.2.046.15,0,.2a2.474,2.474,0,0,1-.583.332h0a2.571,2.571,0,0,0-1.182.846,2.8,2.8,0,0,1-.881.955,5.215,5.215,0,0,0-.493.419.912.912,0,0,0-.126.623v0a1.306,1.306,0,0,1-.07.552c-.149.3-.174.3-.27.3a.694.694,0,0,0-.319.09,1.871,1.871,0,0,0-.213.418l0,0a2.255,2.255,0,0,1-.178.363,1.306,1.306,0,0,1-.717.146h0a2,2,0,0,0-.459.05,30.885,30.885,0,0,0-2.943,1.373.669.669,0,0,0,0,.393.67.67,0,0,1,0,.392c-.075.149-.125.216-.162.216s-.038-.023-.056-.047l-.006-.008a.1.1,0,0,0-.078-.056c-.064,0-.158.094-.287.288a.241.241,0,0,0,.006.195c.022.077.042.15-.006.2a.1.1,0,0,1-.072.027.45.45,0,0,1-.123-.026h0a.458.458,0,0,0-.124-.026.1.1,0,0,0-.072.027c-.048.048-.027.12-.006.2h0a.241.241,0,0,1,0,.193,4.19,4.19,0,0,1-.477.484l-.015.014-.1.091a.1.1,0,0,1-.072.027.45.45,0,0,1-.124-.027h0a.456.456,0,0,0-.124-.026.1.1,0,0,0-.072.027c-.05.05-.03.123-.009.2a.283.283,0,0,1,.009.191,2.5,2.5,0,0,1-.617.64l0,0c-.064.052-.13.107-.167.142a1.769,1.769,0,0,0-.2.605,1.684,1.684,0,0,1-.189.573.1.1,0,0,1-.072.027.448.448,0,0,1-.123-.026h0a.454.454,0,0,0-.125-.027.1.1,0,0,0-.072.027c-.049.049-.03.123-.009.2h0a.28.28,0,0,1,.009.191.518.518,0,0,1-.3.208.59.59,0,0,0-.29.185,3.929,3.929,0,0,0-.213.459h0a2.337,2.337,0,0,1-.376.717.178.178,0,0,1-.078.016.561.561,0,0,1-.115-.017h-.007a.59.59,0,0,0-.113-.016.175.175,0,0,0-.08.017,2,2,0,0,0-.086.7v.006a2.561,2.561,0,0,1-.11.859.112.112,0,0,1-.083.031.5.5,0,0,1-.12-.022h-.006a.5.5,0,0,0-.12-.021.14.14,0,0,0-.065.014,2,2,0,0,0-.4.3l0,0a1.882,1.882,0,0,1-.379.285,1.09,1.09,0,0,0-.417.511h0a1.172,1.172,0,0,1-.172.272,10.434,10.434,0,0,1-1.373.981,4.4,4.4,0,0,1-1.82.395h0a2.824,2.824,0,0,1-.755-.092,1.263,1.263,0,0,1-.563-.3,3.079,3.079,0,0,0-.3-.237l0,0c-.089-.066-.181-.134-.248-.191-.006.017-.018.038-.04.038-.125,0-.216-.095-.312-.2h0a.58.58,0,0,0-.276-.2c-.174-.035-.453-.112-.776-.2l-.008,0a9.982,9.982,0,0,0-1.947-.42.5.5,0,0,0-.214.035,4.87,4.87,0,0,0-1.177.785.649.649,0,0,0-.124.5h0a1.025,1.025,0,0,1-.073.48,4.111,4.111,0,0,1-.589.785c-.048.049-.028.181-.008.309v0a.6.6,0,0,1,.007.278,2.856,2.856,0,0,1-.588.785c-.033.033-.014.171,0,.292s.039.275,0,.3a.148.148,0,0,1-.065.013.488.488,0,0,1-.125-.023l-.007,0a.478.478,0,0,0-.113-.02.109.109,0,0,0-.083.031c-.049.049-.03.123-.009.2a.28.28,0,0,1,.009.191.066.066,0,0,1-.065.036.429.429,0,0,1-.122-.029h-.005a.446.446,0,0,0-.132-.031.089.089,0,0,0-.067.025l-.212.211-.377.378-.324.324-.265.265a.7.7,0,0,1-.322.132c-.186.046-.379.094-.462.26a10.409,10.409,0,0,0-.361,1.316,6.046,6.046,0,0,1-.228.843c-.066.066-.115.1-.147.1s-.033-.012-.041-.036a.274.274,0,0,1-.009-.078c0-.015,0-.029,0-.043a.159.159,0,0,0,0-.07l0,0c-.019,0-.072.092-.189.326a3.183,3.183,0,0,0-.233.92h0a1.873,1.873,0,0,1-.355,1.04c-.1.1-.048.347,0,.588h0c.048.24.1.489,0,.587a3.812,3.812,0,0,0-.216.695c-.072.319-.126.729.02.875.007.007.117.037.286.083a6.734,6.734,0,0,1,1.481.506.915.915,0,0,1,.113.434v0a.814.814,0,0,0,.083.348,6.014,6.014,0,0,1,1.187,2.4,11.385,11.385,0,0,0,.58,1.523,6.643,6.643,0,0,1-.008,2.29v.006a4.744,4.744,0,0,0,.009,2.022,1.7,1.7,0,0,1,.375,1.059,11.437,11.437,0,0,1,.008,1.447v0c-.029.8-.055,1.547.206,1.808l.121.127h0c.373.394,1.362,1.442,1.644,1.442a2.282,2.282,0,0,1,.679.113h0a1.412,1.412,0,0,0,.384.074,1.014,1.014,0,0,0,.7-.384,1.553,1.553,0,0,0,.259-.806v0a2.114,2.114,0,0,1,.132-.565,7.272,7.272,0,0,0,.483-1.437v0a4.532,4.532,0,0,1,.623-1.593,1.59,1.59,0,0,1,.627-.505,2.423,2.423,0,0,1,1.014-.189c.088,0,.2-.009.3-.018.123-.01.251-.021.373-.021a.984.984,0,0,1,.309.039c.094.032.218.066.361.105l.008,0h0a3.39,3.39,0,0,1,1.2.481,5.207,5.207,0,0,1,.474,1.649v.006a3.023,3.023,0,0,0,.115.5,1.241,1.241,0,0,1,.195.293,1.227,1.227,0,0,0,.2.3.089.089,0,0,0,.067.024.452.452,0,0,0,.133-.031l.007,0h0a.421.421,0,0,1,.118-.027.067.067,0,0,1,.066.037c.054.109.17.426.293.761a8.151,8.151,0,0,0,.491,1.2.1.1,0,0,0,.072.027.447.447,0,0,0,.123-.026h0a.45.45,0,0,1,.123-.026.1.1,0,0,1,.072.027.984.984,0,0,1,.092.188v0l0,.009a.754.754,0,0,0,.1.194,2.009,2.009,0,0,0,.89.184,2.649,2.649,0,0,0,.745-.1,1.249,1.249,0,0,0,.524-.275,5.1,5.1,0,0,1,1.335-.1,4.2,4.2,0,0,1,1.216.1c.246.123.2.29.163.452h0c-.031.123-.061.239.033.333.071.071.152.157.238.249l.016.017c.411.439.974,1.04,1.407,1.04a.415.415,0,0,0,.3-.128c.047-.047.023-.122,0-.2s-.046-.15,0-.2a.493.493,0,0,1,.2-.1.5.5,0,0,0,.2-.1c.162-.162.132-.7.1-1.313v0a10.141,10.141,0,0,1-.02-1.271,1.478,1.478,0,0,1,.317-.946c.115-.114.056-.406,0-.687v0c-.056-.28-.114-.57,0-.684a.1.1,0,0,1,.072-.027.454.454,0,0,1,.121.025h0a.462.462,0,0,0,.125.027A.1.1,0,0,0,74,74.506a1.714,1.714,0,0,0,.178-.217,1.029,1.029,0,0,1,.412-.373.3.3,0,0,0,.2-.294.3.3,0,0,1,.2-.295,27.316,27.316,0,0,1,4.87-.2h.821a.609.609,0,0,1,.258.113h0a.606.606,0,0,0,.256.112.1.1,0,0,0,.074-.03.627.627,0,0,0,.1-.392.621.621,0,0,1,.1-.393.1.1,0,0,1,.072-.027.446.446,0,0,1,.122.026h0a.457.457,0,0,0,.125.027.1.1,0,0,0,.072-.027c.091-.091.052-.3.014-.507a.9.9,0,0,1-.014-.475,2.836,2.836,0,0,0,.12-1.8,12.922,12.922,0,0,0-.55-1.862v0l-.008-.023c-.054-.153-.105-.3-.149-.431a.77.77,0,0,1,.009-.25v-.006c.018-.142.036-.289-.009-.333a.617.617,0,0,0-.461-.167,2.209,2.209,0,0,0-.566.1l-.072.02h0a1.628,1.628,0,0,1-.37.079.137.137,0,0,1-.1-.031c-.033-.033-.01-1.443.031-2.786.039-1.267.106-2.788.165-2.906l.008-.016h0a3.67,3.67,0,0,1,.927-1.388,3.013,3.013,0,0,1,1.812-.361c.031,0,.095-.005.168-.011.124-.01.278-.023.406-.023s.188.011.211.034c.077.077.109.131.1.162s-.067.034-.107.034h-.081c-.025,0-.036,0-.038.008s.087.071.326.19a.248.248,0,0,0,.112.022,1.054,1.054,0,0,0,.173-.021h.009a1.025,1.025,0,0,1,.181-.023.247.247,0,0,1,.114.023.548.548,0,0,1,.057.1v0a1.353,1.353,0,0,0,.334.484.6.6,0,0,0,.27.065c.378,0,.732-.351,1.045-.661h0a2.171,2.171,0,0,1,.449-.383.593.593,0,0,1,.268-.063c.419,0,.943.428,1.473,1.205.012.018.024.034.025.035a.817.817,0,0,0,.368.088c.526,0,1.018-.493,1.377-.853l.021-.021a.794.794,0,0,0,.082-.346v0A.908.908,0,0,1,90.09,59a.086.086,0,0,1,.063-.019.713.713,0,0,1,.13.019h0a.727.727,0,0,0,.132.019A.088.088,0,0,0,90.482,59c.032-.032.016-.114,0-.193v0c-.016-.08-.033-.163,0-.2a3.73,3.73,0,0,1,1.49-.26,1.209,1.209,0,0,1,.473.064c.35.175.495.928.623,1.593v0a2.823,2.823,0,0,0,.357,1.152.655.655,0,0,0,.484.143,5.131,5.131,0,0,0,.67-.066l.047-.006a5.807,5.807,0,0,1,.792-.072,1.137,1.137,0,0,1,1.147.591,2.625,2.625,0,0,1,.162,1.283,2.033,2.033,0,0,0,.427,1.66c.046.046.023.122,0,.2s-.047.15,0,.2a.209.209,0,0,0,.155.056,2.213,2.213,0,0,0,1.048-.577,11.925,11.925,0,0,0,.956-.853c.033-.034.122-.05.271-.05s.35.019.5.034c.09.009.168.016.206.016a3.756,3.756,0,0,0,1.178-.2c-.02,0-.029,0-.03-.005a.351.351,0,0,1,.111-.047l.035-.012c-.055.032-.091.052-.116.064h.034l.16,0a.331.331,0,0,1-.056-.07.824.824,0,0,0,.254-.125.11.11,0,0,0,.017-.02h-.019c-.037.015-.122.065-.2.113h0l-.025.015-.023.013h0a.079.079,0,0,1-.006-.081c.023-.04.1-.062.213-.062h.048a.051.051,0,0,1,.017,0h0s0,0,0,0c.168.011.365.065.366.117,0,.023-.038.056-.227.077a.088.088,0,0,1,.04.023.634.634,0,0,1,.1.129.616.616,0,0,0,.3.263,2.122,2.122,0,0,0,.941.159c.093,0,.184,0,.27,0h.017c.084,0,.18,0,.274,0a3.442,3.442,0,0,1,.937.1,2.013,2.013,0,0,1,.9.528c.1.1.362.1.62.107a1.041,1.041,0,0,1,.557.089,6.225,6.225,0,0,0,2.162.925,4.168,4.168,0,0,1,1.174.449,2.689,2.689,0,0,1,.636,1.282v0c.045.153.091.311.148.483.074.221.124.376.157.478l0,.011,0,.014a1.515,1.515,0,0,0,.053.156.129.129,0,0,0,0-.033V68.65c-.006-.038-.013-.089-.017-.138a.234.234,0,0,1,.024-.164.043.043,0,0,1,.032-.014c.033,0,.079.03.139.09.2.2-.508,1.609-.741,2.071l-.044.088a1.553,1.553,0,0,1-.514.436,3.072,3.072,0,0,0-.467.349,2.257,2.257,0,0,0-.376.847,1.608,1.608,0,0,1-.213.527,2.277,2.277,0,0,1-.3.224h0a3.252,3.252,0,0,0-.479.364.992.992,0,0,0-.1.294,1.012,1.012,0,0,1-.1.294.721.721,0,0,1-.448.131.979.979,0,0,0-.337.066c-.136.068-.306.15-.5.243h0a12.062,12.062,0,0,0-2.052,1.13.6.6,0,0,1-.395.085,12.233,12.233,0,0,1-1.608-.2l-.089-.014h0a13.371,13.371,0,0,0-1.808-.209.9.9,0,0,0-.61.139c-.049.049-.03.123-.009.2h0a.281.281,0,0,1,.009.191,1.585,1.585,0,0,1-.456.479h0a1.644,1.644,0,0,0-.132.109,2.067,2.067,0,0,0-.245.589h0v0a2.469,2.469,0,0,1-.342.781,12.15,12.15,0,0,0-.4,2.7c-.114,1.333-.186,2.664-.186,2.994,0,.65-.052,1.31-.1,1.949s-.095,1.213-.095,1.779c0,.017,0,.053-.006.1v.024a1.365,1.365,0,0,0,.008.467.167.167,0,0,0,.124.046.736.736,0,0,0,.178-.032h0a.766.766,0,0,1,.187-.033.216.216,0,0,1,.1.021,3.7,3.7,0,0,1,.251.372v0l0,0c.067.106.126.2.137.209a7.453,7.453,0,0,0,1.416.221h0a8.823,8.823,0,0,1,2.115.367,1.014,1.014,0,0,1,.164.337v0a1.245,1.245,0,0,0,.228.446,2.516,2.516,0,0,0,.8.35h0a2.035,2.035,0,0,1,.573.237c.046.046.023.122,0,.2s-.046.15,0,.2a17.36,17.36,0,0,0,2.155.784h0a1.635,1.635,0,0,1,.166.2l0,0a1.057,1.057,0,0,0,.422.383.185.185,0,0,0,.081.014,1.4,1.4,0,0,0,.19-.021h.007a1.373,1.373,0,0,1,.2-.022.156.156,0,0,1,.112.03c.046.046.023.122,0,.2s-.047.15,0,.2a.13.13,0,0,0,.095.028,1.1,1.1,0,0,0,.2-.028h.006a1.105,1.105,0,0,1,.194-.027.133.133,0,0,1,.1.029l.144.144.445.445c.1.1.058.364.016.619a1.149,1.149,0,0,0-.016.559,6.2,6.2,0,0,1,.476,2.991,7.786,7.786,0,0,1-.672,2.9.949.949,0,0,0-.058.428v0a.718.718,0,0,1-.138.551.132.132,0,0,1-.1.028,1.1,1.1,0,0,1-.2-.028h0a1.126,1.126,0,0,0-.2-.027.131.131,0,0,0-.1.029c-.031.031-.02.079-.01.127v0a.365.365,0,0,1,.01.068.948.948,0,0,1-.134-.013h0a.955.955,0,0,0-.133-.013.272.272,0,0,0-.125.026v.1l0,.008v0c.011.033.021.064.012.077a.017.017,0,0,1-.015.007c0,.268,0,.63.008,1.174v.027c.009,1.207.021,2.71-.008,2.724a.148.148,0,0,1-.065.014.5.5,0,0,1-.125-.023l-.007,0h0a.472.472,0,0,0-.112-.02.107.107,0,0,0-.082.031c-.157.157-1.132,1.87-1.178,1.963a1.438,1.438,0,0,0-.121.6,1.023,1.023,0,0,1-.271.773.266.266,0,0,1-.193.056,2.227,2.227,0,0,1-.392-.056h0a2.168,2.168,0,0,0-.4-.057.263.263,0,0,0-.193.057.873.873,0,0,1-.694.262l-.119,0h-.12a1.346,1.346,0,0,0-.637.134l-.185.091-.078.038a8.137,8.137,0,0,0-1.5.852.09.09,0,0,1-.064.019.734.734,0,0,1-.129-.018h-.007a.724.724,0,0,0-.129-.018.086.086,0,0,0-.064.019c-.047.047-.023.123,0,.2s.046.15,0,.2a.468.468,0,0,1-.2.1.477.477,0,0,0-.2.1c-.049.049-.024.174,0,.294s.049.245,0,.294a2.2,2.2,0,0,0-.362.9,11.372,11.372,0,0,0-.248,1.525,4.374,4.374,0,0,0,.217,2.478,1.062,1.062,0,0,0,.589.2,1.059,1.059,0,0,1,.589.2,3.033,3.033,0,0,1,.418,1.023,2.994,2.994,0,0,1,.1.673.639.639,0,0,1-.126.463,1.028,1.028,0,0,1-.49.1h0a1.029,1.029,0,0,0-.49.1,1.3,1.3,0,0,1-1.021.33h0a1.8,1.8,0,0,0-.547.062,2.769,2.769,0,0,0-.506.3,4.855,4.855,0,0,1-.476.293A1.643,1.643,0,0,1,97.394,120Zm4.271-56.485,0,0a.1.1,0,0,0,.071.026.449.449,0,0,0,.124-.026h0l.014,0,.025-.007C101.826,63.51,101.747,63.513,101.666,63.515Zm.322-.025a.345.345,0,0,0-.086.015l.118-.01A.121.121,0,0,0,101.987,63.49ZM27.551,55.645a.549.549,0,0,1,.172.022,2.75,2.75,0,0,0,.887.17,2.722,2.722,0,0,0,.879-.17,3.36,3.36,0,0,1,.833-.093h0a2.131,2.131,0,0,0,1.323-.3,3.773,3.773,0,0,0,.55-.922v0a4.157,4.157,0,0,1,.627-1.038c.047-.047.023-.123,0-.2s-.046-.15,0-.2a1.705,1.705,0,0,1,.62-.313h0A1.552,1.552,0,0,0,34,52.33a4.165,4.165,0,0,0,.515-1.966A5.056,5.056,0,0,0,34.4,48.21c-.1-.205-.48-.331-.846-.453h0a2.057,2.057,0,0,1-.72-.331,5.11,5.11,0,0,1-.381-.483,3.46,3.46,0,0,0-.8-.891,3.609,3.609,0,0,0-.434-.176h0a1.776,1.776,0,0,1-.741-.413.257.257,0,0,0-.185-.052,2.191,2.191,0,0,0-.324.038h-.007a2.186,2.186,0,0,1-.325.038.321.321,0,0,1-.141-.025,2.635,2.635,0,0,0-1.171-.323,2.382,2.382,0,0,0-1.6.743,2.09,2.09,0,0,1-1.236.387h0a1.352,1.352,0,0,0-.7.175,10.538,10.538,0,0,1-1.567,1.122c-.515.329-1.048.67-1.483,1.012a2.488,2.488,0,0,0-.875,1.005c-.035.108.046.181.15.273a.742.742,0,0,1,.243.316,2.308,2.308,0,0,0,1.155,1.54,4.115,4.115,0,0,1,.807.619,2.679,2.679,0,0,1,.427.634v0a2.338,2.338,0,0,0,.358.542,3.767,3.767,0,0,0,.415.317,2.724,2.724,0,0,1,.761.664.3.3,0,0,1,0,.2h0a.3.3,0,0,0,0,.2.074.074,0,0,0,.073.041.46.46,0,0,0,.118-.024h0l.008,0a.492.492,0,0,1,.133-.027.129.129,0,0,1,.06.013,3.655,3.655,0,0,1,.653.638h0l.017.02c.051.058.092.1.114.126a.391.391,0,0,0,.279.075,3.418,3.418,0,0,0,.465-.049h0A3.4,3.4,0,0,1,27.551,55.645ZM21.63,21.353a1.27,1.27,0,0,1-.277-.017.647.647,0,0,1-.08-.309.566.566,0,0,0-.059-.245,2.472,2.472,0,0,0-.278-.21h0a1.647,1.647,0,0,1-.414-.345l-.1-.194,0-.008a3.018,3.018,0,0,0-.732-1.047.83.83,0,0,0-.679-.288,1.221,1.221,0,0,1-.571-.129c-.046-.023-.058-.082-.069-.138s-.023-.116-.07-.139a3.941,3.941,0,0,0-.381-.158,1.959,1.959,0,0,1-.729-.4.068.068,0,0,0-.051-.019.318.318,0,0,0-.088.019h0a.319.319,0,0,1-.086.019.066.066,0,0,1-.051-.019,2.786,2.786,0,0,1-.236-.532v0c-.061-.159-.13-.338-.18-.437a1.77,1.77,0,0,0-.435-.453h0c-.053-.043-.1-.078-.119-.1a.461.461,0,0,1-.087-.295v0a.716.716,0,0,0-.051-.258c-.023-.046-.082-.058-.139-.069s-.116-.023-.139-.07a3.5,3.5,0,0,1,.024-1.906l0-.012a5.6,5.6,0,0,0,.112-.857c0-.046-.007-.139-.017-.257l0-.038a3.242,3.242,0,0,1,.02-1.231.067.067,0,0,1,.05-.019.323.323,0,0,1,.087.019h0a.322.322,0,0,0,.085.018.069.069,0,0,0,.051-.019,3.8,3.8,0,0,1,1.388-.971.357.357,0,0,1,.116-.017,1.089,1.089,0,0,1,.158.016h0a1.088,1.088,0,0,0,.164.017.365.365,0,0,0,.113-.016c.129-.043.282-.285.406-.479v0a1.6,1.6,0,0,1,.148-.214.066.066,0,0,1,.05-.019.327.327,0,0,1,.087.019h0a.322.322,0,0,0,.085.018.068.068,0,0,0,.051-.019,1.088,1.088,0,0,0,.069-.209h0a1.025,1.025,0,0,1,.07-.206,2.346,2.346,0,0,1,.455-.192h0c.081-.027.161-.055.238-.085.249-.05,2.121-.182,3.095-.182a1.444,1.444,0,0,1,.513.042,1.643,1.643,0,0,0,.606.386c.1.045.219.1.365.17a5.6,5.6,0,0,1,.677.667h0c.067.073.125.135.155.165a.641.641,0,0,1,.116.3h0a.786.786,0,0,0,.162.391.35.35,0,0,0,.138.069.351.351,0,0,1,.139.07,1.594,1.594,0,0,1,.167.657,1.745,1.745,0,0,1-.028.73.386.386,0,0,1-.135.129.328.328,0,0,0-.142.148,1.415,1.415,0,0,0-.066.37.814.814,0,0,1-.072.325.773.773,0,0,0,.006.207c.013.147.028.313-.006.348a6.549,6.549,0,0,0-.556.972,1.631,1.631,0,0,0-.053.444,1.3,1.3,0,0,1-.086.526c-.083.166-.121.23-.134.23h0a.109.109,0,0,1,0-.047h0a.066.066,0,0,1,0-.01c0-.007,0-.014,0-.021a.113.113,0,0,0-.015-.073.025.025,0,0,0-.019-.008c-.023,0-.057.024-.1.07a1.064,1.064,0,0,0-.081.308,1.408,1.408,0,0,1-.057.247,2.947,2.947,0,0,1-.3.45h0a2.374,2.374,0,0,0-.393.659,4.858,4.858,0,0,1-.431.9h0c-.085.15-.173.3-.262.482a3.6,3.6,0,0,0-.275,1.016v0a4.376,4.376,0,0,1-.141.648.534.534,0,0,1-.222.24h0a.752.752,0,0,0-.194.176.17.17,0,0,0,0,.137c.015.052.03.106,0,.14A1.27,1.27,0,0,1,21.63,21.353Z" transform="translate(-146.684 -126.325)" fill="#5751c8" stroke="#eaecff" stroke-width="0.5"/></g></svg>