<svg xmlns="http://www.w3.org/2000/svg" width="91.91" height="129.245" viewBox="0 0 91.91 129.245"><g transform="translate(-329.956 -283.31)"><g transform="translate(330.582 283.56)"><path d="M56,128.646h0c-.016-.015-.033-.028-.049-.042a2.385,2.385,0,0,1-.5-1.024c-.053-.221-.205-.459-.408-.459a.341.341,0,0,0-.2.073,1.058,1.058,0,0,1-.682.179c-.066,0-.133,0-.2,0h-.014c-.07,0-.137,0-.2,0a1.6,1.6,0,0,0-.314.025.063.063,0,0,1,.006.032c0,.105-.176.234-.27.269-.1,0-.121-.053-.148-.124a.543.543,0,0,0-.047-.108.383.383,0,0,0-.385-.222.173.173,0,0,1-.051.007c-.082,0-.141-.069-.207-.149a1.106,1.106,0,0,0-.086-.1c-.141-.218-.354-.219-.576-.22a1.406,1.406,0,0,1-.408-.044c-.092-.026-.172-.047-.252-.066l-.041-.011a3.971,3.971,0,0,1-.4-.113l-.152-.042a.777.777,0,0,1-.322-.7,2.055,2.055,0,0,1,.02-.279,1.366,1.366,0,0,1,.051-.351c.01-.045.021-.092.029-.146a.05.05,0,0,0,.006-.025.333.333,0,0,0-.049-.14l0,0a.244.244,0,0,1-.045-.109.033.033,0,0,1,0-.012.06.06,0,0,0,0-.016.717.717,0,0,1,.131-.126l.008-.006a.529.529,0,0,0,.123-.132,2.213,2.213,0,0,0,.152-.729,1,1,0,0,0-.205-.512.985.985,0,0,1-.207-.513.868.868,0,0,1,.063-.3l0,0c.021-.056.037-.107.051-.156a.383.383,0,0,0,.072-.257.706.706,0,0,1,.047-.24c.025-.122.1-.151.211-.191l.01,0c.08,0,.09-.131.1-.235l.006-.032a.346.346,0,0,1,.01-.076.721.721,0,0,1,.246-.359.8.8,0,0,0,.059-.057,1.217,1.217,0,0,1,.2-.032h.008c.129-.014.275-.03.295-.074a.358.358,0,0,0,.035-.132c0-.06-.045-.091-.135-.091a1.449,1.449,0,0,0-.379.083.2.2,0,0,0-.033.01l-.012,0c.033-.02.49-.425.494-.64,0-.07-.051-.111-.152-.121a2.254,2.254,0,0,1-.191.273l0,0a1.475,1.475,0,0,0-.277.456.169.169,0,0,1-.037-.126,1.913,1.913,0,0,1,.029-.274,1.94,1.94,0,0,0,.029-.265.185.185,0,0,0-.021-.11,1.432,1.432,0,0,1-.154-.341l0-.015a1.161,1.161,0,0,0-.174-.363,2.408,2.408,0,0,0-.172-.223.582.582,0,0,1-.172-.5c0-.326-.311-.483-.539-.6l-.047-.024a.891.891,0,0,0-.3-.071c-.229-.03-.488-.064-.488-.262v-.032c0-.122.115-.182.354-.182.076,0,.15,0,.217.011h.014c.049,0,.1.007.135.007a.3.3,0,0,0,.275-.162.269.269,0,0,1,.24-.154.471.471,0,0,1,.1.011c.271.025.514.038.723.038a2.915,2.915,0,0,0,.73-.076.01.01,0,0,1-.01,0c0-.013.029-.029.047-.036a1.411,1.411,0,0,0,.3-.183c.066-.047.143-.1.227-.151.105-.052.111-.223.111-.274s-.021-.07-.064-.07a.721.721,0,0,0-.266.108.384.384,0,0,1-.088.042q-.047.029-.088.059l-.031.021a.646.646,0,0,1-.373.163.705.705,0,0,1-.311-.09,1.356,1.356,0,0,0-.748-.158l-.178,0-.178,0a1.062,1.062,0,0,0-.123.032l-.033.009a1.679,1.679,0,0,1-.441.093.256.256,0,0,1-.121-.023c-.129-.062-.191-.192-.191-.407,0-.088.012-.178.018-.259l0-.024.006-.03a1.172,1.172,0,0,0,.012-.15.818.818,0,0,0-.654-.654.239.239,0,0,0-.037,0,.45.45,0,0,0-.074.031l-.014.006a1.664,1.664,0,0,1-.553.185.153.153,0,0,1-.1-.026.1.1,0,0,1-.037-.09.327.327,0,0,1,.014-.105.634.634,0,0,0,.563-.471c0-.142-.148-.222-.408-.222-.2,0-.35-.012-.35-.153a.574.574,0,0,1,.084-.258.449.449,0,0,0,.061-.218c0-.225-.225-.373-.424-.5l-.008,0-.055-.035a.517.517,0,0,1-.334-.5.665.665,0,0,1,.043-.159l.008-.026,0-.016a1.06,1.06,0,0,0,.074-.295c0-.067-.031-.1-.092-.1a.487.487,0,0,0-.189.059c-.154.063-.2.251-.236.432a.747.747,0,0,1-.15.372,1.141,1.141,0,0,0-.086.189l0,.015c-.041.1-.08.213-.1.213a.368.368,0,0,0-.084-.129c-.033-.032-.057-.05-.07-.05a.383.383,0,0,1-.021-.122c0-.037.006-.072.008-.1a.47.47,0,0,0,.008-.087.212.212,0,0,0-.031-.116c-.088-.15-.422-.2-.68-.2a1.375,1.375,0,0,0-.154.009.317.317,0,0,1-.092.014c-.156,0-.209-.137-.264-.282s-.117-.3-.295-.3a.712.712,0,0,0-.137.026,1.213,1.213,0,0,1-.236.039.115.115,0,0,1-.082-.022.617.617,0,0,1-.061-.108c-.043-.086-.078-.165-.2-.192a.529.529,0,0,0-.117-.015c-.143,0-.184.081-.234.183a.608.608,0,0,1-.186.243.12.12,0,0,1-.053.015c-.088,0-.25-.1-.535-.589l-.021-.033a.751.751,0,0,1-.059-.222c-.027-.157-.055-.317-.18-.317h-.029l-.012,0h-.021l-.057,0a.306.306,0,0,1-.127-.021.1.1,0,0,1-.061-.1v-.037c0-.021.01-.03.027-.03a.271.271,0,0,1,.1.041l.012,0a.181.181,0,0,0,.053.021.12.12,0,0,0,.076-.122.167.167,0,0,0-.076-.143l-.014-.008-.008,0c-.07-.04-.115-.065-.115-.109s.037-.079.1-.143a.251.251,0,0,1,.188-.071.866.866,0,0,1,.172.023l.008,0a.673.673,0,0,0,.156.024c.107,0,.158-.062.17-.211a.467.467,0,0,0,0-.073,1.218,1.218,0,0,0-.283-.645,2.179,2.179,0,0,1-.176-.28c-.02-.036-.037-.078-.057-.123l-.027-.062a1.862,1.862,0,0,0-.377-.619,3.289,3.289,0,0,1-.342-.786l-.01-.032,0-.013a.815.815,0,0,1-.01-.087c0-.122.076-.137.189-.158a1.121,1.121,0,0,0,.207-.054c.012-.017.045-.021.076-.026h.006c.055-.009.113-.019.113-.067a.058.058,0,0,0-.006-.031.1.1,0,0,1-.01-.059v-.051c0-.021,0-.044,0-.066,0-.062-.016-.093-.045-.093l-.018,0a.625.625,0,0,0-.209.112.59.59,0,0,1-.135.084.311.311,0,0,1-.055,0,.334.334,0,0,1-.187-.074.387.387,0,0,0-.217-.084.565.565,0,0,0,.031.143v.006a.525.525,0,0,1,.037.158.114.114,0,0,1-.025.068.785.785,0,0,1-.387.232l-.043.031,0,0a.386.386,0,0,1-.217.1.3.3,0,0,1-.154-.051h0c-.049,0-.232-.046-.232-.122a.417.417,0,0,0-.064-.173l0-.008a.5.5,0,0,1-.086-.236.756.756,0,0,0-.055-.259l0-.013,0-.009a.909.909,0,0,1-.051-.259.26.26,0,0,1,.063-.151l0,0a.2.2,0,0,0,.047-.108c0-.08-.346-.343-.418-.343,0,.081-.037.111-.068.111a.082.082,0,0,1-.061-.032.111.111,0,0,1-.02-.122c0-.119-.006-.2-.049-.243a.14.14,0,0,0-.105-.034.722.722,0,0,0-.127.014c-.191,0-.215-.034-.295-.146l-.008-.013-.029-.038a.742.742,0,0,0-.5-.25l-.035-.008h-.043a.3.3,0,0,0-.191-.043h-.025l-.023,0L38,104.823c-.154-.029-.406-.075-.406-.188,0-.007,0-.011,0-.015v0l0-.006a.1.1,0,0,0,.115-.115.507.507,0,0,0-.158-.312.847.847,0,0,0-.359-.06c-.1,0-.209.009-.3.016s-.162.012-.221.012a2.745,2.745,0,0,0-.3.027,3.455,3.455,0,0,1-.391.034.4.4,0,0,1-.178-.029.478.478,0,0,1-.191-.178L35.6,104a.649.649,0,0,0-.107-.117.878.878,0,0,0-.3-.09.812.812,0,0,1-.3-.09c-.279-.125-.307-.228-.307-.465v-.185c0-.076-.154-.171-.3-.264l-.012-.006a1.126,1.126,0,0,1-.225-.158,1.037,1.037,0,0,0-.607-.162c-.061,0-.125,0-.2.01a2.417,2.417,0,0,0-.357.269l-.021.019a1.35,1.35,0,0,1-.227.17.808.808,0,0,0-.531-.336l-.064,0c-.029,0-.062,0-.1,0-.08,0-.125-.015-.137-.045a.062.062,0,0,1-.021-.047c0-.057.084-.122.135-.162l.008-.006c.012-.009.02-.017.025-.021a.227.227,0,0,1,.055,0,.621.621,0,0,1,.119.015h.008a.616.616,0,0,0,.1.013.1.1,0,0,0,.1-.051.647.647,0,0,0,.064-.122c.035-.074.061-.131.131-.157s.129-.072.18-.1a.974.974,0,0,1,.387-.157.791.791,0,0,0,.217-.368l.008-.016a1.285,1.285,0,0,1,.125-.271.146.146,0,0,1,.129-.081l.033,0h.031c.057,0,.1-.036.148-.224a3.674,3.674,0,0,0,.076-.557c.008-.1.02-.231.035-.357,0-.112-.115-.133-.242-.153a.549.549,0,0,1-.254-.085c0,.021-.006.031-.014.031s-.012-.011-.012-.031a.243.243,0,0,1-.066-.073l-.008-.009c-.021-.032-.033-.052-.082-.052a.644.644,0,0,0-.15.028l-.037.011a.991.991,0,0,1-.281.061.145.145,0,0,1-.074-.016.064.064,0,0,1-.031-.062l0-.013a.219.219,0,0,1,.035-.092c.037-.087.342-.128.412-.128a.977.977,0,0,0,.158.013.828.828,0,0,0,.533-.191,1.152,1.152,0,0,1,.23-.113l.006,0a.92.92,0,0,0,.223-.116.692.692,0,0,0,.1-.189l.008-.018c.045-.131.088-.253.311-.253a.5.5,0,0,1,.379.131l.023.018a1.624,1.624,0,0,0,.178.115.116.116,0,0,0,.064.023c.125,0,.18-.3.211-.485a1.2,1.2,0,0,1,.031-.146c.322-.041.469-.252.469-.665a3.131,3.131,0,0,0-.057-.556,1.355,1.355,0,0,1-.016-.15.682.682,0,0,0-.2-.5.243.243,0,0,1-.023-.018l-.023-.019c-.121-.09-.342-.256-.344-.354V95.8a.92.92,0,0,0,.211-.048,1.08,1.08,0,0,1,.285-.062.486.486,0,0,0,.16-.065l.025-.015c.02-.012.043-.028.08-.047a1.881,1.881,0,0,0,.631-.819l.006,0,.033-.067c.016-.031.033-.062.047-.092a.236.236,0,0,1,.193-.136c.125,0,.262.138.395.271l.01.011a1.938,1.938,0,0,0,.211.188.717.717,0,0,0,.291.156c.033,0,.047-.021.047-.062a.539.539,0,0,0-.02-.121l-.008-.039a1.186,1.186,0,0,1-.037-.241c0-.04,0-.084-.006-.129l0-.054c-.006-.079-.012-.148-.012-.214A1.2,1.2,0,0,1,37.9,94a1.3,1.3,0,0,1,.141-.26.851.851,0,0,0,.123-.237.316.316,0,0,0,.016-.085A.588.588,0,0,0,38,93.063l0,0a.836.836,0,0,1-.139-.2,1.82,1.82,0,0,1-.08-.277.661.661,0,0,0-.225-.441,1.5,1.5,0,0,1-.131.249l-.012.018,0,0a.845.845,0,0,0-.162.4.249.249,0,0,0,0,.053c0,.015,0,.045,0,.086l0,.034c0,.091.014.228.018.365,0,.278-.045.414-.133.414a.255.255,0,0,1-.156-.1.547.547,0,0,1-.115-.412c0-.089.006-.187.014-.306l.008-.065c0-.062.008-.121.008-.173a2.876,2.876,0,0,0-.086-.594V92.1c-.025-.11-.049-.227-.066-.339a8.509,8.509,0,0,0-.385-1.3v-.042l-.027-.085-.072-.324a23.038,23.038,0,0,0-.926-3.289c-.021-.06-.035-.115-.053-.17l-.01-.035-.006-.017a2.087,2.087,0,0,0-.164-.428,1.075,1.075,0,0,1-.117-.555v-.327a2.361,2.361,0,0,0-.115-.637l-.006-.023c-.035-.115-.068-.24-.094-.365-.066-.206-.121-.424-.164-.611s-.088-.362-.143-.535a2.27,2.27,0,0,1-.154-.872c0-.033,0-.068,0-.1s0-.075,0-.113a.512.512,0,0,0-.043-.242c-.014-.026-.027-.053-.043-.079a.858.858,0,0,1-.152-.391,1.772,1.772,0,0,0-.174-.53,1.448,1.448,0,0,1-.176-.605,1.551,1.551,0,0,0,.021-.254.661.661,0,0,0-.211-.476,1.144,1.144,0,0,1-.484-.871v-.292a2.789,2.789,0,0,0-.234-1.357,3.6,3.6,0,0,1-.182-.363l-.021-.046-.006-.01c-.064-.137-.131-.278-.209-.41a.988.988,0,0,1-.113-.493l0-.01a1.5,1.5,0,0,0-.037-.343c-.045-.143-.086-.3-.135-.5a6.508,6.508,0,0,0-.207-.715c-.059-.186-.127-.379-.2-.567l-.027-.079a7.721,7.721,0,0,1-.281-.848c-.049-.159-.1-.327-.148-.5a12.97,12.97,0,0,0-.416-1.257c-.035-.075-.074-.15-.1-.21a1.278,1.278,0,0,1-.2-.551,3.3,3.3,0,0,0-.238-.829c-.092-.22-.186-.428-.279-.628l-.021-.05L30,68.4c-.164-.354-.314-.688-.451-1.06l-.01-.032-.006-.015a14.218,14.218,0,0,0-.871-2.125c-.113-.222-.229-.464-.377-.784a13.962,13.962,0,0,0-.727-1.4,2.878,2.878,0,0,0-.836-1.019.874.874,0,0,0-.6-.17,4.076,4.076,0,0,0-.52.043l-.059.007c-.025,0-.051.007-.078.009-.1.354-.562.434-.9.493l-.031.006-.127.023a1.214,1.214,0,0,1-.225.019.594.594,0,0,0-.424.109.548.548,0,0,0-.1.2.417.417,0,0,1-.182.276,1.379,1.379,0,0,1-.588.107,1.138,1.138,0,0,1-.7-.176,2.765,2.765,0,0,1-.506-.649l-.008-.013a3.633,3.633,0,0,0-.373-.525.22.22,0,0,0-.189-.106.671.671,0,0,0-.223.058l-.027.011a.764.764,0,0,1-.279.069.386.386,0,0,1-.154-.031,1.316,1.316,0,0,1-.537-.375.5.5,0,0,1-.115-.148c-.049-.08-.1-.17-.191-.2a2.042,2.042,0,0,0-.5.085h-.016c-.105,0-.162-.138-.213-.272a.687.687,0,0,0-.1-.2.353.353,0,0,0-.285-.159.8.8,0,0,0-.246.057l-.008,0-.01,0-.016.006a.715.715,0,0,1-.219.05.24.24,0,0,1-.174-.07.729.729,0,0,1-.178-.538,3.119,3.119,0,0,1,.063-.54c.01-.064.021-.126.031-.185A1.73,1.73,0,0,1,17.738,59l.006-.035a1.631,1.631,0,0,0,.018-.213c0-.094-.1-.13-.2-.168a.575.575,0,0,1-.189-.1,1,1,0,0,0-.939-.386h-.168a3.025,3.025,0,0,1-.4.032c-.33,0-.5-.087-.5-.26a.328.328,0,0,1,.031-.147.627.627,0,0,0,.059-.228.351.351,0,0,0-.119-.237l-.008-.01a.854.854,0,0,1-.17-.286,1.249,1.249,0,0,0-.377-.455c-.2-.183-.395-.353-.395-.591a.3.3,0,0,1,.012-.1c.033-.186.162-.271.4-.271a2.518,2.518,0,0,1,.383.043,1.9,1.9,0,0,0,.279.033l.029.006c.479.081.93.158,1.074.644a.87.87,0,0,1,.93.571.774.774,0,0,0,.779.5,1.23,1.23,0,0,0,.281-.034c.316-.087.342-.489.365-.843v-.011a1.725,1.725,0,0,1,.053-.41.421.421,0,0,1,.412-.3.687.687,0,0,1,.623.455,1.367,1.367,0,0,1,.02.205.787.787,0,0,0,.057.323c.029.089.1.131.221.131a1.21,1.21,0,0,0,.154-.015l.027,0,.021,0c.037,0,.064,0,.088,0a.24.24,0,0,1,.053,0,.968.968,0,0,0,.166.014.782.782,0,0,0,.619-.354c.018-.018.033-.036.051-.055s.057-.061.088-.092a.552.552,0,0,1,.447-.237,1.172,1.172,0,0,1,.689.306.235.235,0,0,1,.125.2.576.576,0,0,1-.1.259l-.012.021a.749.749,0,0,0-.084.212.308.308,0,0,0,.174.323.96.96,0,0,1,.168.131c.186-.3.412-.342.768-.386h.008a1.193,1.193,0,0,1,.4.043.633.633,0,0,1,.123.076l.018.014.006,0a.6.6,0,0,0,.3.15.126.126,0,0,0,.053-.012c.061-.02.1-.085.133-.139l0,0a.356.356,0,0,1,.129-.132.9.9,0,0,1,.428-.11.857.857,0,0,1,.873.417.654.654,0,0,0,.441.323c.049.017.107.035.172.063a.23.23,0,0,0,.063.009,1.159,1.159,0,0,0,.461-.187l.014-.008a1.329,1.329,0,0,1,.371-.163,1.143,1.143,0,0,1,.121-.006h.115l.111,0a.358.358,0,0,0,.385-.257c.018-.054.035-.115.051-.179v-.007c.064-.241.121-.45.361-.45a.607.607,0,0,1,.154.022.217.217,0,0,1,.23-.21,1.587,1.587,0,0,1,.6.217,2.2,2.2,0,0,0,.238.11,3.166,3.166,0,0,0,.584.089h.01a3.3,3.3,0,0,1,.627.1A1.962,1.962,0,0,0,31.74,57a3.318,3.318,0,0,0,.85-.14,4.641,4.641,0,0,1,.65-.135.531.531,0,0,1,.107-.012,1,1,0,0,1,.5.192l.008,0,.006,0a1.634,1.634,0,0,0,.295.154,3.436,3.436,0,0,0,.973.09h.328a1.845,1.845,0,0,1,1.648.561,2.436,2.436,0,0,1,.326.864c.031.13.074.3.129.462a7.926,7.926,0,0,0,.5,1.3,1.806,1.806,0,0,1,.082.374l0,.015a1.358,1.358,0,0,0,.176.605.131.131,0,0,0,.074.049c.045,0,.066-.08.066-.24,0-.135-.014-.3-.023-.386l0-.021a.5.5,0,0,1,0-.052,2.657,2.657,0,0,1,.037-.368l0-.029,0-.025a2.293,2.293,0,0,0,.041-.38,1.07,1.07,0,0,0,0-.111,1.478,1.478,0,0,0-.055-.354c-.018-.07-.035-.146-.049-.224,0-.064,0-.129,0-.194,0,.058,0,.116-.006.174a.857.857,0,0,1-.01-.137,1.931,1.931,0,0,0-.539-1.258.389.389,0,0,1-.107-.2.91.91,0,0,1,.01-.158l0-.012a1.269,1.269,0,0,0,.012-.13l0,0a.4.4,0,0,1-.006.093v.008a1.676,1.676,0,0,0-.018.2.522.522,0,0,1-.016-.138c0-.04,0-.079,0-.116,0-.013,0-.025,0-.038s0-.052,0-.079a.42.42,0,0,0-.078-.259,1.788,1.788,0,0,0-1.025-.5,9.839,9.839,0,0,0-1.441-.228h-.016l-.061-.006-.277-.03a1.075,1.075,0,0,1-.254-.1.98.98,0,0,0-.244-.1.645.645,0,0,1-.281-.179.633.633,0,0,0-.246-.165.975.975,0,0,1-.021-.216,2.836,2.836,0,0,1,.467-1.314l.008-.008.014-.031c.021-.035.041-.071.061-.105.072-.158.129-.3.174-.421a1.317,1.317,0,0,1,.777-.92,2.7,2.7,0,0,1,.6-.177c.406-.089.828-.182.969-.474a.672.672,0,0,0,.1-.354,1.455,1.455,0,0,0-.1-.458l-.006-.021a1.4,1.4,0,0,1-.107-.467c-.006.058-.01.12-.01.179a3.215,3.215,0,0,0,.029.4,3.445,3.445,0,0,1,.023.344c-.037.278-.311.354-.553.42-.043.012-.094.024-.139.039a3.512,3.512,0,0,0-2.02,1.063,1.442,1.442,0,0,0-.215.67.477.477,0,0,0-.008.05c-.006.03-.01.058-.016.084a.941.941,0,0,1-.521.607.372.372,0,0,1-.1.016.107.107,0,0,1-.08-.027.1.1,0,0,1-.027-.073,1.034,1.034,0,0,1,.107-.317l0-.006a.49.49,0,0,0,.053-.131c0-.034-.016-.053-.043-.053-.1,0-.359.223-.412.29a.233.233,0,0,1-.168.11c-.131,0-.229-.2-.3-.357,0-.008-.01-.017-.014-.023a.226.226,0,0,0-.018-.034c-.008-.032-.025-.049-.049-.049-.076,0-.217.171-.252.242a.4.4,0,0,0-.037.17.351.351,0,0,0,.191.316l.029.022c.184.144.256.2.256.269a.37.37,0,0,1-.055.156l0,.009c-.023.049-.051.111-.082.193a.41.41,0,0,0-.027.118v.013c-.006.08-.012.145-.2.145-.1,0-.2,0-.27-.01l-.037,0c-.078,0-.16-.008-.244-.008a2.138,2.138,0,0,0-.293.02,1.844,1.844,0,0,1-.795-.233l-.008,0-.041-.02c-.062-.029-.127-.061-.191-.087-.311-.113-.447-.44-.578-.757l0-.007c-.049-.116-.09-.213-.137-.3a4.213,4.213,0,0,0-.8-1l-.045-.041a1.782,1.782,0,0,0-1.043-.578.714.714,0,0,0-.127.012.268.268,0,0,0-.01.084c0,.282.27.377.557.479s.555.2.625.462a.507.507,0,0,1-.275-.154l0,0a.551.551,0,0,0-.4-.186c-.059,0-.115,0-.17,0h-.049c-.074,0-.133,0-.189,0a.822.822,0,0,1-.59-.194.337.337,0,0,0-.223-.067,2.2,2.2,0,0,0-.674.181l-.008,0-.012.006-.006,0a2.176,2.176,0,0,1-.652.18.265.265,0,0,1-.289-.229,5.059,5.059,0,0,1-.166-1.184,2.112,2.112,0,0,1,.012-.274v-.026c0-.351-.615-.732-.8-.84-.168-.117-.256-.5-.322-.78l0-.018c-.02-.081-.035-.148-.051-.2a.252.252,0,0,1-.01-.041l-.006-.031c-.029-.11-.059-.244-.215-.277h-.021a5.49,5.49,0,0,0-.824.043.738.738,0,0,1-.115.188l-.006.008a.531.531,0,0,0-.143.349c0,.061-.023.091-.068.091a.733.733,0,0,1-.295-.151.37.37,0,0,0-.092-.056,2.219,2.219,0,0,0-1.453-.5h-.129l-.131,0a1.4,1.4,0,0,1-.543-.087,1.262,1.262,0,0,0-.52-.15,1.453,1.453,0,0,1-.437-.108.5.5,0,0,0-.178-.035.586.586,0,0,0-.279.09l-.021.01a1.222,1.222,0,0,1-.2.083,3.708,3.708,0,0,1-.924.111.68.68,0,0,0-.033.174.773.773,0,0,0,.154.37.231.231,0,0,1,.049.127c0,.054-.045.082-.127.082a.591.591,0,0,1-.307-.1.71.71,0,0,1-.232-.391l0-.008a.651.651,0,0,0-.182-.326,1.821,1.821,0,0,0-.318-.285l-.01-.006a1.849,1.849,0,0,1-.32-.289,3.339,3.339,0,0,0-.721-.608.458.458,0,0,1-.211-.3.169.169,0,0,1,.127-.153.573.573,0,0,1,.152-.021.58.58,0,0,1,.455.253,1.251,1.251,0,0,0,.766.418.455.455,0,0,0,.084.009c.572,0,1.115-1.143,1.174-1.271a1.753,1.753,0,0,0,.17-.861c0-.062,0-.121,0-.181s0-.115,0-.173a1.957,1.957,0,0,1,.137-.8,7.035,7.035,0,0,1,1.342-1.828c.051-.064.105-.137.166-.229a1.178,1.178,0,0,1,.525-.5,1.2,1.2,0,0,1,.217-.021,1.818,1.818,0,0,1,.7.175l.035.011a2.278,2.278,0,0,0,.623.125.662.662,0,0,0,.213-.03.165.165,0,0,0,.137-.18.615.615,0,0,0-.18-.386,1.463,1.463,0,0,0-.959-.378,1.842,1.842,0,0,1-.863-.271,1.45,1.45,0,0,0-.764-.263.779.779,0,0,0-.764.605,1,1,0,0,0-.062.35,2,2,0,0,0,.018.247l.006.029a2.177,2.177,0,0,1,.02.23c0,.182-.051.391-.408.555a1.517,1.517,0,0,1-.717.11.645.645,0,0,1-.088,0,1.019,1.019,0,0,1-.611-.252l-.014-.009a2.829,2.829,0,0,0-.24-.155,1.7,1.7,0,0,0-.717-.169,1.863,1.863,0,0,0-.238.016.9.9,0,0,0-.408.136l-.008,0a.851.851,0,0,1-.375.128.277.277,0,0,1-.053,0,1.05,1.05,0,0,1-.635-.649l-.006-.06a.084.084,0,0,1,0-.021c0-.007,0-.013,0-.02a1.426,1.426,0,0,1,.117-.5l.012-.04c.021-.063.041-.123.059-.184a2.267,2.267,0,0,1,.2-.475l.012-.017c.049-.094.094-.18.135-.274a1.865,1.865,0,0,0,.166-.605v-.01c.018-.105.037-.226.066-.337a2.175,2.175,0,0,0-.467.812l0,.006a2.365,2.365,0,0,1-.371.7.67.67,0,0,0-.133.387.572.572,0,0,1-.174.417.3.3,0,0,0-.141.238c0,.173.205.348.4.411.178.025,1.313.394,1.3.592a.021.021,0,0,1,0,.015c-.066.173-.246.26-.535.26a2.847,2.847,0,0,1-1.07-.259,1.344,1.344,0,0,0-.209.255c-.123.177-.248.36-.5.36a.493.493,0,0,1-.094-.008c-.443-.108-.482-.511-.482-.95v-.117a4.755,4.755,0,0,0-.061-.686l0-.021,0-.022a4.821,4.821,0,0,1-.061-.65,13.591,13.591,0,0,0-.342-1.716c-.109-.379-.2-.765-.3-1.137l-.018-.086-.008-.021a18.065,18.065,0,0,0-.551-1.953,1.785,1.785,0,0,1-.088-.367,1.426,1.426,0,0,0-.148-.515,2.74,2.74,0,0,1-.334-.957,4.888,4.888,0,0,1-.189-.719A2.465,2.465,0,0,1,10,33.846c-.039-.258-.066-.429-.447-.429a.975.975,0,0,1-.713-.676.863.863,0,0,1,.078-.321.694.694,0,0,0,.068-.265.573.573,0,0,0-.1-.265l0-.007a1.076,1.076,0,0,1-.088-.183,2.754,2.754,0,0,0-.273-.486L8.512,31.2a2.338,2.338,0,0,1-.285-.523.882.882,0,0,0-.109-.263.851.851,0,0,1-.086-.192.456.456,0,0,1-.025-.174c0-.046,0-.094.006-.138s.01-.092.01-.138a.359.359,0,0,0-.027-.159.62.62,0,0,0-.15-.168l-.008,0a.5.5,0,0,1-.146-.176.763.763,0,0,1-.055-.328c0-.061,0-.124,0-.186,0-.02,0-.04.006-.061,0-.04,0-.079,0-.118a3.567,3.567,0,0,0,.043-.676,1.032,1.032,0,0,0-.078-.349l-.006-.018a.866.866,0,0,1-.076-.3.23.23,0,0,1,.006-.063.645.645,0,0,1,.207-.037.56.56,0,0,1,.4.217,1.372,1.372,0,0,0,.26.206.775.775,0,0,0,.336.088.914.914,0,0,0,.572-.288l.01-.006a2.854,2.854,0,0,1,.229-.18,2.04,2.04,0,0,1,.416-.2,1.077,1.077,0,0,0,.609-.446,1.182,1.182,0,0,0,.27-.6.512.512,0,0,0-.186-.381l-.043-.041a.985.985,0,0,1-.385-.64.526.526,0,0,1,.043-.206.967.967,0,0,1,.223-.256l.021-.021c.158-.15.338-.319.336-.459v-.025c-.018-.117-.1-.177-.256-.177a2.264,2.264,0,0,0-1.244.583s0,0,0,.006,0,0,0,0a.4.4,0,0,0,.066.006.5.5,0,0,0,.248-.082.459.459,0,0,1,.227-.077c.066,0,.105.024.105.068a.222.222,0,0,1-.064.14c-.014.014-.031.029-.041.029a5.269,5.269,0,0,1-.58.309c-.15.073-.287.139-.418.215a1.1,1.1,0,0,1-.2.127.667.667,0,0,0-.256.19.394.394,0,0,0-.031.18v.043c0,.015,0,.028,0,.044s0,.058,0,.087a.736.736,0,0,1-.014.133c-.047.166-.121.25-.225.25-.2,0-.455-.308-.537-.472a1.589,1.589,0,0,0-.125-.206.859.859,0,0,1-.193-.461.43.43,0,0,1,.008-.071l0-.022a.871.871,0,0,0,.014-.148c0-.26-.141-.364-.34-.509-.064-.047-.15-.11-.24-.188a1.42,1.42,0,0,1-.314-.709,1.813,1.813,0,0,0-.223-.591A4.633,4.633,0,0,1,5.67,21.4c-.02-.07-.074-.1-.133-.127a.234.234,0,0,1-.148-.147.351.351,0,0,1-.014-.111,1.313,1.313,0,0,1,.092-.39.64.64,0,0,1,.02-.065c.012-.039.025-.076.033-.109a1.737,1.737,0,0,0,.072-.423.67.67,0,0,0-.037-.228c-.023-.1-.133-.214-.2-.214-.029,0-.072.017-.072.129A.759.759,0,0,0,5.332,20l0,.013c.006.014.01.029.016.046a.356.356,0,0,1,.014.049c0,.077-.023.118-.064.118s-.1-.053-.131-.118c-.039-.112-.074-.233-.105-.357a2.39,2.39,0,0,0-.2-.556,1.275,1.275,0,0,1-.125-.434l0-.006-.006-.027a1.371,1.371,0,0,0-.1-.374c-.088-.2-.187-.388-.281-.567l-.01-.021c-.062-.114-.127-.239-.189-.366a2.309,2.309,0,0,1-.16-.782l0-.007a3.066,3.066,0,0,0-.074-.537,2,2,0,0,1-.092-.4l0-.01a1.386,1.386,0,0,0-.145-.509,1.377,1.377,0,0,0-.238-.276l-.01-.009a.7.7,0,0,1-.275-.518.507.507,0,0,1,.074-.2.455.455,0,0,0,.068-.177.126.126,0,0,0-.031-.079,1.133,1.133,0,0,1-.418-.454.6.6,0,0,1-.037-.232c0-.042,0-.087.006-.13,0-.014,0-.027,0-.043s0-.058,0-.087a.524.524,0,0,0-.01-.1l0-.03a1.3,1.3,0,0,0-.35-.677l-.02-.03-.025-.038-.006-.008a1.847,1.847,0,0,1-.355-.838.38.38,0,0,1,.145-.306.946.946,0,0,1,.074.124l.006.01c.09.153.2.344.361.344a.218.218,0,0,0,.084-.019,1.362,1.362,0,0,1,.588-.177.956.956,0,0,1,.295.051.067.067,0,0,0,.031.011c.053,0,.121-.072.2-.155.105-.108.223-.23.336-.23a1.267,1.267,0,0,0,.391-.138,1.054,1.054,0,0,1,.449-.138,2.161,2.161,0,0,0,.234-.038l.031-.006a2.16,2.16,0,0,1,.393-.054.552.552,0,0,1,.189.029h0a.26.26,0,0,1,.037.007,1.245,1.245,0,0,0,.271.041c.1,0,.152-.03.156-.09a.122.122,0,0,0-.006-.043L6.3,10.4h0a.946.946,0,0,0,.551-.264l.012-.009a1.3,1.3,0,0,1,.406-.238.866.866,0,0,1,.258-.046l.012,0a.718.718,0,0,0,.385-.105A.619.619,0,0,0,8.1,9.5a.7.7,0,0,1,.129-.2,2.845,2.845,0,0,1,1.289-.607,1.413,1.413,0,0,1,.23-.019,3.011,3.011,0,0,1,.629.088l.051.01a3.074,3.074,0,0,0,.7.105,1.409,1.409,0,0,0,.3-.031,1.007,1.007,0,0,0,.3-.106.9.9,0,0,1,.391-.115.858.858,0,0,1,.555.382l.016.018a2.127,2.127,0,0,0,.148.166.731.731,0,0,0,.541.334l.039.009a7.037,7.037,0,0,1,1.137.392l.076.034.01,0a1.74,1.74,0,0,0,.654.193.61.61,0,0,0,.369-.12,1,1,0,0,0,.332-.667v0a1.277,1.277,0,0,1,.123-.4c.182-.015.363-.02.541-.023h.01a5.352,5.352,0,0,0,1.053-.1,1,1,0,0,0,.582-.3l.008-.009c.063-.054.131-.115.215-.176a.636.636,0,0,1,.5-.211,1.371,1.371,0,0,1,.193.015,1.238,1.238,0,0,1,.422.154l.012.007a.947.947,0,0,0,.439.146c.275-.045.6-.439.729-.607a4.782,4.782,0,0,0,.541-.793l.02-.034.008-.018c.041-.075.1-.152.148-.233l.035-.051c.221-.326.469-.693.34-1.048a.758.758,0,0,0-.135-.231.418.418,0,0,1-.129-.387.283.283,0,0,1,.3-.227,1.236,1.236,0,0,1,.15.011l.025,0c.037,0,.074,0,.111,0a.516.516,0,0,0,.145-.017,1.375,1.375,0,0,0,.76-.729,6.158,6.158,0,0,0,.313-1.327s0,0-.006,0l.037,0c.221,0,1.324-.017,1.428-.331.033-.107-.051-.237-.25-.386a.594.594,0,0,0-.287-.126c-.066-.014-.113-.023-.129-.06s.016-.123.113-.269a4.489,4.489,0,0,0,.266-.566l.01-.022c.189-.445.428-1,.6-1.018A.44.44,0,0,1,25.3,0a.657.657,0,0,1,.365.141.711.711,0,0,0,.262.128,1.473,1.473,0,0,0,.41.047c.053,0,.109,0,.162,0l.146,0a2.208,2.208,0,0,1-.062.959l0,0a2.765,2.765,0,0,0-.088.711,1.87,1.87,0,0,1,.355.2l.006,0a1.394,1.394,0,0,0,.4.209c-.1.394.184.595.451.79l.049.036.082.061a2.484,2.484,0,0,0,.221.171l.01.007c.168.124.313.231.32.365,0,.087-.055.181-.176.287a.353.353,0,0,1-.172.081.333.333,0,0,0-.283.235.279.279,0,0,0,.055.21.379.379,0,0,1,.068.2.955.955,0,0,1-.217.506,1.1,1.1,0,0,0-.213.449,2.9,2.9,0,0,0,.08.957c.123.214.52.306.807.373.066.015.129.03.182.044.162.037.34.093.51.146l.025.009c.176.057.344.111.5.146a1.391,1.391,0,0,0,.207.023h.006a.707.707,0,0,1,.285.062c.113.046.227.106.348.168l0,0a1.855,1.855,0,0,0,.826.282.8.8,0,0,0,.652-.42.8.8,0,0,1,.494-.383l.045,0c.217,0,.379.19.52.359l.023.027c.037.043.07.083.105.118a.639.639,0,0,0,.57.18,2.669,2.669,0,0,0,.453.035c.148,0,.295-.007.455-.017s.3-.019.459-.019h.166a1.207,1.207,0,0,1,1.135.428,5.129,5.129,0,0,1,.648,1.633.512.512,0,0,1,0,.218v.012l0,.014a.512.512,0,0,0,0,.211,2.066,2.066,0,0,0,.76,1.342l.02.017c.287.248.4.341.287.749a5.291,5.291,0,0,0-.152.761,1.38,1.38,0,0,1-.348.761.508.508,0,0,1-.332.193.62.62,0,0,0-.314.15,1.244,1.244,0,0,0,.65.158l.123,0h.018l.2,0,.08,0a1.335,1.335,0,0,1,1.006.433,3.661,3.661,0,0,1,.668,2.543,4.386,4.386,0,0,0,.463,1.925l.039.094a1.885,1.885,0,0,1-.389,1.61c-.025.04-.049.08-.07.121a1.724,1.724,0,0,0-.455,1.021,1.255,1.255,0,0,0,.4.793l.008.009c.066.076.117.138.162.2a2.87,2.87,0,0,1,.279.523l0,.009c.162.358.316.7.783.8a3.175,3.175,0,0,1,1.76,1.189,2.568,2.568,0,0,0,1.674,1.131c.17.016.354.016.533.016a3.431,3.431,0,0,1,.844.068l.01,0a1.669,1.669,0,0,1,.631.235.879.879,0,0,1,.229.169.624.624,0,0,0,.354.2,1.464,1.464,0,0,0,.314.035,1.25,1.25,0,0,0,.9-.38,1.811,1.811,0,0,0,.438-.783l0-.007c.16-.456.33-.927.932-.994.336-.038.674-.06.969-.079.416-.026.844-.055,1.281-.117A11.021,11.021,0,0,0,53,25.016a11.8,11.8,0,0,1,1.182-.262,6.98,6.98,0,0,0,2-.729l.088-.041c.135-.065.262-.126.391-.186.146-.061.293-.131.43-.2a4.192,4.192,0,0,1,.826-.325l.088-.029.088-.028a4.259,4.259,0,0,0,1.02-.439,2.165,2.165,0,0,1,.729-.262h.006l.018,0a2.459,2.459,0,0,0,.5-.15,1.94,1.94,0,0,0,.561-.405l0,0a.966.966,0,0,1,.713-.361,1.32,1.32,0,0,1,.287.035c.1.047.213.11.313.169a2.7,2.7,0,0,0,.252.138,2.408,2.408,0,0,0,.652.1,2.368,2.368,0,0,0,.646-.1c.135-.035.279-.087.393-.127a2.389,2.389,0,0,1,.771-.185c.029,0,.064,0,.1,0a.968.968,0,0,1,.508.211.532.532,0,0,0,.275.126c.117,0,.24-.1.393-.337l.029-.043a.557.557,0,0,1,.4-.3.437.437,0,0,1,.172-.026H66.9l.068,0a.539.539,0,0,0,.307-.087c.258-.185.264-.467.27-.767l0-.037a2.752,2.752,0,0,1,.029-.374,2.838,2.838,0,0,1,.2-.629,3.191,3.191,0,0,0,.18-.56c.016-.081.027-.14.033-.184.025-.135.025-.135.111-.187l.027-.017c.025-.018.061-.038.1-.068a4.241,4.241,0,0,0,.584-.5l.012-.011a3.522,3.522,0,0,1,.666-.554.583.583,0,0,1,.295-.085,1.052,1.052,0,0,1,.295.056l.014,0a1.824,1.824,0,0,0,.313.068l.07.006.07.007a1.834,1.834,0,0,1,.662.14c.066.333-.174.536-.406.733l-.01.006a1.535,1.535,0,0,0-.346.363,1.381,1.381,0,0,1,.17.73l0,.063a1.3,1.3,0,0,1,.553.257,1.844,1.844,0,0,0,.293.171,2.107,2.107,0,0,0,.484.052c.1,0,.2,0,.318.017.3.042.613.085.613.429a.711.711,0,0,1-.1.383l0,0a.989.989,0,0,0-.119.415c0,.57.205.847.635.847a3.712,3.712,0,0,0,1.209-.348,4.588,4.588,0,0,1,.824-.277.934.934,0,0,0-.365-.672c-.18-.183-.336-.341-.26-.549a.91.91,0,0,0,.49-.335.851.851,0,0,1,.441-.313.445.445,0,0,1,.145-.026.547.547,0,0,1,.371.189l.027.024a.505.505,0,0,0,.314.166.324.324,0,0,0,.055-.006,2.024,2.024,0,0,1,.873-.612.8.8,0,0,1,.121-.009.3.3,0,0,1,.25.092c.1.128.039.364-.012.573l-.018.067a1.435,1.435,0,0,0,.262.034h.018c.213.014.416.025.525.267a.862.862,0,0,1,.045.355c-.01.126-.014.159.3.252a1.321,1.321,0,0,0,.258.062l.008,0c.209.037.357.063.391.4a1.45,1.45,0,0,1-.18.607l-.006.006-.023.056c-.027.064-.053.124-.072.177a12.083,12.083,0,0,0-.375,1.754c-.006.04-.01.079-.016.119s-.006.062-.008.093a2.1,2.1,0,0,1-.125.617l-.014.042c-.088.271-.2.607-.057.8a.487.487,0,0,0,.414.154.632.632,0,0,0,.307-.1.9.9,0,0,1,.26-.1.888.888,0,0,1,.215-.027c.314,0,.461.2.629.437l.018.022a2.222,2.222,0,0,0,.248.3c.445.41.459.639.264,1.216-.027.106-.061.21-.09.31l-.02.056-.01.028a4.006,4.006,0,0,0-.187.826c0,.1,0,.2.01.3l.006.068a2.456,2.456,0,0,1-.059.886,2.721,2.721,0,0,1-.609.964l-.014.018c-.068.082-.141.165-.207.25l-.033.031a3.9,3.9,0,0,0-.572.608.41.41,0,0,0-.035.367l.006.009a.714.714,0,0,1,.029.246,1.073,1.073,0,0,1-.281.635.552.552,0,0,1-.205.2.761.761,0,0,0-.248.229c-.107.122-.148.219-.117.288.039.087.191.129.465.129a1.461,1.461,0,0,1,.992.386.925.925,0,0,0,.525.146c.061,0,.121,0,.188-.008h.016l.045,0c.059,0,.119,0,.184,0a1.942,1.942,0,0,1,.3.022c0,.339.293.771.873,1.289.072.072.141.14.209.2l.008.006a2.786,2.786,0,0,1,.67.827c.127.313.23.616.336.937l.076.215.014.036c.344.77.547,1.235-.014,2.024a1.287,1.287,0,0,0-.2.634l0,.011a1.674,1.674,0,0,1-.1.449,1.165,1.165,0,0,1-.687.56c-.088.04-.18.079-.268.128-.291.165-.654.351-1.105.569a2.592,2.592,0,0,1-.437.181l-.012,0a2.524,2.524,0,0,0-.549.245c-.4.257-.613,1.221-.65,1.41a.376.376,0,0,0-.025.158,1.111,1.111,0,0,0,.393.786,2.058,2.058,0,0,1,.395.535c.289.632.645,1.285.957,1.861l.074.135q.141.253.27.5a6.944,6.944,0,0,0,.4.661l.02.03c.123.19.242.369.344.565s.213.422.3.631l.01.029c.1.229.186.418.287.6a1.549,1.549,0,0,1,.35,1.214,2.22,2.22,0,0,1-.35,1.22c-.1.158-.2.338-.287.5l0,.007a6.419,6.419,0,0,1-.492.8,1.835,1.835,0,0,1-.127.145l-.01.012c-.154.17-.154.17.086.446l0,0c.092.115.188.222.281.326l.031.036a2.111,2.111,0,0,1,.754,1.613c-.02.182-.041.36-.062.534l-.012.1c-.027.2-.057.412-.078.626a1.251,1.251,0,0,0,.348,1.258,1.465,1.465,0,0,0,1.3.607,4.747,4.747,0,0,1,2.477.692,1.63,1.63,0,0,1,.541.516,1.151,1.151,0,0,0,.484.439,4.015,4.015,0,0,0,.387.137l.02.006a1.682,1.682,0,0,1,.852.465,2.488,2.488,0,0,1-.387.382,1.713,1.713,0,0,0-.486.575c-.287.606.02,1.076.344,1.572l.068.1c.031.047.064.092.094.134a.8.8,0,0,1,.213.79,2,2,0,0,1-.2.521,2.109,2.109,0,0,0-.209.546,10.05,10.05,0,0,0,0,2.436,2.378,2.378,0,0,0,.566,1.189,9.424,9.424,0,0,0,1.146,1.215c.35.239.879.6.613,1.109a2.752,2.752,0,0,1-.873,1.179.478.478,0,0,1-.162.027,1.162,1.162,0,0,1-.4-.1,1.028,1.028,0,0,0-.373-.1.387.387,0,0,0-.211.06.565.565,0,0,0-.176.19l0,0c-.041.074-.068.123-.275.149a1.51,1.51,0,0,1-.332-.062l-.025-.006c-.074-.021-.137-.036-.182-.044l-.15-.017a6.072,6.072,0,0,1-1.068-.179,1.271,1.271,0,0,1-.541-.3,1.107,1.107,0,0,1-.152-.239l-.01-.019a.826.826,0,0,0-.17-.239.473.473,0,0,0-.234-.079c-.238,0-.322.32-.4.6l0,.013a1.483,1.483,0,0,1-.1.3c-.086.134-.146.161-.213.161a.512.512,0,0,1-.092-.012l-.014,0H84.8a.933.933,0,0,0-.133-.012.547.547,0,0,0-.15.019.607.607,0,0,0-.34.273.7.7,0,0,1-.268.254.212.212,0,0,1-.1.025.825.825,0,0,1-.437-.2h0c-.029,0-.152-.125-.18-.169a.2.2,0,0,0-.045,0,.2.2,0,0,0-.113.039.241.241,0,0,1-.148.051c-.1-.007-.174-.01-.24-.01-.445,0-.588.132-.758.7a9.86,9.86,0,0,1-.687,1.428l0,.01a2.063,2.063,0,0,1-.873,1.108,2.262,2.262,0,0,1-.58.153,1.017,1.017,0,0,1-.268.058,1.146,1.146,0,0,0-.3.064c-.2.153.289,1.045.418,1.257.051.07.1.143.15.213l0,.006h0a1.612,1.612,0,0,0,1.559.96.878.878,0,0,1,.389.083l.008,0h0c.055.021.111.045.184.066a3.738,3.738,0,0,0,.863.254l.008,0c.115.023.25.052.391.087a2.619,2.619,0,0,1,.609.286l.006,0a2.692,2.692,0,0,0,.6.282c.084.019.15.031.207.041a.817.817,0,0,1,.443.191c.092.079.184.156.254.214l.006.006a2.64,2.64,0,0,1,.738.777,1.717,1.717,0,0,1,.213.8l.01.11a.432.432,0,0,0,.068.008.645.645,0,0,0,.211-.048l.025-.007a.7.7,0,0,1,.211-.041.44.44,0,0,1,.064,0,1.02,1.02,0,0,1-.016.306,1.224,1.224,0,0,0-.027.233,1.092,1.092,0,0,0,0,.649,1.316,1.316,0,0,0,.309.441l.021.023c.043.05.086.1.125.143a1.493,1.493,0,0,1,.217.929c0,.095,0,.19.006.292.006.04.014.08.018.119l0,.019a1.189,1.189,0,0,0,.174.555,1.529,1.529,0,0,0,.268.2l.006,0a1.023,1.023,0,0,1,.334.29c.27.289.053.7-.141,1.061l-.027.056c-.018.035-.037.07-.055.1-.141.24-.271.482-.424.771a7.888,7.888,0,0,1-1.07,1.665c-.17.209-.33.441-.482.665l-.016.021c-.168.244-.357.521-.562.768a1.634,1.634,0,0,1-.869.488,3.347,3.347,0,0,0-.541.2c-.412.207-.494.395-.35.8l.025.058,0,.007a1.338,1.338,0,0,1,.166.918,1.168,1.168,0,0,1-.16.416.869.869,0,0,0-.146.514,1.279,1.279,0,0,0,.307.576l.008.01a1.173,1.173,0,0,1,.215.354,1.434,1.434,0,0,1-.18.612l-.021.053a1.468,1.468,0,0,0-.105.292,5.372,5.372,0,0,0-.172.726l-.006.033c-.014.076-.031.155-.045.234-.1.437-.205.461-.41.509l-.016,0a1.544,1.544,0,0,0-.377.137,1.4,1.4,0,0,0-.564,1.221,2.494,2.494,0,0,0,.295.029c.258.016.4.023.465.4a2.877,2.877,0,0,1,.014.353v.014a1.366,1.366,0,0,0,.1.618,2.823,2.823,0,0,1,.137,1.149,4.261,4.261,0,0,0,.059.952c.047.355.234.394.469.441a1.6,1.6,0,0,1,.293.082c.41.194.41.426.41.845-.029.813.053,1.652.887,1.717a6.727,6.727,0,0,1,0,1.1,1.917,1.917,0,0,0-1.34.654.977.977,0,0,0-.363,1c0,.059.012.12.014.188.07.487-.16.651-.455.86l-.021.015c-.064.047-.133.095-.2.149-.111.109-.227.217-.338.316s-.264.243-.4.376c-.061.069-.139.152-.223.237l-.031.03a3.134,3.134,0,0,0-.7.905c-.041.185-.018.2.031.238a.348.348,0,0,1,.119.147.444.444,0,0,1,0,.4c-.162.285-.721.362-1.092.413l-.082.011-.041.007-.141.012-.045,0c-.273.017-.457.027-.615.371-.3.622.232,1.008.746,1.382.4.287.8.585.816.984a.456.456,0,0,1-.279.4.552.552,0,0,0-.32.477l0,.009a.856.856,0,0,1-.16.37.323.323,0,0,1-.246.087l-.064,0a.812.812,0,0,0-.088-.006.3.3,0,0,0-.25.116.811.811,0,0,0-.186.424l0,.009a1.126,1.126,0,0,1-.074.244,3.282,3.282,0,0,0-.043.339l0,.029,0,.009c-.029.3-.051.516-.277.516a.825.825,0,0,1-.324-.09,1.644,1.644,0,0,1-1.027-.982.4.4,0,0,0-.051,0,1.74,1.74,0,0,0-1.1.679,1.09,1.09,0,0,0-.123.667v.014a1.061,1.061,0,0,1-.094.582,1.134,1.134,0,0,1-.756.46l-.014,0a2.906,2.906,0,0,0-.34.117,4.182,4.182,0,0,1-1.189.264v.029a2.715,2.715,0,0,1-.109.923.722.722,0,0,1-.348.393l-.006,0a.919.919,0,0,0-.256.211,2.409,2.409,0,0,0-.4.635l0,.007c-.184.362-.375.736-.59.736a.3.3,0,0,1-.039,0,1.448,1.448,0,0,1-.4-.332l-.01-.013a2.166,2.166,0,0,0-.16-.157l-.086-.053-.045-.029a1.721,1.721,0,0,1-.479-.373L71,124.109l-.012-.015c-.184-.23-.205-.259-.09-.568a.749.749,0,0,1,.16-.294.411.411,0,0,0,.1-.467c-.059-.13-.455-.229-.666-.282l-.094-.024c.039-.6-.254-.716-.74-.905l-.021-.009a1.672,1.672,0,0,1-.914-.692.328.328,0,0,1-.109-.193c-.006-.052-.008-.058-.281-.107a.831.831,0,0,0-.24-.03c-.082,0-.16.007-.25.016l-.018,0c-.072.006-.139.013-.205.013a2.093,2.093,0,0,1-.209-.032,1.02,1.02,0,0,0-.191-.023.544.544,0,0,0-.229.056.673.673,0,0,0-.2.192.385.385,0,0,1-.354.2.745.745,0,0,1-.082,0,3.477,3.477,0,0,1-.348,1.368,1.191,1.191,0,0,0-.008.892l.008.024c.023.089.051.189.074.3a4.422,4.422,0,0,0,.521,1.055l0,.008c.055.091.111.184.166.278s.127.224.186.334l.027.058a2.42,2.42,0,0,0,.584.823,1.286,1.286,0,0,1-.994,1,.946.946,0,0,1-.2.023c-.227,0-.32-.122-.437-.277a1.9,1.9,0,0,0-.209-.242.946.946,0,0,0-.645-.333l-.072-.017a1.345,1.345,0,0,1-.674-.363l0,0h0a1.4,1.4,0,0,0-.432-.282,4.218,4.218,0,0,0-1.461-.228,3.2,3.2,0,0,0-.752.074c-.215.073-.3.283-.377.484a1.051,1.051,0,0,1-.23.4.475.475,0,0,1-.289.106.849.849,0,0,1-.332-.1,1.02,1.02,0,0,0-.4-.1.724.724,0,0,0-.092.006.438.438,0,0,0-.25.2l-.008.009a.534.534,0,0,1-.2.182.29.29,0,0,1-.092.015.426.426,0,0,1-.129-.025l-.016-.006a.384.384,0,0,0-.146-.034.267.267,0,0,0-.07.009c-.918,0-1.3.483-1.871,1.215a2.477,2.477,0,0,1-1.207.846ZM58.229,72.9v.042c.037.463.516.86.9,1.18l.168.141a.033.033,0,0,0,.01-.021c-.078-.08-.168-.161-.264-.247l-.018-.018c-.359-.325-.764-.69-.795-1.077ZM57.053,70.35h0a.359.359,0,0,0,.07.227c.156.322.93,1.025,1.258,1.025a1.01,1.01,0,0,1,.025.2.526.526,0,0,0-.025-.227c-.344,0-1.117-.747-1.258-1.041a.553.553,0,0,1-.07-.185ZM45.08,65.907c0,.1-.008.208-.016.341l0,.049a2.907,2.907,0,0,0-.014.317l.006-.145.01-.144a4.082,4.082,0,0,0,.018-.419Zm13.951-1.552h0a2.769,2.769,0,0,0,0,.648.767.767,0,0,0,.158.307l0,.007a.658.658,0,0,1,.145.268v-.042a.615.615,0,0,0-.145-.289.738.738,0,0,1-.162-.324,1.608,1.608,0,0,1-.008-.429v-.024c0-.037.006-.072.008-.1Zm-1.24-3.22a.524.524,0,0,1,.592.4.788.788,0,0,1-.006.26l0,.012a.791.791,0,0,0,.008.347,1.473,1.473,0,0,0,.424.512l0,0,.008.008a1.456,1.456,0,0,1,.367.418.87.87,0,0,1,.047.258.7.7,0,0,0-.047-.285,1.511,1.511,0,0,0-.4-.494l-.008-.006a1.432,1.432,0,0,1-.395-.493.48.48,0,0,1,0-.269v-.008l0-.007a.647.647,0,0,0,0-.329.518.518,0,0,0-.576-.366c-.078,0-.164.006-.24.011s-.166.012-.252.012a.632.632,0,0,1-.01-.105.594.594,0,0,0,.01.147h.018c.08,0,.158,0,.225-.01S57.711,61.136,57.791,61.136ZM57.77,60.09h0v0a.321.321,0,0,1,.031.13.436.436,0,0,0-.031-.173,3.453,3.453,0,0,0-.475-.021,3.51,3.51,0,0,1-.477-.021c-.006-.063-.006-.132-.006-.2,0,.075,0,.161.006.24a2.323,2.323,0,0,0,.527.047l.223,0Zm-.979-1.3h0a3.419,3.419,0,0,1,.029.428,2.578,2.578,0,0,0-.033-.471.723.723,0,0,1-.1,0,1.7,1.7,0,0,1-.943-.349c-.049-.037-.1-.073-.139-.111-.072-.061-.109-.091-.162-.091a.812.812,0,0,0-.264.092.521.521,0,0,0-.156.136.289.289,0,0,1-.232.129.474.474,0,0,1-.07-.007h0c-.01,0-.016,0-.02-.011a.112.112,0,0,0,0,.083.028.028,0,0,0,.018.013.532.532,0,0,0,.061,0,.283.283,0,0,0,.229-.134.394.394,0,0,1,.17-.135l.027-.015.021-.013a.6.6,0,0,1,.217-.093c.047,0,.076.032.141.1.033.036.07.078.123.128a1.743,1.743,0,0,0,.914.321.878.878,0,0,0,.162-.015ZM54.6,56.853h0a.446.446,0,0,0,.254.513.563.563,0,0,1,.242.259A.15.15,0,0,0,55.1,57.6a.583.583,0,0,0-.227-.275.55.55,0,0,1-.275-.475ZM2.707,10.66a.811.811,0,0,1-.281-.075.906.906,0,0,0-.3-.068A.444.444,0,0,0,2,10.533l-.035,0a.647.647,0,0,1-.355-.161l-.033-.025a.492.492,0,0,0-.246-.134c-.1,0-.16.111-.207.36-.016.053-.045.081-.084.081-.135,0-.348-.293-.369-.361-.141-.131-.271-.269-.387-.39L.236,9.851C.158,9.771.082,9.689,0,9.609c.051,0,.105,0,.174,0a1.986,1.986,0,0,0,.42-.035c.059-.01.119-.022.2-.041a2.224,2.224,0,0,1,.455-.065.687.687,0,0,1,.184.021,2.651,2.651,0,0,1,1.23.856c.025.025.051.05.074.075l.068.067c.078-.106.168-.217.277-.339-.025.229-.064.423-.277.492A.313.313,0,0,1,2.707,10.66Zm3.3-.552a.483.483,0,0,1-.189-.293l-.006-.027c-.02-.076-.039-.154-.064-.224.064.117.135.271.2.406.021.048.041.094.063.137Z" fill="#5751c8" stroke="#eaecff" stroke-width="0.5"/></g></g></svg>