<svg xmlns="http://www.w3.org/2000/svg" width="156.401" height="120.5" viewBox="0 0 156.401 120.5"><g transform="translate(-0.751 -50.803)"><g transform="translate(1.001 51.053)"><path d="M1734.582,999.784l-.106-.772-.878-.174s-1.229-.139-1.687-1.964-2.7-.348-2.7-.348l-.948.036s-1.241.01-.909,1.839l-.641.083a8.3,8.3,0,0,0-.814.239,16.914,16.914,0,0,1-1.756.743,1.043,1.043,0,0,0-.109.229s-.2.6-.53.614a.985.985,0,0,1-.852-.4l-.351.8.458,1.369s3.091,1.435,2.25,2.911l1.615,0,.7,1.052a1.094,1.094,0,0,0-.384,1.37l-.839,2.458a4.925,4.925,0,0,0,3.266,1.47c1.79-.073,2.738-.179,2.741,1.927a6.144,6.144,0,0,1,3.019-.074,3.186,3.186,0,0,1,2.421-1.161c1.755-.143,1.323-.694,1.287-1.431l-.216-.276-.088.012-.168-.023-.315.083-.391.013-.234.048-.113.241-.223.135-.326.159-.278.025-.336-.146-.136-.288-.158-.387-.055-.241-.235-.482-.044-.505-.1-.289-.158-.411-.359-.311-.289-.193-.136-.241.088-.229.088-.182.3-.012.234.059.256.071.213.047.234-.024.113-.241.19.024.315.145.325.123.392-.025.124-.34-.125-.34-.158-.34.043-.557-.056-.458-.125-.34-.392-.264-.3-.169-.089-.434-.158-.569-.18-.482-.414-.328-.325-.123-.191-.264v-.289l.2-.071.278-.047.413.011.571-.037.446-.024.358-.135.515-.158.234-.241-1.52-1.812Z" transform="translate(-1596.206 -926.744)" fill="#5751c8" stroke="#eaecff" stroke-linecap="round" stroke-linejoin="round" stroke-width="0.5"/><path d="M1561.746,151.2a2.17,2.17,0,0,0-.733,1.3,2.519,2.519,0,0,1-.287.551c-.105.137-1.189,1.594-1.189,1.594l-.173.286a.938.938,0,0,0-.342.32l-.174.213a.5.5,0,0,1-.252.107,2.657,2.657,0,0,0-.235.174c-.05.05-.331.258-.331.258a.361.361,0,0,0-.106.258.341.341,0,0,1-.022.179l-.19.247-.084.112a3.087,3.087,0,0,0-.436.937s-.212.628-.341.937a2.23,2.23,0,0,0-.229.864,9.1,9.1,0,0,0,.024,1.043l.051.365a1.212,1.212,0,0,0,.04.449,1.2,1.2,0,0,1,.051.292c0,.129,0,1.217,0,1.217a1.638,1.638,0,0,0,.208.8s.2.3.287.476c0,0,.084.14.146.235a.458.458,0,0,1,.1.37,6.168,6.168,0,0,0-.256,1.705,1.531,1.531,0,0,1-.056.292c-.045.146-.783,1.919-.783,1.919s-.151.325-.185.443a.292.292,0,0,1-.185.2,2.008,2.008,0,0,0-.745.394l-.09.113h.891l.985,1.052a3.636,3.636,0,0,1-2.244,1.9l.6.736,1.124.385.141.772,2.317.032.494,2.071,1.016-1.3.667.21h1.018l.492.631a2.392,2.392,0,0,0,.628-2.669l.07-.527.878.034s-1.091-1.894.488-2.668l.49-1.37,2.068-2.565-.422-.947-.878-.35-.6-1.123-.983-.244,2.418-3.408.914,1.122.842-.106-.247-1.018,1.4-.634.38-.014.1-.133.066-.122.135-.147.256-.194.168-.23.314-.375.146-.123.135-.3.043-.4.022-.289-.033-.241-.055-.206.055-.229.157-.218.1-.265-.055-.158-.147-.3-.245-.082-.37-.411-.066-.276-.088-.435-.088-.288-.066-.17-.268-.312-.19.036-.256.254-.1.289.055.34-.2.723-.326.253h-.1l-.267.147-.413.352-.288.241-.468.254-.359-.181-.391-.24-.338-.435-.044-.134-.077-.229.066-.122.076-.412.066-.328-.213-.145-.4-.133-.29-.123-.212-.134-.326-.328-.348-.312-.3-.458-.169-.458-.326-.264-.18-.435-.136-.494-.191-.351.413-.3.043-.229-.1-.1.1-.289.168-.218.146-.218.212-.328.325-.23.2-.34.223-.412-.1-.288-.18-.312-.495-.5-.392-.411-.268-.2-.1-.3.135-.328.245-.159.2-.17.022-.363-.077-.3-.257-.64-.011-.264-.114-.351-.2.289-.169-.422h-.113l-.212.048-.157.146-.288.265-.413.388-.358.241-.57.606-.369.17-.369.329-.124.4.169.217.245.217v.534l-.3.265-.467.558,0,.02.276,1.213S1562.341,149.972,1561.746,151.2Z" transform="translate(-1441.034 -136.937)" fill="#5751c8" stroke="#eaecff" stroke-linecap="round" stroke-linejoin="round" stroke-width="0.5"/><path d="M1421.432,775.535c.21.04.6.137.759.177a1.286,1.286,0,0,0,.944-.1l.573-.316.646-.179a.512.512,0,0,0,.346-.67s-.4-.96.321-1.421a.668.668,0,0,1,.767-.033l.727.467s.7.3,1.114-.106a2.282,2.282,0,0,0,.636-1.244,10.315,10.315,0,0,1,.836-2.544l.588-1.1.29-.622a5.608,5.608,0,0,0,.352-1,1.655,1.655,0,0,1,.472-.817,6.643,6.643,0,0,1,.75-.67,1.594,1.594,0,0,0,.44-.751l.065-.294.064-1.012-.639-.1a1.377,1.377,0,0,1-1.265-1.087l-2.844-.207-.63,1.791-1.332,1.3c-.876.984-1.791-.279-1.791-.279l-1.193.282a1.383,1.383,0,0,0-1.475-.841c-2.282.038-1.367,1.23-1.367,1.23l-1.228.984.667.315-.35.948-1.966-.1-2.824-2.992-.264.152a.428.428,0,0,0-.2.4l.037.455s0,.551,0,.682a1,1,0,0,1-.036.252l-.167.527c-.131.431-.6.42-.9.468s-.646.133-.646.133c-.5.121-.586.408-.586.408-.107.359.169.826.445,1.221s.8,1.3.8,1.3a1.133,1.133,0,0,1-.166,1.365l-.285.22c.033.025.07.059.119.1a1.771,1.771,0,0,0-.743,1.213,3.351,3.351,0,0,0,.264,1l.027.077.022.048v.264l-.025.1c0,.007,0,.013,0,.02-.008.032-.016.063-.024.094l-.06.244-.127.259c-.02.042-.04.085-.062.13h0a.157.157,0,0,0,.087,0l.343-.24.066.059h0l-.078.049-.348.228a.54.54,0,0,0-.177.278,1.668,1.668,0,0,0,.088.882c.072-.27-.081-.784.076-.98l.114.036a.167.167,0,0,0,.087-.194l.19-.1c.035.179-.176.334-.145.536.023.152-.1.405.022.5.086-.141.291-.109.435-.123a.178.178,0,0,0,.154.118,2.62,2.62,0,0,1,.109-.931c.044-.113.313-.25.261-.362-.063-.136-.271-.1-.207-.324.191-.01.248.332.508.24a1.451,1.451,0,0,0,.681-.355c.291-.34.375-.825.678-1.171.016.206-.713,1.262-.189,1.134l-.088-.1a.892.892,0,0,1,.9-.4l.055.17c.146-.037.182-.256.321-.336l.066.107c.229-.267.5-.737.85-.863a1.986,1.986,0,0,1,1.248-.2l.011.071a1.991,1.991,0,0,0-.654.01,2.153,2.153,0,0,0-.721.38c.133.075.341-.023.473-.082.166-.074.32-.013.492-.065.348-.1.744-.226.989.164-.258.2-.566-.436-.886-.074l.044.048.19-.084c.138.082.027.223.11.348a5.433,5.433,0,0,0,.906-.037c.291-.019.335.183.594.276a1.925,1.925,0,0,0,.482.021c.109,0,.191.1.279.16.162.109.408.362.615.323a.273.273,0,0,0,.267.241c-.039.106.12.193.085.284s-.115.209-.073.317a.931.931,0,0,1,.129-.006l.236-.06a1.07,1.07,0,0,1,.444-.033Z" transform="translate(-1307.805 -709.832)" fill="#5751c8" stroke="#eaecff" stroke-linecap="round" stroke-linejoin="round" stroke-width="0.5"/><path d="M1260.69,505.165l-1.16-1.262-.6-.947a6.111,6.111,0,0,0-3.492-.061s.015-1.093-.9-.881a.8.8,0,0,1-1.019-.7l-1.193.247a2.168,2.168,0,0,1-.594,2,1.685,1.685,0,0,1-1.79.213l-.6-.912-.878-.6-.6.562.493,1.123-.842.317s-.951-2.28-2.284-2l-.667.352-.422-.666.6-.773.173-2.106-.247-.7,2-1.968v-.632s1.333-.669.067-2.247l-1.438.985-.772.071-.317-.842-2.7.109s-.878-.1-.388-1.3l-.913.107-.7,1.019-.279,1.72-1.65.072-.28.281.493,1.088-.42.773-.1,2.071.632-.036.209-.983.632-.106.6.561.948-.071-.174.878s-1.791-.489-2.034,1.828.915,2.035.915,2.035l.142.877.841-.914.807.139.073,1.9s.736-.563-.07.141a1.28,1.28,0,0,0-.314,1.58,2.255,2.255,0,0,0,0,2.106c.6,1.087.772-.387.772-.387a3.766,3.766,0,0,1,.423,1.544,2.262,2.262,0,0,0,.669,1.368s.808.1.633,1.193-1.088-.1-1.088-.1l-.737.492a8.3,8.3,0,0,0,2.32,2.1,3.957,3.957,0,0,1,1.616,1.332,1.291,1.291,0,0,0-1.051,1.757l-.07.14a1.509,1.509,0,0,1-2,.81l-.88-1.894-1.3-.209-.387-.772s-.983.177-.876,1.089.948.455.948.455l.141.6c-1.052.6-.349,1.931-.349,1.931l-.561.387-.6-1.087-.772.492-.8.106.291.933-.321.708s.676.257.323,1.223-.546,1.031-.03,1.352l.514-.676,1.448-.227,1.964.48s2.06-.131,2.9,1.123l-.32,1.095s1.448.031.967.964-1.737.614-1.737.614l-.547.129-.031.644c.065.8,1.642.416,1.642.416l1.225,1.672.9-.1.181-.423-.146-.071.151.06.1-.241s.28.057.569.114c.193-.3.289-.656.514-.939.174-.218.636-.714.577-.982l-.114-.012-.124.218-.147-.181.114-.06v-.123c.166-.067.276.078.4-.132l.333-.585a.779.779,0,0,0-.049-.978c-.326-.514-.707-1.454-.2-1.934.053.107-.038.344-.027.487a1.944,1.944,0,0,1-.038.406l.1.024a1.956,1.956,0,0,0,.077.229c.164.055.318-.222.417-.329a.157.157,0,0,0-.18-.107l.124-.182.077.122c.188-.021.36-.327.478-.459l-.044-.048-.113.048a.217.217,0,0,1,.077-.289,1.321,1.321,0,0,0-.173-.507c-.06-.086-.205-.3-.167-.4.1-.264.147-.315.018-.564-.054-.1.171-.32.232-.389.056.1-.015.172-.059.267s0,.128.049.225c.1.19-.108.349-.1.544,0,.141.235.367.248.138a5.394,5.394,0,0,1,.039-.541,1.705,1.705,0,0,1,.464-.986,1.533,1.533,0,0,1,.432-.223.314.314,0,0,1,.2-.048.235.235,0,0,1,.092.048l.286-.22a1.133,1.133,0,0,0,.166-1.365s-.528-.909-.8-1.3-.552-.861-.445-1.221c0,0,.084-.287.586-.408,0,0,.347-.084.646-.133s.766-.037.9-.468l.167-.527a.989.989,0,0,0,.036-.252c0-.132,0-.682,0-.682l-.037-.455a.429.429,0,0,1,.2-.4l.264-.152a3.265,3.265,0,0,1,.553-.371c.163-.069.5-.164.5-.164s.924-.146.753-.893a11.017,11.017,0,0,1-.267-2.419l.024-1.251s0-.006,0-.015l1.465.279s-.423-1.614.91-2l.913.42,1.087-1.055a1.335,1.335,0,0,0,1.93-.424c.946-1.195.77-1.861.77-1.861Z" transform="translate(-1145.975 -460.212)" fill="#5751c8" stroke="#eaecff" stroke-linecap="round" stroke-linejoin="round" stroke-width="0.5"/><path d="M1592.231,743.861l-.913-.209-.283-1.755.245-.386c.842-.177.771-.7.771-.7-.809-1.3.558-2.563.558-2.563l-.668-.947-.806,1.159-.317-.631-1.158.107-1.115.015a1.463,1.463,0,0,0-.8.295s-.277.147-.326.262l-.065.114a.615.615,0,0,0-.032.245l-.016.212-.129,1.42-.064,1.012-.065.294a1.6,1.6,0,0,1-.44.751,6.647,6.647,0,0,0-.75.67,1.653,1.653,0,0,0-.472.817,5.612,5.612,0,0,1-.352,1l-.29.622-.588,1.1a10.314,10.314,0,0,0-.836,2.544,2.282,2.282,0,0,1-.636,1.244c-.411.4-1.114.106-1.114.106l-.727-.467a.668.668,0,0,0-.767.033c-.718.461-.321,1.421-.321,1.421a.512.512,0,0,1-.346.67c.948-.282.652,1.145.652,1.145-.28.808-1.649.7-1.649.7l1.688,2.525,1.229.069c.915,1.473,1.756.8,1.756.8l.177.737a2.99,2.99,0,0,1-1.824,1.442l.387.631.982-.317.983-.212-.6,1.3,1.439.068,1.174.431a.515.515,0,0,1,.421-.165,1.731,1.731,0,0,1,.87.173.573.573,0,0,0,.513-.065c.219-.174.136-.6.136-.6s-.1-.659-.129-1.034a1.014,1.014,0,0,1,.356-.76.36.36,0,0,1,.265-.119c.357-.028.651.5.651.5a2.615,2.615,0,0,0,.413.613.985.985,0,0,0,.852.4c.329-.01.53-.614.53-.614a1.035,1.035,0,0,1,.11-.229,16.934,16.934,0,0,0,1.756-.744,8.323,8.323,0,0,1,.814-.239l.641-.083c-.332-1.83.909-1.839.909-1.839-.212-1.369-.843-.526-.843-.526-.877.668-.563-.736-.563-.736,1.192-1.2.1-3.23.1-3.23a2.971,2.971,0,0,0,1.646-2.845l-1.826-.524C1591.288,747.443,1592.231,743.861,1592.231,743.861Z" transform="translate(-1462.863 -687.027)" fill="#5751c8" stroke="#eaecff" stroke-linecap="round" stroke-linejoin="round" stroke-width="0.5"/><path d="M1467.506,620.393a.624.624,0,0,1,.032-.245l.065-.114c.049-.114.326-.262.326-.262a1.465,1.465,0,0,1,.8-.295l1.115-.015,1.158-.107.665-1.721s-.387-.982.1-1.474l.6-.7L1471.7,615l-.911.949-.633-.526-.983.142c-1.018-.385-.177-1.369-.177-1.369a1.753,1.753,0,0,1-.6-1.228l.667-.036.1-.632-1.37-.876-.7-1.474-.737.352-.668-.842-.806.879-1.334-.068.072.983-.913.107a1.734,1.734,0,0,1-1.333,1.09l-.105.14c-.349,1.65-2.175,1.232-2.175,1.232l-1.335-.314s.176.667-.77,1.862a1.335,1.335,0,0,1-1.93.424l-1.087,1.055-.913-.42c-1.333.388-.91,2-.91,2l-1.465-.279c0,.009,0,.015,0,.015l-.023,1.251a11,11,0,0,0,.267,2.419c.171.748-.753.893-.753.893s-.333.095-.5.164a3.271,3.271,0,0,0-.553.372l2.824,2.992,1.966.1.35-.948-.667-.315,1.228-.984s-.914-1.192,1.368-1.23a1.383,1.383,0,0,1,1.475.841l1.193-.282s.914,1.263,1.791.278l1.332-1.3.629-1.791,2.844.207a1.377,1.377,0,0,0,1.265,1.087l.639.1.129-1.42Z" transform="translate(-1343.045 -568.558)" fill="#5751c8" stroke="#eaecff" stroke-linecap="round" stroke-linejoin="round" stroke-width="0.5"/><path d="M1289.552,315.474l.771-.879s-.6-1.158.349-1.65l.631-.387s-.633-1.3.1-1.474a1.224,1.224,0,0,1,1.088.139l.279-1.089.807-.071-.037-1.193.946-1.581s1.474-.423,1.192-1.335l1.122-1.125,1.335.806.668.631h.548l.09-.113a2.009,2.009,0,0,1,.745-.394.292.292,0,0,0,.185-.2c.034-.118.185-.443.185-.443s.738-1.773.783-1.919a1.532,1.532,0,0,0,.056-.292,6.183,6.183,0,0,1,.256-1.705.458.458,0,0,0-.1-.37c-.062-.1-.146-.235-.146-.235-.09-.179-.287-.476-.287-.476a1.639,1.639,0,0,1-.208-.8s0-1.088,0-1.217a1.183,1.183,0,0,0-.051-.292,1.211,1.211,0,0,1-.04-.449l-.051-.364a9.1,9.1,0,0,1-.024-1.043,2.228,2.228,0,0,1,.229-.864c.129-.309.341-.937.341-.937a3.087,3.087,0,0,1,.436-.937l.084-.112.19-.247-.643-.6-.914-1.333-.771.668-.7-.631-.947.738-.773-.385-.771.7.774,1.508a1.653,1.653,0,0,0-1.683,1.371l-2.106-.032-1.3.388-.315.948a2.448,2.448,0,0,0-1.754.634s-1.476-.911-1.755.178l-.7.247a2.286,2.286,0,0,1,.283,1.93l.457.526s-.456.189-.454,2c0,.105.037,1.334.037,1.334s.036.7-.948-.174l-.771.563-.878-.7s-.419,1.65-1.649.88l-.349,1.334-1.124-.1s.314-1.51-.914-1.438a1.663,1.663,0,0,0-1.543.985l-1.052.528.633.877.913-.107c-.49,1.194.388,1.3.388,1.3l2.7-.109.317.842.772-.071,1.438-.985c1.266,1.578-.067,2.247-.067,2.247v.632l-2,1.968.247.7-.173,2.106-.6.773.422.666.666-.352c1.334-.283,2.285,2,2.285,2l.842-.317-.493-1.123.6-.562.7-.774Z" transform="translate(-1185.161 -273.352)" fill="#5751c8" stroke="#eaecff" stroke-linecap="round" stroke-linejoin="round" stroke-width="0.5"/><path d="M1046.217,67.546l-.632.317-1.088.212-.034.843,2.141-.108-.417,2.984s1.931.1.915,1.614c0,0-2.211.635-1.647,2a3.933,3.933,0,0,0,1.512,1.894l-1.017.809-.949-.6-.28.878,1.721.735-1.189,3.055.562.35.914.771,2.247.629.457.561,1.052-.388s-.6-1.754.594-2.037l.7,1.3.912-.668,1.722,1.683,1.227-.879a11,11,0,0,1,1.2,2.456l1.125,1.157,2.176-.494a3.242,3.242,0,0,1,2.386-.986h.772l-1.3-1.262.35-.562-.668-.877s.21-.457,1.193-.037,1.3.49,1.826.208l-.809-1.157-.072-.913s1.863,1.928,3.089-.039l.244-1.018-1.475-.7,1.228-.493,1.054.7.6-.562.527.385s-.806,1.089.318,1.579,2.845,1.33,3.162,2.313l2.106.138.388,1.088,1.3-.388,2.106.032a1.653,1.653,0,0,1,1.683-1.371l-.774-1.508.771-.7.773.385.947-.738.7.631.771-.668.914,1.333.643.6a.342.342,0,0,0,.022-.179.362.362,0,0,1,.106-.258s.28-.208.331-.258a2.6,2.6,0,0,1,.235-.174.5.5,0,0,0,.252-.107l.173-.213a.94.94,0,0,1,.342-.32l.173-.286s1.083-1.457,1.189-1.594a2.52,2.52,0,0,0,.287-.551,2.171,2.171,0,0,1,.733-1.3c.6-1.229-1.09-1.859-1.09-1.859l-.276-1.213h0l-.326-.411-.19.123-.315-.023-.2-.386-.469-.411-.38-.106-.5-.059-.538.048-.6.1-.56.072-.658.072-.413-.194-.125-.217-.648-.7-.37-.663-.279-.592-.278-.363-.527-.024-.527-.157-.435-.059-.571-.217-.3-.193-.392-.339-.19.06-.19.351-.157.242-.135.217-.135.3-.19.423-.2.506-.288.23-.446.083-.413-.193-.1-.4-.078-.545-.077-.387.077-.34-.067-.363-.38-.3-.38-.193-.38.072-.3-.082-.245-.193-.158-.363-.246-.4-.425-.328-.267.025-.212.047-.267.1-.314.025-.337-.122-.088-.17-.045-.376.157-.34.256-.182.369-.036.446.082.435-.024.234-.17-.337-.411-.4-.059-.446-.011-.494-.146-.435-.181-.479.012L1070,65.6l-.885.1-.6-.288-.494-.24-.75-.217-.089-.53-.637-.7-.425-.288-.435.146-.424.06-.347.134-.369.147.066.6-.38.313-.57.278-.593.072-.337-.434-.191-.581-.289-.158-.717.207-.234.435.224.4-.076.363-.615-.169-.681.013-.1-.3.212-.194-.246-.6-.4-.024-.457-.059-.369.134-.369-.059-.684.158-.516.123-.4.159-.516-.011-.67-.386-.571-.182-.75-.311-.794-.094-.929.036-.68.1-.75.376-.658.4h-1.244l-.538.048-.457.34-.728.483.044.023-.034,0-.3-.446-.2-.024-.278-.011-.424-.047-.3-.011-.369.4.49,1.174Z" transform="translate(-968.026 -62.529)" fill="#5751c8" stroke="#eaecff" stroke-linecap="round" stroke-linejoin="round" stroke-width="0.5"/><path d="M1707.976,1176.021a3.185,3.185,0,0,0-2.421,1.161,6.142,6.142,0,0,0-3.019.074l-1.825.494a6.527,6.527,0,0,1-2.422.319.908.908,0,0,0-1.44-.349c-.526.317-.56.843-.244,1.615l-.05.241a2.723,2.723,0,0,0-.928-.07c-.345.024-.726-.023-1.261-.022s-.595.108-.595.108l-.143.084a6.194,6.194,0,0,0-1.164,1.25,2.184,2.184,0,0,1-.333.31l.215.773a1.633,1.633,0,0,1-1.367,1.406l.438,1.649-.982.212-.035.491a1.873,1.873,0,0,0,.915,1.824l-.561.878.808.315a4.731,4.731,0,0,1,1.477,1.929l1.3,1.016a4.152,4.152,0,0,0,2.914.628l.279-1.229-.353-1.4a2.468,2.468,0,0,0,1.507-2.073s-.106-.527.526-.422.6,1.088.6,1.088l.561-.6.422.421.7-.7,2.493.172,1.123-.528.727-.12-.1-.26-.191-.312v-.218l-.179-.158-.325-.145-.348.024-.479.072-.157.147-.359-.312.113-.517.146-.264-.446-.083-.358.048-.413-.146-.212-.047-.325.024h-.37l-.413-.059-.413-.182-.314-.264-.246-.351.358-.4.347-.095.5.059.337.134.4.071.457-.135.359-.06.288-.025.326.011.369.047.19.047.4-.06.288-.241.212-.312.179-.506.1-.434.124-.582.178-.34.234-.17.314-.111.268-.083.493-.159.56.012.4-.095.3-.17.368-.558.234-.53.19-.534.222-.751.123-.834.054-.495.414-.146.413.046.347-.024.6-.242.347-.435.157-.06.326-.012.347.047h.494l.358-.072.446-.146.325-.1.446.034.5.011.669.047.669-.243.435-.194.4-.266.515-.483.392-.313-.114-.434-.147-.241-.326-.217-.435-.17-.49-.047-.347.1-.413.171-.457.23-.468.012-.446-.095-.505-.351-.447-.157-.3.06-.278.182-.325.23-.413-.082-.267.024-.358.048-.223.024-.413.1-.446.06-.424.025-.75.289-.185.722c.036.737.468,1.288-1.287,1.431Z" transform="translate(-1566.636 -1090.733)" fill="#5751c8" stroke="#eaecff" stroke-linecap="round" stroke-linejoin="round" stroke-width="0.5"/><path d="M988.118,289.52c.878.245.879.912.879.912s-1.228.423-.174,1.124,1.86-.6,1.86-.6l.385-1.159,1.544-.7.982-.774,1.052-.528a1.663,1.663,0,0,1,1.543-.985c1.229-.072.914,1.438.914,1.438l1.124.1.349-1.334c1.23.771,1.649-.88,1.649-.88l.878.7.772-.563c.984.876.948.174.948.174s-.037-1.229-.037-1.334c0-1.812.454-2,.454-2l-.457-.526a2.286,2.286,0,0,0-.283-1.93l.7-.247c.279-1.089,1.755-.178,1.755-.178a2.448,2.448,0,0,1,1.754-.634l.315-.948-.388-1.088-2.106-.138c-.317-.982-2.038-1.823-3.162-2.313s-.318-1.579-.318-1.579l-.527-.385-.6.562-1.054-.7-1.228.493,1.475.7-.244,1.018c-1.226,1.967-3.089.039-3.089.039l.072.913.809,1.157c-.526.282-.842.212-1.826-.208s-1.193.037-1.193.037l.668.877-.35.562,1.3,1.262h-.772a3.242,3.242,0,0,0-2.386.986l-2.176.494-1.125-1.157a11,11,0,0,0-1.2-2.456l-1.227.879-1.722-1.683-.912.668-.7-1.3c-1.193.282-.594,2.037-.594,2.037l-1.053.388-.457-.561-2.247-.629-.914-.771-.209,1.334s-3.9-.838-5.193,1.411l-.42,1.37-.772.457L972,284.31l-.947.6,1.16,1.613s.913-.212,1.542-1.722l.666-1.124-.457-.456a2.368,2.368,0,0,1,2.071.032s-.313,2.493,2.109,2.139l.948-.282.633,1.052.737-.317.037,1.3h.737l-.1,2.387,1.894-1.266-.349,1.264,1.614-.528S987.24,289.275,988.118,289.52Z" transform="translate(-899.993 -256.748)" fill="#5751c8" stroke="#eaecff" stroke-linecap="round" stroke-linejoin="round" stroke-width="0.5"/><path d="M1465.421,960.714l.458.947,1.122-.809a2.041,2.041,0,0,0,1.9.454c.947-.387.489-2,.489-2l1.333-.563s.248,1.72.985,1.438.069-1.123.069-1.123c-.423-1.333.771-1.054.771-1.054l.212,1.193,1.159.6.842-.071a1,1,0,0,1,1.053-.036,1.018,1.018,0,0,0,1.018.034s.947-.738,1.334-.072a.468.468,0,0,0,.843.069.917.917,0,0,1,1.193-.458,1.507,1.507,0,0,0,1.439-.177l.839-2.458a1.094,1.094,0,0,1,.384-1.369l-.7-1.052-1.615,0c.84-1.475-2.251-2.911-2.251-2.911l-.458-1.369.351-.8a2.615,2.615,0,0,1-.413-.613s-.294-.531-.651-.5a.36.36,0,0,0-.265.119,1.013,1.013,0,0,0-.356.76c.028.375.13,1.034.13,1.034s.083.421-.136.595a.573.573,0,0,1-.512.065,1.731,1.731,0,0,0-.87-.173.515.515,0,0,0-.421.165l-1.174-.431-1.439-.068.6-1.3-.983.212-.982.317-.387-.631a2.99,2.99,0,0,0,1.824-1.442l-.176-.737s-.842.668-1.756-.8l-1.229-.069-1.688-2.525s1.369.1,1.649-.7c0,0,.3-1.427-.652-1.145l-.645.178-.573.316a1.286,1.286,0,0,1-.944.1c-.161-.04-.549-.137-.759-.177a1.061,1.061,0,0,0-.444.033l-.236.06.03.075c-.033.13-.454.412-.589.365a2.055,2.055,0,0,0-.791-.252c-.394,0-.714-.554-1.089-.656a3.046,3.046,0,0,0-1.229-.1,1.828,1.828,0,0,0-.97.644,3.757,3.757,0,0,0-.644,1.129,1.948,1.948,0,0,0-.178.671,1.256,1.256,0,0,1-.072.628,13.389,13.389,0,0,0-.262,1.428c-.054.36-.353.713-.336,1.079a2.866,2.866,0,0,0,.089.691c.053.185.2.445.014.6l-.114-.059c.01.263-.154.276.116.45.094.06.067.334.108.443a.92.92,0,0,0,.358.429c.174.1.264.009.414-.091l.632-.422a3.467,3.467,0,0,0,.435-.224,1.6,1.6,0,0,1,.252-.228c.077-.044.156-.026.223-.09a1.239,1.239,0,0,1,.479-.318l-.077-.122.066-.048c-.059-.078-.152-.144-.114-.241.176.072.219.252.293.41.082-.12-.023-.185-.022-.312,0-.107.087-.21.087-.319,0-.223-.173-.4-.147-.614a.957.957,0,0,1,.306.483c.029.19-.112.374-.07.571a1.767,1.767,0,0,0,.336.047c.1-.007.132-.088.234-.047.023-.139-.12-.222.032-.34l.114.17.114-.023c.013.163.1.125.219.084.085-.03.034-.173.07-.246a.218.218,0,0,1,.165.122c.1-.159-.081-.205-.18-.285l.022-.071c.126-.011.228.083.333.145a1.01,1.01,0,0,0,.164-.387l.088.012a2.774,2.774,0,0,1,.01-.68l.044-.012c.12.183-.029.385.122.562s.185.237.391.123a3.668,3.668,0,0,1,.406-.278c.255-.024.259-.082.4-.3.042.164-.023.436-.21.411a1.068,1.068,0,0,0-.492.325l.033.1c.221,0,.5,0,.518.288.015.187.266.492.207.627-.163.052-.344-.06-.49.025a.123.123,0,0,0-.147-.118,1.32,1.32,0,0,1-.687.511c-.292.145-.011.328.139.5-.124.161-.173.189-.139.389a1.549,1.549,0,0,1-.006.382l-.235-.206c-.238.085-.365.028-.589.159.008-.1.082-.381.01-.459-.095-.1-.235-.017-.235-.217-.077.073-.123.166-.245.178-.069.212.183.285.169.458-.169.034-.418-.4-.508-.035a3.838,3.838,0,0,1-.308.755c-.042.089.093.206.142.258s.006.242-.006.325a2.31,2.31,0,0,1-.343.7c-.058.106-.494.21-.628.284-.246.137-.207.3-.16.553a1.335,1.335,0,0,1,.032.749c-.034.094-.144.157-.2.24a2.647,2.647,0,0,0-.157.34c.073.116.2.129.323.166.1.24-.212.068-.322.194a.568.568,0,0,0-.349-.233c-.078-.018-.106-.223-.131-.3-.124.351-.119.4.264.43.108.29-.2.4-.387.436l-.055-.193-.066-.012a.439.439,0,0,0-.01.289.147.147,0,0,0-.212.06c-.073-.086-.043-.134-.019-.237.015-.065-.059-.149-.089-.2-.065-.118-.078-.279-.161-.378a1.011,1.011,0,0,0-.138.794,1.9,1.9,0,0,0,.232.871c.376.461,1.1-.286,1.558-.387a3.082,3.082,0,0,1,.883-.016c.257.018.5-.067.747-.051a2.063,2.063,0,0,0,.475-.011,1.811,1.811,0,0,1,.37.029c.184,0,.239-.1.407-.147.048-.012.095.061.15.036l.22-.1a.389.389,0,0,0,.26.169c-.026.341.7.532.958.507a1.564,1.564,0,0,0,.615-.181,2.783,2.783,0,0,0,.535-.185,1.222,1.222,0,0,1,1.1-.291,9.411,9.411,0,0,0,1.211.261c.476.1.607-.41.98-.529.165-.053.39-.027.568-.065a3.6,3.6,0,0,0,.547-.173,3.133,3.133,0,0,0,1.027-.735,1.059,1.059,0,0,1,.57-.107c.173,0,.305.192.493.182.025.286-.013.284-.237.473a1.091,1.091,0,0,1-.192.167c-.054.026-.132-.022-.186.011-.1.065-.325.262-.465.2-.185-.086-.312-.011-.481-.084s-.315.175-.444.251a1.378,1.378,0,0,1-.5.134,8.32,8.32,0,0,0-1.113.429c-.158.061-.311.069-.47.123a1.006,1.006,0,0,0-.273.12c-.076.054-.04.192-.1.248-.208.183-.316-.2-.5-.217l-.761-.083c-.327-.036-.833-.271-1,.174-.149.4-.04.831-.357,1.161a1.039,1.039,0,0,1-.515.369c-.334.069-.361.082-.545.369-.211.328-.67.327-.886.685a4.906,4.906,0,0,1-.928,1.116c-.156.148-.3.307-.459.456-.008.007-.014.016-.021.023l-.014.016a5.154,5.154,0,0,0-.336.6c-.159.236-.388.31-.5.569a.667.667,0,0,0,.293.193l.011-.111.491-.047c.079-.007.1-.246.113-.289l.168.095.256-.312,1.2-.4Z" transform="translate(-1351.743 -875.953)" fill="#5751c8" stroke="#eaecff" stroke-linecap="round" stroke-linejoin="round" stroke-width="0.5"/><path d="M1033.986,1439.024a.363.363,0,0,0,.007-.074C1033.822,1438.792,1033.91,1438.94,1033.986,1439.024Z" transform="translate(-958.231 -1337.217)" fill="#5751c8" stroke="#eaecff" stroke-linecap="round" stroke-linejoin="round" stroke-width="0.5"/><path d="M1363.031,1015.285l.005-.012-.151-.06C1362.934,1015.236,1362.983,1015.26,1363.031,1015.285Z" transform="translate(-1263.122 -944.585)" fill="#5751c8" stroke="#eaecff" stroke-linecap="round" stroke-linejoin="round" stroke-width="0.5"/><path d="M47.547,358.779l-.015-.077c0,.022,0,.045,0,.07a.637.637,0,0,1-.03.205A.219.219,0,0,0,47.547,358.779Z" transform="translate(-44.094 -336.166)" fill="#5751c8" stroke="#eaecff" stroke-linecap="round" stroke-linejoin="round" stroke-width="0.5"/><path d="M1137.151,977.029l-1.225-1.672s-1.577.388-1.642-.416l.031-.644-.677-.578a2.878,2.878,0,0,1-2.511-.319l-1.929,1.837s.87.9.323,1.222-1.545-.255-1.545-.255a2.826,2.826,0,0,1-1.48.356c-.772-.063-.288,1.417-1.381,1.772l.13.837,1,.417-.031.676-.579.033-.515-.257-.9.9-.74.258-.514,1.063,1.159.127-.128.74-.289.483.419.74-.515.226h-.708a3.684,3.684,0,0,0,.871,1.512l-1.673.131-.255,1.642-1.029.42-.512,1.867s.774.868,3.091,1.026c0,0,1.323,2.541-1.057,3.7l-.8.516-.287,2.382,2.481,1.735.8.353-.771,1.1.9.836.229.825c.129.049.28.16.407.068,0-.386.1-.229.363-.379a1.2,1.2,0,0,1,.66-.274c.24.007.436,0,.676-.008a1.678,1.678,0,0,0,.626-.234l-.011-.218c.231-.019.444.038.67.023-.092-.11-.169-.247-.315-.288a1.225,1.225,0,0,1,.358-.471c.146-.1.286-.068.444-.131a2.379,2.379,0,0,0,.545-.193.673.673,0,0,1,.535-.263c.4-.029.337-.545.74-.624.181-.035.376.035.559.017s.3-.17.469-.2c.14-.022.533-.012.628-.114a.745.745,0,0,1,.453-.285c.264-.063.322-.02.469-.255a1.04,1.04,0,0,1,.479-.34c.334-.152.577-.481.919-.623a8.2,8.2,0,0,1,.985-.513c.1-.309-.181-.468-.389-.621-.167-.124-.229-.482-.329-.662.161.1.5-.225.5-.376a.409.409,0,0,0-.132-.242.459.459,0,0,1-.135-.315c.07.015.23.39.343.2.075-.127.252-.3.089-.426s-.188-.249-.354-.34c-.13-.072-.313-.145-.357-.3a1.2,1.2,0,0,0,.49.228l.033-.111.136.17.124-.036.088.206a6.562,6.562,0,0,1,.935-1.251,11.545,11.545,0,0,0,.667-1.12,2.364,2.364,0,0,1,.572-.5,1.328,1.328,0,0,0,.41-.565c.093-.195.248-.363.35-.556a1.215,1.215,0,0,0,.169-.673c.242-.052.409-.813.436-1.042a3.882,3.882,0,0,1,.219-1.263c.316-.626,1.2-1.32.66-2.085a2.044,2.044,0,0,1-.265-.583.777.777,0,0,0-.4-.483c-.193-.129-.181-.28-.32-.449-.073-.089-.146-.059-.18-.179-.021-.073-.029-.195-.084-.25a.711.711,0,0,1-.238-.569c0-.193.082-.309,0-.513a3.7,3.7,0,0,0-.656-.926l.256-.265c.158.144.315.438.491.529.527-.391.436-1.22.453-1.79a5.331,5.331,0,0,0-.037-.822c-.033-.273-.315-.466-.285-.747l.011.012.044-.035a3.652,3.652,0,0,1-.134-1.069c.023-.225.048-.451.072-.677q-.282-.177-.58-.325l-.181.423Z" transform="translate(-1038.312 -905.835)" fill="#5751c8" stroke="#eaecff" stroke-linecap="round" stroke-linejoin="round" stroke-width="0.5"/><path d="M1364.94,1012.982a4.112,4.112,0,0,0,.551.178c-.025-.052-.045-.08.055-.21.024-.03.045-.062.066-.094-.289-.057-.569-.115-.569-.115Z" transform="translate(-1265.027 -942.294)" fill="#5751c8" stroke="#eaecff" stroke-linecap="round" stroke-linejoin="round" stroke-width="0.5"/><path d="M1034.991,1440.893a.291.291,0,0,1-.042-.04.1.1,0,0,1-.015.041Z" transform="translate(-959.195 -1339.046)" fill="#5751c8" stroke="#eaecff" stroke-linecap="round" stroke-linejoin="round" stroke-width="0.5"/><path d="M736,1314.011l.127-1.127.739-.934-.773-.45s-1.157.967-1.641.2.61-1.514.61-1.514a3.553,3.553,0,0,1-.42-1.351l-.579-.1-1.579-1.414a4.08,4.08,0,0,0-2.7-.866l-1.319.227.067,1.9-2.283,1.29-.031,1.255s-.063.966-.869.194-.066-1.287-.066-1.287-.548-1-.87-.964l-.613-.868-.966-.063a2.112,2.112,0,0,0-1.16-1.318l-.836.87-.548-.321.353-.8-.451-.418-.674,1.224-.9,1.449.194,1-1.094-.063-.964,1-.612-.45-.868.387-1.854.383a1.046,1.046,0,0,1,.22.174,7.365,7.365,0,0,0,.836.812c.31.26.629.494.958.73a8.894,8.894,0,0,0,.723.549c.134.077.36.277.516.287a.955.955,0,0,1,.52.13c.1.061.263.332.361.325a1.664,1.664,0,0,1,.53.024c-.118.034-.263.043-.343.142a3.38,3.38,0,0,0,.762.651,2.752,2.752,0,0,1,.418.229c.114.083.3.057.42.122.169.089.2.217.37.315.127.073.286.086.413.158s.186.206.329.235a1.069,1.069,0,0,1,.388.246c.222-.208.359.043.5.213.246-.154.321.153.509.223a1.608,1.608,0,0,1,.691.38.846.846,0,0,1,.5-.012l.077-.134.3.023.011.048-.19.1c.135.125.393.272.564.205.225-.088.219-.367.416-.482l.033.024c-.086.167-.26.4-.146.6a1.239,1.239,0,0,0,.448.323l.825.436a1.117,1.117,0,0,0,.477.2c.1,0,.2-.083.306-.092a.586.586,0,0,1,.253.08,6.179,6.179,0,0,1,.547.3,3.446,3.446,0,0,0,.338.17c.08.034.132.141.219.15.125.012.106.093.206.131a1.027,1.027,0,0,0,.3,0l-.147-.217a.933.933,0,0,1,.995-.12l-.022-.083c.166-.106.568-.059.6.165h.338c.139,0,.059-.086.13-.147a.423.423,0,0,1,.53-.082c.228.164.319.009.552.037.188.022.337.261.431-.024.221.047.24.035.424-.1a.27.27,0,0,0-.29-.146l-.055-.17c.2.039.17-.177.293-.266a.447.447,0,0,1,.3-.094,3.6,3.6,0,0,1,.966.107c.143.042.225-.152.342-.135s.278.083.374.021.084-.366.2-.392a2.46,2.46,0,0,1,.421-.083,3.735,3.735,0,0,1,.452.063,3.523,3.523,0,0,0,.4-.069c.308-.03.175-.5.47-.585.273-.079.573-.015.854-.118s.323-.34.434-.582a.1.1,0,0,0,.015-.041c-.075-.084-.164-.233.006-.074a1.375,1.375,0,0,0-.075-.39,9.562,9.562,0,0,0-.968-1.543Z" transform="translate(-661.232 -1214.206)" fill="#5751c8" stroke="#eaecff" stroke-linecap="round" stroke-linejoin="round" stroke-width="0.5"/><path d="M918.289,986.592l-.837.033-.065-.451a1.01,1.01,0,0,0-.332-.614,1.053,1.053,0,0,0-.151-.11,1.172,1.172,0,0,0-.269-.117.832.832,0,0,0-.118-.027.662.662,0,0,0-.108.055.922.922,0,0,0-.222.191.894.894,0,0,0-.107.159.932.932,0,0,0-.079.207,1.1,1.1,0,0,0-.032.261,1.51,1.51,0,0,0,.034.319.71.71,0,0,1,.006.3.446.446,0,0,1-.105.206.724.724,0,0,1-.407.2,1.894,1.894,0,0,1-.444.025,2.074,2.074,0,0,1-.208-.02l.063-1.126-1.352-.063-.063.933-1.64,1.161-1.158.323-.932,1.128.419.385,1.158-.227.065.45a.916.916,0,0,1-.158.276.9.9,0,0,1-.218.187,1.115,1.115,0,0,1-.253.113h0a1.524,1.524,0,0,1-.263.057,2.166,2.166,0,0,1-.456.007,1.809,1.809,0,0,1-.2-.026l-.1,1.748a1.656,1.656,0,0,1-.167.335,1.166,1.166,0,0,1-.208.241,1,1,0,0,1-.243.156,1.081,1.081,0,0,1-.269.081,1.384,1.384,0,0,1-.289.016,1.927,1.927,0,0,1-.3-.038,3.123,3.123,0,0,1-.612-.2,5.257,5.257,0,0,1-.576-.3c-.179-.106-.343-.214-.482-.311-.278-.195-.455-.346-.455-.346l-.256.869-2.092-.158-.578.612.612.321-.192.966.805.482a6.089,6.089,0,0,1,2.257,3.087l-.868.42-1.094.259.033.386.709.836,2.092.03.065.837s.773.385.387.933-1.384-.191-1.384-.191l-.226-.322-.515.258a8,8,0,0,1,.323,1.029c0,.161.034,1.062.034,1.062l1.287-.42.419.74-.869.227-.449.87-1.352.066s-.772.323-.288,1.32l.742,1.093,1.319-.227a4.079,4.079,0,0,1,2.7.865l1.579,1.414.579.1a3.553,3.553,0,0,0,.42,1.351s-1.093.742-.61,1.513,1.641-.2,1.641-.2l.773.45-.739.934-.127,1.127a9.558,9.558,0,0,1,.967,1.544,1.379,1.379,0,0,1,.076.39c.031.029.071.068.122.12a.331.331,0,0,0,.234-.043c.077-.048.144.02.231-.042a.712.712,0,0,1,.23-.144c.19-.043.347-.2.534-.227.071-.012.168-.118.2-.116l.34.019c.344.019.6-.5.975-.523.171-.008.321-.1.489-.116l.65-.078c.02-.15.077-.284-.092-.363a.2.2,0,0,1,.38.145c.068-.051.223-.211.319-.155.129.075.214-.021.354-.039.068-.009.089.041.193.009l.258-.079c.094-.029.154-.2.252-.2a.819.819,0,0,0,.734-.391c.093-.2.326-.385.039-.559.278-.027.475-.458.629-.656.12-.155.512-.491.646-.19a.138.138,0,0,0-.044.17c.13-.062.374-.289.5-.289.085,0,.171.077.251.071.042,0,.175-.1.23-.112.078-.022.094-.1.183-.12a.711.711,0,0,0,.31-.085c.106-.092.16-.083.3-.091.067,0,.135-.165.17-.218l.191.146a.681.681,0,0,1,.337-.142c-.161-.23-.153-.529.212-.545-.144-.407-.017-.422.029-.017.1-.033.293-.125.38-.092l-.23-.825-.9-.835.771-1.1-.805-.353-2.48-1.735.287-2.382.8-.516c2.38-1.162,1.057-3.7,1.057-3.7-2.317-.158-3.091-1.026-3.091-1.026l.512-1.867,1.029-.42.255-1.642,1.673-.131a3.683,3.683,0,0,1-.871-1.512l.224-.869-1.062-.32-1.354-1.414-.9-.192-.195-1.19-.806-1.222.772-.194-.162-.933c-1.641.034-1.353-1.125-1.353-1.125Z" transform="translate(-838.534 -915.309)" fill="#5751c8" stroke="#eaecff" stroke-linecap="round" stroke-linejoin="round" stroke-width="0.5"/><path d="M679.829,787.021l-.675.612-.063,1.062s-.836.774-.32,1,.579-.516.579-.516l.514-.644a1.154,1.154,0,0,1-.1.966,1.165,1.165,0,0,0-.192.837,3.268,3.268,0,0,0-1,.774l-.451-.708-.353.483-.612-.1s.16-.612-.064.129-1.575,1.482-1.575,1.482l.548.675,1.253-1.321.58.224.837-.033.065.515-.676.194-.676-.1c-.257.387-.675.612.516.8s.13,1,.13,1l-1.03.323.967.835.806,1.061.8-.033.71,1.318c-1.158.227-.963,1.739-.963,1.739l.483.192-.1.386c-.933-.031-.61,1.224-.61,1.224.322.45.42.772-.449,1.191s-.741-.289-.741-.289l.514-.644-.258-.257a.98.98,0,0,0-1.48.2c-.546.644-1.674.034-2.446-.158s-.8.645-.8.645l-.643.58-.8-.031-.192.966-1.352-.031.258.482c.065.45.13,1.158-.32,1.417s-.515-.257-.645-.8a.62.62,0,0,0-.677-.482l-.095,1.513a1,1,0,0,0-.964,1.16c.034,1.159-1.672,1.129-1.672,1.129l1.128,1.543-.045.05.432.689.934.321.452.836s-1.126.516-.514,1.095,1.9-.389,1.9-.389,1.03.321,1.321.932l-.45.773.259,1.062,1.028-1.256s1.673-.324,1.865-1.322,1.769-1.129,1.769-1.129l.323.611a5.245,5.245,0,0,1,2.059-.775l.066,1.48a2.2,2.2,0,0,1,.933-.323c.418,0,1.223-.066,1.448-.388,0,0,.9.192,1.127.642l.226.579.707-.548.192-1.094.611-.355.192-.966-.612-.321.579-.612,2.092.158.256-.869s.177.151.455.346c.139.1.3.206.482.311a5.273,5.273,0,0,0,.576.3,3.129,3.129,0,0,0,.612.2,1.935,1.935,0,0,0,.3.038,1.392,1.392,0,0,0,.289-.017,1.079,1.079,0,0,0,.269-.081,1,1,0,0,0,.242-.156,1.166,1.166,0,0,0,.208-.241,1.66,1.66,0,0,0,.167-.336l.1-1.748a1.839,1.839,0,0,0,.2.027,2.162,2.162,0,0,0,.456-.007,1.529,1.529,0,0,0,.263-.057h0a1.121,1.121,0,0,0,.253-.113.9.9,0,0,0,.218-.187.916.916,0,0,0,.158-.276l-.065-.45-1.158.227-.419-.386.932-1.128,1.158-.323,1.64-1.161.063-.933,1.352.062-.063,1.127a2.067,2.067,0,0,0,.208.02,1.891,1.891,0,0,0,.444-.025.724.724,0,0,0,.407-.2.445.445,0,0,0,.105-.206.713.713,0,0,0-.006-.3,1.507,1.507,0,0,1-.034-.319,1.1,1.1,0,0,1,.032-.261.932.932,0,0,1,.079-.207.889.889,0,0,1,.107-.159.924.924,0,0,1,.222-.191.664.664,0,0,1,.108-.055.842.842,0,0,1,.118.027,1.173,1.173,0,0,1,.269.117,1.045,1.045,0,0,1,.151.11,1.009,1.009,0,0,1,.332.614l.065.451.837-.033,1.544-.388.224-.934s1.931-.421.512-2.608c0,0-.324-1.384-.742-1.64l.256-.9-.58-.643-.514.837-.644-.031-.162-1.255-.483-.192s-.224,1.062-1.094.484l-.45.58-1.192-.932-.964,1.16.129.483s2.349-.068,1.964,1-2.028-.094-2.028-.094l-1.479,1.321-.869-.063.932-1.224-1.192-1.157-.033-.74-.741-.224-.452-1.094-.934-.675.063-.837.482-.451-1.256-.8-4.186-1.572-.547.419.194.579-1.158.549-.128.837s-1.255,0-1.837-1.736l-.485-1.673-.387-.354.192-1.159Z" transform="translate(-619.05 -731.548)" fill="#5751c8" stroke="#eaecff" stroke-linecap="round" stroke-linejoin="round" stroke-width="0.5"/><path d="M1547.919,1350.053a4.152,4.152,0,0,1-2.914-.628l-1.3-1.016-1.332,1.371-1.019-.911a2.851,2.851,0,0,0-1.967-1.3,1.616,1.616,0,0,1-1.336-1.754l-1.722-1.367.069-.948c-.563-1.158-2.071.389-2.071.389l-.984-.42-.828.673c-.253.024-.312.287-.592.317-.313.034-.366-.232-.618.064l-.077-.059a.363.363,0,0,0,.033-.218l-.191.048-.022-.047.113-.147c-.332-.384-.552.2-.883.162-.242-.025-.26.262-.536.155-.179-.069-.372-.288-.3-.485a.231.231,0,0,1-.1-.217l-.077-.023a1.773,1.773,0,0,0,.113.941,3.758,3.758,0,0,1,.191.688c.069.255.334,1.887.836,1.681-.219-.171-.43-.353-.311-.656a.91.91,0,0,1-.316-.715c.219.04.387-.359.493-.5.076-.1.134-.081.266-.088.076,0,.083.139.166.151.1.015.176-.105.289-.105s.171-.071.245-.071c.192,0,.414-.285.554-.218a1.272,1.272,0,0,0-.178.218c-.029.055.023.108-.022.17s-.151.056-.2.1a.528.528,0,0,0-.121.2l.424.134.135-.146.245.058c-.1.079-.208.135-.245.269.193.186.634-.164.851-.236.132-.043.256.045.388.025s.271-.185.344.027c-.128.139-.352.069-.431.265.043.082.182.1.2.174a.519.519,0,0,1-.05.284,1.863,1.863,0,0,0-.592.124l-.022.157c-.174-.031-.266.2-.42.267-.192.085-.157.221-.361.315,0,.115.136.11.147.229a.791.791,0,0,1,.45.205l-.325-.059a2.768,2.768,0,0,1-.256.629c.273-.03.181.022.38.17.142.1.319.058.224.328l.125.083c-.174.139-.382.232-.325.487-.193-.059-.263.182-.347.313.115.038.112-.079.2-.066s.164.034.213-.053a.988.988,0,0,1,.327-.408c.153-.1.32-.12.439-.255.159-.181.214-.148.445-.185a.168.168,0,0,1,.022.143c-.089,0-.226.083-.2.184.036.16-.064.114-.1.248a.341.341,0,0,1-.17.256c-.057.044-.025.191-.025.26h.136l.033.241c.1,0,.259-.043.322.047-.136.036-.338.187-.457.166l-.055.146.088.071a.119.119,0,0,0,.022.142c.107-.062.172.039.165.146.094-.039.178.033.267.075.072-.082.114.015.191-.025.053-.027.1-.1.146-.146a.321.321,0,0,1-.033.269c.139,0,.118-.184.245-.218-.053.182-.164.4-.01.557.1-.032.135-.131.19-.218l.358.023.044.313.136-.1a1.822,1.822,0,0,0,.057.324l1.072.331,1.16.946-.6.6,1.159.385-.1,1.3a6.512,6.512,0,0,0,3.651.382,7.8,7.8,0,0,0,3.545-.356l1.491-.024.01-.62.146-.328.38-.313.212-.3.492.587.007.039.314-.411-.248-1.722Z" transform="translate(-1417.299 -1248.429)" fill="#5751c8" stroke="#eaecff" stroke-linecap="round" stroke-linejoin="round" stroke-width="0.5"/><path d="M1796.708,824.09a3.344,3.344,0,0,1-1.719.458c-1.016,1.441-2.035.7-2.035.7l-1.2-1.227c-2.247-.489-1.894,1.161-1.894,1.161l.285,2.948.878.455a4.072,4.072,0,0,0-1.016,1.511,1.349,1.349,0,0,1-1.859.775c-.738-.385,0-1.053.6-1.194s.806-.984-.493-1.333-1.192,1.546-1.192,1.546l-1.51-.384a2.972,2.972,0,0,1-1.646,2.846s1.091,2.034-.1,3.23c0,0-.314,1.4.563.737,0,0,.631-.843.843.525l.948-.036s2.245-1.477,2.7.348,1.687,1.964,1.687,1.964l.878.174.106.772,1.79-.318,1.52,1.812.516.328.008-.006.423-.617.435-.171.493-.3,1.049-.376.289-.135.669-.182.369-.083.636-.158.6-.155.494.133-.056-.593-.246-.145-.033-.217-.4-.387-.213-.3.087-.446.212-.289.19-.534.267-.518.032-.352-.158-.288-.4-.169-.314-.047-.235-.194-.012-.411.088-.194.223-.506.146-.41-.1-.217-.055-.289-.055-.241.022-.288-.044-.328-.348-.205-.347-.047-.413-.023-.045-.363.113-.34-.022-.313-.023-.41.146-.4.19-.494.054-.242-.011-.34-.125-.434.178-.194.245-.071.347.145.325.217.6.41.626.387.479-.111.277-.352.358-.364.38-.1h.424l.336-.083.2-.194.021-.47-.114-.288-.37-.364-.278.048h-.326l-.38-.024-.169-.312-.326-.34-.348-.193-.169-.024.067.363.056.447-.179.158-.289-.094-.278-.193-.278-.094-.2.024h-.424l-.223-.047-.033-.217.087-.387-.246-.628-.436-.375-.325-.109-.256.11-.234.084-.114-.123-.033-.3.044-.494.065-.218.124-.241.061,0-.283-.451C1797.479,823.457,1797.269,823.633,1796.708,824.09Z" transform="translate(-1653.158 -767.029)" fill="#5751c8" stroke="#eaecff" stroke-linecap="round" stroke-linejoin="round" stroke-width="0.5"/><path d="M1547.3,1461.53a6.512,6.512,0,0,1-3.651-.381l.1-1.3-1.159-.385.6-.6-1.16-.946-1.071-.331a.839.839,0,0,0-.147-.038c.093.032.227.129.129.083-.065-.03-.133-.058-.2-.084a.738.738,0,0,0-.247.126.2.2,0,0,1-.077-.157c-.182.047-.7.4-.661.578l.157-.071c.112.253-.456.32-.434.569.127.033.2-.044.3-.111a.8.8,0,0,1,.143.245.989.989,0,0,1-.289.241l.011.047c.2,0,.187.084.19.241a1.057,1.057,0,0,1-.065.354c-.141.274-.305.263-.01.519-.172.123.062.3-.066.455l-.267-.012-.033.059a1.628,1.628,0,0,1,.121.19c.026.1-.02.2,0,.292a1.5,1.5,0,0,0,.327.508.234.234,0,0,1-.1.1c-.2-.121-.245-.407-.3-.614a2.975,2.975,0,0,0-.3-.666l-.055.024c.1.537.382,1.017.459,1.572a2.047,2.047,0,0,1-.176.837c-.087.292-.009.374.222.565l-.2.025-.066.193a.373.373,0,0,0-.1-.241c-.1.147.017.446.045.616l.066-.036-.011-.264c.15.051.146.436-.018.475-.11.026-.137.166-.247.214a.56.56,0,0,0-.208.11,1.186,1.186,0,0,0-.128.191c-.014.025-.028.052-.041.079l.012-.006c.058-.042.094-.16.13-.222l.457.158.435.059.169.035-.077.277-.168.253-.01.277.245.194.147.328.023.289-.2.229-.358.147-.268-.047-.157.06-.066.229-.157.147-.369.123-.146-.023-.125-.023-.224-.071-.114-.035h0a.476.476,0,0,0-.015.069,1.812,1.812,0,0,1-.2.65c-.144.25-.368.266-.634.339-.19.052-.309.4-.39.557-.093.184.087.472-.083.632-.083.078-.209.057-.3.153a.782.782,0,0,0-.14.306c-.056.232,0,.493-.065.723s-.187.322-.147.559c.042.253.085.505.127.758.212.04.2-.285.333-.276a.866.866,0,0,1,.487.117v.047a.946.946,0,0,0-.41-.087c-.134.031-.144.228-.26.293-.241.136-.208.393-.248.66h.007c0,.012,0,.024,0,.036a1.454,1.454,0,0,0,.686.036.686.686,0,0,0,.3-.119c.046-.051.024-.225.094-.246a1.087,1.087,0,0,1,.579-.09c.4.081.536.5.879.66.147.068.436.193.516-.043a1.768,1.768,0,0,1,.24-.548c.069-.085.185-.115.216-.225s.069-.243.1-.365c.042-.148.275-.342.37-.478s.437.106.555.045c.141-.071.08-.255-.01-.353-.16-.173-.566-.156-.6-.439-.014-.118.315-.362.415-.42a2.236,2.236,0,0,0,.265-.2c.069-.056.18-.015.256-.053.179-.089.269-.286.465-.381.149-.072.394.146.487.029a2.17,2.17,0,0,1,.4-.444,1.692,1.692,0,0,1,.556-.242,1.414,1.414,0,0,1,.585.029,11.715,11.715,0,0,0,1.239.121c.059,0,.154.125.194.167a.507.507,0,0,0,.265.137c.2.064.32-.1.5-.187.334-.155.951.264.567.566-.174.137-.278.337-.446.472a4.2,4.2,0,0,0-.5.382c-.11.116-.249.387-.38.447a1.812,1.812,0,0,0-.57.316.968.968,0,0,1-.527.306c-.126.024-.467.07-.5.234-.093.483.43.711.808.829a1.528,1.528,0,0,0,1.2-.17,1.9,1.9,0,0,1,.555-.306.942.942,0,0,1,.658.093,1.245,1.245,0,0,1,.748.858,5.919,5.919,0,0,1-.074,1.36c.187-.249.243-.231.515-.352a3.668,3.668,0,0,0,1-.7,2.526,2.526,0,0,1,1.184-.57.914.914,0,0,1,.609-.01c.123.062.4.272.512.188a10.478,10.478,0,0,0,1.063-.891c.124-.123.117-.475.149-.644a2.986,2.986,0,0,1,.224-.558c.079-.187.023-.448.119-.623.042-.076.147.011.124-.1l-.069-.34q-.089-.441-.178-.883c-.035-.172-.219-.282-.289-.439a3.66,3.66,0,0,1-.145-.713c-.014-.069-.428-.135-.5-.085a1.479,1.479,0,0,1,.259-.736c.2-.241.328-.526.522-.764a4.553,4.553,0,0,0,1.016-1.37c.053-.147.285-.683.117-.79-.306-.194.038.018.038.018l.168-.506.146-.652-.023-.352-.224-.2-.179-.083-.358-.122-.279-.106-.18-.122-.088-.328.066-.47v-.032l-1.491.024a7.8,7.8,0,0,1-3.545.355Z" transform="translate(-1423.444 -1354.492)" fill="#5751c8" stroke="#eaecff" stroke-linecap="round" stroke-linejoin="round" stroke-width="0.5"/><path d="M1785.564,1365.337l-2.493-.172-.7.7-.422-.421-.561.6s.034-.983-.6-1.088-.526.422-.526.422a2.468,2.468,0,0,1-1.507,2.073l.353,1.4-.279,1.229-.419,1.966.248,1.722.18.241.224.482.007.028.212-.29.256.095.2.231.315.254.527.146.637.17.516.253.3.377.2.413.169.532.245.473.793-.073.278-.3.244-.2.325-.072.479.147.984-.014.516-.012.445-.509.277-.33.278-.207.212-.437.022-.147-.135-.414-.136-.365.076-.631.245-.255.435-.1.424-.012.288-.147.468-.073.289-.024.424-.22.314-.219.087-.266.1-.342.054-.56.01-.289-.078-.656-.055-.219-.147-.241-.19-.195-.3-.341-.045-.4.054-.449.135-.342-.136-.266-.358.314-.032-.056.026.042.054-.47-.136-.229-.146-.071-.066-.146.088-.193.146-.289.135-.471-.235-.3-.18-.265-.425-.363-.435-.122-.516-.41-.169-.217-.026-.068-.727.12Z" transform="translate(-1648.21 -1268.461)" fill="#5751c8" stroke="#eaecff" stroke-linecap="round" stroke-linejoin="round" stroke-width="0.5"/><path d="M1502.613,1184.235s1.507-1.547,2.07-.389l-.069.948,1.722,1.367a1.617,1.617,0,0,0,1.336,1.754,2.851,2.851,0,0,1,1.967,1.3l1.019.911,1.332-1.371a4.73,4.73,0,0,0-1.477-1.929l-.808-.315.561-.878a1.873,1.873,0,0,1-.915-1.824l.034-.491.983-.212-.438-1.649a1.633,1.633,0,0,0,1.367-1.406l-.215-.773a2.188,2.188,0,0,0,.333-.31,6.181,6.181,0,0,1,1.164-1.251l.143-.084s.059-.107.595-.108.916.046,1.261.022a2.731,2.731,0,0,1,.928.07l.05-.241c-.317-.772-.282-1.3.244-1.615a.908.908,0,0,1,1.44.349,6.529,6.529,0,0,0,2.422-.319l1.825-.494c0-2.106-.95-2-2.741-1.927a4.926,4.926,0,0,1-3.266-1.47,1.507,1.507,0,0,1-1.439.177.917.917,0,0,0-1.193.458.468.468,0,0,1-.843-.069c-.387-.667-1.334.072-1.334.072a1.018,1.018,0,0,1-1.018-.034,1,1,0,0,0-1.053.036l-.842.071-1.159-.6-.212-1.193s-1.194-.279-.771,1.054c0,0,.668.842-.069,1.123s-.985-1.438-.985-1.438l-1.333.563s.458,1.614-.489,2a2.041,2.041,0,0,1-1.9-.454l-1.122.809-.457-.947-1.194-.525-1.2.4c.225.441-.152.768-.434,1.036a2.385,2.385,0,0,0-.374.527c-.14.255-.11.288.072.509-.261-.082-.366.158-.408.379a.959.959,0,0,0,.176.59c.062-.139.207-.3.047-.423.324-.325.349.295.476.45a.893.893,0,0,1,.146-.217c.036-.024.12,0,.169-.024.121-.065.182-.291.244-.411l.088.024.011.071c-.148.051-.18.328-.1.435.089-.021.163-.057.245-.024-.064.241.159.326.342.406a.7.7,0,0,1,.34.371c-.235.031-.285-.293-.473-.312l-.658-.069a.191.191,0,0,0,.066.17l-.157.047c0-.212-.221-.086-.256-.288h-.157a2.363,2.363,0,0,1-.314.593c-.079-.167-.238-.1-.267.063-.212-.167-.245.021-.3.194-.242-.414-.541.521-.073.443l.1-.158.055.024a.437.437,0,0,0,.055.316.331.331,0,0,0,.256-.047l.044.181-.157.112a.426.426,0,0,0,.158.094.2.2,0,0,1-.19.083c.082.3-.39.531-.281.74.15.021.217-.138.3-.241.095.22.118.323.326.438a.213.213,0,0,0,.033-.265l.136.072c-.016.13.112.182.055.339l.147.107a1.053,1.053,0,0,1,.088-.205l.147.328-.358.083-.066-.17-.2-.023-.124.312c-.147.019-.374-.009-.457.143-.242-.43-.4.259-.358.444l.1-.134a1.4,1.4,0,0,1,.044.363l-.1-.024c-.1.166.04.536.079.712s.2.291.226.466a1.746,1.746,0,0,1,.369-.487l.044.094c-.162.173-.212.477-.449.558a.408.408,0,0,0-.246-.288,2.535,2.535,0,0,0,.075.737c.024.152.018.452.136.57.089.089.448.328.478.062a1.374,1.374,0,0,1,.047-.421c.045-.079.151-.075.164-.174.047-.354.033-1.062.4-1.263.133-.072.5.081.643.111l.688.146-.011.134a.689.689,0,0,0-.321.119l.055.122c-.04.085-.1.152-.19.147-.034-.083.009-.155,0-.229-.137.033-.157.349-.142.471s.066.162.028.27a.53.53,0,0,0-.044.238.465.465,0,0,0,.258.437c.12.041.39.17.473.035-.1-.1-.236-.173-.077-.328-.08-.115-.371-.159-.165-.332.145-.122.442.037.413-.266.14-.047.071-.232.2-.312a3.455,3.455,0,0,0,.235.628c.191.07.053-.388.153-.482.085.319.315.272.578.339.06-.123.007-.384.032-.539s-.033-.266.054-.405a1.258,1.258,0,0,0,.246.565c.038-.554.15-.923.712-1.123-.036.176-.159.111-.261.206a1.661,1.661,0,0,0-.217.3l.114.123-.179.134.044.328.212-.012.022.035-.146.147c.109.105.265-.008.377.118-.127.013-.266.076-.233.226l-.125-.012-.022.035c.172.266.082.166.256.047.078-.054.122,0,.212-.084l.19-.181.055.122a3.756,3.756,0,0,0-.515.558c.1.108.222.43.366.438l.011.048-.234.048a.825.825,0,0,0,.079.306c0,.007.006.015.01.022l.012-.017a.214.214,0,0,1,.188-.078.2.2,0,0,0,.1-.036.178.178,0,0,0,.055-.092c.019-.055.037-.114.1-.137.1-.036.082.021.038.1-.053.09-.149.206-.151.221a.191.191,0,0,0-.146.024l.022.059a.2.2,0,0,1,.149.035c.087.064.131.2.2.288l.828-.673Z" transform="translate(-1385.586 -1088.771)" fill="#5751c8" stroke="#eaecff" stroke-linecap="round" stroke-linejoin="round" stroke-width="0.5"/><path d="M1099.131,881.105l-.9-.1-.612-.611a5.812,5.812,0,0,0-1.834-.094c-.837.13-.867,1.482-.867,1.482l-.677-.482-.224.966-.934-.868-1.093,1.353-.9.065-.353.87.58.643-.256.9c.418.257.742,1.64.742,1.64,1.419,2.187-.511,2.608-.511,2.608l-.224.934-1.544.388s-.288,1.159,1.353,1.125l.162.933-.772.194.806,1.222.194,1.191.9.192,1.354,1.414,1.062.32-.224.869h.708l.515-.226-.419-.74.289-.483.128-.74-1.159-.127.514-1.063.74-.258.9-.9.515.257.579-.033.031-.676-1-.417-.13-.837c1.094-.355.609-1.835,1.382-1.772a2.828,2.828,0,0,0,1.48-.356s1,.578,1.545.255-.323-1.223-.323-1.223l1.929-1.837a2.878,2.878,0,0,0,2.511.319l.676.578.547-.13s1.256.32,1.737-.614-.967-.964-.967-.964l.32-1.095c-.838-1.254-2.9-1.123-2.9-1.123l-1.964-.48-1.448.227-.514.676c-.515-.321-.322-.386.03-1.352s-.323-1.223-.323-1.223l.321-.708-.291-.933-1.03.066Z" transform="translate(-1009.765 -819.522)" fill="#5751c8" stroke="#eaecff" stroke-linecap="round" stroke-linejoin="round" stroke-width="0.5"/><path d="M99.658,92.366l1.223-.066a2.974,2.974,0,0,0,1.834-.163,2.069,2.069,0,0,1,1.448-.227s2.222.963,3.444.285l1.544-.517,1.867.159,1.737-1.032.9.739.965-.194.71,1.254,1.64-.871.765-.137,1.229.63a5.086,5.086,0,0,0,3.862.241,3.308,3.308,0,0,0,1.791.314l.525-.808,2,.84.174-.913s-.14.351-1.65-.489.383-2.668.383-2.668l-.667-.069c.032-2.106-1.476-1.648-1.476-1.648l.279-1.44-1.371-1.367-.527-.385.349-1.264-1.894,1.266.1-2.387h-.737l-.037-1.3-.737.317-.633-1.052-.947.282c-2.422.354-2.109-2.139-2.109-2.139a2.368,2.368,0,0,0-2.071-.032l.457.456-.666,1.124c-.63,1.51-1.542,1.722-1.542,1.722l-1.161-1.613.947-.6-.811-2.983.772-.457.419-1.37c1.3-2.248,5.193-1.411,5.193-1.411l.209-1.334-.562-.35,1.19-3.055L116.3,66.92l.28-.878.949.6,1.017-.809a3.932,3.932,0,0,1-1.512-1.894c-.563-1.368,1.647-2,1.647-2,1.016-1.511-.915-1.614-.915-1.614l.417-2.984-2.141.108.034-.843,1.088-.212.632-.317-.072-1.088-.489-1.174L117,53.3l-.2-.071-.358-.194-.336-.146-.359-.288-.446-.276-.648-.458-3.166-.818.022.059.257.34.158.122.114.241.142.223.027.042v.158l-.157.352-.347.289-.157.1-.359.134-.537.23-.314.241-.234.352-.212.494-.02,1.375.2.6.044.423-.113.616.012.34.077.363h.022l.044.289.077.146.147.047.246.206,1.332-.014.424-.047.336.059.256.157.136.17.022.289-.314.277-.739.2-.738.764-.278.146-.256.071-.325.024-.278-.094-.268-.17-.245-.011-.6.482-.592.183-.391.388-.212.095-.234.123-.57.242-.146.17-.044.182.033.182.158.17.494.122.267.216-.245.206-.267.083-.413.072-.278.1-.19.123-.1.122-.113.1-.077.036-.424.206-.245.06-.358.012-.647.037h-.918l-.86-.058-.827-.046-.527-.193-.468-.182-.494-.011-.224-.11-.235-.206-.055-.193.011-.147.113-.229.135-.134.124-.17-.336-.11-.044-.1.033-.122.336-.3-.235-.241-.147-.312-.235-.545-.011-.158.3-.123.179-.147.088-.147.234-.471.022-.206-.066-.3-.435-.228-.358.048-.684.23-1.163.5-.4.1h-.158l-2.146.872-.314.048-.761.123-.446.135-.245.06-.625.254-.559.23-.245.1-.157.024-.951.219-.973.195-.157.071-.6.182-.212.158-.146.388-.368.893-.267.507-.434.6-.245.23-.4.277-.191.1-.136-.023-.168.071-.267.024h-.011l-.516.036-1.6.014-.146-.047-.179.024-.593-.023-.088.048-.1-.024-.19-.024-.56-.023H81.96l-1.409-.12-.38-.047h-.234l-.391-.023-.2-.123-.191-.241-.147-.047-.224-.194-.29-.181-.147-.182-.136-.122L76.97,63.34l-.114-.193-.549-.481h-.267l-.457.242-.413.083-.929.278-.626.024v-.023l-.234-.024-.6-.169-.114-.047-.168-.023-.468-.011-.278.083-.124.048h-.077l-.234.071h-.479l-.75-.2-.494-.07-.424.072-.424.135-.077.048-.022.071-.066.012-.592.218-.157.083-.179.024-.168.1-.537.313-.234-.011-.772-.275-.055-.071H65.7v-.024l-.267-.071-.446-.24-.315-.094-.3-.071-.179.012-.146.083-.223.123-.728.483-.625.341-.223.048-.088.024h-.348l-.114-.071-.257-.229-.257-.422-.066-.193-.224-.363-.213-.411-.125-.059-.168-.012-.4.194-.314.241-.19.3-.19.676-.011.206-.044.158-.124.289-.156.206-.077.024H58.6l-.114-.071-.18-.505-.1-.581-.126-.98.022-.3-.136-.229-.5.135-.315.084-.468.159-.124.122-.077.135,0,1.245-.032.775-.021.4v.774l-.009,1.509v.071l-.042,1.668-.211.929-.032.98-8.757-.036-.066-.071-.033-.094-.033-.158-.066-.134-.055-.024-.077.024-.113.071-.124.071-.022.071-.168.071-.125.024-.113.012-.1.048-.1.059-.077.17v.411l.044.158-.033.182-.044.135-.1.06-.157.06.011.059-.325.107-.278-.082-.289-.146-.088.024-.1.1-.022.1.1.3-.066.158a.5.5,0,0,1-.344.236l0,.005a.634.634,0,0,0-.078.281c.009.053.094.056.109.1a.752.752,0,0,1-.013.571c-.02.059-.1.192-.061.248s.145-.025.207.072c-.414.226-.312-.257-.637-.316-.086.1-.341.5-.493.481-.107-.014-.177-.188-.279-.169s-.087.223-.088.295c0,.465.18.9.155,1.351-.026.471-.461.751-.557,1.194a.651.651,0,0,0,.22.632c.154.171.272.176.348.371.006.016.012.033.018.052.226.039.259.034.383.221.08.121.134.194.287.2.221,0,.626-.163.522-.443.132-.02.178-.162.245-.266l.088.024.094-.116.34-.418-.077-.158a2.1,2.1,0,0,0,.717-.207l.125.17c-.173.235-.436.181-.572.445l-.054.1-.211.41a2.248,2.248,0,0,1-.1.265,3.993,3.993,0,0,1-.681.662c-.224.164-.642.023-.8.193.228.146.948,0,.968.366.011.194.07.111.123.233a1.629,1.629,0,0,1,.062.291c.034.159.189.208.1.4-.362-.013-.28.5-.266.715.3-.1.478.032.783.05a1.893,1.893,0,0,0,.742-.2,5.991,5.991,0,0,0,.733-.388c.235-.127.25-.266.2-.505.124-.046.218.039.344.011-.131-.238-.166-.266-.07-.517.285.147.409-.8.5-.973a4.712,4.712,0,0,0,.506-1.321c.008-.039.019-.1.036-.172.037-.143.1-.3.235-.289.235.025.378-.087.6-.114s.416.139.634.145h.012a.294.294,0,0,0,.107-.021.369.369,0,0,0,.236-.4.163.163,0,0,0,.168-.106l.022.035c.187-.084.219-.38.281-.553a2.874,2.874,0,0,1,.1.7,14.606,14.606,0,0,0,1.123-1.036,3.963,3.963,0,0,1,1.1-.566,1.861,1.861,0,0,0,.6-.47c.121-.137.239-.348.438-.351a3.367,3.367,0,0,1,.815.039c.176.039.513.061.6-.134.1.269.287.1.442-.009A1.766,1.766,0,0,1,56.373,74c.362-.1.457-.461.1-.645l.022-.071a.8.8,0,0,1,.362.241.284.284,0,0,1,.044.34c-.207.01-.295.362-.542.412a2.467,2.467,0,0,0-.755.224,1.158,1.158,0,0,0-.325.219,1.538,1.538,0,0,1-.265.329c-.116.073-.209.024-.325.146a2.366,2.366,0,0,0-.212.312c-.159-.188-.233-.342-.487-.208-.175.092-.272.308-.4.45-.152.172-.277.26-.32.5a.569.569,0,0,1-.13.249.339.339,0,0,1-.24.137l-.058-.089-.03-.045-.058.059a4.228,4.228,0,0,1-.558.527c-.221.157-.495.174-.718.331A10.332,10.332,0,0,0,50.366,78.6c-.266.255-1.171.93-1.01,1.384a.821.821,0,0,1,.015.432c-.016.134-.162.12-.257.2-.2.168-.213.491-.4.691.124.058.262-.065.377-.123l.011.047c-.061.055-.144.171-.226.187-.057.011-.193.01-.231.057a3.538,3.538,0,0,0-.328.44c-.175.3.007.646.085.961.13,0,.2.109.282.193l.077-.024c.009.1.055.219-.022.289.112.171.285.345.045.486-.158-.055-.178-.088-.308.009a.632.632,0,0,1-.33.182c-.1.009-.144-.069-.261-.008a1.84,1.84,0,0,0-.326.2c-.287.234,0,1.188.4,1.114.038.14.051.234.18.316l.113-.048c.093.192.147.211.341.306.058.029.27.11.207-.059-.074-.2-.409-.54-.3-.729a.729.729,0,0,1,.325.118,2.337,2.337,0,0,0,.273.561c.067.143.328.093.456.237a.209.209,0,0,0,.08-.363c.139-.068.151-.232.2-.366.024-.075.225-.147.294-.187.064.155.383.118.523.118.1.22-.054.289-.243.3-.125.009-.539.082-.342.3.052-.04.1-.08.157-.119l.077.048a2.068,2.068,0,0,0-.394.628c-.074.187-.324.561-.179.751.159,0,.306.013.38-.158.178.033.17.264.233.4.095.21.119.338.343.411.269.087.788-.377.8-.632l.157-.06a.813.813,0,0,1,.022.083.221.221,0,0,1,.212-.024l.022.134a1.02,1.02,0,0,1,.4.067,1.4,1.4,0,0,0,.387.191c.38.079.305-.311.328-.584a.457.457,0,0,1-.294.747,3.07,3.07,0,0,0-.491.045c-.139.022.008.273.033.339l-.044.024c-.071-.072-.175-.249-.282-.235l-.5.066-.113.411c.065.037.272.1.278.194.013.181-.2.049-.255.015-.107-.069-.168.156-.176.226s.081.108.054.176l-.064.163c.09.109.21.354.359.349a4.024,4.024,0,0,1,.531.013c.235.022.334.029.433-.2a.41.41,0,0,1,.371-.275,1.171,1.171,0,0,1-.106-.451,1.69,1.69,0,0,1,.224-.263.957.957,0,0,1,.828.01c-.223.12-.8-.036-.7.384.055.224.044.333.282.371.14.023.213.172.3.277-.256.05-.386.238-.624.29-.142.032-.515.031-.5.241-.106.021-.193-.048-.289-.094-.427.245.2.841.392,1,.117.1.376.4.524.427.19.039.289-.364.424-.105.076-.111.187-.167.256-.027l-.19.289c.022.114.12.134.224.118l.011.194c.238,0,.289-.016.454.151.051.052.3.1.387.15a.888.888,0,0,0,.816.107l.033.111a1.02,1.02,0,0,1-1.193.054,2.785,2.785,0,0,1-.97-.837c-.336.093.377.715.487.789.307.208.633.313.952.495a2.111,2.111,0,0,1,.491.314c.117.119.25.327.438.332.4.011.5-.568.745-.736.073.09.013.193-.011.3l.033.023.124-.205.077.083c-.071.259-.346.332-.525.515-.257.263-.2.383.1.537.232.122.478.189.72.288.278.114.443.326.545-.037.111.267.1.3.382.355.11.023.255.312.325.4.168-.011.145-.221.3-.254a.327.327,0,0,1-.033.266c-.023.058.076.143.111.19a.274.274,0,0,0,.373.082c.171.4.7.652,1.036.932.089.075.189.047.282.105s.116.2.211.252c.158.083.436.36.605.281a1.242,1.242,0,0,0,.428.339c.742.422,1.535.75,2.268,1.19.383.23.72.535,1.087.791.2.138.39.284.584.428.14.1.273.107.413.23a2.117,2.117,0,0,0,1.165.658,3.915,3.915,0,0,1,.61.014c.213.06.425.126.643.168a1.207,1.207,0,0,0,.687.012,1.717,1.717,0,0,1,.586-.1,3.318,3.318,0,0,1,.7.145c.245.045.331-.077.5-.229.111.088.055.217,0,.324a3.293,3.293,0,0,1,.774.232l.987.588c.2.116.373.414.609.357.1-.024.262.112.4.1a2.039,2.039,0,0,0,.391-.135l-.011-.071-.256.012.044-.122-.147-.122-.168.146a.124.124,0,0,1-.011-.142,1.669,1.669,0,0,1-.439-.265l.055-.084.18.122c.1-.1.206-.035.295.047s.252.079.366.1.167.133.273.141a1.09,1.09,0,0,0,.362-.051c-.078-.122-.253-.066-.333-.177a.516.516,0,0,1,.457.07v.1c.171.017.5.1.636-.025l-.125-.146c.129-.119.356-.247.424.018-.392.149.066.68.268.8a1.546,1.546,0,0,0,.969.1c-.166-.109-.174-.227-.223-.411.106.079.2.206.336.123l.066.146c.18.053.285-.074.424-.17a.829.829,0,0,1-.13-.467c-.019-.144-.18-.235-.083-.378a1.226,1.226,0,0,1,.284.641c.024.179.2.521.395.544l.055-.147a.467.467,0,0,1,.066.241c.24-.177.923.743,1.2.362-.093-.168-.4-.262-.549-.41l.022-.048c.136.094.328.3.505.276-.017-.207-.377-.3-.359-.506.149.068.214.253.356.312.2.084.241-.21.306-.36.139-.321.5-.456.266-.811.144-.117.185-.007.325-.048.107-.032.173-.194.271-.241.048-.024.127.05.174.009l.19-.165c.09-.079.18,0,.228-.161l.169.047a1.644,1.644,0,0,1,.305-.309c.118-.088.1-.226.129-.368a2.851,2.851,0,0,0,.486-.064c.116-.029.181-.176.294-.206a3.66,3.66,0,0,1,.815-.093,2.292,2.292,0,0,0,.884-.133,2.384,2.384,0,0,1,.347-.2c.178-.049.259-.049.362-.2.178-.257.527-.234.813-.263.223-.022.5-.126.732-.175.3-.065,1.4.071,1.406-.4.116.045.054.155.136.212a.559.559,0,0,0,.28.081.393.393,0,0,0,.437-.17,1.19,1.19,0,0,1,.454-.447c.134-.065.371-.14.33-.331l-.246-.122c.034-.281-.484-.241-.469-.529.014-.259.4-.285.423-.558a.154.154,0,0,0,.19-.024l.077.083c-.058.193-.615.6-.1.719.265.062.627.432.886.344a.925.925,0,0,1,.492-.084.7.7,0,0,0,.456.01c.114-.054.324-.1.384-.234.074-.16-.115-.255.032-.4l.157.011-.011-.1a1.432,1.432,0,0,1,.533.089c.105.023.259.333.36.416a1.129,1.129,0,0,0,.457.24c.195.034.276-.066.423-.176a5.939,5.939,0,0,1,1.1-.707c.211-.1.828-.405.669-.7.189.012.424.09.485-.139.05-.187-.334-.2-.438-.221-.217-.047-.377-.662-.367-.861.216.055.17-.166.313-.227a.729.729,0,0,1,.431-.08c.248.066.247.064.319.31.037.127-.1.308-.162.407.309-.032.35-.11.523-.367a.821.821,0,0,1,.458-.326,2.009,2.009,0,0,0,.737-.174,1.454,1.454,0,0,0,.343-.507l.545-.745Zm16.067-8.947h.948l.492.526s-1.367,1.265-1.824.7S115.725,83.419,115.725,83.419Zm-2.272-19.865c.561-.211,1.194.42,1.194.42l1.02,1.192-.316.281-1.194-.42-.879-.912s-.386-.351.175-.562Z" transform="translate(-39.605 -51.053)" fill="#5751c8" stroke="#eaecff" stroke-linecap="round" stroke-linejoin="round" stroke-width="0.5"/><path d="M1909.65,560.927l-.369.012-.289.036-.527.218-.424.147-.435.194-.358-.122-.257-.41-.136-.363.01-.388v-.533l.157-.34.289-.266.124-.193-.169-.288-.191-.288-.158-.123-.315-.193-.18-.265-.114-.264-.125-.288-.19-.047-.29-.194-.125-.146-.3-.482-.044-.264-.125-.482-.055-.288-.033-.328-.088-.277-.213-.312-.18-.193-.38-.146-.435-.094-.267.024-.256.048-.135.134-.011.122-.212.387-.38-.046-.268-.2-.336-.205-.267-.134-.191-.265.066-.363.032-.288-.023-.506-.1-.581-.055-.312-.347-.194-.3-.216-.246-.193-.19-.047-.077-.047-.3-.047-.3-.011-.223-.024-.169-.2-.077-.34-.268-.375-.213-.217-.245-.229-.046-.056-.23.394s-.069.878-.1,1.9a1.307,1.307,0,0,1-.665,1.265l.634,1.614-.56.913.878.209-.034.842-.843-.455a1.1,1.1,0,0,0-1.368.844,3.012,3.012,0,0,0,.214,2.281l-1.052.739.527.35a4.286,4.286,0,0,1-1.051,1.756c-.807.808-.384,1.37-.384,1.37l-.736.6.774.982-.42.632-.138,1.931-.56.878c1.44.174,1.23,1.052,1.23,1.052-1.3-.279-1.333.388-1.333.388l1.2,1.227s1.019.736,2.035-.7a3.343,3.343,0,0,0,1.719-.459c.561-.457.772-.633,1.228-.283l.283.451.286.018.446.205.4.24.527.276.593.276.582-.036.189-.4.19-.558.392-.23.314-.329.357-.606.212-.506.358-.289.347-.147.479-.072.681.082.468.035.413.094.37.071.256-.218.267-.364.168-.412.157-.557.277-.616.135-.495.211-.605.19-.557.413-.387.223-.277.335-.834.347-.653.255-.6v-.534l-.246-.252Z" transform="translate(-1754.475 -513.047)" fill="#5751c8" stroke="#eaecff" stroke-linecap="round" stroke-linejoin="round" stroke-width="0.5"/><path d="M979.892,482.807l-1.544.7-.385,1.159s-.806,1.3-1.86.6.174-1.124.174-1.124,0-.667-.879-.912-3.827-.522-3.827-.522l-1.614.528.527.385,1.371,1.367-.279,1.44s1.509-.458,1.476,1.648l.667.069s-1.893,1.828-.383,2.668,1.651.489,1.651.489l-.174.913-2-.84-.525.808a3.309,3.309,0,0,1-1.791-.314,5.086,5.086,0,0,1-3.862-.241l-1.229-.63-.765.137a2.151,2.151,0,0,0,1.353,1.093,1.691,1.691,0,0,1-1.125,1.546l-.095,1.287a1.1,1.1,0,0,1,.163,1.512,3.98,3.98,0,0,1-.609,1.706,6.48,6.48,0,0,0-.738,1.835,1.556,1.556,0,0,1-2.093-.77l-.612-.128.066.837-.9.1a3.5,3.5,0,0,1,.743,2.123c.163,1.577.774,1.286.774,1.286l-.835,1.449-.708.258-.127,1.577-.707.709.516.643.932-.838,1,1.35-.836.548-1.027,1.965-.838-1.029-.966-.063-.643.58,1.256.8-.482.451-.063.837.934.675.452,1.094.74.224.033.74,1.192,1.157-.932,1.224.869.063,1.479-1.321s1.643,1.156,2.028.094-1.964-1-1.964-1l-.129-.483.964-1.16,1.192.932.45-.58c.87.578,1.094-.484,1.094-.484l.483.193.163,1.255.644.031.514-.837.353-.87.9-.065,1.093-1.353.934.868.224-.966.676.482s.03-1.352.867-1.482a5.812,5.812,0,0,1,1.834.094l.612.611.9.1.16-.773,1.03-.066.8-.106.772-.492.6,1.087.561-.387s-.7-1.333.349-1.931l-.141-.6s-.842.457-.948-.455.876-1.089.876-1.089l.387.772,1.3.209.88,1.894a1.509,1.509,0,0,0,2-.81l.07-.141a1.291,1.291,0,0,1,1.051-1.756,3.958,3.958,0,0,0-1.616-1.332,8.3,8.3,0,0,1-2.319-2.1l.737-.492s.914,1.192,1.088.1-.633-1.193-.633-1.193a2.262,2.262,0,0,1-.669-1.368,3.768,3.768,0,0,0-.423-1.544s-.174,1.475-.772.387a2.255,2.255,0,0,1,0-2.106,1.28,1.28,0,0,1,.314-1.58c.806-.7.07-.141.07-.141l-.073-1.9-.807-.139-.841.914-.142-.877s-1.158.282-.915-2.035,2.034-1.828,2.034-1.828l.174-.878-.948.071-.6-.561-.632.106-.209.983-.632.036.1-2.071.42-.773L978.6,486l.28-.281,1.65-.072.279-1.72.7-1.019-.633-.877Z" transform="translate(-887.273 -450.463)" fill="#5751c8" stroke="#eaecff" stroke-linecap="round" stroke-linejoin="round" stroke-width="0.5"/><path d="M1761.058,616.134l-.843-.069a.939.939,0,0,1-1.229.037c-1.968-1.717-2.633-.313-2.633-.313.071,1.018-.736,1.019-.736,1.019l-1.191,2.108a2.981,2.981,0,0,1-3.369.636L1750,618.36l-.455.7.563,1.123-.982.633-.6.7c-.491.492-.1,1.474-.1,1.474l-.665,1.721.317.631.806-1.159.668.947s-1.367,1.265-.558,2.563c0,0,.071.526-.771.7l-.245.387.283,1.755.913.209s-.943,3.582,1.2,5.123l1.826.524,1.51.384s-.108-1.9,1.191-1.546,1.09,1.192.493,1.333-1.333.809-.6,1.194a1.349,1.349,0,0,0,1.86-.775,4.067,4.067,0,0,1,1.016-1.511l-.878-.455-.285-2.948s-.353-1.649,1.894-1.161c0,0,.034-.667,1.333-.388,0,0,.209-.878-1.23-1.051l.561-.878.138-1.931.42-.632-.774-.982.736-.6s-.422-.561.384-1.37a4.284,4.284,0,0,0,1.051-1.756l-.527-.35,1.052-.739a3.013,3.013,0,0,1-.214-2.281,1.1,1.1,0,0,1,1.368-.844l.843.455.034-.843-.878-.209-1.228.072Z" transform="translate(-1619.809 -573.919)" fill="#5751c8" stroke="#eaecff" stroke-linecap="round" stroke-linejoin="round" stroke-width="0.5"/><path d="M1425.053,364.458l.247,1.018-.842.106-.914-1.122-2.418,3.408.983.244.6,1.123.878.35.423.947-2.068,2.565-.49,1.37c-1.579.774-.488,2.668-.488,2.668l-.878-.034-.07.527a2.392,2.392,0,0,1-.628,2.669l-.492-.631h-1.018l-.667-.21-1.016,1.3-.494-2.07-2.317-.032-.141-.772-1.124-.385-.6-.736a3.636,3.636,0,0,0,2.244-1.9l-.985-1.052h-1.439l-.667-.631-1.335-.806-1.122,1.125c.282.912-1.192,1.335-1.192,1.335l-.946,1.581.037,1.193-.807.071-.279,1.089a1.223,1.223,0,0,0-1.088-.139c-.737.176-.1,1.474-.1,1.474l-.631.387c-.947.493-.349,1.65-.349,1.65l-.771.879-1.194-.841-.7.774.878.6.6.912a1.685,1.685,0,0,0,1.79-.213,2.168,2.168,0,0,0,.594-2l1.193-.247a.8.8,0,0,0,1.019.7c.912-.212.9.881.9.881a6.111,6.111,0,0,1,3.492.061l.6.947,1.16,1.262,1.335.314s1.826.419,2.175-1.231l.105-.141a1.734,1.734,0,0,0,1.333-1.09l.912-.107-.072-.983-1.018-.139.7-2.739-.7,2.739,1.018.139,1.334.068.806-.879.668.842.737-.352.7,1.473,1.37.876.7-.6.667.069.209-1.334s1.615.1.736-1.089l-.562-.315,2.138-2.355,2.247.348a7.459,7.459,0,0,1,2.242-3.267l.279-.983.583-.349-.013,0-.011-.411-.055-.111-.125-.206-.022-.146.044-.229.19-.111.2-.218-.022-.3-.147-.229-.18-.253-.033-.289.113-.241.055-.352.168-.352-.125-.518-.011-.4-.289-.411-.38-.24-.446-.158-.457-.181-.637.194h-.326l-.336.387-.246.048-.033-.363.146-.313.245-.312.054-.352-.3-.134-.424-.023-.267-.036-.034-.423-.213-.34-.337-.328-.279-.276-.289-.328-.538-.276h-.468l-.38.048-.234-.193.1-.312.1-.482-.066-.3.169.059-.078-.482-.066-.193-.022-.241v-.158l.033-.218.011-.205.046-.061-.38.014Z" transform="translate(-1297.694 -340.9)" fill="#5751c8" stroke="#eaecff" stroke-linecap="round" stroke-linejoin="round" stroke-width="0.5"/><path d="M1721.337,509.411a7.458,7.458,0,0,0-2.242,3.267l-2.247-.348-2.138,2.355.562.315c.879,1.192-.736,1.089-.736,1.089l-.209,1.334-.667-.069-.7.6-.1.632-.667.036a1.753,1.753,0,0,0,.6,1.228s-.841.984.177,1.369l.983-.142.633.526.911-.949.668.456.982-.633-.563-1.123.455-.7,1.055,1.192a2.981,2.981,0,0,0,3.369-.636l1.191-2.108s.807,0,.736-1.019c0,0,.665-1.405,2.633.313a.939.939,0,0,0,1.229-.037l.842.069.422.456,1.229-.072.561-.913-.634-1.614a1.307,1.307,0,0,0,.665-1.265c.034-1.018.1-1.9.1-1.9l.23-.394-.189-.232-.235-.288-.257-.194-.1-.312-.157.241-.1.328-.033.3-.493.265h-.278l-.468.025-.224-.264-.077-.2-.077-.206-.234-.241-.224-.386-.114-.217-.169-.264-.268-.458-.125-.217-.56-.193-.224-.059-.424.111-.2.07v0l-.088-.277-.359-.181-.314.1-.234.194-.1.158-.1.253-.234.218-.234-.1-.2-.241-.257-.34-.381-.312-.413-.146-.314.423-.583.349Z" transform="translate(-1586.837 -474.208)" fill="#5751c8" stroke="#eaecff" stroke-linecap="round" stroke-linejoin="round" stroke-width="0.5"/><path d="M444.794,1047.409l.031-.869a2.165,2.165,0,0,1-.709-.739c-.161-.386.192-.773.578-.838s.385-.805.385-.805l.74-.323s.708.256.869-.034c.219-.4-.774-.9-1.031-.9s-.451-.386-.388-1.223a2.32,2.32,0,0,0-.71-1.576l.321-.418.8.321a3.17,3.17,0,0,1,1.03.063c.579.128.515-.226.515-.226l-.58-.514.578-.612.837-.1.192-.8.514-.451-.934-.321-.432-.689-.469.529s.643-.484-.161.193-1.031-1.189-1.031-1.189l-.2-1.609-2.38.969-.869-.128-.032.483c-.1.612-.45.773-1.094.42a.523.523,0,0,1-.162-.869l.1-1.094a3.181,3.181,0,0,1-1.255-.063c-.966-.16-.547-.064-1.126.517s-.741-.514-.741-.514l-.579.033-.258-.45c-.419-.579-.643.838-.643.838h-.418l.031-1.094c.1-.547.128-.547.772-.677s.675-1.031.675-1.031l.418.031.771-.677a.657.657,0,0,0-.13-.837c-.419-.386-1.448.42-1.448.42l-.031.643-.547.355a4.744,4.744,0,0,0-.612-.707,1.055,1.055,0,0,0-1.255,0c-.482.258-.481,1.127-.481,1.127a2.73,2.73,0,0,1-.676-.031c-.354-.064-.514.355-.514.355s-.1.676-.417.837-1.288-.835-1.288-.835l-.547-.225-.193.354.049.582a.318.318,0,0,1,.256.083.987.987,0,0,0-.3.688l-.191-.17c-.043.232.343.568.511.722.234.214.424.462.654.681a14.025,14.025,0,0,0,1.466,1.186,4.556,4.556,0,0,1,.656.756,4.35,4.35,0,0,0,.578.523,5.916,5.916,0,0,1,.677.679c.147.166.364.508.611.526.179-.148.02-.521.376-.455.079.221-.227.313-.12.494.16.025.22.021.329.138.26.28.459.609.726.883q.526.54,1.051,1.079a23.975,23.975,0,0,1,1.86,2.08c.081.105.3.25.346.343a1.437,1.437,0,0,0,.293.439c.288.314.574.623.838.957.525.663,1.1,1.295,1.6,1.976.122.034.189.081.11.146,0,0,.071-.021.048.024l-.015.031c.463.649,1.036,1.216,1.545,1.835.123.15.245.3.368.453l1.014-1.122Z" transform="translate(-398.969 -958.318)" fill="#5751c8" stroke="#eaecff" stroke-linecap="round" stroke-linejoin="round" stroke-width="0.5"/><path d="M626.568,1147.175l.612.45.964-1,1.094.063-.194-1,.9-1.45.674-1.224.451.418-.353.805.548.321.836-.87a2.112,2.112,0,0,1,1.16,1.318l.966.063.613.868c.322-.032.87.964.87.964s-.74.516.066,1.287.869-.194.869-.194l.031-1.255,2.283-1.29-.067-1.9-.742-1.093c-.484-1,.288-1.32.288-1.32l1.352-.066.45-.87.869-.227-.419-.74-1.287.42s-.033-.9-.034-1.062a8,8,0,0,0-.323-1.029l.515-.258.226.322s1,.739,1.384.191-.387-.933-.387-.933l-.065-.837-2.092-.03-.709-.836-.033-.386,1.094-.259.868-.419a6.089,6.089,0,0,0-2.257-3.087l-.805-.482-.611.355-.192,1.094-.707.548-.226-.579c-.226-.45-1.127-.642-1.127-.642-.225.322-1.029.388-1.448.388a2.2,2.2,0,0,0-.933.323l-.066-1.48a5.246,5.246,0,0,0-2.059.775l-.323-.611s-1.577.131-1.769,1.129-1.865,1.322-1.865,1.322l-1.028,1.256-.259-1.062.45-.773c-.291-.611-1.321-.932-1.321-.932s-1.286.967-1.9.389.513-1.1.513-1.1l-.452-.836-.514.451-.192.8-.837.1-.578.612.58.514s.065.354-.515.226a3.17,3.17,0,0,0-1.03-.063l-.8-.321-.321.419a2.319,2.319,0,0,1,.71,1.576c-.063.837.13,1.223.388,1.222s1.25.5,1.031.9c-.161.29-.869.033-.869.033l-.74.323s0,.74-.385.805-.74.451-.578.838a2.165,2.165,0,0,0,.709.74l-.031.869,1.159.578-1.014,1.122a14.626,14.626,0,0,0,1.316,1.476l.044-.06.077.059c-.057.212.493.661.627.8a3.933,3.933,0,0,0,.378.325,1.613,1.613,0,0,1,.274.337,8.921,8.921,0,0,0,.788.685c.054.053.26.3.333.29.19-.03.288-.087.406.09l-.077.11a.126.126,0,0,0-.169-.011c.571.527,1.154,1.039,1.683,1.609l.226.244c.027.029.1-.017.146.014s.108.072.164.109l1.854-.383Z" transform="translate(-571.659 -1051.078)" fill="#5751c8" stroke="#eaecff" stroke-linecap="round" stroke-linejoin="round" stroke-width="0.5"/><path d="M298.943,865.518l.547.224s.967,1,1.288.835.417-.837.417-.837.16-.419.514-.355a2.731,2.731,0,0,0,.676.031s0-.869.481-1.127a1.055,1.055,0,0,1,1.255,0,4.755,4.755,0,0,1,.612.707l.547-.355.031-.644s1.029-.806,1.448-.42a.657.657,0,0,1,.13.837l-.772.677-.418-.032s-.031.9-.675,1.031-.676.13-.772.677l-.031,1.094h.418s.223-1.417.643-.838l.258.45.579-.033s.162,1.094.741.514.16-.676,1.126-.516a3.181,3.181,0,0,0,1.255.063l1.48-.131s.708-.226.353-.612l-.934-.385a13.644,13.644,0,0,0-.292-1.931,14.854,14.854,0,0,1-.485-2.091s-.644-.417-.773-.771l-.547-.128s-.227-1.577.449-1.063a.646.646,0,0,0,.8-.419,8.969,8.969,0,0,1-.2-2.188s-.162-.74-.741-.739-.581-.933-.581-.933l-.388-1.062.353-.676-.42-.965-.389-2.124a2.469,2.469,0,0,0,.113-.974.606.606,0,0,1-.36.461.766.766,0,0,0-.158.471c.1.256-.536.861-.137,1.089l-.044.059a.66.66,0,0,0-.782.159.957.957,0,0,0-.246.375c-.04.1.075.219.035.335a.57.57,0,0,1-.179.024l-.011.17c-.108,0-.153-.1-.246-.145s-.19-.034-.3-.107c-.13.134-.016.317-.054.486l-.044.013-.1-.122-.113.095-.147-.194-.4.558c-.172-.077-.278-.09-.153-.265.091-.129.184-.257.276-.384-.08-.162-.293-.09-.4-.265-.142.051-.176.253-.347.23-.115-.293-.232-.322-.513-.469l.391.023c.025-.357.018-.348-.315-.482l.022-.048h.2a.514.514,0,0,0-.254-.232c-.161-.083-.087-.181-.2-.264-.3-.225-.309-.3-.622-.107l.235.264c-.17.177.171.729.093,1-.53,0-.678.249-.8.73a.474.474,0,0,1-.393.335c-.294.054-.3.123-.383.4-.1-.116.009-.289-.056-.431-.276-.032-.3.146-.537.239a1.051,1.051,0,0,1-.6.1c-.346-.031-.982.082-1.191-.227-.122.029-.538.016-.581.108.212.126.018.563-.193.553.021.159-.067.2-.179.285a.794.794,0,0,1-.157.115c-.046.015-.128-.061-.168-.026a1.02,1.02,0,0,1-.68.359c-.554.063-.9.525-1.5.287a2.371,2.371,0,0,1-1.142-1.043c-.151-.289.007-.475.141-.733.053-.1-.006-.226.036-.325s.194-.194.266-.265c-.209.049-.241-.043-.2-.214a2.382,2.382,0,0,1,.174-.344c.135-.1.15-.208.313-.278s.051-.206.188-.306a2.091,2.091,0,0,1-.246-.494.753.753,0,0,0-.521.163,2.3,2.3,0,0,1-.48.25.958.958,0,0,1-.949-.146c-.27.178-.244.527-.662.451-.284-.052-.771-.146-.867-.466a1.315,1.315,0,0,1-.022-.543c.03-.208.127-.218.335-.33a1.846,1.846,0,0,0,.568-.73c-.252-.326-.6.163-.833.268a5.479,5.479,0,0,0-1.02.705,2.72,2.72,0,0,0-.638.805,4.464,4.464,0,0,0-.589.908c-.043.166,0,.4-.03.585-.042.22-.206.194-.316.332a1.242,1.242,0,0,0-.033,1.022,7.506,7.506,0,0,1,.36,1.047c.049.195.028.387.258.4.138.008.366.12.319.281l-.147-.047c-.031.241.422.662.583.84.208.23.481.419.671.662.47.6.919,1.21,1.445,1.761.484.507.889,1.083,1.34,1.624.233.28.46.556.717.815a3.1,3.1,0,0,0,.641.633l.113-.17-.125-.217a.182.182,0,0,1,.2-.024c-.068.126.053.244.125.348l-.033.071-.114-.059c-.159.195.229.619.464.872.091.055.156.1.165.138l-.026.016h0l-.01.006a.42.42,0,0,1,.1.105c.268.279.535.556.816.822.3.282.675.489.961.772.326.324.637.657.946,1,.367.4.6-.086.793-.377l-.049-.582Z" transform="translate(-267.106 -791.76)" fill="#5751c8" stroke="#eaecff" stroke-linecap="round" stroke-linejoin="round" stroke-width="0.5"/><path d="M764.58,602.841l.644.224.388,1s.8.063,1.032,1.35l.226.8a2.708,2.708,0,0,1,.839,2.059l-.643.194.42.965.934.675-.192,1.159.387.354.485,1.673c.581,1.737,1.837,1.736,1.837,1.736l.128-.837,1.158-.549-.194-.579.546-.419,4.186,1.572.643-.58.966.063.838,1.029,1.027-1.964.836-.548-1-1.35-.932.838-.516-.643.707-.709.127-1.577.708-.258.835-1.449s-.611.291-.774-1.286a3.5,3.5,0,0,0-.743-2.123l.9-.1-.065-.837.612.128a1.556,1.556,0,0,0,2.093.77,6.478,6.478,0,0,1,.738-1.835,3.981,3.981,0,0,0,.609-1.707,1.1,1.1,0,0,0-.163-1.512l.095-1.287a1.692,1.692,0,0,0,1.124-1.546,2.151,2.151,0,0,1-1.353-1.093l-1.64.871-.71-1.254-.965.194-.9-.739-1.737,1.032-1.867-.159-1.544.517c-1.222.677-3.444-.285-3.444-.285a2.068,2.068,0,0,0-1.448.227,2.974,2.974,0,0,1-1.834.163l-1.223.066-1.287.581-.545.745a.584.584,0,0,1,.127.549,1.808,1.808,0,0,1-.128.455,4.51,4.51,0,0,1-.49.992c.2,0,.148.025.055.14a2.278,2.278,0,0,0-.322.571c.1.159-.179.419-.292.517l.044.122c-.179.057-.4.034-.482.218-.068.144-.065.372-.128.533-.078.2-.623.672-.823.527l.932.746Z" transform="translate(-706.706 -553.962)" fill="#5751c8" stroke="#eaecff" stroke-linecap="round" stroke-linejoin="round" stroke-width="0.5"/><path d="M544.768,708.547l.389,2.124.42.965-.353.676.388,1.061s0,.933.581.933.741.739.741.739a8.972,8.972,0,0,0,.2,2.188.646.646,0,0,1-.8.419c-.677-.514-.449,1.063-.449,1.063l.547.128c.129.354.773.771.773.771a14.863,14.863,0,0,0,.485,2.091,13.66,13.66,0,0,1,.292,1.931l.934.385c.354.386-.353.612-.353.612l-1.48.131-.1,1.094a.523.523,0,0,0,.162.869c.644.353,1,.192,1.094-.42l.032-.483.869.128,2.38-.969.2,1.609s.228,1.866,1.031,1.189.161-.193.161-.193l.469-.53-.052-.083.052.083.045-.05-1.128-1.543s1.706.03,1.672-1.129a1,1,0,0,1,.964-1.16l.095-1.513a.621.621,0,0,1,.677.482c.129.547.194,1.062.645.8s.385-.966.32-1.416l-.258-.483,1.352.031.192-.966.8.031.643-.58s.031-.837.8-.645,1.9.8,2.446.158a.98.98,0,0,1,1.48-.2l.258.257-.514.644s-.128.708.741.289.771-.741.449-1.191c0,0-.323-1.255.61-1.224l.1-.386-.483-.192s-.2-1.513.963-1.739l-.71-1.319-.8.033L563.923,713l-.967-.835,1.029-.323s1.061-.806-.13-1-.773-.417-.516-.8l.676.1.676-.194-.065-.515-.837.033-.58-.224-1.253,1.321-.548-.675s1.351-.742,1.575-1.482.064-.129.064-.129l.612.1.353-.483.451.707a3.267,3.267,0,0,1,1-.774,1.165,1.165,0,0,1,.192-.837,1.155,1.155,0,0,0,.1-.966l-.514.644s-.063.74-.579.516.32-1,.32-1l.063-1.062.675-.612-.42-.965.643-.194a2.708,2.708,0,0,0-.839-2.059l-.226-.8c-.227-1.287-1.032-1.35-1.032-1.35l-.388-1-.644-.225-1.16-.867-.932-.746a10.588,10.588,0,0,0-1.417,2.283c-.116.21-.358.489-.357.733,0,.225-.144.433-.107.648.044.259-.109.418-.25.618-.064.09-.1.18-.2.209s-.209.024-.242.148h-.066l-.044.095c-.18-.017-.284-.149-.472-.118a.5.5,0,0,0,.1.581l-.066.107c-.09-.012-.275-.088-.307.04s-.1.246.007.36a1.848,1.848,0,0,1,.582-.06l.022.111a1.468,1.468,0,0,0-.57.144c-.048.166.05.315-.01.472a2.726,2.726,0,0,1-.242.426c-.11.18-.166.613-.437.588l-.113.265-.212-.012c-.044.125.058.2-.011.318a1.268,1.268,0,0,0-.124.312,1.164,1.164,0,0,1-.122.388c-.052.063-.207.135-.219.2-.039.224-.033.223-.241.312a2.474,2.474,0,0,1-.317.117,3.289,3.289,0,0,1-.713.117,6.526,6.526,0,0,1-1.508-.035,1.25,1.25,0,0,0-.787-.023,2.748,2.748,0,0,1-.266.171c-.117.045-.221-.008-.337.036l-.055-.083a1.05,1.05,0,0,1-.449.078c-.128-.019-.222.153-.348.153-.143,0-.229.13-.333.223s-.224.054-.288.149a.655.655,0,0,1,.18.423l.179-.012-.044.253a.939.939,0,0,0-.37-.244c-.169-.02-.2.105-.336-.074-.1.094-.34.186-.38.316l.066.123c-.215.2-.283.26-.267.558a2.521,2.521,0,0,0-.582.186c-.11.065-.284.349-.375.349-.182,0-.28-.179-.47-.184a2.848,2.848,0,0,1-.562.027,1.888,1.888,0,0,1-.646,1.475,4.212,4.212,0,0,1-.507-.572,2.411,2.411,0,0,0-.533-.509.428.428,0,0,0,0,.3c-.168.021-.175-.2-.319-.223-.207-.031-.165-.1-.115-.277a.659.659,0,0,0-.237-.709,2.476,2.476,0,0,1-.114.975Z" transform="translate(-504.935 -649.023)" fill="#5751c8" stroke="#eaecff" stroke-linecap="round" stroke-linejoin="round" stroke-width="0.5"/><path d="M414.251,833.085c.107-.163-.062-.388-.229-.411a1.216,1.216,0,0,0-.6.021l-.1.111c.128.259.214.267.488.368A.442.442,0,0,0,414.251,833.085Z" transform="translate(-383.116 -775.392)" fill="#5751c8" stroke="#eaecff" stroke-linecap="round" stroke-linejoin="round" stroke-width="0.5"/><path d="M451.853,890.2l-.033.059a.363.363,0,0,0,.479.012C452.229,890.116,451.981,890.133,451.853,890.2Z" transform="translate(-418.796 -828.684)" fill="#5751c8" stroke="#eaecff" stroke-linecap="round" stroke-linejoin="round" stroke-width="0.5"/><path d="M416.27,880.835a.29.29,0,0,0,.336-.147.086.086,0,0,0-.011-.118C416.49,880.646,416.327,880.717,416.27,880.835Z" transform="translate(-385.85 -819.806)" fill="#5751c8" stroke="#eaecff" stroke-linecap="round" stroke-linejoin="round" stroke-width="0.5"/><path d="M1433.862,942.667c-.109.049-.257.043-.354.108-.08.054-.338.169-.338.284,0,.145.11.218.077.382.222-.164.659-.667.954-.557l.146-.241C1434.182,942.459,1434.059,942.579,1433.862,942.667Z" transform="translate(-1328.259 -877.241)" fill="#5751c8" stroke="#eaecff" stroke-linecap="round" stroke-linejoin="round" stroke-width="0.5"/><path d="M466.667,876.9l-.066.17v.146C466.785,877.161,466.824,877.021,466.667,876.9Z" transform="translate(-432.494 -816.404)" fill="#5751c8" stroke="#eaecff" stroke-linecap="round" stroke-linejoin="round" stroke-width="0.5"/><path d="M337.077,851.306a.3.3,0,0,0,.012.241c.081-.054.1-.146.172-.2s.193-.049.234-.107c.063-.087,0-.12.022-.205s.078-.158.1-.241c.045-.153,0-.336.224-.336a2.063,2.063,0,0,1,.5.071l.033.158c.153-.009.169-.182.22-.306.059-.142-.062-.176-.176-.233-.2-.1-.544.1-.728.163s-.436.172-.451.391c-.007.1.11.223.063.315A.928.928,0,0,1,337.077,851.306Z" transform="translate(-312.441 -791.585)" fill="#5751c8" stroke="#eaecff" stroke-linecap="round" stroke-linejoin="round" stroke-width="0.5"/><path d="M405.062,852.044l-.114-.059c-.356.318.411.746.549.509.085-.144.2-.284.058-.438A.348.348,0,0,0,405.062,852.044Z" transform="translate(-375.272 -793.278)" fill="#5751c8" stroke="#eaecff" stroke-linecap="round" stroke-linejoin="round" stroke-width="0.5"/><path d="M616.347,824.532v.008h.062c.17-.271-.046-.525-.318-.32A.3.3,0,0,0,616.347,824.532Z" transform="translate(-571.033 -767.514)" fill="#5751c8" stroke="#eaecff" stroke-linecap="round" stroke-linejoin="round" stroke-width="0.5"/><path d="M779.2,671.473a.306.306,0,0,0,.256-.123l.054-.094c-.136-.052-.255.074-.365.146Z" transform="translate(-722.148 -625.812)" fill="#5751c8" stroke="#eaecff" stroke-linecap="round" stroke-linejoin="round" stroke-width="0.5"/><path d="M500.417,856.276l-.067.095c.179.272.362.5.7.522.049.179.558.392.666.194-.172-.22.229-.394.026-.621.139-.133.116-.226.016-.368a2.649,2.649,0,0,0-.407-.256C501.079,855.788,500.641,856.157,500.417,856.276Z" transform="translate(-463.771 -796.883)" fill="#5751c8" stroke="#eaecff" stroke-linecap="round" stroke-linejoin="round" stroke-width="0.5"/><path d="M623.881,810.556a2.743,2.743,0,0,0,.993-.413c.134-.171.35-.367.081-.528a1.143,1.143,0,0,0-.54-.182c-.146.021-.282.209-.446.253-.125.032-.13-.027-.259.056a.214.214,0,0,1-.144,0C623.37,810.106,623.29,810.633,623.881,810.556Z" transform="translate(-577.827 -753.876)" fill="#5751c8" stroke="#eaecff" stroke-linecap="round" stroke-linejoin="round" stroke-width="0.5"/><path d="M777.16,666.691a1,1,0,0,0,.333-.1l.2-.276-.033-.071C777.507,666.35,777.188,666.482,777.16,666.691Z" transform="translate(-720.304 -621.176)" fill="#5751c8" stroke="#eaecff" stroke-linecap="round" stroke-linejoin="round" stroke-width="0.5"/><path d="M617.155,804.659l-.135.1a.275.275,0,0,0,.472-.024A.267.267,0,0,0,617.155,804.659Z" transform="translate(-571.894 -749.427)" fill="#5751c8" stroke="#eaecff" stroke-linecap="round" stroke-linejoin="round" stroke-width="0.5"/><path d="M589.652,825.459l-.1.094c.017.3.623.367.848.442v0c.405,0,.962.1.951-.47,0-.2-.037-.406-.254-.434-.155-.021-.421-.052-.514.1a.945.945,0,0,1,.044.423C590.282,825.734,590,825.4,589.652,825.459Z" transform="translate(-546.437 -768.378)" fill="#5751c8" stroke="#eaecff" stroke-linecap="round" stroke-linejoin="round" stroke-width="0.5"/><path d="M1456.4,936.018l-.336-.048a.143.143,0,0,0,.088.119.229.229,0,0,1-.212.059.3.3,0,0,0,.251.2C1456.288,936.339,1456.356,936.1,1456.4,936.018Z" transform="translate(-1349.36 -871.147)" fill="#5751c8" stroke="#eaecff" stroke-linecap="round" stroke-linejoin="round" stroke-width="0.5"/><path d="M49.434,355.21c.25.125.511-.236.672-.375.415-.358-.708-.679-.8-.259C49.259,354.878,49.137,355.062,49.434,355.21Z" transform="translate(-45.707 -332.158)" fill="#5751c8" stroke="#eaecff" stroke-linecap="round" stroke-linejoin="round" stroke-width="0.5"/><path d="M169.23,399.851c.137.059.329-.111.45-.174a.106.106,0,0,0,0-.142C169.49,399.505,169.321,399.707,169.23,399.851Z" transform="translate(-156.907 -374.004)" fill="#5751c8" stroke="#eaecff" stroke-linecap="round" stroke-linejoin="round" stroke-width="0.5"/><path d="M167.763,387.74a.64.64,0,0,0-.529.35.982.982,0,0,1-.492.251l-.1.105.066.111c.227-.053,1.262-.565,1.057-.817Z" transform="translate(-154.506 -363.077)" fill="#5751c8" stroke="#eaecff" stroke-linecap="round" stroke-linejoin="round" stroke-width="0.5"/><path d="M133.706,410.591c.249.118.946-.593.761-.771l-.773.238C133.535,410.107,133.574,410.528,133.706,410.591Z" transform="translate(-123.878 -383.539)" fill="#5751c8" stroke="#eaecff" stroke-linecap="round" stroke-linejoin="round" stroke-width="0.5"/><path d="M130.216,404.616a.183.183,0,0,0-.028.117c.006.133.1.3.223.279a.662.662,0,0,0,.464-.214,1.09,1.09,0,0,0-.283-.135C130.437,404.609,130.27,404.575,130.216,404.616Z" transform="translate(-120.724 -378.7)" fill="#5751c8" stroke="#eaecff" stroke-linecap="round" stroke-linejoin="round" stroke-width="0.5"/><path d="M1480.327,1097.327l-.044-.047-.223.07.022.241C1480.192,1097.547,1480.206,1097.4,1480.327,1097.327Z" transform="translate(-1371.713 -1020.641)" fill="#5751c8" stroke="#eaecff" stroke-linecap="round" stroke-linejoin="round" stroke-width="0.5"/><path d="M1477.582,1105.838c-.086-.166-.275-.017-.415-.042-.1-.019-.224-.154-.211.069l-.147.024C1476.866,1106.244,1477.428,1106,1477.582,1105.838Z" transform="translate(-1368.702 -1028.479)" fill="#5751c8" stroke="#eaecff" stroke-linecap="round" stroke-linejoin="round" stroke-width="0.5"/><path d="M1510.086,931.081a2.054,2.054,0,0,1,.508.348c.083.063.3-.064.378-.1-.108-.429-.421-.388-.772-.357-.153.014-.346-.148-.478-.218a.676.676,0,0,0-.393-.078C1509.117,931.072,1509.933,931.026,1510.086,931.081Z" transform="translate(-1398.807 -866.244)" fill="#5751c8" stroke="#eaecff" stroke-linecap="round" stroke-linejoin="round" stroke-width="0.5"/><path d="M187.243,384.46a.384.384,0,0,0-.259.193l-.034.084.055.047C187.136,384.713,187.306,384.64,187.243,384.46Z" transform="translate(-173.329 -360.037)" fill="#5751c8" stroke="#eaecff" stroke-linecap="round" stroke-linejoin="round" stroke-width="0.5"/><path d="M120.2,443.9c-.2.147-.024.55.011.749s.245.261.406.1a.412.412,0,0,1,.132-.459c.118-.087.366-.045.3-.282-.056-.2-.223-.234-.407-.315S120.318,443.806,120.2,443.9Z" transform="translate(-111.382 -414.91)" fill="#5751c8" stroke="#eaecff" stroke-linecap="round" stroke-linejoin="round" stroke-width="0.5"/><path d="M1496.021,1272.465c.15-.185-.218-.166-.241-.344l-.055.012-.022.17-.114.083A.262.262,0,0,0,1496.021,1272.465Z" transform="translate(-1386.106 -1182.674)" fill="#5751c8" stroke="#eaecff" stroke-linecap="round" stroke-linejoin="round" stroke-width="0.5"/><path d="M1406.871,1158.4c-.019.144.086.226.169.328l.066-.028C1407.147,1158.591,1406.979,1158.413,1406.871,1158.4Z" transform="translate(-1303.884 -1077.283)" fill="#5751c8" stroke="#eaecff" stroke-linecap="round" stroke-linejoin="round" stroke-width="0.5"/><path d="M788.076,642.1l-.033-.048c-.192.011-.242.228-.414.253a.143.143,0,0,0,.056.153C787.815,642.326,787.954,642.239,788.076,642.1Z" transform="translate(-730.001 -598.758)" fill="#5751c8" stroke="#eaecff" stroke-linecap="round" stroke-linejoin="round" stroke-width="0.5"/><path d="M62.6,358.191a.506.506,0,0,0,.168-.431C62.682,357.853,62.353,358.107,62.6,358.191Z" transform="translate(-58.002 -335.293)" fill="#5751c8" stroke="#eaecff" stroke-linecap="round" stroke-linejoin="round" stroke-width="0.5"/><path d="M773.7,646.53a1.511,1.511,0,0,0-.392.277c-.04.1-.111.188-.054.288C773.367,646.984,773.781,646.714,773.7,646.53Z" transform="translate(-716.664 -602.909)" fill="#5751c8" stroke="#eaecff" stroke-linecap="round" stroke-linejoin="round" stroke-width="0.5"/><path d="M1549.068,1400.636l-.2-.617c-.2.061.074.5.121.628l.409,1.093c.141.375.256,1.062.579,1.3v-.008h.242c-.427-.255-.524-.747-.688-1.2-.035-.1-.019-.215-.059-.31s-.167-.176-.185-.289A2.038,2.038,0,0,0,1549.068,1400.636Z" transform="translate(-1435.414 -1301.203)" fill="#5751c8" stroke="#eaecff" stroke-linecap="round" stroke-linejoin="round" stroke-width="0.5"/><path d="M1557.211,1401.06c-.074.053-.072.151-.176.17l-.065.135C1557.159,1401.441,1557.293,1401.225,1557.211,1401.06Z" transform="translate(-1442.99 -1302.168)" fill="#5751c8" stroke="#eaecff" stroke-linecap="round" stroke-linejoin="round" stroke-width="0.5"/><path d="M1543.731,1374.69a1.329,1.329,0,0,0-.2.2l.158.146a1.172,1.172,0,0,0,.343-.328l-.033-.036C1543.911,1374.721,1543.788,1374.639,1543.731,1374.69Z" transform="translate(-1430.534 -1277.712)" fill="#5751c8" stroke="#eaecff" stroke-linecap="round" stroke-linejoin="round" stroke-width="0.5"/><path d="M1567.906,1450.21c-.04.19.213.383.334.518l.014.015c0-.007,0-.014.007-.021.032-.126-.09-.219-.164-.319Z" transform="translate(-1453.121 -1347.717)" fill="#5751c8" stroke="#eaecff" stroke-linecap="round" stroke-linejoin="round" stroke-width="0.5"/><path d="M1567.943,1444.029a.322.322,0,0,0,.088-.359C1567.9,1443.731,1567.947,1443.9,1567.943,1444.029Z" transform="translate(-1453.155 -1341.656)" fill="#5751c8" stroke="#eaecff" stroke-linecap="round" stroke-linejoin="round" stroke-width="0.5"/><path d="M1576.131,1454.159a.15.15,0,0,0,.041-.133.417.417,0,0,0-.074-.156l-.125.024-.033.023c.028.043.053.088.081.129A.409.409,0,0,0,1576.131,1454.159Z" transform="translate(-1460.572 -1351.109)" fill="#5751c8" stroke="#eaecff" stroke-linecap="round" stroke-linejoin="round" stroke-width="0.5"/><path d="M1566.438,1357.36l-.033-.11h-.223l-.021.071A.211.211,0,0,0,1566.438,1357.36Z" transform="translate(-1451.507 -1261.567)" fill="#5751c8" stroke="#eaecff" stroke-linecap="round" stroke-linejoin="round" stroke-width="0.5"/><path d="M1493.322,1144.223a.734.734,0,0,0-.158.505l.168-.047c.021.044.043.088.066.13l.124-.182.136.194a.164.164,0,0,0,.092-.233c.174-.182.277.125.439.108a1.3,1.3,0,0,0,.5-.273,1.18,1.18,0,0,1-.293-.166,1.055,1.055,0,0,0,.38-.328c.178.063.193.075.356-.009a1.219,1.219,0,0,1,.394-.187,1.185,1.185,0,0,0,.408-.032.978.978,0,0,1,.316-.174,2.108,2.108,0,0,1,.423.025c.083.008.22-.108.293-.147.089-.048.231.037.315-.024a1.132,1.132,0,0,0,.239-.242.593.593,0,0,0,.065-.33c-.355-.069-.682-.182-.985.009-.073.046-.177-.005-.259.015s-.13.091-.207.1c-.2.014-.267-.085-.261-.294a2.594,2.594,0,0,1-.807.152c-.234.023-.385.2-.568.342a.772.772,0,0,0-.644-.11c-.351.087-.316.257-.341.581-.141-.084-.3-.223-.468-.1a.521.521,0,0,0-.146.431l.179-.06A1.274,1.274,0,0,1,1493.322,1144.223Z" transform="translate(-1383.604 -1062.676)" fill="#5751c8" stroke="#eaecff" stroke-linecap="round" stroke-linejoin="round" stroke-width="0.5"/><path d="M1574.217,1131.481c-.086-.13-.481-.1-.567.024a.979.979,0,0,0,.435.119Z" transform="translate(-1458.448 -1052.257)" fill="#5751c8" stroke="#eaecff" stroke-linecap="round" stroke-linejoin="round" stroke-width="0.5"/><path d="M1597.59,1453.353a.167.167,0,0,0-.227-.087c-.06.053-.047.137-.022.218A.309.309,0,0,0,1597.59,1453.353Z" transform="translate(-1480.384 -1350.533)" fill="#5751c8" stroke="#eaecff" stroke-linecap="round" stroke-linejoin="round" stroke-width="0.5"/><path d="M1513.444,1322.542c-.048.127.2.672.287.494.094-.2.376-.6.261-.83C1513.629,1322.178,1513.625,1322.228,1513.444,1322.542Z" transform="translate(-1402.647 -1229.083)" fill="#5751c8" stroke="#eaecff" stroke-linecap="round" stroke-linejoin="round" stroke-width="0.5"/><path d="M1495.652,1252.929v0h.055c.05-.106.157-.228.07-.336C1495.694,1252.678,1495.523,1252.814,1495.652,1252.929Z" transform="translate(-1386.12 -1164.573)" fill="#5751c8" stroke="#eaecff" stroke-linecap="round" stroke-linejoin="round" stroke-width="0.5"/><path d="M1505.09,1343.66c-.254.083-.463.376-.651.553a.357.357,0,0,0-.022.269c.187-.073.312-.34.431-.5C1504.945,1343.859,1505.194,1343.947,1505.09,1343.66Z" transform="translate(-1394.271 -1248.972)" fill="#5751c8" stroke="#eaecff" stroke-linecap="round" stroke-linejoin="round" stroke-width="0.5"/><path d="M3.118,368.734a14.81,14.81,0,0,0,.995-1.437c.112-.192,0-.555-.019-.753a2.335,2.335,0,0,0-.131-.867l-.021,0c-.124.009-.249.006-.375.017,0,.171.18.324.14.5l-.136-.059a.667.667,0,0,1-.951-.007c-.185-.16-.2-.188-.385-.038l-.49.392c-.14.112-.084.252-.3.311a.129.129,0,0,0-.07.049.734.734,0,0,0-.079.3c-.044.236-.089.472-.133.708-.025.136.149.242.031.357a.2.2,0,0,1-.143-.1l-.047,0,0,.035H1q.006.1.014.2h0c.008.1.018.193.03.287l0,.023c.006.052.013.1.02.155s.015.1.024.156.016.094.025.141c.619.2,1.127.332,1.172.218-.077-.151-.755-.338-.49-.581l.212.193.033-.241c.139.193.462.853.777.825a.219.219,0,0,0,.053-.011c.214-.075.446-.144.508-.4S3.327,368.789,3.118,368.734Z" transform="translate(-1.001 -342.627)" fill="#5751c8" stroke="#eaecff" stroke-linecap="round" stroke-linejoin="round" stroke-width="0.5"/><path d="M737.781,666.146c.073-.157-.067-.527-.154-.676a2.1,2.1,0,0,0-.459.391,1.925,1.925,0,0,1-.475.263,5.3,5.3,0,0,0-.928.6l-.146.123a1.925,1.925,0,0,0,1.193.292c.441-.084.916-.21.929-.735a1.144,1.144,0,0,1-.494-.012C737.307,666.233,737.7,666.31,737.781,666.146Z" transform="translate(-681.806 -620.462)" fill="#5751c8" stroke="#eaecff" stroke-linecap="round" stroke-linejoin="round" stroke-width="0.5"/><path d="M759.878,652.6l.077-.012a.451.451,0,0,0-.066-.28c-.161.04-.294-.075-.446-.059a.316.316,0,0,0,.022.292A.661.661,0,0,1,759.878,652.6Z" transform="translate(-703.86 -608.211)" fill="#5751c8" stroke="#eaecff" stroke-linecap="round" stroke-linejoin="round" stroke-width="0.5"/><path d="M516.148,748.558c-.15-.092-.341-.272-.523-.277l-.136.072C515.553,748.482,516.026,748.685,516.148,748.558Z" transform="translate(-477.801 -697.207)" fill="#5751c8" stroke="#eaecff" stroke-linecap="round" stroke-linejoin="round" stroke-width="0.5"/><path d="M758.292,643.57c-.215.042-.63.122-.662.4.1.225.376.127.556.19.049-.109-.062-.218-.022-.3S758.25,643.664,758.292,643.57Z" transform="translate(-702.204 -600.166)" fill="#5751c8" stroke="#eaecff" stroke-linecap="round" stroke-linejoin="round" stroke-width="0.5"/><path d="M36.91,435.114a2.608,2.608,0,0,0-.593.024c-.185,0-.223-.117-.307-.264-.122.016-.259.005-.344.106a.13.13,0,0,1-.077-.13c-.308.108-1.1.771-.755,1.16.108.122.405.573.568.568.193-.007.267-.039.4.093a.5.5,0,0,0,.362.138c.059-.145-.149-.261-.245-.356l.114-.111-.088-.084c.208-.251.657.276.782.4.139-.083.133-.141.117-.286-.009-.08.163-.193.22-.248C37.142,435.886,37.211,435.257,36.91,435.114Z" transform="translate(-32.275 -406.736)" fill="#5751c8" stroke="#eaecff" stroke-linecap="round" stroke-linejoin="round" stroke-width="0.5"/><path d="M1580.8,1482.738a.166.166,0,0,0,.029-.217c-.065.107-.144.12-.187,0h-.065C1580.531,1482.681,1580.642,1482.758,1580.8,1482.738Z" transform="translate(-1464.856 -1377.661)" fill="#5751c8" stroke="#eaecff" stroke-linecap="round" stroke-linejoin="round" stroke-width="0.5"/><path d="M771.027,648.64a1.146,1.146,0,0,0,.263-.406c.065-.289.354-.623.26-.934a1.941,1.941,0,0,1-.559.591c-.179.1-.154.5-.234.694C770.617,648.837,770.925,648.743,771.027,648.64Z" transform="translate(-714.337 -603.623)" fill="#5751c8" stroke="#eaecff" stroke-linecap="round" stroke-linejoin="round" stroke-width="0.5"/><path d="M1513.77,1348.661l.011.047c.138.018.168.141.234.253.062-.117,0-.222-.044-.336A.2.2,0,0,0,1513.77,1348.661Z" transform="translate(-1402.955 -1253.563)" fill="#5751c8" stroke="#eaecff" stroke-linecap="round" stroke-linejoin="round" stroke-width="0.5"/><path d="M1574.69,1458.789a.32.32,0,0,0,.38-.023c-.092-.087-.249-.048-.369-.048Z" transform="translate(-1459.412 -1355.593)" fill="#5751c8" stroke="#eaecff" stroke-linecap="round" stroke-linejoin="round" stroke-width="0.5"/><path d="M1568.98,1462.92c-.177.218.131.933.212,1.179a3.392,3.392,0,0,0,.56,1.37l.088-.023c0-.125-.093-.2-.168-.289.139-.148.2-.464-.037-.541l-.011.3c-.1-.209-.144-.43-.235-.631-.115-.254-.2-.44.092-.55a1.162,1.162,0,0,0,.066.581h.1c.122-.249-.143-.386.157-.573a.478.478,0,0,1-.066-.328h-.066l-.114.205c-.459-.024-.476-.3-.581-.7Z" transform="translate(-1454.07 -1359.496)" fill="#5751c8" stroke="#eaecff" stroke-linecap="round" stroke-linejoin="round" stroke-width="0.5"/><path d="M783.419,648.71l-.055-.071c-.141.055-.169.185-.223.312a.192.192,0,0,0,.011.193A1.053,1.053,0,0,0,783.419,648.71Z" transform="translate(-725.827 -604.864)" fill="#5751c8" stroke="#eaecff" stroke-linecap="round" stroke-linejoin="round" stroke-width="0.5"/><path d="M54.447,456.585l.044-.086c-.1-.081-.242-.139-.366-.229C54.115,456.454,54.314,456.507,54.447,456.585Z" transform="translate(-50.233 -426.586)" fill="#5751c8" stroke="#eaecff" stroke-linecap="round" stroke-linejoin="round" stroke-width="0.5"/><path d="M1035.463,493.354l-.491-.527h-.948s-.842.667-.386,1.229S1035.463,493.354,1035.463,493.354Z" transform="translate(-957.868 -460.466)" fill="#5751c8" stroke="#eaecff" stroke-linecap="round" stroke-linejoin="round" stroke-width="0.5"/><path d="M1005.912,221.617l.878.913,1.194.421.316-.281-1.018-1.193s-.632-.632-1.193-.421S1005.912,221.617,1005.912,221.617Z" transform="translate(-932.179 -208.562)" fill="#5751c8" stroke="#eaecff" stroke-linecap="round" stroke-linejoin="round" stroke-width="0.5"/></g></g></svg>