<svg xmlns="http://www.w3.org/2000/svg" width="101.593" height="125.525" viewBox="0 0 101.593 125.525"><g transform="translate(51.872 91.965)"><path d="M78.772,75.3c.421-.375.828-.769,1.242-1.15a9.43,9.43,0,0,1,2.235-1.676,2.037,2.037,0,0,1,1.039-.21,11.53,11.53,0,0,0,1.347-.033,2.682,2.682,0,0,1,.467.039,2.7,2.7,0,0,0,.565-.046,1.775,1.775,0,0,1,.3-.684.732.732,0,0,0,.184-.631,7.43,7.43,0,0,0-.513-1.413,5.512,5.512,0,0,1-.105-1.742,10.4,10.4,0,0,0-.112-1.7,9.9,9.9,0,0,0-.151-1.459c-.223-.73-.381-1.466-.664-2.182-.309-.776-.69-1.518-1.012-2.287a18.767,18.767,0,0,0-1.762-3.569c-.993-1.4-2.583-2.347-2.682-4.22a10.085,10.085,0,0,0-.138-1.992,1.629,1.629,0,0,0-.394-.723,2.717,2.717,0,0,0-.848-.506c-.3-.164-.618-.749-1.006-.348-.158.158-.164.21-.394.283a1.7,1.7,0,0,0-.486.217c-.21.158-.118.184,0,.368a1.229,1.229,0,0,1,.171.486c.066.414-.23.67-.572.861a4.129,4.129,0,0,1-.67.309c-.243.085-.408.013-.5.289-.072.2-.112.421-.191.618-.1.25-.191.493-.289.743a6.855,6.855,0,0,0-.67,2.964c.125,1.525.841,2.833.578,4.41-.23,1.4-1.617,2.353-1.361,3.793.473,2.642-1.9,4.956.447,6.967.822.7,1.282,1.9,2.13,2.491C76.163,74.4,77.517,74.271,78.772,75.3Z" transform="translate(-42.29 -48.089)" fill="#5751c8" stroke="#eaecff" stroke-width="0.5"/><path d="M67.236,72.745c-1.328-.92-3.858-3.806-3.122-5.449a6.59,6.59,0,0,0,.546-4.009c-.256-1.439,1.131-2.393,1.361-3.793.256-1.577-.46-2.892-.578-4.41-.112-1.413.631-2.649,1.032-3.95a2.62,2.62,0,0,0,.138-.493c.013-.2.007-.158-.138-.289-.223-.2-.388-.44-.592-.664a10.506,10.506,0,0,1-.808-.815c-.237-.335.092-.506.066-.848-.026-.316-.467-.67-.7-.861-.355-.289-.552,0-.94-.053s-.434-.552-.716-.762c-.072-.053-.283-.21-.355-.1-.046.072.085.25.059.348-.079.269-.578.348-.808.394a3.342,3.342,0,0,1-1.078.151c-.381-.046-.808-.125-1.078.21a7.264,7.264,0,0,1-1.058,1.1c-1.367,1.131-3.779.217-5.383.289-1.755.079-2.13,1.439-1.965,2.958.151,1.433-.638,3.865-1.781,1.393-1.2,4.831,4.851,4.055,6.218,7.349,1.61-.105,2.984,2.669,4.726,3.01-.026.2-.013.651-.013.874-2.886.979-2.2,6.954-2.537,9.255-.256,1.762-1.972,7.927,1.788,6.869.072-2.176,1.5-2.445,3.359-2.222a12.97,12.97,0,0,0-.145-2.557c2.235,1.334,6.494.414,8.3-1.209-1.255-1.019-2.609-.894-3.793-1.716" transform="translate(-34.546 -47.26)" fill="#5751c8" stroke="#eaecff" stroke-width="0.5"/><path d="M44.323,59.074a4.837,4.837,0,0,1-1.439-4.266c-1.748-3.773-1.7.191-3.924-.269-1.012-.21-1.762-1.15-2.583-1.709-1.453-.986-3.74-.854-5.416-1.019a2.632,2.632,0,0,1-.033-.6,4.872,4.872,0,0,1-.618-.013c.749,1.67,2.445,2.379,2.235,4.318-.269,2.452-1.6,4.463.02,6.744a9.382,9.382,0,0,1,6.369,3.72c1.361,2.051,1.84,2.846,4.555,2.741.506-.986-.145-2.728.782-3.5.868-.716,2.918.039,3.937,0,.053-.933.118-1.926.184-2.853a1.468,1.468,0,0,1,.7-.237c-1.2-2.853-2.826-1.67-4.772-3.063" transform="translate(-28.079 -48.97)" fill="#5751c8" stroke="#eaecff" stroke-width="0.5"/><path d="M24.8,55.4c.23-2.491-1.216-2.826-2.162-4.949a8.949,8.949,0,0,0-4.64.48c-1.663.71-1.61-.677-2.609-1.38-1.1-.782-2.747.079-3.806.4-1.571.467-2.162-1.38-3.668-.854.026,3.747,2.11,3.168,4.332,5.41,2.616,2.642,5.317,6.455,2.616,9.84-1.38,1.722-2.5,7.125-.079,8.591a4.06,4.06,0,0,0,2.688.362c1.229-.1,2.255.684,3.346.565.138-1.821-.894-3.6-.631-5.423.3-2.038,4.134-.986,5.429-1.039-.414-1.229-1.1-2.4-.8-3.865a5.3,5.3,0,0,0,.933-.631c-1.091.151-2.031-.21-1.867-1.374a3.52,3.52,0,0,1,1.019,0c-1.584-2.235-.316-3.793-.105-6.133" transform="translate(-20.402 -48.218)" fill="#5751c8" stroke="#eaecff" stroke-width="0.5"/><path d="M4.819,37.794c2.176,1.439,4.7-1.86,6.356.979.6,1.032,1.867.375,2.636.013,1.38-.651,3.05-.059,4.509-.112.026-.493.519-4.68.631-4.706.6-.171,3.694,4.463,2.419-.039-.316-1.117-.96-2.353-.177-3.451.5-.7,1.249-.381,1.045-1.505-.184-1.032,1.052-1.025,1.722-1.117A3.619,3.619,0,0,0,21.8,25.463c-.953-.48.2-2.379.072-3.168-2.4-.217-5.14.217-4.325-3.332-.835-1.932-1.446-3.162-3.569-3.484C12.115,15.2,9.9,13.4,9.453,16c-1.617.046-3.01-.473-4.1,1.071C4.326,18.5,3.695,19.751,1.684,19.581c-.131-.013-1.893-2.333-2.432-2.557-1.794-.736-3.845-.486-5.732-.743.21.25,1.952,1.19,2.044.578-.644,4.213-1.847,10.05.532,13.9,1.1,1.775,1.163,3.214,1.86,5.041.749,1.959,3.451,1.2,5.015,1.341V37.3c1.032-.355,1.012-.059,1.847.493" transform="translate(-15.471 -36.431)" fill="#5751c8" stroke="#eaecff" stroke-width="0.5"/><path d="M-2.551,6.967c1.788.736,2.485,4,4.7,1.952.8-.743,1.15-1.86,1.985-2.577.979-.835,2.36-.368,3.51-.408.355-2.057,1.716-1.387,3.451-.8,2.675.907,3.392.861,4.647,3.766.309-1.347.592-3.28,2.34-3.332.138-1.643.592-3.49.131-4.739-.46-.046-1.367-2.511-2.018-3.056-1.426-1.2-.191-3.536-.25-5.068A5.257,5.257,0,0,0,13.7-7.23C13.27-8.1,12.33-8.289,11.6-8.788c-1.282-.874-.237-.611-.657-1.453-.749-1.479-2.07-2.826-2.406-4.489-1.781.2-2.432,1.978-4.384,1.886-2.938-.145-2.373,2.373-2.537,4.47-1.2.223-1.952-.953-3.05-.756-1.387.25-1.67,1.308-3.3,1.1-1.6-.21-3.234-.4-4.575.736-1.42,1.2-1.058,3.181-2.432,4.4a2.743,2.743,0,0,1,.394.066c.013.355.191.756.191,1.124,4.851.1,1.078,5.784,2.872,7.94,1.886.25,3.937,0,5.732.736" transform="translate(-13.668 -26.375)" fill="#5751c8" stroke="#eaecff" stroke-width="0.5"/><path d="M-12.1-8.638c1.19-3.293,2.353-4.5,6.087-4,1.624.21,1.906-.841,3.3-1.091,1.1-.2,1.847.973,3.05.749.112-1.413-.506-4.351,1.7-4.489.9-.059,1.762.191,2.6-.3.946-.552,1.446-1.426,2.629-1.564-.375-1.873-.6-5.147.408-6.842-1.354-2.6-6.823-2.741-6.5.046a11.5,11.5,0,0,1-5.2-.979c-2.281-1.006-2.813-.572-4.167,1.42a15.667,15.667,0,0,1-3.089,3.326c-1.242,1.078.269,4.161-1.952,4.154,1.091,3.083-1.7,1.584-2.169,3.569-.171.716.007,5.048.8,5.114a11.092,11.092,0,0,1-.059,2.34,3.36,3.36,0,0,1,1.656-.3c.375-.348.631-.348.92-1.144" transform="translate(-12.389 -21.767)" fill="#5751c8" stroke="#eaecff" stroke-width="0.5"/><path d="M-27.005-13.933c-.789-.066-.966-4.4-.8-5.114.48-1.978,3.26-.486,2.169-3.569-.329,0-.7-.053-1.1-.092a4.863,4.863,0,0,0-.565-2.452c-.309-.486-2.084-1.762-2.064-2.222.1-1.808,2.327-2.715,2.439-4.555A5.5,5.5,0,0,0-27.1-33.8c-.808-.861-1.012.828-1.216,1.032-2.419,2.366-1.538-3.97-1.558-4.45-2-1.906-1.972,3.451-4.161-.243-1.86-3.142-5.83-3.556-9.235-3.4-.3.651-.789.887-1.085,1.564C-46.8-38-49.162-40.763-51.621-41c-.02,1.42.191,3.543,1.814,4.049,1.591.5,2.314.624,1.663,2.623-2.609.007-2.07,2.715-2,4.568.933.059,1.932.118,2.866.171a7.818,7.818,0,0,1-.808,4.6c-.861,1.6.026,3.753-.112,5.482-1.052.053-2.149-.033-3.2.013-.191,1.38,1.321,1.9,2.478,2.038-.039.657.427,1.117.315,1.814a11.11,11.11,0,0,1,6.238.243c.3-3.424,4.371-.611,6.271.263-.085.782.138,1.742.039,2.531.44-.059,1.111.217,1.538.145.762,3.227,5.758,1.558,7.447.854a10.547,10.547,0,0,0,.066-2.327" transform="translate(0 -17.372)" fill="#5751c8" stroke="#eaecff" stroke-width="0.5"/><path d="M18.96-20.925c-.066,2.432.736,3.839,2.011,5.856.388.611.191,1.15.473,1.591.677,1.071,2.189,1.065,2.761,2.228a5.257,5.257,0,0,1,2.248-.066c.059,1.433-.782,3.01-.263,4.417.315.861,1.42,1.025,1.788,1.847.256.572-.243,1.755.743,1.86.467,1.255.007,3.1-.131,4.739,1.781-.053,4.207-.618,5.942-.191.539-1.236-.2-3.937,1.3-4.22,1.321-.25,2.4-.125,3.319-1.282-.993-2.675.638-4.207,3.208-4.213.171-1.045-.348-2.971.8-3.661-1.584-.151-6.277-3.753-6.119.434a18.685,18.685,0,0,1-2.425-.066c-.085-1.4,1.827-2.182,1.768-3.944-2.038-.736-6.862-.4-7.73-2.452-.355-.848-1.906-2.189-1.9-3,.007-1.525.072-3.03-.059-4.548-.046.026-.079.053-.131.079-.138-.434-.467-.585-.67-.927a11.97,11.97,0,0,0-.388,1.223c-.6.408-.394,1.854-1.551,1.413a15.062,15.062,0,0,0-4.194-.736,2.576,2.576,0,0,0-.3-1.045c-.907,1.492-.46,3.024-.5,4.66" transform="translate(-24.163 -22.362)" fill="#5751c8" stroke="#eaecff" stroke-width="0.5"/><path d="M30.8-29.138a11.024,11.024,0,0,0,2.294,4.364c1.564,1.17,5.39.881,7.329,1.584-.046-1.282,1.689-2.636,2.6-3.378.946-.776,2.439-.164,3.135-1.15,1.361-1.946-.769-6.54,1.676-7.763-2.09-2.9-7.053,1.117-7.072-3.089-.007-1.492-2.452-1.255-.993-3.444,1.012-1.525,2.682-1.137,3.648-2.268-.94-.7-.71-2.287-1.1-3.267-.375-.947-2.024-1.716-2.2-.269-.394,3.227-2.984,1.157-5.278.223-.427,1.039-.21,2.5-.454,3.615-.263,1.2-.854,2.287-1.071,3.5-.184,1.012-.48,3.911,1.3,3.72-.066.664-.631,1.1-.881,1.742-.657.2-1.538-.118-2.136.289-.572.394-.283,1.177-.861,1.538.125,1.361-.046,2.708.066,4.055" transform="translate(-28.223 -14.76)" fill="#5751c8" stroke="#eaecff" stroke-width="0.5"/><path d="M45.178-43.122c-.756.7-2.1,2.2-1.361,3.306a5.28,5.28,0,0,0,1.091,1.006c.578.48.2,1.347.565,1.985,1.052,1.854,4.9-1.163,6.764,1.426,1.9-.947,4.45.394,6.3-.46,2.517-1.163,4.062-2.439,7.1-1.177.053-.033.105-.059.164-.092.072-1.361-.388-1.873-1.288-2.813-1.025-1.065-.3-3.7-.243-5.022a16.291,16.291,0,0,1-4.568-1.1c-1.039-.486-.46-2.465-2.038-2.327-.835.072-1.085,1.157-1.794,1.531-1.032.546-3.037.408-4.167.388-.223.7-3.24,2.754-3.891,2.281-.638.736-1.9.394-2.636,1.071" transform="translate(-32.634 -14.836)" fill="#5751c8" stroke="#eaecff" stroke-width="0.5"/><path d="M59.676-53.693c1.117-1.032,1.867-1.637,2.642.269.69,1.7,3.536,1.886,5.173,2.084.072-1.788.355-3.694,2.136-4.055,1.7-2.34-.118-4.128.887-6.514,1.111-.578,1.039-2.182,1.873-2.951,0-.421.007-.841.026-1.262-1.466.276-2.734-1.157-4.279-.815-1.748.381-2.169,2.583-4.095,2.774,0,1.794-.131,4.1-.828,3.99-.552-.986-.532-2.255-1.788-2.682-.664-.223-1.834-.362-1.8-1.321-.881-.079-1.781-.21-2.268.44-.309,1.032-.381,1.709.887,1.834.033,1-.283,1.939-.237,2.9a6.433,6.433,0,0,0-2.938.769c-.8.513-.848,1.663-2.031,1.459a1.256,1.256,0,0,0-.013.6c1.893.191,2.517,1.367,1.906,3.3,1.4.039,3.648.2,4.746-.822" transform="translate(-35.853 -8.465)" fill="#5751c8" stroke="#eaecff" stroke-width="0.5"/><path d="M71.7-75.4c1.617-.355,3.155,1.025,4.279.815.046-1.255.506-3.49-.105-4.673-.644-1.255-2.892-2.255-3.924-3.286a61.887,61.887,0,0,1-4.575-5.074c-1.255-1.564-1.446-3.648-3.694-4.069-.716.993.118,1.972.677,2.8,1.295,1.919,1.538,5.495-.48,7.053.309.427.23.914.493,1.354.585.966,1.768,1.413,2.642,2.077,1.341,1.012.592,4.292.585,5.784,1.932-.2,2.353-2.393,4.1-2.78" transform="translate(-39.422)" fill="#5751c8" stroke="#eaecff" stroke-width="0.5"/><path d="M77.993-60.8c-1,2.379.808,4.167-.887,6.514-2.734.552-1.972,4.5-2.248,6.422-.368,2.537,1.781,3.221,1.63,5.626a5.178,5.178,0,0,1,2.557,2.57,1.949,1.949,0,0,1,2.169-1.249c.335-.96,1.17-1.025,1.321-2.143.21-1.545,1.847-1.216,2.951-1.262.506-5.672,7.217-7.9,7.309-14.092C91.31-57.341,90.1-56.2,90.054-59.28c-1.643-.072-3.707.2-4.792-1.288-1.38-1.893-3.122-2.445-5.4-2.55-.007-.21-.007-.421-.007-.631-.828.769-.756,2.379-1.867,2.951" transform="translate(-43.331 -9.575)" fill="#5751c8" stroke="#eaecff" stroke-width="0.5"/><path d="M65.508-31.34a7.468,7.468,0,0,0-4.279-.5c-1.492.263-2.491,1.808-3.937,1.748-3.365-.145-6.369-.539-6.474,3.51a13.828,13.828,0,0,1-.276,4.036c-.546,1.63-2.274.776-3.4,1.7-.907.743-2.642,2.1-2.6,3.378.066,1.762-1.847,2.544-1.768,3.944a19.893,19.893,0,0,0,2.425.066c-.151-4.18,4.535-.585,6.119-.434.565-.342,1.17.513,2.123.815,1.676-3,6.862-.434,9.334.283.473-1.932.631-4.029,1.282-5.889.2-.02.388-.033.592-.053.874-1.472,1-2.78,2.2-4.121,1.538-1.709.48-3.944,1.2-5.9a5.1,5.1,0,0,0-2.55-2.577" transform="translate(-32.351 -20.472)" fill="#5751c8" stroke="#eaecff" stroke-width="0.5"/><path d="M55.673-4c-.5-.158-1.525-1.17-2.123-.815-1.144.69-.624,2.616-.8,3.661-2.563.013-4.2,1.538-3.208,4.213C52.163-.044,55.154,4.8,57.3,5.891c2.517,1.288,6.8.736,8.808,2.872C65.618,4.162,63.869.935,65-3.725,62.535-4.435,57.349-7,55.673-4" transform="translate(-34.571 -29.565)" fill="#5751c8" stroke="#eaecff" stroke-width="0.5"/><path d="M60.762,11.489a4.508,4.508,0,0,1-2.281-.789c-1.124-.664-2.36-.329-3.438-.881-1.932-.993-3.056-3.286-5.344-3.766-1.946-.408-2.445,1.762-4.134,2-3.517.506-1.63,1.545-2.886,4.424,1.269.315,1.163,2.215,2.925,1.177,1.913-1.124,3.056-.552,4.64.881.046,1.2-.02,2.386.125,3.563,2.971.4,2.846,3.806,3.8,5.85,1.078-1.282,1.722-.6,3.484-.158a1.633,1.633,0,0,1,.618.2c.177.131.256.322.48.4.237-.447.217-.96.868-.92.269.02.519-.059.789-.046s.44.145.631-.105c.177-.23.237-.454.506-.6a3.863,3.863,0,0,1,.513-.217,3.163,3.163,0,0,1,.329-.171c.191-.046.368.151.552.223a2.074,2.074,0,0,1,.572.3,2.543,2.543,0,0,0,.644.454.762.762,0,0,0,.677-.368c.112-.25-.2-.749-.289-.986a9.137,9.137,0,0,1-.631-2.274c-.21-2.34.2-4.673-.046-7.007-.96-1.006-1.439-1.157-3.1-1.2" transform="translate(-32.318 -33.48)" fill="#5751c8" stroke="#eaecff" stroke-width="0.5"/><path d="M41.3,27.754c1.6-.592,1.531-2.182,3.484-.92,1.453.94,3.5,2.182,4.963.447-.946-2.051-.828-5.449-3.8-5.85-.138-1.177-.072-2.36-.125-3.563a5.955,5.955,0,0,0-2.307-1.545c-1.347-.362-1.88.756-3.07.96-1.334.223-1.183-1.223-2.189-1.479a11.527,11.527,0,0,0-3.674.184c-3.221.309-3.917.3-4.686,3.661-.762,3.346,2.333,2.826,4.4,3.01.105.7-.868,2.432-.335,3.01.841.92,2.189,1.085,2.419,2.55,1.545-.2,3.438.079,4.917-.467" transform="translate(-27.897 -36.803)" fill="#5751c8" stroke="#eaecff" stroke-width="0.5"/><path d="M50.937,32.309a1.38,1.38,0,0,0-.421.263,4.164,4.164,0,0,1-1.019.9,3.436,3.436,0,0,1-2.7-.223,9.553,9.553,0,0,1-1.505-.822c-2.09-1.347-2.9,1.058-5.041,1.163-1.032.053-5.37-.263-5.081,1.341.25,1.367-1.821,1.86-1.229,3.773.138.454,1.275,3.326.125,3.267-.92-.046-1.328-2.281-2.182-2.038a32.077,32.077,0,0,0-.6,5.3c2.07.2,4.345.118,6.041,1.485,1.2.973,2.366,1.88,3.523.355,1.137-1.5,1.821-.013,2.36,1.15,1.144,2.471,1.932.039,1.781-1.393-.552-5.173,5.022-1.328,7.349-3.247A3.075,3.075,0,0,0,52.955,43a8.024,8.024,0,0,1,.447-.71c-.217.125-.355-.007-.394-.217a.767.767,0,0,0-.276-.559c-.158-.164-.223-.368-.375-.532-.184-.2-.348-.289-.322-.6a1.815,1.815,0,0,1,.191-.578c.105-.2.171-.151.348-.25.329-.191.309-.631.506-.907.25-.355.67-.158,1.025-.25.243-.059.375-.131.283-.388-.105-.276-.151-.243.033-.48.125-.164.164-.25.355-.335.21-.092.3-.118.3-.375a4.019,4.019,0,0,0-.118-.559,4.246,4.246,0,0,1,0-.578,1.641,1.641,0,0,0-.053-.644,1.435,1.435,0,0,1-.164-.638c.007-.368.237-.782-.007-1.124a2.145,2.145,0,0,0-.966-.585c-.184-.079-.3-.02-.486-.066s-.309-.223-.473-.3a3.188,3.188,0,0,0-.835-.164A2,2,0,0,0,50.937,32.309Z" transform="translate(-28.409 -42.396)" fill="#5751c8" stroke="#eaecff" stroke-width="0.5"/></g></svg>