<svg xmlns="http://www.w3.org/2000/svg" width="114.737" height="120.835" viewBox="0 0 114.737 120.835"><g transform="translate(-1561.172 -38.302)"><g transform="translate(1561.551 38.558)"><path d="M700.832,378.717a6.607,6.607,0,0,0-.242,1.507,2.686,2.686,0,0,1-.273.744,4.762,4.762,0,0,0-.136.833c-.162.59-.736.388-.838.943-.112.6-.375,1.208-.058,1.7.242.38.724.711.735,1.239a1.633,1.633,0,0,0,.077.747c.111.2.413.227.534.377.346.429.312,1.02.734,1.422.375.357.81-.185,1.22-.033.178.454.049.977.244,1.412.2.451.695.49,1.044.728.894.608-.524,1.555-.911,1.952a11.215,11.215,0,0,1-1.088,1.116c-.407.31-.763.3-1.147.651-.323.3-.724.375-.813.932a2.258,2.258,0,0,0,.422,1.337c.445,0,.618-.258,1,.09a4.193,4.193,0,0,1,1.054,1.116,1.057,1.057,0,0,1-.1,1.223,9.46,9.46,0,0,0-.708,1.6,1.772,1.772,0,0,0-.109,1.418c.22.426.122,1,.293,1.48.089.246.646.806.884.791a1.681,1.681,0,0,1,.653,0,1.524,1.524,0,0,0,.773.183c.187-.49.31-.574.773-.588.314-.01.514.738.634.991m0,0a5.99,5.99,0,0,1,.218,1.455,3.818,3.818,0,0,0,.449,1.057,18.936,18.936,0,0,1,1.059,2.548c.129.405.3.79.461,1.181.2.5-.265.815-.544.984l.214.565c-.968.512-2.57-.061-3.536-.522-.179-.085-.682-.2-.785-.391q-.308-.56-.614-1.121a9.89,9.89,0,0,1-.373-2.006,5.977,5.977,0,0,0-1.961.168,4.874,4.874,0,0,1-1.9.284c-.527-.025-1.483.126-1.815-.429a2.218,2.218,0,0,0-.815-.918c-.415-.271-.492-.072-.949.035-.405.094-.5-.016-.79.34a8.459,8.459,0,0,1-.834.907c-.482.447-1.307-.035-1.721-.446a8.009,8.009,0,0,1-1.381-1.792.889.889,0,0,0-.9-.153,1.26,1.26,0,0,1-.969.235,9.667,9.667,0,0,0-.462-1.03c-.2-.376-.482-.391-.841-.523l-.555.642a2.234,2.234,0,0,1-.5-1.093,1.439,1.439,0,0,0-.592-1.082,4.65,4.65,0,0,0-2.318-.779c-.748-.162-1.274-1.18-1.728-1.823a2.845,2.845,0,0,0-1.921-1.179,4.593,4.593,0,0,0-2.292.206,5.306,5.306,0,0,1-2.164-.125,3.493,3.493,0,0,1-2.25-1.026,11.683,11.683,0,0,1-1.418-2.089,23.551,23.551,0,0,0-2.019-3.052,13.579,13.579,0,0,0-1.169-1.412c-.514-.471-.91-.676-1.062-1.414-.083-.4-.164-.8-.247-1.2-.056-.273.108-.449.133-.716.025-.248-.1-.517-.054-.764.064-.349.135-.692.21-1.038a2.969,2.969,0,0,1,.867-1.536c.326-.325,1.1-.357,1.524-.473l.459.672c.642-.7,1-1.089,1.925-1.031.8.051,1.6.121,2.4.18.781.057,1.576-.141,2.344-.064.4.041.832.218,1.162-.068a2.381,2.381,0,0,0,.74-1.241c.216-.582.436-2.029.935-2.253a10.078,10.078,0,0,1,1.157-.449,1.865,1.865,0,0,0,1.075-.824c.21-.257.321-.614.572-.812.269-.211.744-.78,1.074-.766.4.016.79.031,1.184.064.415.035.677-.457.973-.778,1.1-1.189,2.117,0,3.277.1.7.061,1.01-.659,1.3-1.319.258-.58-.13-1.31-.244-1.942a4.735,4.735,0,0,1-.156-2.092,1.419,1.419,0,0,1,.528-.807c.305-.3.389.022.735-.058a7.574,7.574,0,0,0,1.829-.586,4.17,4.17,0,0,1,1.786-.389,16.825,16.825,0,0,1-2.2-2.444c-.394-.391-1.047-.828-1.255-1.42a1.952,1.952,0,0,1,.507-1.716c.555.674,1.381.677,2.117,1.009A3.086,3.086,0,0,1,695,367.875c.241.625.632,1.6,1.346,1.452a1.656,1.656,0,0,1,2.016.828,3.622,3.622,0,0,1,.48,2.554c-.07,1.056.823,1.362,1.473,1.713.119.064.1.357.2.451s.469.091.6.119a.932.932,0,0,1,.8.753c.234.859-.447,1.849-.834,2.523-.084.148-.171.3-.256.449" transform="translate(-593.617 -323.406)" fill="#5751c8"/><path d="M169.41,499.341c.133-.21.455-.956.665-1a4.153,4.153,0,0,1,1.323-.114,11.646,11.646,0,0,1,2.163.582,14.824,14.824,0,0,1,4.53,1.824,22.236,22.236,0,0,1,2.177,1.672c.607.529,1.085,1.252,1.692,1.787a8.691,8.691,0,0,1,1.549,1.836,3.123,3.123,0,0,1,.654,2.494c-.205,1.3.718,2.66,1.341,3.649a31.433,31.433,0,0,0,2.488,3.3c-.407.488-.669,1.14-1.084,1.585a6.113,6.113,0,0,0-1.282,1.685,18.712,18.712,0,0,1,.209-1.953,4.354,4.354,0,0,0-1.65-.88,11.665,11.665,0,0,0-1.26,3.47,11.1,11.1,0,0,1-1.481,2.986c-.261-.252-.5-.623-.846-.639a7.138,7.138,0,0,1-1.326-.147c-.7-.162-1.723-.056-2.245-.752-.2-.261-.511-.661-.265-1.046a4.629,4.629,0,0,0,.649-1.389,3.268,3.268,0,0,0-.56-2.328,9.413,9.413,0,0,1-1.26-2.075,5.847,5.847,0,0,1-.513-1.211,7.173,7.173,0,0,0-.351-1.436,10.555,10.555,0,0,0-1.441-2.288c-.265-.355-.491-.723-.723-1.109-.179-.3-.061-.849-.177-1.2a5.882,5.882,0,0,0-.812-1.863,4.123,4.123,0,0,1-.89-1.9,7.978,7.978,0,0,0-.6-1.71,3.905,3.905,0,0,1-.676-1.836" transform="translate(-158.011 -440.099)" fill="#5751c8"/><path d="M367.169,439.41a3.6,3.6,0,0,0,1.5-2.083c.261-.853-.185-1.665-.2-2.559a5.625,5.625,0,0,1,.435-2.623,2.375,2.375,0,0,1,2.27-.621,1.4,1.4,0,0,0,1.014-.109c.229-.138.813-.664,1.035-.617a24.473,24.473,0,0,1,2.4.917c.433.145,1.9.016,2.1.409a9.685,9.685,0,0,1,1.037,2.586,6.681,6.681,0,0,0,.768,2.423,5.849,5.849,0,0,0,1.771,1.891,7.573,7.573,0,0,0,2.239,1.026,5.539,5.539,0,0,1,2.157,1.436c.29.3.6.559.909.831a4.65,4.65,0,0,1,.707,1.112,17.678,17.678,0,0,1,1.185,2.482,25.424,25.424,0,0,1,.967,2.513c.252.936.522,1.864.749,2.808a22.623,22.623,0,0,0,.79,2.507,18.212,18.212,0,0,1,.447,2.429,20.746,20.746,0,0,1,.763,5.385l-.326-.892c-.907.525-2.168.655-2.719,1.794-.277.575-.553,1.141-.86,1.695-.337.607-.706.466-1.224.794a6.874,6.874,0,0,1-3.291.923,8.252,8.252,0,0,1-1.466-.21,15.934,15.934,0,0,0-1.768-.078c-.235-.747-.278-.748-.921-1-.382-.15-.789-.213-1.168-.37a2.524,2.524,0,0,1-1.111-.67,10.7,10.7,0,0,0-.7-1.278c-.527-.6-1.281-1.664-2.073-1.664-.375,0-1.035-.129-1.138-.619a14.883,14.883,0,0,1,.007-1.592c-.773-.383-1.459-.36-1.617-1.451-.132-.915-.373-1.795-.571-2.694-.193-.873-.506-1.727-.716-2.6-.089-.37-.3-.742-.392-1.143a5.639,5.639,0,0,1-.193-1.376,6.749,6.749,0,0,0-.153-2.522,15.9,15.9,0,0,0-1.433-2.518,8.561,8.561,0,0,1-1.288-2.062,4.838,4.838,0,0,1,.078-2.612" transform="translate(-331.119 -381.017)" fill="#5751c8"/><path d="M454.976,317.1a11.148,11.148,0,0,1,2.434-.1,5.744,5.744,0,0,1,2.225.922,7.975,7.975,0,0,1,1.938,1.192,15.306,15.306,0,0,1,1.854,2.052c.5.708.86,1.54,1.361,2.258.383.55,1.138,1.622,1.842,1.289.607-.287,1-1.614,1.839-1.063a19.266,19.266,0,0,0,2.339,1.368,12.705,12.705,0,0,1,3.115,2.341c1,.941,2,1.879,2.962,2.857,1.015,1.027.853,2.785.928,4.246.031.608-.007,1.527.656,1.693a2.674,2.674,0,0,0,1.9.073,3.554,3.554,0,0,1,.167,1.867,10.278,10.278,0,0,0-.377,1.63c.023,1.3.085,2.6.141,3.9l-.459-.672c-.75.208-1.639.224-2.046,1.114a5.124,5.124,0,0,0-.5,2.7l-.341-.434c-.686.272-1.528.431-1.823,1.36a8.428,8.428,0,0,0-.077,2.873,15.984,15.984,0,0,1-.061,2.722,13.313,13.313,0,0,1-.4,1.435,3.377,3.377,0,0,1-.682.984,14.236,14.236,0,0,0-1.377,2.381,11.671,11.671,0,0,1-1.574,2.141c-.153.193-.684.168-.932.323a9.467,9.467,0,0,1-1.256.654,2.434,2.434,0,0,1-1,.282c-.379-.032-.722-.312-1.121-.339-.524-.036-.836.311-1.282.634a25.954,25.954,0,0,0-.769-5.415,13.9,13.9,0,0,0-.543-2.674,24.108,24.108,0,0,1-.8-2.692,41.926,41.926,0,0,0-1.766-5.279,14.4,14.4,0,0,0-1.141-2.256,11.1,11.1,0,0,0-1.825-2.083c-1.014-1.031-2.318-1.117-3.5-1.716a6.222,6.222,0,0,1-2.689-3,8.481,8.481,0,0,1-.508-2.208,9.7,9.7,0,0,0-.859-1.926c-.157-.356-.08-.666-.205-1-.085-.226-.381-.816-.31-1.036a2.138,2.138,0,0,1,.567-1.056c.155-.156.7.384.871.464a1.476,1.476,0,0,0,.2-1.508c-.225-.671-.3-.726-.02-1.405a11.4,11.4,0,0,0,1.033-3.292,25.713,25.713,0,0,1,.548-3.8,11.479,11.479,0,0,1,.431-1.506c.122-.344.243-.687.366-1.03.1-.287.255-.227.514-.272" transform="translate(-404.313 -281.265)" fill="#5751c8"/><path d="M302.7,599.223c.021-.341.028-.99.278-1.231.382-.371.795,0,1.141.2.713.414,1.564.518,2.314.864.251.116.619.538.862.444.6-.23.774-.161.917-.871.093-.461.124-.936.174-1.405a6.141,6.141,0,0,1,.362-1.221,3.444,3.444,0,0,1,1.613-1.99,1.17,1.17,0,0,1,1.828.549c.456,1.891,1.048,3.7,1.331,5.647.1.663,1.115.8,1.554,1.02.054.51-.266,1.337.032,1.778.361.533,1.017.329,1.471.543a4.919,4.919,0,0,1,2.172,2.48c-.455-.38-1.713,1.527-1.986,1.931a2.577,2.577,0,0,1-2.375,1.033c-.494-.089-.985-.164-1.482-.226-.415-.052-.768.377-1.141.569a9.853,9.853,0,0,1-1.38.581,2.171,2.171,0,0,1-1.283-.15l-.7.911c-.121-.569-.129-.98-.653-1.181a2.275,2.275,0,0,1-1.13-.779c-.372-.441-.638-.92-.979-1.389-.408-.562-.666-.294-1.208-.477-.51-.173-1.02-.192-1.522-.389-.45-.178-.768-.794-1.022-1.236-.244-.424-.76-.609-.958-1.074a7.044,7.044,0,0,0-.593-1.634,5.715,5.715,0,0,1,1.192-1.6c.455-.491.733-1.162,1.169-1.695" transform="translate(-272.756 -523.856)" fill="#5751c8"/><path d="M370.164,692.471a3.258,3.258,0,0,0,2.025,1.231c.367.111.723.257,1.083.4.229.089.375.909.48,1.193.278.752-.244,1.815.574,2.3.7.418,1.649.062,2.42,0,.318-.027.727-.218,1.016-.056.517.29.6.507.881,1.1.247.515-.156,2.1-.229,2.666a5.8,5.8,0,0,0,.141,2.677,3.393,3.393,0,0,0,1.857,1.666,8.959,8.959,0,0,0,1.206.3c.4.067.6.461.884.79-.117-.061-.556-.383-.659-.31l-.8.564a6.509,6.509,0,0,0-1.061,1.044c-.441.508-.867,1.048-1.329,1.529-.4.418-.886.742-1.271,1.181-.817.936-1.533,2.1-2.308,3.09-.345.441-.665.907-.99,1.368-.274.389-1.016.159-1.386.1-.049-.246-.261-.789-.184-1.021.205-.619.25-.663-.023-1.237-.352-.74-1.04-.82-1.689-.964-.033-.551-.063-1.085-.049-1.637.01-.407-.836-.761-1.063-.886a2.537,2.537,0,0,0-1.116-.469,1.582,1.582,0,0,1-1.2-.52,2.92,2.92,0,0,0-.048-1.759,4.256,4.256,0,0,0-1.7.028c-.425.093-.968.933-1.266,1.253-.627-2.141-2.559-3.1-4.129-4.115a15.56,15.56,0,0,1,0-2.037,2.852,2.852,0,0,0-.331-2.2,6.344,6.344,0,0,1-.684-.839c-.314-.53-.244-.54-.009-1.134.136-.344.375-.4.616-.637a9.054,9.054,0,0,0,.7-.911c.371.1.792.314,1.163.189a9.838,9.838,0,0,0,1.42-.58c.279-.143.766-.666,1.048-.63.51.063,1.014.132,1.522.224a2.566,2.566,0,0,0,2.456-.933c.276-.407,1.559-2.383,2.032-2.017" transform="translate(-324.169 -610.307)" fill="#5751c8"/><path d="M504.64,798.857a12.545,12.545,0,0,0-1.35-1.037c-.367-.324.405-1.226.545-1.5a1.663,1.663,0,0,0-.016-1.731,3.751,3.751,0,0,0-.37-.785c-.121-.173-.423-.46-.454-.684a3.535,3.535,0,0,0-.776-1.739,2.3,2.3,0,0,1-.382-1.654,3,3,0,0,1,.854-1.45l.278.314c-.151-.42-.19-.853-.564-1.012a5.623,5.623,0,0,1-1.019-.609c-.763-.529-1.182-.172-1.792.424a2.413,2.413,0,0,1-1.8.944,4.521,4.521,0,0,1-2.1-.676,4.721,4.721,0,0,1-1.313-1.79,10.13,10.13,0,0,1-.588-2.546c-.048-.408-.206-.808-.232-1.218a10.95,10.95,0,0,1,.079-1.318,4.1,4.1,0,0,0-.687-2.213,2.407,2.407,0,0,0-1.333.529,5.253,5.253,0,0,0-.878.9,6.286,6.286,0,0,1-1.135,1.108,7.664,7.664,0,0,0-.885,1.11c-.117-.061-.556-.382-.659-.31l-.8.564a5.94,5.94,0,0,0-.958.927,31.769,31.769,0,0,1-2.339,2.491,18.319,18.319,0,0,0-1.745,2.244c-.691.884-1.362,1.769-2.014,2.692l.007.03a3.233,3.233,0,0,1,1.283.258,5.217,5.217,0,0,1,1.276.738,4.255,4.255,0,0,1,.764,1.24,3.213,3.213,0,0,1,.49,1.6c.031.443.287,1.066.036,1.417-.619.867-1.21,1.759-1.815,2.639l.007.027c.014.007.025.016.038.025.786.26,1.962.431,2.513,1.167a1.987,1.987,0,0,1,.445.692c.085.372.089.54.345.766a2.668,2.668,0,0,0,1.417.518c.209.043.308-.225.549-.129q.445.178.889.357c.444.178.616.764,1.117.787a2.958,2.958,0,0,1,1.405.206,9.386,9.386,0,0,1,1.334.843,4.755,4.755,0,0,0,.881-1.143,1.08,1.08,0,0,1,1.01-.528c.073.655.171.786-.236,1.229a9.579,9.579,0,0,0-.843,1.059,2.114,2.114,0,0,0,1.71.157,5.008,5.008,0,0,1,.748-1.865,5.75,5.75,0,0,1,2.205,2.878c.436-.949.707-1.6,1.571-2.014.713-.345,1.325-.9,2.04-1.235.37-.174.786-.23,1.147-.425a5.78,5.78,0,0,1,1.043-.557c.394-.111.781-.226,1.169-.366.405-.146.571-.435.86-.806a6.209,6.209,0,0,0-.965-1.55Z" transform="translate(-430.383 -685.811)" fill="#5751c8"/><path d="M488.592,570.139c.218-.157.7-.675.944-.658a3.58,3.58,0,0,1,1.263.281c.582.242,1.574-.305,2.09-.628a2.567,2.567,0,0,1,1.2-.478c.267-.035.719-.857.906-1.091a15.842,15.842,0,0,0,1.257-2.188c.42-.738,1.155-1.367,1.517-2.13a7.266,7.266,0,0,0,.485-2.863,20.278,20.278,0,0,0-.02-2.556,3.415,3.415,0,0,1-.012-1.38,4.119,4.119,0,0,1,.778-1.287c.188-.25.895-.361,1.172-.471l.342.434a1.713,1.713,0,0,0-.054,1.1c.07.341.1,1.2.344,1.419a19.392,19.392,0,0,1,1.967,2.114,36.6,36.6,0,0,1,2.936,4.559c.925,1.559,2.57,1.8,4.068,1.867a9.16,9.16,0,0,0,2.4-.376,3.26,3.26,0,0,1,2.151.685,9.229,9.229,0,0,1,1.284,1.607,2.331,2.331,0,0,0,1.658.989,2.844,2.844,0,0,1,1.838.775,1.394,1.394,0,0,1,.464,1,2.257,2.257,0,0,0,.493,1.043c-.417-.15-.648-.293-1.057-.088a6.644,6.644,0,0,1-1.1.548,3.074,3.074,0,0,0-.985.582c-.279.244-.527.855-.889.874-.42.023-.833.063-1.251.112-.48.056-.656.263-1.059.59-.232.189-.655.665-.933.695-.446.047-.878.116-1.319.2-.735.145-1.224.886-1.892,1.11a10.021,10.021,0,0,1-2.377.352c-1.666.159-2.669,2.023-3.695,3.4-.281.377-.813.586-1.042.953a3.214,3.214,0,0,0-.258,1.476c.19.539.378,1.067.6,1.586a3.855,3.855,0,0,1,.077,1.58c-.323-.14-.661-.079-.962-.2-.422-.172-.5-.5-.978-.528-.194.393-.424,1.219-.093,1.577a15.713,15.713,0,0,0,1.262.942,2.712,2.712,0,0,1-.391.5c-.143.108-.37.078-.507.2a3.4,3.4,0,0,0-.627,1.182,2.756,2.756,0,0,0,0,1.538c.046.313-.384,1-.5,1.3-.1-.29-.183-.85-.446-.962a5.506,5.506,0,0,1-1.023-.581c-.818-.567-1.223-.321-1.906.345a2.388,2.388,0,0,1-1.712.946,4.643,4.643,0,0,1-2.194-.677,4.8,4.8,0,0,1-1.288-1.721,10.345,10.345,0,0,1-.613-2.616c-.047-.4-.152-.8-.227-1.189a5.739,5.739,0,0,1,.069-1.272,4.147,4.147,0,0,0-.682-2.286,2.306,2.306,0,0,0-1.231.443,5.853,5.853,0,0,0-.98.99,5.93,5.93,0,0,1-1.08,1.062,7.725,7.725,0,0,0-.939,1.156c-.152-.178-.462-.718-.67-.753a8.2,8.2,0,0,1-1.1-.236,3.349,3.349,0,0,1-1.75-1.038,3.862,3.862,0,0,1-.606-2.357c.03-.86.157-1.675.225-2.529.064-.8.148-1.731-.593-2.147a3.525,3.525,0,0,0-2.158,0c-.651.116-1.5.326-1.871-.481-.34-.729-.1-1.569-.384-2.33,1.088-.017,2.138.262,3.215.289a5.771,5.771,0,0,0,3.216-.867c.443-.281.959-.209,1.244-.722.321-.577.613-1.163.9-1.763.574-1.187,1.8-1.308,2.749-1.857l.345.906" transform="translate(-427.509 -489.596)" fill="#5751c8"/><path d="M283.119,500.48a4.283,4.283,0,0,0,.088,2.967,22.738,22.738,0,0,0,1.817,2.74,9.149,9.149,0,0,1,.672,1.36,2.859,2.859,0,0,1,.208,1.549,11.606,11.606,0,0,0,.389,3.277c-.492-.276-.975-.569-1.494-.2a5.434,5.434,0,0,0-1.417,1.25,6.453,6.453,0,0,0-.645,1.829c-.148.66-.148,1.379-.284,2.051-.054.273-.519.319-.729.4-.3.115-.48-.117-.749-.3a5.172,5.172,0,0,0-1.567-.625,3.063,3.063,0,0,1-.763-.229c-.225-.131-.6-.476-.848-.493-.668-.047-.734.837-.769,1.407-.7-.857-1.415-1.681-2.043-2.617-.644-.961-1.134-2.025-1.7-3.05a3.116,3.116,0,0,1-.073-1.428,2.48,2.48,0,0,0-.247-1.721,8.385,8.385,0,0,0-1.936-2.518,3.845,3.845,0,0,0,.895-1.684c.042-.171.093-.74.251-.8l1.04-.392a5.391,5.391,0,0,1,1.753-.271,6.914,6.914,0,0,0,1.613-.3,7.943,7.943,0,0,0,1.718-.637,3.623,3.623,0,0,1,1.387-.634c.635-.028,1.271-.04,1.9-.111.337-.038.466-.227.731-.486a1.12,1.12,0,0,1,.8-.336" transform="translate(-247.069 -442.087)" fill="#5751c8"/><path d="M139.457,77.83a1.221,1.221,0,0,0-.572-1.239c-.31-.239-.745-.8-1.126-.546q.254-.69.509-1.378c.145-.393.471-.567.651-.925a8.49,8.49,0,0,1,1.337-2.236c.618-.619,1.251-1.48.256-2.1-.29-.182-.765-.43-.585-.931a12.983,12.983,0,0,0,.426-1.433c.435-1.811-.852-3.775-1.909-4.972-.459-.52-1.639-.645-1.43-1.593.053-.241.047-.439.226-.571.132-.1.323-.166.361-.351.085-.425.075-1.088.471-1.288.7-.355,1.566.3,2.13.686.627.434,1.211,1.129,2.02.959a4.659,4.659,0,0,0,1.916-1.486,22.765,22.765,0,0,1,1.967-1.87c.685-.577,1.372-1.148,2.073-1.7a5.607,5.607,0,0,1,2.344-.646,3.3,3.3,0,0,0,1.842-1.518c.077-.192.011-.468.064-.672a5.356,5.356,0,0,1,.288-.689,4.531,4.531,0,0,1,.689-1.058,23.282,23.282,0,0,1,3.1-3.006,1.825,1.825,0,0,1,.8-.292c.155,0,.305.147.46.157a2.486,2.486,0,0,0,.6-.136c.65-.146,1.309-.225,1.965-.333.313-.052.628-.062.943-.083.293-.019.562-.335.858-.342a1.862,1.862,0,0,1,.939.187c.245.106.46.743.619.775a6.035,6.035,0,0,0,1.889.3c.718-.117,1.409-.255,2.116-.443a1.751,1.751,0,0,1,.346,1.2c.015.5.052.993.085,1.488a15.516,15.516,0,0,1-.114,2.669c-.1.936-.354,1.841-.494,2.771a6.184,6.184,0,0,1-1.151,2.486,4.446,4.446,0,0,1-1.85,1.225,13.04,13.04,0,0,1-2.315.635,25.123,25.123,0,0,1-4.99.566,3.994,3.994,0,0,0-2.346.3c-.513.351-.048,2.058.119,2.556a10.3,10.3,0,0,0,2.707,4.713,9.962,9.962,0,0,0,1.158.732,7.559,7.559,0,0,0,.849.6,6.835,6.835,0,0,0,2.268.731,16.046,16.046,0,0,1,2.393.575,8.933,8.933,0,0,0,1.158.158,1.8,1.8,0,0,1,1.185.473,9.387,9.387,0,0,1,1.944,1.423c.439.532,1.245,1.441,1.9,1.53.918.126,1.54-.066,1.985,1.074.153.393.167.937.575,1.094.483.185.52.481.75,1.017a1.57,1.57,0,0,0-1.206.457,7.772,7.772,0,0,0-.963.832,7.111,7.111,0,0,0-1.661,2.414,5.649,5.649,0,0,0-.105,3.277,8.319,8.319,0,0,1,.127,1.575,7.327,7.327,0,0,0,.347,1.354,4.441,4.441,0,0,1-4.326,1.747,6.265,6.265,0,0,1-2.2-.763c-.44-.234-1.946-.753-2.153-1.255-.251-.608-.308-.559-.876-.686a2.777,2.777,0,0,1-1-.366c-.724-.461-1.33-1.053-2.027-1.556a4.122,4.122,0,0,1-.519-.375c-.135-.135-.234-.429-.389-.522a4.206,4.206,0,0,0-1.351-.2c-.753-.114-1.356-.915-1.853-1.5a1.3,1.3,0,0,0,.422-.785c-1.554-.786-3.181-.15-4.328,1.255-.422.515-.067,2.035.1,2.627a10.8,10.8,0,0,1,.257,1.376c.033.225-.056,1.2-.213,1.266-.509.216-.643.03-1.124-.268-.32-.2-.648-.368-.958-.59a8.244,8.244,0,0,1-1.883-1.6q-.464-.621-.928-1.24a5.216,5.216,0,0,1-.179-1.287,4.452,4.452,0,0,0-1.02-2.3,13.559,13.559,0,0,0-2.069-1.686,8.6,8.6,0,0,0-1.2-.591c-.408-.171-.708.007-1.126.14" transform="translate(-129.599 -43.995)" fill="#5751c8"/><path d="M87.048,296.077c.324-.106.671-.33,1-.2a8.746,8.746,0,0,1,1.193.565,12.844,12.844,0,0,1,2.011,1.595,4.242,4.242,0,0,1,1.158,2.166c.074.494.147.975.177,1.476.021.346.665.941.859,1.2a7.765,7.765,0,0,0,1.766,1.585c.43.305,1.608,1.321,2.063,1.129.692-.294.476-1.792.281-2.477a5.2,5.2,0,0,1-.261-2.795,3.884,3.884,0,0,1,2.031-1.6,9.558,9.558,0,0,0,1.32-.163c.3-.053.785.269,1.061.409a1.3,1.3,0,0,1-.422.785c.472.555,1.083,1.383,1.8,1.492l1.334.2c.187.028.643.665.859.821.7.5,1.3,1.106,2.026,1.565a2.681,2.681,0,0,0,.978.41c.614.138.747.066,1.016.718.2.483,1.59.957,2.022,1.185a9.752,9.752,0,0,0,2.31.827,4.33,4.33,0,0,0,2.293-.153,4.826,4.826,0,0,0,2.051-1.59,12.281,12.281,0,0,1-.426-2.616,11.777,11.777,0,0,1-.273-2.392,7.075,7.075,0,0,1,2.7-4.228,3.574,3.574,0,0,1,.764-.635,4.1,4.1,0,0,1,1.021-.068c.566-.054.624-.028,1.079.375a7.9,7.9,0,0,0,.985.7,5.818,5.818,0,0,0,2.037.663,11,11,0,0,1,1.13.294c.413.129.582.409.883.774-.15.032-.376,0-.439.18l-.378,1.066a11.026,11.026,0,0,0-.429,1.444,25.8,25.8,0,0,0-.567,3.8,11.248,11.248,0,0,1-1,3.324,1.428,1.428,0,0,0-.037,1.444,1.491,1.491,0,0,1-.182,1.564c-.588-.269-.98-.826-1.3.173-.237.734.2,1.321.2,2.094a7.374,7.374,0,0,1-2.246-.309,5.216,5.216,0,0,1-1.109-.45c-.24-.145-.852-.548-1.116-.379-.36.229-.718.455-1.082.674a1.816,1.816,0,0,1-1.173,0,2.273,2.273,0,0,0-2.164.889,7.016,7.016,0,0,0-.256,2.511c.054.439.1.871.19,1.3a2.221,2.221,0,0,1-.105,1.464c-.224.731-.836,1.677-1.545,1.79-.487.078-.675.321-1.058.7-.215.21-.675.145-.959.158a7.213,7.213,0,0,0-1.5.066,6.943,6.943,0,0,0-1.3.695,6.5,6.5,0,0,1-2.778.858,7.767,7.767,0,0,0-2.963.58c-.508.192-.477.782-.624,1.366a3.365,3.365,0,0,1-.776,1.214c-.946-.838-1.754-1.854-2.707-2.692a10.55,10.55,0,0,0-3.079-1.79c-1.245-.464-2.494-.823-3.759-1.2a4.812,4.812,0,0,0-1.7-.3c-.754.053-.911.5-1.335,1.168a9.091,9.091,0,0,0-.284-1.941,8.483,8.483,0,0,1-.256-2.224,3.315,3.315,0,0,0-1.5-.435,1.576,1.576,0,0,1-.627-.205c-.214-.152-.313-.6-.539-.722-.18-.094-.464.09-.651-.048a3.288,3.288,0,0,1-.624-.5c-.279-.331-.784-1.192-1.143-1.334-.464-.184-.921-.391-1.391-.553a6.9,6.9,0,0,1-1.494-.953,4.918,4.918,0,0,0-2.884-.911,9.5,9.5,0,0,1,.294-1.08c.168-.329.7-.609.969-.8a6.235,6.235,0,0,0,.883-.781,2.691,2.691,0,0,0,.456-1.21c.178-.649-.536-1.582-.221-2.291a2.442,2.442,0,0,1,.578-1.021,8.145,8.145,0,0,1,1.084-.7,13.564,13.564,0,0,0,1.86-.923,7.291,7.291,0,0,0,1.789-1.812,7.414,7.414,0,0,0,.536-1.135c.171-.363.548-.57.829-.81.209-.178.726-.1.983-.151.372-.073.742-.184,1.111-.277a6.5,6.5,0,0,0-1.294-2.593" transform="translate(-77.19 -262.242)" fill="#5751c8"/><path d="M319.07,43.135c1.376-.913,2.758-1.812,4.113-2.765a5.6,5.6,0,0,1,1.046-.645c.482-.2.706.047,1.159.226a3.762,3.762,0,0,1,1.075.509,5.178,5.178,0,0,1,.831,1.017c.247.307.545.575.806.868.193.216-.194.928-.24,1.177a2.877,2.877,0,0,0,.169,1.194c.178.617.46.41.932.619a3.379,3.379,0,0,1,1.544,1.886c.167.381.582.438.906.695a3.009,3.009,0,0,1,.755.974,3.362,3.362,0,0,1,.141,1.211,4.957,4.957,0,0,0,.2,1.428,3.232,3.232,0,0,0,1.638,1.723c.339.15.663.309,1.011.426a3.166,3.166,0,0,0,1.2-.11,7.834,7.834,0,0,0,2.125-1.014,12.187,12.187,0,0,1,2.288-1.084c.776-.189,1.56-.229,2.334-.46a5.618,5.618,0,0,0,1.766-1.492c.346-.467,1.3-1.733,1.9-1.158.541.519.344,1.058.26,1.8a10.379,10.379,0,0,0,.583,1.754,4.153,4.153,0,0,1,.053,1.774,7.018,7.018,0,0,1-.885,1.773,1.527,1.527,0,0,1-.587.459,1.122,1.122,0,0,0-.609.629,1.122,1.122,0,0,1-.622.633.87.87,0,0,0-.488.588,11.663,11.663,0,0,0-.26,1.939c-.1.755.305.981.744,1.417a1.441,1.441,0,0,0,.616-.606c.124-.246.3-.829.506-.977a3.034,3.034,0,0,0,.768-.651c.135-.177.323-.529.529-.532l2.49-.031c.663-.009.871.439.911,1.188.022.407.466.284.586.513a3.85,3.85,0,0,0,.727.827c.185.2.21.548.344.8.215.4.368.518.087.891-.192.253-.248.6-.491.776a.49.49,0,0,0-.068.76c.661.734.78.9.319,1.849a2.157,2.157,0,0,1,.727,1.8,5.378,5.378,0,0,1,.106,1.22c-.1.528-.354.283-.655.6-.366.381-.915,1.12-.749,1.738.187.7.853,1.153,1.3,1.6a16.823,16.823,0,0,0,2.2,2.444,5.965,5.965,0,0,0-1.19.088,7.524,7.524,0,0,0-1.173.595,5.385,5.385,0,0,1-1.193.279,1.031,1.031,0,0,1-.467-.079c-.231-.058-.372.194-.549.365-.648.628-.326,1.7-.179,2.523.085.478.188.927.312,1.394.148.556-.1.848-.331,1.363-.438.984-1.351.713-2.042.347a2.46,2.46,0,0,0-1.109-.325c-.393-.035-.754.305-1.1.509-.286.169-.476.717-.775.829a4.236,4.236,0,0,1-1.2-.075c-.784-.032-1.265.824-1.745,1.41a4.207,4.207,0,0,1-.665.812,4,4,0,0,1-1,.314,7.277,7.277,0,0,0-.807.355c-.231.105-.282.6-.367.864-.224.689-.465,1.362-.716,2.037-.3.8-.942.681-1.541.621-.555-.056-1.112.151-1.665.111-.629-.046-1.257-.091-1.886-.143a6.8,6.8,0,0,0-1.689-.073c-.22.038-.607,0-.776.189l-.757.821c-.057-1.3-.117-2.6-.141-3.9a10.284,10.284,0,0,1,.378-1.63,3.554,3.554,0,0,0-.167-1.867,2.113,2.113,0,0,1-2.138-.262c-.561-.507-.423-1.643-.47-2.441-.045-.77.033-2.185-.445-2.774-.583-.717-1.27-1.248-1.859-1.968a20.124,20.124,0,0,0-1.869-1.736,17.252,17.252,0,0,0-1.984-1.6c-.617-.429-1.334-.611-1.958-1.022-.682-.45-1.519-1.288-2.234-.523-.188.2-.6.794-.827.81a1.182,1.182,0,0,1-1.117-.455,8.631,8.631,0,0,1-1.457-2.019,9.386,9.386,0,0,0-3.546-3.931c-1.346-.738-2.8-1.561-4.333-1.363-.194.025-1.051.281-1.182.121a1.921,1.921,0,0,0-1.134-.831c-.776-.241-1.562-.334-2.33-.619a4.352,4.352,0,0,1-1.36-.784c-.14-.124-.529-.611-.7-.593l-.888.085c-.179-.418-.242-.823-.628-.97-.456-.176-.544-.585-.684-1.091-.318-1.156-1.032-.99-1.865-1.105a3.974,3.974,0,0,1-1.97-1.477,9.1,9.1,0,0,0-1.906-1.42,1.828,1.828,0,0,0-1.012-.523,9.852,9.852,0,0,1-1.29-.152,16.384,16.384,0,0,0-2.392-.6c-1.664-.12-2.969-1.163-4.4-2.067a6.315,6.315,0,0,1-1.567-2.022A12.585,12.585,0,0,1,280,47.081c-.137-.413-.209-.868-.309-1.294-.051-.216-.075-1.141.069-1.24a3.741,3.741,0,0,1,2.309-.372,25.279,25.279,0,0,0,5.027-.545,13.024,13.024,0,0,0,2.308-.612,4.536,4.536,0,0,0,1.93-1.218,6.424,6.424,0,0,0,.9-1.581,13.935,13.935,0,0,0,.438-1.989,19.769,19.769,0,0,0,.48-3.558c-.019-.658-.069-1.308-.1-1.964-.019-.375-.172-1.481.054-1.794.366-.5.875-.721.875-1.457a3.987,3.987,0,0,1-.01-.759c.037-.231.349-.4.464-.608.307.012.383.452.764.452a1.947,1.947,0,0,1,.935.189,23.814,23.814,0,0,0-.734,2.59c-.29.873.619,1.739,1.01,2.389a1.743,1.743,0,0,0,.82.581c.507.247.5.44.69,1.056a5.986,5.986,0,0,0,1.224,2.24,3.665,3.665,0,0,0,.994.818,3.953,3.953,0,0,1,1,.506l.561.523c.1.093.372-.063.5-.054a2.881,2.881,0,0,1,1.129.473,4.379,4.379,0,0,1,.865.661c.272.256.93-.241,1.155-.378a1.58,1.58,0,0,1,.9.052c.33.178.266,1.051.248,1.381-.035.68.616,1.429,1.223,1.3a2.3,2.3,0,0,1,1.046-.059c.4.085.462.564.638.974.164.383.2.69.52.9.382.245.544.184.959.078.714-.182,1.115.974,1.677,1.31.278.166.586.4.907.206.473-.287.4-.3.541-.839s.6-2.108,1.262-1.732c.3.171.58.524.873.665a1.579,1.579,0,0,0,1.121-.13,10.84,10.84,0,0,0,1.8-1.109" transform="translate(-254.623 -28.09)" fill="#5751c8"/><path d="M450.774,332.458c-.085-.226-.381-.816-.31-1.036a2.138,2.138,0,0,1,.567-1.056c.155-.156.7.384.871.464a1.476,1.476,0,0,0,.2-1.508c-.225-.671-.3-.726-.02-1.405a11.4,11.4,0,0,0,1.033-3.292,25.713,25.713,0,0,1,.548-3.8,11.474,11.474,0,0,1,.431-1.506c.122-.344.243-.687.366-1.03.1-.287.255-.227.514-.272" transform="translate(-404.313 -282.181)" fill="none" stroke="#eaecff" stroke-width="0.5"/><path d="M156.94,296.227c.324-.106.671-.33,1-.2a8.752,8.752,0,0,1,1.193.565,12.846,12.846,0,0,1,2.011,1.595,4.242,4.242,0,0,1,1.158,2.166c.074.494.147.975.177,1.476.021.346.665.941.859,1.2a7.764,7.764,0,0,0,1.766,1.585c.43.305,1.608,1.321,2.063,1.129.692-.294.476-1.792.281-2.477a5.2,5.2,0,0,1-.261-2.795,3.884,3.884,0,0,1,2.031-1.6,9.553,9.553,0,0,0,1.32-.163c.3-.053.785.269,1.061.409a1.3,1.3,0,0,1-.422.785c.472.555,1.083,1.383,1.8,1.492l1.334.2c.187.028.643.665.859.821.7.5,1.3,1.106,2.026,1.565a2.681,2.681,0,0,0,.978.41c.614.138.747.066,1.016.718.2.483,1.59.957,2.022,1.185a9.752,9.752,0,0,0,2.31.827,4.33,4.33,0,0,0,2.293-.153,4.826,4.826,0,0,0,2.051-1.59,12.281,12.281,0,0,1-.426-2.616,11.776,11.776,0,0,1-.273-2.392,7.075,7.075,0,0,1,2.7-4.228,3.574,3.574,0,0,1,.764-.635,4.1,4.1,0,0,1,1.021-.068" transform="translate(-147.082 -262.392)" fill="none" stroke="#eaecff" stroke-width="0.5"/><path d="M88.582,327.22a9.092,9.092,0,0,0-.284-1.941,8.483,8.483,0,0,1-.256-2.224,3.315,3.315,0,0,0-1.5-.435,1.575,1.575,0,0,1-.627-.205c-.214-.152-.313-.6-.539-.722-.18-.094-.464.09-.651-.048a3.29,3.29,0,0,1-.624-.5c-.279-.331-.784-1.192-1.143-1.334-.464-.184-.921-.391-1.391-.553a6.9,6.9,0,0,1-1.494-.953,4.918,4.918,0,0,0-2.884-.911,9.5,9.5,0,0,1,.294-1.08c.168-.329.7-.609.969-.8a6.233,6.233,0,0,0,.883-.781,2.691,2.691,0,0,0,.456-1.21c.178-.649-.536-1.582-.221-2.291a2.442,2.442,0,0,1,.578-1.021,8.145,8.145,0,0,1,1.084-.7,13.564,13.564,0,0,0,1.86-.923,7.291,7.291,0,0,0,1.789-1.812,7.414,7.414,0,0,0,.536-1.135c.171-.363.548-.57.829-.81.209-.178.726-.1.983-.151.372-.073.742-.184,1.111-.277a6.5,6.5,0,0,0-1.294-2.593" transform="translate(-77.19 -267.975)" fill="none" stroke="#eaecff" stroke-width="0.5"/><path d="M377.357,524.61a10.7,10.7,0,0,0-.7-1.278c-.527-.6-1.281-1.664-2.073-1.664-.375,0-1.035-.129-1.138-.619a14.884,14.884,0,0,1,.007-1.592c-.773-.383-1.459-.36-1.617-1.451-.132-.915-.373-1.795-.571-2.693-.193-.873-.506-1.727-.716-2.6-.089-.37-.3-.742-.392-1.143a5.639,5.639,0,0,1-.193-1.376,6.75,6.75,0,0,0-.153-2.522,15.9,15.9,0,0,0-1.433-2.518,8.562,8.562,0,0,1-1.288-2.062,4.838,4.838,0,0,1,.078-2.612" transform="translate(-331.119 -442.087)" fill="none" stroke="#eaecff" stroke-width="0.5"/><path d="M277.028,517.467c-.7-.857-1.415-1.681-2.043-2.617-.644-.96-1.134-2.025-1.7-3.049a3.117,3.117,0,0,1-.073-1.428,2.48,2.48,0,0,0-.247-1.721,8.385,8.385,0,0,0-1.936-2.518,3.845,3.845,0,0,0,.895-1.684c.042-.171.093-.74.251-.8l1.04-.392a5.39,5.39,0,0,1,1.753-.271,6.914,6.914,0,0,0,1.613-.3,7.943,7.943,0,0,0,1.718-.637,3.623,3.623,0,0,1,1.387-.634c.635-.028,1.271-.04,1.9-.111.337-.038.466-.227.731-.486a1.12,1.12,0,0,1,.8-.336" transform="translate(-247.069 -442.087)" fill="none" stroke="#eaecff" stroke-width="0.5"/><path d="M378.476,431.823a7.374,7.374,0,0,1-2.246-.309,5.216,5.216,0,0,1-1.109-.45c-.24-.145-.852-.548-1.116-.379-.36.229-.718.455-1.082.674a1.816,1.816,0,0,1-1.173,0,2.273,2.273,0,0,0-2.164.889,7.016,7.016,0,0,0-.256,2.511c.054.439.1.871.19,1.3a2.221,2.221,0,0,1-.105,1.464c-.224.731-.836,1.677-1.545,1.79" transform="translate(-331.938 -380.883)" fill="none" stroke="#eaecff" stroke-width="0.5"/><path d="M814.41,468.278h0c.143-.152.275-.337.413-.488a.841.841,0,0,0-.168.155c-.063.077-.123.165-.183.251C814.452,468.226,814.43,468.25,814.41,468.278Z" transform="translate(-723.281 -413.439)" fill="#5751c8"/><path d="M512.209,343.269c-.057-1.3-.117-2.6-.141-3.9a10.284,10.284,0,0,1,.378-1.63,3.554,3.554,0,0,0-.167-1.867,2.113,2.113,0,0,1-2.138-.262c-.561-.507-.423-1.643-.47-2.441-.044-.77.033-2.185-.445-2.774-.583-.717-1.27-1.248-1.859-1.968a20.125,20.125,0,0,0-1.869-1.736,17.254,17.254,0,0,0-1.984-1.6c-.617-.429-1.334-.611-1.958-1.022-.682-.45-1.519-1.288-2.234-.523-.188.2-.6.794-.827.81a1.182,1.182,0,0,1-1.117-.455,8.631,8.631,0,0,1-1.457-2.019,9.386,9.386,0,0,0-3.546-3.931c-1.346-.738-2.8-1.561-4.333-1.363-.194.025-1.051.281-1.182.121" transform="translate(-436.22 -280.901)" fill="none" stroke="#eaecff" stroke-width="0.5"/><path d="M441.4,297.734a1.921,1.921,0,0,0-1.134-.831c-.776-.241-1.562-.334-2.33-.619a4.352,4.352,0,0,1-1.36-.784c-.14-.124-.529-.611-.7-.593l-.888.085" transform="translate(-390.762 -261.925)" fill="none" stroke="#eaecff" stroke-width="0.5"/><path d="M298.852,81.183c-.179-.418-.242-.823-.628-.97-.456-.176-.544-.585-.684-1.091-.318-1.156-1.032-.99-1.865-1.105a3.974,3.974,0,0,1-1.97-1.477,9.1,9.1,0,0,0-1.906-1.42,1.828,1.828,0,0,0-1.012-.523,9.853,9.853,0,0,1-1.29-.152,16.383,16.383,0,0,0-2.392-.6c-1.664-.12-2.969-1.163-4.4-2.067a6.315,6.315,0,0,1-1.567-2.022A12.584,12.584,0,0,1,280,67.106c-.137-.413-.209-.868-.309-1.294-.051-.216-.075-1.141.069-1.24a3.742,3.742,0,0,1,2.309-.372,25.279,25.279,0,0,0,5.027-.545,13.024,13.024,0,0,0,2.308-.612,4.536,4.536,0,0,0,1.93-1.218,6.425,6.425,0,0,0,.9-1.581,13.931,13.931,0,0,0,.438-1.989,19.769,19.769,0,0,0,.48-3.558c-.019-.658-.069-1.308-.1-1.964-.019-.375-.172-1.481.054-1.794" transform="translate(-254.623 -48.115)" fill="none" stroke="#eaecff" stroke-width="0.5"/><path d="M571.34,570.139c.218-.157.7-.675.944-.658a3.58,3.58,0,0,1,1.263.281c.582.242,1.574-.305,2.09-.628a2.567,2.567,0,0,1,1.2-.478c.267-.035.719-.857.906-1.091A15.839,15.839,0,0,0,579,565.376c.42-.738,1.155-1.367,1.517-2.13a7.267,7.267,0,0,0,.485-2.863,20.272,20.272,0,0,0-.02-2.556,3.416,3.416,0,0,1-.012-1.38,4.121,4.121,0,0,1,.778-1.287c.188-.25.895-.361,1.172-.471" transform="translate(-510.257 -489.596)" fill="none" stroke="#eaecff" stroke-width="0.5"/><path d="M665,554.69l.342.434a1.713,1.713,0,0,0-.054,1.1c.07.341.1,1.2.344,1.419a19.405,19.405,0,0,1,1.967,2.114,36.609,36.609,0,0,1,2.936,4.559c.925,1.559,2.57,1.8,4.068,1.867a9.16,9.16,0,0,0,2.4-.376,3.26,3.26,0,0,1,2.151.685,9.229,9.229,0,0,1,1.284,1.607,2.331,2.331,0,0,0,1.658.989,2.844,2.844,0,0,1,1.838.775,1.394,1.394,0,0,1,.464,1,2.256,2.256,0,0,0,.493,1.043" transform="translate(-592.34 -489.596)" fill="none" stroke="#eaecff" stroke-width="0.5"/><path d="M485.83,724c-.152-.178-.462-.718-.67-.753a8.205,8.205,0,0,1-1.1-.236,3.349,3.349,0,0,1-1.75-1.038,3.862,3.862,0,0,1-.606-2.357c.03-.86.157-1.675.225-2.529.064-.8.148-1.731-.593-2.147a3.525,3.525,0,0,0-2.158,0c-.651.116-1.5.326-1.871-.481-.34-.729-.1-1.569-.384-2.33" transform="translate(-427.509 -627.574)" fill="none" stroke="#eaecff" stroke-width="0.5"/><path d="M476.92,677.258c1.088-.017,2.138.262,3.215.289a5.77,5.77,0,0,0,3.216-.867c.443-.281.959-.209,1.244-.722.321-.577.613-1.163.9-1.763.574-1.187,1.8-1.308,2.749-1.857l.345.906" transform="translate(-427.509 -592.703)" fill="none" stroke="#eaecff" stroke-width="0.5"/><path d="M480.2,877.75l.007.03" transform="translate(-430.383 -772.722)" fill="none" stroke="#eaecff" stroke-width="0.5"/><path d="M558.4,788.28l.278.314c-.151-.42-.19-.853-.564-1.012a5.621,5.621,0,0,1-1.019-.609c-.763-.529-1.182-.172-1.792.424a2.413,2.413,0,0,1-1.8.944,4.521,4.521,0,0,1-2.1-.676,4.722,4.722,0,0,1-1.313-1.79,10.129,10.129,0,0,1-.588-2.546c-.048-.408-.206-.808-.232-1.218a10.957,10.957,0,0,1,.079-1.318,4.1,4.1,0,0,0-.687-2.213,2.407,2.407,0,0,0-1.333.529,5.254,5.254,0,0,0-.878.9,6.285,6.285,0,0,1-1.135,1.108,7.664,7.664,0,0,0-.885,1.11c-.117-.061-.556-.382-.659-.31" transform="translate(-486.095 -685.811)" fill="none" stroke="#eaecff" stroke-width="0.5"/><path d="M449.28,692.79a3.258,3.258,0,0,0,2.025,1.231c.367.111.723.257,1.083.4.229.089.375.909.48,1.193" transform="translate(-403.285 -610.625)" fill="none" stroke="#eaecff" stroke-width="0.5"/><path d="M489.4,805.875c-.117-.061-.556-.383-.659-.31l-.8.564a6.507,6.507,0,0,0-1.061,1.044c-.441.508-.867,1.048-1.329,1.529-.4.418-.886.742-1.271,1.18-.817.936-1.533,2.1-2.308,3.09-.345.441-.665.907-.99,1.368" transform="translate(-431.067 -709.45)" fill="none" stroke="#eaecff" stroke-width="0.5"/><path d="M365.62,697.13c.258-.256.472-.616.74-.9.411.109.752.3,1.123.176a9.84,9.84,0,0,0,1.42-.58c.279-.143.766-.666,1.048-.63.511.063,1.014.132,1.522.224a2.566,2.566,0,0,0,2.456-.933c.276-.407,1.559-2.383,2.032-2.017" transform="translate(-329.967 -610.307)" fill="none" stroke="#eaecff" stroke-width="0.5"/><path d="M670.475,527.872l-.459-.672c-.75.208-1.639.224-2.046,1.114a5.124,5.124,0,0,0-.5,2.7" transform="translate(-594.484 -465.504)" fill="none" stroke="#eaecff" stroke-width="0.5"/><path d="M467.654,465.068a25.956,25.956,0,0,0-.769-5.415,13.9,13.9,0,0,0-.543-2.674,24.116,24.116,0,0,1-.8-2.692,41.922,41.922,0,0,0-1.766-5.279,14.4,14.4,0,0,0-1.141-2.256,11.1,11.1,0,0,0-1.825-2.083c-1.014-1.031-2.318-1.117-3.5-1.716a6.222,6.222,0,0,1-2.689-3,8.479,8.479,0,0,1-.508-2.208,9.7,9.7,0,0,0-.859-1.926c-.157-.356-.08-.666-.205-1" transform="translate(-406.589 -384.543)" fill="none" stroke="#eaecff" stroke-width="0.5"/><path d="M319.44,599.223c.021-.341.028-.99.278-1.231.382-.371.795,0,1.141.2.713.414,1.564.518,2.314.864.251.116.619.538.862.444.6-.23.774-.161.917-.871.093-.461.124-.936.174-1.405a6.141,6.141,0,0,1,.362-1.221,3.444,3.444,0,0,1,1.613-1.99,1.17,1.17,0,0,1,1.828.549" transform="translate(-289.495 -523.856)" fill="none" stroke="#eaecff" stroke-width="0.5"/><path d="M302.966,637.03c-.407.488-.669,1.14-1.084,1.585A6.112,6.112,0,0,0,300.6,640.3" transform="translate(-272.984 -561.758)" fill="none" stroke="#eaecff" stroke-width="0.5"/><path d="M181.935,503.857c-.946-.838-1.754-1.854-2.707-2.692a10.55,10.55,0,0,0-3.079-1.79c-1.245-.464-2.494-.823-3.759-1.2a4.812,4.812,0,0,0-1.7-.3c-.754.053-.911.5-1.335,1.168" transform="translate(-157.958 -439.8)" fill="none" stroke="#eaecff" stroke-width="0.5"/><path d="M688.23,385.1l.459.672c.642-.7,1-1.089,1.925-1.031.8.051,1.6.121,2.4.18.781.057,1.576-.141,2.344-.064.4.041.832.218,1.162-.068a2.382,2.382,0,0,0,.74-1.241c.216-.582.436-2.028.935-2.253a10.076,10.076,0,0,1,1.157-.449,1.865,1.865,0,0,0,1.075-.824c.21-.257.321-.614.572-.812.269-.211.744-.78,1.074-.766.4.016.79.031,1.184.064.415.035.677-.457.973-.777,1.1-1.189,2.117,0,3.277.1.7.061,1.01-.659,1.3-1.319.258-.58-.13-1.31-.243-1.942a4.734,4.734,0,0,1-.156-2.092,1.419,1.419,0,0,1,.528-.807c.305-.3.389.022.735-.058a7.574,7.574,0,0,0,1.829-.586,4.17,4.17,0,0,1,1.786-.389,16.823,16.823,0,0,1-2.2-2.444c-.394-.391-1.047-.828-1.255-1.42a1.952,1.952,0,0,1,.507-1.716" transform="translate(-612.698 -323.406)" fill="none" stroke="#eaecff" stroke-width="0.5"/></g><g transform="translate(1568.944 38.558)"><path d="M185.627,526.65c-.005.073.09-1.3.209-1.953a4.354,4.354,0,0,0-1.65-.88,11.665,11.665,0,0,0-1.26,3.47,11.1,11.1,0,0,1-1.481,2.986c-.261-.252-.5-.623-.846-.639a7.138,7.138,0,0,1-1.326-.147c-.7-.162-1.723-.056-2.245-.752-.2-.261-.511-.661-.265-1.046a4.629,4.629,0,0,0,.649-1.389,3.268,3.268,0,0,0-.56-2.328,9.413,9.413,0,0,1-1.26-2.075,5.846,5.846,0,0,1-.513-1.211,7.174,7.174,0,0,0-.351-1.436,10.555,10.555,0,0,0-1.441-2.288c-.265-.355-.491-.723-.723-1.109-.179-.3-.061-.849-.177-1.2a5.882,5.882,0,0,0-.812-1.863,4.123,4.123,0,0,1-.89-1.9,7.978,7.978,0,0,0-.6-1.71,3.905,3.905,0,0,1-.676-1.836" transform="translate(-165.403 -448.108)" fill="none" stroke="#eaecff" stroke-width="0.5"/><path d="M841.549,685.015a5.99,5.99,0,0,1,.218,1.455,3.82,3.82,0,0,0,.449,1.057,18.94,18.94,0,0,1,1.059,2.548c.129.405.3.79.461,1.18.2.5-.265.815-.544.984l.214.565c-.968.512-2.57-.061-3.536-.522-.179-.085-.682-.2-.785-.391q-.308-.56-.614-1.121a9.893,9.893,0,0,1-.373-2.006,5.977,5.977,0,0,0-1.961.168,4.874,4.874,0,0,1-1.9.284c-.527-.025-1.483.126-1.815-.429a2.218,2.218,0,0,0-.815-.918c-.415-.271-.492-.072-.949.035-.405.094-.5-.016-.79.34a8.471,8.471,0,0,1-.834.907c-.482.447-1.307-.035-1.721-.446a8.01,8.01,0,0,1-1.381-1.792.889.889,0,0,0-.9-.153,1.26,1.26,0,0,1-.969.235,9.658,9.658,0,0,0-.462-1.03c-.2-.376-.482-.391-.841-.523l-.555.642a2.234,2.234,0,0,1-.5-1.093" transform="translate(-737.071 -603.789)" fill="none" stroke="#eaecff" stroke-width="0.5"/><path d="M388.5,30.915c.366-.5.875-.721.875-1.457a3.984,3.984,0,0,1-.01-.759c.037-.231.349-.4.464-.608.307.012.383.452.764.452a1.947,1.947,0,0,1,.935.189,23.814,23.814,0,0,0-.734,2.59c-.29.873.619,1.739,1.01,2.389a1.744,1.744,0,0,0,.82.581c.507.247.5.44.69,1.056a5.986,5.986,0,0,0,1.224,2.24,3.665,3.665,0,0,0,.994.818,3.953,3.953,0,0,1,1,.506l.561.523c.1.093.372-.063.5-.054a2.881,2.881,0,0,1,1.129.473,4.379,4.379,0,0,1,.865.661c.272.256.93-.241,1.155-.378a1.58,1.58,0,0,1,.9.052c.33.178.266,1.051.248,1.381-.035.68.616,1.429,1.223,1.3a2.3,2.3,0,0,1,1.046-.059c.4.085.462.564.638.974.164.383.2.69.52.9.382.245.544.184.959.078.714-.182,1.115.974,1.677,1.31.278.166.586.4.907.206.473-.287.4-.3.541-.839s.6-2.108,1.262-1.732c.3.171.58.524.873.665a1.579,1.579,0,0,0,1.121-.13,10.4,10.4,0,0,0,1.789-1.1c1.392-.927,2.774-1.826,4.129-2.779a5.6,5.6,0,0,1,1.046-.645c.482-.2.706.047,1.159.226a3.762,3.762,0,0,1,1.075.509,5.178,5.178,0,0,1,.831,1.017c.247.307.545.575.806.868.193.216-.194.928-.24,1.177a2.877,2.877,0,0,0,.169,1.194c.178.617.46.41.932.619a3.379,3.379,0,0,1,1.544,1.886c.167.381.582.438.906.695a3.009,3.009,0,0,1,.755.974A3.362,3.362,0,0,1,427.7,50.1a4.957,4.957,0,0,0,.2,1.428,3.232,3.232,0,0,0,1.638,1.723c.339.15.663.309,1.011.426a3.166,3.166,0,0,0,1.2-.11,7.834,7.834,0,0,0,2.125-1.014,12.187,12.187,0,0,1,2.288-1.084c.776-.189,1.56-.229,2.334-.46a5.618,5.618,0,0,0,1.766-1.492c.346-.467,1.3-1.733,1.9-1.158.541.519.344,1.058.26,1.8a10.379,10.379,0,0,0,.583,1.754,4.153,4.153,0,0,1,.053,1.774,7.018,7.018,0,0,1-.885,1.773,1.527,1.527,0,0,1-.587.459,1.122,1.122,0,0,0-.609.629,1.122,1.122,0,0,1-.622.633.87.87,0,0,0-.488.588,11.663,11.663,0,0,0-.26,1.939c-.1.755.305.981.744,1.417a1.441,1.441,0,0,0,.616-.606c.124-.246.3-.829.506-.977a3.034,3.034,0,0,0,.768-.651c.135-.177.323-.529.529-.532l2.49-.031" transform="translate(-357.411 -28.09)" fill="none" stroke="#eaecff" stroke-width="0.5"/><path d="M681.132,692.644c-.417-.15-.648-.293-1.057-.088a6.648,6.648,0,0,1-1.1.548,3.074,3.074,0,0,0-.985.582c-.279.244-.527.855-.889.874-.42.023-.833.063-1.251.112-.48.056-.656.263-1.059.59-.232.189-.655.665-.933.695-.446.047-.878.116-1.319.2-.735.145-1.224.886-1.893,1.11a10.02,10.02,0,0,1-2.377.352c-1.666.159-2.669,2.024-3.695,3.4-.281.377-.813.586-1.042.953a3.214,3.214,0,0,0-.258,1.476c.19.539.378,1.067.6,1.586a3.857,3.857,0,0,1,.077,1.58c-.323-.14-.661-.079-.962-.2-.422-.172-.5-.5-.978-.528-.194.393-.424,1.219-.093,1.577a15.7,15.7,0,0,0,1.262.942,2.713,2.713,0,0,1-.391.5c-.143.108-.37.078-.507.2a3.394,3.394,0,0,0-.627,1.182,2.756,2.756,0,0,0,0,1.538c.046.313-.384,1.005-.5,1.3-.1-.29-.183-.85-.446-.962" transform="translate(-595.972 -610.331)" fill="none" stroke="#eaecff" stroke-width="0.5"/><path d="M480.26,859.638a3.233,3.233,0,0,1,1.283.258,5.216,5.216,0,0,1,1.276.738,4.254,4.254,0,0,1,.764,1.24,3.212,3.212,0,0,1,.49,1.6c.031.443.287,1.066.036,1.417-.619.867-1.21,1.759-1.815,2.639l.007.027c.014.007.025.016.038.025.786.26,1.962.431,2.513,1.167a1.988,1.988,0,0,1,.445.692c.085.372.089.54.345.766a2.667,2.667,0,0,0,1.417.518c.209.043.308-.225.549-.129q.445.178.889.357c.444.178.616.764,1.117.787a2.957,2.957,0,0,1,1.405.206,9.386,9.386,0,0,1,1.334.843,4.755,4.755,0,0,0,.881-1.143,1.08,1.08,0,0,1,1.01-.528c.073.655.171.786-.236,1.229a9.578,9.578,0,0,0-.843,1.059,2.114,2.114,0,0,0,1.71.157,5.007,5.007,0,0,1,.748-1.865,5.75,5.75,0,0,1,2.205,2.878c.436-.949.707-1.6,1.571-2.014.713-.345,1.325-.9,2.04-1.235.37-.174.786-.23,1.147-.425a5.79,5.79,0,0,1,1.043-.557c.394-.111.781-.226,1.169-.366.405-.146.571-.435.86-.806a6.21,6.21,0,0,0-.965-1.55,12.548,12.548,0,0,0-1.35-1.037c-.367-.324.405-1.226.545-1.5a1.663,1.663,0,0,0-.016-1.731,3.752,3.752,0,0,0-.37-.785c-.121-.173-.423-.46-.454-.684a3.535,3.535,0,0,0-.776-1.739,2.3,2.3,0,0,1-.382-1.654,3,3,0,0,1,.854-1.45" transform="translate(-437.828 -754.581)" fill="none" stroke="#eaecff" stroke-width="0.5"/><path d="M374.082,748.547c-.274.389-1.016.159-1.386.1-.049-.246-.261-.789-.184-1.021.205-.619.25-.663-.023-1.237-.352-.74-1.04-.82-1.689-.964-.033-.551-.063-1.085-.049-1.637.01-.407-.836-.761-1.063-.886a2.537,2.537,0,0,0-1.116-.469,1.582,1.582,0,0,1-1.2-.52,2.92,2.92,0,0,0-.048-1.759,4.256,4.256,0,0,0-1.7.028c-.425.093-.968.933-1.266,1.253-.627-2.141-2.559-3.1-4.129-4.115a15.56,15.56,0,0,1,0-2.037,2.852,2.852,0,0,0-.331-2.2,6.351,6.351,0,0,1-.684-.839c-.314-.53-.243-.54-.009-1.134.136-.344.375-.4.616-.637" transform="translate(-331.561 -643.656)" fill="none" stroke="#eaecff" stroke-width="0.5"/><path d="M308.632,671.76c-.121-.569-.129-.98-.653-1.18a2.275,2.275,0,0,1-1.13-.779c-.372-.441-.638-.92-.979-1.389-.408-.562-.666-.294-1.208-.477-.51-.173-1.02-.192-1.522-.389-.45-.178-.768-.794-1.022-1.236-.244-.424-.76-.609-.958-1.074a5.044,5.044,0,0,1-.506-1.507c-.027-.32-.023-.209-.055-.247" transform="translate(-280.376 -584.938)" fill="none" stroke="#eaecff" stroke-width="0.5"/><path d="M139.457,77.83a1.221,1.221,0,0,0-.572-1.239c-.31-.239-.745-.8-1.126-.546q.254-.69.509-1.378c.145-.393.471-.567.651-.925a8.49,8.49,0,0,1,1.337-2.236c.618-.619,1.251-1.48.256-2.1-.29-.182-.765-.43-.585-.931a12.983,12.983,0,0,0,.426-1.433c.435-1.811-.852-3.775-1.909-4.972-.459-.52-1.639-.645-1.43-1.593.053-.241.047-.439.226-.571.132-.1.323-.166.361-.351.085-.425.075-1.088.471-1.288.7-.355,1.566.3,2.13.686.627.434,1.211,1.129,2.02.959a4.659,4.659,0,0,0,1.916-1.486,22.765,22.765,0,0,1,1.967-1.87c.685-.577,1.372-1.148,2.073-1.7a5.607,5.607,0,0,1,2.344-.646,3.3,3.3,0,0,0,1.842-1.518c.077-.192.011-.468.064-.672a5.356,5.356,0,0,1,.288-.689,4.531,4.531,0,0,1,.689-1.058,23.282,23.282,0,0,1,3.1-3.006,1.825,1.825,0,0,1,.8-.292c.155,0,.305.147.46.157a2.486,2.486,0,0,0,.6-.136c.65-.146,1.309-.225,1.965-.333.313-.052.628-.062.943-.083.293-.019.562-.335.858-.342a1.862,1.862,0,0,1,.939.187c.245.106.46.743.619.775a6.035,6.035,0,0,0,1.889.3c.718-.117,1.409-.255,2.116-.443" transform="translate(-136.991 -43.995)" fill="none" stroke="#eaecff" stroke-width="0.5"/></g><g transform="translate(1656.469 68.635)"><path d="M845.06,271.437c.017-.11.613.169.618.191h0a.978.978,0,0,1,.128.024.663.663,0,0,1,.273.233,1.128,1.128,0,0,1,.156.375,2.8,2.8,0,0,1,.066.5.331.331,0,0,0,.084.22.448.448,0,0,0,.172.1c.064.024.132.043.19.07a.277.277,0,0,1,.139.12,1.847,1.847,0,0,0,.336.442c.125.127.26.245.391.385a.991.991,0,0,1,.191.38,2.588,2.588,0,0,0,.152.419,2.418,2.418,0,0,1,.23.457.351.351,0,0,1-.008.194.821.821,0,0,1-.136.24,2.463,2.463,0,0,0-.226.418,1.5,1.5,0,0,1-.112.2.638.638,0,0,1-.152.159.529.529,0,0,0-.15.16.465.465,0,0,0-.064.194.482.482,0,0,0,.026.207.591.591,0,0,0,.121.2c.165.184.3.332.394.466a1.016,1.016,0,0,1,.187.379.865.865,0,0,1-.024.419,3.473,3.473,0,0,1-.238.585,1.686,1.686,0,0,1,.356.364,1.577,1.577,0,0,1,.206.413,2.707,2.707,0,0,1,.107.473c.025.169.041.35.058.546.015.172.057.392.088.612a2.009,2.009,0,0,1,.018.609.646.646,0,0,1-.1.272.319.319,0,0,1-.15.107c-.057.022-.12.037-.187.066a.648.648,0,0,0-.215.151L847.8,283a1.767,1.767,0,0,0,.461.4,2.762,2.762,0,0,0,.529.238c.368.127.759.21,1.127.376a2.9,2.9,0,0,1,.523.3,2.857,2.857,0,0,1,.444.4,3.2,3.2,0,0,1,.366.5,3.958,3.958,0,0,1,.288.6c.06.156.13.335.211.512a3.12,3.12,0,0,0,.284.5,1.222,1.222,0,0,0,.373.36.686.686,0,0,0,.225.082.672.672,0,0,0,.253-.006,2.825,2.825,0,0,1,.6-.067,1.583,1.583,0,0,1,.531.089,1.427,1.427,0,0,1,.471.285,2.234,2.234,0,0,1,.416.521,4.122,4.122,0,0,1,.317.632,2.765,2.765,0,0,1,.156.581,3.8,3.8,0,0,1,.04.613c0,.219-.015.457-.033.728a1.529,1.529,0,0,0,.016.362,1.191,1.191,0,0,0,.247.551,1.519,1.519,0,0,0,.2.208,2.852,2.852,0,0,0,.492.325c.174.095.352.179.515.267.059.032.085.122.109.215a.533.533,0,0,0,.093.237.56.56,0,0,0,.291.087c.121.014.244.018.311.032a1.289,1.289,0,0,1,.277.084.837.837,0,0,1,.4.362,1.306,1.306,0,0,1,.122.306,1.387,1.387,0,0,1,.047.327,1.761,1.761,0,0,1-.025.334,2.908,2.908,0,0,1-.207.669,6.463,6.463,0,0,1-.323.634c-.115.2-.23.389-.326.558-.084.148-.171.3-.256.449a2.014,2.014,0,0,0-.119.388,2.915,2.915,0,0,0-.046.361,5.681,5.681,0,0,1-.077.758,2.346,2.346,0,0,1-.11.384,3.955,3.955,0,0,1-.163.36,1.1,1.1,0,0,0-.086.408,2.29,2.29,0,0,1-.05.425.65.65,0,0,1-.185.318,1.134,1.134,0,0,1-.256.167,1.027,1.027,0,0,0-.245.16.529.529,0,0,0-.152.3c-.056.3-.15.6-.19.891a1.566,1.566,0,0,0-.008.421.942.942,0,0,0,.14.39c.121.19.3.367.454.564a1.587,1.587,0,0,1,.2.312.913.913,0,0,1,.086.363c0,.121-.008.256,0,.386a.77.77,0,0,0,.081.361.381.381,0,0,0,.113.121,1.036,1.036,0,0,0,.15.085.79.79,0,0,1,.271.171,1.443,1.443,0,0,1,.2.346c.052.122.093.249.137.374a2.759,2.759,0,0,0,.151.369,1.23,1.23,0,0,0,.245.331.452.452,0,0,0,.143.095.409.409,0,0,0,.148.029.9.9,0,0,0,.306-.064,3.059,3.059,0,0,1,.312-.1.533.533,0,0,1,.311.009,1.5,1.5,0,0,1,.086.351c.016.12.023.241.03.362s.015.241.033.359a1.32,1.32,0,0,0,.095.34.779.779,0,0,0,.2.271,1.218,1.218,0,0,0,.268.173,4.826,4.826,0,0,1,.578.284.71.71,0,0,1,.233.242.47.47,0,0,1,.056.264.74.74,0,0,1-.083.275,1.58,1.58,0,0,1-.182.275,4.421,4.421,0,0,1-.5.51c-.173.154-.334.288-.431.387-.176.18-.35.385-.529.582a4.314,4.314,0,0,1-.559.535,1.8,1.8,0,0,1-.3.183c-.1.048-.191.087-.285.127a2.647,2.647,0,0,0-.281.135,1.532,1.532,0,0,0-.284.207c-.161.148-.343.242-.495.368a.9.9,0,0,0-.2.225.914.914,0,0,0-.119.339,1.107,1.107,0,0,0,0,.364,1.554,1.554,0,0,0,.1.335c.09.217.216.424.318.639a2.717,2.717,0,0,0,.524-.085.479.479,0,0,1,.222.014.707.707,0,0,1,.256.161c.18.164.384.324.572.5a2.951,2.951,0,0,1,.267.284,1.843,1.843,0,0,1,.215.329,1.523,1.523,0,0,1,.131.342.807.807,0,0,1,.016.289,1.033,1.033,0,0,1-.081.279,3.256,3.256,0,0,1-.162.313,8.006,8.006,0,0,0-.388.778c-.113.261-.215.529-.32.823a3.9,3.9,0,0,0-.2.722,1.344,1.344,0,0,0-.008.354,1,1,0,0,0,.1.342,1.31,1.31,0,0,1,.114.345,3.693,3.693,0,0,1,.05.377c.012.129.023.259.041.386a1.885,1.885,0,0,0,.087.372,1.648,1.648,0,0,0,.386.493,1.864,1.864,0,0,0,.246.195l.394.089c.062-.007.124-.014.186-.017a.831.831,0,0,1,.323.033c.123.042.251.1.381.144a.745.745,0,0,0,.391.039,2.022,2.022,0,0,1,.135-.3.575.575,0,0,1,.148-.176.506.506,0,0,1,.2-.087,1.605,1.605,0,0,1,.289-.029.284.284,0,0,1,.215.115,1.238,1.238,0,0,1,.175.282c.1.217.184.468.244.594,0,0,0,.011,0,.015.071.153.114.324.306.366" transform="translate(-845.06 -271.412)" fill="none" stroke="#eaecff" stroke-width="0.5"/></g></g></svg>