<svg xmlns="http://www.w3.org/2000/svg" width="167.988" height="182.926" viewBox="0 0 167.988 182.926"><g transform="translate(0.293 0.252)"><path d="M211.149,443.119v0h0Zm.178-.011-.106.68-.206-.295,0-.219Zm-.178.011-.033-.171-.074.121-.345.027-.016-.2-.246.159.474.209h0l-.006.284.124.038.181.41-2.089,1.03-1.282.507-1.026-.292-.848.1-.729.365-.71,1.566.027.265-.794.847-.075.127.1.238-.259.228-.828.112-.237-.4.071-.213.1,0-.032-.159-.678-.238-.854.166-.609.292-.523.347-.4.448-.4,1.228-.58.925-.294,1.378.381,2.05.481.85-.4,2.754.657,1.781-.048,1.059.451,1.213-.824-1.507-.154-.07-.032.522-.169-.17.1-.168-.11-.021-.319.506.632.58.429.01.432.385h0v.312l-.206-.116-.261-.516-.447-.012-.473-.346-.431.047-.023.115.243.049.019.1-.172-.019-.06.167-.192.048.008.2-.176.08.12.178-.16.224-.425.191-.291-.005-.117.131-.147-.122-.188.18.364.287-.232.168-.123-.158-.195.085.042-.156-.13.026-.027-.309-.5.215-.18-.128-.074-.258-.611-.074-.31.121.288.128-.081.407.145-.1.054.077-.137.048.012.124-.435.143.039.2-.267.193-.232-.26-.281.033v.186l-.168.113-.207.454-.478-.04-.512-.366-.373.051-.12.192.178.1-.244-.006-.034-.391-.743.24-.249-.063-.05.3-.244-.08-.214.229.189.351h-.12l-.25.871-.208.158.012.342-.133.035-.048-.14h0l-.031.01-.1-.01-.028.236-.177.006.011.263-.522.033-.445-.241-.149-.228-.426.062.214-.2-.037-.22h0l.117-.556h.355l.242-.475.188.193.329-.032-.075-.4.2.031-.036-.4.3-.125-.015-.17.149-.092-.11-.131.345-.217-.161-.18.159-.1.05-.34-.125-.22-.2.258-.28-.308-.2.056-.066-.122-.19.091-.139-.1.174-.072-.241-.134.2-1.313-.932-.053-.254.181.061-.352-.191-.043-.027-.149-.429.079-.128-.187.033-.125.236.022.023-.152-.14-.137.19-.256-.027-.377-.414-.27-.019.2-.3-.052-.111.245h-.121l-.012-.356.2-.077-.066-.337-.314.315-.141-.2-.393-.022-.068.155.122.283-.3.146.014.136-.375.132-.023.34-.075-.169-.182.054.037-.149-.121.01-.221.12.15.119-.089.046-.147-.1-.226.16-.208-.161-.042.343-.143-.124-.025.16-.19.023.044-.715-.279-.013.091-.212-.372-.062-.226.117-.075-.186-.323.1-.1-.327-.128.2-.038-.116-.149.126-.01-.34-.12.1.037.253-.221.045.219.169.025.389-.408-.037-.2.13-.193-.192-.086.228-.108-.058-.138-.423.279-.466.137-.024-.031-.166-.6-.573.251-.251-.274-.366-.248-.023.044-.165.261-.041.027-.138.447.1-.066.441.088.265.557.065.15.3.95-.2.23.25-.031.506.241-.007.008.105.2-.173-.113-.159.131-.193-.314,0,.044-.225-.327-.092.4-.475-.033-.089-.258.133.018-.167.166-.031.074-.211.633.084-.024-.713-.238,0-.071-.222-.324-.089-.061.176.233.492-.182.119-.162-.226.022-.232-.455-.04.009-.325-.281.119-.456-.158-.23.3-.039.439-.17.023-.147-.178-.639,0-.074-.189.144-.129-.406-.31.023-.259.171-.138.163.083.013-.269.169-.2-.59.058-.244-.323-.159-.028-.226-.439.217-.785-.1-.264.391-.146.09-.948-.209.077-.367-.112.119-.277-.059-.324.13-.115.456.368.6.109.108-.114.264,0-.034.141.216.032.43-.715-.125-.132.146-.037,0-.266-.213-.163.247-.225-.093-.158-.186-.025-.033-.222-.275.032-.2-.673-.326-.331.009-.092.313.038.015-.8.3-.113.2.165.05-.2-.467-.449.118-.528-.238-.051.25-.4.443-.246.6-.1,1.49.22h0l.554.054.3.21.327-.06.475.127.506-.182.653.219.2-.255.157.342.262.1.093-.13h.222l.088-.306.331-.17.107-.609.341.013.512-.309.877.146.331-.253.553.43.351.018.352-.38.008-.413.143.022.056.256.216.029-.029-.457.115-.122.6-.259.833.171.241-.134.038-1.6.233-.318.917-.125.4-.287.863-.188.725-.4.2.234.295-.046.23.361.321-.025.513-.616.125-.409-.209-.232-.237-.064.1-.263.208-.348.5-.12.276-.357.109.19.348.015.224.327.1.508.225.1.082.262.153-.231.3.206.022.151.609.162.236-.149-.283-.221.06-.265.125-.029-.015-.315-.531-.13-.02.184-.741-.318.174-.26-.124-.255.161-.126.146.316.147.047.206-.2.079-.345.366-.181.552.3-.1.2.492-.057.61.233.151-.151.066-.572.246,0-.046-.331.491.129.316-.2.665-.112.107-.538.489.013.329-.424.269.2.25-.027.445-.523.046-.544.127-.182-.119-.121.39-.589.031-.23,1.176-.637.06-.124-.2-.246h0l.244-.257.862-.337.417-.4.776.086.1.2.368.186.146-.04,0-.373.177-.083.044.146.139-.016.02-.614.138.1.043-.088-.338-.337.153-.121.023-.3.2-.048.121-.2-.335-.064.286-.313-.132-.246.645-.766.144.212.137-.013.04.42.135-.02-.106.29.374.126.062.134-.2.239.025.222.264.249.182-.349.619-.269.15-.385-.1-.149.131-.119.262.179.227-.018.041.277.233.094.483-.2.207.055.028-.324-.119.061-.126-.154.423-.565-.325-.06-.032-.121.155-.112-.263-.012.02-.306.225-.091.469-.715.393.183.019.159.082-.3.267.053.077-.2.439-.063.015-.193.214.008.086-.173-.37-.409.192.022-.2-.2-.1.243-.135-.441.235-.122.358.083.267.306-.04-.327.149,0,.019-.127-.106-.294.079-.049.117.149.067-.071.047.242-.115-.012.011.1.205.034.086-.415.185.146.147-.233-.058-.195.166-.2.422.831.15.028-.1.161.229.406.2.063-.232-.428.271-.181.475,1.15.4.132.5-.034.313.348.235-.021.162-.166,1.034-.1.022-.452.151.095.052-.1-.115-.1.207.033-.128-.112.186.061.181-.167-.079-.148.143-.175-.146-.284.323.2.1-.241.438-.267.123.315.143-.253.239.015,0-.174-.2.027-.16-.287.4.012.022-.211.212.034-.047.192.144.143h0l.24.149-1.018,1.181-.165.506-.5.48-.627.945-1.318,1.239-.006.255-2.317,1.179-.839.576-.246.415-.683.635v.2l-.375.512-.749.807-3.464,1.769-1.368,1.064-.4.514-.148.55-.13.063.041.263.318.278.243-.068-.065.679-.247.14Z" transform="translate(-130.455 -311.403)" fill="#c85151" stroke="#fddede" stroke-width="0.5"/><path d="M515.335,191.3l.16.254-.016.231.346.487.282,0,.4-.327.17.192-.266.561-.492.071-.426.43-.407.111.205.16.2.426-.226.332.122.207.468-.242.563-.586.509-.035.511-.273-.273.559.058.188L517.4,194l.107.569.449.69-.172.372-.647.218.122.327-.377.333-.155-.047.033.2-.3.023-.166.173.271.306-.625.48.321.178.292-.053.163.324.134-.042.2-.445.3.006.4-.292.486-.018.494.287.133.311.445.037.265-.114.156.266.4.187.549-.348.465.46.618.148.677.493-.211.026-.188.218.047.282-.178.276.376.045.02.2.218.1-.212.246.063.582-.388.045-.071-.262-.3.132-.881.753-.035.282-.388.005-.288.5-.205.029-.256.3.229.587-.148.435,1.486,2.1-.145.219-.216-.119-.212.078-.5-.371-.623-.173-.07-.165.152-.114-.028-.2-.134-.029-.339-.528-.513-.169-.077.1-.495-.025-.516.486-.295-.119-1.352.178-1.131.572-.573.921-.338.209h-.4l-.441.855-.328-.146-.353.572-.45-.064-.594.842-.722.282-.371-.194h0l-.123-.315.164-.334-.17-.071-.037-.336-.138-.091.282-.167-.219-.978h0l.3.082.574-.479.624-.2.011-.5.323-.356.422.252,1.236-.4.31-.016.191.2.071-.186.64-.49-.232-.436-.056.073-.1-.135-.189.012-.136.24-.025-.245-.122.174-.1-.085.23-.49-.047-.3-.237-.086-.09-.235-.212-.132.082-.165-.132-.151.1-.1-.219-.278.169-.071-.042-.1.244-.33.6-.506.287-.527-.867-.058-1.253.127-.519.493-.753.258-.388-.189-1.631.624-.975.228-.123.233-.252.035-.225.2-.38,0-.039.114-1.274.594-.164-.293-.363.17-.4-.178-.126.071-.136-.308-.235.195.259.345.015.225-.582.288-.551.739-.6.444-.9,1.015.155.115.055.285-.358.082-.553.587-1.066.209-.808-.159-1.879.3-.581-.3-.006-.131-.253-.148-1.221-.2-.114.129.036.2-.344.165-.718-.009-.342.238-.267-.06-.438.213-.964.055h0l-.026-.732-.4-.367-.06-.628.265-.395-.172-.277.355-.016.108-.119-.353-.256-.025-.47-.2-.514-.454.124-.437-.139-.817.076-.171-.209-.244.116-.461-.584.054-.215-.105-.162.377-.469.091-.383-.066-.231-.168-.13-.191.036-.123-.261.675-.018.272.291.655.019.208.476.333.141.372-.356.409.07.886-.647.307.007.3.516.365-.109.155-.175.275.122.266-.248.34.133.253-.366.367-.146.4-.579-.438-.476.137-.409.644-.5.153.2.394-.212.4-.372.2.2.191-.21-.058-.261,1.117-.2.072-.436-.279-.256.533-.423.168-.4-.031-.217.159-.057.053-.208.622-.234.163.146.1-.2.244.164.493.007.637-.206.249.136.394-.254.47.233.43-.678-.092-.149.055-.282.916-.742.341-.848.417-.42.4-.029.088-.247.337-.241.724-.014.4-.786.474.291.379.415.118.5.422-.129.863.352-.145-.278.577.192.134.181.737.042.09.342.821.154.253-.019.164-.224.076-.454.289.077-.052-.56.275-.026.074-.288.225.079.8-.7.108.132.482-.362.436.058.706-.531Z" transform="translate(-355.404 -138.664)" fill="#c85151" stroke="#fddede" stroke-width="0.5"/><path d="M451.246,241.94l.056.353-.142.08h0Zm12.794-8.62.963-.056.438-.213.267.06.342-.238.718.009.344-.165-.036-.2.113-.129,1.221.2.253.148.006.131.581.3,1.879-.3.808.159,1.066-.209.553-.587.358-.082-.054-.285-.155-.115.9-1.015.6-.444.551-.739.582-.288-.015-.225-.259-.345.235-.195.136.308.126-.071.4.178.363-.17.164.293,1.274-.594.04-.114.38,0,.225-.2.252-.035.123-.233.974-.229,1.631-.624.388.189.753-.258.519-.493,1.253-.127.867.057-.287.527-.6.506-.244.331.042.1-.169.071.219.278-.1.1.131.151-.082.166.212.132.09.235.237.086.048.3-.23.49.1.085.122-.174.025.245.136-.24.189-.012.1.135.056-.073.232.436-.64.49-.071.186-.191-.2-.31.016-1.236.4-.423-.252-.323.356-.011.5-.624.2-.574.479-.3-.082h0l-.489.489-.507.267-.2.046-.329-.218-.24.126-.48.812-.661.471-.333.09-.138-.132-.169.31-.169-.127-.441.264-.031.22-.312.135-.048.526-.276.152-.2.293-.129-.114-.023-.534-.075.034-.516.63-.063.744-.386.114-.59.978-.078.642-.207.416.14.559-.363.2-.19.266-.231-.107-.266.307-.091-.2.106-.4-.145-.359-.121.189-.367.172.1.387-.756.559-.42.663-.414.159-.548.538.367.525.377.187.093.348-.151.226.126.221h0l-.488.4-.3.95-.178.3-.208-.011-.111.2.078.426-.128.079.076.126-.138.262-.182.132v.285l-.254.136-.173-.19-.074.064-.015.428-.179.2.165.221-.167.5.181.08-.262.055.066.086-.211.4.019.54-.221.05h0l-.37.049-.138-.109-.036.116-.242-.032-.194.137-.364-.9-.426,1.045-.38.139-.073.5-.348.047-.109.43-.261.1-.028.131-.253-.069-.081-.633-.719.009h0l-.479.015.341-.818-.237-.51v-.275h0l.114-.964.271-.5-.33-1.026.331-.132.532.443.234-.014.1-.159.244.02.074-.192-.088-.316-.118.075-.1-.069.124-.023-.075-.121-.184.023-.015-.375h0l.214-.034.12-.449.335.053-.1-.256.554.141.259-.376.786-.268-.227-.19.157-.227-.044-.3-.136-.017-.134-.292-.108.04-.254-.267-.078.043-.033-.159-.258.119-.063-.35-.176.027.442-.444.05-.348-.291.221-.172-.019-.085-.327-.32-.069-.207-.378-.19-.054.006-.257-.275-.141-.294.18-.6.057-.39.282-.043-.9.153-.366.261-.235-.353-.03-.042-.21.806-.856-.321.106-.359-.108-.258.214-.459.083-.353-.052-.394.265-.3-.336.032-.291-.323-.134-.5.38-.063.67-.291.31-.333-.22.154-.159-.033-.367-.322-.068-.424.716.17-.019-.324.334.189.024.125-.141-.025.107-.463.2-.146-.087-.488.1-.331.585-.3.149-.182-.039-.069-.3.095-.526-.761.246-.076-.054.164-.151-.168.024-.276.169.163-.419-.353.005-.141-.385-.154.028.018.19-.206-.245-.264.086-.154-.089-.182.28-.214-.044.039-.268-.351.042-.35.331-.1-.085.129-.16-.266-.143-.4.4.125-.394-.327-.365-.278.167-.184-.16-.18.025-.232.229-.811.191-.365-.107-.651.526.1.084-.078.119-.364.142.061.318-.124.19-.234.061.713.844-.842.368h0l.086-.544-.289-.557.051-.323-.166-.31.434-.785-.222-.04-.057-.111.194-.078-.2-.219v.188l-.1-.025-.108-.347-.149.016.146-.132-.034-.182-.22-.146.066-.117-.113-.18-.184-.067h0l.088-.057-.225-.09.212-.148-.2-.032.18-.134-.137-.2.117.073.07-.081-.112-.221.233.1-.046-.206.173-.06.007-.143.43-.2-.06-.117-.112.04.248-.406-.1-.179.053-.577.089-.041-.117-.251.11-.167-.111-.348h0l.031-.213.545.089,1.076-.2.244-.1-.027-.251.176-.282.5.035.306-.308.312-.037.859.648.871.215,1.954-.076.244-.259.948.095.423.163.412-.359.483.294.749-.2.363.1.656-.3.319-.4.226-.013.505.372.343.069.248-.086.11-.212Z" transform="translate(-327.265 -164.507)" fill="#c85151" stroke="#fddede" stroke-width="0.5"/><path d="M344.129,243.525l0,.022h0Zm-22.789-6.266.19-.02-.011.2.326.105.016.175.261-.062.227.437,1.864.3.406.8-.1.768-.181.31.652.287.091-.1.12.141.207-.153.353.32.4.06.092.13-.061.154.53.188-.217.2.991-.072-.106.351.19.341.709.111.419-.319.263.059,1.035-.578.572.49-.012.906.487.332.191-.045-.007.263.562-.287.07-.242.39-.1.629.242-.013.144.321-.053.143.169.2-.184.427-.016,1.229.52.163.264.919.479.2-.233.389.126.347-.147-.013-.154.218-.023.016-.174.472-.1.169-.353.154.01.112.867.407.3.536-.045.055.238.266.016.163.151.16-.385.559-.207.8.38.263-.081.148-.268.32.177.187-.029.133-.364.337.209.226-.321.221.438.371.165.035.176h.184l.026-.173.344-.293.05-.628h0l.224.158.131-.169.36-.094.012.126-.311.267.084.119.186-.027.016.186.222.162-.214.178.041.119.171-.037.139.174-.444.462-.4.184-.427.492-.185-.013-.139.235-.28-.071.023.451-.173-.02-.039.1-.1-.141-.4.3-.07.695-.15.149.109.259.5.125-.157.148.155.088-.069.287.194-.01.164.3.5.217-.074.342.107.025-.19.292.084.319.212.208-.014.149-.245-.036-.115-.154-.019.1-.1-.054,0-.141-.343-.072-.155.2-.113-.074-.09.321-.169.005-.144.193-.156-.066-.127.251.038.172.132.036-.028.252.415.346-.193.275.079.222-.28-.135h0l-.025-.163-.432-.065-.135-.34-.441-.008-.154-.234-.187.111-.044.313-.333-.086.081.207-.132.137,0,.293-.459-.208-.125.142-.266-.114-.185.847-.232-.1-.224.1-.369.413.065.876-.041.172-.209.018-.205.21.1.131L338.1,255.8l-.688-.227-.183.355.075.3-.2-.18-.125.106-.1-.112-.21.023.031-.189-.164-.159-.15.011-.11.266-.361.1-.374-.28-.322.441-.234.109-.1.584-.13.02-.078.335-.209-.066-.371-.406-.409-.115.19-.293-.048-.313.108-.163L333.6,256l-.267-.226-.128.168-.353-.116-.051-.641-.217-.259-.272.031.066-.241-.573.3-.415-.43-.575.009-.232-.15-.229.689-.269.166.087.663-.5-.133-.047.238h-.18l-.106.256-.182-.165-1.166.151,0,.185-.751.216.107.21-.457.316-.137-.048.061-.334-.131.156-.359.018-.125.228-.4.024-.1-.571-.262.065-.01-.371-.213-.113-.666.46-.118.394-.491-.117-.039.179-.253.048.023.231-.183.329-.223-.324-.212.046.029-.175-.231-.192-.265-.039-.119-.174.088-.049-.213-.124.006-.188.184-.138-.191-.4-.136.011.062.078-.131.133-.127-.141-.1.113-.167-.127-.088.052.037.231-.19-.188-.034.223-.173.147-.36-.824-.312-.162-.364.568-.346.095-.865.176-1.249-.139h0l.247-.625-.251-.161.093-.186-.188-.155-.005-.2-.153.029-.379-.321.02-.308-.208-.237-.058-.884-.147-.043.224-.676-.126-.362.082-.111.221-.051.12-.268.292-.017.453-.416.141.06.333-.135.159-.244.222-.021-.079-.045.111-.112.054.063.163-.155.168.144.214-.146-.028-.131.252-.034-.161-.184.234-.05.377-.538.912-.5-.039-.369.142-.158.308-.067.264.175.049.215.473.052-.011-.1.2.033.073-.462.278-.026.125.313.268-.1.226.233.207-.041.064-.268-.026.214.12.056.019-.333.429.051-.172-.206.113-.213-.364-.276-.169.02.01-.276-.6-.094-.086-.248-.325-.178-.315.079-.541-.342-.2.058.006-.217-.436-.453-.24-.02-.177-.29-.038-.61.388.124.192-.26.265.1.128-.455-.059-.364-.568-.067-.349-.409-.166.089-.455-.1v-.434l.345.061.066-.149.421-.074.2-.36,0-.277,1.089.279.813-.178-.07-.282-.438-.084-.158-.443-.29.154-.076-.066-.054-.113.158-.331-.064-.345-.182-.055-.231.234-.213-.136.052-.205-.23-.085-.061.152-.217-.094-.025-.258-.13-.07.124-.124-.033-.532-.286-.154.171-.173-.465.016.225-.692-.139-.223-.323-.157.158-.288-.051-.136-.355.091-.147-.075.169-.182h0l.285-.215-.19-.049-.028-.236.36-.135.55.1.39-.36.013-.177.116.023Z" transform="translate(-230.238 -172.439)" fill="#c85151" stroke="#fddede" stroke-width="0.5"/><path d="M178.764,159.116l-.146.11-.389-.177-.2-.428.393-.26.057.147.154-.058-.017.128.2.018h0Z" transform="translate(-129.4 -115.107)" fill="#c85151" stroke="#fddede" stroke-width="0.5"/><path d="M269.988,316.84l.582.11.127.259.338.089.206.815.191.087-.085.134.767.265.194.413-.084.452.344.519.917.228.015-.371.4-.062.09.55-.3.555-.021.463.233.177.211-.132.154.275-.209,1.194.547.354.106.732.24-.372.155.294.311-.077.041.172.526-.086.106.226-.11.462-.231.031-.253.6-.178,0-.165.173-.027.411-.4.214-.4-.013-.431.416-.014.3h0l-.128-.007-.023.123.374.236-.214.6-.819.148-.619.625-.342-.017-.27.129-.5.747.235.237-.354.063-.019.567.1.193.27.132-.166.24.074.174-.3.072.031.234-.261-.127-.136.2.1.254-.368.41.371.3-.182.125-.066-.272-.346.225-.264.722.089.317.249.274.051.314-.159.052-.6-.216-.091.385.117.164-.321.157-.161.766-.4.212-.453-.11-.483-.348-.439.162-.382-.058-.135.118-.209-.126-.665.064.052.292-.2.188.074.212-.4.584-.385.233-.152.488-.249-.016-.081-.22-.314-.131-.066.768.189.823-.253.43.323.269.043.35.126-.127.109.29-.2.551.2.321-.138.119.049.374-.2.352.068.518,1.186.451.191-.088.433.06-.04.591.1.137-.085.242-.326.034-.347.331-.079-.313.127-.256-.864-.234-.306.129-.282.315-.622-1.024-.3.122-.689-.438-.191.243-.475-.562-.428.4-.167.524.07.256.633.324.113.359.456.077-.127.482.049,1.005-.135.223.4-.049.156.522.364.038-.1.313-.146.024.242.256-.18.329.155.647-.109.2.229.055.071.163-.1.184.177.277.082.63-.382.092-.066.631-.183.2-.273.011-.016.264-.256-.041-.378.171-.116.373-.355-.13.017.177.378.207-.044.167-.219-.031-.067.216-.222.093-.548.614-.1.4-.5.037,0,.17-.373.059-.374.254-.132.454.1.16-.08.391-.2.385.02.352-.229.566-.248-.055-.051.472h0l-.749-.033-.54-.244-.492.4-.235-.021-.506-1.753.17-.525-.639.214-.079-.391.11-.058-.217-.162-.181.409-.362-.033-.007-.284.314-.212-.249-.29-.162-.487.059-.157-.2-.062.045-.1-.275-.219-.1-.281-.853-.66-.81.252-.425-.795h0l-.145-.253.2-.031.411-.357-.462-.635v-.354l.311-.53.016-.4.353-.288-.019-.3.307-.133.221-.449.527-.4.242.569.353-.117.1.261.347-.02.548-.45-.326-.4.6-.237-.074-.324-.193-.061-.1-.2-.35-.034-.26-.244-.367-.024.051-.486-.721-.5.016-.272-.419-.033.051.318-.147-.125-.33-.01.016-.132.2.036.376-.356-.085-.184-.429-.043-.008-.162.214-.123.21.152.228-.019.144-.343,0-.479-.033-.269-.242-.177-.6-.031-.045-.115.16-.167-.178-.314.731-.17.179-.227.433-.164-.182-.378.208-1.273-.314-.052-.317.167-.173-.2.149-.23.415-.177-.2-.5-.021-1.033-.493.011-.182-.475.135-.166-.08-.371.137-.465,1.018-.475.215-.3-.094-.2h0l.421-.869-.12-.706.053-.771.14-.285.39.065.117-.354.028-.807-.1-.131.156-.025.372-.978.227.038.074.338.2-.02.026-.219-.188-.11.257-.112.021-.6.373-.108.167-.3-.022-.908.4-.3.219.239.326-.3.163.11.108-.264.319.118.1.4.159-.235.135.074-.057-.165.239,0,.224-.29.553.006.045-.157.144-.029.045-.391.289-.11.091-.165.1.175.127-.1-.092-.391.216-.249-.134-.42.049-.244.5-.108.021-.15.459-.262-.125-.522.112-.229.492-.014.246-.229.279.081.2-.237-.049-.535.269-.355-.02-.255-.275-.227-.154.037-.071-.261-.3.124-.178-.063.008-.222-.228.065-.342-.743-.51.13-.129-.215-.392-.135-.246.275-.22-.051-.15.258-.121-.1-.008-.272-.164-.028-.042-.211.188-.071.06-.381.171,0,.253-.382-.076-.2-.2-.107-.052-.374-.184-.143.069-.334.292-.117.351.417-.022.116.364.179.4-.078.363-.3.2.126.286-.064.255.267.669,0,.237-.207-.026.132.154.157.167-.094.417.114.753-.048.321.17.162-.062-.1-.187.335.008.378-.211.026-.322.524-.09.341-.256h0l.749.546.845-.014.588-.269.152-.428.343-.212.074-.312Z" transform="translate(-183.439 -230.3)" fill="#c85151" stroke="#fddede" stroke-width="0.5"/><path d="M52.071,388.881l.03-.494.358-.9.168.179.429-.059.234.155.076.365-.476.212.453.162-.013.185-.151,0v.186l-.128,0,.25.333h0l-.1-.055.019.086-.294.083Z" transform="translate(-37.849 -281.654)" fill="#c85151" stroke="#fddede" stroke-width="0.5"/><path d="M183.059,204.8l.174.206-.117.262.159.05.344.491.22-.022-.07.466.143.233-.242.275.251.377h0l-.544.159-.1.134.085.229-.428.133-.271-.221-.061-.335-.2-.172-.135.033-.244-.18,0,.185-.212-.086-.509.121-.239-.313-.015-.225.113-.006.132-.3h.32l-.094-.128.212-.314-.07-.754.51-.105.253-.313.3.125.061.155Z" transform="translate(-131.597 -148.774)" fill="#c85151" stroke="#fddede" stroke-width="0.5"/><path d="M100.857,403.054l-.174.421-.265-.191-.451-.09-.045.191-.244-.261.042-.15-.161.133L99.467,403l.077-.247-.093-.25h0l-.262-.405.122-.09.218.133.036-.125.172.007,0-.162.139.16.036-.195.231-.023.094-.207.031.34.277-.075.1.187-.118-.024-.273.356-.192.014.032.447.063-.106.18.105.144-.1-.025-.208.367.059.105.105-.185.245Z" transform="translate(-72.097 -291.907)" fill="#c85151" stroke="#fddede" stroke-width="0.5"/><path d="M115,502.69l.874-.08.186-.355.1.286.36.047.137.578.168.2.167.039.561-.272h0l.271-.01.1-.172.132.19.1-.1.135.073.076.265-.081.26.188.237-.177.217.15.276v.324l.261.127.076.441-.481.209.281.2.087.232-.185.242-.064.28.137.332-.232.291.048.143-.333.268-.227-.176.019.249-.206-.068-.24.147h0l-.311-.135.06-.235-.5-.639-.314-.107.21-.367-.306-1.1-.122-.228-.186.058-.333-.3.538.081.114-.108-.273-.221-.351-.056.1-.2-.233,0-.164-.711Z" transform="translate(-83.593 -365.071)" fill="#c85151" stroke="#fddede" stroke-width="0.5"/><path d="M8.241,316.958l.168.194-.117.134-.276-.189Zm-2.806-.112.057.089-.354.262.049-.251.248-.1Zm4.987-.717.1.157-.4.114.041-.176.251-.095Zm-8.3-4.482.308.107.016.156-.243.066.01.1-.2-.163.17-.062-.055-.2Zm.176-.378.165.127,0,.165-.227-.154-.056-.125.121-.012Zm-.664-.662.126.153-.064.331L1.554,311l.021-.222-.23.208-.051-.075.344-.3Zm.053-.727,0,.222-.291.335.029-.309Zm-.148-.175.059.149-.149.09-.033-.186Zm-.559-1.128.226.127.162-.063-.2.879-.432.445L.5,309.912l.1-.052L.5,309.752l-.178.07.046.1-.165.005.027-.106-.161.064L0,309.708l.1-.146.371-.012.343-.464.165-.509Zm-.223.039.028.4-.253.182,0-.532Zm1.012-.2.116.478-.454.1.11-.217-.049-.2Zm-.636-.2.157,0,.08.323-.339-.023L1,308.378l.142-.161Zm.324-.455v.406l-.37-.039-.156.192.016-.31Zm.518-.015.128.13.153.038-.369.34-.149-.061.016-.136.251-.186Zm-.288-.345.208.428-.429.475.145-.519-.074-.1-.158.061.113-.27.2-.073Zm-.3-.017-.114.379-.373.211-.041.513-.1.076-.1-.109-.218.2.006.633-.162.068-.262-.313.238-.274-.122-.374.124-.009.243-.494.329-.017.144-.376.206.077ZM16.7,303.076l1.09.46.3-.287.183.2.6-.329.734.02.257.236.786-.235.073.307.267.111.1-.447.249.049.138.256.619-.5.187.055,0,.279.46.241.259.012.111-.128.486.151.222-.058-.159.2-.267-.083-.162.125.252.263.359-.089h0l.162.327.321-.024h0l-.033.275.16.336.246-.017-.041-.254.252-.356.251.216.622.1-.022.239.223.365.775-.029.319.248.386-.237-.161-.124.212-.547.071-.074.219.108.248-.186.08.431-.134.2.486.275.234-.156.117.067-.117.192-.1-.059-.07.264-.2-.04L28,306.2l.18.291.627.253-.142.293.268.256.258-.1.237-.291.015-.26.219-.082-.022.252.252.232-.05.38.112.373-.358.433,0,.466.076.13.255-.079.336.44.167.035.028.541.365-.241.477.2-.135.468.122.274-.147.323.117.075.291-.1.125.269.221-.287.1.15.281-.076.355.684.255-.027.048-.2.136-.023.113.247.239.033.068.226.327,0,.184.164-.039.565.32.166.14-.248.22.024.241.433-.032.147.23.2h0l.274.514-.167.1.117.2.219.21.292-.153.157.407-.433.795-.108.541-.679-.008-.641.79-.495-.208-.184.264.047.109.242-.11-.041.266.144-.014.113.291.122-.222.1.152.146-.074.024-.209.079.252.282.025.23.239-.207-.034-.177.257-.116-.056-.09.283-.325-.064-.128-.244-.229.071-.073.461.185.26-.09.135.269.056.043.712.14-.048.149.117-.475.439.321.179-.045.2h0l-1.918.807.2.2-.079.171.373.386-.061.34-.56.123.211.165.208.631,1.195-.392h.666l.125.174.17-.116.183.089.2-.182.131.148-.005.28-.446.2-.118-.1-.037.127-.536-.028-.114.1L33.624,323l-.107.384-.456.168-.091-.063-.025.645-.323.216-.342-.031-.055.587-.463.029-.028.177-.317-.085-.257.12-.133-.267-.142.05.41.365.53-.035-.06.359.187.277.188-.075.05.163.515.079-.065.264.286.613.025.6-.164.115-.2-.037-.126.216-.234,0,.13.164-.04.314-.515.3-.27-.067-.173.1-.194-.1-.169-.349-.394-.23-.228.125-.09-.39-.165.041-.079.279-.213.136.215.291.231.07.006.247.108.019-.406.769-.22.148.184.233.037.891-.318.083-.039-.126-.084.091-.238-.053-.126.352-.416.168h0l-.116-.109.185-.245-.105-.105-.367-.059.025.208-.144.1-.18-.105-.063.106-.032-.447.192-.014.273-.356.118.024-.1-.187-.278.075-.031-.34-.094.207-.231.024-.036.194-.139-.16,0,.162-.172-.007-.036.125-.218-.133-.122.09.262.405h0l-.548-.082-.228.244,0,.251-.19-.023v.143l-.367-.07h0l.1-.949.376-.482.362-.791.073-.53-.6-1.895.01-.3-.124.06-.279-.7.27-.109-.373-.044.089-.425L25.62,325l-.046.414-.181.075-.051-.9-.175-.421.215-.555.408-.511-.3.19.165-.533.176-.072-.124-.067-.329.311-.162-.37.176-.4.416-.214.494.039.273-.14-.316.029-.249-.163-1.136.155-.173-.228.189-.212.168-.545-.3-.206-.089-.6.259-1.209.2-.309.375-.1.61.271.313-.45.4.137.14-.065.07-.27-.1.195-.168.024-.132-.246-.524.318-.367-.046-.306-.285-.532.256-.022-.189-.294.473.038-.246-.125-.01-.2-.388-.24-.112.11-.242-.189-.167-.1.086.191.132-.121.233.232.093.016.435-.1.172-.248-.443.033.409.167.229-.087.113-.116-.206-.069.361L23.657,319l-.259,1.224-.211-.726.256-.151.065.067.01-.281-.37.33-.011.233-.075.429.186.3.071.982.237.69-.473,1.168-.556.661-.1.3-.187-.121.121.164-.087.186.181.3-.546.259-.06.133.017-.327-.194.4-.9.3-.132.092.057.118-.524.107-.855.433-.29.01.006.159-.432.322-.357-.026.038.1-1,.337-.305.145-.035.127H16.61l-.078.128-.667-.026-.414.191h0l-.2-.269h0L15.2,327.4l.128,0v-.186l.151,0,.013-.185-.453-.162.476-.212-.076-.365-.234-.155-.429.059-.168-.179-.358.9-.03.494h0l-.338-.039-1-.507-1.941-1.545-2.211-2.609.292-.3-.151-.443-.075.111-.279-.039.238.226-.125.056.164.133-.108.2-2.7-2.489-1.571-1.823-.122-.461.278-.633.473-.408.1.052-.237.242.143.227.716-.172.059.136-.265.551.427.34.5-.206.079-.239.489.087.376-.125.221-.318-.146-.3.3.191.065.3.53-.021.054-.215.2-.012-.006-.293-.149-.048.322-.143.094.267L9,317.07l.217.258.221-.335.194.047.348-.384.15.081-.027-.212.494-.206.149.1.559-.029.458-.689.057-.44.287-.15.289-.7.4-.384.4-.889-.321.08-.2.2-.084.513-.224.111-.629-.306-.1.142-.333.088-.221-.112.051.225-1.908.46-.262.192-.267.493-.359-.157-.241.041-.265-.207-.47.118-.67-.343-.9-.061-2.189-1.424-.316-.081-.959-.832-.04-.118.5-.231-.178.021-.022-.5-.176-.213-.268-.035.008-.2L2,310.977l-.191-.281-.078-1.038L1.8,309.5l.114.016.024-.226.618-.422.192-.316.405-.221-.116-.087-.64.122-.45.506-.064-.422.179-.068.149-.282.518-.233-.243.024-.142-.174-.043.122-.17-.01-.123-.146.054-.1,1.158.007.134-2.085.307-.09.122.629.228.079.341-.508.3.319.528-.271.611.213.632-.261,1.091.136.569-.143.709.646,1.578.054.335-.166.341-.615,2.606-.815.211.124-.227.352.088.216-.075.363.463.171.86.015.505-.216-.051-.212.427-.349.221-.09.279.083.484-.343-.073-.184-.635-.069.043-.509-.1-.117.127-.562.5-.316Z" transform="translate(0 -220.18)" fill="#c85151" stroke="#fddede" stroke-width="0.5"/><path d="M156.429,102.175l.292-.46-.155-.323.091-.45-.221-.386-.452-.386.076-.407.338,0,.45.308.78-.571.066-.246.821-.19.216-.488.667-.566.442.047.449-.2.2.018.258.3.588-.116.146-.48.131-.043.14.13.146-.067-.142.622.234.3.187-.013.231.551.463.3.211-.069.226.18.352-.048.056.454.158-.117.311.243.061.208.111-.076.268.152.13.233.164-.037.177-.411.387.163.168-.169.2-.006.368-.385.4-.107.068-.182.27.1.444.454-.164.277.493.248.19.362.2.064-.068.5.453.726.3-.037-.011-.3.18.077.16-.258.161.135.178-.25.346.067.473-.3-.046-.17.479-.164-.047.612.147.332-.527.311.014.328-.118.145.182.218.412-.365.162.122h0l.2.094-.04.282.461.257-.313.45.012.463-.154.255.573-.024.306.212-.107.407.132.248.289.1.478.673.226.053-.456,1.394.191.2-.076.152.132.332.259.015.294.5-.712.652.057.225.185-.039.266.255-.109.346.29.134.01.343.445.476h0l.05.228.337.315.125.42-.716.054-.3-.267-.135-.388-.843.07-.076-.182-.223-.1-.333.2-.383.02-.149-.271-.141-.1-.125.081-.236-.289-.331.018-.028.149-.139-.035-.208.244-.485.023-.343.273-.331.037-.09.2-.34-.16-.385.161-.255.491-.241.129.141.361-.165.256.119.108-.3-.157-.167.117.063.249.286-.01-.036.436-.256-.151v.343l-.321.408.3.387-.044.165.261.147.017.3-.3.14.185.236.237-.005.042.2-.065.145-.687.4-.56.143-.1.171h0l.068.133h0l-.183-.085-.189-.343-.131.241-.4.028.211-.212-.016-.165-.285.309-.312-.287-.2.055-.337-.2-.281.027-.1-.3-.311-.1-.112-.172.263-.215-.033-.606-.429-.362-.247-.071-.118.088-.14-.233.054-.248-.108.1-.145-.083-.3-.574-.284.177-.21-.169-.032-.23-.231.16h0l-.327-.381-.586-.273-.063-.33.153-.379-.208-.117.006-.369.258-.2-.054-.095-.259.072.12-.232-.178-.2-.2.166.013-.192-.109.145-.022-.139-.147.065-.125-.247-.2.184.1-.155-.395-.572-.092-.337-.023.173-.248.089.119.332-.233.072v.154l-.7.084-.037-.233-.179-.137.106-.351-.862-1.564-.463-1.15.284.018-.44-.913-.63-.3-.54-.454-.231-.106-.291.075-.113-.106.475-.562-.238-.139.013-.335.651-.265.615-.716.505-.255-.464-.619Z" transform="translate(-112.482 -70.894)" fill="#c85151" stroke="#fddede" stroke-width="0.5"/><path d="M144.617,155.311l.231-.16.032.229.21.169.284-.177.3.574.145.083.108-.1-.054.248.14.233.118-.088.247.071.429.362.033.606-.263.215.112.172.311.1.1.3.281-.027.337.2.2-.055.312.287.285-.309.016.165-.211.212.4-.028.131-.241.189.343.183.085h0l.1.091-.124.4-.249.192-.306.622-.284.133-.146.33.094.077-.823.389-.042.306-.474.635-.159.746-.2.148.15.428-.33.694.138.315-.142.128.312.6-.078.207.12.137-.171.086.018.177.194.094-.14.412.083.194-.108.121.084.281-.1.5.527.654-.137.33.178.337-.225.094.029.151h0l-.273.165-.061-.155-.3-.125-.253.313-.51.105.07.754-.212.314.094.128h-.32l-.132.3-.113.006.015.225.239.313.509-.121.212.086,0-.185.244.18.135-.033.2.172.061.335.271.221.428-.133-.085-.229.1-.134.544-.159h0l.783.622.113.36-.174.132.183.2-.017.172-.146.071.423.143-.146.117.02.182-.171-.066.017.175.287.023-.263.141-.023.4-.081-.065-.054.143.058.272.321.33-.141.163.153.068-.1.168-.288-.007-.059.309-.264-.07v.241l-.418,0-.363.343h0l-.076-.062-.176.2-.217-.234-.144.24.069-.154-.172-.045,0,.154-.143.1-.5-.282-.1.272.267.093.068.164-.49-.021-.132.547-.208-.116-.181.107-.124-.264.192-.009-.174-.195.113-.659.131-.01.07-.55-.113-.038,0-.472.247-.95-.636-.537-.281.1-.056.353-.8.393.051.5-.349.06-.347.255,0-.445-.485-.069.251-.1-.281-.185.07-.122.211.034-.154-.313-.539.108-.234-.255-.325-.009.438.327-.333.178.327.174-.076.248-.252.065-.087-.214-.176-.078-.422.076.209.179-.337.212.14.17-.075.375.184.1-.032.228.173.149-.288.217-.485-.4-.22.133-.5-.109.082-.289-.278-.049-.03-.106.085-.117.141.092.136-.31-.174-.106.2-.059-.117-.135.229-.037-.027-.116.173-.126-.114-.1-.178.247-.014-.191-.263-.086.524-.515.221.032-.007.151.159-.07-.273-.31.045-.139-.239-.114.043-.255-.366-.244-.185-.328-.19-.161-.68-.091.045-.326-.853-.576-.063-.367-.356-.081-.153-.886-.174-.244.085-.32-.265-.587.283-.322-.031-.232-.437-.038-.025-.316-.284-.037.089-.381-.2-.093.226-.3-.028-.48-.215.048-.073.187-.173-.064.025-.378-.548.384-.249-.221-.41.275-.172-.037-.218-.359-.279.1-.217-.067-.148-.544-.492-.259-.483.316-.609-.108-.048.27-.263.019.005-.223-.223-.372-.152-.042-.013-.162.078-.112.206.052.2-.451-.274-.24.222-1.249-.107-.1-.348.179-.308-.018-.039-.288.5-.516-.114-.244-.164-.034.08-.236h0l.731.256-.041-.118.291-.31.19.049.441-.2.277.222.182-.061.022.194.174-.067.424.613.432-.149.11-.238.111.277-.131.157.148.151-.1.131.365.17.008-.256.154-.125.278.572-.213.177.009.247-.214.165.088.215.274.155.013.4.415-.144.048-.134-.137-.143.213-.4.187.075-.086-.228.248-.115.374-.637.386.316.255-.038.071.153.254-.025.069-.177.412.119.048-.353.376-.111.14.121.188-.034.287.431.489.1.3-.163.1.062.24-.39.222.062.718-.48-.328-.129-.1-.265.215-.1-.074-.478.14-.071-.1-.072.324-.441-.368-.2h.122l-.046-.158.27.264.41.072.149-.129-.132-.143.367.144.067-.2-.118-.169.167-.126.24.673.222.024.059.136.308-.147.125.157.139-.034.147-.168.07-.665-.2-.061.044-.1-.16-.17-.294.195.086-.251.356-.038.37-.367.232-.046.134-.178-.155-.037-.064-.189.33-.3.289.179.137-.146.273.317v.176l.269-.192-.22-.349v-.289l.18-.223-.2-.149.163-.395-.314-.272.021-.258-.157.157-.086-.2h0l.048-.52h0l.107-.192-.109-.267-.336-.294Z" transform="translate(-95.539 -112.773)" fill="#c85151" stroke="#fddede" stroke-width="0.5"/><path d="M317.872,293.234l1.249.139.865-.176.346-.095.364-.568.312.162.361.824.173-.147.034-.223.19.188-.037-.231.088-.051.167.127.1-.113.127.141.131-.133-.062-.078.136-.011.191.4-.184.138-.006.188.213.124-.088.049.119.174.265.039.23.192-.029.175.212-.046.223.324.183-.329-.023-.231.253-.048.038-.179.491.117.118-.394.665-.46.213.113.01.371.262-.065.1.571.4-.024.125-.228.36-.018.131-.156-.061.334.137.048.457-.316-.107-.21.751-.216,0-.185,1.166-.151.182.165.106-.256h.18l.047-.238.5.133-.087-.663.269-.167.229-.689.232.149.575-.009.415.43.573-.3-.066.241.271-.031.217.259.051.641.353.116.128-.168.267.226.336-.052-.108.163.048.313-.19.293.409.115.371.406.21.066.078-.335.13-.02.1-.584.234-.109.321-.441.374.28.361-.1.11-.266.15-.011.164.159-.031.189.21-.023.1.112.125-.106.2.18-.075-.3.183-.355.688.227.264-1.228-.1-.131.205-.21.209-.018.041-.172-.065-.876.369-.413.224-.1.232.1.185-.847.265.114.125-.142.459.208,0-.293.132-.137-.081-.207.333.086.044-.313.187-.11.154.234.441.008.135.341.432.065.025.163h0l-.063.818.574.4.512.622.039.209-.483.275.054.18-.176.01.051.185-.126.185-.11.007.013-.155-.111.138.124.175.349.1-.081.3.153.1-.165.2.1.089-.165.012.213.106-.129.2-.224.073-.45-.193.211.231-.064.341.066-.123.093.1-.218.5.145.05-.307.648-.263.073-.166.287-.261.025.011.194.314.16-.017.228-.687-.037.218.168-.219.14.04.135-.472-.188-.014.4.11.077-.159.164-.279.033.138.169-.579-.174-.164.083-.072-.053.1-.167-.54-.064.135.471.173.065.016.358-.138.16-.127-.214-.031.507-.138-.029-.172-.063.04-.084-.37-.08.2.3-.1.158-.141,0-.9-.44-.174.128-.237-.22-.113.11-.023.114-.288.206-.16-.126.154.44-.158.461-.308.061-.037-.1-.216,0-.584.146-.36.264-.508,0v.128l-.335.155-.131.258-.024.291.1.086-.411.243.081.1-.082.052-.123-.132-.2.135-.106-.1.081-.212-.1.086-.431-.107,0-.592-.56-.1-.206.2.208.363-.591.244-.445-.1-.018.376.188.246-.168.036.067.256-.3.378.03.424.148,0,.329.4.7-.088.063.218.506.159.077.263.357.3.491-.133.542.242.132-.128.464.03.085.147.16-.13-.125.267-.193.062-.081-.094-.215.162.173.166-.173.225-.1.521.517.466.187-.119.45.293.193.606.619.021.221.456-.054.151-.251-.007.1.313.467.181-.084.443.326.188,0,.26-.4.017-.026-.091-.011.16-.056.151h-.138l-.051.015-.253-.024h0l-.41-.111-.032-.174-.312-.083-.071-.143-.264,0-.185-.265-.352.109-.029.135-.461-.272-.417-.62-.986-.244-.394-.488-.094.267-.3.129-.09.272.316.2.071.305-.162.228.157.054-.069.121.2.023-.42.389.326.36-.15.471-.331.555-.174.088-.039.236-.827-.143.155-.54h.245l-.164-.209-.689.384-.211-.257-.306.1-.294-.075-.83-.445-.178.025-.029.216-.2-.033-.131.111-.4.66-.115-.265-.219-.155-.009.124-.087-.137-.209.025-.134-.2-.295-.07-.238.19-.128-.029.251-.169.268-.991.251-.113,0-.147h-.149l.029-.167-.108-.046-.066-.8-.617.245-.042-.076-.306.2-.1-.156-.251.1-.142-.127-.315.03-.051.169-1.242-.033-.286.087.005.138-.17.028-.125.188-.783.071-.244-.226-.3.012-.238-.18-.1-.433-.757-.31h0l.014-.3.431-.416.4.013.4-.214.027-.411.165-.173.177,0,.253-.6.231-.031.11-.462-.106-.226-.526.086-.041-.172-.311.077-.155-.294-.24.372-.106-.732-.547-.354.209-1.194-.154-.275-.211.132-.233-.177.021-.463.3-.555-.09-.55-.4.062-.015.371-.917-.228-.344-.519.084-.452-.194-.413-.768-.265.086-.134-.191-.087-.206-.815-.338-.089-.127-.259-.582-.11h0l.448-1.034-.149-.305.432-.315-.123-.246-.17-.031-.107-.3.066-.287Z" transform="translate(-230.324 -209.369)" fill="#c85151" stroke="#fddede" stroke-width="0.5"/><path d="M105.59.329l.326.383.652-.027.462-.028.408-.329.435-.164.435.219.462.685.544.794.707.821.307.613.924.6.9.438.761.712.9.3.707.739.435.383.734.082.625.685.027.493-.136.411.19.52.326.493.734.219h.9l1.006.3.6.548.245.712.272.493.951.11,1.093-.5.945-.236h.761l.552-.876.625-.548.734-.164.6-.247.544-.411.951-.082.788.247.489.274.326-.192V8.089l.3-.356.489-.137.679.548.353.411.435.11.843.192.652.192.544-.247.38-.137.353.575.326.548.462.246.571.411.163.438-.136.466.081.493-.027.356-.244.466-.027.329-.272.383-.054.411.027.712-.217.548-.217.52-.163.383-.109.6-.408.219-.446.2-.571.274v.548l-.217.356-.516-.028-.571.028-.272.246.054.3.245.438.139.574-.238,1.027-.56.616-.34.137-.544-.137-.612-.205-.374.171-.544.1-.323.1-.136.325.119.479.2.428.238.394.374.616-.1.377-.289.257-.408.171-.068.377.051.445-.131.2.844.781.048.461.632.256,1.283.085.032.213-.346.8-.014.353.55.613.129.589.355.293.177.607-.108.431-.557.145-.777.673-.308-.247-.317.085-.437.316-.126.629-.316-.079-.412.275-.357-.165-.763-.735-.1-.629.1-.207-.2-.666-.523.319-.164.287-.462-.036-.339.266-.188-.043-.231.159-.008.3L125.7,31.6l-.412.365-.182-.218.118-.145-.014-.328.527-.311-.147-.332.047-.612-.479.164.046.17-.473.3-.346-.067-.178.25-.161-.135-.16.258-.18-.077.011.3-.3.037-.453-.726.068-.5-.2-.064-.19-.362-.493-.248.164-.277-.444-.453-.27-.1-.068.182-.4.107-.368.385-.2.006-.168.169-.387-.163-.177.411-.164.037-.13-.233-.268-.152-.111.077L119.1,29.1l-.311-.243-.158.117-.056-.454-.352.048-.226-.18-.211.069-.463-.3-.231-.551-.187.013-.234-.3.142-.622-.146.067-.14-.13-.131.043-.146.48-.588.116-.258-.3-.2-.018-.448.2-.442-.047-.667.566-.216.488-.821.19-.066.246-.78.571-.45-.308-.338,0-.076.407.452.386.221.386-.091.45.155.323-.292.46-.39.606-.334.073-.2.4-1.043.47-.16.494-.063-.232-.129-.05.026-.153-.327.107-.53-.089-.725-.461-.04-.13-.281.067-.325-.444-.263-.082-.327.3-.823-.329-.783.077-.321-.858.194-.319-.149-.412.268-.827-.315.115-.159.444-.473.116-.324.2-.788-.082-.38-.274-.571-.274-.435-.411-.68-.246-.571-.411h-.87l-.19-.411-.3-.274-.38-.329.163-.684-.244-.493-.082-.849.3-.356-.217-.876.136-.329.027-.411-.408-.411.027-.383.272-.329-.218-.849-.408-.411.027-.794-.081-.641-.272-.684.109-.685V18l.353-.383.6-.164.462-.192.027-.52.353-.63.38-.055.924-.027.326-.247.217-.821.245-.52v-.548l-.489-.493-.679-.3-.544-.164-.326-.247-.19-.411.109-.438.38-.247.163-.329-.272-.6-.571.027-.652-.082-.544-.164-.951-.082-.516-.476-.244-.493-.19-.712-.734-.356-.843-.192-.544.356-.6.027-.218-.329-.027-.6.136-.3-.136-.438.109-.438.272-.63.652-.465.68-.575.625-.685.6-.767.245-.767.543-.356.843.082,1.06.11,1.2.055.571-.137L99.61,1.7l-.456-.253.226-.327.555-.077.489.438.707.164.353-.438.489-.11.462-.219.38-.192.6-.3.408-.329.6-.055.462.082Z" transform="translate(-67.405)" fill="#c85151" stroke="#fddede" stroke-width="0.5"/><path d="M123.868,460.777l-.169-.122.212-.045-.017-.235.422-.211.131-.192.13.264.241.011.415-.2.14-.419-.256-.047.169-.235.11.237.1,0-.113-.289.448-.83-.194-.1-.264.129-.125-.106.38-.344.312.139-.019-.356.155-.246-.056-.255-.461-.157-.007-.138-.388-.067-.111.142.085-.14-.147-.2.014-.323.1-.068.106.155.043-.176-.151-.037-.022-.309-.243-.041.02-.26-.178.159-.089-.113.187-.051-.054-.246.216.254.087-.307.207-.022-.017.109.156.065.078-.3.394-.156.028-.334.118.2.305-.039.129.485.356-.142.037-.185.272.014-.171-.2.2-.224.012-.241.9-.332.394.005-.068-.514.3-.131.018-.165-.23-.121.065-.092.526,0,.009.1.335-.138.29.45h.278l-.037.189.187.01.383-.2.033-.482.325.013.283-.143.207.077.211-.131.141.254.445-.124.031-.264.193.028.007.2.2.111.169-.055-.013-.452-.163,0,.2-.158v-.188l-.289-.455.2-.229-.013-.318-.308-.251.041-.234-.162-.045-.036-.2.213-.054.113-.514.24.117.078.272.262-.056.373.31.128-.316.213.222.144-.189.037.382.214.177.705-.181.138.145.243-.218.24.153.072.262-.02-.309.412-.155.18.265.387-.116.049.236.168-.007.151-.345-.263-.034.064-.356-.226.013-.016-.219.253-.148-.181-.005.129-.167-.149-.122-.048-.314.48-.056.075-.242.346-.1-.017-.318.213-.01v-.263l.283-.007v.348l.236-.4.279.483.157.048.043-.277.169-.066-.068-.27.269-.031.145-.237-.29-.184.018-.247.355.179.65-.282.007-.711.211-.039-.044-.205.122-.141-.261-.114.181-.414.193-.022.206.155.051-.127.142.189.293,0-.076-.255.311-.13.117-.388.2.018-.062-.21.284-.349-.028-.23.441-.272.141.142.158-.1v.283l.231.073-.293.47.444.025.166.281.256-.111,0-.171.231.093h0l.3.081-.221.467.191.293.016.316-.314.275.266.262.308.1.041.144-.054.138-.116-.069-.041.33-.179-.032.066.227-.137-.014-.132.329-.136-.053-.086.153-.037.113.352.111-.023.1-.639.335-.06.66.287.091.066.152.148-.194.12.143.237-.08.011.181.537.162-.009.2-.205-.05.027-.132-.07.164-.169.037,0,.154-.214-.06,0,.148-.357.014.145.139-.043.192-.165.108-.272-.1-.1.493.117.074-.424.337.105.066-.222.282.587.345.21.579-.263.588.1.777-.192-.024-.081.41.248.015-.01.2-.277.092.094.151.208-.055-.03.375-.416.113.137.283-.207.042-.073.159-.4-.044-.027.107-.325.033.283.388.333.139.393.1.473-.078.555.228-.007.3-.145-.065-.178.209-.186-.031-.078.108.007.152.126.006-.155.386.017.255.13.073-.107.434.111.169,0,.485h0l-1.49-.22-.6.1-.443.246-.25.4.238.051-.118.528.467.449-.05.2-.2-.165-.3.113-.015.8-.313-.038-.009.092.326.331.2.673.275-.032.033.222.186.025.093.158-.247.225.213.163,0,.266-.146.037.125.132-.43.715-.216-.032.034-.141-.264,0-.108.114-.6-.109-.456-.368-.13.115.059.324-.119.277.367.112.209-.077-.09.948-.391.146.1.264-.217.785.226.439.159.027.244.323.59-.058-.169.2-.013.269-.163-.083-.171.138-.023.259.406.31-.144.129.074.189.639,0,.147.178.17-.023.039-.439.23-.3.456.158.281-.119-.009.325.455.04-.022.232.162.226.182-.119-.233-.492.061-.176.324.089.071.222.238,0,.024.713-.633-.084-.074.211-.166.031-.018.167.258-.133.033.089-.4.475.327.092-.044.225.314,0-.131.193.113.159-.2.173-.008-.105-.241.007.031-.506-.23-.25-.95.2-.15-.3-.557-.065-.088-.265.066-.441-.447-.1-.027.138-.261.041-.044.165.248.023.275.366-.251.251.6.573.031.166-.137.024-.279.466.138.423.108.058.086-.228.193.192.2-.13.408.037-.025-.389-.219-.169.221-.045-.037-.253.12-.1.01.34.149-.126.038.116.128-.2.1.327.323-.1.075.186.226-.117.372.062-.091.212.279.013-.044.715.19-.023.025-.16.143.124.042-.343.208.162.226-.16.147.1.089-.046-.15-.119.221-.12.121-.01-.037.149.182-.054.075.169.023-.34.375-.132-.014-.136.3-.146-.122-.283.068-.155.393.022.141.2.314-.315.066.337-.2.077.012.356h.121l.111-.245.3.052.019-.2.414.27.027.377-.19.256.14.137-.023.152-.236-.022-.033.125.128.187.429-.079.027.149.191.043-.061.352.254-.181.932.053-.2,1.313.241.134-.174.072.139.1.19-.091.066.122.2-.056.281.308.2-.258.125.22-.05.34-.159.1.161.181-.345.217.11.131-.149.092.015.17-.3.125.036.4-.2-.031.075.4-.329.032-.188-.193-.242.475H147.4l-.117.556h0l-.572-.1-.423-.425-.182-.021-.077.3h-.115l-.2-.315-.119.209-.089-.049.144-.2-.1-.131-.76.262.084.276-.389.721-.158-.057-.146.145-.138-.147-.366.1.043.214-.159.37.048.3.159.042-.177.184.285-.052-.029.4-.093.32-.349.411-.415.128-.026.349,1.49.2.241.361-.452.56-.166.42-1.007.034-.043.33-.138-.073.02.289-.212.517-.342-.164-.191.116-.236-.23-.246-.024-.084.109-.71.121.037.294-.215-.072-.086-.3-.2.073.053-.112-.156-.111-.181.011-.075.21-.342-.106-.407.813.128.247-.078.16-.119-.133-.4-.078-1.064,0-.113-.353-.207-.161-.3.251-.16-.025h0l-.155-.244.129-.094-.064-.212-.415.133-.36-.426-.306.02-.2-.373-.434.074v-.7l-.649.277-.673-.1-.3-.255-.141-.509-.473.053-.088-.224-.224.053-.156-.3-.333-.049-.538-.793h-.364l.013-.471-.319-.236.006-.261.32-.049-.046-.215-.421.238-.034-.2-.307-.164-.025-.269.292-.123-.293-.155-.308.287-.123-.366-.242.047-.093-.1.044-.252-.369-.126-.017.184-.2.037.011-.321-.243.032.029-.08-.157-.041.136-.179-.093-.176-.716.211h0l-.264-.575-.719-2.911-.14-1.684-.365-1.372-.21-.472-.221-.108-.171-.341-.175-.949-.167-.238-.5-1.65.226-.168-.164-.133-.049.187-.265.008-.085-.478-.143-.15.087-.079-.1-.442-.183-.2-.17.178-.626-.478.16-.036.043-.245-.108,0-.084-.289h0l.24-.147.206.068-.019-.249.227.176.333-.268-.048-.143.232-.291-.137-.332.064-.28.185-.242-.087-.232-.281-.2.481-.209-.076-.441-.261-.127v-.324l-.15-.276.177-.217-.188-.237.081-.26-.076-.265-.135-.073-.1.1-.132-.19-.1.172-.269.01Z" transform="translate(-89.907 -322.718)" fill="#c85151" stroke="#fddede" stroke-width="0.5"/><path d="M139.851,567.509l.716-.211.093.176-.136.179.157.041-.029.08.243-.032-.011.321.2-.037.017-.184.369.126-.044.252.093.1.242-.047.123.366.308-.287.293.155-.292.123.025.269.307.164.034.2.421-.238.046.215-.32.049-.006.261.319.236-.013.471h.364l.538.793.333.049.156.3.224-.053.088.224.473-.053.141.509.3.255.673.1.649-.277v.7l.434-.074.2.373.306-.02.36.426.415-.133.064.212-.129.094.155.244h0l.008.211-.256.005-.171.232-.3.108-.154-.167-.258.166.082.612.217-.087.245.174.073-.082.439.147.217.3.349.2.164-.029.011.346-.536.361.036.293.2-.132.774.1.423-.267.164.131-.2.375.272.135-.009.43.317.03-.491.064-.328.625.963.364.131.315.274.045.053.169-.24.556.1.267-.387.018.141.24-.128.99.183.321-.113.375.108.1.147-.072-.011.134.247.246.373.094.387-.23.076-.217.635-.354.338.035-.044.2.206.3-.023.193.194.078-.118.512-.412.155.345.42.063.389-.139.061-.2.446.14.1-.084.2.143.151-.138.05-.009.338-.1.036-.217.636.252.011.338.228.282-.163.117.173.092-.185.055.4.261.173-.1.266-.253.114-.131.6-.155,0-.1.212v.476l-.173.172.087.21-.32.316-.079.3-.285.143.275.376v.181l.139-.01.219.337-.162.484-.218.236-.121-.015.628,1.158-.1.209-.349.046.131.322-.427.342.142.382-.216-.06-.146.144h0l-.7-.5-1.962-2.611-.489-.383-.157-.673-1.034-2.3-.575-3.19.091-.024.243.463.371.4v.7l.169.117-.189.9.149.109v-.113l.678-.031-.491-.2.081-.263-.051-.227-.107.018.064-.287-.178-.039-.03-.937-.213-.318-.094.031.067.176-.1-.028-.4-.82.086-.288-.337-.394.216.966-.111.023-.713-2.347-1.082-2.4-.3-1.318-.7-1.953-.3-.554-.373-.169-.429-1.2-.784-.914-.284-.125-.512-.856-.2-.107-.167.11-.113-.525-1.191-2.365-.608-1.5Z" transform="translate(-101.653 -412.348)" fill="#c85151" stroke="#fddede" stroke-width="0.5"/><path d="M102,364.581l.312.176.509-.063.07-.2.3-.073.193-.253.33-.039.015.342.256.1.195.282-.136.627.043.5.235.052.037.224,1.328.441.633-.121.891.4.328.648.6.3.456-.029.013.162.34-.086.212.125.4-.069.456.133.347-.138.369.09,1.227-.119.461.035.478.254.265-.131.346.706-.085.129.162.306-.034.108-.3.037.335.491.512-.062.112.119.541-.012.436-.23.2-.5.778.021.216-.551-.209-.324.913-.808.044-.144-.165-.2.142-.108.043-.353.218.028.107-.135.28.088.979-.752.489.059.078-.086.205.205.1-.147.335-.039.018-.237,1.082-.054.381.434.167.456,0,.4.206.122-.229.08-.626-.165-.232.144.122.37.177.1.1.487.557.081.116-.015-.019-.163h.282l.093.135.137-.157.081.234.164-.035.092-.129.249-.031.034-.132.472.213.325-.057,1.318-.687.066-.371.505-.074-.018-.145.217.141.187-.118.138.075.106-.249.246.1.043.617.449-.165.331.078.1.177.771.137.153-.18.147.165.071-.135.544.026.091-.1.206.081.05-.162-.207-.253.134-.034-.084-.2.464-.163.086.107.449.014.341-.378.412.06.05-.45.688.278.261.027.12-.1.416.107.275.8.634-.08.487-.28.712.441.336.04.118-.2.327.136.4-.122.294-.323.419-.167.412.086.631.611.233.509-.127.189.082.19.212.027.045-.186.213.029.615.448.362-.037h0l.094.2-.215.3-1.018.475-.137.465.08.371-.135.166.182.475.493-.011.021,1.033.2.5-.415.178-.149.23.173.2.317-.167.314.052-.208,1.273.182.378-.433.164-.178.227-.731.17.177.314-.16.167.045.114.6.031.242.178.033.269,0,.479-.144.343-.228.019-.21-.152-.214.123.008.162.429.043.085.184-.376.356-.2-.036-.016.132.33.01.147.125-.051-.318.419.033-.016.272.721.5-.051.486.367.024.26.244.35.034.1.2.193.062.074.324-.6.237.326.4-.548.45-.347.02-.1-.261-.353.117-.242-.569-.527.4-.221.449-.307.133.019.3-.353.288-.016.4-.311.53v.354l.462.635-.411.357-.2.031.145.253h0l-.375.124-.074.132-.176-.123-.27.12-.563-.548-.459-.107-.217-.281.257-.17-.026-.985-.105-.155-.323.077-.009-.421.487-.4-.132-.338.238-.431.064-.628-.188-.386-.64-.44-.245-.344-.258-.058-.575.171-.238.433-.261-.1-.056-.173-.413.31-.58-.448-.313.035-.054-.15-.349-.136-.041.521-.17.214.092.145-.258.043-.428-.409-.483-.073-.146-.134-.219.062.149-.2-.066-.39-.3-.113-.327.069-.075-.621-.347-.124-.391.073-.645-.309-.442-.026-.185.174-.1-.141-.449-.122-.077-.261-.274-.024-.1-.2-.145.4.256.063.164.354-.128.41-.34.145-.092.162.236.359v.2l-.183.083.17.618-.725.271.086.486-.155.579-.5-.112-.178.079L124.3,381l-.554-.427-.5.237.006.109.25.1-.219.073-.119.353.068.1-.156.273.1.276-.26-.072-.031.307-.2-.065-.025.2.057.286.285-.006-.025.2.235-.017-.076.248.235.017.349.522-.6.09-.292.746-.165-.139-.142.188.021.732-.451.166-.05-.154-.295.031.022.443-.14-.058-.173.123.223.108-.339.109.167.057-.2.414.271.189-.1.16h0l-.231-.093,0,.171-.256.111-.166-.281-.444-.025.293-.47-.231-.073v-.283l-.158.1-.141-.142-.441.272.028.23-.284.349.062.21-.2-.018-.117.388-.311.13.076.255-.293,0-.142-.189-.051.127-.206-.156-.193.022-.181.414.261.114-.122.141.044.205-.211.039-.007.711-.65.281-.355-.179-.018.247.29.184-.145.237-.269.031.068.27-.169.066-.043.277-.157-.048-.279-.483-.236.4v-.348l-.284.007v.263l-.213.01.017.318-.346.1-.075.242-.48.056.048.314.149.122-.129.167.181.005-.253.148.016.219.226-.013-.064.356.263.034-.151.345-.167.009-.049-.236-.387.116-.18-.265-.412.155.02.309-.072-.262-.24-.153-.243.218-.138-.145-.706.181-.214-.177-.037-.382-.145.189-.213-.222-.128.316-.373-.31-.262.056-.078-.272-.24-.117-.113.514-.213.054.036.2.162.045-.041.234.308.251.013.318-.2.229.289.455v.188l-.2.158.163,0,.013.452-.169.055-.2-.111-.007-.2-.193-.028-.031.264-.445.124-.141-.254-.211.131-.207-.077-.283.143-.325-.013-.033.482-.383.2-.187-.01.037-.189H107.7l-.29-.45-.335.138-.009-.1-.525,0-.065.092.23.121-.018.165-.3.131.068.514-.394-.005-.9.332-.012.24-.2.224.171.2-.272-.014-.037.185-.356.142-.129-.485-.305.039-.118-.2-.028.334-.394.156-.078.3-.156-.065.017-.109-.207.021-.087.307-.216-.254.054.246-.187.051.089.113.178-.159-.02.26.243.041.022.308.151.037-.043.176-.106-.155-.1.068-.014.323.147.2-.085.14.111-.142.388.067.007.138.461.157.056.255-.155.246.019.356-.312-.139-.38.344.125.106.264-.129.194.1-.448.83.113.289-.1,0-.11-.237-.169.235.256.047-.14.419-.415.2-.241-.011-.13-.264-.131.192-.422.211.017.235-.212.045.169.122h0l-.561.272-.167-.039-.168-.2-.137-.578-.36-.047-.1-.286-.186.355-.874.08h0l-.181-.127.149-.05-.481-.942-.461-.149-.152-.587-.159-.109.07-.1-.183-.761-.269-.969-.119-.012.214-.247-.227.045,0-.252-.278-.441.008-.256.143-.06-.148-.207.132-.223-.1-.02-.062-.988-.2-.51.1-.562-.133,0,.073-.153-.168-.091.251-.306-.184-.206-.243-.921-.2-.195.188-.023.032.128.094-.155-.211-.461-.229-.125.221-.2-.113-.017-.011-.384-.267-.3.178-.16-.237-.329-.075-.344.121-.132-.267-.553-.072-.533-.071.037-.192-.321.048-.242-.276-.427.075-.124-.183-.34.1-.38-.324-.152.025-.368.167.008.1.23.5.119-.076.213.186.214-.045-.48-.147-.236-.353-.018-.24-.379-.211-.112.07-.191-.176-.52.189-.418-.419-.936.081-.652.268.074.14-.215.17.23.07-.119.035-.341-.356.091-.107-.31.285-.039-.1-.23.094-.166.135.069.3-.221-.168-.015-.057-.348-.173.005-.041.185-.264.22-.27-.071-.1.476-.211.2.09-.306-.181-.055.13-.463.068.052.067-.126-.127-.02.062-.312-.267-.438-.011-.684.119-.317-.237-.271-.075-.528.2-.172.035-.211-.122.132-.267-.209-.032-.348.144-.012-.291-1.195-.208-.276.006-.115.168-.042-.1-.411.3-.241-.049-.6.172-.4h0l.367.07v-.143l.19.023,0-.251.228-.244.548.082h0l.093.25-.077.247.091.107.161-.132-.042.15.244.26.045-.191.451.09.265.191.174-.421h0l.416-.168.126-.352.238.053.084-.091.039.126.318-.083-.037-.89-.184-.233.22-.148.406-.769-.108-.019L98.2,373l-.231-.07-.215-.291.213-.136.079-.279.165-.041.09.39.228-.125.394.23.169.349.194.1.173-.1.27.067.515-.3.04-.314-.13-.164.234,0,.126-.216.2.037.164-.115-.025-.6-.286-.613.065-.264-.515-.079-.05-.163-.188.075-.187-.277.06-.359-.53.035-.41-.365.142-.05.133.267.257-.12.317.085.028-.177.463-.029.055-.587.342.031.323-.216.025-.645.091.063.456-.168.107-.384.239.209.114-.1.536.028.037-.127.118.1.446-.2.005-.28-.131-.148-.2.182-.183-.089-.17.116-.125-.174h-.666l-1.195.392-.208-.631-.211-.165.56-.123.061-.34-.373-.386.079-.171-.2-.2,1.919-.805Z" transform="translate(-67.929 -264.675)" fill="#c85151" stroke="#fddede" stroke-width="0.5"/><path d="M453.179,273.763l.842-.368-.713-.844.234-.061.124-.19-.061-.318.364-.142.078-.119-.1-.084.651-.526.365.107.811-.19.232-.229.18-.024.184.16.278-.167.327.365-.125.394.4-.405.266.143-.128.16.1.085.35-.331.351-.041-.039.268.214.044.182-.28.154.089.264-.086.207.245-.019-.19.154-.028.141.385.353-.006-.163.419.276-.169.169-.024-.164.151.076.054.761-.246-.094.526.069.3.182.039.3-.149.331-.585.488-.1.146.087.463-.2.025-.107-.125.141-.189-.024.324-.334-.17.019.424-.716.322.068.033.367-.153.159.333.22.291-.31.063-.67.5-.38.323.134-.032.291.3.336.394-.265.353.053.459-.083.258-.214.359.108.321-.106-.806.857.042.21.353.03-.261.235-.153.365.043.9.39-.282.6-.057.294-.181.275.141-.006.257.191.054.207.378.32.069.085.327.172.02.291-.221-.05.348-.442.444.176-.027.063.35.258-.119.033.159.078-.043.254.267.108-.04.134.292.136.017.045.3-.158.227.227.19-.786.267-.259.376-.554-.141.1.256-.335-.054-.12.449-.214.033h0l-.45-.128,0-.165-.654-.119-.951-.588-1.631.137-.166-.073-.051.181-.21-.048-.359.228-.223-.146.068-.191-.819.266-.31-.229-.443-.014-.392-.2-1.094.043-1.232.262-.466-.176-.264.187-.266-.109-1.007-.021-.368.193-.634-.31-1.294-.212-.823-.482-.783.047.075-.092-.147-.476.191-.575h0l.142-.08Z" transform="translate(-329.198 -196.331)" fill="#c85151" stroke="#fddede" stroke-width="0.5"/><path d="M521.786,282.391l.016.192.195.022-.033.2.283-.04.3.307.485-1.011h.144l.52-.66-.028-.212-.219-.006.028-.256.694-.179.419.075.259-.094.024-.157.408.231.035.171.267.057.122-.2.2.018.114.331.411-.073.153.109.611-.306.056-.318.251-.184.179.029.387-.513.129.04-.112.3.109.006-.226.368.01.464.432.3.282.038h0l-.049.276-.243.183-.262,1.087.916.5-.02.7-.223.3.091.226-.464.632-.154.759-.343.035-.111.53-.377.358-.205.518-.15.035,0,.42-.221.135.1.127-.326.255.009.292-.373.784-.1.775-.282.668-.144.017-.053.516-.222.063-.152-.318-.813-.355-.268-.043-.521.171-.337-.5-.78-.03-.1.28-.228-.126-.277.266-.264-.168-.306-.66-.352-.116-.113.047.019.231h0l-.281.012-.188.174.065-.229-.106-.157-.138.008-.041.213-.268-.031-.125-.208-.269.27L519.53,290l-.147.077-.442-.152.262-.6-.081-.442.2-.4-.125-.021.016-.275-.136-.08h0l.221-.05-.019-.54.211-.4-.066-.087.263-.055-.181-.08.168-.5-.165-.221.179-.2.015-.428.074-.064.173.19.254-.136v-.285l.182-.131.138-.262-.076-.127.128-.079-.078-.426.111-.2.208.01.178-.3.3-.95Z" transform="translate(-377.2 -203.468)" fill="#c85151" stroke="#fddede" stroke-width="0.5"/><path d="M146.3,252.64l.292.1.121-.277.4-.066.22.318.206-.048.142.22.658.259.533-.074.322-.2.043.134.1-.085.145.18.258-.006.306.39.223-.056.253.107-.058.219.316-.14.071.475-.149.233.067-.053.038.2.129,0,.231.31-.071.3.448.072-.054.177-.174,0-.057.353.326.113-.1.063.063.122-.187.026-.059.253-.093-.1-.173.132.114.218-.21-.009-.031.235-.215.013.133.259-.332.1.346.366-.337.286-.084.558-.3.215.036.289-.206.062.087.391-.29-.2-.071.076.134.019-.01.1-.421.32.369.474-.035.317-.733.193-.163.181-.229-.149-.157.157-.543-.114-.178.192-.148-.076-.118.2.069.351-.248.185-.17-.041-.1.342-.2.166.2.242-.133.163.212.083.054.329.247.179-.071.143.349.165-.161.1.141.156-.272-.011-.386.264v.564l-.927.744-.009.156.258.278.065.415.275.506-.055.686-.224.223.285.293-.016.181.538.387-.2.353.307.34.315-.139.4-.605.418.232.518.7.17.067.191-.122.078.091.082-.121.18.492.125-.189.374-.08.165-.491.338-.329.1-.552-.433-.16.03-.214.1.1.2-.078-.484-.9-.6.294-.157-.075-.054-.347.185-.278-.045-.573.092-.126-.092-.293-.549-.259-.084-.264-.181-.13.114-.611-.256-.23-.163-1.018-.411-.223-.244.148-.153-.115.076-.1.151.071.144-.2.046.125.142-.015.094-.127-.093-.231.292.07-.086-.278.156.023.087-.158.144.067.138-.238.189-.024.089.12-.185.159-.072-.1.008.2.292.059.026.163.29-.034-.122-.345.4-.112-.331-.022-.174-.187.041-.237.141.156.419.066.091.072-.182.051.117.088.131-.22-.165-.272.273-.091-.01-.208.206-.015.037.115.079-.117.064.181-.146.066.11.258-.185.21.148.118.177-.067.105.4-.285.154-.207-.149.221-.012.1-.146-.426.08-.212.225.033.125-.295.111-.05.109.163-.014-.034.183.206.265.2-.731.292.081.144-.115.1.41-.168.143-.183-.074-.1.183-.09-.065-.023.569.437-.343.271.154-.007-.239-.134-.071.193-.2.041.182.253.143-.182.248-.016.275.122.032.236-.344.206.18-.072.13.122.208.287-.044-.072-.156.1-.056.123.236.183-.017.029-.154-.169-.048.126-.08.133.049.005.2.247-.071.065-.117-.2-.288-.03-.321.337.3.082-.085-.1-.1.063-.272-.172.069-.128-.18-.162.119,0-.246.2-.19.293.045-.087.247.127.182.083-.183.274.222.241-.156.189.086-.178.006-.184.281.09.079-.189.024-.147.244.087.359.091-.162.091.2.213-.17-.045.241.168.086.433-.6.138.192.075-.047-.028.148.845-.079.631.287-.047-.221.14-.107-.143-.569.316-.106.063.149.167-.244.31.021.137-.472.358-.08.229.11.369-.287.034-.206.293.072.061-.151.314.263-.038.624.423.326.12-.035.141.436-.414.185-.482.725.284.171.241-.145.133.1-.094-.3.428-.154.169.236.137,0,.033-.28-.136-.08.191.008.194.211.109-.15.253.122-.07-.526.216.2-.178.119.314.19.131-.047-.033.175.307-.112.279.064V263.8l-.29-.086v-.158l-.147-.09.572-.059.161.229.049-.521.239-.018.154.223-.228.232.033.333-.252.2.123.26-.333.167.07.173.187.062.285-.091h0l.087.059-.016-.108h0l.226-.1.105.3.352-.043-.042-.138.382.013.32.38.166-.42.215.15-.083.035.161-.034-.062-.387.343-.46-.091-.235.134-.394.213.011.047.315-.01-.3.1-.056.35.312.223-.066.046.147-.214.017.474.208.137-.2-.2-.192.129-.1.167.055-.086-.275.325-.055.088.174.213.054-.154.147.052.229.089-.142.087.123-.218.148.06.121.311-.12.133.227.289-.031.325.244.23-.058.324.168.071-.106.078.5-.089.242.359.391.261-.127.614.369h.27l.209-.2-.1.125.174.146-.115-.005-.094.27.234.069-.082-.147.133,0-.011-.1.1.08.03-.135-.078.669.132.022.059-.128.189.1-.014.355.2-.063.454.163-.043-.542.176-.141.095.179.4,0,.062.166.736-.305.217.156,0,.2.386-.009-.015.289h.207l.025.3-.313.07-.191-.093.018.27.12.085-.168.721.305.076.02.507-.081.354-.131.081-.038.529-.283-.122-.077.149.292.339.331.018-.139.354.316.1.06.264h0l-.341.256-.524.09-.026.322-.378.211-.335-.008.1.187-.162.062-.321-.17-.753.048-.417-.114-.167.094-.154-.157.026-.132-.237.207-.669,0-.255-.267-.286.064-.2-.126-.363.3-.4.078-.364-.179.022-.116-.351-.417-.292.117-.069.334.184.143.052.374.2.107.076.2-.253.382-.171,0-.06.381-.188.071.042.211.164.028.008.272.121.1.15-.258.22.051.246-.275.392.135.129.215.51-.13.342.743.228-.065-.008.222.178.063.3-.124.071.261.154-.037.275.227.02.255-.269.355.049.535-.2.237-.279-.081-.246.229-.492.014-.112.229.125.522-.459.262-.021.15-.5.108-.049.244.134.421-.215.249.092.391-.127.1-.1-.175-.091.165-.289.11-.045.391-.144.029-.045.157-.553-.006-.224.289-.239,0,.057.165-.135-.074-.159.235-.1-.4-.319-.118-.108.264-.163-.11-.326.3-.219-.239-.4.3.022.908-.167.295-.373.108-.021.6-.257.112.188.11-.026.219-.2.02-.074-.338-.227-.038-.372.978-.156.025.1.131-.028.807-.117.354-.39-.065-.14.285-.053.771.12.706-.421.869h0l-.362.037-.616-.448-.213-.029-.045.186-.212-.027-.082-.19.127-.189-.233-.509-.631-.611-.412-.086-.419.167-.294.323-.4.122-.327-.136-.117.2-.336-.04-.712-.441-.487.28-.634.08-.275-.8-.416-.106-.12.1-.261-.027-.688-.278-.05.451-.412-.06-.341.378-.449-.014-.086-.106-.464.162.084.2-.134.034.207.253-.05.162-.206-.081-.091.1-.544-.026-.071.135-.147-.164-.153.18-.771-.137-.1-.177-.332-.078-.449.165-.043-.617-.246-.1-.106.249-.138-.076-.187.118-.217-.141.018.146-.5.074-.066.371-1.318.687-.325.057-.472-.213-.034.132-.249.031-.092.129-.164.035-.081-.234-.137.157-.093-.135h-.283l.019.163-.116.015-.557-.081-.1-.487-.177-.1-.122-.37.232-.145.626.165.229-.08-.206-.122,0-.4-.167-.456-.381-.434-1.082.054-.018.237-.335.039-.1.147-.205-.205-.078.085-.488-.058-.979.752-.28-.087-.107.135-.219-.028-.043.353-.142.108.165.2-.043.144-.913.808.209.324-.216.551-.777-.021-.2.5-.436.23-.541.012-.112-.119-.512.061-.335-.491.3-.037.034-.108-.162-.306.085-.129-.346-.706-.265.131-.478-.254-.461-.035-1.227.119-.369-.09-.347.138-.456-.134-.4.069-.212-.125-.34.086-.013-.162-.456.029-.6-.3-.328-.648-.891-.4-.634.121-1.327-.44-.037-.224-.235-.051-.043-.5.136-.627-.195-.282-.256-.1-.015-.342-.33.039-.193.253-.3.072-.071.2-.509.063-.312-.176h0l.045-.2-.321-.179.475-.439-.149-.117-.14.048-.043-.712-.269-.056.09-.135-.185-.26.073-.461.229-.071.128.244.325.064.09-.283.116.056.177-.257.207.034-.23-.239-.282-.025-.079-.252-.023.209-.147.074-.1-.152-.122.222-.113-.291-.144.014.041-.266-.242.11-.047-.109.184-.264.495.207.641-.79.68.008.108-.541.434-.794-.157-.407-.292.153-.219-.21-.117-.2.167-.1-.275-.515h0l.391-.307.692.145.191-.27.356-.079.349-.353.265.042.172-.108v-.128l-.29.06.155-.121-.12-.185-.314.078L125.5,275l-.105.115-.2-.288.3-.306.019-.28.225-.242.236-.019.263-.245.188.02.294-.3.1.088.243-.126.347-.43.193-.047-.184-.328.188-.326-.2-.87.09-.387.41-.589-.639-1.154.141-.127-.066-.176-.141-.119-.668-.012.176-.215.019-.345.407-.6-.228.034-.008-.184-.217.049-.383-.173.256-.275-.05-.266.241-.088-.038-.164.192-.22-.239-.1.137-.681.535.885.286-.032.11-.255.215-.048-.037-.279h.154l-.075-.273-.515.056-.334-.163-.055.129.04-.382-.185-.476.13-.289.119.236.1-.081.162.135.041.231.7.206.074-.143.358-.045-.018-.482.278-.166-.03-.34,1.066.017.034.112-.186.118.106.274-.135.4-.217-.482-.055.094.153.245-.181.211.285.128.084-.111.562-.036-.041.182-.637.319-.153-.253-.295-.036.129-.231-.152.036-.087-.126-.039.162.289.3-.26.172-.12.264.18.288.288-.065,1.056.249.743-.185.18.216.837-.482.452.22-.066.368.124.116-.118.25.058.111.143-.109.308.261-.062.122.105.118-.194.15.119.108-.016.228-.353.234-.321-.354-.243.294.037.12-.162.026.063.36.155.234.264.045.09.359-.305.16-.172.51.187,0,.076.183.264-.01-.011.225-.31.084-.1.4-.352.181-.179-.4-.2.211-.291.05-.1-.193-.3-.163-.284.427-.047.376.6.381.089.116-.115.1.151.16.4-.01.187.259.017-.367h.174l.064-.245-.177-.119.024-.169.271.088.156.227.1-.128.38-.133.1.069.556-.3-.089-.58.5-.315.5-.123-.076-.635.19-.3-.066-.261.243-.291.119.129-.066.164.12.427.384.007.252-.238.5.29.052-.123.169.064.1-.092.352.427.276-.108-.08-.126.181-.183-.053-.123.148.047.013-.13.438-.14.055.228-.162.348.154.138.308,0,.264.325.314-.117.251.049.093-.362.162-.11-.4-.407-.194-.425.064-.82-.21-.411.3-.094.076.152.19-.115.01.352.29.169.207-.107.174-.32.1.014.082-.273-.03-.457-.187-.431-.313-.131-.116-.213-.242.118-.355-.023-.261-.438.172-.129.542-.061.128-.146-.2-.095.04-.182-.17-.018-.211-.573.8-.44.478.139.213-.07.315-.282.53-.035.232.224.547-.186-.045-.474.156-.031-.066-.211-.324-.288.127-.307-.2-.034.143-.554-.321-.149-.128.081-.359.318-.086.393-.741-.179-.293.245-.374.025-.1.138-.278-.3-.287-.051-.417.116-.019-.152-.49-.059-.449-.276-.078-.269-.141-.069-.252-.555-.054-.908-.189-.141.026-.147.276-.1-.007-.407.362-.485.194.021.112-.242.5.04.166-.124-.037-.125.288-.072.194-.371-.056-.117.328-.406.562-.249.279-.316.326-.057.185-.3.452,0,.5-.372.256-.394.559-.049-.027-.268.544-.051.828-.6.264.026.174-.263.393-.061.042-.289.337-.131.087-.269.3-.018.253-.241.535.126.019-.353.154-.106-.093-.272.436.035-.087-.228Z" transform="translate(-88.987 -183.456)" fill="#c85151" stroke="#fddede" stroke-width="0.5"/><path d="M504.145,308.878l.719-.008.081.633.253.069.028-.131.261-.1.109-.43.348-.047.073-.5.38-.139.426-1.045.364.9.194-.137.242.032.036-.116.138.11.371-.049h0l.136.08-.016.275.125.021-.2.4.081.443-.262.6.442.152.147-.077.123.363.269-.27.125.208.268.031.041-.213.138-.008.106.157-.065.229.188-.174.281-.012h0l-.017.417.368.355.038,1.056.225.5L510.438,314l.1.283-.277.209.166.812-.119.461.113.073-.548.827-.255,0-.336-.335-.352.08-.021.291.224.508-.169.037-.129.6-.1.037.077.411-.12.217.3.685-.187.416.126.073.048.352.279.223.1,1.029-.351.09.13.288-.088.135-.443-.2-.173.077.108.591h-.3l-.023.731-.122.006-.184-.29-.138.077-.119.441-.247-.736-.132.012-.725-.551-.106.026-.086.806-.427.254-.027-.5-.2-.442.1-.065.128.113.022-.319-.471-2.412v-.582l-.116-.5-.153-.085-.154-.441-.058-.45-.084.041-.066-.206-.263-.092.1-.767-.159-.3-.027-.82.272-.053-.2-.479.043-.247-.327-.695-.132-.946-.107-.03.079-.392-.153-.225h0l-.052-.54.156-.011-.069-.2.1-.14.161.035.063-.288-.113-.305.1-.182-.085-.283.13-.7Z" transform="translate(-366.29 -223.282)" fill="#c85151" stroke="#fddede" stroke-width="0.5"/><path d="M537.036,248.427l.219.978-.282.167.138.091.037.336.17.071-.164.334.123.315h0l-.474.428v.248l-.5.764.223.2-.008.184.177.086-.083.953.122.156-.14.289.014.378.373.188-.453.715-.4.211-.087.166-.034.236.212.7-.657.6-.1.368-.176.115.091.165-.318.041-.211.414-.744.226h0l-.282-.038-.432-.3-.01-.464.226-.368-.11-.006.112-.3-.129-.04-.387.513-.179-.029-.251.184-.056.318-.611.306-.153-.109-.411.073-.114-.331-.2-.018-.122.2-.267-.057-.035-.171-.408-.231-.024.157-.259.094-.419-.075-.694.179-.028.256.219.006.028.212-.52.66h-.144l-.485,1.011-.3-.307-.284.04.033-.2-.195-.022-.016-.192h0l-.126-.221.151-.226-.093-.348-.377-.187-.367-.525.548-.538.414-.159.42-.663.756-.559-.1-.387.367-.172.121-.189.145.359-.106.4.091.2.266-.307.231.106.19-.266.363-.2-.14-.559.207-.416.078-.642.59-.978.386-.114.063-.744.516-.629.075-.034.023.534.13.114.2-.293.276-.152.048-.526.312-.135.031-.22.441-.264.169.128.169-.31.138.133.333-.09.661-.471.48-.812.24-.126.329.218.2-.046.507-.267Z" transform="translate(-382.607 -180.573)" fill="#c85151" stroke="#fddede" stroke-width="0.5"/><path d="M307.661,363l.694,0,.054.339-.386.031h0l-.508.367-.095-.132h0l-.189.04.134.164-.258-.039.277-.693Zm-16.4-10.778.757.31.1.433.238.181.3-.012.244.225.782-.071.125-.188.17-.029-.005-.138.286-.087,1.242.033.051-.169.315-.03.142.127.252-.1.1.156.306-.2.042.075.617-.245.066.8.108.047-.028.167h.149l0,.147-.251.113-.267.991-.251.169.129.029.238-.19.295.07.134.2.21-.025.087.137.009-.123.219.155.116.265.4-.66.131-.111.2.033.029-.216.178-.025.83.445.294.075.306-.1.211.257.689-.384.164.209h-.245l-.155.54.827.143.039-.236.174-.088.331-.555.15-.472-.325-.36.42-.389-.2-.023.069-.121-.157-.054.162-.228-.072-.305-.316-.2.09-.272.3-.129.094-.267.394.488.986.244.417.62.461.272.029-.135.352-.109.186.265.264,0,.071.143.312.083.032.174.41.111h0l-.042.444.428-.065.238.364.716.073.345.26.1.322-.208.5.185.26.368.031-.006-.294.37-.14.052-.265.385.118.158.867.513.174.1.158.42-.005,0,.2.16.135-.07.384.134.223h0l-.583.389-1.024-.018-.5.247-.759.6-.508.581-.4.753,0,.341.839,1.94-.072.228-.435-.078-.307.158-.309.774.268.035-.137-.159.183-.041h0l.095.132.508-.367h0l.378.094.258-.087-1.491,1.063-.314.8.288.081.006.28-.577.5-.723.326-.812,1.059-.13.361-.267-.056-.3-.455-.244.048-.064.16.333.016.4.431-4.006,1.306-1.59.809-1.4.984-.432.484-.87.636-.508.522-.359.619-.24-.149h0l-.144-.143.047-.192-.212-.034-.022.211-.4-.012.16.287.2-.027,0,.174-.239-.015-.143.253-.123-.315-.438.267-.1.241-.323-.2.146.284-.143.175.079.147-.181.167-.186-.061.128.112-.207-.033.115.1-.052.1-.151-.095-.022.452-1.034.1-.162.166-.235.021-.313-.348-.5.034-.4-.132-.475-1.15-.271.181.232.428-.2-.063-.229-.406.1-.161-.15-.028-.422-.831-.166.2.058.195-.147.233-.185-.146-.086.415-.205-.034-.011-.1.115.012-.047-.242-.067.071-.117-.149-.079.049.106.294-.019.127-.149,0,.04.327-.267-.306-.358-.083-.235.122.135.441.1-.243.2.2-.192-.022.37.409-.086.173-.214-.008-.015.193-.439.063-.077.2-.267-.053-.082.3-.019-.159-.393-.183-.469.715-.225.091-.02.306.263.012-.155.112.032.121.325.06-.423.565.126.154.119-.061-.028.324-.207-.055-.483.2-.233-.094-.041-.277-.227.018-.262-.179-.131.119.1.149-.15.385-.619.269-.182.349-.264-.249-.025-.221.2-.239-.062-.134-.374-.126.106-.29-.135.02-.04-.42-.137.013-.144-.212-.645.766.132.246-.286.313.335.064-.121.2-.2.048-.023.3-.153.121.338.337-.043.088-.138-.1-.021.614-.139.016-.044-.146-.177.083,0,.373-.146.04-.368-.186-.1-.2-.776-.086-.417.4-.862.337-.244.257h0l-.315.194-.085-.143-.144.047-.3.37-.243-.075-.5.151-.125-.132L276.3,381h0l.051-.472.248.055.229-.566-.02-.352.2-.385.08-.391-.1-.16.132-.454.374-.255.373-.059,0-.17.5-.037.1-.4.548-.614.222-.093.067-.216.219.031.044-.166-.378-.207-.017-.178.355.13.116-.373.377-.17.256.04.016-.264.273-.011.183-.2.066-.632.382-.092-.083-.63-.177-.277.1-.184-.071-.163-.229-.054.109-.2-.155-.647.18-.329-.242-.256.146-.025.1-.314-.364-.038-.156-.522-.4.049.136-.224-.049-1,.127-.482-.456-.077-.113-.359-.633-.325-.07-.256.167-.524.428-.4.475.562.191-.243.689.438.3-.122.622,1.024.282-.315.306-.129.864.234-.127.257.079.313.347-.331.326-.034.085-.242-.1-.137.04-.591-.433-.06-.191.088-1.187-.451-.068-.518.2-.352-.049-.374.138-.119-.2-.321.2-.551-.109-.291-.126.127-.043-.35-.323-.269.253-.43-.189-.823.066-.768.313.132.081.22.249.016.152-.488.385-.233.4-.583-.074-.212.2-.188-.052-.292.665-.063.209.126.135-.119.382.058.439-.162.483.348.453.11.4-.212.162-.766.321-.157-.117-.164.091-.385.6.216.159-.052-.051-.314-.249-.274-.089-.317.264-.722.346-.225.066.272.182-.125-.37-.3.368-.41-.1-.254.136-.2.261.127-.03-.234.3-.072-.074-.174.165-.241-.27-.132-.1-.193.018-.568.354-.063-.235-.237.5-.747.27-.129.342.017.619-.625.819-.148.214-.6-.374-.236.023-.123.126.007Z" transform="translate(-200.83 -255.828)" fill="#c85151" stroke="#fddede" stroke-width="0.5"/><path d="M130.448,114.525l-.123.465.464.619-.505.255-.615.716-.651.265-.013.335.238.139-.475.562.113.106.291-.075.231.106.54.454.63.3.44.913-.284-.018.463,1.15.862,1.564-.106.351.179.137.037.233.7-.084v-.154l.233-.072-.119-.332.248-.089.023-.173.092.337.395.572-.1.155.2-.184.125.247.147-.065.022.139.109-.145-.013.192.2-.166.178.2-.12.232.259-.072.054.095-.258.2-.006.369.208.117-.153.379.063.33.586.273.327.381h0l0,.2.336.294.109.267-.107.192h0l-.2-.018.017-.128-.154.058-.057-.147-.393.26.2.428.389.177.146-.11h0l.086.2.157-.157-.021.258.314.272-.163.395.2.149-.18.223v.289l.22.349-.269.192v-.176l-.273-.317-.137.146-.289-.179-.33.3.064.189.155.037-.134.177-.232.046-.37.367-.356.038-.086.251.294-.195.16.17-.044.1.2.061-.07.665-.147.168-.139.034-.125-.157-.308.147-.059-.136-.222-.024-.24-.673-.167.126.118.169-.067.2-.367-.144.132.143-.149.129-.41-.072-.27-.264.046.158h-.122l.368.2-.324.441.1.072-.14.071.074.478-.215.1.1.265.328.129-.718.48-.222-.062-.24.39-.1-.062-.3.163-.489-.1-.287-.431-.188.034-.14-.121-.376.111-.048.353-.412-.119-.069.177-.254.025-.071-.153-.255.038-.386-.316-.374.637-.248.115.086.228-.187-.075-.212.4.137.143-.048.134-.415.144-.013-.4-.274-.155-.088-.215.214-.165-.009-.247.213-.177-.278-.572-.154.125-.008.256-.365-.169.1-.131-.148-.151.131-.157-.111-.277-.11.238-.432.149-.424-.613-.174.067-.022-.194-.182.061-.277-.222-.441.2-.19-.049-.291.31.041.118-.731-.256h0l-3.59-.177.021-.508.411-.492,0-.49h0l-.048-.442-.5-.71.184-.32.14-.028.043-.279.157.035.12-.286.288-.237.249.046-.055-.17.141-.136-.009-.249.1.047.054-.176.186,0,.464-.58.284-.071-.112-.252.2-.1-.067-.112.174-.32.268.012.014-.265.289-.138.311-.4.386-.184.116-.5.367.137.284-.1.127-.227-.1-.236-.264.062-.055-.105-.166.025-.04.255-.192.064-.049-.242-.222-.113.037-.9.233-.175.516-1.085-.089-.18-.347-.1.217-.218-.017-.227L122.7,120.3l0-.15.193-.054.026-.51.251-.386.128.031.213-.249.248-.045.034-.223.153.139.067-.1.351-.02.053-.286.267-.179.042-.18.306-.1.451.25.636-.366.276.1.177-.329.25.2.709-1,.022-.231-.255-.465h0l.53.089.327-.107-.026.153.129.05.063.232.16-.494,1.043-.47.2-.4.334-.073Z" transform="translate(-86.501 -83.244)" fill="#c85151" stroke="#fddede" stroke-width="0.5"/><path d="M241.04,516.434l-.217,0-.025-.311-.47-.175-.133-.317.24.05-.078-.255.294.115.1-.11.3.059h0l-.019.945Zm-.291-5.805-.107-.187-.169.092-.013-.211-.263.13-.256-.16.136-.228.186.174.054-.1-.108-.217-.159-.046.119-.208-.312-.083.2-.193.153.245.165-.1.1.087-.211.07.121.352.349-.33.227.135h0Zm14.05-28.842-.474-.209.246-.159.016.2.345-.027.074-.121.033.171h0v0h0l-.289.027.049.116Z" transform="translate(-174.344 -349.926)" fill="#c85151" stroke="#fddede" stroke-width="0.5"/><path d="M52.789,173.072l0,.49-.411.492-.021.508,3.59.177h0l-.08.236.164.034.114.244-.5.516.039.288.308.018.348-.179.107.1-.222,1.249.274.24-.2.451-.206-.052-.078.112.013.162.152.042.223.371-.005.223.263-.019.048-.271.609.108.483-.316.492.259.148.544.217.067.279-.1.218.359.172.037.41-.275.249.221.548-.384-.025.378.173.064.073-.187.216-.048.028.48-.226.3.2.093-.089.381.284.037.025.316.437.038.031.232-.283.322.265.587-.085.32.174.244.153.886.356.081.063.367.853.576-.045.326.68.091.19.161.185.328.366.244-.043.255.239.114-.045.139.273.31-.159.07.007-.151-.221-.032-.524.515.263.086.014.191.178-.247.114.1-.173.126.027.116-.229.037.117.135-.2.059.174.106-.136.31-.141-.092-.085.117.03.106.278.049-.082.289.5.109.22-.133.485.4.288-.217-.173-.149.032-.228-.184-.1.075-.375-.14-.17.337-.212-.209-.179.422-.076.176.078.087.214.252-.065.076-.248-.327-.174.333-.178-.438-.327.325.009.234.255.539-.108.153.313-.211-.034-.07.122.281.185-.251.1.485.069,0,.445.347-.255.349-.06-.051-.5.8-.393L69,186.1l.281-.1.636.537-.247.95,0,.472.113.038-.07.55-.131.01-.113.659.174.195-.192.009.124.264.181-.107.208.116.132-.547.49.021L70.52,189l-.267-.093.1-.272.5.282.143-.1,0-.154.172.045-.069.154.144-.24.217.234.176-.2.076.062h0l.162.12-.037.449.223.146.033.28-.178.267.223.118-.113.144.027.266.27.087.08.25.19.1-.082.237.1.169.374.115.442.353.226-.108-.128.276.3.4-.027.139.191.109-.105.16-.283.046-.082.292-.528.18.131.18.253-.07-.047.265.4.138.263-.232.173.33h.107l.024-.2.163.056-.107.222-.5.092-1.295.686.1.307-.061.315.2,0-.092.146.258-.13-.071-.134.1-.386.13.167.479-.069.636-.312.018-.225.2-.137.782.31.056-.225.24.159.37-.07.088.32.147-.09-.032-.261.339.067.057-.31.537.092.061-.1.265.2-.2.263-.2-.038.107.337h0l-.279.058.087.228-.436-.036.093.272-.154.106-.019.353-.535-.126-.253.241-.3.018-.087.269-.337.131-.042.289-.392.061-.174.263-.264-.026-.828.6-.544.051.027.268-.559.05-.256.394-.5.372-.452,0-.185.3-.326.057-.279.316-.562.249-.328.406.056.117-.194.372-.288.072.037.125-.166.124-.5-.04-.112.242-.194-.021-.362.485.007.407-.276.1-.026.147.189.141.054.908.252.555.141.069.078.269.449.276.49.059.019.152.417-.116.287.051.278.3.1-.138.374-.025.293-.245.741.179.086-.393.359-.318.128-.081.321.149-.143.554.2.034-.127.307.324.288.066.211-.156.031.045.474-.547.186-.232-.224-.53.035-.315.282-.213.07-.478-.139-.8.44.211.573.17.018-.04.182.2.095-.128.146-.542.061-.172.129.261.438.355.023.242-.118.116.213.313.131.187.431.03.457-.082.273-.1-.014-.174.32-.207.107-.29-.169-.01-.352-.19.115-.076-.152-.3.094.21.411-.064.82.194.425.4.407-.162.11-.093.362-.251-.049-.314.117-.264-.325-.308,0-.154-.138.162-.348-.055-.228-.438.14-.013.13-.148-.047.053.123-.181.183.08.126-.276.108-.352-.427-.1.092-.169-.064-.052.123-.5-.29-.252.238-.384-.007-.12-.427.066-.164-.119-.129-.243.291.066.261-.19.3.076.635-.5.123-.5.315.089.58-.556.3-.1-.069-.38.133-.1.128-.156-.226-.271-.088-.024.169.177.119-.064.245H62.63l-.017.367-.187-.259-.4.01-.151-.16.115-.1-.089-.116-.6-.381.047-.376.284-.427.3.163.1.193.291-.05.2-.211.179.4.352-.181.1-.4.31-.084.011-.225-.264.01-.076-.183-.187,0,.172-.51.305-.16-.09-.359-.264-.045-.155-.234-.063-.36.162-.026-.037-.12.243-.294.321.354.353-.234.016-.228-.119-.108.194-.15-.105-.118.062-.122-.308-.261-.143.109-.058-.111.118-.25-.124-.116.066-.368-.452-.22-.837.482-.18-.216-.743.185-1.056-.249-.288.065-.18-.288.12-.264.26-.172-.289-.3.039-.162.087.126.152-.036L60,207.57l.295.036.153.253.637-.319.041-.182-.562.036-.084.111-.285-.128.181-.211-.153-.245.055-.094.217.482.135-.4-.106-.274.186-.118-.034-.112-1.066-.017.03.34-.278.166.018.482-.358.045-.074.143-.7-.206-.041-.231L58.04,207l-.1.081-.119-.236-.13.289.185.476-.04.382.055-.129.334.163.515-.056.075.273h-.154l.037.279-.216.048-.11.255-.286.032-.535-.885-.137.681.239.1-.192.22.038.164-.241.088.05.266-.256.275.383.173.217-.049.008.184.228-.034-.407.6-.019.345-.176.215.668.012.141.119.066.176-.141.127.639,1.154-.41.589-.09.387.2.87-.188.326.184.328-.193.047-.347.43-.243.126-.1-.088-.294.3-.188-.02-.263.245-.236.019-.225.242-.019.28-.3.306.2.288.105-.115.425.257.314-.078.12.185-.155.121.29-.06v.129l-.172.108-.265-.042-.349.353-.356.079-.191.27-.692-.144-.391.307h0l-.23-.2.032-.147-.241-.433-.22-.024-.14.248-.32-.166.039-.565-.184-.164-.327,0-.067-.226-.24-.033-.113-.247-.136.023-.048.2-.255.027-.355-.684-.281.076-.1-.15-.221.287-.125-.269-.291.1-.117-.075.147-.323-.122-.275.135-.468-.477-.2-.365.241-.028-.541L50,214.8l-.336-.44-.255.079-.076-.13,0-.466.358-.434-.112-.373.05-.38-.252-.232.022-.252-.219.082-.015.26-.237.291-.258.1-.268-.256.142-.293-.627-.253-.18-.291.356-.772.2.04.07-.264.1.059.117-.192-.117-.067-.235.155-.486-.275.134-.2-.08-.431-.248.186-.219-.108-.071.074-.212.547.161.124-.386.237-.319-.248-.775.029-.223-.365.022-.239-.622-.1-.251-.216-.252.356.041.254-.246.017-.16-.336.033-.275h0l-.3.034-.186-.338h0l-.359.089-.252-.263.161-.125.267.083.159-.2-.221.058L42.861,209l-.111.128-.259-.012-.46-.241,0-.279-.187-.055-.619.5-.138-.256-.249-.049-.1.447-.267-.111-.073-.307-.786.235-.257-.236-.734-.02-.6.329-.183-.2-.3.287-1.09-.46h0l-.924-1.6-.293-1.325L34.493,205l-.127-.355-.4-.433.078-.812-.125-1.143-.28-.06-.462.19-.781.082-.686-.238-1.049-1.547-.077-.826.515-1.093.064-1.546-.093-.409-.58-.311-1.069.117-.366-.071-.535-.4-1.225-.607-.137-.371.169-1.354.371-.957,1.623-1.53.425-.641.458-.348.523-1.364.281-.435,1.2-1.13.672-.167.451.092.626.685.036.488.453.789.724.122,2.223-.929.782-.155,1.421-.021,1.367-.573.205-1.1.358-.52,1.078-.983.672-2,.473-.648,1.867-1.119,1.318-.6.333-.788.51-.668,1.041-2.025.686-2.515,1.257-.559,1.007-.291Z" transform="translate(-19.741 -125.8)" fill="#c85151" stroke="#fddede" stroke-width="0.5"/><path d="M418.716,222.9l.123.163.482,0,.468.4.019.516.143.055.14.4-.18.29-.044.956-.455.672.242,1.032.646.509-.133.331-.56.176-.074.4-.209.242h0l-.155.062-.229-.269-.16.115-.214-.164-.343-.006-.219.068.052.181-.56.441-.618-.15-.111-.153-.411.057-.211-.106-.337.124-.291-.159-.062-.382-.331-.116h0l.3-.753-.141-.227.028-.223.19-.137-.207-.448.878-1.906-.138-.192.161-.111-.029-.105-.394-.182-.035-.45.087-.082.284.129.235-.157.081.126.579-.266.255.074.533-.438.319.043.089-.3.355-.122-.026-.168Z" transform="translate(-301.739 -161.877)" fill="#c85151" stroke="#fddede" stroke-width="0.5"/><path d="M191.223,421.381l.1-.16-.271-.189.2-.414-.167-.057.339-.109-.223-.108.173-.123.14.058-.022-.443.295-.031.05.154.451-.166-.021-.732.141-.188.165.139.292-.746.6-.09-.349-.522-.235-.017.076-.248-.235.017.025-.2-.285.006-.057-.286.024-.2.2.065.031-.307.26.072-.1-.276.156-.273-.068-.1.119-.353.219-.073-.25-.1-.006-.109.5-.238.554.427.031.176.178-.079.5.112.155-.579-.085-.485.724-.271-.17-.618.183-.083v-.2l-.236-.359.092-.162.34-.145.128-.411-.164-.354-.256-.063.145-.4.1.2.274.024.077.261.449.122.1.141.185-.174.442.026.645.308.391-.073.347.124.075.621.327-.069.3.113.066.39-.149.2.219-.062.146.134.483.073.428.409.258-.043-.092-.145.17-.214.042-.521.349.136.054.15.313-.035.58.448.413-.31.056.173.261.1.238-.433.575-.171.258.058.245.344.64.44.188.386-.064.628-.238.431.132.338-.487.4.009.421.323-.077.105.155.026.985-.257.17.217.281.459.107.563.548.27-.12.176.123.074-.132.375-.124h0l.425.795.81-.252.853.66.1.281.275.219-.045.1.2.062-.059.157.162.487.249.29-.314.212.007.284.362.033.181-.409.217.162-.11.058.079.391.639-.214-.17.525.506,1.753.235.021.492-.4.54.244.749.033h0l.426-.109.124.132.5-.151.243.075.3-.37.144-.047.085.142.315-.194h0l.2.246-.06.124-1.176.637-.031.229-.39.589.119.121-.127.182-.046.543-.445.523-.25.026-.27-.2-.329.424-.489-.013-.107.538-.665.112-.316.2-.491-.129.046.331-.246,0-.066.572-.151.151-.61-.233-.492.057.1-.2-.552-.3-.366.181-.079.345-.206.2-.147-.047-.146-.316-.16.126.124.255-.174.26.741.319.02-.184.531.13.015.315-.125.029-.06.265.283.222-.236.149-.609-.162-.022-.151-.3-.206-.153.231-.082-.262-.225-.1-.1-.508-.224-.328-.348-.015-.11-.191-.276.357-.5.12-.208.347-.1.263.237.065.209.232-.125.41-.513.616-.321.025-.23-.361-.295.046-.2-.233-.725.4-.863.189-.4.287-.917.125-.233.318-.038,1.6-.241.134-.833-.171-.6.259-.115.122.029.457-.216-.03-.056-.256-.143-.022-.008.413-.352.38-.351-.018-.553-.431-.331.253-.877-.146-.511.309-.341-.013-.107.609-.331.17-.088.306h-.222l-.093.13-.262-.1-.157-.342-.2.255-.653-.219-.506.182-.475-.127-.327.06-.3-.21-.554-.054h0l0-.485-.111-.169.107-.435-.13-.073-.017-.255.155-.386-.125-.006-.007-.152.078-.108.186.031.179-.209.145.065.007-.3-.555-.228-.473.078-.393-.1-.333-.139-.283-.388.325-.033.027-.107.4.044.073-.159.207-.043-.136-.283.416-.113.03-.375-.208.056-.094-.151.277-.092.01-.2-.248-.015.081-.41.192.024-.1-.777.263-.588-.21-.579-.587-.345.222-.282-.105-.066.424-.337-.117-.074.1-.493.272.1.165-.108.043-.192-.145-.139.357-.014,0-.148.214.06,0-.154.169-.036.07-.164-.027.132.205.05.009-.2-.537-.162-.011-.181-.237.08-.12-.143-.147.194-.066-.152-.286-.091.06-.66.639-.335.022-.1-.352-.111.037-.113.086-.153.136.053.132-.33.137.014-.066-.227.179.032.041-.33.116.069.054-.138-.041-.144-.308-.1-.266-.263.314-.275-.016-.316-.191-.293.221-.467Z" transform="translate(-137.685 -299.133)" fill="#c85151" stroke="#fddede" stroke-width="0.5"/><path d="M185.942,575.8l.13.1-.118.169.065.119.651.6-.807-.514-.481-.042-.059-.135.092-.086.27-.006Zm-6.242-19.97.037.22-.214.2.426-.062.149.228.445.241.522-.033-.011-.263.177-.006.028-.236.1.01.031-.01.048.14.133-.035-.012-.342.208-.158.25-.871h.12l-.189-.351.214-.229.244.08.05-.3.249.063.743-.24.034.391.244.006-.178-.1.12-.192.373-.051.512.366.478.04.207-.454.168-.113v-.186l.281-.033.232.26.267-.193-.039-.2.435-.143-.012-.124.137-.048-.054-.077-.144.1.081-.407-.288-.128.31-.121.611.074.074.258.18.128.5-.215.027.308.13-.026-.042.156.2-.085.123.158.232-.168-.364-.287.188-.18.147.122.117-.131.291.005.425-.191.16-.224-.12-.178.176-.08-.008-.2.192-.048.06-.166.172.019-.019-.1-.243-.049.023-.115.431-.047.473.346.447.012.261.516.206.116V551.9h0l.188.878-.262.787-.252,2.092-.559,1.838-1.557,2.372-.27.728h0l-.227-.135-.349.33-.121-.352.211-.07-.1-.087-.165.1-.153-.245-.2.193h0l.312.083-.119.207.159.046.108.217-.054.1-.186-.174-.136.228.256.16.263-.13.013.211.169-.092.107.187h0l-.248,1.43.464,1.22.094,2.21h0l-.3-.059-.1.11-.294-.115.078.255-.24-.05.133.317.47.175.025.311.217,0h0l.16,3.011-.249.123-.53,0-2.043-.242-.519.326-.376.677,0,.3.222.315-.642.613-.19.452-.731.849-.34.585-.208.74.235.429.71.614.726.109-.553.126-.793-.073-.468.092-.832.277-.052.108-.346-.013-.089.108.086.094-.453.153-.958.113-1.153.884-.231.447-.065.64.17-.029.246.161-.348.027-.368.536-.048.407.241-.044-.048.531-.373.447-.089.228.1.056-1.5.708-.327.41-.978.241-.141.342-1.344-.257-1.255-1.024h0l.146-.144.216.061-.142-.382.427-.342-.131-.322.349-.046.1-.209-.628-1.158.121.015.218-.236.162-.484-.219-.337-.139.01v-.181l-.274-.376.285-.143.079-.3.32-.316-.087-.21.173-.172v-.476l.1-.212.155,0,.131-.6.253-.114.1-.266-.261-.173-.055-.4-.092.185-.117-.173-.282.163-.338-.228-.252-.011.217-.636.1-.036.009-.338.138-.05-.143-.151.084-.2-.14-.1.2-.446.139-.061-.063-.389-.345-.42.412-.155.118-.512-.194-.078.023-.193-.206-.3.044-.2-.338-.035-.635.354-.076.217-.387.23-.373-.094-.247-.246.011-.134-.147.072-.108-.1.113-.375-.183-.321.128-.99-.141-.24.387-.018-.1-.267.24-.556-.053-.17-.274-.045-.131-.315-.963-.363.328-.625.491-.064-.317-.03.009-.43-.272-.135.2-.375-.164-.131-.423.267-.774-.1-.2.132-.036-.293.536-.361-.011-.346-.164.029-.349-.2-.217-.3-.439-.147-.073.082-.245-.174-.217.087-.082-.612.258-.166.154.167.3-.108.171-.232.256-.005-.008-.211h0l.16.025.3-.251.207.161.113.353,1.064,0,.4.078.119.133.078-.16-.128-.247.407-.813.343.106.075-.21.181-.011.156.111-.053.112.2-.073.086.3.215.072-.037-.294.71-.121.084-.109.246.024.236.23.191-.116.342.164.212-.517-.02-.289.138.073.043-.33,1.007-.034.166-.42.452-.56-.241-.361-1.491-.2.026-.349.415-.128.349-.411.093-.32.029-.4-.285.052.177-.184-.159-.042-.048-.3.159-.37-.043-.214.366-.1.138.147.146-.145.158.057.389-.721-.084-.276.76-.262.1.131-.144.2.089.049.119-.209.2.315h.115l.077-.3.182.021.423.425.57.1Z" transform="translate(-122.328 -400.661)" fill="#c85151" stroke="#fddede" stroke-width="0.5"/><path d="M486.753,307.115l.262.118h0v.275l.237.51-.341.818.479-.015h0l.23.659-.13.7.085.283-.1.182.113.305-.063.288-.161-.035-.1.14.069.2-.156.011.052.54h0l-.12.028-.134.418-.036-.237-.178-.1-.036-.2-.1.018-.529.594-.272-.083-.226-.449-.123.013-.113.287.188,1.246-.19.083v.2l-.219-.024-.321.257-.414.762.346,1.138-.116.159-.21.02-.311.485-.147-.086-.264.066-.27.224-.212-.1-.4-1.125.077-.181-.21-.042.067-.146-.15-.265-.206,0-.2.471.189.749-.253-.03-.27-.583.011-.592-.148-.236.087-.072-.139-.117.162-.258-.166.049-.245-.844-.268-.175.064-.191-.106,0-.192-.339-.026-.428.215.148.064-.254-.3-.023.012-.3.2-.087.166.083.189-.623-.144-.273.1-.189-.081-.1.235.015-.025-.234.068-.122.091.065.039-.162.41.136.1-.467-.106-.365.956.209.508-.166.149-.533-.069-.168.112-.1.1.384.268.169.174-.006-.107-.652.412.24.182-.122-.033.192.266.381.124-.033.183-.787-.123-.428.21-.129.219.22-.122-.423.83.03.114-.255.192-.041-.116-.437.02-.151Z" transform="translate(-349.535 -223.225)" fill="#c85151" stroke="#fddede" stroke-width="0.5"/><path d="M189.012,167.868l.407-.042.438.479,1.262.609-.532.893-.146.15-.152-.069-.165.343.084.145-.241.257.085.131-.156.216.088.142-.177.276.358.57-.04.459.213.1-.014.122.208.083.257-.215.447-.023.142.6-.143-.013-.026.169.208.016.025.278.279-.045.04-.267.218-.058.326-.49.311-.224.217.039.574-.608.462.157.429.205.227.772.445.413,1.031.565.786.131-.3.42-.237.159-.113-.1-.115.353-.18-.135-.249.213.492.391.3-.023.266.386.007.341.251.007.1-.113.313.321.057-.357.594.282.035.394.163.118-.041.186.262-.041.542.5.3,0,.045-.118.1.219.14.031.056.5.549-.049.167-.192.083.305.358-.149.3.133.263-.212.356-.073.2.19-.145.376.186-.045.049-.213.169,0,.123.17-.2.063.347.043-.07.107.191.347.26.111.262-.142.154-.3-.085-.11.267-.2h0l.271.007.56.48.2-.017.032.186.346.191.243.412.526.054.38.5.072-.141-.153-.6.373-.147.245.318.321-.017.129.357.444.14.121.269.438.227.059-.132.187.079.033.195.371.218.219-.113.1.25.257.185.748.158.126.466.5.6,0,.185-.11.012.148.122-.057.1.305-.057.022-.225.393.1.229.286-.032.231.833.526.447.1,1.045.839.235-.016.241-.448.569.035.318.379.486.142,1.375,1.064,1.482-.279.022.367.252.507-.119.54,1.113.014.14.214.457.123.881-.034.667.792.311-.076.288-.449-.142-.146.1-.144-.075-.142,1.291.065,1.383.764h0l-.169.182.147.074.355-.091.051.136-.158.288.323.157.139.223-.225.692.465-.016-.171.173.286.154.033.532-.124.124.13.07.025.258.217.093.06-.152.23.085-.052.2.213.136.231-.234.182.055.064.345-.158.331.054.113.076.066.29-.154.158.442.438.084.07.282-.813.178-1.089-.279,0,.277-.2.359-.421.074-.066.149-.345-.061v.434l.455.1.166-.089.349.409.568.067.059.364-.128.455-.265-.1-.192.26-.388-.124.038.61.177.29.24.02.436.453-.006.217.2-.058.541.341.315-.079.326.178.086.248.6.094-.01.276.169-.02.364.276-.113.213.172.206-.429-.051-.019.333-.119-.056.026-.214-.065.268-.207.041-.226-.233-.268.1-.125-.313-.278.026-.073.462-.2-.033.011.1-.473-.051-.049-.215-.264-.175-.308.067-.142.157.039.369-.912.5-.377.538-.234.05.161.184-.252.034.029.131-.214.146-.168-.144-.163.155-.054-.063-.111.112.079.045-.222.021-.159.244-.333.135-.141-.06-.453.416-.292.017-.12.267-.221.051-.082.111.126.362-.224.676.147.043.058.884.208.237-.02.308.379.321.153-.028.005.2.188.155-.093.186.251.161-.247.625h0l-.6.163-.066.287.107.3.17.031.123.246-.432.315.149.305-.448,1.034h0l-.2.178-.074.311-.343.212-.152.428-.588.269-.845.014-.749-.546h0l-.06-.264-.316-.1.139-.354-.331-.018-.292-.339.077-.149.283.122.038-.529.131-.081.081-.354-.02-.507-.305-.076.168-.721-.12-.085-.018-.27.191.093.313-.07-.025-.3h-.207l.015-.289-.387.009,0-.2-.217-.156-.736.305-.062-.166-.4,0-.094-.179-.176.141.043.542-.454-.163-.2.063.014-.355-.189-.1-.059.128-.132-.022.078-.669-.03.135-.1-.08.011.1-.133,0,.082.148-.234-.069.094-.27.115.005-.174-.146.1-.125-.209.2h-.27l-.614-.369-.261.127-.359-.391.089-.242-.078-.5-.071.106-.324-.168-.23.058-.325-.244-.289.031-.133-.227-.311.12-.06-.121.218-.148-.087-.123-.089.142-.052-.229.154-.147-.213-.054-.088-.174-.325.055.086.275-.167-.055-.129.1.2.192-.137.2-.474-.208.214-.017-.046-.147-.223.066-.35-.312-.1.056.01.3-.047-.315-.213-.011-.134.393.091.235-.343.46.062.387-.161.034.083-.035-.215-.15-.166.42-.32-.38-.382-.013.042.138-.352.043-.105-.3-.226.1h0l.031.1-.1-.055h0l-.285.091-.187-.062-.07-.173.333-.167-.123-.259.252-.2-.033-.333.228-.232-.154-.223-.239.018-.049.521-.161-.229-.572.059.147.09v.158l.29.086v.143l-.279-.064-.307.112.033-.175-.131.047-.314-.19.178-.119-.216-.2.07.526-.253-.122-.109.15-.194-.211-.191-.008.136.08-.033.28-.137,0-.169-.236-.428.154.094.3-.133-.1-.241.145-.284-.171.482-.725.414-.185-.141-.436-.12.035-.423-.326.038-.624-.314-.263-.061.151-.293-.072-.034.206-.369.287-.229-.11-.358.08-.137.472-.31-.021-.167.244-.063-.149-.316.106.143.569-.14.107.047.221-.631-.287-.845.079.028-.147-.075.047-.138-.192-.433.6-.168-.086.045-.241-.213.17-.091-.2-.091.162-.087-.359.147-.244.189-.024-.09-.079.184-.281.178-.006-.189-.086-.241.156-.274-.222-.083.183-.127-.182.087-.247-.293-.045-.2.19,0,.246.162-.119.128.18.172-.069-.063.272.1.1-.082.085-.337-.3.03.321.2.288-.065.118-.247.071-.005-.2-.133-.049-.126.08.169.048-.029.154-.183.017-.123-.236-.1.056.072.156-.286.044-.122-.208.072-.13-.206-.18-.236.344-.122-.032.016-.275.182-.248-.253-.143-.041-.182-.193.2.134.071.007.239-.271-.154-.437.343.023-.569.09.065.1-.183.183.074.168-.143-.1-.41-.144.115-.292-.081-.2.731-.206-.265.034-.183-.163.014.05-.109.295-.111-.033-.125.212-.225.426-.079-.1.146-.221.012.207.149.285-.154-.105-.4-.177.067-.148-.118.185-.21-.11-.258.146-.066-.064-.181-.079.117-.037-.114-.206.015.01.207-.273.091.165.272-.131.22-.117-.088.182-.051-.091-.072-.419-.066-.141-.156-.041.237.174.187.331.022-.4.112.122.345-.29.034-.026-.163-.292-.059-.008-.2.072.1.185-.159-.089-.12-.189.024-.138.238-.144-.067-.087.158-.156-.023.086.278-.292-.07.093.231-.094.127-.142.015-.046-.125-.144.2-.151-.071-.076.1.153.114.244-.147.411.223.163,1.018.256.23-.114.611.181.13.084.264.549.259.092.293-.092.126.045.573-.185.279.054.347.157.075.6-.294.484.9-.2.078-.1-.1-.03.214.433.16-.1.552-.338.329-.165.491-.374.08-.125.189-.18-.492-.082.121-.078-.091-.191.122-.17-.067-.518-.7-.418-.232-.4.605-.315.139-.307-.34.2-.353-.538-.387.016-.181-.285-.293.224-.223.055-.686-.275-.506-.065-.415-.258-.278.009-.156.927-.744v-.564l.386-.264.272.011-.141-.156.161-.1-.349-.165.071-.143-.247-.179-.054-.329-.212-.083.133-.163-.2-.242.2-.166.1-.341.17.041.248-.185-.069-.351.118-.2.148.076.178-.192.543.114.157-.157.229.149.163-.181.733-.193.035-.317-.369-.474.421-.32.01-.1-.134-.019.071-.076.29.2-.087-.391.206-.062-.036-.289.3-.215.084-.558.337-.286-.346-.366.332-.1-.133-.259.215-.013.031-.235.21.009-.114-.218.173-.132.093.1.059-.253.187-.026-.063-.122.1-.063-.326-.113.057-.353.174,0,.054-.177-.448-.072.071-.3-.231-.31-.129,0-.038-.2-.067.053.149-.233-.071-.475-.316.14.058-.218-.253-.107-.223.056-.306-.39-.258.006-.145-.18-.1.085-.043-.134-.322.2-.533.074-.658-.259-.142-.22-.207.048-.22-.318-.4.066-.121.277-.292-.1h0l-.107-.337.2.038.2-.263-.265-.2-.061.1-.537-.092-.057.31-.339-.067.032.261-.147.09-.088-.32-.37.07-.24-.159-.056.225-.782-.31-.2.137-.018.225-.636.312-.479.069-.13-.167-.1.386.071.134-.258.13.091-.146-.2,0,.061-.315-.1-.307,1.295-.686.5-.092.107-.222-.163-.056-.024.2h-.107l-.173-.33-.263.232-.4-.138.047-.265-.253.07-.131-.18.528-.18.082-.292.283-.046.105-.16-.191-.109.027-.139-.3-.4.128-.276-.226.108-.442-.353-.374-.115-.1-.169.082-.237-.19-.1-.08-.25-.27-.087-.027-.266.113-.144-.223-.118.178-.267-.033-.28-.223-.146.037-.449-.162-.12h0l.363-.343.418,0v-.241l.264.07.059-.309.288.007.1-.168-.153-.068.141-.163-.321-.33-.058-.272.054-.143.081.065.023-.4.263-.141-.287-.023-.017-.175.171.066-.02-.182.146-.117-.423-.143.146-.071.017-.172-.183-.2.174-.132-.113-.36-.783-.622h0l-.251-.377.242-.275-.143-.233.07-.466-.22.022-.344-.491-.159-.05.117-.262-.174-.206h0l-.029-.151.225-.094-.178-.337.137-.33-.527-.654.1-.5-.084-.281.108-.121-.083-.194.14-.412-.194-.094-.018-.177.171-.086-.12-.137.078-.207-.312-.6.142-.128-.138-.315.33-.694-.15-.428.2-.148.159-.746.474-.635.042-.306.824-.389-.094-.077.146-.33.284-.133.306-.622.249-.192.124-.4-.1-.091h0Z" transform="translate(-135.399 -121.987)" fill="#c85151" stroke="#fddede" stroke-width="0.5"/><path d="M205.617,142.685l.3.383-.081.286.222.156.069.406.23.27.324.077.179.541.5-.011.171.435.321.207.382-.285.291.016.214-.157.359.194.285-.008.344.58.738.322.337.43.309-.221.19.326.185-.009.083.184-.1.27-.225.182.163.165.039.44.514.077.359.271.184-.029.72.512.33-.219.876.592.422.519,1.191.445,0,.107-.163-.066-.449.157-.27.36.084.268-.665.524-.078.284-.409.321-.415,0-.291.724-.328.342-.34-.054-.389.364.093.5.205.237-.071.291-.166.222-.207.056.04.223-.36.275.09.159-.34.056-.008.217.192.127.024.293.215.225-.112.712-.281-.1.134.516-.22.155-.28-.124-.229.225-.05.627-.1.167-.1-.031-.239.459.07.567h0l-.267.2.085.11-.154.3-.262.142-.26-.111-.191-.347.07-.107-.347-.043.2-.063-.123-.17-.169,0-.049.213-.186.045.145-.376-.2-.19-.356.073-.263.212-.3-.133-.358.149L207.57,159l-.167.192-.549.049-.056-.5-.14-.031-.1-.219-.045.118-.3,0-.542-.5-.262.041.041-.186-.163-.118-.035-.394-.594-.282-.057.357-.313-.321-.1.113-.251-.007-.007-.341-.266-.386-.3.023-.492-.391.249-.213.18.135.115-.353.113.1.237-.159.3-.42-.786-.131-1.031-.565-.445-.412-.227-.772-.429-.205-.462-.157-.574.608-.217-.039-.311.224-.326.49-.218.058-.04.267-.279.045-.025-.278-.208-.016.026-.169.143.013-.142-.6-.447.023-.257.215-.208-.083.014-.122-.213-.1.04-.459-.358-.57.177-.276-.088-.142.156-.216-.085-.131.241-.257-.084-.145.165-.343.152.069.146-.15.532-.893-1.262-.609-.438-.479-.407.042h0l.1-.171.56-.143.687-.4.065-.145-.042-.2-.237.005-.185-.236.3-.14-.017-.3-.261-.147.044-.165-.3-.387.321-.408v-.343l.256.151.036-.436-.286.01-.063-.249.167-.117.3.157-.119-.108.165-.256-.141-.361.241-.129.255-.491.385-.161.34.16.09-.2.33-.037.343-.273.485-.023.208-.244.139.035.028-.149.331-.018.236.289.125-.081.141.1.149.271.383-.02.333-.2.223.1.076.182.843-.07.135.388.3.267.716-.054-.125-.42-.337-.315-.05-.228h0l.106-.487.379-.217.321-.714.463.213Z" transform="translate(-142.674 -103.143)" fill="#c85151" stroke="#fddede" stroke-width="0.5"/><path d="M384.543,279.649l.161.154.028.2-.281-.077Zm1.927-.046.393.316-.347.012Zm-.636-.119.161.151-.091.187-.164-.139Zm-1.065-.074.288.226-.214.236-.229-.238.082-.314Zm1.342-.089.149.378-.264.092.086-.152-.141-.163Zm1.108.071.109.124-.165.023-.023-.308.079.161Zm-2.131-.225,0,.37-.222-.138Zm2.238-.17.036.256.124.1.093.262-.165.019v-.161l-.154-.142-.126-.307Zm-1.027.054-.045.257-.223-.133Zm-2.823-.058.2.109.069.253-.245.243Zm.818-.019.1.224-.132.29-.081-.316Zm-1.427-.073.069.127-.066.113.09.1.017.146-.067.252-.175-.529.132-.207Zm4.887,0,.2.48-.248.163-.3-.386.062-.152Zm-2.917.029.152-.034.086.195-.264.265-.147-.341Zm1.91-.173.327.308-.111.388-.273-.383.057-.313Zm-2.692.086.093.181-.1.267.119.193-.191.2-.108-.525.136-.221-.143-.093.094-.143Zm-1.114-.115.283.047.192.43-.081.422.113.145-.162.13-.195-.055Zm4.1-.052.222.248-.246-.05Zm-3.215.009-.035.214.106.118-.133.1-.062-.387Zm3.671-.013.215.167-.141.076Zm-1.022.008.174-.006-.149.318.118.432-.089.061-.2-.073.035-.439-.23.041.122-.257.222-.077Zm-1.444-.125.216.3-.073.206-.176-.363Zm2.268-.03.209.351-.063.059-.308-.325Zm-2.111-.047.054.258-.1-.086-.058-.132Zm-.808.008-.007.319-.188.119.025-.309Zm1.417-.114.246.3-.037.17.079.037-.021.2-.193.04.108.172-.349-.121.045-.406Zm-.981-.018.158.139,0,.322-.3.1-.087-.319Zm-.7,0,.12.069-.119.365-.14-.267Zm3.3,0,.1,0,.037.29-.187-.154.054-.133Zm-.981.047.013.231-.226.1.176-.45Zm.648-.267.2.165-.069.2-.282.112-.073-.249Zm-2-.017.084.122-.022.192-.155-.111Zm-1.484.033.128.314.143.04-.017.122-.195.049-.044.22-.211-.053-.109-.426Zm2.993-.127.12.084.2.71-.388-.323Zm-4.112-.06.2.389-.01.429-.156.387.065.182-.261.149-.386-.144-.028-.159.206-.648Zm3.739.127.2-.219.1.112-.288.414-.045-.221Zm1.076-.241.285.171-.073.255-.342-.122Zm-2.043-.026.182.184-.083.514-.22-.487Zm-.339,0,.073.118-.115.33-.094-.14Zm-.662-.046.2.106.046.194-.241.254-.256-.009.12-.477Zm1.537.032.188.022.184.226-.13.483-.35-.351Zm-.431-.135.157.062-.115.148Zm1.124.023.449-.064.3.167-.076.133-.282.223Zm-.646-.087.434.075.049.218-.1.122-.109-.224-.3-.05Zm.125-.3.03.154.178.036.056.081-.282-.02-.106-.212Zm-.488-.244.319.115-.215.357-.283-.094Zm-2.965-.044-.308.578-.231.13.149-.517.389-.192Zm3.839.043.513.048-.033.46-.234.056-.555-.249.079-.269Zm1.306-.179.21.38-.084.324-.175.052-.3-.585.032-.212Zm-.976-.188.094.281-.516-.077Zm-.166-.152.077.1-.363.1-.058.139-.136-.04.149-.322.207-.078Zm.086-.542.339.624-.249.015-.238-.243.241-.1-.192-.331Zm.565.051.167.211-.114.353-.229.168,0,.249.127.15-.064-.34.165-.012.051.427.279.408-.05.121-.436-.211-.135-.36-.064-.438.167-.2-.211-.443.148.053Zm.266-.1.277.424-.073.4-.4-.044.167-.406-.139-.343Zm-1.762,0,.545.182-.606.545.3.311-.053.136-.373-.131-.156-.469Zm.9.3-.424.239-.22.335-.093-.009-.114-.127.626-.587.12-.026Zm.547-.466.081.173-.172.125-.04-.113.012-.133Zm-.771-.36.075.259-.156.1.135.241-.184.039-.236-.167.024-.146.341-.322Zm.164-.386.288.016.112.231.148.041.043.372-.235.1.061.3-.581-.3.128-.071-.086-.55.122-.135Zm.82-.228-.006.354.227.172-.168.071.418.543.01.315.158-.047-.2.165-.241-.477-.27-.026-.1-.3.1-.884Zm-.52-.948-.008.435.168.4-.192.143-.142-.789Zm.231-.149.147.067.221.733-.224.122-.1.624-.2-.16v-.257l.149-.121-.158-.438.008-.512Zm-5.244-29.437.331.116.063.382.29.159.337-.125.211.106.411-.057.111.152.618.15.56-.441-.052-.181.219-.068.343.006.214.164.16-.115.229.269.155-.062h0l.676.254L386.7,246l.252-.287.2.18-.079.166.129.118.358-.1.123.235.251.062.067.37.166.181.712-.056.7-.318.079.163.333.046.057.177.57-.059.36.248.131-.026.056.112-.235.227.107.057.151,0,.087-.141.3.116.173-.091.1.237.188-.1.285.072h0l.111.348-.11.167.117.251-.089.041-.053.577.1.179-.248.406.112-.04.06.117-.43.2-.007.143-.173.06.046.206-.233-.1.112.221-.07.081-.117-.073.137.2-.18.134.2.032-.213.148.225.09-.088.057h0l-.112-.015-.131-.211-.018-.111-.2-.057.132.332-.235-.015-.034.157-.108-.023.219.243-.208.115.093.08.113-.118.114.277-.407.251-.006.357-.211-.015-.007-.222-.594-.02-.051-.236-.178.247-.263-.023-.4-.246.012-.108-.135.013.061-.177-.24-.2-.388-.1-.125-.264.036-.353-.22-.3.206-.246-.3-.007.092-.109-.117-.174.039-.212-.3.008-.438-.417-.074.217-.1-.046-.129.155.049.269.25.026.027.074.132.013.093.151-.09.153.237.123.182-.054.026.247-.568.088-.2-.3-.266-.021-.115.09.1.247-.219.029-.158-.162.014-.262-.13-.08-.214.08-.071-.337-.256.121-.129-.294.119-.052-.447-.3-.022-.228-.146,0,.01.143-.228-.048.022-.205-.2.046-.232-.381-.29-.035-.115-.559-.216.26-.243.742.119.2.067-.264.661.166.238.648-.216.068-.166-.157-.113.235-.178.042.052.092-.368.22,0,.393-.587.2-.4.278-.111.432.139.048-.07.241.08.056-.246.078-.327.633.123.146.05.592.2.146.2-.159.128.085.351-.145.01.179.611.429.164.275.284.056-.059.4.306.1-.02.149.466.332.179-.049.231.23.28.045.07-.172.332.03-.035-.184.272.01.164.318-.127.39.161.1-.007.188.257.253.1-.083.109.2.49.071-.312.21.013.251-.137.009.072.216-.139.107-.447-.279-.235.247-.176-.119-.12.084-.245-.2-.527.022-.293.18-.378-.215-.308.1.1.344-.114.1.058.3-.093.184.1.092-.322.42.023.148-.342.042-.088.179.123.117-.13.166-.273-.189-.078.128v-.27l-.2-.26-.505.147.206.475-.16.068-.066.283-.078-.1-.095.266-.2.063-.033.3-.31.345.785,1.015.3.284.43.138.331.349.66.039.459.207.151.3.075-.19.1,0,.249.125.416-.029.184.223-.016.489-.186.2.061.3-.089.035.03.116.147-.006.009.637.18-.086.07.147-.206.042-.02.408h-.168l-.248.281-.473.052.147.269-.241.2.11.125-.1.771.176.034-.066.224.367-.046.082.346.479.449.318-.088-.043.334-.147-.009-.045.149.028.357-.165.1.072.228-.279.083.131.273.437.231.1-.006.022-.215.2.165.347-.034.032.135.432-.025-.073.193-.117-.053-.233.4-.29.187.019.571-.152.012.121.08-.037.214.194.029.106.2-.026.256h.21l.123.216-.052.3-.224.2.229.441-.153.446.144.05-.115.253-.393.149-.149.236.087.165-.069.575.172.2-.328-.051-.109.47-.333.305-.03.2-.311-.023-.358.625.1.393-.217.436.046.381-.164.144-.032-.108-.183.021-.072.313-.193-.16.179-.315-.6.146-.127.132-.039.533-.153.007-.06-.366-.228.061-.313.245.079.32-.317-.053-.308-.709.079-.288-.135-.2.309-.391.092-.326-.119-.567-.214-.2-.548-.081.2-.574-.319.524-.368-.159-.15-.241-.07-.752-.132-.179-.226-.04.335.466-.013.657.393.364.726.1.3.529-.724.532-.052.017-.416.942-.292.353-.225.043-.572.608-.208-.029-.364.26-1.188.3h0l-.134-.223.07-.384-.159-.135,0-.2-.42.005-.1-.158-.513-.174-.158-.867-.385-.117-.052.265-.37.14.006.294-.368-.031-.185-.26.208-.5-.1-.322-.345-.26-.716-.073-.238-.364-.428.065.042-.444h0l.253.024.051-.015h.138l.056-.151.011-.16.026.091.4-.017,0-.26-.326-.189.084-.443-.467-.181-.1-.313.251.007.054-.151-.221-.456-.619-.021-.193-.605-.45-.293-.187.119-.517-.466.1-.522.173-.225-.173-.166.215-.162.081.094.193-.062.125-.267-.16.131-.085-.147-.464-.03-.132.128-.542-.243-.491.133-.357-.3-.077-.263-.506-.159-.063-.218-.7.088-.329-.4-.148,0-.03-.424.3-.378-.067-.257.168-.036-.188-.246.018-.376.445.1.591-.244-.209-.362.206-.2.56.1,0,.592.431.107.1-.086-.081.212.106.1.2-.135.123.132.082-.052-.081-.1.411-.243-.1-.086.024-.291.131-.258.336-.155v-.128l.508,0,.36-.264.585-.146.216,0,.037.1.308-.061.158-.461-.154-.44.16.126.289-.206.023-.114.113-.11.237.22.175-.128.9.44.141,0,.1-.158-.2-.3.37.08-.04.084.172.063.138.029.031-.507.127.213.138-.16-.016-.358-.173-.065-.135-.471.54.064-.1.167.072.053.164-.083.579.174-.138-.169.279-.033.159-.164-.11-.076.014-.4.472.188-.04-.135.22-.139-.219-.167.687.037.017-.228-.314-.16-.011-.194.261-.025.165-.287.263-.073.307-.648-.145-.05.218-.5-.093-.1-.066.123.064-.341-.211-.231.45.193.224-.073.129-.2-.213-.107.165-.012-.1-.089.165-.2-.153-.1.081-.3-.349-.1-.124-.175.111-.138-.013.155.11-.007.126-.185-.051-.185.176-.01-.054-.179.483-.275-.039-.209-.512-.622-.574-.4.063-.818h0l.281.135-.079-.222.193-.275-.415-.346.028-.252-.132-.036-.038-.172.127-.251.156.066.144-.193.169-.005.09-.321.113.074.155-.2.343.072,0,.141.1.054.019-.1.115.154.245.036.014-.149-.212-.208-.084-.319.19-.292-.107-.025.074-.342-.5-.217-.164-.3-.194.01.069-.287-.155-.088.157-.147-.5-.125-.109-.259.15-.149.07-.695.4-.3.1.141.039-.1.173.02-.023-.451.28.071.139-.235.185.013.427-.492.4-.184.444-.462-.139-.174-.171.037-.041-.119.214-.178-.222-.162-.016-.186-.186.027-.084-.119.311-.267-.012-.126-.36.094-.131.169-.225-.158h0v0h0l0-.022h0l.329-.621.157-.867-.082-.6-.213-.213.055-.142-.146-.191.083-.226-.243-.121-.089-.2-.224-.008-.095-.329-.169-.115.159-.422-.03-.312Z" transform="translate(-268.409 -177.558)" fill="#c85151" stroke="#fddede" stroke-width="0.5"/></g></svg>