<svg xmlns="http://www.w3.org/2000/svg" width="121.043" height="120.54" viewBox="0 0 121.043 120.54"><g transform="translate(-133.647 -295.242)"><g transform="translate(133.897 295.49)"><path d="M324.03,559.963l-.063,1.1-.033.551-1.566.648c-.267.511-.577,1.037-.807,1.562-.244.559-.375,1.191-.633,1.739-.023.049-.808,1.288-.811,1.288a37.829,37.829,0,0,1-3.89,2.132l-.226,1.2-1.092,1.2c-.792.137-1.909.248-2.658.459-.03.008-1.862.807-1.9.829a9.772,9.772,0,0,0-1,.829c-.359.281-.729.551-1.092.825l.048,2.762-1.047.922-1.092-.463a27.293,27.293,0,0,1,.855-2.858,13.273,13.273,0,0,0-1.662-.548,7.952,7.952,0,0,0-.98-.063,25.222,25.222,0,0,0-4.7.041,7.965,7.965,0,0,1-.911-.63c-.122-.115-.211-.363-.344-.455-.322-.224-.774-.355-1.062-.6-.238-.2-.57-.794-.859-.9-.311-.118-1.262-.011-1.418-.288a1.751,1.751,0,0,0-.273-.907l-.352-.044c-.685.463-1.351.844-2.032.2a7.786,7.786,0,0,0-.27-.9,3.941,3.941,0,0,0-.444-.655l-.118-.049a3.513,3.513,0,0,0-.37-.55,5.99,5.99,0,0,0,.644-.9c.185-.37.555-1.388.555-1.388l1.758-.74.74-1.3s.185-.555.648-.648a7.834,7.834,0,0,1,1.2-.093l.925-.648a4.657,4.657,0,0,0,1.2.37c.37,0,.925.093,1.3.093s.648-.278.74-.74a1.408,1.408,0,0,0-.093-.833s-.833-.74-1.3-1.11a4.089,4.089,0,0,1,.278-.74c.185-.37,0-.648.833-.555s1.3.185,1.3-.278a5.411,5.411,0,0,1,.093-.925l.74.093.555.925h1.388c.648,0,1.943,0,1.943-.925s-.093-1.943-.093-2.313a9.638,9.638,0,0,1,.093-1.018,7.314,7.314,0,0,1,1.018-.74,1.7,1.7,0,0,1,1.758,0c.555.463.833.648.833.648l1.758-.833h1.2a1.617,1.617,0,0,0,1.2-1.3,14.559,14.559,0,0,0-.093-2.5l.555-1.018.026-.145c.278.052.559.108.715.145a4.181,4.181,0,0,0,1.11,0s.555-.555.925-.555a3.226,3.226,0,0,0,1.085-.422h0v0c.433.375,1.832,1.481,2.139,1.847a2.778,2.778,0,0,1,.318.63l.633,1.254c.292.518.881,1.214,1.1,1.733.015.038.637,2.383.637,2.4.063.774-.315,1.814-.237,2.576C323.386,558.591,323.985,559.719,324.03,559.963Z" transform="translate(-238.738 -458.01)" fill="#5751c8" stroke="#eaecff" stroke-width="0.5"/><path d="M237.748,395.707l.555.833-.322,1.851s.033.518-.126.662c-.278.256-.7.64-.94.818a2.2,2.2,0,0,0-.555,1.018l-.648,1.481-.37,1.018-.74,1.388-1.666,1.2a8.875,8.875,0,0,1-1.388.278c-.37,0-1.018.278-1.573.278s-1.2,1.388-1.2,1.388a2.8,2.8,0,0,1-.925.833c-.463.185-.648.278-.833.648a8.353,8.353,0,0,1-1.3,1.3l-.463,1.2-1.018.463-.925-.925s-1.481-1.11-1.851-1.481a4.155,4.155,0,0,1-.648-1.388,1.44,1.44,0,0,1,.555-1.11c.555-.37-.37-.925-.37-.925s-.833-.74-1.2-1.11a1.759,1.759,0,0,1-.648-1.018,4.381,4.381,0,0,1,.093-1.573c.093-.37.185-1.573.185-1.573l1.11.093s-.37-.648.833-.925,1.2-.925,1.2-.925a6.265,6.265,0,0,1-.555-1.481c0-.37-.185-1.2.278-1.3a13.067,13.067,0,0,0,1.943-.925l1.3-1.2.833-1.018,1.573-.278,1.388-1.2,1.2.833,1.55-.225v0h.011l1,.64a2.193,2.193,0,0,0-.336.793,12.078,12.078,0,0,0-.093,1.573s.925-.555,1.3-.278a3.58,3.58,0,0,0,1.481.278,1.965,1.965,0,0,1,1.2-.37,4.59,4.59,0,0,1,1.111.369Z" transform="translate(-193.311 -359.841)" fill="#5751c8" stroke="#eaecff" stroke-width="0.5"/><path d="M202.832,475.564a5.091,5.091,0,0,1-.185,1.851,1.088,1.088,0,0,1-1.481.555c-.37-.278-1.018-.74-1.018-.74l-.74.37-1.3-.37v.648c0,.463-.463.37-1.2.278a.58.58,0,0,0-.74.555s.74.648,1.2.648,2.406.093,2.406.093.555,1.018.278,1.481.093.555.37,1.2-.185.648-.648.648a.975.975,0,0,0-.74.463,7.743,7.743,0,0,1-1.11.093c-.555,0-.463,1.018-.463,1.018l.278.925a1.136,1.136,0,0,0-.185.833,4.8,4.8,0,0,1,0,1.2s-.555.463-.925.093-.093-.925-.648-1.018a16.619,16.619,0,0,0-2.036-.185,4.55,4.55,0,0,0-1.481.648l-.833,1.11s-.093.463-.648.278c-.448-.147-1.429-.536-1.8-.685,0-.237-.037-.5-.052-.9,0-.082-.152-.222-.2-.27-.862-.84-1.051-.344-1.525-.551-.866-.382-.836-.711-2.08-.862-.048,0-1.255.174-1.362.189a1.6,1.6,0,0,0-.155.085l-.44-.015-.237-.166a13.922,13.922,0,0,0-.9-2.847,10.4,10.4,0,0,0-1.081-1.262c-.026-.024-.13-.039-.155-.067-1.81-1.91-1.98-2.317-4.664-2.516-.759-.352-.593-1.64-.6-2.358a.98.98,0,0,1,.015-.1,1.544,1.544,0,0,1,.511-1.029c.962-.348,1.55.315,2.154.1a3.07,3.07,0,0,0,1.443-.989c.026-.033.044-.17.07-.207l1.935-2.765a1.387,1.387,0,0,1,.155-.118l.563-1.739-.023-.237c-.022-.225-.151-.426-.177-.64-.041-.355-.019-.755-.03-1.114,0-.033.085-.181.1-.225l.859.093a6.821,6.821,0,0,0,.555-1.018c.185-.463.74-2.036.74-2.036s.278-1.018-.093-1.388-.648-.74-.463-1.11a4.209,4.209,0,0,0,.278-1.018,11.458,11.458,0,0,0,1.758.463c.37,0,1.573-.093,1.758-.74s1.018-.925,1.018-.925a11.923,11.923,0,0,1,1.851,0,3.326,3.326,0,0,1,1.666.74c.463.463.555,1.2,1.2,1.481a4.083,4.083,0,0,1,1.573,1.481c.185.37,1.388,2.036,1.388,2.036l.555-1.018.925-.278.463-.278.648.463,1.2.093s-.093.833-.463.833-.463,0-.555.555.74.648.74.648.833.093,1.481.093.74.74.74,1.2a7.591,7.591,0,0,0,.185,2.036.618.618,0,0,1-.463.925,2.674,2.674,0,0,1-.925,0,14.813,14.813,0,0,0,.74,1.851c.278.463.093.833-.093,1.3s.278.925.278.925l.833.463v.74h0Z" transform="translate(-165.983 -402.129)" fill="#5751c8" stroke="#eaecff" stroke-width="0.5"/><path d="M182.332,307.239l-.055.17-.463,1.943v1.943a3.376,3.376,0,0,1-.555,1.851c-.278.463-1.018,1.666-1.018,1.666v2.036a7.373,7.373,0,0,1-.093,1.018s-.833.833-1.2,1.11a16.787,16.787,0,0,1-1.851.925.913.913,0,0,1,.278,1.11c-.278.74-.463.37-1.018-.093s-.463.37,0,.833.185.833-.185.925-.278.278-.278.74-.648.37-1.11.093-.74.37-.74.37v1.388s-1.758,1.943-2.313,1.943a12.025,12.025,0,0,1-1.573-.185l-1.2.833h-1.2l-.463.555s-1.018.833-1.388,1.2a5.871,5.871,0,0,0-.74,1.018,11.342,11.342,0,0,1-1.2.463,1.35,1.35,0,0,1-1.3-.463c-.463-.463-.925-.278-1.481-.278a2.623,2.623,0,0,0-1.481.555,4.952,4.952,0,0,1-1.666.37l-.074.014c-.063-.359-.167-.9-.17-.914a21.168,21.168,0,0,0-1.369-1.718,19.923,19.923,0,0,0-.848-1.943,7.336,7.336,0,0,0-.807-.825,9.034,9.034,0,0,0-2.269,1.014l-1.351-.87-1.336.33-.4-.467a12.534,12.534,0,0,1,.544-2.676,18.842,18.842,0,0,1,4.789-3.75l-.473-.91.341-1.5,2.073-1.247c-.378-1.118-.477-2.313-.814-3.435l.185-.492a4.469,4.469,0,0,1,1.1-1.888,7.864,7.864,0,0,1,2.084-.64c1.325,1.24,1.092,1.458,2.695.84a1.412,1.412,0,0,1,.463-.118c.023.011.148.078.16.078.5.051,1.625.315,2.039-.111a11.59,11.59,0,0,1,3.02-2.465l.067-.122a6.05,6.05,0,0,0,1.67-.6c.751-.311,1.192-1.714,1.473-1.777l.307,0c.177.1.963.644,1.226.463s.814-.666,1.151-.614l3.875.6c.474.074.87.507,1.281.714.252.126,1.558-.118,2.162.052a.951.951,0,0,0,.732.2c.1.093.442.411.783.715Z" transform="translate(-149.406 -304.947)" fill="#5751c8" stroke="#eaecff" stroke-width="0.5"/><path d="M194.461,429.639l.37.648-.463.278-.925.278-.555,1.018s-1.2-1.666-1.388-2.036a4.083,4.083,0,0,0-1.573-1.48c-.648-.278-.74-1.018-1.2-1.481a3.325,3.325,0,0,0-1.666-.74,11.923,11.923,0,0,0-1.851,0s-.833.278-1.018.925-1.388.74-1.758.74a11.459,11.459,0,0,1-1.758-.463,4.21,4.21,0,0,1-.278,1.018c-.185.37.093.74.463,1.11s.093,1.388.093,1.388-.555,1.573-.74,2.036a6.824,6.824,0,0,1-.555,1.018l-.859-.093c.03-.177.015-.366.048-.544a2.634,2.634,0,0,0,.107-1.158c-.078-.722-1.344-1.9-1.691-2.447-.252-.388-.488-.8-.759-1.177-.3-.422-.7-.821-1.04-1.225a.5.5,0,0,0-.048-.056l-.289-.134-.547.223,0-.044a1.473,1.473,0,0,1-1.806-.248c-.366-.755-.807-1.536-1.121-2.313-.2-.5-.322-1.11-.474-1.632l-.059-.215a14.225,14.225,0,0,0-.422-1.455,10.119,10.119,0,0,0-.766-1.258l.4-.944a11.32,11.32,0,0,0,1.236-.57,7.365,7.365,0,0,0,.978-.885,3.961,3.961,0,0,0,.614-1.136c.115-.218.285-.44.422-.648.008-.014.618-.5.656-.533a.484.484,0,0,1,.093-.024c.067-.023.837-.263.862-.263a5.628,5.628,0,0,0,3.131-.638,14.594,14.594,0,0,0,1.969-1.3,7.648,7.648,0,0,0,1.632-2.72,4.9,4.9,0,0,0,.085-1.436,6.087,6.087,0,0,0-.022-.9,14.225,14.225,0,0,0-.381-1.407l.089-.03a7.742,7.742,0,0,1,1.11-.093h1.481l2.036,2.036,1.11.093,1.018,1.666s-.093,1.2-.185,1.573a4.382,4.382,0,0,0-.093,1.573,1.759,1.759,0,0,0,.648,1.018c.37.37,1.2,1.11,1.2,1.11s.925.555.37.925a1.44,1.44,0,0,0-.555,1.11,4.156,4.156,0,0,0,.648,1.388c.37.37,1.851,1.48,1.851,1.48l.925.925s-.463,1.11-.74,1.573a1.608,1.608,0,0,0-.093,1.11l-.093,2.406a2.735,2.735,0,0,0,.278,1.758,8.536,8.536,0,0,0,1.85,1.3Z" transform="translate(-162.331 -368.974)" fill="#5751c8" stroke="#eaecff" stroke-width="0.5"/><path d="M231.568,549.983a10.949,10.949,0,0,0,1.4-3.09c-1.488-.315-2.7-1.058-1.542-2.587.664-.874,1.689-1.275,2.163-2.306.332-.721.372-2.115,1.419-2.095.851.016,1.744,1.184,2.583,1.454.752.241,1.448.372,2.145.638a1.888,1.888,0,0,0,.276-.382,1.018,1.018,0,0,1,.925-.555.7.7,0,0,0,.278-1.3c-.74-.648-.833-1.018-.833-1.481s-.833-.833-.833-.833l-2.868-2.036-1.3-1.388s-.37-.555-.648-.925a.946.946,0,0,0-.925-.37c-.37,0-.278.093-.37.648s-.185,1.2-.185,1.2l-.648.093-.833-1.666-.833-.185s.463-.278-.185-1.018-1.2-.278-1.2-.278l-.278.833-.278,1.11-2.539-.344-.263.008a1.02,1.02,0,0,1,.056-.507c.162-.345-.278-.9.336-1.866a4.693,4.693,0,0,0,.681-1.255,6.985,6.985,0,0,0-.7-1.121.781.781,0,0,1-.118-.292,4.653,4.653,0,0,0-.507-.36l-.74-.648L223.822,527l-1.2-.648a5.66,5.66,0,0,0-.278,1.3c0,.463-.74.648-.74.093s-.74-.74-.74-.278-.093.555-.555.74-.37.37-.093.74.833,1.3.648,1.758-.463,1.018-.833.463a4.093,4.093,0,0,1-.74-1.388,10.232,10.232,0,0,0-.37-1.2l-.74-1.018a1.136,1.136,0,0,0-.185.833,4.8,4.8,0,0,1,0,1.2s-.555.463-.925.093-.093-.925-.648-1.018a16.619,16.619,0,0,0-2.036-.185,4.55,4.55,0,0,0-1.481.648l-.833,1.11s-.093.463-.648.278c-.448-.147-1.429-.536-1.8-.685a2.816,2.816,0,0,1-.174,1.073.912.912,0,0,1-.089.278c-.4.625-1.5,1.255-1.114,2.165.707,1,2.994.162,3.771.744a2.5,2.5,0,0,1,.285.333c.566.663.152,1.126.207,1.847a2.7,2.7,0,0,0,.663,1.365c.074.111.133.262.2.381a2.845,2.845,0,0,1,.237.74c.015.045.107.118.13.167a9.018,9.018,0,0,1,.337.955,3.391,3.391,0,0,1,.648.481c.673.452,1.291.933,1.928,1.437l1.4-.685c.148-.074.348.029.474.088a4.5,4.5,0,0,1,1.4-.2,6.008,6.008,0,0,0,1.055-1.617c-.067-.344-.337-1.18.019-1.462a4.969,4.969,0,0,0,1.529-.721c.015-.011.566-.063.637-.074.474.862-.729,2.695-1.163,3.453l.023.152a7.609,7.609,0,0,0-.707,2.12c0,.03.145,1.1.155,1.2.059.433.829.992.848,1.291.07,1.073-.725,1.1-1.036,1.885-.03.07-.274.663-.278.7a8.691,8.691,0,0,0,.392,2.383,8.056,8.056,0,0,0,1.115,1.055c.01.048.1.382.1.407,0,.215-.152.459-.152.671a1.681,1.681,0,0,0,.755,1.439,6.114,6.114,0,0,0,1.781.163l.133.111c.145-.023.289-.026.433-.04l.133-.1,1.473-.089.777-.565a3.619,3.619,0,0,1,1.208.1,6.076,6.076,0,0,1,.593-1.334,24.816,24.816,0,0,1,1.824-2.129Z" transform="translate(-186.417 -444.401)" fill="#5751c8" stroke="#eaecff" stroke-width="0.5"/><path d="M265.335,576.719a2.37,2.37,0,0,1,.841.363c.015.01.3.526.322.555l.341.18a5.087,5.087,0,0,1,1.336-.067,2.09,2.09,0,0,1,.6.637,1.951,1.951,0,0,1,.951.292c.607.015.618-.111,1.058-.529l.026-.077a1.028,1.028,0,0,1,.155-.3,4.451,4.451,0,0,1,1.007-1.163c.292-.093.963.33,1.228.459a1.252,1.252,0,0,1,.837.093,6.914,6.914,0,0,1,.578.629,5.986,5.986,0,0,0,.644-.9c.185-.37.555-1.388.555-1.388l1.758-.74.74-1.3s.185-.555.648-.648a7.829,7.829,0,0,1,1.2-.093l.925-.648a4.658,4.658,0,0,0,1.2.37c.37,0,.925.093,1.3.093s.648-.278.74-.74a1.408,1.408,0,0,0-.093-.833s-.833-.74-1.3-1.11a11.615,11.615,0,0,0-1.666-.925,13.8,13.8,0,0,0-1.758-.37c-.37,0-1.758-.185-1.758-.185l-.833-.925-.74-.74s-.463-.555-.925-.555-.278-.648-.278-.648a5.163,5.163,0,0,0,.464-.451c-.7-.267-1.394-.4-2.146-.638-.839-.27-1.732-1.438-2.583-1.454-1.048-.02-1.087,1.374-1.419,2.095-.473,1.029-1.5,1.431-2.163,2.306-1.163,1.529.054,2.273,1.542,2.587a10.948,10.948,0,0,1-1.4,3.09,25.2,25.2,0,0,0-1.827,2.13,6.062,6.062,0,0,0-.593,1.334c.094.021.187.039.28.058.024.008.171.144.2.155Z" transform="translate(-222.123 -467.464)" fill="#5751c8" stroke="#eaecff" stroke-width="0.5"/><path d="M305.268,520.805c-.389-.07-.765-.133-.765-.133l.093-1.3-.185-.74a5.91,5.91,0,0,0-1.11-.555c-.37-.093-3.331-1.388-3.7-1.573a4.341,4.341,0,0,0-2.221.463c-.648.278-.833,0-1.2-.278a21.812,21.812,0,0,1-1.573-1.666l.093-2.776-3.424-1.11-.833-.925-1.3.093v-.74l-.833-.093s-.463-.278-1.018-.555-.463-1.018-1.2-1.573a11.767,11.767,0,0,0-2.5-1.018c-.37-.185-1.388-.463-1.7-1.091s-1.447-.667-1.447-.667a5.872,5.872,0,0,1-1.018-.74.341.341,0,0,1-.109-.3c-.43.156-.605.618-.825,1.186-.324.839.147,2.263-.621,2.815.621.447,1.645.165,2,.736a2.566,2.566,0,0,1-.154,1.863c-1.23.184-1.392-.085-1.758,1.277-.2.735-.8,1.367-.925,2.073-.665.352-1.707,1.612-.813,2.175a4.455,4.455,0,0,0,.232,2.707h.008a.945.945,0,0,1,.925.37c.278.37.648.925.648.925l1.3,1.388,2.869,2.036s.833.37.833.833.093.833.833,1.481a.7.7,0,0,1-.278,1.3,1.018,1.018,0,0,0-.925.555,3.591,3.591,0,0,1-.74.833s-.185.648.278.648.925.555.925.555l.74.74.833.925s1.388.185,1.758.185a13.8,13.8,0,0,1,1.758.37,11.611,11.611,0,0,1,1.666.925,4.087,4.087,0,0,1,.278-.74c.185-.37,0-.648.833-.555s1.3.185,1.3-.278a5.41,5.41,0,0,1,.093-.925l.74.093.555.925h1.388c.648,0,1.943,0,1.943-.925s-.093-1.943-.093-2.313a9.638,9.638,0,0,1,.093-1.018,7.317,7.317,0,0,1,1.018-.74,1.7,1.7,0,0,1,1.758,0c.555.463.833.648.833.648l1.758-.833h1.2a1.617,1.617,0,0,0,1.2-1.3,14.558,14.558,0,0,0-.093-2.5l.555-1.018Z" transform="translate(-229.067 -430.026)" fill="#5751c8" stroke="#eaecff" stroke-width="0.5"/><path d="M247.936,493.584c-.895-.563.148-1.822.813-2.175.12-.705.727-1.337.925-2.073.367-1.363.528-1.093,1.758-1.277a2.564,2.564,0,0,0,.154-1.863c-.359-.57-1.382-.288-2-.735.767-.552.3-1.978.621-2.816.22-.567.395-1.03.825-1.186a1.021,1.021,0,0,1,.387-.529l.555-.648.278-1.2a5.014,5.014,0,0,0,.833-1.666c.185-.833-1.11-1.573-1.11-1.573s-1.2-1.3-1.666-1.666-.185-1.388.185-1.573.648-.648.185-.833-.37-.555-.278-.925l-1.018-.093-.463-.555a5.293,5.293,0,0,0-1.573-.463c-.833-.093-.925.278-1.388.555s-2.5.37-2.961.555a5.019,5.019,0,0,1-1.573.093l-.555-1.11-1.11-.278a2.609,2.609,0,0,1-1.018-.833c-.37-.555-1.2.093-1.2.093a5.042,5.042,0,0,1-1.573.278.757.757,0,0,0-.833.74s-.093.833-.463.833-.463,0-.555.555.74.648.74.648.833.093,1.481.093.74.74.74,1.2a7.591,7.591,0,0,0,.185,2.036.618.618,0,0,1-.463.925,2.674,2.674,0,0,1-.925,0,14.813,14.813,0,0,0,.74,1.851c.278.463.093.833-.093,1.3s.278.925.278.925l.833.463v.74a5.091,5.091,0,0,1-.185,1.851,1.088,1.088,0,0,1-1.481.555c-.37-.278-1.018-.74-1.018-.74l-.74.37-1.3-.37v.648c0,.463-.463.37-1.2.278a.58.58,0,0,0-.74.555s.74.648,1.2.648,2.406.093,2.406.093.555,1.018.278,1.481.093.555.37,1.2-.185.648-.648.648a.975.975,0,0,0-.74.463,7.743,7.743,0,0,1-1.11.093c-.555,0-.463,1.018-.463,1.018l.278.925.74,1.018a10.228,10.228,0,0,1,.37,1.2,4.093,4.093,0,0,0,.74,1.388c.37.555.648,0,.833-.463s-.37-1.388-.648-1.758-.37-.555.093-.74.555-.278.555-.74.74-.278.74.278.74.37.74-.093a5.66,5.66,0,0,1,.278-1.3l1.2.648,1.388.093.74.648a4.524,4.524,0,0,1,.507.361.8.8,0,0,0,.118.292,7.07,7.07,0,0,1,.7,1.12,4.7,4.7,0,0,1-.681,1.256c-.614.965-.174,1.52-.337,1.866a1.016,1.016,0,0,0-.055.507l.263-.008,2.539.344.278-1.11.278-.833s.555-.463,1.2.278.185,1.018.185,1.018l.833.185.833,1.666.648-.093s.093-.648.185-1.2,0-.646.362-.647a4.459,4.459,0,0,1-.232-2.709Z" transform="translate(-200.778 -407.959)" fill="#5751c8" stroke="#eaecff" stroke-width="0.5"/><path d="M295.068,475.152c.2-2.242-1.626-4.137-1.2-6.4a10.966,10.966,0,0,0-.083-1.191.717.717,0,0,0,.491-.145,4.865,4.865,0,0,1-.558-.687c-.185-.37-2.776-2.961-2.776-2.961a5.557,5.557,0,0,0-1.573-.648,1.359,1.359,0,0,1-1.11-.648c-.278-.37-.278-.74-.648-1.018s-.185-.925-.185-.925v-.74s-.833-.463-.833.093,0,.648-.463.925a2.279,2.279,0,0,0-.74.925,1.308,1.308,0,0,0,.463,1.018,1.778,1.778,0,0,1,.648.925s.278.648-.37.555a10.088,10.088,0,0,0-1.573-.093c-.463,0-1.388.093-1.388.093s-.185.648-.278,1.018-.185.74.278.925.185.648-.185.833-.648,1.2-.185,1.573,1.666,1.666,1.666,1.666,1.3.74,1.11,1.573a5.014,5.014,0,0,1-.833,1.666l-.278,1.2-.555.648s-.648.463-.278.833a5.871,5.871,0,0,0,1.018.74s1.136.038,1.447.667,1.329.906,1.7,1.092a11.766,11.766,0,0,1,2.5,1.018c.74.555.648,1.3,1.2,1.573s1.018.555,1.018.555l.833.093v.74l.282-.02a11.365,11.365,0,0,0,.316-1.193A50.875,50.875,0,0,0,295.068,475.152Z" transform="translate(-233.275 -402.364)" fill="#5751c8" stroke="#eaecff" stroke-width="0.5"/><path d="M277.023,358.1a1.663,1.663,0,0,1-.326-1.11c-.044-.648-1.018-.833-1.3-.833s-.648.048-1.2.048-.74-.326-.74-.555V354.4a2.56,2.56,0,0,0-.37-.648c-.278-.37-.137-.74-.137-1.11s-.093-.555-.511-1.018a3.232,3.232,0,0,0-.692.789c-.185.37-.74.648-1.018.278s-.74-.093-1.11.093-.555.185-1.018-.555-1.48,0-1.48,0l-1.11-.833a6.081,6.081,0,0,1-.278,1.2c-.185.463-.648.555-1.018.648s-1.388.278-1.388.278l-.74-1.018-1.018-.093s-.555-.833-.74-1.2-.37-.74-.833-.833-.925-.74-.925-.74l-1.3-1.018-1.573-.093V347.6l-.925.185-.925.185s-.648,1.11-.833,1.573.278.74.74.833.185.37-.093,1.018-.37.648-.37.648H252.78a3.453,3.453,0,0,0-.555.74c-.185.37-.925.555-.925.555l-1.2.093a1.78,1.78,0,0,0-.648.648l-.555.925-.925-.185a5.639,5.639,0,0,0-.648-1.11c-.37-.463-.555-.74-.925-.74a12.855,12.855,0,0,1-1.388-.185l.648,1.666a7.386,7.386,0,0,1-.463,1.481,1.717,1.717,0,0,0-.185,1.018l.833.555a6.382,6.382,0,0,1-1.388,1.388c-.2.082-.252.307-.238.533l-.21.566a7.144,7.144,0,0,1,.347.656,3.873,3.873,0,0,0,.352.579,8.116,8.116,0,0,1,.753-.49,3.274,3.274,0,0,1,4.552.706c.705.114,1.8-.332,1.946-1.076-1.681-1.2,1.337-1.721,2.108-1.731,1.261-.016,1.36.587,2.389.964.954.35,2.155-.3,3.186-.271a2.923,2.923,0,0,1,1.506.26c.344.259.259.873.555,1.081.52.364,1.255-.011,1.8.1-.058-.377-.034-.861.476-.861h1.758a2.1,2.1,0,0,1,.925-.648c.463-.093,1.018-1.018,1.018-1.018a1.073,1.073,0,0,1,1.388-.278,12.425,12.425,0,0,0,2.776.833c.37.093,1.2.463,1.851.093s.833-.463,1.11-.093.833,1.018.833,1.018.555.463,1.018.185a4.938,4.938,0,0,0,.97-.882s-.369-.691-.6-1.017Z" transform="translate(-208.99 -331.811)" fill="#5751c8" stroke="#eaecff" stroke-width="0.5"/><path d="M262.892,379.435c-.3-.208-.211-.821-.555-1.081a2.924,2.924,0,0,0-1.506-.26c-1.032-.033-2.233.622-3.186.271-1.029-.377-1.127-.979-2.389-.964-.771.009-3.789.528-2.108,1.732-.147.745-1.241,1.189-1.946,1.076a3.273,3.273,0,0,0-4.552-.707,8.287,8.287,0,0,0-.753.49c.224.316.475.606.718.931a1.846,1.846,0,0,1,.326.623,1.48,1.48,0,0,0,.3.718l.063.055a1.17,1.17,0,0,0,.807.052,4.361,4.361,0,0,0,.844,1.063l0,.01h.011l1,.64a2.186,2.186,0,0,0-.337.792,12.08,12.08,0,0,0-.093,1.573s.925-.555,1.3-.278a3.58,3.58,0,0,0,1.481.278,1.965,1.965,0,0,1,1.2-.37,4.564,4.564,0,0,1,1.11.37l.555.833a2.888,2.888,0,0,1,1.2-.555,4.54,4.54,0,0,0,1.2-.278,7.431,7.431,0,0,0,1.573-1.3,2.354,2.354,0,0,1,1.11-1.018,11.02,11.02,0,0,0,1.48-.925,1.472,1.472,0,0,1,.833.093,12.043,12.043,0,0,0,1.3.463l1.11-.185a3.525,3.525,0,0,0-.37-1.573,4.521,4.521,0,0,0-.833-.925s-.278-.925.185-1.018a4.723,4.723,0,0,1,.833-.093,2.587,2.587,0,0,1-.106-.434c-.546-.115-1.28.261-1.8-.1Z" transform="translate(-210.182 -350.584)" fill="#5751c8" stroke="#eaecff" stroke-width="0.5"/><path d="M279.284,397.5c.555-.093.648-.555.278-.833s-.555-1.48-.555-1.48L277.989,395l-1.11-.555s-.74-.648-.74-1.018l-1.11.185a12.039,12.039,0,0,1-1.3-.463,1.472,1.472,0,0,0-.833-.093,11.018,11.018,0,0,1-1.481.925,2.354,2.354,0,0,0-1.11,1.018,7.429,7.429,0,0,1-1.573,1.3,4.539,4.539,0,0,1-1.2.278,2.888,2.888,0,0,0-1.2.555l-.322,1.851s.033.518-.126.662c-.278.256-.7.64-.94.818a2.2,2.2,0,0,0-.555,1.018l-.648,1.481-.133.365a6.241,6.241,0,0,1,2.553.779c-.393.254-.188.358-.348.633.172.127.48.4.619.493,1.874.262,2.876-2.348,4.57-1.271.7.445,1.406,1.111,2.121,1.585.091.06.177.115.257.17a.973.973,0,0,1,.261-.256c.463-.278,1.3-1.017,1.943-1.017s1.2-.832,1.2-.832l1.2-.925a4.464,4.464,0,0,0,.74-1.11c.093-.37.648-.74.648-1.2a6.2,6.2,0,0,0,0-1.851c-.185-.463-.648-.925-.093-1.017Z" transform="translate(-221.337 -360.431)" fill="#5751c8" stroke="#eaecff" stroke-width="0.5"/><path d="M253.43,421.471c-1.693-1.079-2.7,1.532-4.57,1.27-.139-.1-.447-.366-.619-.493.161-.275-.045-.379.348-.632a6.207,6.207,0,0,0-2.553-.779l-.238.653-.74,1.387-1.666,1.2a8.875,8.875,0,0,1-1.388.278c-.37,0-1.018.278-1.573.278s-1.2,1.388-1.2,1.388a2.8,2.8,0,0,1-.925.833c-.463.185-.648.278-.833.648a8.355,8.355,0,0,1-1.3,1.3l-.463,1.2,1.758.463s.925-.185,1.481-.37.555-.37.925-.093a1.432,1.432,0,0,0,1.018.278h.555L242,431.3l.925-.463s1.018-.093,1.018.463v.925s1.2-.555,1.851-.093a2.543,2.543,0,0,0,1.666.648,10.076,10.076,0,0,0,1.573-.925s-.648-.833.37-.925a3.026,3.026,0,0,0,1.573-.555v-1.11c0-.555-.463-1.573.278-1.573a2.512,2.512,0,0,0,1.2-.278l.74.463.833-.37.093-1.573.555-.74.559-.762a4.848,4.848,0,0,1,.568-1.2l-.257-.17c-.715-.474-1.422-1.14-2.121-1.585Z" transform="translate(-203.768 -377.942)" fill="#5751c8" stroke="#eaecff" stroke-width="0.5"/><path d="M308.764,377.652c.048-.419-.555-.511-.877-.511a1.727,1.727,0,0,1-1.066-.414,2.294,2.294,0,0,0-1.2-.234,4.94,4.94,0,0,1-.97.881c-.463.278-1.018-.185-1.018-.185s-.555-.648-.833-1.018-.463-.278-1.11.093-1.48,0-1.851-.093a12.424,12.424,0,0,1-2.776-.833,1.073,1.073,0,0,0-1.388.278s-.555.925-1.018,1.018a2.1,2.1,0,0,0-.925.648h-1.758c-.833,0-.37,1.3-.37,1.3a4.724,4.724,0,0,0-.833.093c-.463.093-.185,1.018-.185,1.018a4.521,4.521,0,0,1,.833.925,3.525,3.525,0,0,1,.37,1.573c0,.37.74,1.018.74,1.018l1.11.555,1.018.185s.185,1.2.555,1.481.278.74-.278.833-.093.555.093,1.018a6.2,6.2,0,0,1,0,1.851c0,.463-.555.833-.648,1.2a4.464,4.464,0,0,1-.74,1.11l-1.2.925s-.555.833-1.2.833-1.481.74-1.943,1.018-.829,1.458-.829,1.458l-.009.013.147.049a11.689,11.689,0,0,1,2.695.142c-.287,1.5.555,2.2-1.194,2.718-.016.429-.02.883-.037,1.317-.206-.024-.508.082-.709.038-.046.456-.373.643-.861.616a27.088,27.088,0,0,0,0,2.8,12.484,12.484,0,0,1,1.9-.109c.572.154.514.547,1.148.64-.011.181.046.4.038.58a13.029,13.029,0,0,1,1.738,2.752,9.777,9.777,0,0,1,.079,2.788,6.626,6.626,0,0,1,1.262.576s2.591,2.591,2.776,2.961a22.28,22.28,0,0,0,1.851,2.036l1.48,1.388,2.776-.74,1.666-.74-.093-1.758a6.4,6.4,0,0,0-.37-2.128,1.146,1.146,0,0,1,.463-1.573c.37-.185.74-1.018.74-1.018a6.622,6.622,0,0,0,.093-1.573.994.994,0,0,1,.555-1.11.736.736,0,0,0-.093-1.2,4.088,4.088,0,0,0-.74-.278s-.185-2.591-.278-2.961-.093-.555.37-1.018-.093-1.481-.74-1.943a1.635,1.635,0,0,1-.833-1.573,1.972,1.972,0,0,0-.74-1.573c-.37-.278-.37-1.018-.555-1.388s-.555-2.312-1.018-3.33a3.364,3.364,0,0,1,.37-2.5l1.018-1.388a3.843,3.843,0,0,0,.093-1.2c-.093-.37.278-.648.74-.648a7.373,7.373,0,0,1,1.018.093h1.48c.648,0,.463-1.481.463-1.481s-.278-1.573-.278-2.036a1.624,1.624,0,0,1,.555-1.3c.463-.463.925-1.018.925-1.018l.463-1.11a3.021,3.021,0,0,1-.047-.834Z" transform="translate(-236.985 -349.189)" fill="#5751c8" stroke="#eaecff" stroke-width="0.5"/><path d="M256.731,442.112a13.077,13.077,0,0,0-1.738-2.752c.009-.181-.048-.4-.037-.58-.634-.092-.576-.485-1.148-.64a12.306,12.306,0,0,0-1.9.109,26.98,26.98,0,0,1,0-2.8c.487.027.814-.16.861-.617.2.044.5-.061.709-.038.017-.432.022-.887.037-1.317,1.749-.517.906-1.214,1.194-2.718a11.881,11.881,0,0,0-2.7-.142l-.147-.048-.549.749-.555.74-.093,1.573-.833.37-.74-.463a2.512,2.512,0,0,1-1.2.278c-.74,0-.278,1.018-.278,1.573v1.11a3.027,3.027,0,0,1-1.573.555c-1.018.093-.37.925-.37.925a10.077,10.077,0,0,1-1.573.925,2.543,2.543,0,0,1-1.666-.648c-.648-.463-1.851.093-1.851.093v-.925c0-.555-1.018-.463-1.018-.463l-.925.463-.555-1.018h-.555a1.432,1.432,0,0,1-1.018-.278c-.37-.278-.37-.093-.925.093s-1.481.37-1.481.37l-1.758-.463-1.018.463s-.463,1.11-.74,1.573a1.608,1.608,0,0,0-.093,1.11l-.093,2.406a2.735,2.735,0,0,0,.278,1.758,8.535,8.535,0,0,0,1.851,1.3l.37.648.648.463,1.2.093a.757.757,0,0,1,.833-.74,5.042,5.042,0,0,0,1.573-.278s.833-.648,1.2-.093a2.608,2.608,0,0,0,1.018.833l1.11.278.555,1.11a5.02,5.02,0,0,0,1.573-.093c.463-.185,2.5-.278,2.961-.555s.555-.648,1.388-.555a5.292,5.292,0,0,1,1.573.463l.463.555,1.018.093c.093-.37.278-1.018.278-1.018s.925-.093,1.388-.093a10.088,10.088,0,0,1,1.573.093c.648.093.37-.555.37-.555a1.778,1.778,0,0,0-.648-.925,1.308,1.308,0,0,1-.463-1.018,2.28,2.28,0,0,1,.74-.925c.463-.278.463-.37.463-.925s.833-.093.833-.093v.74s-.185.648.185.925.37.648.648,1.018a1.36,1.36,0,0,0,1.11.648,2.145,2.145,0,0,1,.311.071,9.82,9.82,0,0,0-.08-2.787Z" transform="translate(-200.402 -384.072)" fill="#5751c8" stroke="#eaecff" stroke-width="0.5"/><path d="M379.505,427.133a2.59,2.59,0,0,1-.881-1.251c0-.322-.785-.969-1.155-.969a4.191,4.191,0,0,1-.925-.141c-.233-.044-.648-.833-.788-1.525s-1.11-.185-1.525.137a3.459,3.459,0,0,1-1.666.37,6.385,6.385,0,0,1-1.9-.74,11.286,11.286,0,0,1,.7-1.943,2.649,2.649,0,0,0-.418-2.5,3.913,3.913,0,0,1-.648-1.943,3.66,3.66,0,0,0-.648-.463,11.192,11.192,0,0,1-1.481-1.481c-.37-.37-.229-1.573-.229-1.573s-1.2-.507-1.573-.74a1.87,1.87,0,0,0-1.2-.093c-.278.049-1.481.049-1.481.049s-1.11-1.3-1.344-1.666a16.267,16.267,0,0,0-1.573-1.573l-.833.414a8.565,8.565,0,0,0-.229,1.3c0,.37-1.529.648-1.529.648s-.463,1.251-1.34,1.3-2.547.185-2.547.185l.093-1.432-1.432-1.481,1.758-2.036s-.141-2.776-.048-2.961a3.2,3.2,0,0,0-.322-1.388,7.047,7.047,0,0,1-.233-1.758c0-.185-.463-2.036-.463-2.036l-2.036-1.388s-2.728-2.547-3.054-2.824.141-.969.233-1.2.322-.507.185-.692-.833-1.2-.833-1.2h-.74c-.326,0-.326.322-.973.6s-1.11.093-1.851-.37-.692-.093-1.11-.044a19.674,19.674,0,0,1-2.265-.234l.555-1.617s-.418-.234-.881-.555a20.586,20.586,0,0,0-1.988-1.3,2.939,2.939,0,0,1-1.018-1.018,16.039,16.039,0,0,1-.648-1.573s-.74-.648-1.436-1.344a1.126,1.126,0,0,1-.229-1.525,6.066,6.066,0,0,0,.37-1.066s-1.3-.833-1.758-1.062a.7.7,0,0,0-1.018.322c-.185.37-.37.7-.37.7l-1.2-.093-.463,1.11s-.463.555-.925,1.018a1.624,1.624,0,0,0-.555,1.3c0,.463.278,2.036.278,2.036s.185,1.48-.463,1.48h-1.481a7.372,7.372,0,0,0-1.018-.093c-.463,0-.833.278-.74.648a3.843,3.843,0,0,1-.093,1.2l-1.018,1.388a3.364,3.364,0,0,0-.37,2.5c.463,1.018.833,2.961,1.018,3.331s.185,1.11.555,1.388a1.972,1.972,0,0,1,.74,1.573,1.635,1.635,0,0,0,.833,1.573c.648.463,1.2,1.481.74,1.943s-.463.648-.37,1.018.278,2.961.278,2.961a4.089,4.089,0,0,1,.74.278.736.736,0,0,1,.093,1.2.994.994,0,0,0-.555,1.11,6.62,6.62,0,0,1-.093,1.573s-.37.833-.74,1.018a1.146,1.146,0,0,0-.463,1.573,6.4,6.4,0,0,1,.37,2.128l.049.925a5.3,5.3,0,0,1,.663.579c1.356,1.471,2.4,3.5,4.1,4.551,2.3,1.423,3.878,1.742,5.128,4.41a3.868,3.868,0,0,0-.084,1.427c1.575-.026,2.274,1.822,2.773,2.96a31.4,31.4,0,0,0,6.458.436,8.567,8.567,0,0,0,5.115-1.855c1.375-1.1,2.268-2.815,4.076-1.514,1.6,1.153,1.535,3.072,1.012,4.65a8.134,8.134,0,0,0-.562,2.7c.547-.31,1.265-.721,1.29-.739l.644-.677c.126-.133.248-.174.326-.341.185-.4.563-2.051.707-2.561.755-.5,1.543-1.11,2.332-1.543l1.666-.733a3.494,3.494,0,0,1,.833-.37l1.988.04c1.68.03,3.354.192,5.022.389l2.691.311,1.684-.147.841-.074,1.743-1.377,1.211.1.093.4.023,0,.6-1.529a5.263,5.263,0,0,0-.784-.877Z" transform="translate(-259.746 -353.051)" fill="#5751c8" stroke="#eaecff" stroke-width="0.5"/><path d="M349.534,496.773c.522-1.579.589-3.5-1.012-4.65-1.807-1.3-2.7.415-4.076,1.514a8.582,8.582,0,0,1-5.115,1.855,31.317,31.317,0,0,1-6.457-.436c-.5-1.137-1.2-2.985-2.774-2.96a3.882,3.882,0,0,1,.084-1.427c-1.25-2.667-2.826-2.987-5.128-4.409-1.7-1.051-2.743-3.081-4.1-4.551a5.269,5.269,0,0,0-.663-.579l.044.832-1.666.74-2.776.74-1.481-1.388s-.745-.744-1.293-1.348a.722.722,0,0,1-.491.145,10.919,10.919,0,0,1,.083,1.192c-.428,2.26,1.395,4.156,1.2,6.4a50.828,50.828,0,0,1-1.121,6.281,10.926,10.926,0,0,1-.316,1.193l1.014-.072.833.925,3.424,1.11-.093,2.776a21.805,21.805,0,0,0,1.573,1.666c.37.278.555.555,1.2.278a4.341,4.341,0,0,1,2.221-.463c.37.185,3.331,1.481,3.7,1.573a5.91,5.91,0,0,1,1.11.555l.185.74-.093,1.3s.378.064.765.133c.278.052.56.108.715.145a4.183,4.183,0,0,0,1.11,0s.555-.555.925-.555a3.223,3.223,0,0,0,1.084-.422h0l-.174-.725a8.765,8.765,0,0,1,3.405-.693c1.717,1.6,1.014,1.129,3.339,2.106.625-.5,1.247-1.047,1.891-1.525.511-.385,1.1-.688,1.6-1.077l1.066-.914a3.5,3.5,0,0,0,.53-.459c.074-.093.877-1.6.988-1.8a20.406,20.406,0,0,1,2.814-.575,3.6,3.6,0,0,0,.74-.122s.275-.153.612-.346a8.073,8.073,0,0,1,.56-2.7Z" transform="translate(-252.119 -415.653)" fill="#5751c8" stroke="#eaecff" stroke-width="0.5"/><path d="M190.175,349.536c-.8-.049-1.342-.914-1.5-1.625-.177-.781.473-1.471.33-2.211-.094-.486-.878-.729-.715-1.285.079-.269.466-.315.6-.557a1.809,1.809,0,0,0-.005-1.168c-.053-.186-.971-.344-1.623-.461-.1.09-.2.172-.273.228a16.786,16.786,0,0,1-1.851.925.913.913,0,0,1,.278,1.11c-.278.74-.463.37-1.018-.093s-.463.37,0,.833.185.833-.185.925-.278.278-.278.74-.648.37-1.11.093-.74.37-.74.37v1.388s-1.758,1.943-2.313,1.943a12.025,12.025,0,0,1-1.573-.185l-1.2.833h-1.2l-.463.555s-1.018.833-1.388,1.2a5.872,5.872,0,0,0-.74,1.018,11.335,11.335,0,0,1-1.2.463,1.35,1.35,0,0,1-1.3-.463c-.463-.463-.925-.278-1.481-.278a2.623,2.623,0,0,0-1.481.555,4.952,4.952,0,0,1-1.666.37l-.074.014c.03.152.052.271.055.3a1.785,1.785,0,0,1-.029.181c-.015.088-.175,1.084-.185,1.106a20.321,20.321,0,0,1-1.251,1.966,10.312,10.312,0,0,0-1.6,2.261c0,.008,0,.174,0,.378,0,.31.008.717.008.821l-.736,1.029-.1,1.188.589.807c1.335.04,2.669.089,4,.122l.241.366c.673-.163,1.31-.315,1.991-.415l.17-.162a6.818,6.818,0,0,0,1.373-.268c.093-.233.37-.377.559-.507.852-.573,1.232.441,2.017.578a16.014,16.014,0,0,1,2.095.015,3.72,3.72,0,0,1,1.34,1.165c.055.131.111.288.17.463l.089-.029a7.743,7.743,0,0,1,1.11-.093h1.481l2.036,2.036,1.11.093,1.018,1.666,1.11.093s-.37-.648.833-.925,1.2-.925,1.2-.925a6.265,6.265,0,0,1-.555-1.48c0-.37-.185-1.2.278-1.3a13.065,13.065,0,0,0,1.943-.925l1.3-1.2.833-1.018,1.573-.278,1.388-1.2,1.2.833,1.55-.226v0l0-.011a4.351,4.351,0,0,1-.844-1.062,1.164,1.164,0,0,1-.807-.052l-.063-.055a1.49,1.49,0,0,1-.3-.718,1.855,1.855,0,0,0-.326-.623,9.146,9.146,0,0,1-1.07-1.51c-.126-.262-.237-.474-.347-.656l.21-.566c-.014-.225.034-.452.238-.533a6.382,6.382,0,0,0,1.388-1.388l-.833-.555a1.717,1.717,0,0,1,.185-1.018,7.385,7.385,0,0,0,.463-1.481l-.648-1.666.069.012a1.681,1.681,0,0,0-.577-.229C192.024,348.995,191.073,349.591,190.175,349.536Z" transform="translate(-157.442 -328.43)" fill="#5751c8" stroke="#eaecff" stroke-width="0.5"/><path d="M238.471,330.741a5.638,5.638,0,0,1,.648,1.11l.925.185.555-.925a1.78,1.78,0,0,1,.648-.648l1.2-.093s.74-.185.925-.555a3.453,3.453,0,0,1,.555-.74h1.018s.093,0,.37-.648.555-.925.093-1.018-.925-.37-.74-.833S245.5,325,245.5,325l.925-.185.925-.185v.925l1.573.093,1.3,1.018s.463.648.925.74.648.463.833.833.74,1.2.74,1.2l1.018.093.74,1.018s1.018-.185,1.388-.278.833-.185,1.018-.648a6.079,6.079,0,0,0,.278-1.2l1.11.833s1.018-.74,1.481,0,.648.74,1.018.555.833-.463,1.11-.093.833.093,1.018-.278a3.232,3.232,0,0,1,.692-.789c-.415-.463.326-.833.326-.833l-.463-.507s-.463-.419-.925-.789-.278-.414-.278-.877a1.208,1.208,0,0,1,.648-1.11c.463-.278.185-1.018,0-1.573s.137-.74.555-.974-.048-1.247-.048-1.247l.037-.122a6.422,6.422,0,0,1-.848-.385c-.211-.118-.4-.333-.607-.466-.948-.629-1.925-1.222-2.883-1.832l-.148-.318.348-.8-.038-.24c-.607-.748-1.854-.2-2.332-.315a7.857,7.857,0,0,1-1.11-.515,4.508,4.508,0,0,0-2.646-.04c-.048.007-.181.107-.225.111-.252.029-.574-.041-.818.011a11.673,11.673,0,0,0-1.188.414c-.034.015-.111.111-.148.13a3.08,3.08,0,0,1-1.258.115c-.03-.007-.555-.23-.6-.248s-.2-.2-.229-.208c-.648-.228-1.392-.429-2.01-.717a1.39,1.39,0,0,1-.248-.189,2.561,2.561,0,0,0-1.476-.637,1.7,1.7,0,0,0-.515,0c-2.221.422-1.762.278-4.061.056-.233-.023-.61.077-.8-.118l-.13.04a20.127,20.127,0,0,1-3.612-.77c-.685-.381-.933-1.44-1.562-1.762a4.569,4.569,0,0,0-.455-.171,5.415,5.415,0,0,1-.785-.633l-.055.17-.463,1.943V315.2a3.376,3.376,0,0,1-.555,1.851c-.278.463-1.018,1.666-1.018,1.666v2.036a7.371,7.371,0,0,1-.093,1.018s-.527.527-.93.882c.652.117,1.57.275,1.623.461a1.808,1.808,0,0,1,.005,1.168c-.131.242-.517.288-.6.557-.162.556.621.8.715,1.285.144.74-.507,1.43-.33,2.211.162.711.7,1.576,1.5,1.625.9.055,1.849-.541,2.776-.355a1.713,1.713,0,0,1,.577.229,11.6,11.6,0,0,0,1.319.173c.369,0,.554.276.924.739Z" transform="translate(-200.141 -308.848)" fill="#5751c8" stroke="#eaecff" stroke-width="0.5"/></g><path d="M234.992,352.017a4,4,0,0,0-2.445-1.023,4.732,4.732,0,0,0-1.582.471c-.754.364-1.017.4-1.162.177-.341-.537-.2-.884.776-1.946l.97-1.052-.5-.414c-.478-.4-.484-.461-.15-1.555a2.216,2.216,0,0,0,.118-1.573c-.324-.6-.294-.7.223-.7.41,0,.885.459,1.547,1.494a1.58,1.58,0,0,0,.852.514c.525.124.695.02,1.137-.7s.653-.842,1.343-.842a1.966,1.966,0,0,0,1.529-.706,2.348,2.348,0,0,1,1.153-.706c.644,0,1.626-2.109.988-2.122a1.321,1.321,0,0,1-.493-.2c-.262-.166-.253-.323.05-.909.5-.96,1.8-1.431,1.8-.651,0,.225.328.4.919.5a4.735,4.735,0,0,1,2,1.043,13.912,13.912,0,0,0,1.268.974,4.018,4.018,0,0,1,.722.96c.337.552.717.883,1.015.883a1.448,1.448,0,0,1,.918.561c.41.521.521.544,1.564.326,1.313-.275,1.711-.543,1.711-1.151,0-.48.35-.593.6-.193.085.137.441.186.793.109a.963.963,0,0,1,1.05.313c.539.6,2.716.576,3.386-.03a1.862,1.862,0,0,1,.581-.406c.135,0,.339.983.571,2.756.162,1.236.4,1.432,1.831,1.525.735.047,1.2.2,1.308.427.089.194.338.706.554,1.137.5,1,.493,1.146-.068,1.446-.383.2-.6.106-1.295-.588-.729-.729-.9-.8-1.343-.563-.648.347-2.3.155-4.093-.475a14.359,14.359,0,0,0-1.549-.486,8.3,8.3,0,0,0-1.406,1.059c-1.1.943-1.368,1.059-2.4,1.059-.956,0-1.175.081-1.277.471-.144.551-1.48.69-1.48.154a1.37,1.37,0,0,0-.466-.739c-.407-.368-.744-.4-2.648-.268-1.947.138-2.257.1-2.888-.319a4.575,4.575,0,0,0-3.648-.167c-.752.258-.824.363-.824,1.2,0,.7-.112.959-.471,1.1-.68.266-.733.257-1.089-.172Z" transform="translate(-60.302 -27.521)" fill="#5751c8" stroke="#eaecff" stroke-width="0.5"/></g></svg>