<svg xmlns="http://www.w3.org/2000/svg" width="157.513" height="130.5" viewBox="0 0 157.513 130.5"><g transform="translate(-16.175 -15.256)"><path d="M348.122,590.879l-.605-.09-.555-.205-.572-.386-.351-.422-.506-.52-.435-.573-.2-.205-.385-.314-.825-.7-.506-.145-.3-.036-.254-.109-.4-.259-.286-.23-.488-.223-.506-.519-.671-.3-.385-.126-.774-.169-.37.073-.318.224-.318.224-.269.333-.369.186-.457-.126-.605-.423-.638-.477-.473-.35-.891-.754-.269-.259-.369-.629-.435-.591-.457-.423-.351-.4-.654-.573-1.144-.645L329.5,579.9l-.589-.223-.76-.145-.457.126-.736-.2-.588-.019-.489-.2-.4-.538-.2-.536-.4-.369-.956-.7-.84-.44-.435-.145-.1.2-.333.745.049.477-.049.519-.506.259-.605-.259-.572-.145-.22.145-.016.538.153.423.067.423.3.314.825.7.506.369.435.5.149.5.049.815-.187.833-.153.609-.067.851.369.4.369.646.352.646-.138.4-.84.664-.775.555-.2.145-.033.331.115.423.132.423.153.369.171.368.253.333.2.4-.149.735L322,592.8l-.132.555-.137.591-.369.851-.457.924-.351.923-.925,1.255-.082.091-.457.718-.254.176-.571.169-.318.073-.572-.26-.555-.3-.538.073-.62.054-.434-.09-.351-.259-.655-.187-.083-.223-.115-.368-.049-.278.033-.314.17-.478.287-.459.219-.278.3-.8.352-.35-.318-.477-.605-.206-.522.242-.654.036-.457.145-.555.09-.809.459-.687.61-.318.205-.7.259-1.144.259-.638-.109-.622-.477-.369-.224-.571-.331-.721-.628-1.094-.682-1.144-.5-1.16-.477-1.127-.592-.72-.3-.269.074-.506.259-.572.368-.489.369-.236.186-.473.369-.4.186-.4.187-.622.333-.809.555-.384.44-.187.555-.2.278-.187.35-.84.4-.083-.187-.236-.223-.3-.369-.434-.7-.32-.333-.571-.242-.759-.278-.891-.091-.808-.054-.54-.4-.318-.478-.589-.3-.522-.224-.253-.145-.538.145-.572.259-.384.2-.269.314-.369.331-.254.477-.428.109-.187-.145.187-.7.116-.333.116-.368.671-.5.473-.628.589-.538.335-.664.4-.7.269-.629.082-.609.556-1.255.082-.851-.137-.645.1-.331.605-.036.137-.815-.286-.754-.066-.647-.335-.737-.1-.888-.018-.44.187-.4.116-.888-.016-.772-.187-.888" transform="translate(-216.509 -453.619)" fill="none" stroke="#eaecff" stroke-linejoin="round" stroke-width="0.5"/><path d="M180.374,34.505l.2-.074.4-.186.4-.26.457-.4.489-.3.187-.385-.1-.609.016-.187-.115-.7-.049-.259-.155-.851-.137-.423-.083-.5-.066-.7-.066-.628-.318-.718-.154-.242-.17-.959-.238-.888-.369-.459-.369-.314L179.655,24l-.3-.35-.236-.109-.318-.405-.137-.224-.132-.628-.016-.369.083-.314.082-.645-.082-.369-.154-.663-.187-.405-.033-.44.083-.423.149-.538-.082-.3-.523-.108-.571-.187-.656-.223-.72-.09-.924-.241-.775-.368-.638-.259-1.127-.09-.84-.126-1.111-.628-.187.259h-.506l-.3.187-.352.054-.318.09-.456.036-.605.144-.457.3-.187.44-.251.3-.229.44.1.664.05.519-.187.369-.455.036-.287-.036-.457.055-.351.259-.7.163-.654.036-.687-.26-.4-.3-.555-.109-.384.224-.083.772-.434.924-.066.736-.522,1.364-.4.331-.3.369-.571.224-.3.109-.22.422-.434.26-.369.126-.457.145-.369.108-.286.224-.188.7-.3.331-.22.519-.132.574-.083.609-.016.35.016.682-.1.815-.083.3-.268.682-.824.942-.54.7-.523.736-.3.591-.083.242-.016.35.033.368.067.333.016.7-.2.7-.236.555-.2.851-.016.439-.083.61-.016.773-.033.241.133.214.2.313-.018.187-.066.169-.155.369-.268.368-.572.187-.457.018-.506-.2-.335-.278-.369-.241-.369-.036h-.385l-.434.223-.352.224-.171.442.083.664.132.519.116.423-.132.61.016.555-.132.259-.316.411-.332-.215-.318-.164-.523-.314-.506-.259-.32-.224-.571.109h-.605l-.506-.109-.287-.224-.434-.458-.4-.459-.253-.458-.4-.314-.474-.241-.253.109-.54.44-.3.2-.457.5-.434.573-.555.442-.654.187-.589-.019-.825-.458-.775-.442-.638-.223-.329.327-.457.26-.638.477-.506.459-.4.369-.506.833-.335.555-.318.851-.236.61-.187.5-.2.555-.187.423-.066.5-.067.59-.033.591-.149.591-.026.4-.3-.148-.132-.333-.219-.187-.37-.331-.3-.145-.654-.018-.318-.091-.238-.628-.268-.44-.116-.3-.7-.368-.4-.206-.522-.054-.369-.163-.435-.018-.418-.074-.369-.555.033-.44.016-.924-.049-.887.1-.459.137-.645-.153-.3-.418-.628-.287-.071-.418-.145h-.149l-.858-.145-.654.036-.369.073-.825-.109-.572-.224-.687-.109-.268-.573-.3-.791-.187-.4-.32-.888-.352-1.254-.369-1.238-.687-.7-.874-.422-.775-.187-.187-.333.335-.4h0l-.555.3-.84.259-.489.145-.687.128-.522.2-.721.187-.335.109-.171.073-.169-.015-.1-.384-.115-.4-.22-.368-.236-.369-.254-.477-.418-.386-.2-.423-.385-.187-.522.074-.54.108-.555.223-.571.145-.352.187-.286.187-.506.071-.238-.591-.17-.555-.083-.368-.589-.4-.671.519-.286.519-.236.331v.52l-.137.368-.187.368.116.646.066.169-.187.809-.067.477-.268.368-.556.187-.384.3-.369.519-.033.442.187.555.187.314.287.683.219.4.067.555-.187.477-.457.555-.7-.126-.37-.279-.368-.3-.72-.26-.538-.276-.572-.2-.538.4.016.44.1.278-.149.888-.236.4-.352.459-.489.186-.605.126-.571-.126-.76-.163-.72-.2-.506-.109-.318.314-.759.35-.687.187-.457.071-.638-.054-.7.019-.334,0-.235.068h-.571l-.4-.073-.269.109-.2.61-.22.422-.034.519-.457.073h-.5l-.555-.108-.489-.073-.572-.241-.6.09-.236.224-.067.5-.082.573-.132.519-.473.478-.522.331-.589.4-.2.331-.687.3-.8.521-.249-.31-.385-.459-.153-.628-.049-.887-.132-.333-.3.145-.269.224-.286.223-.286.591-.385.259-.369.145-.654.368-.7.036-.605-.054-.588-.019-.435-.206-.253-.126-.589-.664-.286-.737-.385-.609-.351-.2-.473-.52-.555-.331-.253-.477-.336-.538-.286-.386-.638-.331-.473.144-.3.187-.62.224-.809.555-.434.26-.605.26-.605.331-.457.4-.253.519-.3.7-.269.555-.418.3-.434.035-.489-.073L64.3,50.1l-.825.108-.489.109-.489.555-.506.405-.32.478-.588.44-.287.664-.369.555-.442.554-.074-.334-.1-.259-.385-.591-.236-.2-.336-.2-.7-.385-.287-.241-.352-.144-.638-.4-.236-.279-.974-.645-.538-.385-.76-.241-.622-.773-.489-.664-.171-.664.155-.664.522-.458.335-.5.016-.333-.187-.35-.286-.458-.384-.163-.742-.35-.336-.224-.538-.187-.622-.036h-.489l-.418.368-.605.646-.654.333-.489-.09-.286-.036-.352-.018-.335.145-.236.09-.3.3-.522.331-.418-.223-.286-.5-.3-.555-.254-.683-.489-.814-.318-.52-.489-.736-.506-1.66-.138.386-.385.2-.369.459-.434.459-.506.259-.7.773-.457.5-.833.316-1.069.478-1.193.629-1.127.126-.605-.018-1.176.054-1.309.145-1.078-.163-1.413-.144-1.26-.074L28.161,44" transform="translate(-9.49 0)" fill="none" stroke="#eaecff" stroke-linejoin="round" stroke-width="0.5"/><path d="M103.628,146.82a2.748,2.748,0,0,0-1.323-.239,2.424,2.424,0,0,1-.96-.119.9.9,0,0,0-.44-.2.516.516,0,0,1-.454-.412c-.132-.518-.094-.651.509-1.761.312-.574.6-1.117.645-1.207.13-.274-.218-.751-.653-.894a1.263,1.263,0,0,0-.816-.011c-.222.069-.738.193-1.147.276a3.827,3.827,0,0,0-1.986,1,4.477,4.477,0,0,1-2.283.868c-.471.007-1.406-.539-2.968-1.731a11.437,11.437,0,0,0-1.98-1.07c-.715-.3-1.689-.748-2.165-.989a4.473,4.473,0,0,0-1.121-.438,6.581,6.581,0,0,0-2.048,1.167,9.734,9.734,0,0,1-1.322.806,4.1,4.1,0,0,0-2.173,1.9,1.86,1.86,0,0,1-.639.808c-.293.134-.339.106-.712-.432-.945-1.363-1.348-1.589-3.14-1.76-.886-.085-.971-.119-1.33-.537a3,3,0,0,0-2.114-1.01,3.311,3.311,0,0,0-1.8,1.108c-.536.662-.657.685-.44.085a5.889,5.889,0,0,1,1.039-1.368,7.888,7.888,0,0,0,1.936-3.161c.1-.35.293-.942.441-1.317a2.5,2.5,0,0,0,.2-1.323c-.063-.622-.054-.644.263-.68.282-.033.341-.114.419-.578a1.662,1.662,0,0,0-.09-.974,2.4,2.4,0,0,1-.181-.735,1.735,1.735,0,0,0-.182-.653,4.827,4.827,0,0,1-.059-2.542,3.067,3.067,0,0,0-.023-1.547l-.171-.68-.555.034a3.637,3.637,0,0,0-1.253.4,3.6,3.6,0,0,1-.887.368,5.523,5.523,0,0,0-1.093.433,4.49,4.49,0,0,1-1.278.435c-.588,0-.917.129-1,.383-.136.429-.5.514-1.033.241a9.235,9.235,0,0,0-2.741-.75,1.343,1.343,0,0,0-.683.182,1.667,1.667,0,0,1-.8.186,7.767,7.767,0,0,0-1.707.375c-1.316.427-1.551.446-2.062.167-1.4-.765-1.6-.833-2.413-.814a12.411,12.411,0,0,0-3.123.658,5.329,5.329,0,0,0-1.52,1.222,4.277,4.277,0,0,1-3.34,1.614,9.074,9.074,0,0,1-3.741-.446c-.6-.223-.589-.341.055-.553,1.011-.334,1.32-.689,1.874-2.157a13.338,13.338,0,0,0,.64-2.273,6.755,6.755,0,0,1,.188-1.011.648.648,0,0,0-.08-.412,2.017,2.017,0,0,0-1.645-.717c-.69-.008-1.062-.2-1.062-.557,0-.175.074-.288.187-.288s.377-.411.672-1.051a8.57,8.57,0,0,1,1.844-2.751,13.739,13.739,0,0,1,2.555-1.271,15.977,15.977,0,0,0,3.252-1.642,5.793,5.793,0,0,0,.892-1.8,6.887,6.887,0,0,1,1.022-1.245,9.984,9.984,0,0,0,1.989-2.973,9.439,9.439,0,0,0,1.336-4.117c.133-.869.124-.988-.1-1.423l-.246-.475-1.11-.035a6.1,6.1,0,0,0-1.4.073,1.764,1.764,0,0,1-1.023-.119,5.023,5.023,0,0,0-1.07-.228,3.1,3.1,0,0,1-1.625-1,1.326,1.326,0,0,0-.486-.419c-.721-.373-1-.188-1.127.746-.117.865-.241,1.017-.669.823-.273-.124-.295-.175-.165-.383.116-.186.116-.279,0-.418a5.022,5.022,0,0,1-.318-1.317c-.205-1.381-.448-1.7-1.764-2.3a2.647,2.647,0,0,1-1.573-1.478,4.573,4.573,0,0,1,.119-1.237,28.556,28.556,0,0,0,.3-2.908c.059-1.055.133-2.127.165-2.384.045-.368.007-.492-.179-.592a.545.545,0,0,1-.236-.533c0-.6-.391-.889-1.454-1.075a2.055,2.055,0,0,0-1.212-.013c-.843.384-1.1.087-.787-.908a3.753,3.753,0,0,0,.157-1.681c-.086-1.062-.1-1.022,1.08-2.588.88-1.165.969-1.339,1.106-2.181.158-.968-.079-1.522-.8-1.872a8.981,8.981,0,0,0-2.811-.874c-.6.06-.737.386-.515,1.25.145.564.152.755.034.9-.206.248-1.15.231-1.642-.029a2.068,2.068,0,0,0-1.064-.177,3.344,3.344,0,0,1-1.361-.23c-1.042-.394-1.5-.857-1.5-1.523,0-.222-.273-.536-1.054-1.214a5.113,5.113,0,0,1-1.589-1.966A7.44,7.44,0,0,1,32.323,75a1.791,1.791,0,0,0-.646-1.052,13.932,13.932,0,0,1-1.182-1.39,7.439,7.439,0,0,0-1.264-1.314c-.358-.264-1.283-1.055-2.055-1.757-1.406-1.277-1.986-2.093-1.989-2.8a8.347,8.347,0,0,0-1.581-3.024,18.727,18.727,0,0,1-1.082-1.608c-.344-.68-.8-1.225-1.023-1.225a4.435,4.435,0,0,1-1.014-.4l-.807-.4.02-1.2a4,4,0,0,1,.293-1.8,5.907,5.907,0,0,0,.37-2.145l.1-1.547.743-1.431c1.1-2.117,1.115-2.614.139-4.346l-.467-.828.269-.314.269-.314.361.237a3.028,3.028,0,0,0,1.174.313c.447.042,1.314.13,1.926.2a22.757,22.757,0,0,0,3.307,0c1.995-.11,2.242-.149,2.722-.429.29-.17,1-.508,1.58-.752a4.788,4.788,0,0,0,1.732-1.117c1.283-1.27,2.015-1.912,2.111-1.852a1.037,1.037,0,0,1,.183.46,7.427,7.427,0,0,0,.731,1.452c.355.578.831,1.458,1.059,1.956.489,1.067.949,1.481,1.388,1.249a4.725,4.725,0,0,0,.649-.454c.322-.268.449-.3,1.04-.236a1.985,1.985,0,0,0,1.907-.8c.612-.628,1.068-.635,2.319-.04,1.435.683,1.679,1.179.936,1.9s-.7,1.5.179,2.662A3.1,3.1,0,0,0,48,51.922a8.967,8.967,0,0,1,1.376.855,19.585,19.585,0,0,0,1.7,1.134c1.185.7,1.633,1.144,1.761,1.73.124.566.417.427.989-.472a15.437,15.437,0,0,1,1.485-1.821c.981-1.035,1-1.045,1.794-1.17a11.433,11.433,0,0,1,1.432-.127c.764,0,1-.209,1.519-1.365.431-.95.526-1.04,1.812-1.73,2.58-1.382,2.539-1.366,2.927-1.165a2.535,2.535,0,0,1,.736.86,2.3,2.3,0,0,0,.48.677,5.844,5.844,0,0,1,1.679,1.794,2.6,2.6,0,0,0,2.672,1.67,2.929,2.929,0,0,0,1.686-.4A2.53,2.53,0,0,0,73,51.682a2.3,2.3,0,0,1,.415-.542c.249-.225.253-.222.327.248A2.658,2.658,0,0,0,74.43,53.1c.347.333.4.348.652.185.151-.1.5-.3.769-.439a5.288,5.288,0,0,0,.866-.591c.2-.181.622-.513.928-.738.567-.415.747-.776.924-1.852.089-.539.175-.558,1.29-.272a5.493,5.493,0,0,0,1.388.155l.638-.037.269-.8c.214-.64.318-.8.508-.782.131.012,1.023-.02,1.982-.072,1.616-.088,1.794-.122,2.438-.471l.695-.376,1.19.3c1.126.284,1.224.29,1.831.114a1.391,1.391,0,0,0,.982-.712,2.34,2.34,0,0,0,.394-1.648c.006-.376.062-.5.237-.537a5.693,5.693,0,0,1,2.122.9,2.385,2.385,0,0,0,.826.359c.416.077.482.048.779-.341.529-.694.523-1.1-.034-2.347a4.2,4.2,0,0,1-.429-1.327,1.591,1.591,0,0,1,.934-.881c.452-.066.738-.748.784-1.873a4.437,4.437,0,0,1,.885-2.964c.37-.335.6-.147.917.756.289.816.3.826.715.792a1.319,1.319,0,0,0,.574-.16,9.872,9.872,0,0,1,2.326-.731c.437,0,1.648,1.716,1.858,2.627.1.421.232.425,1.5.04,2.753-.838,2.69-.826,2.877-.559a.564.564,0,0,0,.378.242,4.1,4.1,0,0,1,1.713.879,7.393,7.393,0,0,1,.71,1.8c.244.829.653,1.993.909,2.586l.466,1.079.619.176a14.619,14.619,0,0,0,2.165.277c2.505.163,2.469.123,2.38,2.611-.062,1.736-.052,1.841.209,2.206a.716.716,0,0,0,.658.384,4.824,4.824,0,0,1,1.8.508c.437.192.586.355.868.942.332.692.357.713.993.836a1.716,1.716,0,0,1,1.146.661c.271.294.558.513.638.487.2-.066.332-.586.465-1.8a15,15,0,0,1,1.673-4.661c.628-.986,2.328-2.4,2.775-2.3a8.159,8.159,0,0,1,1.052.534c.792.45.935.491,1.516.432a2.342,2.342,0,0,0,1.774-1.122c.585-.731,1.292-1.228,1.607-1.128a1.692,1.692,0,0,1,.58.534c.959,1.313,1.662,1.734,2.625,1.571.389-.066.6,0,1.44.485a6.906,6.906,0,0,0,1.125.563c.25,0,.586-.663.679-1.341a4.478,4.478,0,0,0-.078-1.466c-.2-.933-.157-1.1.319-1.342.5-.259.7-.229,1.376.206a1.476,1.476,0,0,0,1.218.327A1.22,1.22,0,0,0,146.087,43a.867.867,0,0,0-.019-.779,7.114,7.114,0,0,1,.328-3.493,3.248,3.248,0,0,0,.235-1.771c-.1-1.045.016-1.308,1.347-2.966a4.279,4.279,0,0,0,1.305-3.162,5.189,5.189,0,0,1,.465-2.4,3.741,3.741,0,0,0,.349-.686c.111-.306.27-.416.928-.642a3.063,3.063,0,0,0,1.061-.583,2.216,2.216,0,0,1,.68-.487,3.575,3.575,0,0,0,1.713-2.7,2.325,2.325,0,0,1,.247-.845,2.275,2.275,0,0,0,.247-.8c0-.471.307-.507,1.064-.124a1.909,1.909,0,0,0,1.363.272,2.812,2.812,0,0,0,.981-.264,1.977,1.977,0,0,1,.9-.194c.554,0,.621-.032.756-.358a1.923,1.923,0,0,0,.071-.9c-.068-.472-.026-.616.332-1.158.4-.609.424-.622,1.4-.826.544-.114,1.2-.262,1.464-.33a.932.932,0,0,1,.9.128,5.379,5.379,0,0,0,1.567.409,9.312,9.312,0,0,1,1.913.485,8.478,8.478,0,0,0,1.423.448,6.3,6.3,0,0,1,2.131.692c0,.059-.051.368-.106.687a1.877,1.877,0,0,0,.1,1.114,4.21,4.21,0,0,1,.192,2.031c-.029.984.132,1.274,1.339,2.408.985.926.986.927,1.2,1.913a5.786,5.786,0,0,0,.394,1.255,5.833,5.833,0,0,1,.351,1.423c.1.635.254,1.544.35,2.02.4,2,.412,1.918-.317,2.457a8.425,8.425,0,0,1-1.054.672c-.351.167-.408.257-.408.644a4.763,4.763,0,0,0,.189,1.086c.167.561.251.665.711.871.72.322.991.647.852,1.024s-.02.787.4,1.45a2.206,2.206,0,0,1,.324.7,3.271,3.271,0,0,1-.495.889,2.854,2.854,0,0,0-.495.973,1.782,1.782,0,0,0,.433.772c.5.585.527.752.181,1.124s-.72.342-1.239-.053a3.037,3.037,0,0,0-2-.8c-.555.211-.615.825-.161,1.637a1.149,1.149,0,0,1,.2,1.007,2.847,2.847,0,0,0,.123,1.35,1.719,1.719,0,0,1-.278,1.86c-.124.171-.112.368.062,1.02a1.9,1.9,0,0,1-.422,2.118,10.534,10.534,0,0,0-.929,1.608,4.639,4.639,0,0,1-2.089,2.527,6.724,6.724,0,0,0-2.287,1.623c0,.468.556,1.029,1.33,1.333.605.237.771.358.771.562,0,.437-.419.595-1.321.5-.812-.087-1.4.067-1.4.368,0,.523-1.079,2.176-1.414,2.175a4.462,4.462,0,0,1-.849-.378,2.137,2.137,0,0,0-1.175-.34l-.458.038.038.824a1.72,1.72,0,0,1-.093.9c-.193.119-.158.508.061.69a.593.593,0,0,1,.155.479c-.035.3-.087.322-.749.357-.395.021-.711.1-.711.168a3.525,3.525,0,0,1-.671.8l-.671.671-.559-.568c-.515-.522-.595-.561-1-.485a2.012,2.012,0,0,0-.736.315l-.3.232-.5-.8-.5-.8h-.914a2.646,2.646,0,0,0-1.91.473c-.306.383-.168.716.6,1.434a3.519,3.519,0,0,1,1.277,2.363c.148.708.146.8-.018.8a4.072,4.072,0,0,0-1.565.967,7.086,7.086,0,0,1-1.423.856,5.772,5.772,0,0,0-1.594,1.066c-.626.609-.683.637-1.317.631a5.587,5.587,0,0,1-1.326-.211c-.365-.113-1-.287-1.405-.387s-1.076-.291-1.485-.426a12.848,12.848,0,0,0-5.192-.763c-1.133.012-1.337.18-1.227,1.01.076.572.059.619-.37,1.023a1.534,1.534,0,0,0-.449.6.72.72,0,0,1-.245.4,5.466,5.466,0,0,0-.877,2.225c-.147.789-.353,1.3-.532,1.318-.077.008-.613.028-1.191.045a26.134,26.134,0,0,0-4.338.394,3.214,3.214,0,0,0-.338.729,2.589,2.589,0,0,1-1.164,1.622,3.034,3.034,0,0,1-1.46.642c-1.541.284-1.766.286-2.525.023-.985-.341-1.48-.33-1.77.04a2.237,2.237,0,0,1-.617.493,10.191,10.191,0,0,0-1.511,1.437c-1.261,1.388-1.3,1.515-.811,2.485.37.731.315.908-.518,1.644a1.629,1.629,0,0,0-.537.709c0,.329-.375,1.229-.511,1.229a3.542,3.542,0,0,1-.743-.433,3.079,3.079,0,0,0-.77-.431.918.918,0,0,0-.83.448.419.419,0,0,1-.479.268c-.284-.033-.312-.084-.28-.5a3.45,3.45,0,0,0-.1-.967l-.136-.5-.66.082c-1.128.141-1.182.089-1.182-1.145a4.978,4.978,0,0,0-.268-1.817c-.352-.992-.4-1.043-1.34-1.477a4.134,4.134,0,0,0-2.031-.413c-1.444-.049-1.689.057-1.964.852l-.183.531.553,1.027c.526.978.543,1.041.358,1.324-.337.514-1.075.546-2.98.129-1.783-.39-2.2-.438-2.693-.306a2.505,2.505,0,0,0-1.556,1.635c-.222.881-.182,1.051.382,1.624a3.286,3.286,0,0,1,.757,1.214l.231.68-.506,1.533a14.571,14.571,0,0,0-.54,1.966,9.819,9.819,0,0,0,.658,3.227,5.888,5.888,0,0,1,.359,1.211,2.268,2.268,0,0,0,.25.763c.226.443.3.49.727.49a3.6,3.6,0,0,0,1.18-.322c1.082-.5,1.744-.3,3.518,1.051a4.142,4.142,0,0,0,2.39,1.061,3.7,3.7,0,0,1,2.135,1.54,1.8,1.8,0,0,0,.548.562,3.453,3.453,0,0,1,.759.641,2.894,2.894,0,0,0,2.186,1.032,1.551,1.551,0,0,0,1.207-.43,2.312,2.312,0,0,1,.756-.433,3.251,3.251,0,0,1,.916.582c.853.682,1.486.865,3.533,1.02a9.5,9.5,0,0,1,1.9.306,1.427,1.427,0,0,0,1.237,0c.968-.278,1.751-.361,1.751-.187,0,.077-.153.2-.34.268a3.638,3.638,0,0,0-.734.43,1.45,1.45,0,0,1-1.011.3,3.519,3.519,0,0,0-1.16.233c-1.022.438-1.241,1.3-.591,2.323.438.691.45.826.124,1.435a1.7,1.7,0,0,0-.111,1.543,5.579,5.579,0,0,0,1.089,2.511c.555.82.785,1.062,1.061,1.11a14.433,14.433,0,0,0,1.9-.048l1.549-.11.394.43a1.814,1.814,0,0,1,.48,1,7.342,7.342,0,0,0,1.329,2.607,1.529,1.529,0,0,0,.689.488,10.054,10.054,0,0,1,3.005,1.015,4.582,4.582,0,0,1,.641,1.141l.453,1.021h-.613c-.544,0-.626.036-.733.317a2.433,2.433,0,0,0,.08,1.672c.253.774,1,1.464,2.371,2.191a2.973,2.973,0,0,1,1.041.742,9.766,9.766,0,0,1-.057,1.326l-.1,1.114.344.282c.189.155.718.515,1.176.8a3.751,3.751,0,0,1,.9.686c.1.268-.146.608-.549.749-.322.112-.421.089-.728-.169a2.954,2.954,0,0,0-.691-.426c-.309-.118-.394-.072-1.079.582a4.87,4.87,0,0,0-.924,1.14,2.29,2.29,0,0,1-2.174,1.4,3.082,3.082,0,0,1-2.374-1.365,7.217,7.217,0,0,0-2.613-2.15,6.027,6.027,0,0,1-1.983-1.137,4.493,4.493,0,0,0-2.193-.828,1.979,1.979,0,0,0-1.347.71c-.308.283-.347.29-.687.114a12.949,12.949,0,0,1-2.992-2.509,10.55,10.55,0,0,0-2.552-2.551c-.272-.139-.816-.47-1.209-.736a3.88,3.88,0,0,0-2.252-.835,5.957,5.957,0,0,1-1.964-.283,1.566,1.566,0,0,1-.457-.634,2.9,2.9,0,0,0-1.027-1.1,6.345,6.345,0,0,0-2.006-1.078c-.215,0-.674,1.084-.674,1.6,0,.565-.152.651-.724.413a1.813,1.813,0,0,0-.742-.135c-.322.037-.327.053-.307.9.023.954,0,.918,1.574,2.23.74.616.89,1.187.633,2.413-.285,1.358-.323,1.709-.192,1.79a7.866,7.866,0,0,1,1,1.673,4.524,4.524,0,0,1-.925.767,3.594,3.594,0,0,0-1,.93,4.338,4.338,0,0,0,.642,2.1,1.092,1.092,0,0,1,.066,1.375,6.132,6.132,0,0,0-.376,1.058,16.99,16.99,0,0,1-2.048,4.233,7.625,7.625,0,0,1-.851,1.059,1.205,1.205,0,0,1-1.2-.017Z" transform="translate(-2.632 -1.803)" fill="#5751c8"/><g transform="translate(16.425 18.008)"><path d="M256.27,1059.709m-90.947-8.221.512-.121.555.368.605.278.956.222,1.364.224h.842l1.062-.144h.671l.523-.3.571-.145.687-.591.336-.368.555-.628.759-.628,1.039-.368.775-.163.687-.222.4.054.758-.145.654.188.76.35.721.459.808.186.721-.3.858-.26.62-.2.76-.055.622-.054.605-.385.457.035.687.145,1.331.4.522.26.555.259.622-.459.1-.385.759-.054.687-.128.434-.259.956-.442.588-.108.907-.422.236-.224.589-.109.473-.017.187.887.016.773-.115.886-.187.405.016.44.1.888.336.737.066.645.286.754-.137.815-.605.036-.1.333.137.647-.083.85-.555,1.256-.083.61-.269.628-.4.7-.335.664-.589.537-.473.628-.671.5-.115.369-.116.332-.187.7.187.145.434-.109.253-.477.369-.331.269-.314.385-.2.572-.26.538-.144.253.144.523.224.588.3.318.476.538.405.809.054.891.09a7.129,7.129,0,0,1,1.4.507" transform="translate(-140.867 -940.354)" fill="none" stroke="#eaecff" stroke-linejoin="round" stroke-width="0.5"/><path d="M536.9,488.819l-.116.145-.149.536-.083.423.033.44.187.4.155.664.082.368-.1.647-.066.314.016.369.132.628.137.223.318.4.237.109.3.35.488.459.369.314.369.459.238.888.17.959.154.241.32.718.065.627.067.7.082.5.137.423.155.851.049.26.115.7-.016.186.048.047.089.545-.187.387-.489.3-.456.4-.4.259-.4.187-.2.073.083.923.187.664.153.331.473.036,1.111.923-.318.591.016.3.187.405.385.664.286.333-.153.627-.369.478-.336.536-.17.224-.05.278.32.478.171.169.4.538.115.2c-.323.666-.893,1.318-1.606.9-.281-.165-.5-.431-.78-.59l-.555-.314-.571-.224-.385.036-.2.35v.459l.22.333.286.519.115.333-.115.519-.066.44.187.772.1.387.153.61-.4.905-.269.223.1.423.219.664.116.459-.2.942-.841,1.068-.4.833-.236.44-.369.87-.352.422-.318.387-.238.314-.384.278-.236.127-.22.018-.462.278-.384.2-.132.169-.54.35-.638.423.22.458.269.422.522.164.572.241.456.2.033.314.1.44-.725.519-.15-.036-1.044-.091-.655.019-.219.186-.137.574-.287.538-.351.628-.76.772-.924-.458-.572-.35-.538-.109-.4.036.083.555.132.44-.132.556-.238.369.352.314.083.422-.049.387-.418.333-.656-.091h-.384l-.286.519-.254.259-.457.369-.434.519-.352-.036-.22-.4-.538-.332-.067-.144-.171-.2-.89.2-.253.387-.171.126-.369-.333-.336-.592-.473-.737-.335-.108h-.973l-.605.145-.638.186-.1.478.336.44.588.519.4.3.116.241.286.536.2.629.083.332.132.737.116.555H519.8l-.4.259-.269.187-.254.126-.522.519-.522.35-.269.144-.352.186-.473.187-.336.163-.115.019-.456.314-.369.4-.171.2-.418.368-.4.145-.571.036-.418-.073-.589-.109-.474-.222-.824-.128-.654-.126-.605-.224-.457-.223-.809-.224-.538-.09-.589-.17-.418-.186s-.488-.035-.489-.036h-.016l0,0-.663.107-.489-.145-.72-.072-.287.072-.335-.036-.384-.019-.385.091-.3.259.149.44-.016.4v.314l-.352.538-.457.3-.065.423-.539.591-.067.163-.153.4s-.131.384-.132.387c-.183.534-.173,1.118-.369,1.651-.323.884-.719.8-1.586.672a10.041,10.041,0,0,0-1.928.176l-1.077.09H496l-.522.073-.32.815-.1.477-.083.109-.318.477-.7.555-.605.477-.538.073-.474.145-.62.073-.418.109-.253-.019-.115.109-.336-.036-.67-.2-.907-.331-.506-.019-.489.574-.654.331-.654.664-.436.44-.506.664-.654.627-.018.555.318.7.3.478-.318.833-.435.259-.62.574-.083.591-.418,1.069-.522-.054-.4-.279-.385-.278L482,559.65l-.418.108-.385.591-.489.073-.538-.224v-.331l.066-.815-.2-.664-.743.187-1.044-.145-.116-.478-.016-.609v-.772l.034-.574-.238-.386-.1-.459-.236-.664-.506-.3-.522-.224-.54-.242-.622-.09-.318-.036-.4-.036-.32.036-.434.071-.33-.054-.254.145-.236.3-.22.718.254.538.286.44.352.591.149.331-.083.477-.318.44-1.144.279-.791-.128-.638-.187-.506-.073-.555-.109-.269-.073-.318-.144-.369.035-.434-.109-.4.036-.352.071-.269.187-.2.109-.352.3-.149.259-.187.35-.066.242-.132.663.082.386.287.241.32.278.32.387.115.331.116.331.016.145.335.459-.137.459-.115.333-.269.852-.186.475-.2.738-.187.555-.066.7.149.647.083.458.115.405.034.475.236.629.116.4.3.591.1.368-.05.241.22.573.171.3.3-.018.62-.055.54-.3.742-.3.809.145.555.186.84.5.638.5.654.478.287.278.589.206.538.09.622.091.473.163.269.128.286.3.605.476.22.369.489.591.253.09.507.5.3.331.7.538.605.241.269.019.137.017h.082l.656-.036.488-.331.523-.44.538-.187.538.422.572.484.555.44.775.073.669.2.22.128.2-.019.605.019.54-.036.384-.018.384.018.825.35.489.126.555-.09.555-.187.32-.2.457-.036.489.074.369.187-.153.477-.736.278-.171.163-.54.4-.522.109-.457-.036-.418.036-.419.145-.473.223-.385.519-.049.574.049.163.3.4.238.44.236.35-.132.682-.116.331-.269.314.018.645.286.664-.065.4.3.815.32.477.335.477.434.7.286.3.506.074.187-.074.656-.054.67.019.572-.109h.62l.2-.036.143-.031.132.145.236.224.149.073.187.145.132.223.236.423.067.5.033.477.369.519.154.369.4.718.556.7.555.09.506.241.2-.019.385.036.488.222.4.187.775.259.418.333.049.223.187.4.3.773.3.628.05.333-.137.071-.3-.071-.473.035h-.4l-.116.241-.115.423.115.61.116.241.066.331.155.333.488.536.149.109.434.35.473.26.638.331.523.3.369.109.2.664-.033.224-.049,1.147-.17.773.473.35.236.163.385.314.3.145.187.054.286.26.434.259.3.5-.435.682-.32.109-.489.187-.473-.223-.418-.44-.54-.145-.522.555-.2.109-.335.333-.3.4-.187.519-.253.4-.418.333-.269.187-.473.223-.489.145-.369.036-.462-.09" transform="translate(-384.299 -488.819)" fill="none" stroke="#eaecff" stroke-linejoin="round" stroke-width="0.5"/><path d="M39.819,624.6l0,0-.3.44-.254.145-.115.44.22.385.385.773.286.331.318,1.014-.034.422-.137.647-.335.7-.506,1.068-.269.441-.3.573-.131.834.033.852-.066,1-.2.791-.287.61-.2.591L38,637.717l.033.478-.473,1.086.622-.126.489.163.941.519.538.073.385.573.473.888.457.645.32.458.489.628.654,1,.473,1.1.149.924.488.888.523.645.538.477.671.538.842.79.742.61.489.333.588.59.76,1,.335.519.99.905.17,1.014.236.385.622,1.4.457.5.941.851.907.773.049.61.22.536.671.519,1.26.477.956.036.4-.073,1.127.52.956-.073.489-.368.016-.4-.016-.259-.2-.478-.083-.519.2-.3.434-.054.418.091.7.331.6.131,1.233.587.287.737-.082.851-.132.519-.4.7-.759.942-.522.718-.4.647-.016.773.116.942-.05.555-.17.333-.254.978.435.5.605-.035.571-.241a12.3,12.3,0,0,1,1.776.3l.287.331.17,1.364.3-.3-.033.331-.034.387v.44l-.016.519-.1.423-.033.7-.016.44v.664l.1.224-.187.4-.132.682-.066.683-.187.792.236.609.351.61.622.422.973.44.572.3.589.718-.016.629.187.718.066.754.3.3-.335.259.187.459.825.35.3-.387.22-.664-.066-.3.066-.186.067-.278.351-.169.571.314.351.477.687.5.369.26.874.109.62.144.825.3.54-.17L76,683.424l.825.018.3.478.049.314-.016.628-.132.852-.137.519-.016.519-.22.7-.269.519-.418.792-.538,1.087-.622,1.147-.538.7-.62.628-.775.754-.155.573-.269.591-.318.628-.522.574-1.077.422-.907.52-1.512.519-.76.4-.94.477-.638.519-.605.791-.54.833-.809,1.848.018-.369-.254.205-.187.314-.033.772.605.369.654-.036.351.073.489.073.506.278.2.386-.187.754v.442l-.269,1.219-.137.242-.457,1.219-.286.737-.825.591-.589.187-.891.387" transform="translate(-37.555 -598.606)" fill="none" stroke="#eaecff" stroke-linejoin="round" stroke-width="0.5"/></g><g transform="translate(39.832 79.803)"><path d="M-942.732,112c.036,1.018-.011,1.136-1.087,2.754-1.093,1.642-1.122,1.717-1,2.605a3.325,3.325,0,0,1-.2,1.756c-.426,1.127-.288,1.3.937,1.141a6.549,6.549,0,0,1,1.631-.005c.528.1.657.221.763.721a4.066,4.066,0,0,0,.216.752" transform="translate(945.241 -112.005)" fill="none" stroke="#eaecff" stroke-width="0.5"/></g><g transform="translate(28.05 18.973)"><g transform="translate(0 0)"><path d="M-782.394,269.7a2.248,2.248,0,0,0,.319.631,1.1,1.1,0,0,1,.159.8.776.776,0,0,0,.006.351c.018.071-.239.4-.2.484" transform="translate(825.346 -178.684)" fill="none" stroke="#eaecff" stroke-width="0.5"/><path d="M-779.634,330.815a3.584,3.584,0,0,1,.624-.927,3.138,3.138,0,0,0,.771-1.837,7.165,7.165,0,0,0,.1-1.269" transform="translate(823.115 -224.841)" fill="none" stroke="#eaecff" stroke-width="0.5"/><path d="M-993.772-47.374l-.512-.191-1.343-.506a6.662,6.662,0,0,1-1.953-1.438c-1.113-1.114-1.127-1.141-1.662-3.245a7.441,7.441,0,0,0-.785-2.218c-.236-.093-1.21.822-1.36,1.277-.052.159-.235.135-.656-.085-.8-.419-.93-1.2-.43-2.641a7.714,7.714,0,0,0,.383-2.189A3,3,0,0,1-1001-61.1c.214-.171.162-.3-.3-.749a6.068,6.068,0,0,1-.974-1.381,18.649,18.649,0,0,0-1.293-2.053,12.563,12.563,0,0,1-2.111-3.683,3.524,3.524,0,0,0-.492-1.085,2.28,2.28,0,0,1-.451-.654c-.261-.511-.251-.592.158-1.248a3.519,3.519,0,0,0,.479-1.986c.038-1.179.014-1.273-.295-1.141" transform="translate(1006.795 100.137)" fill="none" stroke="#eaecff" stroke-width="0.5"/><path d="M-942.129,74.875c.233.136.361.036.6-.471.5-1.053.4-1.415-.643-2.323-1.413-1.234-1.453-1.283-1.453-1.78a4.359,4.359,0,0,1,.466-1.389l.274-.761.249-.613" transform="translate(955.717 -15.219)" fill="none" stroke="#eaecff" stroke-width="0.5"/><path d="M-891.812-24.242c-1.146,1.458-1.008,2.185.5,2.625,1.152.335,1.892.893,1.892,1.425,0,.41.609.822,1.477,1,.917.189,1.145.427,1.009,1.052-.117.539.282,1.209.561.942.075-.072.079.429.009,1.112-.154,1.5.11,2.155,1.1,2.746" transform="translate(914.435 58.993)" fill="none" stroke="#eaecff" stroke-width="0.5"/><path d="M-939.119,40.269c.119.01.319-.3.444-.682a5.14,5.14,0,0,1,1.19-1.633,5.453,5.453,0,0,0,1.084-1.328,2,2,0,0,1,.488-.73c.3-.273.443-.3.78-.122,1.319.679,4.238,1.137,4.574.718l.668-.839c.413-.52.581-.6,1.018-.513l1.089.226a1.7,1.7,0,0,0,1.176-.216c.9-.49,1.288-.268,1.142.655-.1.622-.057.768.266.943.473.256.911-.048.915-.635.005-.852.223-1.2.936-1.48a3.236,3.236,0,0,0,.55-.274,1.825,1.825,0,0,0,.283-.617" transform="translate(952.073 12.108)" fill="none" stroke="#eaecff" stroke-width="0.5"/><path d="M-771.686,278.112a.991.991,0,0,0,.8-.435,1.257,1.257,0,0,0,.16-.85c-.12-1.07-.1-1.128.443-1.633a2.1,2.1,0,0,0,.692-1.363,4.783,4.783,0,0,1,.49-1.453,1.616,1.616,0,0,0,.243-1.272c-.243-1.311,1.028-3.77,1.671-3.231.455.381,1.821.089,2.882-.618,1.727-1.15,2.714-1.289,3.565-.5a6.533,6.533,0,0,0,2.314,1.152" transform="translate(816.687 -175.903)" fill="none" stroke="#eaecff" stroke-width="0.5"/><path d="M-882.992,273.806a5.743,5.743,0,0,0,.647.282c.132.034.307.072.491.105.6.109.677.068.985-.51.567-1.065,1.574-1.984,2.171-1.984.358,0,.533.095.533.289a1.512,1.512,0,0,0,.491.748c.27.253.457.491.415.529s-.366.247-.721.464c-.4.245-.526.394-.328.395s.374.219.472.6c.136.53.252.62.955.741a3.214,3.214,0,0,0,2.611-.574,1.609,1.609,0,0,1,.573-.4c.083,0,.284-.336.447-.746.261-.658.367-.746.9-.746a1.863,1.863,0,0,1,1.016.335,3.787,3.787,0,0,1,.924,2.557c0,.551.052.673.185.466a1.531,1.531,0,0,0,.182-.689.709.709,0,0,1,.188-.524c.1-.063.185-.021.185.093s.083.157.185.093.185.011.185.165a.483.483,0,0,0,.142.368c.078.049.112-.224.076-.606a1.051,1.051,0,0,1,.221-.935c.243-.2.386-.132.946.477l.66.717.409-.5c.225-.276.545-.7.711-.933.3-.431.3-.431.708-.062s.407.369,1.082-.026a1.993,1.993,0,0,0,.475-.367c.033-.036.438-.066.466-.1" transform="translate(906.689 -180.301)" fill="none" stroke="#eaecff" stroke-width="0.5"/><path d="M-687.941,230.668a9.062,9.062,0,0,1,.074-1.024c.133-.8.515-1.075,1.471-1.075.624,0,.662-.037.776-.757a2.967,2.967,0,0,1,.442-1.16c.283-.353.382-.375.813-.176s.651.158,1.631-.259c1.472-.626,2.069-.539,3.831.564,1.612,1.009,2.664,1.363,3.061,1.031.475-.4.277-1.245-.762-3.247-1.309-2.522-1.433-3.366-.67-4.642l.658-1.1" transform="translate(748.972 -137.544)" fill="none" stroke="#eaecff" stroke-width="0.5"/><path d="M-720.109,105.45a3.244,3.244,0,0,0-1.156.161c-1.193.323-1.335.3-2.955-.5a8.893,8.893,0,0,1-4.038-3.408c-.293-.553-.565-1.043-.6-1.091s-.268.162-.507.466c-.42.533-.448.54-.8.221-.3-.271-.456-.295-.881-.131-.6.23-.831.2-4.033-.614a7.56,7.56,0,0,1-2.77-1.007l-.605-.625c-.549-.566-.988-.915-.991-.788,0,.077-.083.014-.182-.14-.315-.492.02-1.312.618-2.134.5-.7-.236-.679-.225-1.136" transform="translate(790.863 -37.205)" fill="none" stroke="#eaecff" stroke-width="0.5"/><path d="M-800.337,122.788a2.453,2.453,0,0,0-.064.514.813.813,0,0,0,.091.4,1.906,1.906,0,0,0,.851.5c.486.131.816.329.816.489a3.536,3.536,0,0,1-1.023,2.005,2.584,2.584,0,0,0-.639,1.024,7.057,7.057,0,0,1-.3,1.286,2.36,2.36,0,0,0-.15,1.323,9.64,9.64,0,0,1,.36,1.187c.115.471.3.819.427.793s.221.156.221.42-.1.467-.215.467-.169.047-.112.1-.1.306-.339.551a1.627,1.627,0,0,0-.442.629c0,.317.58.783,1.109.89a1.237,1.237,0,0,1,.758.571c.226.427.206.5-.244.894-.339.295-.46.546-.392.811.079.306-.008.408-.428.5-.909.2-.951.234-1.076.81a1.232,1.232,0,0,0,.294,1.133c.41.561.411.574.059.843a1.419,1.419,0,0,1-.681.28c-.48.009-.4.627.161,1.191a9.106,9.106,0,0,0,1.292,1.005c.788.5.808.541.808,1.5,0,.9.042,1,.508,1.175,1.182.445,1.507.648,1.6,1a.78.78,0,0,1-.1.613c-.11.134-.127.244-.038.246s-.1.173-.421.38a1.537,1.537,0,0,0-.614,1.964l.206.63,1.1-2.225a14.073,14.073,0,0,0,1.1-2.654,4.906,4.906,0,0,1,.448-1.4c.413-.9.519-.99,1.421-1.261a3.145,3.145,0,0,1,3.577.838,3.731,3.731,0,0,0,2.7,1.112,2.673,2.673,0,0,1,1.914.819c.307.335.658.452,1.584.529,1.227.1,2.851.753,3.025,1.212.129.341-.2.846-.846,1.281-.572.387-.647.732-.318,1.461a.777.777,0,0,1-.08.917c-.115.177-.27.33-.273.441" transform="translate(841.016 -59.894)" fill="none" stroke="#eaecff" stroke-width="0.5"/><path d="M-793.707,97.617c.273-.058.37.009.563.2.347.351.654.264.654-.185a5.886,5.886,0,0,1,.317-1.192c.31-.882.308-.916-.092-1.637-.492-.885-.524-1.619-.086-1.983.178-.147.521-.425.763-.617a.9.9,0,0,0,.27-.287c.035-.073.4-.153.377-.253" transform="translate(834.494 -34.73)" fill="none" stroke="#eaecff" stroke-width="0.5"/><path d="M-596.238,62.729l-.677-1.224a6.419,6.419,0,0,1-.677-1.524c0-.271-.582-.628-1.557-.958a23.185,23.185,0,0,0-2.566-.29,10.392,10.392,0,0,1-2.384-.346c-.11-.111-.058-.356.139-.66.3-.47.3-.508-.265-1.366a1.966,1.966,0,0,1-.46-1.169c.315-.765.3-.94-.067-.94s-.6-.334-.6-.942a2.21,2.21,0,0,0-.551-.985,1.908,1.908,0,0,0-1.357-.745,10.62,10.62,0,0,1-1.642-.4,3.641,3.641,0,0,0-1.687-.169c-1,.138-1.4-.331-2.042-1.428-.38-.645-.637-.68-.789-.635" transform="translate(688.712 -0.177)" fill="none" stroke="#eaecff" stroke-width="0.5"/><path d="M-499.231,47.587c0-.447-1.032-1.194-2.057-1.49-1.057-.3-1.266-.528-1.266-1.35,0-.346-.207-.583-.841-.964-.463-.278-1.605-1.115-2.539-1.859a8.956,8.956,0,0,0-2.436-1.536c-.868-.216-1.945-.675-2.808-.987" transform="translate(606.044 7.532)" fill="none" stroke="#eaecff" stroke-width="0.5"/><path d="M-764.734,50.723c-.175.577.152.671.5.988a2.2,2.2,0,0,0,2.571.582h0a2.048,2.048,0,0,0,.744-.722,1.488,1.488,0,0,1,1.772-.764.708.708,0,0,0,.743.016c.458-.248,1.249-.249,1.4,0,.07.114.464.145.98.076.781-.1.955-.052,1.828.555,1.693,1.177,2.451.839,2.451-1.093,0-.774.026-.812.646-.929.355-.067.646-.169.646-.225a3,3,0,0,0-.386-.651c-.433-.615-.378-.758.656-1.7.529-.482.868-.617,1.3-.514l1.149.276a2.8,2.8,0,0,0,1.062.134,2.162,2.162,0,0,0,.1-.807c0-.518.1-.763.369-.909s.369-.391.369-.827a1.37,1.37,0,0,1,.468-1.066,8.617,8.617,0,0,0,1.643-2.361c.143-.454.965-.658,1.111-.275a4.592,4.592,0,0,1,.1,1.092,2.06,2.06,0,0,0,.086.824,5.417,5.417,0,0,0,.757-.323l.671-.323.467.549a10.947,10.947,0,0,1,1.111,1.991,4.906,4.906,0,0,0,.921,1.55c.465.18,1.488-1.1,1.824-2.288.346-1.221.491-1.443,1.155-1.764" transform="translate(811.106 6.804)" fill="none" stroke="#eaecff" stroke-width="0.5"/><path d="M-854.375-31.988a4.828,4.828,0,0,0,3.649.086,2.188,2.188,0,0,0,1.674-1.21c.518-.8.656-.9,1.252-.9.935,0,1.16.341,1.018,1.566-.126,1.082.03,1.3.783,1.1a1.707,1.707,0,0,1,1.044.293,2.9,2.9,0,0,0,.9.394.759.759,0,0,1,.474.28c.15.183.562.28,1.192.28.811,0,.995.066,1.174.42a8.26,8.26,0,0,1,.2,2.846,2.683,2.683,0,0,0,.21.957,1.49,1.49,0,0,1-.669,1.908c-.43.2-.61.675-.3.806a10.309,10.309,0,0,1,1.673,2.238c.814,1.493,1.613,1.851,2.589,1.16h0c.362-.257.409-.406.306-.98a9.744,9.744,0,0,1-.1-1.561,3.7,3.7,0,0,0-.279-1.463c-.269-.526-.27-.608-.006-.9.309-.345.395-.948.135-.948s-.584-.9-.584-1.556a3.638,3.638,0,0,1,.369-1.337c.472-.935.474-.917-.2-1.767-.422-.531-.538-.826-.443-1.128.107-.34.223-.39.685-.3a4.238,4.238,0,0,1,1.308.671l.751.558.616-.367.616-.367.724.661c.841.768,1.242.689,1.725-.339.876-1.865.833-2.328-.34-3.717a9.907,9.907,0,0,1-1.186-1.77,2.141,2.141,0,0,0-.518-.814c-.24,0-.643-.794-.9-1.764-.208-.8-.2-.993.029-1.353.442-.682,1.327-1.021,2.929-1.123,1.721-.109,1.957-.285,1.957-1.464,0-.772-.009-.782-.785-.919A25.512,25.512,0,0,0-833.4-44a6.557,6.557,0,0,1-2.031-.233,1.036,1.036,0,0,0-1.356-.153c-.706.5-1.394.367-2.165-.42a4.261,4.261,0,0,1-1.48-2.5" transform="translate(883.55 77.643)" fill="none" stroke="#eaecff" stroke-width="0.5"/><path d="M-515.421-17.084c.152.063.231-.08.231-.418,0-.562.461-1.2.869-1.2a2.414,2.414,0,0,0,.787-.277c.568-.3.873-1,.964-2.23.049-.667.007-.746-.469-.875a1.859,1.859,0,0,0-.98.034c-.328.126-.526.106-.7-.072-.2-.206-.2-.418.027-1.26a6.657,6.657,0,0,0-.047-4.184c-.21-.411-.622-1.229-.916-1.819s-.639-1.073-.767-1.073" transform="translate(610.286 64.017)" fill="none" stroke="#eaecff" stroke-width="0.5"/><path d="M-578.028,36.821c.05-.085.486-.931.543-1.009a3.487,3.487,0,0,1,2.751-1.259l1.254-.076.623.721c.525.607.677.689.961.515a2.4,2.4,0,0,0,.632-1.007,5.389,5.389,0,0,1,.785-1.374c.5-.581.643-1.308.306-1.519a.75.75,0,0,1-.185-.553c0-.387.1-.447.877-.516a5.243,5.243,0,0,0,1.154-.2c.187-.085.371.041.566.388a2.125,2.125,0,0,0,1.292.853c.552.186,1.107.381,1.234.434" transform="translate(660.098 14.717)" fill="none" stroke="#eaecff" stroke-width="0.5"/><path d="M-386.193-71.277c-.1,0-1.25.024-1.338.023-.813-.014-1.079-.1-1.37-.393-.342-.346-.376-.529-.269-1.482a5.942,5.942,0,0,0-.159-2.183,34.318,34.318,0,0,1-.585-5.831c.018-.611-.014-.649-.508-.6a1.212,1.212,0,0,1-.867-.253c-.4-.369-1.383-.3-2.992.2l-1.063.331-.368-.428a1.581,1.581,0,0,1-.368-.606c0-.1-.127-.129-.281-.069-.314.122-1.011-.488-1.011-.884s-.7-1.211-1.3-1.522-1.4-.363-1.562-.09c-.251.411-1.43.167-2.912-.6-2.492-1.292-3.432-1.605-4.213-1.405" transform="translate(522.096 109.838)" fill="none" stroke="#eaecff" stroke-width="0.5"/><path d="M-423.591,17.018c.106-.013.524-.248.628-.23a1.832,1.832,0,0,0,.837-.181c1.01-.36,1.552-.352,1.863.027a5.168,5.168,0,0,0,.946.749c.53.338.7.566.7.959,0,.805.445,1.259,1.606,1.639,1.255.41,3.9.432,4.21.035" transform="translate(535.221 26.177)" fill="none" stroke="#eaecff" stroke-width="0.5"/><path d="M-510.7-66.182c.166-.023.879-.461,1.074-.417.511.116,1.009.077,1.411.178.7.176,1.291.23,1.479.332.491.266.726.01.73-.8,0-.44.078-.513.534-.513.855,0,1.038.4.655,1.41-.361.956-.234,1.194.642,1.2a1.956,1.956,0,0,1,1.122.745c.513.561.73.689.891.526s.317-.094.639.284c.478.562.8.614,1.326.214s1.25-.336,2.162.19c1.057.611,1.234.59,1.552-.178.452-1.094.343-1.815-.34-2.248-.843-.535-.859-1.087-.052-1.808a1.836,1.836,0,0,0,.66-1c0-.641.852-.917,1.71-.555.919.388.938.379.819-.363-.057-.357-.035-.693.05-.746s-.128-.382-.474-.731a1.859,1.859,0,0,1-.628-1.122c0-.46-.039-.481-.707-.373-1.036.167-1.391-.25-1.228-1.444.122-.9.117-.908-.436-1.02-.745-.15-.855-.535-.4-1.411a6.487,6.487,0,0,0,.374-.8,1.4,1.4,0,0,0-.645.03c-1.291.212-1.526-.587-.662-2.248a7.156,7.156,0,0,0,.658-2.025l.118-.988-.816-.513a2.9,2.9,0,0,0-1.658-.513,1.47,1.47,0,0,1-1.365-.56,1.851,1.851,0,0,0-.754-.56.213.213,0,0,1-.231-.187,1.716,1.716,0,0,0-.938-.933,6.528,6.528,0,0,0-1.647,1.678,1.7,1.7,0,0,1-.572.45,2.142,2.142,0,0,1-2.368-.251,1.589,1.589,0,0,0-2.244-.075,9.831,9.831,0,0,0-2.858,4.549,6.99,6.99,0,0,0-.552,2.361,1.338,1.338,0,0,1-.09.819.615.615,0,0,0-.082.293" transform="translate(608.203 108.224)" fill="none" stroke="#eaecff" stroke-width="0.5"/><path d="M-330.929-120.067l-1.257,1.33c-1.52,1.608-1.975,1.811-2.52,1.12a1.239,1.239,0,0,0-.693-.49c-.168,0-.453-.252-.633-.56-.383-.656-.548-.7-.709-.186-.221.7-.726.784-1.279.2a2.128,2.128,0,0,0-1.579-.652c-1.123-.128-1.3-.282-1.3-1.15,0-.3-.105-.452-.323-.453a8.553,8.553,0,0,1-1-.115c-.575-.1-.691-.055-.8.282s-.271.395-.942.395c-.45,0-.818.082-.818.183s-.2.233-.438.294a1.265,1.265,0,0,0-.683.574c-.214.4-.2.561.151,1.245a6.272,6.272,0,0,1,.5,2.162c.1,1.249.07,1.4-.276,1.65-.324.229-.364.393-.262,1.076a4.645,4.645,0,0,1,0,1.35c-.118.543-.188.59-2.068,1.389a5.679,5.679,0,0,0-.856.4" transform="translate(474.666 137.287)" fill="none" stroke="#eaecff" stroke-width="0.5"/><path d="M-333.343-188.728c-.03-.037-.272-.662-.291-.735a1.913,1.913,0,0,1-.017-.728,1.079,1.079,0,0,0-.15-.921,3.544,3.544,0,0,1-.508-1.053c-.2-.619-.2-.845-.029-1.06s.16-.4-.087-.881c-.261-.511-.273-.67-.072-.993a2.164,2.164,0,0,0,.2-1.055c-.033-.583.084-.79.891-1.581a3.671,3.671,0,0,0,.928-1.2,3.61,3.61,0,0,0-.553-1.124,1.845,1.845,0,0,1-.283-2.223c.259-.743.247-.845-.294-2.356a8.541,8.541,0,0,0-.474-1.164" transform="translate(463.293 205.798)" fill="none" stroke="#eaecff" stroke-width="0.5"/><path d="M-883.844,110.058a2.355,2.355,0,0,0,.415.273,4.678,4.678,0,0,0,.877.14c.856.1,1.122.2,1.147.445.018.175.055.737.082,1.25s.1,1.311.166,1.773c.11.792.073.888-.639,1.679-.584.649-.745.967-.707,1.4.042.482.161.6.849.816.65.208.78.322.692.606-.369,1.2-.369,1.167,0,1.022.914-.357,1.314-.342,1.417.055a.983.983,0,0,0,.556.564,2.327,2.327,0,0,1,.822.646,4.627,4.627,0,0,0,2.9,1.294,5.411,5.411,0,0,1,1.217-.163,15.574,15.574,0,0,0,1.681-.169c.749-.125.9-.09,1.246.289a1.47,1.47,0,0,1,.4.768c0,.413.527.446,1.026.064h0a2.074,2.074,0,0,1,1.042-.28,3.4,3.4,0,0,0,1.154-.222c.325-.15.407-.129.425-.478,0-.07.4-.235.4-.338" transform="translate(907.378 -49.6)" fill="none" stroke="#eaecff" stroke-width="0.5"/><path d="M-925.574,118.921a7.573,7.573,0,0,0,2.7-.18h0c.627-.12.852-.624,1.021-2.295.118-1.163.15-1.224.953-1.8a17.654,17.654,0,0,0,1.452-1.181c.612-.574.619-.6.5-1.75-.148-1.4.063-2.065.773-2.436a2.134,2.134,0,0,0,.773-.746" transform="translate(941.12 -48.367)" fill="none" stroke="#eaecff" stroke-width="0.5"/><path d="M-882.923,100.237c.186-.351.49-.524,1.18-.674a7.944,7.944,0,0,0,1.889-.756c1.485-.859,2.024-.7,2.24.642.122.762.649.925.979.3a2.434,2.434,0,0,1,2.089-.686c.344.087.488.281.581.781a1.17,1.17,0,0,0,.388.767,3.041,3.041,0,0,0,1.283-.324c1-.42,1.023-.421,1.289-.066a1.6,1.6,0,0,1,.276.8,3.305,3.305,0,0,0,.3,1.074,1.081,1.081,0,0,0,1.012.751,1.867,1.867,0,0,1,.924.372c.282.343.945.324,2.011-.059a5.582,5.582,0,0,1,.631-.2" transform="translate(906.633 -40.072)" fill="none" stroke="#eaecff" stroke-width="0.5"/><path d="M-584.279,243.826a7.979,7.979,0,0,0-1.924,1.52,1.292,1.292,0,0,1-.7.428c-.52.14-.545.2-.6,1.322-.048,1.011,0,1.214.323,1.444a.969.969,0,0,1,.221,1.283,4.259,4.259,0,0,0-.393,1.064,2.89,2.89,0,0,1-.321.886,1.553,1.553,0,0,1-.414-.411l-.329-.411-.3.578c-.28.548-.275.6.1,1.083s.545.5.232,1.038a4.931,4.931,0,0,0-.549,2.379c-.035.994-.069,1.935-.075,2.091a8.919,8.919,0,0,1-1.769,2.146l-1.987,1.911" transform="translate(672.008 -157.764)" fill="none" stroke="#eaecff" stroke-width="0.5"/><path d="M-779.283,289.98c-.027-.1-.172-.9-.324-1.773a8.261,8.261,0,0,1,.125-4.135l.25-.87-.892-.941-.923-.993" transform="translate(824.256 -188.04)" fill="none" stroke="#eaecff" stroke-width="0.5"/><path d="M-688.605,275s.385-.045.729-.045a.991.991,0,0,0,.681-.28,1.373,1.373,0,0,1,.918-.28,1.758,1.758,0,0,0,1.114-.373,1.5,1.5,0,0,1,.637-.373,5.756,5.756,0,0,1,1.31.9c.847.694,1.09,1,1.062,1.353a1.965,1.965,0,0,0,.425,1.565c.377.381.05.848-.6.848-.55,0-.591.641-.08,1.26.459.556.9.53,2.421-.145a3.805,3.805,0,0,1,1.739-.467l.939.2c.658.139.986,1.009.872,2.314-.084.972-.054,1.073.482,1.586a1.5,1.5,0,0,1,.572,1.353c0,.68-.057.8-.369.8-.434,0-.478.236-.1.552a2.367,2.367,0,0,1,.481.877c.238.728,1.474,1.326,1.7.954" transform="translate(749.509 -181.878)" fill="none" stroke="#eaecff" stroke-width="0.5"/><path d="M-670.074,73.725c.235.472.433.37.76.585.409.157.593.119,1.037-.213,1.064-.8,1.007.367-.086,1.752a1.564,1.564,0,0,0-.479,1.4,2.139,2.139,0,0,1-.3,1.378l-.388.691.368,1.065c.495,1.43.833,1.625,1.476.853a1.351,1.351,0,0,1,1.383-.595,1.474,1.474,0,0,0,1.322-.463c.836-.891,1.244-.5,1.9,1.81.3,1.048,1.08,2.158,1.449,2.05.118-.035.138.173.056.56-.328,1.534-.307,1.909.138,2.444.141.169.008.417.29.556" transform="translate(734.525 -20.222)" fill="none" stroke="#eaecff" stroke-width="0.5"/><path d="M-645.721-112.7c-.251-.254-.355-.255-.936-.01-.79.333-.8.565-.092,1.408.508.6.728,1.309.408,1.316a3.073,3.073,0,0,0-.76.556c-.555.494-.608.625-.5,1.218a4.129,4.129,0,0,0,1.611,2.824c.768.521.8.586.856,1.585a1.794,1.794,0,0,1-.436,1.631,1.122,1.122,0,0,0-.355,1.191,12.131,12.131,0,0,1,.161,1.815,5.273,5.273,0,0,0,.439,2.115c.5,1.1.508,1.257.045,2.173a2.316,2.316,0,0,0-.252,1.576c.16,1.181-.111,1.475-1.217,1.322a4.915,4.915,0,0,0-2.452.427,13.5,13.5,0,0,0-2.074.856.841.841,0,0,0-.02,1.489,1.247,1.247,0,0,1,.508.815c.055.485.125.523,1.113.612a2.2,2.2,0,0,1,1.762.793,2.526,2.526,0,0,0,1.014.7,2.083,2.083,0,0,1,1.5.865c.332.454.332.473,0,.718-.187.139-.3.283-.249.321a9.069,9.069,0,0,0,1.926,1.262c.521.2.2.672-.481,1.108" transform="translate(719.696 130.677)" fill="none" stroke="#eaecff" stroke-width="0.5"/><path d="M-695.138-68.553c-.416,0-.432.044-.318.886a2.143,2.143,0,0,0,.535,1.271,2.165,2.165,0,0,1,.539,1.293,2.935,2.935,0,0,0,.424,1.243c.232.259.273.543.181,1.248-.168,1.28.106,1.491,1.517,1.165,1.92-.443,2.074-.446,2.957-.058a14.11,14.11,0,0,0,1.645.591c.432.117.785.324.785.459s.314.467.7.736c.638.447.8.479,1.927.373,1.058-.1,1.314-.061,1.841.28a2.4,2.4,0,0,0,.722.356,5.324,5.324,0,0,0,.851.091" transform="translate(755.098 94.823)" fill="none" stroke="#eaecff" stroke-width="0.5"/><path d="M-699.553,275.92c-.5.136-.8.308-1.234.14a3.425,3.425,0,0,1-.75-.225,4.524,4.524,0,0,0-.877-.978" transform="translate(760.675 -182.855)" fill="none" stroke="#eaecff" stroke-width="0.5"/></g></g></g></svg>