<svg xmlns="http://www.w3.org/2000/svg" width="94.573" height="170.489" viewBox="0 0 94.573 170.489"><g transform="translate(-84.551 -48.807)"><path d="M85.079,56.8l-.208.119.023.077.017.057-.11.072.009.119.359.885.243.6.095.078.229-.041.192.315-.286-.09.282.793.383.724.553,1.316L87,62.34l.334.448-.014.111.649,1.567.241.837.08.1.28.623.009.19.739,1.5.155.306.4.8.076.059.027.02.306-.128.172.015.064.079-.3.191-.038.087.1.442.2.2.065.253.206.18.049.34.143.117.108-.256.063-.148.026-.063.193-.136.046.056-.051.166-.04.078-.1.2-.139.271.087.157.284.022.071.07.544,1.34.2.292.017-.137.1.2-.055.118.208.417.52,1.38.382.8.113.45L93.919,77l.245.632.018.033.012-.668.1-.047.08-.163-.023-.2.159.009.022.273.309.01.3-.123.066-.014.478-.1.1-.022.144-.281.038.243-.151.179-.091.016-.267.044-.18.112-.107.066-.245.03-.28.131-.239.225v.141l.1-.007.205.157-.073.18.024.141.157.156.278.018.055.11-.033.258.036.446.142.259.237.033-.01.431.068.384.221.385-.04.195.18.408.151-.022.079.149.068.5.237.268h.27l-.056.156.1.173-.2.242-.16.086-.072.163.322.8.151.625.026.318.23.44.1.316.15.229.166-.008.085-.1.377-.025.095-.088.03-.237.156-.214.094.007.379.266.419.378.158.3,1.014,1.433.49.463.193-.035.042-.006-.048-.158-.222-.143-.33-.449-.033-.15-.127-.063-.165-.478-.4-.316L99.6,85.63l-.054-.353.118-.283.027-.068.159-.093.469-.005.167.063.174.3.15.047.048-.088.024-.044-.127-.332.066-.092.173.209.026-.27.28-.445.119-.085.137.16-.179.317-.175.078-.088.179.022.337.135.095.811,0,.145.133.155.143.318.048.184-.084.174.032-.232.178-.166.031-.255-.04-.333-.26-.508-.082-.081.281-.222-.18-.286.006-.15-.087-.16.031-.18-.275-.143-.1-.223-.048-.15,0-.055.045-.1.08-.056.188.063.306.211.256.041.05.152-.038.22.377.183.142.316.479.11.36.268.354.111-.007-.33-.722.2.025.134.117-.048.125.274.7.111.078.169,0,.261.006.309.221.169.066.211.084.254.04.071-.07.066-.391.239-.274.1-.183.1-.192.191-.234.232-.1.31-.038.255-.195.012-.9.053-.072.3-.412.254-.108.468,0,.47-.281.111.024.134.189.817.724-.27-.055-.222-.213-.42-.268-.572.194-.524-.167-.127.069-.16.211-.137.266-.017.122-.032.215.054.486-.072.157-.136.125-.167.046-.4.382-.14.055-.14.154-.088.291.2.542.087.024.1-.187h.071l.039.18.142.111.062.173.143.063.175-.039.121.056h.34l-.159.274-.219-.014-.044,0-.1.141-.088.008-.11-.182-.374-.081-.079-.117.024-.125-.063-.126-.222-.017-.117-.439-.183-.016-.1.2-.167.148-.509-.011-.055-.013-.19-.042-.879-.444-.422-.087-.009.029-.066.083v.111l.5.81.034.348.15.157.149.07.672.748.373.717.245.243.116.037.034.01.118.142.117-.238.044-.03.081-.057.11.007.073.057.432.336.474.456.6.724.284.267.188.1.428.614.073.324.126.117.213.03.083-.049-.161.232-.023.087.307.236.274-.009.07-.183.033,0,.077-.012.023.085.026.1.049.308.19.252.2.165.254.418.125.079.181.015.158.11.308.527.363.315.3-.025.187-.016.111.094-.164.044-.134.036-.055.071.015.158.206.22.1.363.167.292.339.425.088.505.238.687.374.971.164.332.113.226.159.727.088.127.094.015.043-.083-.127-.272h.058l.135.214.2.054.309.3-.065.125-.141-.023-.206-.22-.055.1.1.126.1.371.065.366-.047.108-.241-.666-.143-.246-.057.067.744,1.818.133.323.079.2.24.845.346.267.174.307.181.015.132-.143.188-.04.447.077.189.07.386.434.2.093.31.4.67,1.3.141.134.443.851.317.813.121-.023.032-.022.026,0,.188-.05.084-.022.128-.181-.159-.228-.055-.2.274-1.516-.119-.181-.287-.063-.159-.142-.261-.6.027-.118.109-.118.024.119.061.306.168.235.167.181.152.008.159-.063.032.143.135.181.247.181-.073.079-.262-.119-.038.076.01.057.019.133-.128.684.039.377-.114.2.175.339.176.166-.342.188.038.444.068.115.134.032.267-.043.209-.153.176.055.08-.11.015-.126-.054-.134.12-.346.119.008.016.111-.088.2.1.016.2.15.168-.062v.125l.273.233-.032.082-.194-.142h-.207l-.153-.159-.134.056-.145.259-.071-.016-.055.215-.31-.087-.075.025-.008.074.194.229.042.139-.544-.192-.228-.295-.039-.593-.036-.005-.031,0-.1-.013-.05.072-.029.047.019.233-.194.381.142.165.032.134.5.441.112.513.4,1.255.04.332.237.528.079.306.072.278.086.079.172-.127.04.11-.1.308.174.514.72,1.632.071.016.117-.174.244.371-.353-.047.032.19.338.347.23.655.1.046.233-.218.1.2-.13.1-.078.125v.121l.046.113.215.526.158.631.182.466.445,1.84.149.166-.046.15.051.443.084.322.811,3.1.3,1.532.254,1.279.3,1.011.133.9.036-.576.1.151.03.133.07.007.057-.046.056-.037.132-.1.344.024.431-.141.258-.386.225-.19.039.205-.1.26-.2.063-.487.48-.408.268-.066.033-.117.074-.055.1.025.126.173.19.078.173.088.577.221.56.267.34.111.457.851,2.067.695,1.471.4.841.2.213.859,2.163.188.22.118-.031.03-.213.392.046-.054.079-.089.031-.114.041-.015.142.519,1,.164.166.15.347.089.389-.179-.093-.322-.629-.095.029.594,1.213.5,1.025.188.283.756,1.871.426,1.19.313.878.34,1.4.291.9.323,1.408.4,1.757.047.047.085-.079.008-.174-.068-.049s-.078-.49.274-.587.607-.2.8-.255a3.089,3.089,0,0,1,.607-.157c.137,0,.352.02.255-.313s-.372-.7-.392-.862a2.5,2.5,0,0,0-.372-.881c-.215-.313-.431-.333.02-.294s.744-.137.881.078.235.235-.118.274-.176.431-.1.627.117.47.235.568.2.059.313-.039.372-.117.431.02-.039.274-.078.372-.352.764-.137.881.568.646.92.725a1.314,1.314,0,0,1,.764.587,1.249,1.249,0,0,0,1.253.215c.372-.2.646-.235.822-.039a.671.671,0,0,1,.176.411s-.587-.313-.724-.176-.783.529-1.116.274-.666-.724-1-.862a3.518,3.518,0,0,1-.862-.548c-.333-.255-.411-.431-.529-.47a2.466,2.466,0,0,0-.666,0c-.255.02-.548.039-.529.137a4.026,4.026,0,0,0,.411,1.038,2.828,2.828,0,0,1,.313.509l.029.675.138.161-.086.146.063.1.092-.008.117.177-.148.253.708,1.283.069-.039.023-.091-.061-.468-.373-.992h.085l.094.13.225.538.148.138.132.031.062.115-.078.147.023.207.14-.038.078.146-.295.269-.07.177.249.614.187.207.1-.031.116-.153.2.122.046.1v.216l.078.192.319.323.172.007.085-.146-.062-.146.078-.108.108.016.07.161-.14.377-.156.153-.217-.175-.124-.008-.039.1.089.382.039.169.036.156-.078.361.015.322.117.291.335.832.638.96-.016-.468.17-.308.04-.246-.11-.407.1-.176.227.816.14.505.258.245.225.5.125.031.038-.255.133.039.242.353.109-.1.116.023.39.653.545,1.292.032.123-.062.224.077.207h.164l.2-.084.088.112.052.157-.023.092-.128-.043-.113-.111-.031.115.054.27.07.123.163.054.111.164.154.229.063.292-.031.131-.1-.232-.054-.121-.336-.354-.006.353-.2.408-.271.362-.194-.069v.346l.14.192.172.531.289.23.085.162.056.285-.024.185-.122.946-.1.232.016.214.3-.031.257.1.265-.409v.407l.295.25.049.1-.047.12-.233.6-.008.1.253.269.129.139.149.261-.094.208.219.231-.1.085-.187.069.25.238.1.223.047.308-.317,1.386-.109.016-.031.116.211.423.132.146,1.185-.148-.187.108-.357.177.327.039.3.138.593.115h.342l.421.292.125.015.124-.247.085-.57.141.246.024.331.023.1-.234.307-.124.116-.14.038-.4.008-.046.131.047.34-.07.231-.288.185-.257-.123-.5-.1-.538-.031.009.571-.086-.062-.358-.014-.187-.07-.119-.539h-.189l-.2.07-.138.417-.079-.247-.2-.023-.142-.286-.327-.092h-.226l-.195.208-.109.015-.031-.153.125-.24-.157.055-.218-.023-.132-.073-.118-.067-.219-.23.115-1.14-.031-.131.086-.2.241-.239.085-.254-.062-.508.03-.109.171-.538.226-.255.148-.408.069-.5.094-.185.226-.161.061-.162-.055-.638-.3-.024-.616-.376-.148-.308-.008-.177.218-.439-.04-.378.164-.337-.08-.255.016-.262-.086-.346.023-.492-.281-.8.054-.322.156-.224-.062-.238-.483-.316-.156-.162-.4-1.345-.095-.139-.124-.046-.264.062-.085.459.073.561.029.216.078.215.273.223.235.447-.039.246-.125.077.008.193.069.162.273.046-.024.17-.186.384.32.869.125.754-.03.439.147.323-.2.077-.156.524-.186.015-.249-.192-.055-.192.108-.3.031.292.149.07.123-.363.125-.146-.273-.807-.109.207-.11-.216-.226-.169.21-.023.132-.377-.134-.931-.264-.423-.156-.016.172-.2,0-.139-.132-.177-.172-1.947-.008-.1.031-.254.086-.161-.125-.177-.186-.039-.229-.173-.245,0-.039.23.063.393.077.323.164.238-.038.716-.11-.078-.1-.445-.164-.031.024.446-.047.161-.343.069.008.546-.1-.046-.086-.261.008-.3.1-.238-.054-.115-.1-.046-.21.261.054-.453.117.054.178-.023.047-.122-.032-.116-.21-.139.257-.13.155.008.132.192.148.024.031-.146-.071-.454-.312-.93-.038.246-.242-.145-.023.231.194.453-.039.138-.209-.023-.2.238-.047-.331-.4-1.092-.07-.453.147.023.133.155.249.5.108-.154h.164l.211-.177.147-.039.086.255.132.146.155.031-.009-.244-.007-.195-.086-.238-.217-.239-.344-.185-.068-.414.214.214.281.074.1-.012-.165-.353-.053-.284-.112-.107-.231-.271-.079-.115-.17-.176-.21-.185-.192.015-.082.082-.109.129-.13-.026-.311.3-.08.092-.016.19.888,3.575.009.308.1.413.025.1.332,2.1.352,1.365-.053.221.118,1.011.19,1.5.033.884.149.664-.007.253.513,3.671.213,1.04.007.037.069.336.254,1.248.3.955.714,1.986.451,1.257.438,1.089.367.741.484,1.334.624,1,.085.25.079.233.554,1.183.188.671.458.966.025.052.055.031.039-.056-.125-.465-.2-.3-.032-.26-.3-.678-.173-.664-.218-.316-.35-.964,0-.109v-.031h.2l.024-.055.131-.127.422.584.093.387-.062.206.021.229.01.11.125.561.187.434.078.347.328.363.194.331.047.331.1.15h.132l.046-.206-.032-.584.125-.079.513-.111.032.11-.086.1-.109-.023-.116.118h-.085l-.046.221.2.781-.125.166-.016.206.079.253-.094.079-.163-.284-.094.063.818,1.926-.015.063-.225-.19-.25-.441-.114-.508-.306-.4.016-.13-.047-.1-.328-.636-.052-.019.894,2.146.55,1.077.284.556.445,1.2.164.852.116.253.047.458.265.907.1.15.116.04-.039.173-.007.2.2.774.194.307.233.277.405.3.4.026.211.014.218.142.886.891.2.134.032.042.684.9.194.181.264.441,1.065,1.3.607.978.45.726.45.5,1.865,2.359.76.971.474.466.846,1.065.574.837.312.345.566.626,1.753,2.257.7.764.375.412.388.678.046.056.078-.008.558.916.154.386.45.458.21.1.682.7.279.087.4.268,1,1,.806.585.43.335.235.071" transform="translate(0 -6.529)" fill="#5751c8" stroke="#eaecff" stroke-linejoin="round" stroke-miterlimit="3.864" stroke-width="0.5" fill-rule="evenodd"/><path d="M168.327,218.982l.633-.486.366-.081.292-.08.29-.157-.007-.224-.154-.224-.009-.3.067-.227.3.219.292-.08.37.069.373.143.292-.08.364-.157.214-.229-.081-.224-.3-.3.069-.152-.007-.224-.3-.3-.156-.3-.083-.3.064-.3.216-.155.29-.155.145-.078.064-.3-.006-.224-.014-.451.057-.528.209-.379.214-.229.363-.157.29-.157.145-.077.067-.227-.007-.226-.3-.144-.152-.149.058-.526-.154-.222-.078-.149-.007-.226.142-.154.292-.08.375.219.379.368.513-.085.5-.534.2-.6-.014-.451-.014-.451-.175-.9-.23-.3-.306-.37-.157-.3-.078-.149-.156-.3-.157-.3-.911-.885-.234-.448-.4-1.045-.776-1.264-.014-.45.138-.3.214-.229.219-.08.219-.078.138-.3.064-.3-.154-.224.292-.08.221,0,.29-.155.216-.155-.018-.6.342-.832.209-.379.423-.61.062-.377.135-.378-.161-.448-.157-.3-.226-.146-.3-.3-.3-.145-.228-.221-.088-.449-.087-.449-.451-.293-.3-.22-.693-.965-.633-1.417-.159-.373-.085-.374.062-.377.287-.231.356-.382.437-.158.283-.381.14-.228.131-.528-.311-.521.361-.232.928-.918.651-.388.266-.907.233-1.958.271-.756.188-1.055.126-.679-.087-.449.424-.8.45-.151.3-.15.15-.3.225-.149h.3l.525-.225.15-.149.15-.3.15-.3-.15-.445.075-.446.15-.3.375-.521.526-.968.525-1.042.225-.6.376-1.338v-.594l-.375-.221-.6-.22-.6-.815.075-.669-.075-.148h-.3l-.375.521h-.15l-.225-.073.075-.594H177l-.525.225-1.576.526-1.351-.217-1.2-.441-.45-.072-.6.077v-.52l.151-1.189.525-.968.375-1.264.075-.446.826-2.232.075-.594.676-.3.075-.3-.525-.443-.3-.222-.15-.222v-.52l.15-.3-.15-.445-.15-.222.075-1.263.45-.6.6-1.042.975-.747v-.371l-.15-.594-.75-1.631-.15-.371-.375-.37-1.351-1.406-.15-.222.15-.372.375-.6.225-.224.525-.151.6.22.525-.151.226-.372.825-3.346-.075-.3-.225-.073-.6.077-.15-.3-.3-1.187-.9-1.184-.225-1.336-.375-.37-.675-.072-.525.151L168.6,142.6l-.975.227-.525.6-.525.819-.526.745-.675.3-.675.523-.826.3-1.275-.589-.751.077-.45-.3-1.05-1.035.375-.893-.525-.072-.525.151-.45.076-.375-.3.15-.892v-.52l.3-.521.225-.521-.15-.594-.525-.815-.525-1.186.15-.52.075-.743.225-1.041.225-.892-.15-.445.3-.744.15-.818v-.3l-.15-.371-.375-.37-.45-.3v-.52l.15-.372.075-.446.3-.224.525.146.075.074.825-.3.3-.447.075-.3-.3-.593-.15-.668.15-.521.3-.3.225-.372.15-.224.375-1.932-.3-.741-.451.076-1.05-.07v-.148l.226-.6-.451-.444-.225-.742-.375-.741-3.6-.5-1.05-.367-.975-.367-1.126-.664.6-.448v-.743l.525-.968.15-.892.676-.745.6-.077,1.2.366,1.351-.451.45-.522-.676,0-.975-.367-.525-.443.075-.371.45-.448-.375-.592v-.966l-.375-.37-1.576-.81.15-.3.375-.224.6-.3.3-.15-.075-.519.225-.149.151-.224-.076-.371-.9-.591-.526.151-.375.447-1.8,1.2-.675,0-1.726-.216-.825.226-.676,0-.975-.516-1.275.228-.15.223-.6.077-.751-.071-.225-.074-.375-.221.675.146.226-.372.225-.149.15-.521.525-.448.525-.225.9-.524.675-.374v-.817l.825-.3v-.371l.151-.372.225-.372v-.52l-.225-.445-.975-.59-.9-.739-1.276.005-.525-.221-.375-.37-.751-.665v-.3l-.375-.147-.675.151-.3-.3-.375-.3-.226.075-.3.15-.15-.222-.15-.222-.3.15-.375.076-.15-.222-.375-.37-.45.3-.375-.3-.225-.519-.525.077-.3-.073-.6.151-.3-.073.225-.521-.075-.445-.075-.52.3-.892.075-.669-.225-.445-.675-.072-.225-.593.375-.521.675-.077.451.37.675.517,1.2-.228.825-.524.45.073,1.05-.45.3-.744.675-.374,1.051-.078.3-.373.075-.966-.375-.37-.525-.592v-1.04l.6-.6-.075-.519-.45-.37-1.426.229-1.5.3-.675-.517-.525-.667-.225-.593-.675-.591-.526-.518-1.275.3-.375-.37-.375-.147-.15-.816-.6-1.26-.45-.146-.526.448-.3.15-.45.224-.45.225-.375-.37-.3-1.335-.15-3.044L128.46,81.2l-.9,0-.9-.293-2.1-.214-.6-.146-.825-.071-.826-.22-.15-.519-.375-.222-.45-.37-.225-.445-.075-.891-.375-.667-.15-.519.075-.52.075-.3-.6-.443-.6.076-.6-.22-.825,0-.675.151-.375.075-.075-.222-.525-.889-.451.076-.45.224-.3-.147-.15-.594-.676-.591-.975-.442-1.2-.44-1.5-1.405-.6-1.483-1.876-2.22-.826-.071-.75.523-.225-.593-.15-.445-.15-.371-.075-.371.076-.743-.225-.593-.3-.667-.526-.221-.45-.147-.15-.816.075-.446-.075-.668.525-.448.975.07.375-.225v-.817l-.225-.593-.375-.147-.525.076-.45.373-.075.669-.675.077-.6.077v-1.04l-.375-.072-.6-.295-.15-.371-.751-.22-.6-.369-.075-.3.15-.892.675-.374.6-.077.525-.151-.375-.37-.525-.072-.376-.221-.075-.594-.3-.147-.45.224-.975.9-.451.521-.45-.072-.3-.444-.45-.3.3-.447-.225-.222.075-.52-.675,0-.45.15-.45.3-.3-.3-.45-.74.375-.15.3-.373-.15-.594-.45-.3-.525.225-.375-.072L95,52.894l-.225-.445L94.1,52.08l-.075.223v.371l-.075.446-.3.3-.3-.147-.6-.146-.525-.443.225-.3.075-.371-.3-.519-.6-.22-.3.224-.4-.078-.348-.067-.15-.519-.375-.37.15-.521.6-.3v-.372l-.225-.147-.525.225-.526.151-.675-.443-.525.448-.825.152-1.626.8" transform="translate(-0.9 0)" fill="#5751c8" stroke="#eaecff" stroke-linejoin="round" stroke-miterlimit="3.864" stroke-width="0.5" fill-rule="evenodd"/><path d="M241.776,294.941l-.421-.02-.308-.476-.144-.394.025-.594.273-.121.312.238.232.5.215.65Z" transform="translate(-131.65 -206.013)" fill="#5751c8" stroke="#eaecff" stroke-linejoin="round" stroke-miterlimit="3.864" stroke-width="0.5" fill-rule="evenodd"/><path d="M155.318,176.238l1.029-.383s.117-.431.2-.744a4.6,4.6,0,0,0,.039-.979s-.392-.431-.392-.587-.2-.7.157-1.018a13.04,13.04,0,0,0,1.018-.979c.118-.157.078-.313.431-.274s.431.117.666,0,.783-.587,1.018-.587.627-.078.666-.235-.118-.744.117-.744,1.645-.039,1.645-.039l1.88-1.018.94.039.469-.148" transform="translate(-59.471 -100.767)" fill="#5751c8" stroke="#eaecff" stroke-linejoin="round" stroke-miterlimit="3.864" stroke-width="0.5" fill-rule="evenodd"/><path d="M244.145,260.507a7.361,7.361,0,0,1,.782-.075c.274,0,.274.117.313.352s.117.587.431.431a1.468,1.468,0,0,1,.666-.2c.157,0,.431-.117.2-.47s-.509-.783-.157-.862.509-.117.666-.157a4.942,4.942,0,0,0,.783-.627s.47-.587.783-.509a1.932,1.932,0,0,0,.627.039l.509-.47s.313-.274.313-.431v-.627a1.206,1.206,0,0,1,.783.274,4.441,4.441,0,0,0,.47.47l.352-.078.313-.078s-.352-.666.039-.666a5.2,5.2,0,0,1,.666.039s.117-.509.352-.627.431-.509.2-.666-.548-.509-.313-.666a1.022,1.022,0,0,1,.666-.274c.313,0,1.606.078,2.115.117s1.566.274,1.566.274.509-.2.352-.352-.352-.078-.117-.352.274-.392.157-.587-.352-.47.078-.548.744-.352.587-.548a3.957,3.957,0,0,0-.509-.47s-.117-.313.039-.47a1.42,1.42,0,0,0,.192-.657" transform="translate(-134.383 -170.345)" fill="#5751c8" stroke="#eaecff" stroke-linejoin="round" stroke-miterlimit="3.864" stroke-width="0.5" fill-rule="evenodd"/><path d="M310.388,372.538a2.387,2.387,0,0,0,.666-.157.632.632,0,0,0,.352-.548,1.043,1.043,0,0,1,.157-.783c.235-.313.548-.078.744,0s.352-.039.47-.274.2-.431-.078-.548l-.548-.235-.392-.548s.548-.039.627-.313a1.31,1.31,0,0,1,.587-.627,6.438,6.438,0,0,1,.744-.313,2.471,2.471,0,0,1,.979-.313c.431,0,.666.039.7-.2s.157-.587.313-.627a.537.537,0,0,1,.509.157c.157.157.392.352.392.352a16.11,16.11,0,0,1,1.606-.392,3.331,3.331,0,0,0,1.292-.431c.157-.157.7-.94,1.057-.94h.7a1.776,1.776,0,0,1-.039-.392c0-.235.078-.548-.118-.587a3.629,3.629,0,0,1-.666-.313s-.274-.353.039-.548a1.428,1.428,0,0,0,.47-.666s.039-.783.039-.94a.833.833,0,0,1,.274-.587,2.092,2.092,0,0,0,.431-.509l.548-.509a.292.292,0,0,1,.352.157c.117.235.392.274.392-.039v-.783s.157-.509.548-.587.666-.509.47-.627-.548-.509-.235-.509,2.581-.023,2.581-.023" transform="translate(-190.25 -260.833)" fill="#5751c8" stroke="#eaecff" stroke-linejoin="round" stroke-miterlimit="3.864" stroke-width="0.5" fill-rule="evenodd"/><path d="M312.5,301.563l-.509-.8-.352-.352a.8.8,0,0,0-.313-.039c-.235,0-.431-.2-.666-.47s-.039-.587,0-1.057-.744-.313-.94-.274-.431.352-.666.509-.587.039-.783,0a1.4,1.4,0,0,1-.627-.47.955.955,0,0,0-.783-.431c-.47-.039-.822-.666-.822-.666s-.078-.548-.117-.783-.822-.7-1.214-.783-.666-.548-.744-.7-.587-1.332-.587-1.332,0-.9-.2-1.1.039-.431.392-.509-.039-.431-.313-.509a1.23,1.23,0,0,0-.783.157c-.157.078-.352.157-.509.235s-.627-.235-.744-.392-.431-.509-.431-.509a7.887,7.887,0,0,0-.587-.587,8.816,8.816,0,0,1-.822-.666c-.274-.274-.2-.392,0-.587a.6.6,0,0,0,.078-.548l-.822-.666" transform="translate(-180.34 -201.712)" fill="#5751c8" stroke="#eaecff" stroke-linejoin="round" stroke-miterlimit="3.864" stroke-width="0.5" fill-rule="evenodd"/><path d="M345.138,539.214s.548-.7.979-.7,1.136.078,1.136.078l.783-.666.7-.157a4.322,4.322,0,0,0,.548-.588.4.4,0,0,1,.666-.117c.313.274.274.431.783.274s.822-.313,1.371.039.94-.039.94-.235a.732.732,0,0,1,.392-.666,2.39,2.39,0,0,0,.627-.548l-.157-.94a1.983,1.983,0,0,0,.744.117c.313-.039.509-.157.783.274s.392.509.783.509.9-.117,1.214.117a1.693,1.693,0,0,0,.979.235c.2,0,.822.039,1.018.039a.748.748,0,0,0,.548-.274.657.657,0,0,1,.94-.313,1.826,1.826,0,0,0,1.018.313,2.2,2.2,0,0,0,.94-.078,1.564,1.564,0,0,1,.509-.078h.392s.392.548.157.862a6.176,6.176,0,0,0-.509,1.057,3.217,3.217,0,0,0-.157.431l.2.744-.822.548-.627.352s-.392.313-.2.627.274.47-.078.744a1.5,1.5,0,0,0-.47.587l1.136,1.018-.235,1.018,2.232,2.154,1.057.118a6.512,6.512,0,0,1,.744.744.886.886,0,0,0,.587.392,1.384,1.384,0,0,1,.548.392l.47.039.7.078.509.548.118.509s.235.392.392.431a2.807,2.807,0,0,1,.587.431.815.815,0,0,0,.509.118,2.558,2.558,0,0,1,.548,0,.45.45,0,0,1,.352.235c.117.157.352.431.352.431a3.494,3.494,0,0,1,.666-.117,5.857,5.857,0,0,0,1.175,0c.353-.078.783-.235.94.039s.157.47-.2.548-.509.235-.353.392.2.313.548.235.666-.392.9-.117.548.157.783-.078.548-.47.744-.352.627.352.627.352" transform="translate(-219.556 -409.809)" fill="#5751c8" stroke="#eaecff" stroke-linejoin="round" stroke-miterlimit="3.864" stroke-width="0.5" fill-rule="evenodd"/><path d="M362.889,450.549a1.707,1.707,0,0,0-.313-.862,9.067,9.067,0,0,0-.744-.822.574.574,0,0,1-.235-.509,2.325,2.325,0,0,1,.2-.744.662.662,0,0,0,.039-.7,2.3,2.3,0,0,1-.157-.7v-.7l1.136.078s.587-.039.822.274a5.749,5.749,0,0,0,.627.666l.548-.274s.47-.47.157-.744a7.152,7.152,0,0,1-.587-.587,2.51,2.51,0,0,1,.352-.431c.235-.235.47-.509.47-.509a.505.505,0,0,1,.627-.157c.431.157.47-.078.47-.313s.039-.627.431-.627.744.078.862.352.157.313.392.2.783-.274.94.157.353.431.627.157.822-.783.822-.783.744-.587,1.057-.235a2.187,2.187,0,0,0,.666.509l.587-.039-.587-1.175a.383.383,0,0,1,.078-.548c.2-.2.587-.392.587-.627s0-.352.313-.274a1.206,1.206,0,0,0,.744-.2s.352-.47-.117-.47-.94-.039-.94-.039l-.509-.352.157-.509-.744-.47a3.055,3.055,0,0,0-.392.313c-.157.157-.352.117-.352-.2s-.392-.979.078-.979,1.018-.157,1.214-.157a1.506,1.506,0,0,0,.822-.627c.157-.274.548-.9.94-.783a2.562,2.562,0,0,0,.666.117s.039-.431.039-.587.117-.509.313-.548.627-.352.392-.7-.862-1.331-.862-1.331l-.2-1.018s.548-.039.7-.078a4.713,4.713,0,0,1,.89.1" transform="translate(-233.431 -322.906)" fill="#5751c8" stroke="#eaecff" stroke-linejoin="round" stroke-miterlimit="3.864" stroke-width="0.5" fill-rule="evenodd"/><path d="M393.446,654.211s-.1-.646.255-.725,1.606-.47,1.606-.47l1.214-.235.627.627a1.432,1.432,0,0,0,.548.117.563.563,0,0,1,.509.157c.2.157.431.235.548-.117s.2-.548-.078-.666-.47-.431-.392-.587.039-.313.274-.392.7-.313.7-.313a6.725,6.725,0,0,0,1.723-.627,11.622,11.622,0,0,0,.744-.9l.587-.744s.7.313,1.018.117a.839.839,0,0,1,.94-.078.828.828,0,0,0,.7.2c.235-.039.587-.157.822,0a4.362,4.362,0,0,0,1.488.078,1.338,1.338,0,0,1,.94.274c.157.157.7.235.7-.039v-.548a7.281,7.281,0,0,0,1.214.548c.2,0,.47.118.627-.039a.95.95,0,0,1,1.018-.039,6.953,6.953,0,0,0,1.018.666h1.136c.2,0,.392-.352.392-.352s.431-.157.627-.039,1.1.313,1.175.117.078-.509.47-.47.822-.235,1.057.117.313.47.7.47H419.7" transform="translate(-260.286 -506.184)" fill="#5751c8" stroke="#eaecff" stroke-linejoin="round" stroke-miterlimit="3.864" stroke-width="0.5" fill-rule="evenodd"/><path d="M441.888,752.169a9.853,9.853,0,0,1,1.527,0,.613.613,0,0,0,.666-.117c.2-.2.783-.783,1.057-.509s.47.274.627.157.157-.235.157-.431-.353-.862.117-.744.587-.039.822-.039,1.1.274.627.587-.548.431-.2.783.274.47.666.47.47-.157.587.2.94.509.7-.157-.235-.862,0-1.057.47-.353.7,0,.822.548.822.235.078-.509.274-.509.509.039.509.039" transform="translate(-301.151 -591.552)" fill="#5751c8" stroke="#eaecff" stroke-linejoin="round" stroke-miterlimit="3.864" stroke-width="0.5" fill-rule="evenodd"/><path d="M468.638,922.512a3.31,3.31,0,0,0,.627-.274c.353-.2.94-.47.94-.47a9.94,9.94,0,0,0,.392.979c.117.2.235.392.431.392s1.684-.47,1.958-.548a5.716,5.716,0,0,0,1.292-.666c.157-.157,1.566-.94,1.566-.94" transform="translate(-323.71 -735.343)" fill="#5751c8" stroke="#eaecff" stroke-linejoin="round" stroke-miterlimit="3.864" stroke-width="0.5" fill-rule="evenodd"/><path d="M450.9,779.231l-.626.033a1.9,1.9,0,0,1-.666-.235c-.2-.157-.7-.078-1.253-.078a2.934,2.934,0,0,1-1.606-.94c-.157-.235-.7-.078-.979-.392s-.666-.078-.783-.274-.313-.235-.744-.2-.509.039-.744-.117a1.775,1.775,0,0,0-.822-.392c-.274,0-.352-.118-.587-.352a2.688,2.688,0,0,0-.783-.431l-.078.94a3.085,3.085,0,0,0,.822.274c.352.039.313.627-.078.744a1.184,1.184,0,0,1-.979-.157,1.944,1.944,0,0,0-.744-.274c-.157,0-.979.039-.979.039s-.431.157-.744.274a.659.659,0,0,0-.353.666.316.316,0,0,1-.274.352c-.157,0-.783-.118-.783-.118a3.414,3.414,0,0,0-.627-.548,1.417,1.417,0,0,0-.9,0c-.235.039-.509.509-.509.509a1.346,1.346,0,0,0,.157.509.325.325,0,0,1-.078.47c-.157.118-.392.078-.822-.117a4.726,4.726,0,0,1-.744-.313c-.313-.2-.47.117-.7.078a2.338,2.338,0,0,0-.862.078c-.352.078-.352-.2-.352-.392v-.979s.431-.2.431-.548v-.822l-.117-.7-.274-.392a.654.654,0,0,1-.117-.353c0-.2,0-.313-.274-.392s-.47-.548-.548-.7-.274-.509-.078-.666.352-.313.313-.548-.235-.431-.078-.627.2-.509.039-.627a1.4,1.4,0,0,1-.431-.862,3.565,3.565,0,0,1,.117-.47l-.548-.7a1.214,1.214,0,0,0-.587-.235c-.274,0-.822-.039-.9-.2a.833.833,0,0,0-.353-.274h-.587c-.2,0-.862.039-.627.392s.431.7.078.862a5.189,5.189,0,0,1-1.488.2c-.274,0-.783.039-.783.039a1.584,1.584,0,0,1-.392-.313c-.117-.157-.509-.392.117-.587s.666-.2.822-.313.548-.2.313-.509-.587-1.018-.352-1.214a1.761,1.761,0,0,0,.392-.548,2.854,2.854,0,0,0-.392-1.175.687.687,0,0,1-.157-.9,3.54,3.54,0,0,0,.313-1.057l-.431-.666a5.979,5.979,0,0,0-2.213-1.136,13.027,13.027,0,0,0-1.39-.078,3.515,3.515,0,0,1-.666,0l.431-1.527s.2-2.7.2-2.937a1.665,1.665,0,0,0-.157-.959,3.242,3.242,0,0,0-.587-.49.679.679,0,0,1-.078-.862c.2-.353.127-.6.02-1.057a6.317,6.317,0,0,0-.294-1.136.756.756,0,0,1-.059-.646c.078-.235.352-.783.352-.783l-.059-.568s-.411-1.013-.548-1.253c-.078-.137.1-.294-.45-.294a2.664,2.664,0,0,1-.862-.059,4.01,4.01,0,0,1-.822-.333s-.313-.02-.313.137.117.685.117.842.059.352-.372.529c-.181.074-.7.352-.7.352" transform="translate(-279.856 -590.176)" fill="#5751c8" stroke="#eaecff" stroke-linejoin="round" stroke-miterlimit="3.864" stroke-width="0.5" fill-rule="evenodd"/><path d="M474.888,689.293a1.511,1.511,0,0,0,.862-.392c.235-.313.47-.431.7-.235l.235.2h.392a5.589,5.589,0,0,1,.822.117,5.438,5.438,0,0,0,.117-.666,1.239,1.239,0,0,1,.313-.587c.157-.2.274-.431.587-.509a2.568,2.568,0,0,0,.9-.587c.157-.157.078-.313.7-.274a2.341,2.341,0,0,1,.9.2.416.416,0,0,1,.313.47.74.74,0,0,0,.274.509.866.866,0,0,0,.509.157s.2-.7.431-.822.7-.2.548.2-.2.666.117.744.392.157.431.392.2.47.431.274.2-.274.431-.274.548,0,.548-.274.2-.431.627-.235a1.445,1.445,0,0,0,1.018.2c.353-.078.94-.274.94-.274l.7.313,1.332.94.431.117s-.117-.822.039-1.018a2.129,2.129,0,0,1,.509-.392,4.822,4.822,0,0,0,.862-.313,1.287,1.287,0,0,0,.313-.783c0-.235.235-.7-.039-.783s-.392.078-.548.235-.431.313-.548.039a.854.854,0,0,0-.666-.548h-.587l-1.214-.823a2.864,2.864,0,0,1-.274-.822.9.9,0,0,1,.274-.7.823.823,0,0,0,.313-.862,4.392,4.392,0,0,1,0-1.018c0-.157.235-.509.627-.157s.744.353.7-.117a1.351,1.351,0,0,0-.47-1.057,1.64,1.64,0,0,1-.627-.783c-.039-.2-.2-1.606-.2-1.606a.752.752,0,0,1-.313-.2c-.157-.157-.2-.392-.392-.157a.5.5,0,0,1-.7.078c-.2-.157-.9-.979-.9-.979s-.078-.2-.2-.431a1.021,1.021,0,0,0-.47-.548c-.313-.2-1.566-1.371-1.919-1.527s-.47-.274-.7-.078a.73.73,0,0,1-.783.235c-.353-.117-1.018-.431-1.018-.431l-.548-.431c-.157-.157-.431-.587-.666-.313a.483.483,0,0,1-.666.157.712.712,0,0,1-.313-.627,5.109,5.109,0,0,0,.039-.666s-.157-.274-.274-.47a1.351,1.351,0,0,1-.039-.666l.039-.352,1.449-.039a1.28,1.28,0,0,1,.431.313c.157.2.587.078.783.039s.627-.274.587-.431.078-.313-.2-.313h-.666a.381.381,0,0,1,.235-.548c.431-.157.666-.47.666-.627a6.441,6.441,0,0,1,.117-.7s.235-.509.627-.274.47.235.666.235.352-.078.352-.235.078-1.018.078-1.018l.274-.783s.313-.274.587-.078.352.274.548.274a2.741,2.741,0,0,0,.509-.078l.157-.313a3.914,3.914,0,0,1-.548-.392c-.157-.157-1.527-.94-1.527-.94s-1.41-1.331-1.606-1.41-.94-.548-.94-.548-.979-.274-1.175-.548a3.71,3.71,0,0,0-.7-.627l-.47-.274s.274-.783.352-.94a3.817,3.817,0,0,1,.822-.744,2.251,2.251,0,0,0,.587-.862c.078-.235.352-1.214.352-1.214" transform="translate(-328.981 -512.698)" fill="#5751c8" stroke="#eaecff" stroke-linejoin="round" stroke-miterlimit="3.864" stroke-width="0.5" fill-rule="evenodd"/><path d="M578.138,845.067a1.3,1.3,0,0,0,.744.313c.392,0,.783-.039,1.1-.039a1.146,1.146,0,0,1,.587.2s.117.352-.039.431-.274.2-.039.392.587.392.822.235.627-.274.744-.078.2.274.431.274.313.117.2-.274a4.871,4.871,0,0,0-.392-.862l.822-.822,2.35-1.1.313.587.862-.156.862.783-.039.744s.039.47.352.509.783.117.822.47a1.328,1.328,0,0,0,.235.783c.157.157.431.744.078.862s-.47.313-.352.509a.971.971,0,0,1,0,.666,2.956,2.956,0,0,1-.392,1.057c-.235.274-.392.392-.235.587s.2.431.509.431a1.563,1.563,0,0,0,.7-.274s.039-.039.313.078a1.321,1.321,0,0,1,.471.386" transform="translate(-416.057 -670.194)" fill="#5751c8" stroke="#eaecff" stroke-linejoin="round" stroke-miterlimit="3.864" stroke-width="0.5" fill-rule="evenodd"/><path d="M505.013,999.156s.49-.286.8-.09a3.024,3.024,0,0,1,.666.744s0,.431.587.431.666-.392.862-.509.548-.392.548-.392,1.371-.157,1.684-.157.47-.118.47-.313a1.008,1.008,0,0,0-.274-.627c-.157-.157-.47-.548-.47-.548a1.63,1.63,0,0,1,.94-.039,2.345,2.345,0,0,0,.979.078.766.766,0,0,0,.352.509.727.727,0,0,1,.47.548.766.766,0,0,0,.744.47,1.364,1.364,0,0,0,.7-.274l.548-.117s.587,1.371.666,1.645a.521.521,0,0,0,.744.274,1.455,1.455,0,0,1,.862-.2.426.426,0,0,0,.509-.274c.078-.2.431-.979.783-.47s.587.666.94.587.431-.274.313-.548a1.283,1.283,0,0,1-.039-1.136c.235-.313.509-.783.509-.783s.431.039.783.078a18.324,18.324,0,0,1,2,.7.928.928,0,0,1,.313.352c.117.235.274.47.509.509s.783.2.783.2l1.409.392" transform="translate(-354.387 -799.953)" fill="#5751c8" stroke="#eaecff" stroke-linejoin="round" stroke-miterlimit="3.864" stroke-width="0.5" fill-rule="evenodd"/></g></svg>