<svg xmlns="http://www.w3.org/2000/svg" width="111.225" height="110.604" viewBox="0 0 111.225 110.604"><path d="M451.953,220.182c.24-1.592-1.832-1.936-2.592-3.456-.676-1.352-2.94.848-3.456-1.728-.592-2.958.3-3.069-2.016-6.047-1.275-1.639-5.743-.568-7.487-1.44-1.7-.85-.1-3.94-2.016-4.9-1.034-.517-1.536-1.728-2.3-2.592s-.888-2.616-1.728-3.456c-.269-.269-5.925,1.274-8.639-1.44-1.168-1.169-.854-2.582-1.728-3.456-.364-.364-4.4-.471-5.183-.864-2.2-1.1-2.546-2.258-4.608-4.32-.868-.868-.645-3.157-.864-4.032a6.691,6.691,0,0,1-.288-3.744c.42-1.682.991-2.3,2.88-2.3,2.313,1.735,2.1,2.144,5.048,2.88,1.577.394,2.175,2.372,4.743,2.372a50.827,50.827,0,0,0,6.1-1.016c1.585-.317.739-3.434,2.033-4.4,1.563-1.172.794-1.694,3.727-1.694,1.886,0,1.383-.226,1.016-1.694,1.065,0,1.645,1.694,2.71,1.694,1.959,0,1.36-2.053,1.694-3.388.33-1.32,1.637-.522,2.372-.339.442-1.767,2.976,2.269,4.743,2.71,1.527.382,2.579-1.9,3.388-2.71,1.164-1.164,1.077-3.631,1.355-4.743.4-1.609,2.778-1.965,4.4-2.372a26.13,26.13,0,0,0,2.71-3.727c.486-1.946-1.657-2.673-2.71-3.727-1.008-1.008-.678-2.73-.678-4.4a19.259,19.259,0,0,1,.678-5.082c.214-.856,2.286-2.286,2.71-2.71.552-.552,4.175.732,4.743,1.016a9.4,9.4,0,0,1,3.049,2.372c.611.611.707.353,1.355.678,1.213,1.213,4.222,1.355,5.759,1.355,2.2,0,3.264.155,3.727-1.694,2.325,0,3.807,1.5,5.759,1.016.493-.123,2.893-1.74,4.065-2.033.775-.194-1.616,3.414-1.694,3.727-.641,2.564.478-.555-.339,2.71-.414,1.657,2.39,2.07,3.049,3.388.93,1.86.146,2.792,1.355,4.4.727.969,1.053,3.875,1.355,5.082.5,2.017.191,3.578,1.355,4.743.9.9-.45,2.111,1.016,4.065,2.442,3.256,5.779,2.028,8.47,1.355,1.688-.422,3.5,2.136,3.727,3.049.173.693,3.056,2.04,3.727,2.71,1.548,1.548,3.256-1.542,4.066,1.694.508,2.032-.476,3.232-1.355,4.4-.185.247.813.542-.678,2.033a13.25,13.25,0,0,1-3.049,2.71c-1.5.749-1.355,2.7-1.355,4.4,0,2.3,1.016,2.452,1.016,4.743v5.759a9.238,9.238,0,0,0,1.016,4.4c1.084,2.167,1.694,2.207,1.694,4.743,0,.226-.452,0-.678,0l.339,1.694c.39,1.949,2.282,2.033,4.065,2.033,1.292,0,3.389.681,3.727,2.033a7.839,7.839,0,0,1-.678,4.743c-.728-.546.445,2.372,1.355,2.372,1.387,0,1.355,2.605,1.355,4.065,0,2.069.339,3.8.339,5.759a29.505,29.505,0,0,1-.339,6.776,4.21,4.21,0,0,0,0,1.016c-.452,1.808-3.471.672-4.065,3.049-.758,3.031-.311,1.68-3.049,3.049a4.246,4.246,0,0,1-4.743-.678c-1.351-1.351-1.467-2.822-2.71-4.065-1.142-1.142-.572-2.922,0-4.065,1.357-2.715-2.073-.637-2.71,0-.432.432-4.3.456-4.743.678-2.224,1.112-2.744,1.322-4.065,0-.84-.84.358-4.443.678-5.082a5.681,5.681,0,0,1,1.355-.678c-.527,1.055.163-3.388-1.016-3.388a5.634,5.634,0,0,0-4.4,2.033c-1.516,1.516-1.528,1.706-2.033,3.727-.975,3.9-3.045-2.694-3.049-2.71-.4-1.584-2.033-1.929-2.033-4.4,0-1.3-1.751-1.808-2.371-3.049-.812-1.623-.436-1.791-2.033-3.388-1.764-1.764-2.095-1.447-2.71,1.016-.12.48-4.866.624-5.082.678-1.034.258-1.217,1.757-1.694,2.71-.071.143-.226-.226-.339-.339-.687,1.374-2.914-.983-4.4-1.355-.908-.227-4.4-1.827-5.759-2.372-1.68-.672-2.414-2.457-3.049-3.727-.963-1.926-3.049-1.2-3.049-3.388a18.6,18.6,0,0,0-.678-3.049" transform="translate(-408.672 -143.678)" fill="#5751c8" stroke="#eaecff" stroke-width="0.5" fill-rule="evenodd"/></svg>