<svg xmlns="http://www.w3.org/2000/svg" width="155.853" height="110.495" viewBox="0 0 155.853 110.495"><g transform="translate(392.576 422.251)"><path d="M-236.235-370.883c-.77.085-.492-.707-.7-1.152a1.889,1.889,0,0,0-1.28-1.021,1.365,1.365,0,0,1-.017-.656c.226.04.539-.094.769-.054.048-1.315.525-1.741.863-2.92.238-.838.341-1.78-.836-1.691-.044-.516-.028-1.059-.076-1.575-.15.035-.388-.052-.542-.017a12.168,12.168,0,0,1-.038-1.584c1.13.476,2.653-.3,1.44-1.5-.243-.239-.672-.006-.913-.277a6.149,6.149,0,0,0-.151-.783,1.789,1.789,0,0,0-1.605-.4c-.671,1.061-3.348.587-4.592.7-.066.577.174,1.083.126,1.69-.716.21-.589-.854-1.481-.651-.036-.364-.029-.752-.065-1.116-.366-.019-.75.012-1.116-.007-.057-.633-.03-1.291-.087-1.923-.673-.023-1.365.044-2.038.02-.017-.327-.039-.675-.059-1-.873-.03-2.588.626-3.241-.2-.572-.72-.218-1.865-.3-2.7-.974-.18-2.722.63-3.15-.764-.295-.959-1.521-.376-2.259-.4-.13-.829.761-1.968-.087-2.639-.474-.376-1.417-.088-1.951-.039.321.868-.388,1.275-.206,2.046-.693.109-.951-.271-1.364-.658.012-.236-.15-.424-.172-.651-.886-.209-1.292.52-1.566,1.077a1.823,1.823,0,0,1-.156-.8,1.077,1.077,0,0,0-1.027.24c1.144,1.395-1.156,2.189-.393,3.679-.84.079-4.4.593-4.474-.194-.993-.024-1.308,1.191-2.333.951a4.908,4.908,0,0,0,.584-2.532c.006-.481-.118-1.061.323-1.4a.8.8,0,0,0,.415-.557,9.27,9.27,0,0,0-1.238.03,1.788,1.788,0,0,1-.107.925,2.789,2.789,0,0,1-.15-.687,3.61,3.61,0,0,0-1.662.163.81.81,0,0,0,.528.677,2.379,2.379,0,0,0,.009.31c-.5-.022-1.569.3-1.9-.229-.293-.458-.241-.927-.966-.7a1.18,1.18,0,0,1-.21.667c-.24-.506-.891-.375-1.277-.047.315.688.744,2.628-.631,2.282-.042-.547.221-1.5-.519-1.7a.9.9,0,0,0-1.14,1.051,3.935,3.935,0,0,1-1.463.149.823.823,0,0,1,.755-.706c.223-.271.1-.2.45-.359a1.927,1.927,0,0,0,.225-.575c-.109-.036-.2-.086-.323-.118-.353-1.215,1.736-1.117,1.394-2.647-.613-.193-1.345-1.094-1.9-1.476-.629-.437-.66-1.085-.724-1.8-.5-.029-2.3.6-2.273,1.183a4.562,4.562,0,0,0-1.936-.144c.7,1.038-1.235,2.518-2.146,1.971-1.195-.718-.861,2.042-.874,2.447a27.021,27.021,0,0,1-4.221.228c-.353-1.015-1.549-1.425-1.3.034-.586.055-1.4-.248-1.942.067-.642.372-.019.955-.091,1.487-2.736-.292,1.1-3.492.927-4.253-1.056-.038-1.9.362-1.874-.987-.757.154-1.066-.552-1.8-.555.116.574,1.405,2.759.513,2.9.032.275-.047.607-.012.885-.865.311-1.351-.009-2.152-.191-.7-.16-1.064.4-1.725.408.016-.156-.072-.38-.049-.536-.865-.134-.07-1.012-.619-1.363-.4-.256-1.069.294-1.447.376a.675.675,0,0,1-.788.677,1.708,1.708,0,0,1-.016-.77c.783-.428.787-1.022.718-1.865a1.848,1.848,0,0,0-1,.146,4.964,4.964,0,0,1-.124,1.122c-.2-.121-.522-.3-.781-.446-.272-1.5.877-1.673,1.991-1.777-.06-.753-.988-1.43-.66-2.211.211-.5.72-.86.321-1.44-.861.4-1.206,1.3-2.114,1.33-.01.408.019.828,0,1.233-.28-.016-.605.08-.885.06-.062,1.316-.227,1.325-1.579,1.275-.137-1.371-.674-1.62-1.982-.946-.375.863-.788,1.72-1.8,1.773-.2.853,1.263.438,1.742.707,1.1.623.537,2.169,1.013,3.1,1.612-.4.767,3.2,1.24,4.019s1.442.114,1.756,1.11c.413,1.309-.334,3.089-.209,4.482.969.146,1.8-.571,2.6-.5,0,.56.558.655.747,1.108a3.416,3.416,0,0,1,.01,1.371c-.457-.038-.759.244-.635.707.9.261,1.189.871,1.737,1.471-.726.4-.753,1.211-.758,1.957-1.043.338-1.723,1.355-2.687,1.689.018-.975-1.063-1.091-1.753-.844.046.229-.064.549-.014.775-1.51-.1-1-2.01-1.886-2.61-.657-.446-1.77.079-2.02-.951a2.492,2.492,0,0,0-.968,2.3,5.909,5.909,0,0,1-1.351-.081c-.145-1.129.772-3.333-.937-3.693-.825-.174-1.453-.059-1.38-1.165,2.368-.677-1.267-5.444-1.211-6.539.689.137,1.54-.72,1.994-1.124.944-.841.74-1.725.783-2.867.949.106.538-1.293,1.664-1.117.069-.591-.363-1.017-.506-1.566-1.315.2-1.211-1.626-1.2-2.456a4.157,4.157,0,0,1,.029-1.549c.292-.675,1.136-.073,1.641-.3.028-.851-.444-2.1.761-2.306,1.038-.172,2.458.379,3.39-.247.476-.319.655-.77,1.322-.74.5.022.975.077,1.283-.42.432-.7-.764-1.366-.769-2.057.1-.012.2-.024.308-.04-.084-.552-.159-2.054.769-1.288.07-.829.739-1.673.894-2.524.962-.5.716-2.307,1.614-2.845a4.791,4.791,0,0,1,.111-1.692c.843-.079.139-1.489,1.533-1.576-.1-1.2.378-2.587-.171-3.719-.467-.964-1.307-1.538-1.316-2.7,0-.936.005-1.476-.991-1.682-.543-.113-1.42-.216-1.332-.977-1.046-.705-1.479-1.208-2.874-1.083.017.124-.039.3-.022.426a14.849,14.849,0,0,1-2.736.168c-.886-.088-1.676-.575-2.566-.664-.807-.082-1.569.417-2.382.28a2.1,2.1,0,0,0-1.558,1.3c-.049.124-.437,1.526-.423,1.525-1.934.433-5.756-.669-5.984,2.4-.744.329-1.65.194-2.25.83a9.606,9.606,0,0,1-.916,1.06,6.634,6.634,0,0,1-3.263,1.277c-.5,1.18-2.549,1.381-3.554,1.917a3.67,3.67,0,0,0-1.271,1.5c-.565.852-1.522.867-2.419,1.094-1.778.449-2.979,2.374-3.792,3.878a4.324,4.324,0,0,1-3.724,2.026c-.8.594-.012,2.592-1.5,2.456a32.382,32.382,0,0,1,1.747,5.081c.259,1.2.979,1.586,2.082,1.94a12.627,12.627,0,0,0,6.031.472c.64-.148,1-.633,1.7-.507.5.091.869.48,1.383.567.394-1.423.483-2.081,2.2-2.074.072.781-.3,2.261.927,2.049a39.662,39.662,0,0,1,.1,4.1,8.931,8.931,0,0,0-1.839.393c.051-.341-.129-.76-.041-1.117-1.016.468-1.825,1.25-2.966,1.423-1.4.215-2.825-.014-4.237.112a5.028,5.028,0,0,0,.016,1.882c.229.631.881.769.992,1.517.175,1.169-1.35,1.045-2.1,1.126.575,1.435,1.285,1.643,2.74,1.874a1.973,1.973,0,0,1,1.851,2.194c0,.9-.344,2.765-1.653,2.426-.95-.247-1.312-1.251-2.452-.974.518,1.282.044,5.833,1.5,6.179.048,1.12-1.857.982-1.841,2.066-.815.153-1.157-.582-1.074-1.3-.8.17-1.261-.338-2.029-.343-.026-.493-.037-1.028-.107-1.515-.029.043-.1.216-.156.309-.487.036-1.009.067-1.5.1.063.28-.1.714-.027.993a34.461,34.461,0,0,0-3.788-.575c-1.244-.273-2.514-.843-3.792-.392a6.089,6.089,0,0,1-1.1,3.316c-.48.7-1.356.61-2.07.92.076.718.617,1.2.518,2a1.051,1.051,0,0,0-1.2.723c-1.107.1-2.389-.3-3.4-.029-.3.665-.042,1.5-.308,2.082-1.364-.858-1.189-1.786-3.144-1.7-.166-.731-.5-4.144,1.084-3.367a3.142,3.142,0,0,0,2.549.4c1.147-.26,1.753-.976,2.77-1.361-.163-.682-1.262-.487-1.536-1.378-.232-.748.269-1.5.3-2.244.052-1.247-.816-.662-.974-1.366-.166-.738.153-1.936.964-2.182,1.925,1.893,1.937-1.162,1.813-2.272a4.316,4.316,0,0,1-1.643-.208c-.094-1-.045-2.046-.136-3.051a3.593,3.593,0,0,0-2.8.81c-.644.455-2.15,1.761-1.842,0a48.083,48.083,0,0,1-5.187-.336c-1.36-.2-.913-1.773.293-1.833.041-.859-.331-2.235.982-2.1a20.85,20.85,0,0,0-.068-2.539c-1.046-.042-2.833-.37-3.459.769-.478.868.1,1.912-.993,2.481a2.244,2.244,0,0,1-2.545-.257c-.5-.582-.532-1.485-1.376-1.738-1.308,2.318,2.216,3.7,2.338,5.768-.77.22-1.1-.55-1.557-.983s-.986.183-.91-.8c-1.966-.312-.5,1.443-.438,2.355.05.685-1.222.734-1.482,1.29a4.193,4.193,0,0,0,.049,2.057c.685,0,1.614.233,1.884.851-.871.457-.229,1.356-.446,2.079-.194.639-.825,1.007-1.158,1.557,1.014.033,2.056-.066,3.071-.03a7.024,7.024,0,0,0,.613,2.894,1.9,1.9,0,0,1,.221,2.124c-.47.757-1.019,1.2-1.075,2.16a19.462,19.462,0,0,0,.2,2.318c.091,1.4-.017,2.955-1.31,3.8-1.552,1.011-3.575,1.376-5.27,2.1-.02,1.124.6,1.406-.3,2.362.6.207,3.841.994,2.928,2.113-1.129,1.386-3.609.732-4.549,2.436-.367-.109-1.563-.512-1.738-.051-.1.271-.082.2-.354.146l-.369-.074c-.016.49-.016,1.016-.031,1.315-.045.918.057,2.2,1.163,2.42,1,.2,1.738-.215,1.744,1.149a4.452,4.452,0,0,1-1.383,2.912c-.971,1.118-1.445.884-2.932,1.031a3.747,3.747,0,0,1-.956,1.67c-.862.771-1.813.161-2.8.385-.43,2.9,4.3.386,4.089,3.431-.281.025-5.934.332-4.575,1.888a19.87,19.87,0,0,1,1.679,2.534c.33.508-.569,1.63-.45,2.446a2.781,2.781,0,0,0,.832,1.553,4.8,4.8,0,0,0,1.656.63c1.84.546,1.454-1.754,2.809-1.721.072,0,2.2,1.671,2.18,1.582.359,1.716.155,3.488,1.622,4.787,1.343,1.187,3.543-.213,5.111-.133,2.044.1,2.69.657,3.6,2.344.816,1.5,1.315,2.353,3.093,2.18.8-.076,1.448.484,2.265.247a3.136,3.136,0,0,1,2.427-.086c1.8.739,4.162-.225,6.067-.287.928-.031,1.531-.229,2.048.635.268.449,1.243.332,1.719.532.983.418,1.33,3.3,1.026,4.192-.065.014-.129.031-.194.045.085,1.16,2.4.662,3.083.6.61-.056,1.225.105,1.834.025.807-.1.371-1.077.355-1.573a8.9,8.9,0,0,0,2.052-.073c.559-.185.812-.875,1.46-.864.221-.913-.2-1.15-1.013-1.329.394-.7.815-1.663,1.741-1.684.049-.573.43-.658.871-.868.769-.369.664-1.334.466-2.011.8-.108,1.119-.459,1.007-1.3,1.343-.139,2.054-.9,3.287-1.223.588-.155,2.277-.51,2.234.56.359-.388,1.253-.207,1.794-.26.763-1.477,1.605-2.23,3.448-1.97,1.874.265,2.24,2.989,3.306,4.2a1.555,1.555,0,0,0-.9.645,2.423,2.423,0,0,1-.247-.778c-.552.45-1.7.1-2.409.157.316.781.746,2.936,1.664,3.036-.056-.474.592-1.921,1.181-1.06.69,1.011.928.49,1.954.685,2.786.524,4.763-1.12,7.417-1.28.134-1.265,1.194-2.588,2.572-1.994.511.222,1.133.656,1.7.288.466-.311.319-1.205,1.078-1.058a6.437,6.437,0,0,0,.116,1.815c.391,1.026,1.309.07,1.57-.473,1.086-.3,2,1.118,2.9,1.468,1.533.593,3.255-.461,4.809-.442.027-.8-.195-1.479-.146-2.266,1.076-.1,2.356.467,3.527.475-.118-.222-.01-.452-.074-.68a2.833,2.833,0,0,1,1.113-.179c.129-.494.258-2.3,1.288-1.581.879.614.665,1.516,2.043,1.465.945-.039,1.86,0,1.958,1.145.083.984,2.3.221,2.778.114a4.964,4.964,0,0,1,3.614.54,6.35,6.35,0,0,0,3.178.186,2.954,2.954,0,0,0,2.415-1.232c.165-.2.669-.65.952-.306.456.55.651.453,1.391.456.217.6,1.278.4,1.671,1.256a4.665,4.665,0,0,0,3.534,2.969c.07-.5,2.161-.85,2.474-.887,2.552-.3,1.078-4.8,1.03-6.58a1.815,1.815,0,0,0,1.988-2.485,9.324,9.324,0,0,1-.566-2.133c-.045-.982.746-.74,1.389-1.023.026-.748-.052-1.517-.026-2.265.883-.1,1.483.572,2.278.364a10.334,10.334,0,0,0-.04-1.345c-1.052-.366.252-1.9.313-2.435a3.5,3.5,0,0,0,1.356.05c.045-1.17-.1-2.365-.061-3.535a9.947,9.947,0,0,0,3.116-.415c.471-.2.647-.473,1.222-.41.492.054.975.54,1.492.406.077-1.431,2.146-1.118,2.729-2.016.424-.654.292-.807,1.032-1.267.607-.377,1.537-.564,1.543-1.446,0-.708-.2-1.244.4-1.783.517-.459,1.049-.756,1.158-1.5.092-.62,0-1.31.5-1.785.452-.435.916-.587.784-1.33,2.222-.192,4.1-.381,3.616-3.223-.209-1.236-1.855-3.976-3.336-3.847a1.839,1.839,0,0,0-1.329-1.433c-.452,1.24-1.132-.113-1.853-.331-1.054-.321-1.937,1.024-2.72.412-1.771-1.386-.707-2.247.5-3.4,1.574-1.506.084-1.742-1-2.473-1.367-.923,2.558-2.9,2.4-.274,1.008.182,8.132-1.242,7.966.6.728.024,2.511-.854,2.657.161.623.05,1.278-.26,1.891-.054.565.192.451,1.241,1,.956.53-.276.088-1.335.639-1.682.283-.177.87.169,1.27-.011.518-.238.338-.978.4-1.417.132-.84,1-.636,1.6-.764.759-.164.513-.994.923-1.455" transform="translate(-1 1.539)" fill="#5751c8" stroke="#eaecff" stroke-linejoin="round" stroke-width="0.5"/><g transform="translate(-392.052 -421.967)"><path d="M-330.727,127.507c-1.572.172-3.162-1.779-4.854-1.867-.284-1.277,1.781-1.506,1.615-2.89-.277.046-.45-.111-.659-.145.165-.475-.016-1.018.285-1.456.342-.5.686-.257,1.141-.5.73-.391,1.086-1.746-.029-1.871,0-.007,0-.01,0-.017-1.806.312-5.605-2.135-6.945.032-.489.793-2.91,0-3.787.489-.579.327-.7.773-1.475.564a9.367,9.367,0,0,0-2.292-.222c-.017-.2-.042-.405-.073-.611-1.224.69-2.535-.061-3.1,1.652a15.7,15.7,0,0,0,2.028,1.559c.381,1.818.322,5.352,3.079,5.256,1.911-.069,4.82-1.607,6.464.245,1.047,1.179,1.307,4.043,3.4,3.74.947-.136,1.848.439,2.754.18a4.178,4.178,0,0,1,2.961.114c-.112-1.414-.383-2.83-.512-4.25" transform="translate(357.564 -27.487)" fill="none" stroke="#eaecff" stroke-width="0.5"/><path d="M-229.287,20.294c.528-.048,1.6-.025,1.8-.671.3-.966-1.083-1.47-1.652-1.886-1.092-.8-1.533-2.114-2.488-3.041-.642-.623-2.254-1.153-2.146-2.251a10.363,10.363,0,0,0-2.418.185,6.409,6.409,0,0,1-2.047.494,5.052,5.052,0,0,0-.209-1.813,5.086,5.086,0,0,0-2.707,1.572c-.606.667-.124,1.706-.771,2.438,2.759.208,1.77,4.077,4.438,4.107,1.365.015,1.13.735.268,1.624a5.965,5.965,0,0,0-1.9,3.181c.861-.138,1.234.547,1.973.781a5.284,5.284,0,0,0,3.127-.4,9.012,9.012,0,0,0,2.118-.785c.991-.681.12-1.989.673-2.868a1.963,1.963,0,0,0,1.93.282c0-.318-.006-.639.009-.947" transform="translate(266.844 61.236)" fill="none" stroke="#eaecff" stroke-width="0.5"/><path d="M-82.89,71.244c-.069-.4-.013-.846-.051-1.245-1.46,0,.109-2.117-1.629-1.839-.135-.739-.631-1.387-.53-2.17a3.935,3.935,0,0,0-1.179-.228.067.067,0,0,1,0,.024c-1.317-.031-.979,1.817-2.6,1.7-1.528-.107-3.1,1.327-3.92,2.479.245.274.185.515.244,1.165.759.026,1.873-.071,1.9.971.039,1.4-.378,2.635-.066,4.067.444,2.032,4.115.192,4.336,1.714a2.335,2.335,0,0,1,1.475.814,5.673,5.673,0,0,1,2.138-.219,4.079,4.079,0,0,0,2.332-1.369c.062-.065,1.073-1.272.809-1.328-.8-.165-.507-1.138-.558-1.712a8.146,8.146,0,0,0-1.466-.11c-.04-.444-.079-.853-.079-1.236a3.528,3.528,0,0,1-.531-.014c-.124-.532-.521-.881-.625-1.47" transform="translate(142.701 15.905)" fill="none" stroke="#eaecff" stroke-width="0.5"/><path d="M-123.489-42.054c.915.1,1.573.84,2.536.755,1.385-.121,2.513-1.071,3.914-1.228,1.356-.151,2.1-.031,2.512,1.344.092.316.119,1.752.443,1.874a4.7,4.7,0,0,0,1.587.456,2.8,2.8,0,0,1,.624,1.653,3.935,3.935,0,0,1,1.179.228c.056-.445,2.47-1.491,2.949-1.564,1.473-.226,3.533-.012,4.844-.765.983-.563,1.445-1.941,2.323-2.4.942-.5,2.694-.248,3.745-.234-.092-1.236-1.216-2.642-2.524-1.564a2.814,2.814,0,0,1-1.7.8c-.739.094-1.073.626-1.619,1.049-1.7,1.319-5.226-2.2-4.32-3.965a8.417,8.417,0,0,1-2.183.076c-.258-1.044-1.126-1.841-1.376-2.92a4.46,4.46,0,0,1,.349-3.594,3.356,3.356,0,0,0,.259-3.009c-.247-.9-1.571-1.984-1.392-2.846-.127.01-.251.013-.361.019-.161.534-.726.6-1.1.908-.644.528-.1,1.422-.348,2.095a6.9,6.9,0,0,0-1.07.281c.088.037.176.074.261.111-.623.344-.362,1.5-.392,2.173a1.571,1.571,0,0,0-.778,1.06c-1.613.174.287,4.894-1.928,4.8-.987-.042-.6-1.578-1.288-1.968-.82-.465-1.668,1.818-2.229.11-1.453-.259-1.63,2.345-2.469,1.384a15.045,15.045,0,0,0-.443,4.884" transform="translate(168.293 118.864)" fill="none" stroke="#eaecff" stroke-width="0.5"/><path d="M-329.084-68.88a18.939,18.939,0,0,0,3.213-.21c.791-.079.691,1.024,1.449,1.161.654-.331,1.6.241,2.2.461a2.506,2.506,0,0,0,1.957-.189.385.385,0,0,0-.384-.291c-.229-1.021.752-1.432.967-2.317.236-.959-.531-1.2-1.172-1.656-1.413-1.007-1.684-3.937.342-4.382,1-.222,4.926.74,4.517-.945-.519-2.153,2.016-2.469,3.641-2.817a5.825,5.825,0,0,1,.118-1.63c-.905-.647-1.06-1.3-2.007-1.5a1.113,1.113,0,0,1-.163-.026,4.18,4.18,0,0,0-.763-.033c-.009-.034-.015-.082-.024-.133a9.95,9.95,0,0,0-2.029.455,5.047,5.047,0,0,1-2.546.838c-1.993.084-3.856,1.207-5.87,1.479-.007,3.67-3.9,3.974-6.605,5.128-.02,1.127.608,1.409-.3,2.362,1.687.585,4.823,1.872,1.407,2.929,1.023,0,2.22.167,2.049,1.316" transform="translate(342.28 140.071)" fill="none" stroke="#eaecff" stroke-width="0.5"/><path d="M-306.382-204.813c.688-.15,1.033-.669,1.744-.3a1.5,1.5,0,0,0,1.809-.382c.339.549,1.611.444,2.134.365a3.784,3.784,0,0,0,2.081-1.691c.6-.871-.211-1.931.4-2.809a5.813,5.813,0,0,0,1.054-3.151c-.623.326-.7-.292-.608-.815-1.587-.058-3.158-.194-4.741-.294-1.489-.095-1.788-1.793-.157-1.875.038-.859-.334-2.235.982-2.1a20.85,20.85,0,0,0-.068-2.539c-.963-.039-2.243-.28-3.081.348-.908.68-.213,1.911-1.018,2.655a2.377,2.377,0,0,1-2.6.247c-.794-.494-.7-1.7-1.675-1.992-1.308,2.318,2.215,3.7,2.338,5.768-.77.217-1.1-.55-1.557-.983s-.986.183-.91-.8c-1.782-.283-.742,1.224-.484,2.126.219.766-.749.886-1.205,1.248-.635.507-.24,1.661-.181,2.331.686,0,1.614.233,1.884.851-.694.361-.427.993-.4,1.607.048.91-.787,1.34-1.206,2.033,1.014.033,2.056-.066,3.071-.03.051.574.086,1.056.173,1.532.183-1.9.789-1.036,2.223-1.346" transform="translate(325.434 254.203)" fill="none" stroke="#eaecff" stroke-width="0.5"/><path d="M-212.1-116.652c2.234-.48,2.551,2.744,4.626,2.9.934.072,1.883-.157,2.811-.061.824.085,1.089.99,1.445,1.607,0-.01,0-.021,0-.028l.035.081a4.571,4.571,0,0,1,.545,1.2c.519.764.876,1.664-.051,2.255-.607.388-1.016.786-.466,1.434,1.776-.615,7.016-.589,6.373,2.527.839.961,1.016-1.639,2.469-1.384.5,1.518,1.208-.153,1.964-.172.877-.022.63,1.58,1.263,1.948,1.975,1.151,1.075-4.6,2.222-4.722a1.571,1.571,0,0,1,.778-1.06c.03-.675-.23-1.829.392-2.173-.085-.037-.173-.074-.261-.111-.6.308-.2.895-1.079.834a18.151,18.151,0,0,0-3.4-.347c-1.257.125-1.618-.575-2.707-.864-.786-.208-1.884.531-2.753.5a7.559,7.559,0,0,0-.29-1.916c-.306-.844-1.092-1.128-1.45-1.845-.4-.8.616-3.028-.721-3.168-.689-.074-.764-.841-.767-1.366a2.521,2.521,0,0,0-1.164-2.105c-.7-.609-.635-1.145-.247-1.946a3.2,3.2,0,0,0,.2-2.626,3.493,3.493,0,0,0-1.883.085,6.089,6.089,0,0,1-1.1,3.316c-.48.7-1.353.61-2.07.92.076.718.617,1.2.518,2a1.058,1.058,0,0,0-1.2.723c-1.107.1-2.389-.3-3.4-.029-.3.665-.042,1.5-.308,2.082-.075-.048-.143-.093-.207-.141a6.039,6.039,0,0,0-.117,1.637" transform="translate(242.034 176.659)" fill="none" stroke="#eaecff" stroke-width="0.5"/><path d="M62.086-346.275c-1.529-1.171-1.95,1.1-2.923,1.66.745,1.329-.414,1.96-1.2,2.806l.211-.7c-1.7,1.809-2.468,4.175-4.741,5.472a3.776,3.776,0,0,0,2.6,1.4,3.173,3.173,0,0,0,.951,1.588c-.257-2.861,3.137-.6,4.431-2,.681-.737,1.853-.121,2.358-.942.432-.7-.764-1.366-.769-2.057.106-.016.205-.025.308-.04a2.9,2.9,0,0,1,.051-1.267c-.775-.913-1.393-1.416-1.419-2.7-.018-1.074.245-2.152.138-3.224" transform="translate(20.96 359.198)" fill="none" stroke="#eaecff" stroke-width="0.5"/><path d="M-68.568-405.794a2.291,2.291,0,0,1,3.263-.44c.486.4,1.073,1.16,1.8.946.658-.2,1.412-.724,1.486.5.979-1.3,1.562-1.143,1.629-2.9a6.57,6.57,0,0,0,1.74-.178c.757-.285,1.221-1.09,1.912-1.5,1.226-.731,3.267-.624,4.643-.648.111-.32.177-.638.576-.707.1-2.721.394-4.371,2.914-5.639a2.59,2.59,0,0,0,1.739-1.984c.2-1.144,1.044-1.758,1.493-2.79a11.632,11.632,0,0,1-2.314-.587c-1.036-.246-2.013.42-3.018.169a2.573,2.573,0,0,0-1.708,1.969c-.338,1.047-.414.979-1.615,1-1.789.028-4.383-.109-4.561,2.277-1.249.553-1.915.463-2.832,1.558a5.722,5.722,0,0,1-3.594,1.608c-.5,1.18-2.549,1.381-3.554,1.917a3.646,3.646,0,0,0-1.271,1.5,3.025,3.025,0,0,1-2.2,1.048c.407,1.516,1.777,4.854,3.478,2.889" transform="translate(125.421 421.784)" fill="none" stroke="#eaecff" stroke-width="0.5"/><path d="M-64.226-293.68c.474.708-.093,1.808.66,1.786,1.042-.03,1.071.472,2.084.543,1.57.115,4.424-.42,5.195-1.345.45-.542,1.541-.1,1.9.322.554.641.358,1.45.34,2.214-.055,2.1,3.076.464,4.093.362-.22-.583-.854-1.044-.817-1.716.685.133,1.536-.72,1.994-1.124.944-.841.74-1.725.783-2.867.949.109.538-1.293,1.663-1.117.069-.591-.363-1.014-.506-1.566-1.179.183-1.209-1.312-1.206-2.107,0-.5-.063-1.009-.044-1.5.045-1.17,1.067-.4,1.716-.7a5.828,5.828,0,0,0-.034-.772,3.173,3.173,0,0,1-.951-1.588,3.776,3.776,0,0,1-2.6-1.4,3.4,3.4,0,0,1-2.773.259,9.581,9.581,0,0,0-3.294.028c-1.35.126-1.174-2.167-2.9-1.956a3.038,3.038,0,0,0-2.149-1.708,1.866,1.866,0,0,0-1.008,1.328c-.106.009-.2.011-.306.013-.253-1.009-2.192-1.157-2.023-.018.3,2.012.01,2.031-1.777,2.639-.724.245-.7.8-.72,1.434-.03.813-.346.885-.617,1.625-.371,1-1.044.853-1.574,1.568-.621.834-.688,1.138-1.669,1.663.623-.012,1.04-.524,1.613-.565.762-.057,1.185.466,1.887.585.394-1.427.483-2.081,2.2-2.074.072.781-.295,2.261.927,2.049a39.694,39.694,0,0,1,.1,4.1,2.186,2.186,0,0,0-.542.049c-.068,1.192-.465.446.253,1.517" transform="translate(124.351 328.42)" fill="none" stroke="#eaecff" stroke-width="0.5"/><path d="M-1.06-345.037a11.387,11.387,0,0,1,1.475-2.088l-.211.7c.541-.581,1.394-.992,1.448-1.883.05-.811-.69-1.339-.65-2.156-.366-.019-.75.012-1.116,0,.026-.3-.14-.5-.164-.765a15.571,15.571,0,0,0-2.152.134c-.282-1.7-4.728-.851-5.805-.763a3.916,3.916,0,0,0-2.6,1.066,3.74,3.74,0,0,1-2.854,1.065c-.037,1,.053,1.272-.655,1.955-.531.515-1.469,1.086-1.2,1.973a2.2,2.2,0,0,1,.231.13c-1.007.492-.039.638.465.794a2.8,2.8,0,0,1,1.559,1.556c1.177-.145,1.526.663,2.047,1.53.536.894,2.207.244,3.051.251,1.44.011,2.464.686,3.862-.113a9.37,9.37,0,0,0,3.27-3.381" transform="translate(78.558 363.816)" fill="none" stroke="#eaecff" stroke-width="0.5"/><path d="M-266.9-50.827c1.271,1.315-.654,4.025,1.943,4.22.6-.685.253-1.416.583-2.159a4.506,4.506,0,0,1,2.9-1.848,5.126,5.126,0,0,1,.209,1.813,6.426,6.426,0,0,0,2.047-.494,10.364,10.364,0,0,1,2.418-.185.8.8,0,0,1,.009-.09c.539-.239,1.394-.018,1.782-.556.43-.6.127-1.776.071-2.457-.076-.922-.661-3.679,1.055-3.4.188,2.08-.057,4.374,1.765,5.688.05-1.485-.442-2.914,1.121-3.452-.551-.648-.141-1.05.466-1.434.926-.591.569-1.491.051-2.255a4.459,4.459,0,0,0-.545-1.2l.433,1.038a2.251,2.251,0,0,1-.464-1.092c-.817-1.4-1.073-1.613-2.693-1.573-1.974.052-2.732-.157-3.913-1.778-1.3-1.794-2.491-.74-4.182-.479-1.339.208-2.09.725-1.734,2.2s-1.975.881-2.848.868c-1.434-.025-2.913.08-3.139,1.8s1.017,2.317,2.041,3.262c1.1,1.017-.968,2.231-.716,3.368a.385.385,0,0,1,.384.291c.451-.2.541-.522.96-.088" transform="translate(289.877 123.16)" fill="none" stroke="#eaecff" stroke-width="0.5"/><path d="M-244.458,91.148a3.226,3.226,0,0,0-.249-2.06c-.238-.343-.734-.932-.455-1.393.39-.642,1.635-.017,2.116-.83a3.541,3.541,0,0,0,.018-3.525c-.337-.587-1.2-2,.036-2.141-.123-.9,1.123-1.434,1.382-2.211.438-1.308-1.392-.8-2.009-1-.111-1.207.364-2.386-1.209-2.037-.342-1.205,2.5-2.059,3.221-2.542-.7-.734-.143-1.6-.568-2.354a4.164,4.164,0,0,0-1.771-1.123c-.027-.244-.036-.5-.046-.744a1.98,1.98,0,0,1-1.93-.282c-.512.808.148,1.782-.391,2.584-.435.641-1.706.832-2.4,1.065a6.6,6.6,0,0,1-2.664.492c-.931-.083-1.469-1.025-2.439-.871-.16,1.159.687,2.987-.021,4a6.931,6.931,0,0,1-3.376,1.815V78c.932.1.847,1.116.327,1.645-.334.339-.676.243-1.071.4-.732.291-.456,1.219-.654,1.786.208.034.385.191.659.145.162,1.38-1.9,1.613-1.615,2.89,1.692.088,3.282,2.039,4.854,1.867.13,1.42.4,2.836.516,4.254,1.588.47,3.862-.434,5.533-.487.564-.019,1.463-.27,1.837.291.479.725.936.569,1.741.814a1.8,1.8,0,0,1,.623-.461" transform="translate(281.548 13.289)" fill="none" stroke="#eaecff" stroke-width="0.5"/><path d="M-332.49,28.33c1.257.138,1.31.291,2.4-.323s2.512.159,3.581-.288c.3-.126.267-.55.549-.7a3.928,3.928,0,0,1,1.92-.228,13.043,13.043,0,0,1,3.625.619c1.473.448,4.811-1.061,4.647-2.873a8.71,8.71,0,0,1-.054-3.469,8.523,8.523,0,0,1,2.082-2.925c1.5-1.786-1.8-.925-2.387-2.314-.453-1.082-.558-1.912-1.6-2.642-1.194-.839-2.347-.029-2.542-1.909-.07-.677.085-2.185-.446-2.734-.484-.5-1.364.382-2.032.4-.946.025-2.2-1.046-3.089-.591-.916.466.178,2.022.129,2.723-1.812.458-1.568,3.6-2.067,4.78-1.182.117-1.866-.313-2.056,1.182a8.728,8.728,0,0,0,.08,1.917c.071.888-.822,1.211-.881,2.047-.065.014-.126.031-.191.045.059.674-.648.715-1.107.9-.833.33-.454,1.133-.619,1.784-.2.767-1.256.743-1.552,1.4-.391.881.165,2.3.248,3.214.438.015.919-.069,1.363-.02" transform="translate(343.694 63.788)" fill="none" stroke="#eaecff" stroke-width="0.5"/><path d="M-188.619-15.193c-1.822-1.314-1.577-3.607-1.765-5.688-1.6-.258-1.182,2.159-1.086,3.063a8.491,8.491,0,0,1,.1,2.451c-.186.915-1.28.62-1.919.906-.178,1,1.013,1.446,1.647,1.924,1.122.846,1.545,2.2,2.557,3.124.647.591,1.918.922,2.086,1.891.166.935-1.224.952-1.814,1.007a12.072,12.072,0,0,0,.047,1.69c.636.25,1.845.774,1.883,1.563.064,1.282.235,2.32,1.768,2.381,2.247.09,4.056-2.313,5.9-.448.6.611,1.184,1.434,1.86.455a9.526,9.526,0,0,1,2.323-2.8,9.995,9.995,0,0,1,1.479-.82c.63-.271,1.319.062,1.907-.211.82-.382.594-1.683,1.694-1.657a2.864,2.864,0,0,0-.622-1.678,4.668,4.668,0,0,1-1.587-.456c-.281-.106-.354-1.439-.406-1.706a1.637,1.637,0,0,0-1.983-1.554c-1.46.07-2.484.776-3.838,1.155-1.32.37-1.972-.5-3.178-.642a14.883,14.883,0,0,1,.444-4.878,2.632,2.632,0,0,0-1.74-2.586,8.521,8.521,0,0,0-4.45,0c-1.718.467-1.264,2.16-1.311,3.513" transform="translate(226.369 88.051)" fill="none" stroke="#eaecff" stroke-width="0.5"/><path d="M-284.535-166.364a17.85,17.85,0,0,1,2.862-.99c-.1-.713-.482-4.014,1.1-3.233a3.157,3.157,0,0,0,2.549.4c1.147-.26,1.753-.976,2.77-1.361-.16-.683-1.262-.483-1.536-1.378-.232-.748.273-1.5.3-2.244.055-1.247-.813-.662-.974-1.366-.166-.738.153-1.936.964-2.182,1.925,1.893,1.94-1.166,1.813-2.272a4.317,4.317,0,0,1-1.643-.208c-.094-1-.045-2.05-.136-3.051-1.791-.065-2.569.864-4.037,1.632-.14,1.078-.045,1.965-.8,2.83-.874,1,.026,2.144-.656,3.13a4.426,4.426,0,0,1-1.785,1.624c-.545.187-2.065.291-2.426-.3-.889,1.114-1.98-.124-2.991.437-1.436.794-2.576-.591-2.783,1.58.254,1.424,1.5,2.471.4,3.845-1.225,1.536-.586,3.075-.588,4.885a14.463,14.463,0,0,0,3.647-.92c1.264-.533,2.734-.278,3.933-.863" transform="translate(308.764 224.038)" fill="none" stroke="#eaecff" stroke-width="0.5"/><path d="M-156.906-124.56c.437,1.176,1.693,1.221,1.7,2.734,0,1.437,1.235.951,1.418,2.026.135.795-.337,2.236.326,2.8a4.419,4.419,0,0,1,1.484,3.471c.869.03,1.967-.711,2.753-.5a5.537,5.537,0,0,1,1.2.7,3.767,3.767,0,0,0,2.024.118,5.23,5.23,0,0,1,1.916.09,2.531,2.531,0,0,0,1.4.282c.279-.066.233-.292.315-.5.2-.5.992-.467,1.4-.595.214-.581-.168-1.242.112-1.8.293-.585,1.14-.533,1.339-1.2l.361-.019c.183-.908-.36-2.8.491-3.384-1.816-.42-.02-3.14-2.7-3.058a4.1,4.1,0,0,1-2.977-1.008c-.585-.515-.63-1.38-1.057-2.025a.857.857,0,0,0-.44.742c-.815.153-1.153-.582-1.074-1.3-.8.166-1.264-.338-2.029-.343-.026-.493-.036-1.024-.107-1.515-.025.043-.1.216-.156.309-.487.032-1.009.067-1.5.1.063.283-.1.713-.027.993a44.973,44.973,0,0,0-5.7-1.052,2.986,2.986,0,0,1,.03,2.158c-.225.5-.726,1.192-.509,1.782" transform="translate(196.11 177.914)" fill="none" stroke="#eaecff" stroke-width="0.5"/><path d="M-40.7-122.521a11.529,11.529,0,0,0,1.807.969c1.249.708-.183,1.637-.69,2.607a2.3,2.3,0,0,0,1.724,1.281c.849.228,1.183.947,1.942,1.246,1.041.408,4.064-.2,3.851,1.723a15.76,15.76,0,0,0,2.387-.07c-.612-.562-1.663-1.243-.76-2.154a5.537,5.537,0,0,1,2.619-1.35c.019-.5-.275-1.364.393-1.565.454-.138,1.22.012,1.359-.614a2.841,2.841,0,0,0-1.216-.6c-.462-1.793-.275-3.6-.521-5.4-.2-1.465-2.172.017-2.967-.038-.2-.936.854-1.447.843-2.445a4.081,4.081,0,0,1,.718-2.788,5.923,5.923,0,0,0-4.192-.907c-1.194-1.435-1.931-1.243-3.125-.516-.95-.189-.717.1-1.764-.232-.988-.314-1.231.258-2.314,1.013-.591.411-1.164,1.049-1.951.683-.463-.218-1.233-1.38-1.787-.839-1.114,1.085.046,2.648-.136,3.915a9.422,9.422,0,0,0-.291,1.812c.043.882.788,1.372,1.171,2.095,1.638.1,1.829,1.248,2.9,2.173" transform="translate(102.764 181.953)" fill="none" stroke="#eaecff" stroke-width="0.5"/><path d="M-11.74-58.806c-.231.32-.072.988-.09,1.373a5.537,5.537,0,0,0-2.619,1.35c-.9.911.149,1.592.76,2.154a16.2,16.2,0,0,1-2.387.07c.182-1.647-2.367-1.531-3.4-1.622-.893-.078-1.179-.947-1.965-1.217-.985-.335-1.626-.405-2.151-1.411a4.371,4.371,0,0,0,.116,4.119c.464.7,1.879,1.608,1.117,2.585-.219.281-.533.47-.767.742-.425.5-.233,1.132-.368,1.709-.175.738-1.363.939-1.985,1.085-.866,1.683,2.212,4.749,3.9,4.2.65-.214.954-.914,1.581-1.175.647-.265,1.264-.073,1.825-.59,1.334-1.227,2.735-.447,2.859,1.249a5.737,5.737,0,0,0,2.969-.511,4.379,4.379,0,0,1,2.283-.655c1.145.03,1.04-.455,1.762-1.07.989-.84,1.964-.248,2.924.261,1.357-.323,1.543-.983,2.22-2.068.356-.568,1.245-2.335,1.818-2.562A4.313,4.313,0,0,0-2.247-53c-.32-.384-1.52-.684-1.613-1.073-.441-1.843,1.955-2.59,1.807-4.154-.649-.025-1.406-.147-1.88.406a1.879,1.879,0,0,1-1.493.883c-1.6.049-.583-1.928-1.151-2.579-.132-.152-.754-.119-.967-.188-.539-.169-.125-.477-.532-.694-1.339-.711-1.6.5-1.576,1.4a.98.98,0,0,0-.411-.611c-.191.825-1.278.26-1.676.806" transform="translate(86.78 121.113)" fill="none" stroke="#eaecff" stroke-width="0.5"/><path d="M-51-76.1c.153.88,1.156,1.56,1.42,2.513a3.357,3.357,0,0,1-.259,3.009,4.037,4.037,0,0,0-.443,3.05c.157,1.35,1.163,2.216,1.47,3.464a8.139,8.139,0,0,0,3.162-.38c1.467-.529.547-1.528,1.374-2.494s1.385-1.444.274-2.6a4.233,4.233,0,0,1-.74-4.847c.507-.97,1.939-1.9.69-2.607a6.164,6.164,0,0,1-2.41-1.688,3.016,3.016,0,0,0-3.481-1.369,1.265,1.265,0,0,0-.969,1.55c.071.763-.211,1.694-.088,2.4" transform="translate(107.925 137.387)" fill="none" stroke="#eaecff" stroke-width="0.5"/><path d="M42.961-146.388a9.092,9.092,0,0,0-2.844,3.687c-.379.846-.122,1.672-.29,2.541-.155.8-1,1.051-.8,1.925.792.055,2.767-1.427,2.967.038.246,1.8.055,3.608.521,5.4.524.069,1.591.58,1.627,1.207-.024-1.177,0-1.527,1.354-1.439.529.034.2.47.463.625.3.178,1.083.092,1.262.3.513.592-.37,2.21.791,2.539a1.6,1.6,0,0,0,1.608-.53c.611-.764,1.183-.756,2.129-.72.147,1.564-2.248,2.315-1.807,4.154.093.386.975.467,1.267.718a4.048,4.048,0,0,1,1.257,2.563,7.233,7.233,0,0,1,4.3.051,4.405,4.405,0,0,0,1.671.731c.955.019.808-.623,1.051-1.3-.2,0-.4.007-.6,0-.2-.836.329-1.486.243-2.39-1.487-.451,1.411-2.779,2-2.972.192-.936-.565-2.244-.548-3.285a5.66,5.66,0,0,1-2.385-3.054c-.483-.016-.984.02-1.463,0-.093-1.059-.271-2.021.6-2.778,1.281-1.114.312-1.661.35-2.917a4.021,4.021,0,0,0-1.695-.395c.271-.812-.371-1.356-.4-2.142.824.092,1.027-.316,1.34-.975.44-.928.315-.752,1.456-.861.028-.782.073-1.566-.93-1.637-1.286-.095-1.577.673-2.62,1.011-.017.2-.024.405-.024.6-1.043.338-1.723,1.355-2.687,1.689.021-.975-1.059-1.092-1.752-.844.05.229-.064.549-.015.775-1.51-.1-1-2.01-1.886-2.61-.66-.446-1.773.079-2.02-.951a2.5,2.5,0,0,0-.968,2.3,5.723,5.723,0,0,1-1.351-.081c-.1-.806.221-1.635.125-2.408a6.052,6.052,0,0,1-1.289,1.425" transform="translate(32.981 193.705)" fill="none" stroke="#eaecff" stroke-width="0.5"/><path d="M-33.612,103.3c.031-1.515,1.53-2.678,2.276-3.9,1.05-1.713-.33-2.094-.768-3.615-.579-.073-1.023-.461-1.587-.456-.014-.065-.031-.126-.044-.191-2.7-.473-2.337-5.751-1.705-7.563-.98.169-1.647,1.033-2.667,1.024a3.049,3.049,0,0,0-2.242.47c-1.3,1.1-2.259,1.379-2.43-.491a28.707,28.707,0,0,0-6.178.279A2.98,2.98,0,0,1-51.6,90.884c0,.387.038.8.079,1.236a8.825,8.825,0,0,1,1.466.11c.04.426-.135.968.078,1.364.294.548.757.112.339.818a4.318,4.318,0,0,1-3.557,2.246c-1.5,0-2.169.335-2.4,1.877-.185,1.26-1.2,1.493-1,2.916a5.909,5.909,0,0,0,.671,0c.763-1.477,1.605-2.23,3.448-1.97,1.874.265,2.24,2.989,3.306,4.2a1.555,1.555,0,0,0-.9.645,2.425,2.425,0,0,1-.247-.778c-.552.45-1.7.1-2.409.157.316.782.746,2.936,1.664,3.036-.056-.474.592-1.921,1.181-1.06.69,1.011.928.49,1.954.685,2.786.524,4.763-1.12,7.417-1.28.133-1.265,1.194-2.588,2.572-1.994.511.222,1.133.656,1.7.288.466-.311.319-1.205,1.078-1.058.075.843.293,3.619,1.557,1.573-.011-.214-.015-.417-.014-.594" transform="translate(112.573 -2.258)" fill="none" stroke="#eaecff" stroke-width="0.5"/><path d="M84.728,61.26c.29-1.37,1.912-1.9,2.133-3.335a14.162,14.162,0,0,0,.3-4.317c-.411.1-.758,0-.819-.441-.862-.159-.092-3.93-.443-4.634a13.256,13.256,0,0,1-1.941.285c-.277-.818.735-1.479,1.209-1.964.8-.816.216-1.718.459-2.674a.621.621,0,0,1-.18-.015c-.331-.342-.314-.875-.652-1.206-.414-.4-1.031-.357-1.408-.842-.458-.591-2.154-.022-2.892.141-1.529.336-.387,1.288-1.134,2.091-.584.625-3.577.353-4.388.323.052-.445-.275-.652-.614-.876-2.162-.046-3.551-.07-3.316,2.5.073.8.436,2.081-.061,2.784-.459.646-2.708.3-3.408.427-.632,1.812-1,7.09,1.705,7.563.014.065.031.126.044.191.565-.005,1.008.382,1.587.456.434,1.522,1.815,1.9.768,3.615-.923,1.506-2.376,2.578-2.258,4.492.048-.079.092-.157.129-.231,1.086-.3,2,1.118,2.9,1.468,1.533.593,3.255-.461,4.809-.442.027-.8-.195-1.479-.146-2.266,1.076-.1,2.356.467,3.527.475-.118-.222-.01-.452-.074-.68a2.832,2.832,0,0,1,1.113-.179c.155-.592.051-1.727.979-1.686.984.045.875,1.588,2.2,1.574a6.835,6.835,0,0,1-.14-2.6" transform="translate(9.564 35.808)" fill="none" stroke="#eaecff" stroke-width="0.5"/><path d="M173.753,53.417c.806-.592,1.6-.557,2.032-1.634.3-.748.152-1.9.95-2.375.054-1.2,1.459-.885,1.8-1.953.139-.446.119-1.153.423-1.522.511-.625,1.537-.046,2.185-.1.039-1.032-.355-2.756.951-3.139a1.942,1.942,0,0,1,.662-1.956,2.633,2.633,0,0,0-2.009-2.382c-.32-2.623,1.5-2.463,3.351-2.625a32.982,32.982,0,0,0,.344-4.354c-1.47-.054-2.8-.081-4.247-.133a1.577,1.577,0,0,1-.676.111c.184-1.281-2.269-1.108-3.012-.892-1.113.324-2.824,2.428-3.031-.2-1.172.58-.528,2.08-1.727,2.8-.691.413-1.861,1.428-2.678,1.467-.246.956.342,1.858-.459,2.674-.477.485-1.486,1.145-1.209,1.964a12.721,12.721,0,0,0,1.941-.285c.35.7-.423,4.476.443,4.634.064.442.407.542.819.441.21.925-.224,1.839-.255,2.757a4.542,4.542,0,0,1-.412,2.516c-.463.695-1.217,1.159-1.6,1.915a4.9,4.9,0,0,0-.032,3.066c.974-.01,2-.084,2.1,1.141.081.963,2.227.243,2.7.135a2.172,2.172,0,0,1,.649-2.069" transform="translate(-73.877 45.455)" fill="none" stroke="#eaecff" stroke-width="0.5"/><path d="M225.571,83.926c-.409-.438-.309-.579-.655-1.076-.145-.21-.469-.283-.657-.449-.413.339-.992.532-1.3.984-.442.638-.038,1.512-.439,2.141-.315.493-1.412.323-1.884.334-1.08.019-1.1-1.148-1.95-1.2.032.157-.042.386-.02.543-.473.042-3.657-.185-3.826-.788a4.465,4.465,0,0,0-2.482.486c-.877.488-1.312.338-1.19-.753A1.945,1.945,0,0,0,210.5,86.1c-1.306.386-.912,2.107-.951,3.139-1.633.127-1.943-.544-2.491,1.229-.359,1.162-1.858,1.21-1.909,2.342-1,.588-.672,2.288-1.437,3.136-1.028,1.142-2.477.907-2.2,2.948a4.984,4.984,0,0,1,3.7.518,6.35,6.35,0,0,0,3.178.186,2.954,2.954,0,0,0,2.415-1.232c.165-.2.669-.65.952-.306.456.55.651.453,1.391.456.217.6,1.278.4,1.671,1.256a4.694,4.694,0,0,0,3.423,2.958c.99-1.413,3.2-.2,3.826-2.3.536-1.8-.174-3.394-.221-5.14a1.815,1.815,0,0,0,1.988-2.485,9.327,9.327,0,0,1-.566-2.133c-.045-.982.746-.74,1.389-1.023.026-.748-.052-1.517-.026-2.265.883-.1,1.483.572,2.278.364a10.332,10.332,0,0,0-.039-1.345c-.688-.24-.231-1.424.09-2.055a2.3,2.3,0,0,1-1.46-.319" transform="translate(-102.29 2.053)" fill="none" stroke="#eaecff" stroke-width="0.5"/><path d="M345.252-235.41c-.035.976.2,4.588,1.469,4.57.445.671-.1,2.13.667,2.466a6.8,6.8,0,0,1,2.281,1.949,13.389,13.389,0,0,0,1.491-1.076,24.142,24.142,0,0,1,2.545-1.063c.864-.394,1.134-.876,2.041-1.1,1.176-.3,2.533-1.153,3.855-1.022a32.826,32.826,0,0,1,4.29-1.409c.532-.038,1.952.142,2.378-.274.468-.46,1.343-.264,1.69-.814,0-.155-.218-.587-.233-.738-.366-.019-.75.012-1.116-.007-.057-.633-.03-1.291-.087-1.923-.673-.023-1.365.044-2.038.02-.021-.327-.039-.675-.059-1-.911-.032-2.056.3-2.91-.153-.928-.494-.55-1.929-.624-2.751-.988-.183-2.208.52-2.967-.422-.158-.2-.168-.648-.406-.773-.616-.32-1.4.053-2.04.034-.116-.761.506-1.516.2-2.27-.347-.842-1.561-.468-2.232-.4.321.868-.384,1.274-.206,2.046-.69.109-.951-.271-1.364-.658.012-.236-.153-.42-.172-.651-.886-.209-1.292.52-1.566,1.077a1.823,1.823,0,0,1-.156-.8,1.077,1.077,0,0,0-1.027.24c1.144,1.4-1.156,2.192-.393,3.679-.394.034-1.386.169-2.337.219-.06,1.026-.666,1.876-.664,2.972-.1.009-.2.028-.308.04" transform="translate(-221.974 273.54)" fill="none" stroke="#eaecff" stroke-width="0.5"/><path d="M-21.145,26.37c-.525-1.082.194-1.7-1.189-2.183-.86-.3-.793-1.13-.737-1.9a.013.013,0,0,0,.01,0c-.978-.519-2.4-1.266-3.169.059-.66,1.14-1.927.55-3,1A8.252,8.252,0,0,1-33,24.255a15.445,15.445,0,0,0-3.431.125c-.776.179-1.254,1.444-1.854,1.959-1.144.979-2.291.849-3.681,1.057a10.576,10.576,0,0,0-3.763,1.21c-.352.181-1.072.108-1.135.619-.1.782.4,1.43.53,2.17,1.735-.281.165,1.843,1.629,1.839a15.447,15.447,0,0,0,.683,2.708,3.042,3.042,0,0,0,3.177-2.008,28.706,28.706,0,0,1,6.178-.279c.167,1.874,1.127,1.6,2.43.491.864-.733,1.783-.277,2.766-.522,1.289-.32,1.992-1.027,3.433-1.068.416-.011,1.823.084,2.121-.332.5-.7.134-1.98.061-2.784-.235-2.572,1.158-2.548,3.316-2.5a1.539,1.539,0,0,1-.6-.566" transform="translate(104.466 52.671)" fill="none" stroke="#eaecff" stroke-width="0.5"/><path d="M98.411-3.258c-.389.791-1.044,1.5-1.482,2.282A2.51,2.51,0,0,1,95.153.164c-.116,1.537.332,1.465,1.437,2.177.677.438.2,1.3.489,1.906.278.569,1.3.692,1.219,1.446a18.29,18.29,0,0,0,4.227-.242c.678-.143.1-1.577.764-1.975.391-.231,2.929-.827,3.2-.6a4.25,4.25,0,0,0,1.283.883c.655.28.557.966,1,1.42.75.185,1.746-.862,2.369-1.185.593-.311,1.285-.651,1.408-1.387.118-.708.056-1.305.808-1.677-.056-.743.275-2.17-.3-2.759-.4-.408-1.015-.054-.849-.881-1.088-.06-2.2-.016-3.309-.061a3.835,3.835,0,0,1,.23-1.518c-.52-.059-1.046-.17-1.542-.175a1.471,1.471,0,0,0-1.37-.519c-.244.673-.1,1.314-1.051,1.3-.79-.017-1.336-.725-2.085-.875a13.211,13.211,0,0,0-3-.029c-1.1.016-1.225.423-1.67,1.328" transform="translate(-13.757 74.798)" fill="none" stroke="#eaecff" stroke-width="0.5"/><path d="M197.362-48.309c-.76.358-2.608,1.691-3.428,1.413-1.42-.482-.244-2.226-.447-3.2-.6-.021-1.214.036-1.807.012a12.69,12.69,0,0,0,.035-1.695,8.613,8.613,0,0,0-2.738.192c-.658.2-1.7.372-1.865-.628-.014.854-1.182,1.624-1.711,2.173a6.784,6.784,0,0,0-1.308,1.53c-.283.588.011,1.385-.755,1.691-1.144.454-5,1.481-4.768,3.19a3.439,3.439,0,0,1-1.077.012,3.774,3.774,0,0,0-.23,1.518c1.1.046,2.221,0,3.309.061-.173.849,1.125.756,1.126,1.893,0,.847-.314,3.4,1.234,3.107,1.02-.192,1.4-1.186,2.577-1.234.7-.03,2.421-.2,2.255.963,1.895.008.376-2.082.818-3.114.574-1.34,2.524-1.383,3.748-1.5.13-2.719,3.485-1,5.265-1.406a11.01,11.01,0,0,0-.031-1.118c-.395-.1-.712-.367-1.127-.47-.135-1.057.261-1.454,1.3-1.644-.046-.54.148-1.055.072-1.579l-.031-.009a.983.983,0,0,1-.376-.15.063.063,0,0,1-.039-.012" transform="translate(-82.115 114.121)" fill="none" stroke="#eaecff" stroke-width="0.5"/><path d="M225.367-101.037c.346.7,1.588,1.064,1.575,1.928.09.538.943,1.1,1.455.812a6.031,6.031,0,0,1,3.149-.376,12.688,12.688,0,0,1-.035,1.695c.6.024,1.214-.033,1.807-.012.2.974-.973,2.718.447,3.2.806.272,2.693-1.053,3.435-1.417a.476.476,0,0,1-.157-.5c-.15.035-.392-.055-.542-.02a5.4,5.4,0,0,1,.16-2.731c2.449.328,1.671-3.871,3.312-3.891.475,1.177,1.459,1.029,2.563.93.068-1.849-.422-3.526-.336-5.369a1.715,1.715,0,0,0,1.009-.53c-.968.261-2.105-.284-3.106-.248.227-1.577-2.309-.943-2.912-.293a3.418,3.418,0,0,1-3.858,1.111c-.184.5.006,1.948-.9,1.661-1.636-.522-1.892-1.134-3.74-.581-1.2.357-1.463.084-1.659,1.334-.165,1.062-1.04.987-1.928.726.066.94-.192,1.655.259,2.567" transform="translate(-121.946 161.018)" fill="none" stroke="#eaecff" stroke-width="0.5"/><path d="M298.759-101.849c-1.1.1-2.088.244-2.563-.93-1.642.02-.864,4.219-3.312,3.891a5.4,5.4,0,0,0-.16,2.731c.15-.035.392.055.542.02-.2,1.151,2.122.6,2.667.62.068,1.358.832,1.484,1.258,2.584,1.085.268,1.772-.286,2.794-.312a8.89,8.89,0,0,1,2.875.319c2.586.846,3.206-.385,4.114-1.477a22.149,22.149,0,0,0-.394-4.178c-.239-1.509-1.873-4.189-2.154-5.935,2.024-.413,1.388-1.034.151-1.18-.411-.421-.89-1.353-1.381-1.448-.128-.188-1.018-.492-.777-.929.185-.334-.112-.5-.542-.577-.233-.043-.016-.324-.227-.4-.246-.089-.727.224-.989.267-.51.327-.586.853-1.234,1.029a1.7,1.7,0,0,1-1.009.53c-.082,1.849.405,3.527.34,5.375" transform="translate(-178.169 161.448)" fill="none" stroke="#eaecff" stroke-width="0.5"/><path d="M221.183-222.984c-1.212.267-2.591.309-3,1.778-.209.736.06,1.531-.317,2.235a6.464,6.464,0,0,1-1.534,1.742c-.584.494-1.881.779-2.033,1.616-.208,1.161.578,2.689.042,3.76a.339.339,0,0,1-.013.211.856.856,0,0,0-.573.1,6.213,6.213,0,0,1,.622,2.738c-.011.913-1.077,2.188-.265,2.958a2.157,2.157,0,0,1,.779,1.718c.037.972.7,1.736.775,2.7.888.261,1.764.339,1.928-.726.2-1.251.458-.978,1.659-1.334,1.848-.549,2.1.062,3.74.581.9.288.714-1.157.9-1.661-.765-.336-.03-1.557.587-1.62,1.041-.11,2.624-.462,2.756-1.751.119-1.153-.991-1.814-.791-3.072.244-1.526-1.745-.769-2.4-1.892-.4-.681.134-3.089-.343-3.382-1.071-.659-.783-1.4.266-2.094.852-.559,2.606-.748,2.947-1.858.159-.513-.389-.912-.6-1.313a4.856,4.856,0,0,1-.055-2.7,1.219,1.219,0,0,1-.25-.039c-.037-.447.157-1.152-.2-1.517-.6-.632-1.638.093-1.466.871a3.649,3.649,0,0,1-1.38.152c-.608.564-.748,1.566-1.776,1.8" transform="translate(-112.504 258.832)" fill="none" stroke="#eaecff" stroke-width="0.5"/><path d="M271.445-230.073c.093.6.933,1.105.742,1.734-.233.755-1.178,1.05-1.826,1.3-.554.212-3.554,2.373-1.53,2.616.437.053.108,3.1.733,3.734.578.585,1.236.322,1.9.622s.056,1.59.3,2.168c.622,1.494,1.258,2.65-.811,3.377-.47.166-1.509.058-1.851.429-.222.24-.275,1.265.067,1.417a3.356,3.356,0,0,0,3.588-.8c.56-.682,3.442-1.873,3.178-.021.853-.031,1.659.317,2.507.321,1.068.006,1.1-.624,1.833-1.1h0c.463-.3.527-.587.921-1.146.33-.466.578-.276,1.2-.453.592-.357,1.346.283,1.712-.074.438-.427.732-1.357,1.608-1.46.69-.081,1.946-.065,1.4-1.215a3.673,3.673,0,0,0-1.975-1.5,5.956,5.956,0,0,0-1.622-1.483c-1.127-.67-.3-1.6-.985-2.633-1.273.018-1.5-3.594-1.469-4.57.1-.012.205-.028.311-.044,0-1.1.6-1.946.664-2.972-1.078.057-2.1.006-2.14-.413-.993-.024-1.308,1.191-2.333.951a4.908,4.908,0,0,0,.584-2.532,2.531,2.531,0,0,1,.1-1.159c.168-.337.59-.37.637-.8a9.256,9.256,0,0,0-1.238.03,1.8,1.8,0,0,1-.106.925,2.525,2.525,0,0,1-.15-.687,3.567,3.567,0,0,0-1.662.163.81.81,0,0,0,.528.677c0,.066,0,.252.009.31-.507-.022-1.246.21-1.714-.045-.574-.312-.22-1.177-1.155-.883a1.17,1.17,0,0,1-.21.667c-.237-.506-.891-.375-1.277-.047.3.641.686,2.376-.381,2.321a8.19,8.19,0,0,0-.081,2.271" transform="translate(-157.78 266.941)" fill="none" stroke="#eaecff" stroke-width="0.5"/><path d="M134.525-244.075c1.429-.859,2.582-.083,2.528,1.388-.422.039-1.493-.236-1.4.515a1.247,1.247,0,0,1-1.4,1.321c.027.786.672,1.329.4,2.142a4.022,4.022,0,0,1,1.695.395c.033-1.211,1.606-.965,2.284-1.63,1.029-1.007.874-1.929.977-3.237.4-.038.825-.029,1.229-.068.174-.7,1.147-1.843,1.852-.944.952,1.211.807-.118,1.684-.271.431,1.325,2.093.122,2.568,1.023a.877.877,0,0,1,.573-.1.317.317,0,0,0,.013-.211c.6-1.213-.535-2.784.037-4.027.21-.46.9-.645,1.3-.877a6.7,6.7,0,0,0,1.694-1.523c1.118-1.334.207-3.611,2.12-4.364.682-.267,1.5-.137,2.136-.513s.812-1.141,1.334-1.618c-.028,0-.055,0-.083,0a.811.811,0,0,1,.755-.706c.227-.271.1-.2.45-.359a1.84,1.84,0,0,0,.225-.575c-.109-.036-.2-.086-.323-.118-.353-1.218,1.732-1.117,1.394-2.647-.616-.192-1.345-1.094-1.9-1.476-.629-.433-.663-1.085-.724-1.8-.5-.029-2.3.6-2.273,1.183a4.515,4.515,0,0,0-1.936-.144c.792,1.182-1.074,1.977-1.942,2.05-.49.04-.755-.417-1.058.377a6.1,6.1,0,0,0-.02,1.991,27.018,27.018,0,0,1-4.221.228c-.356-1.011-1.549-1.425-1.3.034-.545.049-1.09-.095-1.637-.021-1.04.137-.317.984-.4,1.576-2.736-.292,1.1-3.492.927-4.253-1.056-.038-1.9.359-1.874-.987-.757.154-1.066-.552-1.8-.555.113.575,1.4,2.756.513,2.9.035.278-.044.607-.012.885a2.648,2.648,0,0,1-.749.157.509.509,0,0,0,.412.234c.11,1.238.153,2.328.341,3.558a6.04,6.04,0,0,1-.331,2.1,18.285,18.285,0,0,0-.019,2.717c-.755.188-.641,1.25-.643,1.861-.938-.03-1.25.722-1.906,1.216a4.271,4.271,0,0,1-2.273.658,10.609,10.609,0,0,1-.056,1.292c.172.2.339.421.536.639a1.548,1.548,0,0,0-.735,1.355c.518-.169.45-.417,1.024-.765" transform="translate(-45.696 290.727)" fill="none" stroke="#eaecff" stroke-width="0.5"/><path d="M148.39-121.509a12.562,12.562,0,0,0,2.619.163c-.329-2.457,5.184-2.213,5.4-4.388.13-1.271,1.858-2.329,2.643-3.255,1.028-1.211-.021-1.64-.846-2.54-.979-1.072-.238-2.824-.821-4.1a5.837,5.837,0,0,1-.477-1.948c-.082-.777-.659-.95-.977-1.559-.364-.7.317-1.385.43-2.044a6.889,6.889,0,0,0-.467-3.061c-.324-1.254-2.224.023-2.667-1.336-.546.094-.816,1.449-1.479.558-.745-1-1.784-.456-2.056.654-.4.038-.825.029-1.229.068-.087,1.1.1,1.968-.658,2.881-.645.78-1.85.653-2.4,1.363-.684.879.625,1.8.091,2.783-.289.533-.9.8-1.163,1.332a4.249,4.249,0,0,0-.081,2.205c.48.016.98-.02,1.464,0a5.66,5.66,0,0,0,2.385,3.054c-.018,1.041.74,2.349.548,3.285-.586.193-3.484,2.522-2,2.972.082.9-.442,1.554-.243,2.39.69.026,1.519-.131,1.984.521" transform="translate(-54.555 191.839)" fill="none" stroke="#eaecff" stroke-width="0.5"/><path d="M87.65-259.535a4.24,4.24,0,0,0,2.273-.658c.656-.494.968-1.246,1.906-1.216,0-.615-.115-1.673.643-1.861.054-1.468.223-2.786.364-4.227a9.73,9.73,0,0,0-.4-2.09c-.074-.687.1-1.37.044-2.058a.5.5,0,0,1-.412-.234,4.684,4.684,0,0,1-1.4-.345c-.7-.16-1.064.4-1.725.408.016-.156-.072-.38-.049-.536-.674-.1-.335-.667-.437-1.1-.169-.724-1.265.042-1.63.12a.673.673,0,0,1-.788.677,1.711,1.711,0,0,1-.016-.77c.787-.428.79-1.019.718-1.865a1.815,1.815,0,0,0-1,.146,4.776,4.776,0,0,1-.124,1.122c-.2-.121-.522-.3-.781-.446-.272-1.5.876-1.677,1.991-1.777-.052-.668-.684-1.149-.728-1.8-.051-.709.892-1.118.392-1.845-.861.4-1.206,1.3-2.114,1.33-.01.4.019.828,0,1.233-.28-.02-.606.077-.885.06-.062,1.316-.227,1.325-1.579,1.275-.141-1.371-.674-1.623-1.982-.946-.375.866-.788,1.72-1.8,1.773-.189.8.98.495,1.444.6,1.412.32.835,2.271,1.311,3.207,1.564-.386.848,2.965,1.131,3.779.328.933,1.379.353,1.71.954.707,1.276-.181,3.451-.054,4.878.969.146,1.8-.571,2.6-.5,0,.418.288.569.55.828.432.427.228,1.121.211,1.654-.46-.042-.759.244-.635.707a2.339,2.339,0,0,1,1.2.832,11.322,11.322,0,0,0,.049-1.309" transform="translate(0.414 303.664)" fill="none" stroke="#eaecff" stroke-width="0.5"/><path d="M-90.113-207.7a4.313,4.313,0,0,0,1.887.983c.761.136,1.851-.242,2.49.332.792.712,0,2.449,1.3,2.751a2.858,2.858,0,0,1,1.729-.322c-.681-1.3-1.364-1.708-1-3.3.314-1.371-.685-2.953.011-4.191.454-.8.931-.37,1.444.09a1.515,1.515,0,0,0,2.24-.038,4.889,4.889,0,0,1,2.663-1.151c-.176-1.19-2.138-2.187-2.5-3.306a5.817,5.817,0,0,1,.657-3.811c.6-1.31.374-3.153.316-4.54-.322.067.116-.385-2.065-.424-.384-1.151-1.24-2.233-1.181-3.411-.45.093-.87.281-1.3.344.051-.341-.129-.76-.041-1.117-1.016.468-1.825,1.25-2.966,1.423-1.4.215-2.828-.018-4.237.112a5.028,5.028,0,0,0,.016,1.882c.233.63.881.769.992,1.517.175,1.172-1.35,1.049-2.1,1.126a2.44,2.44,0,0,0,2.272,1.812c1.224.154,2.126.483,2.3,1.842.114.923-.091,2.8-1.32,2.875-1.088.067-1.525-1.3-2.763-1,.522,1.282.044,5.833,1.5,6.178.033.769-.846.946-1.4,1.328.436.634.481,1.5,1.063,2.014m12.913-4.884a2.288,2.288,0,0,0,2.278-.228,2.1,2.1,0,0,1,2.541.883c1.447.335,1.728-.026,4.066.955a14.073,14.073,0,0,1,1.69-2.251,12.294,12.294,0,0,0,1.985-2.084c-.222-1.813-2.559-.719-2.446-2.449,1.71-.487-.046-3.9-.394-4.823-1.295.133-4.279,1.81-4.073-.692a2.8,2.8,0,0,0-1.032-2.457c-1.066.07-1.472.043-1.974.836-.484.761-3.176,1.112-4.217.755a16.537,16.537,0,0,1-.457,4.565,6.034,6.034,0,0,0-.642,3.836Z" transform="translate(141.832 261.129)" fill="none" stroke="#eaecff" stroke-width="0.5"/><path d="M-154.571,102.541c.1-.72.689-.848.912-1.516.253-.763.077-1.749.925-2.191a2.335,2.335,0,0,0-1.475-.814c-.21-1.444-3.683.172-4.255-1.418a7.913,7.913,0,0,1-.055-3.867c.22-1.394-.767-1.428-1.864-1.464-.062-.65,0-.891-.244-1.165-.292.409-.973,1.941-1.642,1.793-.784-.173-1.519-1.378-2.28-1.777-.687-.358-1.85.646-2.47.9-.94.395-2.757.756-3.566-.1-.715.483-3.56,1.337-3.221,2.542,1.573-.348,1.1.83,1.209,2.037.6.2,1.977-.318,2.053.656.083,1.063-1.575,1.489-1.426,2.552-1.24.138-.377,1.554-.036,2.141.5.871-.823,2.687-1.154,3.641a60.534,60.534,0,0,0,10.446,1.124c.8-.108,1.639-.44,1.526-1.277,1.343-.139,2.054-.9,3.287-1.223.588-.155,2.277-.51,2.234.56a1.528,1.528,0,0,1,1.123-.256,3.3,3.3,0,0,1-.026-.883m-18.577,1.99c-.481.813-.6.034-.993.676-.279.46.213,1.05.455,1.393a3.225,3.225,0,0,1,.249,2.06,1.975,1.975,0,0,0-.627.451c1.148.348,1.559,3.256,1.215,4.259-.065.014-.129.031-.194.045.085,1.16,2.4.662,3.083.6.61-.056,1.225.105,1.834.025.807-.1.371-1.077.355-1.573a8.894,8.894,0,0,0,2.052-.073c.559-.185.812-.875,1.46-.864.221-.913-.2-1.15-1.013-1.329.394-.7.815-1.663,1.741-1.684.049-.573.43-.658.871-.868.586-.281.546-1.372.463-1.954a45.862,45.862,0,0,1-10.949-1.165Z" transform="translate(210.483 -4.31)" fill="none" stroke="#eaecff" stroke-width="0.5"/><path d="M307.279-19.381a3.784,3.784,0,0,0-1.758-.789c-1.744-2.265.222-3-.476-3.691-.176-.317-.421-.469-.526-.743a13.61,13.61,0,0,1-1.775-1.156,2.44,2.44,0,0,1-1.7-.607c-.8-.567-1.245,0-1.7-.019-1.163-.039-2.08.6-3.263.309-.426-1.1-1.19-1.226-1.258-2.584a13.214,13.214,0,0,1-2.105.048l.031.009c.079.521-.118,1.036-.072,1.579-1.04.189-1.436.59-1.3,1.644.419.1.732.362,1.127.47a11.01,11.01,0,0,1,.031,1.118,3.125,3.125,0,0,1-.761.061c.767.644,1.653,1.185,1.958,2.195-.415,1.014-1.209,2.169,1.129,2.546.865.611,1.976.107,2.862.662.723.453,1.156,1.3,2.132,1.18.082,1.637.374,1.608,1.887,1.563-.04,1.222-1.679,1.164-1.105,2.188.782.605.657.02.9.129.675-2.1,2.1-1.655,2.026-.226a4.6,4.6,0,0,0,1,1.371c1.042-.1.82.081,1.806-.347.471-.2.647-.473,1.222-.41.492.054.975.54,1.492.406.066-1.24,1.712-1.185,2.426-1.682.462-.325.248-.721.544-1.113.377-.5,1.286-.7,1.8-1.03-.719-1.241-.514-1.39-1.449-2.073-.828.69-3.79-.012-5.12-1.008Z" transform="translate(-177.109 94.512)" fill="none" stroke="#eaecff" stroke-width="0.5"/><path d="M353.45-132.414a3.92,3.92,0,0,0-.065-1.323c-.386-.014-1.386-.047-1.855,0,.236,1.1-.311,1.371-1.2,1.257s-1.636,1.048-1.832,1.6a8.546,8.546,0,0,0-1.3-.2c-.1.189-1.5.257-1.606.442-.4.559.26,1.1.164,1.421l.594.259c.192.319-.14.745.257.917a3.6,3.6,0,0,1,1.938,1.778c1.508.18,1.574.871-.191,1.2.691,1.594.68,1.905,1.736,4.8a4.892,4.892,0,0,1,.578,3.727c.35,1.571-1.193,2.772-.556,2.771.787,0,2.31,3.068,3.31,2.47.735.134,3.333,2.856,1.454-1.059-.4-.842-.158-.654.561-1.393.847-.871,1.439-2.1,4.036-1.128.543-.839,1.4-3.268,3.085-3.288.392-1.053-.519-1.567-1.329-1.433-.746.813-.328.3-1.1-.415-.939-.625-1.763-.169-2.569.408-.845.671-2.152-1-1.547-2.046.664-.664,2.859-2.341,1.442-3.351-.273-.68-1.592.24-1.421-1.337-.666-.162-.46-.936-1.188-.97-.113-1.113-1-1.219-.436-3.195Z" transform="translate(-222.148 182.008)" fill="none" stroke="#eaecff" stroke-width="0.5"/><path d="M441.249-185.6a13.722,13.722,0,0,0-4.293,3.908c-1.272,1.588-1.448,2.171-.761,3.225.706,1.083,2.29,2.269,3.844,1.761.091-.03,1.562.675,1.889.745.837.179-.137,2.191.266,2.824.484.113,2.173-.287,2.364.447.16.614.73-.125,1.5-.12,1.938,1.632,1.169.729,1.814.066.157-1.343.356-.75.777-.646,1.085.268,1.105-1.021,1.052-1.687.349-.5.972-.32,1.476-.43.793-.173.494-1.087.991-1.52a.326.326,0,0,1,0-.059c-.6.066-.569-.412-.623-.845a1.649,1.649,0,0,0-1.109-1.476c-.057-.166-.248-.486-.2-.651.229.04.475.053.7.093a4.277,4.277,0,0,1,.353-1.575,11.058,11.058,0,0,0,.676-1.471c.557-1.792-.707-1.651-1-1.565-.048-.519-.031-1.059-.076-1.575-.15.035-.388-.052-.542-.017a14.7,14.7,0,0,1,.1-1.734c1.13.476,3.132-.67,1.132-1.666-.367-.364-.775-.155-.751-.94s-1.18-.333-1.749-.2c-3.054.752-2.292.455-4.465.352-.07.577.047,1.428,0,2.035-.716.21.151.816-.744,1.018.116.2-2.621,1.7-2.621,1.7Z" transform="translate(-297.356 229.624)" fill="none" stroke="#eaecff" stroke-width="0.5"/><path d="M249.669-.455c-1.368.127-1.982.042-2.051,1.534-1.155.109-2.765.141-3.545,1.153-.658.853.58,2.913-.348,3.349,1.446.052,2.777.079,4.247.133a33.648,33.648,0,0,1-.344,4.354c-1.851.163-3.675,0-3.351,2.625a2.633,2.633,0,0,1,2.009,2.382c-.122,1.091.313,1.241,1.19.753a4.435,4.435,0,0,1,2.482-.486c.166.6,3.353.83,3.826.788-.022-.158.055-.39.02-.543.449.032.583.415.8.728.384.55,1.051.47,1.632.457.764-.016,1.463.051,1.556-.873.109-1.073.171-2.029,1.468-2.484.549.105.556,0,1.314,1.514,0,0,2.068.578,1.639-.019-.175-.137,1.148.442,1.366-.167.264-.738-.514-2.716-.06-3.327.3-.406,1.444.132,1.222-.19-.127-.185-.775-.469-.841-1.191-.114-1.245-.8-2.063-1.938-.255-.538.854-1.494.05-1.114-.122.894-.853.795-1.289,1.242-1.786-1.513.045-1.8.074-1.887-1.563-.975.117-1.409-.728-2.132-1.18-.887-.555-2-.047-2.862-.662-.878-.094-1.443-.071-1.567-.835-.234-1.442.491-1.535.438-1.711-.3-1.01-1.19-1.551-1.958-2.195a22.069,22.069,0,0,0-2.455-.182" transform="translate(-137.456 71.042)" fill="none" stroke="#eaecff" stroke-width="0.5"/><path d="M-345.478-2.647a.648.648,0,0,1,.244-.217c-.633-.115-.641-.93-1.11-1.144-.882-.4-2.572.27-3.551.193.171-1.149-1.027-1.321-2.049-1.32-1.135.353-2.462.592-3.032,1.62-.6-.176-1.548-.561-1.811.147a.949.949,0,0,0-.61.194c-.048.932-.31,2.293.415,3.05.707.74,2.271-.171,2.414,1.107.146,1.333-1.348,3.309-2.193,4.282l.842.553c.016,1.512.4,2.567,2.347,1.658,1.412.9,2.1-.044,2.276-.538.528-.624,1.322-.2,2-.257-.006-2.319.846-1.949,2.125-2.046.5-1.184.252-4.318,2.067-4.78.052-.659-.745-1.934-.369-2.5" transform="translate(363.045 74.926)" fill="none" stroke="#eaecff" stroke-width="0.5"/><path d="M-383.532,56.913c-.222.11-.586-.519-1.029-.657a5.1,5.1,0,0,0-1.948.12,3.748,3.748,0,0,1-.956,1.671c-.862.771-1.813.161-2.8.385-.43,2.9,4.3.386,4.089,3.431-1.172.106-2.6-.24-3.64.471-1.223.838-1.035,1.08-.214,2.095.372.457,1.485,2.244.8,2.622-1.061.588.041,2.755.616,3.281.866.169,2.416,1.145,3.129.168.366-.5.574-1.471,1.407-1.283.565-1.712,1.875-.962,3.1-1.652-.1-.741-.5-1.874-.174-2.6.3-.665,1.351-.641,1.552-1.4.137-.539-.191-1.213.345-1.632.453-.355,1.455-.235,1.381-1.05.065-.014.126-.031.191-.045.044-.666,1.4-1.543.547-2.988-.669-.288-1.325-.514-1.819.083-.664.348-.318,1.681-2.45.6-1.178.345-2.34.66-2.13-1.609Z" transform="translate(390.687 23.878)" fill="none" stroke="#eaecff" stroke-width="0.5"/><path d="M377.573-176.383l3.765-1.2,4.476-1.29,2.895-.452c.476-.251,1.126-.725,1.573-.086.25.163.521.271.428,1.3l-.466.14a14.133,14.133,0,0,1-2.628,1.733,13.484,13.484,0,0,0-3.937,3.689c-3.071,2.217-.658,5.585,2.832,5.2l1.573.682c.43.2.723.476.611.947l-.192,1.89c-.011-.217-4.37-1.065-5.855-.457a2.584,2.584,0,0,1-2.241-.011c.372-2.274-2.68-.347-2.773-.273-.694-.6-.617-.957-1.133-1.022-.609-1.513-.889-2.052-.4-3.2a9.053,9.053,0,0,1-1.015-1.868c.093-.548.114-1.264-.134-1.3-.082-.2-2.067-.012-1.674-.057a17.046,17.046,0,0,1-1.83-1.434c.624-.184,2.563-1.33,3.47-1.69.8-.316,1.65-.8,2.652-1.241Z" transform="translate(-243.788 220.276)" fill="none" stroke="#eaecff" stroke-linecap="round" stroke-linejoin="round" stroke-width="0.5"/><path d="M359.55-35.456l2.159-.7c1.251.68,2.659,3.233,3.47,2.606,3.347,2.087,1.6.259,1.6-.682-.02-.532-.9-.952.133-1.619,1.132-1.059,2.088-2.3,4.295-1.285.91-1.021.927-2.862,2.886-3.185a2.534,2.534,0,0,1,1.99.476c1.987,2.084,1.225,2.255,1.732,3.747-.006,2.2-2.181,2.231-3.527,2.612.182.852-.251.891-.857,1.136-.213.594-.683,1.132-.684,1.761,0,1.024-.879,1.707-1.613,2.433.081.917.266,1.907-.672,2.114-.372-.724-.489-1.619-1.359-2.008-.149.329-3.057.241-4.842-.944a3.321,3.321,0,0,0-1.677-.934c-1.043-.143-.977-1.7-1.014-2.4,1.055-1.335-.521-2.235-2.017-3.124Z" transform="translate(-233.88 104.263)" fill="none" stroke="#eaecff" stroke-linecap="round" stroke-linejoin="round" stroke-width="0.5"/></g></g></svg>