<svg xmlns="http://www.w3.org/2000/svg" width="162.674" height="63.853" viewBox="0 0 162.674 63.853"><g transform="translate(-52.968 -64.039)"><path d="M115.012,1272.447c.155-.589.873-1.252.27-1.89-.732-.773-2.078-.787-2.928-1.536a21.166,21.166,0,0,0-2.9-1.589c-.085-1.17.369-2.7-.921-3.374a5.757,5.757,0,0,0-1.886-.317,16.464,16.464,0,0,0-1.841-.488c-.27-.84.838-.995.74-1.824-.082-.7-1.144-1.094-1-1.648.19-.735,1.54-.263,1.522-1.205-.012-.684-.559-1.27.019-1.885,1.322-1.4.152-2.707-.573-4.246a1.785,1.785,0,0,1-.141-.413c-.326.265-1.075.18-1.4.383-.547.345-1.045,1.129-1.723,1.2-.624.07-1.24,1.944-1.648,2.454-.916,1.15-1.141,2.7-2.053,3.893-.761.993-2.614.568-3.628.16a7.774,7.774,0,0,0-2.776-.784,6.76,6.76,0,0,1-3.818-.1c-1.113-.465-2.334-.423-3.405-.939-.749-.361-1.318-.054-2.04-.263-.437-.127-.658-.568-1.073-.735-.068-1.43.366-.836,1.179-1.663a6.176,6.176,0,0,0,1.588-3.767,10.676,10.676,0,0,1,2.527-6.422c.864-1.078.624-1.773-.138-2.8-.69-.928-.74-2.214-1.364-3.208-.338-.54-.5-1.7-.977-2.094a5.745,5.745,0,0,0-2.7-.594c-.143-1.433,1.059-1.362,2.034-1.89a4.262,4.262,0,0,0,1.857-2.532c.4-1.036,1.916-4.687-.425-4.476a4.51,4.51,0,0,0-1.911.944,6.119,6.119,0,0,1-2.43.779c-1.862.3-3.619.458-5.492.627-1.23.112-2.782,1.237-3.955.477a3.128,3.128,0,0,1-1.075-2.642c-.033.014-.064.028-.1.043a2.976,2.976,0,0,0-1.09,1.017c-.967,1.4-1.733,1.564-3.267,2.066-.979.319-1.205,1.184-1.7,1.991-.705,1.15-2.125,1.676-2.729,2.827-.563,1.073.009,2.3-.651,3.4-.634,1.054-1.878,2.329-1.5,3.68a6.02,6.02,0,0,0,2.05,2.562,15.045,15.045,0,0,1,2.848,3.48c-.974.49-2.285-.094-3.118.725-1.089,1.073-1.841.261-3.013.824-1.23.59-1.118,2.155-1.082,3.276.047,1.4-1.733,1.4-1.677,2.585a1.086,1.086,0,0,1-.225.012c-.348.833-.563,1.719-.906,2.555s-1.089,1.477-1.15,2.444a4.22,4.22,0,0,0,.7,2.757c.221.3.554.493.719.836.214.441.127.94.34,1.379.878-.08,2,.658,2.731-.136.768-.838,1.306-.691,2.341-.317,1,.362,1.789-.216,2.364.923a2.65,2.65,0,0,0,2.315,1.6c.989-.007,1.611-.078,2.231.8a3.385,3.385,0,0,0,2.1,1.6,11.181,11.181,0,0,0,3.255.277c1.125-.044,2.308.822,3.409,1.076s2.271.254,3.334.58c.81.249,1.512-.192,2.236.028.589.179,1.141,1.156,1.743,1.479,1.1.585,2.287.749,3.351,1.392,1.2.723,3.259-.841,4.335-1.273.9-.361,1.986.007,2.917.028a37.58,37.58,0,0,0,3.952-.277c1.127-.094,1.649-2.674,2.761-.812.244.409.408,1.338.9,1.517a4.341,4.341,0,0,0,2.24-.119c1.522-.331,2.444-.937,3.961-.167,2.207,1.12,4.022.583,6.176-.132a10.262,10.262,0,0,1,2.369-.136c-.4-.658-1.247-1.015-.995-1.977Z" transform="translate(0 -1155.465)" fill="#5751c8" stroke="#eaecff" stroke-width="0.5"/><path d="M153.735,1215.114c1.174.759,2.726-.366,3.955-.477,1.871-.171,3.63-.326,5.492-.627a6.074,6.074,0,0,0,2.43-.779,4.52,4.52,0,0,1,1.911-.944c2.341-.211.824,3.44.425,4.476a4.248,4.248,0,0,1-1.857,2.532c-.977.526-2.179.456-2.034,1.89a5.748,5.748,0,0,1,2.7.594c.474.4.639,1.552.977,2.094.624.995.674,2.28,1.364,3.208.763,1.026,1,1.721.138,2.8a10.655,10.655,0,0,0-2.527,6.422,6.176,6.176,0,0,1-1.588,3.767c-.813.827-1.247.232-1.179,1.663.415.167.636.608,1.073.735.721.211,1.291-.1,2.04.263,1.071.516,2.292.472,3.405.939a6.759,6.759,0,0,0,3.818.1,7.759,7.759,0,0,1,2.776.784c1.014.409,2.867.833,3.628-.16.913-1.191,1.136-2.745,2.053-3.893.408-.51,1.024-2.384,1.648-2.454.678-.075,1.176-.859,1.723-1.2.322-.2,1.071-.119,1.4-.383-.242-1.284,2.081-.9,3.151-1.545a11.02,11.02,0,0,0,4.481-4.053,10.5,10.5,0,0,1,2.1-2.336c.667-.681-.04-1-.2-1.606-.122-.47.045-.961-.108-1.428-.113-.345-.549-.488-.495-.9.1-.76,1.233-.613,1.386-1.385s1.632-.728,1.494-1.542c-.113-.672.892-.918,1.247-1.407-.81-.779.594-4.032.474-4.823-.021,0-.044,0-.066,0-.984-.016-2.681.878-2.653-.533.019-.974-.317-1.6-1.4-1.186a2.865,2.865,0,0,0-.068.758,2.474,2.474,0,0,1-2.053-.632c-1.008-.742-1.947-.272-3.069-.247-.812.017-2.208-.293-2.836.4-.284.312-.906,1.81-1.5,1.5-.449-.234-.406-1.339-.474-1.75-.183-1.108-1.1-1.216-2.071-1.111-2.17.235-3.865,2.529-6.023,2.613-.016-.9.766-1.768.493-2.708-2.588-.3-3.135,3.684-5.513,3.191-.258-.92.8-1.6,1.16-2.325.421-.847-.284-1.8-.789-2.442-.408-.519-1.287-1.663-2.088-1.315-1.3.566-1.622.839-2.989-.035a4.571,4.571,0,0,0-3.353-.5c-1.214.287-1.737,1.543-2.82,2.045-1.109.514-2.562.387-3.753.62a19.024,19.024,0,0,1-4.769.453,3.7,3.7,0,0,0-1.749.24A3.133,3.133,0,0,0,153.735,1215.114Z" transform="translate(-82.121 -1139.894)" fill="#5751c8" stroke="#eaecff" stroke-width="0.5"/><path d="M381.51,1298.78c.456-.242.589-.8,1.083-1,.411-.171,1.451-.122,1.514-.7.078-.723.657-.759,1.047-.162.449.688.972.644,1.625.2a1.622,1.622,0,0,1,1.9-.263,1.413,1.413,0,0,0,1.738-.3c1.068-1.219-.3-2.944-.523-4.2-.171-.97.066-1.987-.2-2.944-.2-.714-.491-1.4-.672-2.119-.47-1.885.146-3.851,2.137-4.354,1.059-.268,1.8-2.285,2.907-1.991.334.857-.768,1.839.622,2.491,1.209.566,2.3-.423,3.377-.787.65-.218.373-.827.693-1.332a10.607,10.607,0,0,1,1.038-1.331,13.239,13.239,0,0,1,2.689-2.367c2.25-1.448,2.623-2.869,1.536-5.347-.792-1.806-2.123-3.2-1.663-5.29.134-.61-1.01-1.885-1.594-1.791-.782.125-1.17,1.068-2,1.106-1.439.064-2.783-.923-4.2-1.1a13.685,13.685,0,0,0-3.759.226,5.511,5.511,0,0,0-2.08.449,2.437,2.437,0,0,1-1.066.458,22.1,22.1,0,0,1-3.513-.075c-1.376-.1-2.379-.866-3.675-1.21-.538-.143-.662-.664-.937-1a11.6,11.6,0,0,0-1.224,1.758c-.4.554-1.061.74-1.308,1.4-.474,1.264-.577,2.348-2.151,2.233-.934-.068-2.985,1.78-3.3.108a9.1,9.1,0,0,0-.124-1.721c-.213-.533-.738-.841-.941-1.359-.244-.625.265-1.322.606-1.794a4.511,4.511,0,0,0,.695-2.189c-1.59,0-2.428-.8-4.032.125-1.033.6-1.94,2.32-3.346,1.912a13.371,13.371,0,0,0,.176-1.447c-.984-.174-1.658,1.5-2.557,1.249a.573.573,0,0,1-.246-.141c-.355.49-1.36.733-1.247,1.407.136.813-1.343.779-1.494,1.542s-1.289.624-1.386,1.385c-.052.413.381.556.495.9.153.465-.014.956.108,1.428.157.6.864.923.2,1.606a10.5,10.5,0,0,0-2.1,2.335,11.018,11.018,0,0,1-4.481,4.053c-1.069.645-3.393.26-3.151,1.545a.421.421,0,0,0,.113-.139.4.4,0,0,1-.113.139,1.7,1.7,0,0,0,.141.413c.725,1.54,1.895,2.843.573,4.246-.578.615-.031,1.2-.019,1.885.017.942-1.334.47-1.522,1.205-.143.554.921.949,1,1.648.1.831-1.01.984-.74,1.823a16.028,16.028,0,0,1,1.841.488,5.757,5.757,0,0,1,1.886.317c1.289.674.836,2.2.921,3.374a21.142,21.142,0,0,1,2.9,1.588c.85.747,2.2.761,2.928,1.536.6.637-.117,1.3-.27,1.89-.251.959.592,1.318,1,1.982a2.648,2.648,0,0,0,.575-.113,15.944,15.944,0,0,1,2.717-.977c2.221-.315,4.725.463,6.774-.55,1.5-.742,3.274-.16,4.61.571.862.472,1.24-.537,2.121-.472,1.08.08,1.277,1.367,2.513,1.454a11.694,11.694,0,0,1,1.979.268,8.392,8.392,0,0,0-.451-2.794C379.834,1299.134,380.912,1299.1,381.51,1298.78Z" transform="translate(-243.334 -1183.802)" fill="#5751c8" stroke="#eaecff" stroke-width="0.5"/><path d="M564.432,1230.088a4.3,4.3,0,0,1,2.071-2.245c1.165-.46,1.869.319,2.741.935,2.4,1.695,2.465-3.374,2.015-4.527a6.183,6.183,0,0,1-.289-3.043c.044-.78-.04-1.705-.86-2.061a11.455,11.455,0,0,1,.679-2.856c.169-.885.178-1.79.348-2.673.338-1.749,1.16-3.487,1.066-5.318.566-.035,1.15.087,1.608-.341.554-.516.232-.888.061-1.421-1.278.425-.679-2.308-.472-2.931.594-1.778-.383-2.816-.456-4.528-.066-1.552,2.623-2.806,1.707-4.53-.263-.493.415-.552.662-.77.4-.352.57-1.068,1.275-1,.361-1.517-1.959-.174-2.327-.261.179-1.167-1.533-1.437-1.123-2.562.528-1.454,2.341-1.756,3.208-2.841.213-.266,1.224-2.094,1.442-.784.965.252,1.3-.888,1.136-1.62a.835.835,0,0,0-.416-.6c-.592-.317-1.616.075-2.257-.131-.831-.267-1.4-1.062-2.255-1.3a.59.59,0,0,0-.521.061c-.411.277-.531,1.106-1.049,1.48-.883.637-5.932,1.012-6.617.033-.362-.519-1.756,1.167-2.205,1.285-.73.2-2.311.3-2.487,1.252-.78.061-1.045-.726-1.494-1.19-.695-.718-2.132-.047-2.08-1.465.026-.705.42-1.566.1-2.249-.361-.763-2-.569-2.532-.115-1.611,1.369-4.029,1.759-4.546,4.06a9.569,9.569,0,0,1-1.277,2.876,8.914,8.914,0,0,0-.942,3.541c-2.036.263-3.274.277-4.612-1.435,2.053-1.2,2.222-6.713-.928-5.173-1.454.711-1.256,2.6-2.337,3.654a24.75,24.75,0,0,0-3.823,5.067c2.087,2.344,1.521-.883,3.135-.8.049,1.026-.587,1.465-1.139,2.231-.341.474-3.407-.075-4.109.042-1.517.254-3.463.329-4.715,1.318-.068.054-.131.111-.192.171.275.34.4.859.937,1,1.3.347,2.3,1.108,3.675,1.211a21.911,21.911,0,0,0,3.513.075,2.439,2.439,0,0,0,1.066-.458,5.513,5.513,0,0,1,2.08-.449,13.765,13.765,0,0,1,3.759-.226c1.42.178,2.764,1.167,4.2,1.1.831-.038,1.219-.981,2-1.106.585-.094,1.73,1.181,1.594,1.791-.46,2.085.871,3.483,1.663,5.29,1.087,2.479.712,3.9-1.536,5.347a13.335,13.335,0,0,0-2.689,2.367,10.782,10.782,0,0,0-1.038,1.331c-.321.505-.045,1.115-.693,1.332-1.082.364-2.167,1.353-3.377.787-1.39-.651-.287-1.634-.622-2.491-1.1-.294-1.848,1.723-2.907,1.991-1.991.5-2.607,2.47-2.137,4.354.179.721.47,1.406.672,2.12a29.01,29.01,0,0,1,.2,2.943c.221,1.256,1.59,2.98.523,4.2a1.41,1.41,0,0,1-1.738.3,1.622,1.622,0,0,0-1.9.263c-.653.441-1.176.486-1.625-.2-.39-.6-.967-.561-1.047.162-.063.583-1.1.533-1.514.7-.495.205-.625.761-1.083,1-.6.317-1.677.354-1.325,1.372a8.444,8.444,0,0,1,.451,2.794,9.769,9.769,0,0,1,1.507.512c1.064.446,1.742-.73,2.9.228.61.5,1.312,1.86,2.226,1.263,1.188-.775,2.247-.387,3.569-.613a1.6,1.6,0,0,1,2.322-1.327c.2.622-.613.944-.479,1.524.115.5,1.362.772,1.773,1.137,1.552,1.385,2.566-.944,4.05-.867-.265-.014.329-.9.465-.958.77-.331,1.19.8,1.973.61-.047-.219.075-.528.035-.747.69-.545,1.8-.192,2.6-.284.987-.113,1.8-.747,2.783-.886a15.329,15.329,0,0,1,6.787.251c.826.272,1.6-.491,2.465-.509.125,0,.254,0,.381,0-.6-2.081-2.841-2.959-1.649-5.462Z" transform="translate(-393.425 -1117.077)" fill="#5751c8" stroke="#eaecff" stroke-width="0.5"/><path d="M772.138,1331.55c-4.549.348.287-2.867-.106-4.126a.768.768,0,0,1-.422-.141c-.2-.2-.117-1.024-.124-1.249-.056-1.782-.988-1.176-2.177-1.747-1.848-.888-2.379-4.365-5.034-3.184a3.467,3.467,0,0,1-.151-.932c-.221.051-.554-.082-.752-.061.1-1.271-1.581.415-2.076.119-.8-.475-.268-2.44-.536-3.194a3.211,3.211,0,0,0-1.353.552,3.092,3.092,0,0,1-.6-1.042c.6-.933,2-.664,2.506-1.658.185-.36.34-2.139,1.113-1.792.688.308,1.343-.7,1.623-1.682a2.437,2.437,0,0,0,.078-1.343c-.747-.2-1.784,1-2.52,1.224-1.1.338-1.867.535-2.428-.542a27.133,27.133,0,0,0-5.535-6.716c-1.4-1.3-4.152-3.529-6.312-2.583-.425.186-.475.667-.93.824a12.993,12.993,0,0,1-2.127.247c-.622.106-1.083.536-1.695.655-.934.181-1.649-.549-2.545-.423.026.944-1.7,2.191-2.428,2.62a1.572,1.572,0,0,1-.317.148c.171.533.495.9-.061,1.421-.458.427-1.042.307-1.608.341.1,1.831-.728,3.569-1.066,5.318-.171.885-.179,1.789-.348,2.673a11.468,11.468,0,0,0-.679,2.857c.82.355.9,1.278.86,2.06a6.183,6.183,0,0,0,.289,3.043c.449,1.153.385,6.221-2.015,4.527-.873-.617-1.575-1.393-2.741-.935a4.3,4.3,0,0,0-2.071,2.245c-1.191,2.5,1.052,3.381,1.651,5.467a18.333,18.333,0,0,1,3.092.294c1.97.36,2.816,3.064,5.079,2.876.108.27.282.5.388.771.784-.082,1.322-.808,1.686.437a2.206,2.206,0,0,0,1.7,1.515,12.879,12.879,0,0,0,5.168.756c-.057,1.064.188,1.185,1.127,1.244a2.07,2.07,0,0,1,1.289.564,2.82,2.82,0,0,0,1.446.667c0-.01,0-.023,0-.033.691-.169.878-.8,1.282-1.292.822-1,.984.108,1.493.6.557-1.163.718-2.543,1.533-3.579s1.843-.26,2.834-.608a1.358,1.358,0,0,0,.15-.061.882.882,0,0,0-.432-1.076c.927-1.247,4.335.219,5.551-.044,2.548-.55-.441-3.13,2.064-3.715.848-.2,2.336.784,2.982-.045.444-.569.665-1.045,1.456-1.007,1.089.05,3.349.662,2.745-1.256Z" transform="translate(-556.847 -1216.061)" fill="#5751c8" stroke="#eaecff" stroke-width="0.5"/></g></svg>