<svg xmlns="http://www.w3.org/2000/svg" width="57.361" height="135.341" viewBox="0 0 57.361 135.341"><g transform="translate(-251.888 -34.572)"><path d="M678.8,117.135l.08-.335-.018-.047-.092.384Z" transform="translate(-400.462 -77.047)" fill="#5751c8"/><path d="M698.114,140.542l.271-.489-.042-.04-.261.471Z" transform="translate(-418.59 -98.881)" fill="#5751c8"/><path d="M849.1,149.529l.306-.483-.053-.032-.293.462Z" transform="translate(-560.309 -107.33)" fill="#5751c8"/><path d="M852.579,164.7l.02-1.353,0,0-.02,1.357Z" transform="translate(-563.607 -120.776)" fill="#5751c8"/><path d="M842.156,193.209l1.282-1.959.388-1.324-.033-.005-.356,1.216-1.309,2.025Z" transform="translate(-553.8 -145.728)" fill="#5751c8"/><path d="M841.02,252.219l.316-.867-.027-.045-.32.876Z" transform="translate(-552.732 -203.348)" fill="#5751c8"/><path d="M850.84,284.908l.33-.181-.065-.078-.281.154Z" transform="translate(-561.963 -234.644)" fill="#5751c8"/><path d="M838.23,304.454l.6-.11.28-.543-.014-.09-.268.52-.646.118Z" transform="translate(-550.098 -252.537)" fill="#5751c8"/><path d="M838.2,328.674l.353-.41-.034-.076-.334.388Z" transform="translate(-550.097 -275.513)" fill="#5751c8"/><path d="M815.016,348.242l.743-.4.172-1.133.6-.4-.016-.1-.589.392-.172,1.133-.754.4Z" transform="translate(-528.34 -292.428)" fill="#5751c8"/><path d="M915.086,423.823l.06-1.415-.006-.009-.06,1.428Z" transform="translate(-622.276 -363.945)" fill="#5751c8"/><path d="M969.508,422.7v-.948h0v.949Z" transform="translate(-673.365 -363.338)" fill="#5751c8"/><path d="M1034.48,434.592l.672-1.357-.018-.08-.673,1.358Z" transform="translate(-734.335 -374.041)" fill="#5751c8"/><path d="M666.962,138.492l-.157-.289-.245.033.169.279Z" transform="translate(-383.812 -97.126)" fill="#5751c8"/><path d="M685.53,129.578l-.722-.628-.014.055Z" transform="translate(-400.928 -88.44)" fill="#5751c8"/><path d="M791.513,396.774l-.1-.161-.79.467.162.081Z" transform="translate(-500.263 -339.685)" fill="#5751c8"/><path d="M832.314,410l-.432-.306-.54.472-.251.8-.476.383-.021.49,1.372-.986.28-.8Z" transform="translate(-537.786 -351.961)" fill="#5751c8"/><path d="M902.828,411.233l-.321-.314-.5.071-.424-.142-.368,1.676,1.262.145Z" transform="translate(-604.073 -353.047)" fill="#5751c8"/><path d="M293.413,128.45l-.1.083-.082.247-.083.216-.091.215-.017.157-.024.057.058.175-.059.084v.153l-.174.033v.062l-.108.224v.179l.059.134-.025.067.008.068.172.041.135.261.017.212-.125.159-.031.087.019.025.122-.057.114.062.034.179-.053.133-.188-.06h-.108l-.008.266.041.213.132.124.058.132.093.059-.033.208.278.213.136.076-.008.252.05.24v.128l-.141.183-.008.1.081.242h.139l.173.182.085-.017.076.2.161.081.149-.025.087.044.1.186.009.079-.075.108V135l.315.157v.111l.14.363.084.126-.026.1-.064.055.189.3-.042.351-.025.168-.177.152-.339.108-.13.2-.008.216-.192.251-.093.1-.222.041-.156.344-.091.406-.057.155.066.106v.236l-.05.1.007.05.089.008.087.147-.027.088-.256.165-.016.117.094.086.32-.033.458-.025.181.086-.076.262.008.243-.142.125-.04.154.057.214.025.131.222.321.216.183.043.146-.083.133.016.1.05.175-.008.136-.091.157.033.207-.091.272.1.187.2.25.033.214.1.064.588.008.139.073.048-.032h.113l.073.089.073-.032.155.094.149.381.236.122h.117l.12.111.017.145-.048.136.185.064.2.16.026.248-.118.093-.1.2.107.452.158.183.026.18-.061.061-.1.073-.041.173-.056.1.156.214-.025.158.081.129.168.1v.083l-.184.084-.131.261.041.294.149.132.051.2-.1.191.049.255v.373l.017.151-.075.174v.119l.288.205.184.184.051.222-.255.179-.073-.016-.069.124.112.137.175.142.051.128-.026.121-.162.086-.077-.008v.089l.114.155.134.118v.08l-.055.082-.178-.1h-.035l-.037.059.08.144.113.073.225.042.078.113-.053.149h-.158l-.047.077.008.219.1.132.05.293v.281l.115.23.092.143-.009.132-.11.034-.055.086.058.165-.044.132-.259-.025-.123.115-.152.084h-.091l-.245.114-.058.125-.155.043-.274-.075-.2.042-.116-.215-.25.081-.125.084h-.222l-.082-.115-.217.056-.155.122-.032.111.074.14-.008.112-.124.174v.085l.255.181.151.209.083.258.075.191.009.122-.127.068-.054.07.055.126.174.075.051.16.1.149.057.131.142.083.043.172-.167.309-.211.159-.282.1-.349.044-.3-.044-.295-.029-.227-.113c-.03-.045-.1-.13-.162-.206l-.161-.2-.134-.232-.174-.189-.228-.116-.255-.087h-.322l-.3-.044-.255-.072-.228-.116H291.4l-.322.073-.282.1-.228.13-.161.2.067.319.107.275.04.348v.319l-.161.2-.107.232-.081.261-.04.29.04.347.04.362.107.275.134.232.094.275.107.275.067.319-.228.13-.362.043-.255-.087h-.644l-.282.116-.147.188-.14.181-.062.311-.04.289-.081.261-.107.232-.121.231-.121.217-.121.232-.148.2-.121.231-.081.246v.333l.067.3.107.275.134.246.107.275.094.275.107.275.067.3.081.318.04.362-.121.217-.161.2-.188.159-.282.1-.282-.029-.2-.159-.174-.2L287,167.1l-.134-.231-.134-.246-.134-.232-.134-.231-.134-.246-.2-.145-.255-.087-.349.044-.242.13-.228.145-.161.188-.121.231-.081.26-.067.26-.04.289-.081.26-.04.289-.081.26-.121.231-.067.26-.08.26-.121.217-.148.2-.2.2-.147.2-.228-.058-.134-.231L283,169.1l-.04-.362-.04-.347v-.318l-.04-.362-.04-.347L282.8,167l-.04-.347-.067-.318-.107-.275-.107-.275-.268-.463-.134-.246-.161-.188-.134-.232-.174-.2-.161-.188-.2-.159-.228-.116-.255-.087-.228-.116-.2-.159-.188-.145-.174-.2-.161-.188-.134-.246-.134-.231-.174-.2-.134-.232-.161-.188-.174-.2-.188-.159-.2-.145-.2-.159-.228-.116-.188-.159-.242-.116-.228-.159-.255-.072-.228-.116-.228-.116-.228-.116-.2-.159-.242-.159-.188-.159-.2-.145-.2-.159-.161-.232-.174-.2-.2-.145-.228-.116h-.322l-.308.073-.242.13-.148.188-.04.3v.318l.04.348v.333l.04.347.04.362.081.695-.067.275-.174.043-.2-.159-.228-.116-.228-.116-.2.1.04.347.04.362.067.318.081.3.04.362.04.347v.97l-.04.289-.067.26-.121.232-.188.159-.241.145-.282.029-.3-.072-.295-.044-.268.1-.2.174-.148.2-.161.188-.121.231-.161.2-.188.159-.161.2-.188.159-.2.174-.228.13-.241.13-.243.051-.012-.123v-.318l-.081-.318-.067-.3-.081-.318-.067-.318-.107-.275-.067-.318-.081-.3-.04-.362-.04-.347-.04-.362-.081-.695-.067-.318-.081-.318-.04-.347-.067-.318-.054-.362-.067-.3-.067-.319-.107-.275-.268-.463-.134-.246-.148-.232.013-.246.2-.174.349-.029.322-.015.255.087.2.145.255.087.174-.058.121-.232.081-.261.067-.261.081-.579-.067-.319-.134-.232-.242-.116-.161-.2-.067-.3-.081-.319-.067-.319-.04-.348v-.333l-.054-.348v-.319l.04-.29v-.333l-.04-.348v-.333l-.081-.3-.094-.275-.148-.232-.137-.262a1.745,1.745,0,0,1-.064-.289v-.333l.04-.29-.013-.319.081-.261v-.971l-.013-.319-.04-.363-.04-.348-.067-.319-.081-.319-.094-.276-.148-.232-.094-.276-.215-.551-.107-.276-.094-.276-.081-.319-.067-.3-.081-.319-.067-.319-.04-.348-.013-.319-.04-.363-.04-.348-.04-.363-.04-.348-.04-.363v-.639l-.053-.363v-.319l-.04-.363v-.319l-.04-.363v-.319l-.04-.348-.054-.363-.094-.276-.148-.232-.161-.2-.161-.189-.147-.232-.094-.276-.054-.363v-.32l.161-.523.121-.232.067-.261.081-.262v-.639l-.04-.363-.054-.349-.067-.32-.04-.363-.04-.349-.04-.364-.04-.349-.081-.32-.04-.349-.081-.32-.04-.364-.04-.349-.04-.363-.081-.305-.04-.363-.04-.349v-.335l-.04-.349.04.073v-.073l-.081-.32-.134-.233-.134-.247-.2-.145-.113-.09-.089-.07-.255-.087-.242-.116-.255-.073-.228-.116-.2-.16-.134-.233-.148-.233-.094-.277-.081-.32-.067-.32-.081-.32-.067-.305-.081-.32-.107-.277-.094-.277-.107-.276-.107-.277-.04-.364-.081-.306.04-.306.081-.247.148-.2.2-.175.121-.233-.107-.277-.134-.233-.174-.189-.161-.2-.107-.277-.04-.349-.04-.364-.107-.277-.2-.16-.3-.029-.268-.087-.228-.117-.161-.189-.148-.248-.188-.146-.268-.087-.228-.116-.268-.073-.134-.233-.04-.364-.2-.16-.228-.116-.241-.1-.161-.2-.081-.32.081-.583v-.656l-.013-.321v-.335l.04-.291v-.321l.04-.292.027-.306v-.321l.04-.291.04-.3.027-.284.04-.306.081-.262.04-.291V112.5l-.013-.335-.04-.35-.04-.364-.08-.306-.107-.277-.094-.277-.148-.248-.161-.19-.174-.2-.134-.233-.107-.277-.04-.35-.04-.365v-.335l-.054-.35v-.321l-.04-.365-.04-.35-.081-.321-.04-.365-.04-.35-.04-.365-.013-.321v-.657l-.04-.35-.04-.365-.054-.35-.04-.365.04-.292.081-.263.161-.2.188-.161.161-.2.2-.175.121-.234.067-.263.121-.219.161-.2.148-.2.161-.2.121-.219-.04-.365-.081-.321-.04-.351-.04-.365-.215-.555-.107-.278-.107-.277-.067-.321.04-.292.027-.292v-.336l-.04-.351-.081-.322-.107-.277-.161-.19-.134-.248-.148-.234-.134-.234-.067-.322-.107-.277-.107-.278-.081-.322-.067-.322-.148-.234-.161-.2-.174-.19-.2-.161-.2-.161-.134-.234-.04-.366.027-.292v-.322l-.04-.366-.04-.351-.054-.366-.04-.351-.04-.366-.04-.351-.04-.366-.08-.322-.081-.322-.067-.307-.081-.322-.04-.366-.067-.322-.054-.351-.04-.366-.067-.307-.107-.278-.107-.293-.107-.278-.107-.278-.134-.234-.148-.234-.174-.2-.161-.19-.174-.2-.134-.234-.04-.293.161-.527-.04-.293-.161-.19-.174-.205v-.322l.067-.264.04-.293.161-.527.242-.469.107-.234.161-.527.04-.308-.054-.352-.134-.235-.134-.249-.174-.19-.174-.205-.161-.19-.158-.13-.495-5.074,1.335-.094-.582-1.7.819-1.2.151.33,1.228-.024-.194-.918.711-1.508-.065-.589-.8-.613-.086-1.367.84-1.556-.707-2.407.362-1.225-.237-.425.517-.425-.237-.142.323-.26.108-.873-.151-2.124.409-.425-.409-1.015.043-1.322-.431-.614.194-.165-.711-.472.194-.449-.625.047-.151-.26-.02-1.1-.023-.188,6.074-.085-.163,3.108.723.694.151,1.582.323-.094,1.055.968.732-.354.237-1.086.689.071.237-.354.388.26-.215-.354.323-.33.5.142.345-.425.862-3.448.668-.213,1.142.26,1.142-.449.6-4.206.668-.142.151.354h.388l.409-.78,1.271-.213.323-.378.3-1.017.345-.118,2.391-6.956.56-.734,1.831,4.97-.108.45.431-.024,1.056.993-.3.544a6.369,6.369,0,0,0,.39.739l.536-.172.883-1.04L283,40.965l.258.426.474-.047.259-.946,1.185.922.732-.473.452.473.733-.639h.624l.172.118.417.126,1.134.678-.345.544.237.307-.022,1.466,1.056.166-.388,1.324-1.311,2.028.277.453-.345.945.948,1.134-.345.189.151.992-.28.543-.646.118.366.826-.366.425.108.708-.6.4-.172,1.133-.754.4.043.378.1.118.957-.094,2.757,1.369,1.249-.661,1.1,1.534-.065,1.533,1.378-.991.28-.8.6-.472,1.077.684v1.062l2.262.259.474-1.934.474.142.56-.071.754.661.151.66-.689,1.392.129.542.9-.542.689-.92,1.75.13.06.2.051.142.073.07.213-.029.142,0,.073.094-.021.12-.093.1-.118.027-.047.025,0,.215.072.046.167.02.048.046,0,.072.072.022.049.071h.047l0,.191-.046.049-.094.026-.213.005-.048-.047-.071,0,0,.167.073.07.025.071.1.069.025.071.016.715-.012.322.042.138-.151.129-.1.185.135.184.219.185.185.212.092.2v.184l.16.258.16.267.118.313.05.369.11.175.177.157.236.221.194.12.265-.136.392.017.413.18.024.17.084.212-.008.24-.051.277-.042.451-.076.479-.118.442-.059.415-.017.313.109.378-.076.331.008.24-.034.415.118.442.034.58.126.313.236.433.143.166.1.147.1.433-.152.359-.278.322v.626l-.034.571-.059.267.051.248.261.331.211.184.034.451.253.377.008.294-.017.322-.118.239.067.267.27.221.278.11.135.35.194.294.442.1.025.168-.011.067.008.014.031.011-.005.008-.03.01-.054,0-.012.011V79.1l.024.021,0,.018,0,.02-.02.025-.006.019.009.019.029.008.011.009v.012l-.038.029-.038.032-.059.063-.011.02-.016.017-.018.006-.044.021-.011.015,0,.016-.025.017-.007.081-.015.024-.009.035-.024.052-.008.042-.011.009-.024,0-.012,0-.018.025,0,.026.017.022v.006l-.022.012-.014.022-.045.019v.021l-.012.016-.027.015-.026.029-.007.04-.011.028,0,.022.013.016v.026l-.013.025-.006,0-.027-.01-.026.022-.022.024-.023.012-.03,0-.036.015v.019l.026.02.017.025.035.014,0,.012,0,.014.024.029,0,.01v.026l.012.075-.007.006-.015-.007-.024,0-.018,0-.01.072-.031.006-.018.009-.035,0-.058.032.01.049.008.012h.02l.017-.02.014-.006h.023l.017.01.007.023-.013.035-.04.006-.02.005-.01.023-.065.048,0,.015.039.008.022.02-.005.02-.023.022-.031.015-.022-.006h-.038l-.07.015-.02.027.012.019.019,0,.014.009.016.024,0,.019,0,.021.019.019h.015l0,.012,0,.026,0,.063-.02.032-.026.04-.008.049,0,.046.011.017.02.009.006.008-.012.028-.008.051v.03l.013.029-.01.054.014.02.021,0,.015.007.036.017.049.01.031.011.005.019.018.009.031,0,.052.017.03.01,0,.008-.006.019-.028.04-.014.047,0,.037.006.018.036.018.055.022,0,.005V81.8l-.039.058-.058.039-.079.035,0,.018.017,0,.011.008.014.031v.017l-.014.025v.028l.017.023v.005l0,.007-.021,0-.023.012-.016,0-.024-.012-.016-.007-.01.013.005.036.013.04,0,.039.029.05.012.087.011.04.032.052.011.026,0,.079-.01.038,0,.063-.077.033-.008.017.009.042.02.04.05.022v.034l-.013.061-.014.037v.018l.016.044.015,0,.028-.019.01,0,.006.013.023.031.036.038.016.018,0,.025-.024.009-.038.028-.067.023-.006.021.006.021.026.014.064-.005.026,0,.013.017.062.067v.013l-.01.006-.047-.031-.022.007.014.034.009.041.008.021.02-.007.01-.017.022-.006h.015l.019.012,0,.013-.022.04-.012.067,0,.047.037.044,0,.023.035.041.014.023,0,.008-.033.017-.018.022-.005.044-.02.032,0,.041.01.018.035-.006.014.007.032.04.031.051,0,.021-.009.029-.066.047-.035.019-.036.03-.009.019-.022,0-.023,0-.034.008-.043.1-.02.065.017.192-.012.062-.025.1-.022.047.005.07.032.083,0,.018-.048.051-.035.027h-.034l-.02.01-.033.049h-.012L308.461,85l-.085-.046-.029-.049-.032-.029-.029.005-.011.032.01.08,0,.04-.03.06-.009.072V85.2l-.012.01-.05.021-.027.028-.013.009h-.014l-.017-.043-.023-.011-.005.007,0,.009-.016.022-.016.021-.007.012V85.3l.007.025.012.012.043.028h.034l.024.006.035.019.031.027.013.022v.021l0,.017-.014.023-.02.013-.027.007-.1-.006-.016,0-.018.01-.016.017-.007.02,0,.023.006.019.015.032.019.017.025.008.037-.007.041,0,.021.011.01.022.009.029-.006.054.007.041.034.06.017.051.029.059.029.081-.007.057v.056l.016.074.014.042.024.03.062.04.032.041.021.061v.063l-.012.053-.045.04-.066.084-.032.16-.018.023-.005.068-.006.038-.106.168-.07.146-.023.026-.075.047,0,.072,0,.144,0,.1-.025.022-.055.023-.135-.026-.029.01-.02.035.009.068.017.044.026.055,0,.023-.029.035-.031.078-.015.011-.1-.013-.05,0-.059-.01-.029,0-.016.019-.036.1-.019.062-.007.058.021.042,0,.021-.016.024-.059.018-.041.028,0,.022.025.02.014.029v.037l-.019.063-.01.069.005.114.007.082v.042l.023.147-.005.029-.053.106v.1l-.019.061.013.024.064-.008.028.02,0,.021-.016.082v.085l-.016.04-.039.034-.074.018-.025.023-.013.06.016.056.041.025.023.041.064.075.037.028.031-.034.044,0,.035.012.008.021-.012.025-.037.019v.04l.02.023.062-.005.006.03-.041.058-.023.037-.01.05-.013.054,0,.1-.019.017-.029,0-.072.017-.047.045-.014.028,0,.04.019.036.016.044-.013.027-.023.019-.006.033,0,.04.03.039.007.026-.013.016-.025.007-.035-.022-.024.01-.019.035.016.042.056.012.038.072.072.048.008.026-.009.034-.025.029-.083.06-.026.039-.007.036.021.016h.025l.029.025.023.051,0,.023-.01.018-.011,0-.015-.009-.04,0-.056-.043-.068-.115-.031,0-.026.028-.053.1-.03.138.014.044.027.053.118.09.006.039-.011.021-.035.019-.035.058v.022l.051.114v.04l-.027.1-.046.081,0,.076.032.076.033.131-.006.039-.031.064,0,.048,0,.077-.073.029-.012.056.015.064.032.034.063.028.023.031-.005.016,0,.039-.018.046v.027l.012.04v.054l.029.13.017.124,0,.116.038.092.043.207.041.1.011.058-.008.054.019.03.03.006.087-.016.029.006.021.028.011.047,0,.067v.076l.023.041.153.112.036.033,0,.029,0,.016-.028.053-.024.1.011.085,0,.041-.016.033-.033.02-.041-.005-.02-.03-.028-.034-.037-.011-.046.014-.042.064,0,.059-.035.07,0,.065-.012.083-.015.044-.089.067-.039.014-.117-.012-.109.013-.024.021-.014.1.023.056.059.005.07,0,.049.039.036.049-.016.019-.141.059-.021.049.017.017h.037l.013.012,0,.032.006.058,0,.029-.035.092-.021.105,0,.015-.019.045-.019.012-.015,0-.041-.028-.021-.066-.031-.03-.05-.02-.034.007-.034.043,0,.071-.023.064-.048.016-.02-.013-.04-.092-.024-.031-.032,0-.035.03-.076.025-.078.041-.066-.015-.106,0-.053.018-.154.112-.125.038-.1.017.006-.018,0-.02-.027-.012h-.025l-.053.035-.036.052-.065.042-.088.04-.03.02-.013.032.024.044,0,.054.013.032.014.051.029.081.056.053.009.053-.013.078-.017.073.022.032.052.03.038.037.091.192.093.1.174.075.018.008.084.024.04.043.009.058,0,.012.038.082.048.025.022.025-.01.047-.047.046-.028.059-.067.064-.1.06-.046.092.008.074.02.042.073.058.071.027.058.069-.009.065,0,.085-.053.021-.129-.006-.15-.021-.047.02,0,.041.057.046.088.077.043.01.044-.029.05,0,.057.019.034.041v.03l-.045.029-.088.05-.094,0-.053.028-.031.047.008.042.038.029.128.162v.076l-.045.186-.066.11-.028.058.008.035.091.095.021.072.075.118v.036l-.073.089-.043.088-.013.1-.028.031-.027,0-.011-.033-.017-.018-.063,0-.049.017-.037.048.027.1.043.033.169.032.029.047.056.044,0,.026-.028.07-.073.048-.018.081-.061.1.011.044.034.027.056-.038.038.013.018.047-.008.085.039.121.065.071.142.039.011.034-.024.071-.093.031-.051.026-.017.034v.1l.007.025.081.053-.021.047-.092.132-.005.053.054,0,.067.044.025.012.048-.029.13.046.04.065.012.063-.031.039-.008.056.042.112.1.2.015.08-.037.125,0,.032.035.037.057,0,.068.05.01.071-.069.141v.1l.028.107.025.015.041-.018.047.017.075.14.051.122.1.061.025.049-.018.046-.046.024-.17-.016-.1-.049-.127.131.019.066,0,.022-.037.036-.013.046-.015.116-.011.081-.023.037-.075.037-.039.076.005.023.064.047.027.07.03.027.09.042.027.027.008.045-.034.07-.075.073.008.072-.013.048-.063.175.023.067.053.041.069.058.017.047-.02.025-.06.074-.03.176-.063.112-.016.056-.041.035-.2.048-.133.035-.023.029v.032h.05l.132.07.031.063-.008.1,0,.145-.06.083v.046l.051.166.013.086-.034.1-.035.04-.062.012-.021.015,0,.08-.022.113.027.032.054,0,.021.02-.005.048-.034.051-.059.14-.052.125-.007.1.081.064.024.048.033.04.023.009.04.009.059-.017.08-.043.02,0,.032.012.025.037.029.013h.05l.059-.022.1-.073.122-.1.05-.014.05.009.046.027-.009.061-.062.142v.083l-.026.2-.027.066-.033.04-.055,0-.09-.008-.146,0-.075.03-.025.046,0,.064.1.056.02.032-.012.044-.048.047-.046.016-.144-.009-.082.038-.136.111-.077.09-.111.067-.029.1.01.05,0,.037-.02.059-.04.041-.052.011-.1-.033h-.046l-.048,0-.087-.041-.024.008-.02.026-.008.049,0,.083.012.052.019.032.047.036.036,0,.043.005.007.014,0,.028-.014.06-.024.04-.052.037-.02.028-.015.055-.042.105-.006.04,0,.038,0,.05-.012.046-.034.038-.008.026,0,.04.007.063-.009.042-.041.056-.077.067-.031.058-.015.068-.011.024-.022.006-.022-.008L305.1,110l-.041-.018h-.042l-.034.009-.04.029-.029.012a.6.6,0,0,1-.007.1l0,.033.012.038.045.039.029.04.006.046-.019.039-.041.042-.064.017-.019.015-.013.047-.013.032v.046l.018.054.015.048,0,.039-.015.05-.081.127-.091.1-.029.048-.005.032.007.023.019.02.021.012.037-.011.021-.008.111-.1.025-.012.025,0,.038.02.115.092.171.026.048.016.011.024v.038l-.006.03-.025.015-.064-.009-.081,0-.07.016-.06-.018-.025-.007-.024.008-.019.018-.02.032-.031.061-.019.015-.047,0-.046.02-.039.015-.018.023-.009.022,0,.05.007.036.014.034.048.062.052.1.04.071,0,.035,0,.045-.013.024-.024.021-.029.011-.038-.005-.019-.023-.014-.03-.03-.016-.054-.03-.08-.035-.04-.011-.035,0-.029.015-.018.023,0,.046-.009.069-.039.083-.033.109.042.187-.011.061-.048.031-.088.007-.1,0-.077.036-.014.077.053.133,0,.091.006.072-.012.046-.033.047-.069.01-.028.022-.061.089-.046.032-.08-.066-.047.011-.018.038.034.1,0,.033-.036.094.011.144-.024.038-.054.02-.138.009-.064.029-.055.078.028.108.015.129-.005.07-.052.057H303.3l-.128-.116-.054-.022-.072.01-.144.108-.077.123-.062.049-.1.1-.086.128-.073.193-.033.047-.071.042-.054-.02-.042-.1-.043,0-.109.026-.215-.022-.031.03,0,.053-.086.1-.14.023-.1.032-.035,0,0-.012-.022-.055V114.6l-.045-.054-.046-.091-.07-.056-.092,0-.126.053-.087.082-.08.01-.045-.026-.076,0-.072.032-.26.022-.3.053-.19-.009-.174-.051-.1-.12-.132-.064-.148-.023-.058.016-.051,0-.068-.058-.008-.056.035-.076.087-.1,0-.105-.073-.078-.065-.011-.059.037-.075-.022-.008-.07.025-.086-.056-.046-.089.006-.108.047h-.065l-.055-.019-.021-.09-.109-.075-.014-.076.074-.161.064-.07-.018-.128-.055-.084-.124.005-.046-.028-.052-.121-.03-.14-.017-.294-.044-.058-.082-.029-.1.031-.13-.069-.067-.074-.023-.081.034-.064L298,112.08l-.046-.009-.111.016-.135,0-.115.043-.136.084-.067.017-.078-.055-.028-.113.035-.126-.024-.045-.134-.068-.073.01-.034.074-.071.04-.068.072-.187.1-.225.305-.083.082-.062.008-.1-.042-.173-.039H296l-.024.051.017.128-.044.039h-.105l-.128.034-.069-.048.012-.046,0-.2-.042-.252-.032-.032-.1,0-.243.075-.091.011-.124-.049-.007-.058.032-.077.018-.067-.014-.075-.052-.06-.1-.028-.109.036-.081.089-.023.235.12.206,0,.056-.041.063-.113.029-.093.077-.089.154-.112.109-.028.08.011.192.054.091.061.015.013.07-.011.069-.056.147-.084.163-.011.185.005.11-.014.139-.036.174-.069.1.024.207-.073.1-.107.032,0,.1.066.079.094-.013.13-.047.049.046-.007.123.032.15.143.167.054.109.119.043.191-.058.17.048.008.152-.082.066-.025.236.11.194.116.008.032.1-.057.219-.171.024-.194.068-.009.128.142.359.14.066.016.228-.192.226.145.119.206.107.082.2-.066.239.008.258.033.3.209.209.171.089-.04.1.034.129h.185l.2.065.154.382-.317.033-.4.017-.115-.132-.417-.133-.185.076-.275.45v.136l.1.083.148.37-.231.47-.124.208-.059.16.075.1-.131.311-.241.15-.008.375-.091.174-.067.491.041.148-.124.206-.024.163-.2.041v.106l.134.084.056.072-.088.161-.374.05-.026.137.035.12.289.041v.142l-.114.057-.24.249-.215.1-.176.143v.169l.1.148-.049.106.008.1.082.057-.024.18-.026.287-.04.075.028.16.016.122.142.176-.041.133.106.155.059.176v.1l-.05.108v.128l.131.123.1.167.067.176-.017.342-.059.2" transform="translate(-0.344)" fill="#5751c8"/><path d="M925,937.958V938l.02.023.062-.005.005.03-.04.058-.023.037-.01.05-.013.054,0,.1-.019.017-.03,0-.072.018-.047.045-.014.027,0,.04.019.036.016.044-.013.027-.023.019-.006.033,0,.041.03.039.007.026-.013.016-.025.007-.035-.022-.024.01-.019.035.016.042.056.012.038.072.072.048.008.026-.009.034-.025.029-.083.06-.026.039-.007.036.021.016h.025l.029.025.023.051,0,.023-.01.018-.011,0-.015-.009-.04,0-.056-.043-.068-.115-.031,0-.026.028-.053.1-.03.138.014.044.027.053.118.09.006.039-.011.021-.035.019-.036.058v.022l.051.114v.04l-.027.1-.046.08,0,.076.032.077.033.131-.006.039-.031.064,0,.048,0,.077-.073.028-.012.056.015.064.032.034.063.028.023.031-.005.016,0,.039-.018.046v.027l.012.04v.054l.029.13.017.124,0,.116.038.092.043.207.041.1.011.058-.008.054.019.03.03.006.087-.016.029.006.021.028.011.047,0,.067v.076l.023.041.153.112.036.033,0,.029,0,.016-.028.053-.024.1.011.085,0,.041-.016.033-.033.02-.041-.005-.02-.03-.028-.034-.037-.011-.046.014-.042.064,0,.059-.035.071,0,.065-.012.083-.015.044-.089.067-.039.014-.117-.012-.109.013-.024.021-.014.1.023.056.059.005.07,0,.049.039.036.049-.016.019-.141.059-.021.049.016.018h.037l.013.012,0,.032.006.058,0,.029-.035.092-.021.105,0,.015-.019.045-.019.012-.015,0-.041-.028-.021-.066-.031-.03-.05-.02-.034.007-.034.043,0,.071-.023.064-.048.016-.02-.013-.04-.092-.024-.031-.032,0-.035.03-.076.025L923.9,944l-.066-.015-.106,0-.053.018-.154.112-.125.038-.1.017.006-.018,0-.02-.027-.012h-.025l-.053.035-.036.052-.065.042-.088.04-.03.02-.013.032.024.044,0,.054.013.032.014.051.029.081.056.053.009.053-.013.078-.017.073.022.032.052.03.038.037.091.192.093.1.174.075.018.008.084.024.04.043.009.058,0,.012.038.082.048.025.022.025-.01.047-.047.046-.028.059-.067.064-.1.06-.046.092.008.074.02.042.073.058.071.027.058.069-.009.065,0,.084-.053.021-.129-.006-.15-.021-.047.02,0,.041.057.046.088.077.043.01.044-.029.05,0,.057.019.034.041v.03l-.045.03-.088.05-.094,0-.053.028-.031.047.008.042.038.029.128.162v.076l-.045.186-.066.11-.028.057.008.035.091.095.021.072.075.118v.036l-.073.089-.043.088-.013.1-.028.031-.027,0-.011-.033-.017-.018-.063,0-.049.017-.037.048.027.1.043.033.169.031.029.047.056.044,0,.026-.028.07-.073.048-.018.08-.061.1.01.044.034.026.056-.038.038.013.018.047-.008.085.039.121.065.071.142.039.011.034-.024.071-.093.031-.051.026-.017.034v.1l.007.025.081.053-.021.047-.092.132-.006.053.054,0,.067.044.025.012.048-.029.13.046.04.065.012.063-.031.038-.008.056.042.112.1.2.015.08-.037.125,0,.032.036.037.057,0,.068.05.01.071-.069.141v.1l.027.107.025.015.041-.018.047.017.075.14.051.122.1.061.025.049-.018.046-.046.024-.17-.016-.1-.049-.127.131.019.066,0,.022-.037.036-.013.046-.015.116-.011.08-.023.037-.075.036-.038.076.005.023.064.047.027.07.03.027.09.042.027.027.008.045-.033.07-.075.073.008.072-.013.048-.063.175.023.067.053.041.069.058.017.047-.02.025-.06.074-.031.176-.063.112-.016.056-.042.035-.2.048-.133.035-.023.029v.032h.05l.132.07.031.063-.008.1,0,.145-.06.083v.046l.051.166.013.086-.033.1-.035.04-.062.012-.021.015,0,.079-.022.113.027.032.054,0,.021.02-.005.047-.034.051-.059.141-.052.125-.007.1.081.064.024.048.033.04.023.009.04.009.059-.016.08-.043.02,0,.032.012.025.037.028.013h.05l.059-.022.1-.073.122-.1.05-.014.05.009.046.027-.009.061-.062.142v.083l-.026.2-.027.066-.033.04-.055,0-.09-.008-.146,0-.075.03-.025.047,0,.064.1.056.02.032-.012.043-.048.047-.046.016-.144-.009-.082.038-.136.111-.077.09-.111.067-.029.1.01.05,0,.037-.02.059-.04.041-.052.011-.1-.033h-.046l-.048,0-.087-.041-.024.008-.02.026-.008.049,0,.083.012.051.019.032.047.036.036,0,.043.005.007.014,0,.027-.014.06-.024.04-.052.037-.02.028-.015.055-.042.105-.006.04,0,.038,0,.05-.012.046-.034.038-.008.026,0,.04.006.063-.009.042-.042.056-.077.067-.031.058-.015.068-.011.024-.022.006-.021-.008-.058-.07-.042-.018h-.042l-.034.009-.053.035-.021.025,0,.034.012.038.045.039.029.04.006.046-.019.039-.041.042-.064.017-.019.015-.013.047-.013.032v.046l.018.054.015.048,0,.039-.015.05-.081.126-.091.1-.029.048-.006.032.007.023.019.02.021.012.037-.011.021-.008.111-.1.025-.012.025,0h0l.038.02.115.092h0l.171.026.048.016h0l.011.025v.038l-.005.03h0l-.025.015h0l-.064-.009h0l-.08,0h0l-.07.016h0l-.06-.018h0l-.025-.007h0l-.024.008-.019.018-.021.032-.031.061h0l-.019.015h0l-.046,0h0l-.046.02h0l-.039.015-.017.023-.009.022,0,.05.007.036.014.034.048.062.052.1.04.071,0,.035,0,.045-.013.024h0l-.024.021h0l-.029.011h0l-.038-.005h0l-.019-.023-.014-.03h0l-.014-.008-.016-.009h0l-.054-.03h0l-.08-.035-.04-.011h0l-.035,0h0l-.029.015-.018.023,0,.046-.009.069-.039.083-.032.109.042.187-.01.061h0l-.048.031h0l-.088.007h0l-.1,0-.077.036-.014.077.053.133,0,.091.006.072-.012.046-.033.047h0l-.068.01-.028.022-.061.089h0l-.046.032h0l-.079-.066-.047.011-.018.038.034.105,0,.033-.036.094.011.145-.024.038h0l-.054.02h0l-.137.009h0l-.064.029-.055.078.028.108.015.129-.005.07-.052.057h-.063l-.128-.116-.054-.022-.072.01h0l-.144.108-.077.123h0l-.062.049h0l-.1.1-.086.128-.073.193-.033.047h0l-.071.042h0l-.054-.02h0l-.042-.1-.043,0h0l-.109.026h0l-.215-.022h0l-.031.03,0,.053-.086.1-.14.024h0l-.1.032h0l-.035,0h0l0-.012-.022-.055v-.106l-.045-.054-.046-.091-.07-.056h0l-.092,0-.125.053-.087.082-.08.01h0l-.046-.026-.075,0-.072.032-.26.022-.3.053h0l-.189-.009-.174-.051h0l-.1-.13-.129-.054-.148-.022-.058.016-.051,0-.068-.057-.008-.056.035-.076.087-.1,0-.105-.073-.078-.065-.011-.059.037-.075-.022-.008-.07.025-.086-.056-.047-.089.006-.107.047h-.065l-.055-.019-.021-.09-.109-.075-.014-.076.074-.161.064-.07-.018-.129-.055-.083-.124.005-.046-.028-.052-.121-.03-.14-.017-.294-.044-.058-.082-.03-.1.031-.13-.069-.067-.074-.023-.081.034-.064-.025-.044-.046-.009-.111.016-.135,0-.115.043-.136.084-.067.017-.078-.055-.028-.113.035-.126-.024-.045-.134-.068-.073.01-.034.074-.071.04-.068.072-.187.1-.224.305-.083.082-.062.008-.1-.042-.173-.039h-.086l-.024.051.017.128-.044.039h-.105l-.128.034-.069-.048.012-.045,0-.2-.042-.252-.032-.032-.1,0-.243.076-.091.011-.124-.049-.007-.058.032-.077.018-.067-.014-.075-.052-.06-.1-.028-.109.036-.081.089-.022.235.12.206,0,.056-.04.063-.113.03-.093.077-.089.154-.112.109-.028.08.011.192.054.091.061.015.013.07-.011.069-.056.147-.084.163-.011.184.005.11-.014.139-.036.174-.069.1.024.207-.073.1-.107.032,0,.1.066.079.094-.013.13-.047.049.046-.007.123.032.15.143.167.054.109.119.043.191-.058.17.048.008.152-.083.066-.025.236.11.194.115.008.032.1-.057.219-.171.024-.194.068-.009.128.142.359.14.066.016.228-.192.226.145.119.206.107.082.2-.066.239.008.258.033.3.209.209.171.089-.04.1.035.129h.185l.2.065.154.382-.317.033-.4.016-.115-.132-.417-.133-.185.076-.275.45v.136l.1.083.148.37-.231.47-.124.208-.059.16.074.1-.131.311-.241.15-.008.375-.091.174-.067.491.041.148-.124.206-.024.163-.2.041v.106l.134.084.056.072-.088.161-.374.05-.026.137.035.12.289.041v.142l-.114.057-.24.249-.215.1-.176.143v.169l.1.148-.049.106.008.1.082.058-.025.18-.026.287-.04.075.028.16.016.122.142.176-.042.133.106.155.059.176v.1l-.05.108v.128l.131.123.1.167.067.176-.017.342h0l.017-.342-.067-.176-.1-.167-.131-.123v-.128l.05-.108v-.1l-.059-.176-.106-.155.042-.133-.142-.176-.016-.122-.028-.16.04-.075.026-.287.025-.18-.082-.057-.008-.1.049-.106-.1-.148v-.169l.176-.143.215-.1.24-.249.114-.057v-.142l-.289-.041-.035-.12.026-.137.374-.05.088-.161-.056-.072-.134-.084v-.106l.2-.042.024-.163.124-.206-.041-.148.067-.491.091-.174.008-.375.241-.15.131-.311-.074-.1.059-.16L912.1,969l.231-.47-.148-.37-.1-.083v-.136l.275-.45.185-.076.417.133.115.132.4-.016.317-.033-.154-.382-.2-.065h-.185l-.035-.129.04-.1-.171-.089-.209-.209-.033-.3-.008-.258.066-.239-.082-.2-.206-.107-.145-.119.192-.226-.016-.228-.14-.066-.142-.359.009-.128.194-.068.171-.025.057-.219-.032-.1-.115-.008-.11-.194.025-.236.083-.066-.008-.152-.17-.048-.191.058-.119-.043-.054-.109-.143-.167-.032-.15.007-.123-.049-.046-.13.047-.094.013-.066-.079,0-.1.107-.032.073-.1-.024-.207.069-.1.036-.174.014-.139-.005-.11.011-.184.084-.163.056-.147.011-.069L912,961.1l-.061-.015-.054-.091-.011-.192.028-.08.112-.109.089-.154.093-.077.113-.03.04-.063,0-.056-.12-.206.022-.235.081-.089.109-.036.1.028.052.06.014.075-.018.067-.032.077.007.058.124.049.091-.011.243-.076.1,0,.032.032.042.252,0,.2-.012.045.069.048.128-.034h.105l.044-.039-.017-.128.024-.051h.086l.173.039.1.042.062-.008.083-.082.224-.305.187-.1.068-.072.071-.04.034-.074.073-.01.134.068.024.045-.035.126.028.113.078.055.067-.017.136-.084.115-.043.135,0,.111-.016.046.009.025.044-.034.064.023.081.067.074.13.069.1-.031.082.03.044.058.017.294.03.14.052.121.046.028.124-.005.055.083.018.129-.064.07-.074.161.014.076.109.075.021.09.055.019h.065l.107-.047.089-.006.056.047-.025.086.008.07.075.022.059-.037.065.011.073.078,0,.105-.087.1-.035.076.008.056.068.057.051,0,.058-.016.148.022.129.054.1.13.174.051.189.009h0l.3-.053.26-.022.072-.032.075,0,.046.026h0l.08-.01.087-.082.125-.053.092,0h0l.07.056.046.091.045.054v.106l.022.055,0,.012.035,0h0l.1-.032h0l.14-.024.086-.1,0-.053h0l.031-.03h0l.215.022h0l.109-.026h0l.043,0h0l.042.1.054.02h0l.071-.042.033-.047.073-.193.086-.128h0l.1-.1h0l.062-.049.077-.123h0l.144-.107h0l.072-.01.054.022.128.116h.063l.052-.057.005-.07-.015-.129-.028-.108.055-.078h0l.064-.029h0l.137-.009h0l.054-.02.024-.038-.011-.144.036-.094,0-.033-.034-.1.018-.038.047-.011.079.066h0l.046-.032.061-.089h0l.027-.022.068-.01.033-.047.012-.046-.006-.072,0-.091-.053-.133.014-.077h0l.077-.036.1,0h0l.088-.007h0l.048-.031.01-.061-.042-.187.033-.109.039-.083.009-.069,0-.046.018-.023h0l.029-.015h0l.035,0h0l.04.011.08.035h0l.054.03h0l.016.009.014.008h0l.014.03.019.023.038.005h0l.029-.011h0l.024-.021.013-.024,0-.045,0-.035-.04-.071-.052-.1-.048-.062-.014-.034-.007-.036,0-.05.009-.022.017-.023h0l.039-.015h0l.047-.02h0l.046,0h0l.019-.015.031-.061.02-.032h0l.019-.018.024-.008h0l.025.007h0l.06.018h0l.07-.016h0l.08,0h0l.064.009h0l.025-.015.005-.03v-.038l-.011-.024-.048-.016-.171-.026h0l-.115-.092-.038-.02h0l-.025,0-.025.012-.111.1-.021.008-.037.011-.021-.012-.019-.02-.007-.023.006-.032.029-.048.091-.1.081-.127.015-.05,0-.039-.015-.048-.018-.054v-.046l.013-.032.013-.047.019-.015.064-.017.041-.042.02-.039-.006-.047-.029-.04-.045-.039-.012-.038,0-.034.021-.025.053-.036.034-.009h.042l.042.018.058.07.021.008.022-.006.011-.024.015-.068.031-.058.077-.067.042-.056.009-.042-.006-.063,0-.04.008-.026.034-.038.012-.046,0-.05,0-.038.006-.04.042-.105.015-.055.02-.028.052-.037.024-.04.014-.06,0-.027-.007-.014-.043-.005-.036,0-.047-.036-.019-.032-.012-.051,0-.083.008-.049.02-.026.024-.008.087.041.048,0h.046l.1.033.052-.011.04-.041.02-.059,0-.037-.01-.05.029-.1.111-.067.077-.09.136-.111.083-.038.144.009.046-.016.048-.047.012-.044-.02-.032-.1-.056,0-.064.025-.047.075-.03.146,0,.09.008.055,0,.033-.04.027-.066.026-.2V955.5l.063-.142.009-.061-.046-.027-.05-.009-.05.014-.122.1-.1.073-.059.022h-.05L924,955.45l-.025-.037-.032-.012-.02,0-.08.043-.059.016-.04-.009-.023-.009-.033-.04-.024-.048-.081-.064.007-.1.052-.125.059-.14.034-.051.005-.048-.021-.02-.054,0-.026-.032.021-.113,0-.08.021-.015.062-.012.035-.04.033-.1-.013-.086-.051-.166v-.046l.06-.083,0-.145.008-.1-.031-.063-.132-.07h-.05v-.032l.023-.029.133-.035.2-.048.042-.035.016-.056.063-.112.03-.176.06-.074.02-.025-.017-.047-.069-.058-.053-.041-.023-.067.063-.175.013-.048-.008-.072.075-.073.033-.07-.008-.045-.027-.027-.09-.042-.03-.027-.027-.07-.064-.047-.005-.023.038-.076.075-.036.023-.037.011-.081.015-.116.013-.046.037-.036,0-.022-.019-.066.127-.13.1.049.17.016.046-.024.018-.046-.025-.049-.1-.061-.051-.122-.075-.14-.047-.017-.041.018-.025-.015-.027-.107v-.1l.069-.141-.01-.071-.068-.05-.057,0-.036-.037,0-.032.037-.125-.015-.08-.1-.2-.042-.112.008-.056.031-.039-.012-.062-.04-.065-.13-.046-.048.029-.025-.011-.067-.044-.054,0,.006-.053.092-.132.021-.047-.081-.053-.007-.025v-.1l.017-.034.051-.026.093-.031.024-.071-.011-.034-.142-.039-.065-.071-.039-.121.008-.085-.018-.047-.038-.013-.056.038-.034-.027-.01-.044.061-.1.018-.081.073-.048.028-.07,0-.026-.056-.044-.029-.047-.169-.032-.043-.033-.027-.1.037-.048.049-.017.063,0,.018.018.011.033.027,0,.028-.031.013-.1.043-.088.073-.089v-.036l-.076-.118-.021-.072-.091-.095-.008-.035.028-.058.066-.11.045-.186v-.076l-.128-.162-.038-.029-.008-.042.031-.047.053-.028.094,0,.088-.05.045-.03v-.03l-.034-.041-.057-.019-.05,0-.044.029-.043-.01-.088-.077-.057-.046,0-.041.047-.02.15.021.129.006.053-.021,0-.085.009-.065-.058-.069-.071-.027-.073-.058-.02-.042-.008-.074.046-.092.1-.06.067-.064.028-.06.047-.046.01-.047-.022-.025-.048-.025-.038-.082,0-.012-.009-.057-.04-.043-.084-.024-.018-.008-.174-.075-.093-.1-.091-.192-.038-.037-.052-.03-.022-.032.017-.073.013-.078-.009-.053-.056-.053-.029-.081-.014-.051-.013-.032,0-.054-.024-.044.013-.031.03-.02.089-.04.065-.042.036-.052.053-.035h.025l.027.012,0,.02-.006.018.1-.017.125-.038.154-.112.053-.019.106,0,.066.015.078-.042.076-.025.035-.03.032,0,.024.031.04.092.02.013.048-.016.023-.064,0-.071.034-.043.034-.007.05.02.031.03.021.066.041.028.015,0,.019-.012.019-.045,0-.015.021-.105.035-.092,0-.029-.006-.058,0-.032-.013-.012h-.037l-.016-.017.021-.049.141-.059.016-.019-.036-.049-.049-.039-.07,0-.059-.005-.023-.056.014-.1.024-.021.109-.013.117.012.039-.015.089-.067.015-.044.012-.083,0-.065.035-.07,0-.059.042-.064.046-.014.037.011.028.034.02.03.041.005.033-.02.016-.033,0-.041-.011-.085.024-.1.028-.053,0-.016,0-.029-.036-.033-.153-.112-.023-.041v-.076l0-.067-.011-.047-.021-.028-.029-.006-.086.016-.031-.006-.019-.03.008-.054-.011-.058-.041-.1-.043-.207-.038-.092,0-.116-.017-.124-.029-.13v-.054l-.012-.04v-.027l.018-.046,0-.039.005-.016-.023-.031-.062-.028-.032-.034-.015-.064.012-.056.073-.029,0-.077,0-.048.031-.064.006-.039-.033-.131-.032-.076,0-.076.046-.081.027-.1v-.04l-.051-.114v-.022l.036-.058.035-.019.011-.021-.006-.039-.118-.09-.027-.053-.014-.044.03-.138.053-.1.026-.028.031,0,.068.115.056.043.04,0,.015.009.011,0,.009-.018,0-.023-.023-.051-.029-.025H924.8l-.021-.016.007-.036.026-.039.083-.06.025-.028.009-.034-.008-.026-.072-.048-.038-.072-.056-.012-.016-.042.019-.035.024-.01.035.022.025-.007.013-.016-.007-.026-.03-.039,0-.041.006-.033.023-.019.013-.027-.016-.044-.019-.036,0-.04.014-.028.047-.045.072-.018.03,0,.019-.017,0-.1.013-.054.01-.05.023-.037.041-.058-.005-.03-.062.005L925,938Z" transform="translate(-617.904 -847.878)" fill="#5751c8"/><path d="M925,937.958V938l.02.023.062-.005.005.03-.04.058-.023.037-.01.05-.013.054,0,.1-.019.017-.03,0-.072.018-.047.045-.014.027,0,.04.019.036.016.044-.013.027-.023.019-.006.033,0,.041.03.039.007.026-.013.016-.025.007-.035-.022-.024.01-.019.035.016.042.056.012.038.072.072.048.008.026-.009.034-.025.029-.083.06-.026.039-.007.036.021.016h.025l.029.025.023.051,0,.023-.01.018-.011,0-.015-.009-.04,0-.056-.043-.068-.115-.031,0-.026.028-.053.1-.03.138.014.044.027.053.118.09.006.039-.011.021-.035.019-.036.058v.022l.051.114v.04l-.027.1-.046.08,0,.076.032.077.033.131-.006.039-.031.064,0,.048,0,.077-.073.028-.012.056.015.064.032.034.063.028.023.031-.005.016,0,.039-.018.046v.027l.012.04v.054l.029.13.017.124,0,.116.038.092.043.207.041.1.011.058-.008.054.019.03.03.006.087-.016.029.006.021.028.011.047,0,.067v.076l.023.041.153.112.036.033,0,.029,0,.016-.028.053-.024.1.011.085,0,.041-.016.033-.033.02-.041-.005-.02-.03-.028-.034-.037-.011-.046.014-.042.064,0,.059-.035.071,0,.065-.012.083-.015.044-.089.067-.039.014-.117-.012-.109.013-.024.021-.014.1.023.056.059.005.07,0,.049.039.036.049-.016.019-.141.059-.021.049.016.018h.037l.013.012,0,.032.006.058,0,.029-.035.092-.021.105,0,.015-.019.045-.019.012-.015,0-.041-.028-.021-.066-.031-.03-.05-.02-.034.007-.034.043,0,.071-.023.064-.048.016-.02-.013-.04-.092-.024-.031-.032,0-.035.03-.076.025L923.9,944l-.066-.015-.106,0-.053.018-.154.112-.125.038-.1.017.006-.018,0-.02-.027-.012h-.025l-.053.035-.036.052-.065.042-.088.04-.03.02-.013.032.024.044,0,.054.013.032.014.051.029.081.056.053.009.053-.013.078-.017.073.022.032.052.03.038.037.091.192.093.1.174.075.018.008.084.024.04.043.009.058,0,.012.038.082.048.025.022.025-.01.047-.047.046-.028.059-.067.064-.1.06-.046.092.008.074.02.042.073.058.071.027.058.069-.009.065,0,.084-.053.021-.129-.006-.15-.021-.047.02,0,.041.057.046.088.077.043.01.044-.029.05,0,.057.019.034.041v.03l-.045.03-.088.05-.094,0-.053.028-.031.047.008.042.038.029.128.162v.076l-.045.186-.066.11-.028.057.008.035.091.095.021.072.075.118v.036l-.073.089-.043.088-.013.1-.028.031-.027,0-.011-.033-.017-.018-.063,0-.049.017-.037.048.027.1.043.033.169.031.029.047.056.044,0,.026-.028.07-.073.048-.018.08-.061.1.01.044.034.026.056-.038.038.013.018.047-.008.085.039.121.065.071.142.039.011.034-.024.071-.093.031-.051.026-.017.034v.1l.007.025.081.053-.021.047-.092.132-.006.053.054,0,.067.044.025.012.048-.029.13.046.04.065.012.063-.031.038-.008.056.042.112.1.2.015.08-.037.125,0,.032.036.037.057,0,.068.05.01.071-.069.141v.1l.027.107.025.015.041-.018.047.017.075.14.051.122.1.061.025.049-.018.046-.046.024-.17-.016-.1-.049-.127.131.019.066,0,.022-.037.036-.013.046-.015.116-.011.08-.023.037-.075.036-.038.076.005.023.064.047.027.07.03.027.09.042.027.027.008.045-.033.07-.075.073.008.072-.013.048-.063.175.023.067.053.041.069.058.017.047-.02.025-.06.074-.031.176-.063.112-.016.056-.042.035-.2.048-.133.035-.023.029v.032h.05l.132.07.031.063-.008.1,0,.145-.06.083v.046l.051.166.013.086-.033.1-.035.04-.062.012-.021.015,0,.079-.022.113.027.032.054,0,.021.02-.005.047-.034.051-.059.141-.052.125-.007.1.081.064.024.048.033.04.023.009.04.009.059-.016.08-.043.02,0,.032.012.025.037.028.013h.05l.059-.022.1-.073.122-.1.05-.014.05.009.046.027-.009.061-.062.142v.083l-.026.2-.027.066-.033.04-.055,0-.09-.008-.146,0-.075.03-.025.047,0,.064.1.056.02.032-.012.043-.048.047-.046.016-.144-.009-.082.038-.136.111-.077.09-.111.067-.029.1.01.05,0,.037-.02.059-.04.041-.052.011-.1-.033h-.046l-.048,0-.087-.041-.024.008-.02.026-.008.049,0,.083.012.051.019.032.047.036.036,0,.043.005.007.014,0,.027-.014.06-.024.04-.052.037-.02.028-.015.055-.042.105-.006.04,0,.038,0,.05-.012.046-.034.038-.008.026,0,.04.006.063-.009.042-.042.056-.077.067-.031.058-.015.068-.011.024-.022.006-.021-.008-.058-.07-.042-.018h-.042l-.034.009-.053.035-.021.025,0,.034.012.038.045.039.029.04.006.046-.019.039-.041.042-.064.017-.019.015-.013.047-.013.032v.046l.018.054.015.048,0,.039-.015.05-.081.126-.091.1-.029.048-.006.032.007.023.019.02.021.012.037-.011.021-.008.111-.1.025-.012.025,0h0l.038.02.115.092h0l.171.026.048.016h0l.011.025v.038l-.005.03h0l-.025.015h0l-.064-.009h0l-.08,0h0l-.07.016h0l-.06-.018h0l-.025-.007h0l-.024.008-.019.018-.021.032-.031.061h0l-.019.015h0l-.046,0h0l-.046.02h0l-.039.015-.017.023-.009.022,0,.05.007.036.014.034.048.062.052.1.04.071,0,.035,0,.045-.013.024h0l-.024.021h0l-.029.011h0l-.038-.005h0l-.019-.023-.014-.03h0l-.014-.008-.016-.009h0l-.054-.03h0l-.08-.035-.04-.011h0l-.035,0h0l-.029.015-.018.023,0,.046-.009.069-.039.083-.032.109.042.187-.01.061h0l-.048.031h0l-.088.007h0l-.1,0-.077.036-.014.077.053.133,0,.091.006.072-.012.046-.033.047h0l-.068.01-.028.022-.061.089h0l-.046.032h0l-.079-.066-.047.011-.018.038.034.105,0,.033-.036.094.011.145-.024.038h0l-.054.02h0l-.137.009h0l-.064.029-.055.078.028.108.015.129-.005.07-.052.057h-.063l-.128-.116-.054-.022-.072.01h0l-.144.108-.077.123h0l-.062.049h0l-.1.1-.086.128-.073.193-.033.047h0l-.071.042h0l-.054-.02h0l-.042-.1-.043,0h0l-.109.026h0l-.215-.022h0l-.031.03,0,.053-.086.1-.14.024h0l-.1.032h0l-.035,0h0l0-.012-.022-.055v-.106l-.045-.054-.046-.091-.07-.056h0l-.092,0-.125.053-.087.082-.08.01h0l-.046-.026-.075,0-.072.032-.26.022-.3.053h0l-.189-.009-.174-.051h0l-.1-.13-.129-.054-.148-.022-.058.016-.051,0-.068-.057-.008-.056.035-.076.087-.1,0-.105-.073-.078-.065-.011-.059.037-.075-.022-.008-.07.025-.086-.056-.047-.089.006-.107.047h-.065l-.055-.019-.021-.09-.109-.075-.014-.076.074-.161.064-.07-.018-.129-.055-.083-.124.005-.046-.028-.052-.121-.03-.14-.017-.294-.044-.058-.082-.03-.1.031-.13-.069-.067-.074-.023-.081.034-.064-.025-.044-.046-.009-.111.016-.135,0-.115.043-.136.084-.067.017-.078-.055-.028-.113.035-.126-.024-.045-.134-.068-.073.01-.034.074-.071.04-.068.072-.187.1-.224.305-.083.082-.062.008-.1-.042-.173-.039h-.086l-.024.051.017.128-.044.039h-.105l-.128.034-.069-.048.012-.045,0-.2-.042-.252-.032-.032-.1,0-.243.076-.091.011-.124-.049-.007-.058.032-.077.018-.067-.014-.075-.052-.06-.1-.028-.109.036-.081.089-.022.235.12.206,0,.056-.04.063-.113.03-.093.077-.089.154-.112.109-.028.08.011.192.054.091.061.015.013.07-.011.069-.056.147-.084.163-.011.184.005.11-.014.139-.036.174-.069.1.024.207-.073.1-.107.032,0,.1.066.079.094-.013.13-.047.049.046-.007.123.032.15.143.167.054.109.119.043.191-.058.17.048.008.152-.083.066-.025.236.11.194.115.008.032.1-.057.219-.171.024-.194.068-.009.128.142.359.14.066.016.228-.192.226.145.119.206.107.082.2-.066.239.008.258.033.3.209.209.171.089-.04.1.035.129h.185l.2.065.154.382-.317.033-.4.016-.115-.132-.417-.133-.185.076-.275.45v.136l.1.083.148.37-.231.47-.124.208-.059.16.074.1-.131.311-.241.15-.008.375-.091.174-.067.491.041.148-.124.206-.024.163-.2.041v.106l.134.084.056.072-.088.161-.374.05-.026.137.035.12.289.041v.142l-.114.057-.24.249-.215.1-.176.143v.169l.1.148-.049.106.008.1.082.058-.025.18-.026.287-.04.075.028.16.016.122.142.176-.042.133.106.155.059.176v.1l-.05.108v.128l.131.123.1.167.067.176-.017.342h0l.017-.342-.067-.176-.1-.167-.131-.123v-.128l.05-.108v-.1l-.059-.176-.106-.155.042-.133-.142-.176-.016-.122-.028-.16.04-.075.026-.287.025-.18-.082-.057-.008-.1.049-.106-.1-.148v-.169l.176-.143.215-.1.24-.249.114-.057v-.142l-.289-.041-.035-.12.026-.137.374-.05.088-.161-.056-.072-.134-.084v-.106l.2-.042.024-.163.124-.206-.041-.148.067-.491.091-.174.008-.375.241-.15.131-.311-.074-.1.059-.16L912.1,969l.231-.47-.148-.37-.1-.083v-.136l.275-.45.185-.076.417.133.115.132.4-.016.317-.033-.154-.382-.2-.065h-.185l-.035-.129.04-.1-.171-.089-.209-.209-.033-.3-.008-.258.066-.239-.082-.2-.206-.107-.145-.119.192-.226-.016-.228-.14-.066-.142-.359.009-.128.194-.068.171-.025.057-.219-.032-.1-.115-.008-.11-.194.025-.236.083-.066-.008-.152-.17-.048-.191.058-.119-.043-.054-.109-.143-.167-.032-.15.007-.123-.049-.046-.13.047-.094.013-.066-.079,0-.1.107-.032.073-.1-.024-.207.069-.1.036-.174.014-.139-.005-.11.011-.184.084-.163.056-.147.011-.069L912,961.1l-.061-.015-.054-.091-.011-.192.028-.08.112-.109.089-.154.093-.077.113-.03.04-.063,0-.056-.12-.206.022-.235.081-.089.109-.036.1.028.052.06.014.075-.018.067-.032.077.007.058.124.049.091-.011.243-.076.1,0,.032.032.042.252,0,.2-.012.045.069.048.128-.034h.105l.044-.039-.017-.128.024-.051h.086l.173.039.1.042.062-.008.083-.082.224-.305.187-.1.068-.072.071-.04.034-.074.073-.01.134.068.024.045-.035.126.028.113.078.055.067-.017.136-.084.115-.043.135,0,.111-.016.046.009.025.044-.034.064.023.081.067.074.13.069.1-.031.082.03.044.058.017.294.03.14.052.121.046.028.124-.005.055.083.018.129-.064.07-.074.161.014.076.109.075.021.09.055.019h.065l.107-.047.089-.006.056.047-.025.086.008.07.075.022.059-.037.065.011.073.078,0,.105-.087.1-.035.076.008.056.068.057.051,0,.058-.016.148.022.129.054.1.13.174.051.189.009h0l.3-.053.26-.022.072-.032.075,0,.046.026h0l.08-.01.087-.082.125-.053.092,0h0l.07.056.046.091.045.054v.106l.022.055,0,.012.035,0h0l.1-.032h0l.14-.024.086-.1,0-.053h0l.031-.03h0l.215.022h0l.109-.026h0l.043,0h0l.042.1.054.02h0l.071-.042.033-.047.073-.193.086-.128h0l.1-.1h0l.062-.049.077-.123h0l.144-.107h0l.072-.01.054.022.128.116h.063l.052-.057.005-.07-.015-.129-.028-.108.055-.078h0l.064-.029h0l.137-.009h0l.054-.02.024-.038-.011-.144.036-.094,0-.033-.034-.1.018-.038.047-.011.079.066h0l.046-.032.061-.089h0l.027-.022.068-.01.033-.047.012-.046-.006-.072,0-.091-.053-.133.014-.077h0l.077-.036.1,0h0l.088-.007h0l.048-.031.01-.061-.042-.187.033-.109.039-.083.009-.069,0-.046.018-.023h0l.029-.015h0l.035,0h0l.04.011.08.035h0l.054.03h0l.016.009.014.008h0l.014.03.019.023.038.005h0l.029-.011h0l.024-.021.013-.024,0-.045,0-.035-.04-.071-.052-.1-.048-.062-.014-.034-.007-.036,0-.05.009-.022.017-.023h0l.039-.015h0l.047-.02h0l.046,0h0l.019-.015.031-.061.02-.032h0l.019-.018.024-.008h0l.025.007h0l.06.018h0l.07-.016h0l.08,0h0l.064.009h0l.025-.015.005-.03v-.038l-.011-.024-.048-.016-.171-.026h0l-.115-.092-.038-.02h0l-.025,0-.025.012-.111.1-.021.008-.037.011-.021-.012-.019-.02-.007-.023.006-.032.029-.048.091-.1.081-.127.015-.05,0-.039-.015-.048-.018-.054v-.046l.013-.032.013-.047.019-.015.064-.017.041-.042.02-.039-.006-.047-.029-.04-.045-.039-.012-.038,0-.034.021-.025.053-.036.034-.009h.042l.042.018.058.07.021.008.022-.006.011-.024.015-.068.031-.058.077-.067.042-.056.009-.042-.006-.063,0-.04.008-.026.034-.038.012-.046,0-.05,0-.038.006-.04.042-.105.015-.055.02-.028.052-.037.024-.04.014-.06,0-.027-.007-.014-.043-.005-.036,0-.047-.036-.019-.032-.012-.051,0-.083.008-.049.02-.026.024-.008.087.041.048,0h.046l.1.033.052-.011.04-.041.02-.059,0-.037-.01-.05.029-.1.111-.067.077-.09.136-.111.083-.038.144.009.046-.016.048-.047.012-.044-.02-.032-.1-.056,0-.064.025-.047.075-.03.146,0,.09.008.055,0,.033-.04.027-.066.026-.2V955.5l.063-.142.009-.061-.046-.027-.05-.009-.05.014-.122.1-.1.073-.059.022h-.05L924,955.45l-.025-.037-.032-.012-.02,0-.08.043-.059.016-.04-.009-.023-.009-.033-.04-.024-.048-.081-.064.007-.1.052-.125.059-.14.034-.051.005-.048-.021-.02-.054,0-.026-.032.021-.113,0-.08.021-.015.062-.012.035-.04.033-.1-.013-.086-.051-.166v-.046l.06-.083,0-.145.008-.1-.031-.063-.132-.07h-.05v-.032l.023-.029.133-.035.2-.048.042-.035.016-.056.063-.112.03-.176.06-.074.02-.025-.017-.047-.069-.058-.053-.041-.023-.067.063-.175.013-.048-.008-.072.075-.073.033-.07-.008-.045-.027-.027-.09-.042-.03-.027-.027-.07-.064-.047-.005-.023.038-.076.075-.036.023-.037.011-.081.015-.116.013-.046.037-.036,0-.022-.019-.066.127-.13.1.049.17.016.046-.024.018-.046-.025-.049-.1-.061-.051-.122-.075-.14-.047-.017-.041.018-.025-.015-.027-.107v-.1l.069-.141-.01-.071-.068-.05-.057,0-.036-.037,0-.032.037-.125-.015-.08-.1-.2-.042-.112.008-.056.031-.039-.012-.062-.04-.065-.13-.046-.048.029-.025-.011-.067-.044-.054,0,.006-.053.092-.132.021-.047-.081-.053-.007-.025v-.1l.017-.034.051-.026.093-.031.024-.071-.011-.034-.142-.039-.065-.071-.039-.121.008-.085-.018-.047-.038-.013-.056.038-.034-.027-.01-.044.061-.1.018-.081.073-.048.028-.07,0-.026-.056-.044-.029-.047-.169-.032-.043-.033-.027-.1.037-.048.049-.017.063,0,.018.018.011.033.027,0,.028-.031.013-.1.043-.088.073-.089v-.036l-.076-.118-.021-.072-.091-.095-.008-.035.028-.058.066-.11.045-.186v-.076l-.128-.162-.038-.029-.008-.042.031-.047.053-.028.094,0,.088-.05.045-.03v-.03l-.034-.041-.057-.019-.05,0-.044.029-.043-.01-.088-.077-.057-.046,0-.041.047-.02.15.021.129.006.053-.021,0-.085.009-.065-.058-.069-.071-.027-.073-.058-.02-.042-.008-.074.046-.092.1-.06.067-.064.028-.06.047-.046.01-.047-.022-.025-.048-.025-.038-.082,0-.012-.009-.057-.04-.043-.084-.024-.018-.008-.174-.075-.093-.1-.091-.192-.038-.037-.052-.03-.022-.032.017-.073.013-.078-.009-.053-.056-.053-.029-.081-.014-.051-.013-.032,0-.054-.024-.044.013-.031.03-.02.089-.04.065-.042.036-.052.053-.035h.025l.027.012,0,.02-.006.018.1-.017.125-.038.154-.112.053-.019.106,0,.066.015.078-.042.076-.025.035-.03.032,0,.024.031.04.092.02.013.048-.016.023-.064,0-.071.034-.043.034-.007.05.02.031.03.021.066.041.028.015,0,.019-.012.019-.045,0-.015.021-.105.035-.092,0-.029-.006-.058,0-.032-.013-.012h-.037l-.016-.017.021-.049.141-.059.016-.019-.036-.049-.049-.039-.07,0-.059-.005-.023-.056.014-.1.024-.021.109-.013.117.012.039-.015.089-.067.015-.044.012-.083,0-.065.035-.07,0-.059.042-.064.046-.014.037.011.028.034.02.03.041.005.033-.02.016-.033,0-.041-.011-.085.024-.1.028-.053,0-.016,0-.029-.036-.033-.153-.112-.023-.041v-.076l0-.067-.011-.047-.021-.028-.029-.006-.086.016-.031-.006-.019-.03.008-.054-.011-.058-.041-.1-.043-.207-.038-.092,0-.116-.017-.124-.029-.13v-.054l-.012-.04v-.027l.018-.046,0-.039.005-.016-.023-.031-.062-.028-.032-.034-.015-.064.012-.056.073-.029,0-.077,0-.048.031-.064.006-.039-.033-.131-.032-.076,0-.076.046-.081.027-.1v-.04l-.051-.114v-.022l.036-.058.035-.019.011-.021-.006-.039-.118-.09-.027-.053-.014-.044.03-.138.053-.1.026-.028.031,0,.068.115.056.043.04,0,.015.009.011,0,.009-.018,0-.023-.023-.051-.029-.025H924.8l-.021-.016.007-.036.026-.039.083-.06.025-.028.009-.034-.008-.026-.072-.048-.038-.072-.056-.012-.016-.042.019-.035.024-.01.035.022.025-.007.013-.016-.007-.026-.03-.039,0-.041.006-.033.023-.019.013-.027-.016-.044-.019-.036,0-.04.014-.028.047-.045.072-.018.03,0,.019-.017,0-.1.013-.054.01-.05.023-.037.041-.058-.005-.03-.062.005L925,938Z" transform="translate(-617.904 -847.878)" fill="#5751c8"/><path d="M848.7,282.242l-.1.051-.059.007-.092,0-.072-.031" transform="translate(-559.668 -232.385)" fill="none" stroke="#eaecff" stroke-width="0.5"/><path d="M848.7,282.242l-.1.051-.059.007-.092,0-.072-.031" transform="translate(-559.668 -232.385)" fill="none" stroke="#eaecff" stroke-width="0.5" stroke-dasharray="4 4"/><path d="M908.663,1564.34l-.1.083-.082.247-.083.216-.091.215-.016.157-.024.057.058.175-.059.084v.153l-.174.033v.062l-.108.224v.179l.059.134-.025.067.008.068.172.041.135.261.017.212-.125.159-.031.087.019.025.122-.057.114.062.034.179-.053.133-.188-.06h-.108l-.008.266.041.212.132.124.058.132.093.059-.033.208.278.213.136.077-.008.252.05.24v.128l-.141.183-.008.1.081.242h.139l.173.182.085-.017.076.2.161.081.149-.025.087.044.1.186.009.079-.075.108v.084l.315.157v.111l.14.363.084.126-.026.1-.063.055.189.3-.042.351-.025.168-.177.152-.339.108-.13.2-.008.216-.192.251-.093.1-.222.041-.156.344-.091.406-.057.155.066.106v.236l-.05.1.007.05.089.008.087.147-.027.088-.256.165-.016.117.094.086.32-.033.458-.025.181.086-.076.262.008.243-.142.125-.04.154.057.214.025.131.222.321.216.183.043.146-.083.133.016.1.05.175-.008.135-.091.157.033.207-.091.272.1.187.2.25.033.214.1.064.588.008.138.073.048-.032h.113l.073.089.073-.032.155.094.149.381.236.122h.117l.12.111.017.145-.048.136.185.064.2.16.026.248-.118.093-.1.2.107.452.158.183.026.18-.061.061-.1.073-.041.172-.056.1.156.214-.025.158.08.129.168.1v.083l-.184.084-.131.261.041.294.149.132.051.2-.1.191.049.255v.373l.017.151-.075.175v.119l.288.205.184.184.051.222-.255.179-.073-.016-.069.124.112.137.175.142.051.128-.026.121-.162.086-.077-.008v.089l.114.155.134.118v.08l-.055.082-.179-.1h-.035l-.037.059.08.144.113.073.225.042.078.114-.053.149h-.158l-.047.077.008.22.1.132.05.292v.281l.115.23.092.143-.009.132-.11.034-.055.086.058.165-.044.132-.26-.025-.123.115-.152.084h-.091l-.245.114-.058.125-.155.043-.274-.075-.2.042-.116-.215-.25.081-.125.084h-.222l-.082-.115-.217.056-.154.122-.032.111.074.14-.008.112-.124.174v.085l.255.181.151.209.083.258.075.192.009.122-.127.068-.054.07.055.126.175.075.051.16.1.149.057.131.142.083.043.172-.167.309-.211.159-.282.1-.349.044-.3-.044-.3-.029-.228-.116" transform="translate(-615.617 -1435.838)" fill="none" stroke="#eaecff" stroke-linejoin="bevel" stroke-width="0.5"/><path d="M521.035,2069.657l.241-.073.241-.13.228-.13.2-.174.188-.159.161-.2.188-.159.161-.2.121-.232.161-.188.148-.2.2-.174.268-.1.295.044.3.072.282-.029.241-.145.188-.159.121-.232.067-.26.04-.29v-.97l-.04-.347-.04-.362-.081-.3-.067-.319-.04-.362-.04-.347.2-.1.228.116.228.116.2.159.174-.043.067-.275-.08-.695-.04-.362-.04-.347v-.333l-.04-.348v-.318l.04-.3.148-.188.241-.13.308-.073h.322l.228.116.2.145.174.2.161.232.2.159.2.145.188.159.242.159.2.159.228.116.228.116.228.116.255.073.228.159.242.116.188.159.228.116.2.159.2.145.188.159.174.2.161.188.134.231.174.2.134.232.134.246.161.188.174.2.188.145.2.159.228.116.255.087.228.116.2.159.161.188.174.2.134.232.161.188.134.246.268.463.107.275.107.275.067.318.04.347.04.362.04.347.04.362v.318l.04.347.04.362.134.231.134.231.228.058.147-.2.2-.2.148-.2.121-.217.08-.26.067-.26.121-.232.08-.26.04-.289.081-.26.04-.289.067-.26.081-.26.121-.232.161-.188.228-.145.242-.13.349-.043.255.087.2.145.134.246.134.231.134.232.134.246.134.231.161.188.174.2.2.159.282.029.282-.1.188-.159.161-.2.121-.217-.04-.362-.081-.318-.067-.3-.107-.275-.094-.275-.107-.275-.134-.246-.107-.275-.067-.3v-.333l.08-.246.121-.231.148-.2.121-.231.12-.217.121-.231.107-.232.081-.26.04-.29.04-.29" transform="translate(-252.403 -1901.462)" fill="none" stroke="#eaecff" stroke-linejoin="bevel" stroke-width="0.5"/><path d="M848.45,2017.49l-.161-.2-.161-.2-.134-.232-.174-.188-.228-.116-.255-.087h-.322l-.3-.044-.255-.072-.228-.116h-.644l-.322.073-.282.1-.228.13-.161.2.067.319.107.275.04.348V2018l-.161.2-.107.232-.08.26-.04.29.04.347.04.362.107.275.134.232.094.275.107.275.067.319-.228.13-.362.043-.255-.087h-.644l-.282.116-.147.188-.161.2" transform="translate(-554.56 -1860.007)" fill="none" stroke="#eaecff" stroke-linejoin="bevel" stroke-width="0.5"/><path d="M491.388,1967.8l.134.247.148.232.094.275.081.3v.333l.04.348v.333l-.04.29v.319l.054.348v.333l.04.348.067.319.081.319.067.3.161.2.242.116.134.232.067.319-.081.579-.067.261-.081.261-.121.232-.174.058-.255-.087-.2-.145-.255-.087-.322.015-.349.029-.2.174-.013.246.148.231.134.246.268.463.107.275.067.319.067.3.054.362.067.319.04.347.081.319.067.318.081.695.04.362.04.347.04.362.081.3.067.318.107.275.067.318.081.318.067.3.081.318v.318l.013.145" transform="translate(-223.87 -1814.549)" fill="none" stroke="#eaecff" stroke-linejoin="bevel" stroke-width="0.5"/><path d="M343.283,1328.27l-.04.292-.04.291v.321l-.027.306-.04.292v.32l-.04.292v.335l.013.321v.656l-.081.583.081.32.161.2.241.1.228.116.2.16.04.364.134.233.268.073.228.116.268.087.188.146.148.248.161.189.228.117.268.087.3.029.2.16.107.277.04.364.04.349.107.277.161.2.174.189.134.233.107.276-.121.233-.2.175-.148.2-.081.247-.04.306.081.306.04.364.107.276.107.276.094.276.107.276.081.32.067.305.081.32.067.32.081.32.094.276.148.233.134.233.2.16.228.116.255.073.242.116.255.087.089.07.113.09.2.145.134.247.134.233.081.32v.073l-.04-.073.04.349v.334l.04.349.04.364.081.305.04.364.04.349.04.364.081.32.04.349.081.32.04.349.04.364.04.349.04.364.067.32.054.349.04.363v.639l-.081.262-.067.261-.121.232-.161.523v.32l.054.363.094.276.147.233.161.189.161.2.148.233.094.276.054.363.04.348v.319l.04.363v.319l.04.363v.319l.053.363v.639l.04.363.04.348.04.363.04.348.04.363.013.319.04.348.067.319.081.319.067.3.081.319.094.276.107.276.215.551.094.276.148.232.094.275.081.319.067.319.04.348.04.363.013.319v.972l-.081.261.013.319-.04.29v.333l.067.3" transform="translate(-85.315 -1214.248)" fill="none" stroke="#eaecff" stroke-linejoin="bevel" stroke-width="0.5"/><path d="M252.641,296.564l-.5-5.085,1.335-.094-.582-1.7.819-1.2.151.33,1.228-.024-.194-.918.711-1.508-.065-.589-.8-.613-.086-1.367.84-1.556-.708-2.4.363-1.236-.237-.425.517-.425-.237-.142.323-.26.108-.873-.151-2.124.409-.425-.409-1.015.043-1.322-.431-.614.194-.165-.711-.472.194-.449-.625.047-.151-.26-.043-1.3" transform="translate(0 -219.384)" fill="none" stroke="#eaecff" stroke-linejoin="bevel" stroke-width="0.5"/><path d="M260.348,727.676l.148.119.161.19.174.205.174.19.134.249.134.235.054.352-.04.308-.161.527-.107.234-.242.469-.161.527-.04.293-.067.264v.322l.174.205.161.19.04.293-.161.527.04.293.134.234.174.2.161.19.174.2.148.234.134.234.107.278.107.278.107.293.107.278.067.307.04.366.054.351.067.322.04.366.081.322.067.307.081.322.08.322.04.366.04.351.04.366.04.351.054.366.04.351.04.366v.322l-.027.292.04.366.134.234.2.161.2.161.174.19.161.2.148.234.067.322.081.322.107.278.107.277.067.322.134.234.148.234.134.248.161.19.107.277.081.322.04.351v.336l-.027.292-.04.292.067.321.107.277.107.278.215.555.04.365.04.351.081.321.04.365-.121.219-.161.2-.148.2-.161.2-.121.219-.067.263-.121.234-.2.175-.161.2-.188.161-.161.2-.081.263-.04.292.04.365.054.35.04.365.04.35v.657l.013.321.04.365.04.35.04.365.081.321.04.35.04.365v.321l.054.35v.336l.04.365.04.35.107.277.134.233.174.2.161.19.148.248.094.277.107.277.08.306.04.364.04.35.013.335v.321l-.04.291-.081.262-.04.306-.027.291" transform="translate(-7.707 -650.496)" fill="none" stroke="#eaecff" stroke-linejoin="bevel" stroke-width="0.5"/><path d="M281.629,49.819l6.074-.071-.147,3.122.707.681.151,1.582.323-.094,1.055.968.732-.354.237-1.086.689.071.237-.354.388.259-.215-.354.323-.33.5.142.345-.425.862-3.448.668-.213,1.142.26,1.142-.449.6-4.206.668-.142.151.354h.388l.409-.78,1.271-.213.323-.378.3-1.017.345-.118,2.391-6.956.56-.734,1.831,4.97-.108.45.431-.024,1.056.993-.3.544.389.71.537-.142.883-1.04,1.357-.166.258.426.474-.047.259-.946,1.185.922.732-.473.452.473.733-.639h.624l.172.118.409.118" transform="translate(-27.683 -0.812)" fill="none" stroke="#eaecff" stroke-linejoin="bevel" stroke-width="0.5"/><path d="M1094.394,473.82l.037-.013.012-.025-.008-.021-.035-.012-.044,0-.031.034-.037-.028-.064-.076-.023-.041-.041-.025-.016-.056.013-.06.025-.023.074-.018.039-.034.016-.04v-.085l.016-.082,0-.021-.028-.02-.064.008-.013-.024.019-.061v-.1l.053-.106.005-.029-.023-.147v-.042l-.007-.082,0-.114.01-.069.019-.063V472.3l-.014-.029-.025-.02,0-.022.041-.028.059-.018.016-.024,0-.021-.021-.042.007-.057.019-.062.036-.1.016-.019.029,0,.059.01.05,0,.1.013.015-.011.031-.078.029-.035,0-.023-.026-.055-.017-.044-.009-.068.02-.035.029-.01.135.026.055-.023.025-.022,0-.1,0-.144,0-.072.075-.047.023-.026.07-.146.106-.168.006-.038.005-.068.018-.023.032-.16.066-.084.045-.04.012-.053v-.063l-.021-.061-.032-.041-.062-.04-.024-.03-.014-.042-.016-.074v-.056l.006-.057-.029-.081-.029-.059-.017-.051-.034-.06-.007-.041.005-.054-.009-.029-.01-.022-.021-.011-.041,0-.037.007-.025-.008-.019-.017-.015-.032-.006-.019,0-.023.007-.02.016-.017.018-.01.016,0,.1.006.027-.007.02-.013.014-.023,0-.017v-.021l-.013-.022-.031-.027-.035-.019-.024-.006h-.034l-.043-.028-.012-.012-.007-.025v-.011l.007-.012.016-.021.016-.022,0-.009.005-.007.023.011.017.043h.014l.013-.009.027-.028.05-.021.012-.01v-.035l.009-.072.03-.06,0-.04-.01-.08.011-.032.029-.005.032.029.029.049.085.046.017.012h.012l.033-.049.02-.01h.034l.035-.027.048-.051,0-.018-.032-.083-.005-.07.022-.047.025-.1.012-.062-.017-.192.021-.065.043-.1.034-.008.023,0,.022,0,.009-.019.036-.03.035-.019.066-.047.009-.029,0-.021-.031-.051-.032-.04-.014-.007-.035.005-.01-.018,0-.041.02-.032.005-.044.018-.022.033-.017,0-.008-.014-.023-.035-.041,0-.023-.037-.044,0-.047.012-.067.021-.041,0-.013-.019-.012h-.015l-.022.006-.01.017-.02.007-.008-.021-.009-.041-.014-.034.022-.007.047.031.01-.006v-.013l-.062-.067-.013-.017-.026,0-.064.005-.026-.014-.006-.021.006-.021.067-.023.038-.028.024-.009,0-.025-.016-.018-.036-.038-.023-.031-.006-.013-.01,0-.027.019-.015,0-.016-.044v-.018l.014-.037.013-.061v-.034l-.05-.022-.02-.04-.009-.042.009-.017.077-.033,0-.062.01-.038,0-.079-.011-.026-.032-.052-.012-.04-.012-.086-.029-.05,0-.039-.013-.04-.005-.036.01-.013.016.007.024.012.016,0,.022-.012.021,0,0-.007v-.005l-.016-.023v-.028l.014-.025v-.017l-.014-.031-.011-.008-.017,0,0-.018.079-.035.058-.039.039-.058v-.012l0-.005-.055-.022-.036-.018-.006-.018,0-.037.014-.047.028-.04.006-.019,0-.008-.03-.01-.052-.017-.031,0-.018-.009-.005-.019-.031-.011-.049-.01-.036-.017-.015-.007-.021,0-.014-.02.01-.054-.013-.029,0-.03.008-.051.012-.028-.006-.008-.02-.009-.011-.017,0-.046.008-.049.026-.04.02-.032,0-.063,0-.026,0-.011h-.015l-.019-.019,0-.021,0-.019-.016-.024-.014-.009-.019,0-.011-.019.02-.027.07-.015h.038l.022.006.031-.015.023-.022.005-.02-.022-.02-.04-.008,0-.015.065-.048.01-.023.02-.005.04-.005.013-.035-.007-.023-.017-.01h-.023l-.014.006-.017.02h-.02l-.008-.012-.01-.049.058-.032.035,0,.018-.009.031-.006.01-.072.018,0,.024,0,.015.007.007-.006-.013-.075v-.026l0-.01-.024-.029,0-.014,0-.012-.035-.014-.017-.025-.026-.02v-.019l.036-.015.03,0,.023-.012.022-.024.026-.022.027.01.006,0,.013-.025v-.026l-.013-.016,0-.022.011-.028.007-.04.026-.029.027-.015.012-.016v-.021l.044-.019.014-.022.022-.012V463.6l-.017-.022,0-.026.017-.025.012,0,.024,0,.011-.009.008-.042.024-.052.009-.034.015-.024.007-.081.025-.017,0-.016.01-.015.044-.021.018-.007.016-.017.011-.02.059-.063.038-.032.038-.03v-.012l-.011-.009-.029-.008-.009-.019.006-.019.021-.025,0-.02,0-.018-.024-.021v-.018l.011-.011.054,0,.03-.01,0-.008-.031-.011-.008-.014.011-.067-.025-.168-.442-.1-.194-.294-.135-.35-.278-.111-.27-.221-.067-.267.118-.239.017-.322-.008-.294-.253-.377-.034-.451-.21-.184-.261-.331-.051-.248.059-.267.034-.571v-.626l.278-.322.152-.359-.1-.433-.1-.147-.143-.166-.236-.433-.126-.313-.034-.58-.118-.442.034-.415-.008-.24.076-.331-.109-.378.017-.313.059-.415.118-.442.076-.479.042-.451.051-.277.008-.24-.084-.212-.024-.17-.413-.18-.393-.017-.264.136-.194-.12-.236-.221-.177-.157-.109-.175-.05-.369-.118-.313-.16-.267-.16-.258v-.184l-.093-.2-.185-.212-.219-.185-.135-.184.1-.184.151-.129-.042-.138.011-.322-.016-.715-.025-.071-.1-.069-.025-.071-.073-.07,0-.167.071,0,.048.047.213-.005.094-.026.046-.049,0-.191h-.047l-.049-.071-.072-.022,0-.072-.048-.046-.167-.02-.072-.046,0-.215.047-.025.118-.027.093-.1.021-.12-.073-.094-.142,0-.213.028-.073-.07-.051-.142-.049-.184" transform="translate(-787.298 -383.74)" fill="none" stroke="#eaecff" stroke-linejoin="bevel" stroke-width="0.5"/><path d="M1024.06,962.459l.174.051.189.009.3-.053.26-.022.072-.032.075,0,.045.026.08-.01.087-.082.126-.053.092,0,.07.056.046.091.045.054v.106l.022.055,0,.012.035,0,.1-.032.14-.024.086-.1,0-.053.031-.03.216.022.109-.026.043,0,.042.1.054.02.072-.042.032-.047.073-.193.086-.128.1-.1.062-.049.077-.123.144-.108.072-.01.054.022.128.116h.063l.052-.057.005-.07-.015-.129-.028-.108.055-.078.064-.029.137-.009.054-.02.024-.038-.011-.145.036-.094,0-.033-.033-.1.018-.038.047-.011.08.066.046-.032.061-.089.028-.022.069-.01.033-.047.012-.046-.006-.072,0-.091-.053-.133.014-.077.077-.036.1,0,.088-.007.048-.031.01-.061-.042-.187.033-.109.039-.083.009-.069,0-.046.018-.023.03-.015.035,0,.04.011.08.035.054.03.03.016.014.03.019.023.038.005.029-.011.024-.021.013-.025,0-.045,0-.035-.04-.071-.052-.1-.048-.062-.014-.034-.007-.036,0-.05.009-.022.018-.023.039-.015.046-.02.046,0,.019-.015.031-.061.02-.032.019-.018.024-.008.025.007.06.018.07-.016.081,0,.064.009.025-.015.006-.03v-.038l-.011-.024-.048-.016-.171-.026-.115-.092-.038-.02-.025,0-.025.012-.111.1-.021.008-.037.011-.021-.012-.019-.02-.007-.023.005-.032.029-.048.091-.1.081-.126.015-.05,0-.039-.015-.048-.019-.054v-.046l.013-.032.013-.047.019-.015.064-.017.041-.042.019-.039-.006-.047-.029-.04-.045-.038-.013-.038v-.033l.021-.025.053-.035.034-.009h.042l.042.018.058.07.022.008.022-.006.011-.024.015-.068.031-.058.077-.067.042-.056.009-.042-.006-.063,0-.039.008-.026.034-.038.012-.046,0-.05,0-.038.006-.04.042-.105.015-.055.02-.028.052-.037.024-.04.014-.06,0-.028-.007-.014-.043-.005-.036,0-.046-.036-.02-.032-.011-.052,0-.083.008-.049.02-.026.024-.008.087.041.048,0h.045l.1.033.052-.011.04-.041.02-.059,0-.037-.01-.05.029-.1.111-.067.077-.09.136-.111.083-.038.144.009.046-.016.048-.047.012-.044-.02-.032-.1-.056,0-.064.025-.046.075-.03.146,0,.09.008.055,0,.033-.04.027-.066.026-.2V955.5l.063-.142.009-.061-.046-.027-.05-.009-.05.014-.122.1-.1.073-.059.022h-.05l-.029-.013-.025-.037-.032-.012-.02,0-.08.043-.059.017-.04-.009-.023-.009-.033-.04-.024-.048-.081-.064.007-.1.052-.125.059-.14.034-.051.005-.048-.021-.02-.054,0-.027-.032.021-.113,0-.08.021-.015.062-.012.035-.04.034-.1-.013-.086-.051-.166v-.046l.06-.083,0-.145.009-.1-.031-.063-.132-.07h-.05v-.032l.023-.029.133-.035.2-.048.042-.036.016-.056.063-.112.03-.176.06-.074.02-.025-.017-.047-.069-.058-.053-.041-.023-.067.063-.175.013-.048-.008-.072.075-.073.033-.07-.008-.045-.027-.027-.09-.042-.03-.027-.027-.07-.064-.047-.005-.023.039-.076.075-.037.023-.037.011-.081.015-.116.013-.046.037-.036,0-.022-.019-.066.127-.131.1.049.17.016.046-.024.018-.046-.025-.049-.1-.061-.051-.122-.075-.14-.047-.017-.041.018-.025-.015-.028-.107v-.1l.07-.141-.01-.071-.068-.05-.057,0-.035-.037,0-.032.037-.125-.015-.08-.1-.2-.042-.112.008-.056.031-.039-.012-.063-.04-.065-.13-.046-.048.029-.025-.011-.067-.044-.054,0,.006-.053.092-.132.021-.047-.081-.053-.007-.025v-.1l.017-.034.051-.026.093-.031.024-.071-.011-.034-.142-.039-.065-.071-.039-.121.008-.085-.018-.047-.038-.013-.056.038-.034-.027-.01-.044.061-.1.018-.08.073-.048.028-.07,0-.026-.056-.044-.029-.047-.169-.032-.043-.033-.027-.1.037-.048.049-.017.063,0,.018.018.01.033.027,0,.028-.031.013-.1.043-.088.073-.089v-.036l-.076-.118-.021-.072-.091-.095-.008-.035.028-.057.066-.11.045-.186v-.076l-.128-.162-.038-.029-.008-.042.031-.047.053-.028.094,0,.088-.05.044-.03v-.03l-.034-.041-.057-.019-.05,0-.044.029-.043-.01-.088-.077-.057-.046,0-.041.047-.02.15.021.129.005.053-.021,0-.085.009-.065-.058-.069-.071-.027-.073-.059-.02-.042-.008-.074.046-.092.1-.06.067-.064.028-.059.047-.046.01-.047-.022-.025-.048-.025-.038-.082,0-.012-.009-.057-.04-.043-.084-.024-.018-.008-.174-.075-.093-.1-.091-.192-.038-.037-.052-.03-.022-.032.017-.073.013-.078-.009-.053-.056-.053-.029-.081-.014-.051-.013-.032,0-.054-.024-.044.013-.032.03-.02.088-.04.065-.042.036-.052.053-.035h.025l.027.012,0,.02-.006.018.1-.017.125-.038.154-.112.053-.018.106,0,.066.015.078-.042.076-.025.035-.03.032,0,.024.031.04.092.02.013.048-.016.023-.064,0-.071.034-.043.034-.007.05.02.031.03.021.066.041.028.015,0,.02-.012.019-.045,0-.015.021-.105.035-.092,0-.029-.006-.058,0-.032-.013-.012-.037,0-.017-.017.021-.049.141-.059.016-.019-.036-.049-.049-.039-.07,0-.059-.005-.023-.056.014-.1.024-.021.109-.013.117.012.039-.014.089-.067.015-.044.012-.083,0-.065.035-.07,0-.059.042-.064.046-.014.037.011.028.034.02.03.041.005.033-.02.016-.033,0-.041-.011-.085.024-.1.028-.053,0-.016,0-.029-.036-.033-.153-.112-.023-.041v-.076l0-.067-.011-.047-.021-.028-.029-.006-.086.016-.031-.006-.02-.03.008-.054-.011-.058-.042-.1-.043-.207-.038-.092,0-.116-.017-.124-.029-.13v-.054l-.012-.04v-.027l.018-.046,0-.039.005-.016-.023-.031-.062-.028-.032-.034-.015-.064.012-.056.073-.029,0-.077,0-.048.031-.064.006-.039-.033-.131-.032-.076,0-.076.046-.08.027-.1v-.041l-.051-.114v-.022l.035-.058.035-.019.011-.021-.006-.039-.118-.09-.027-.053-.015-.044.03-.138.053-.1.026-.028.031,0,.068.115.056.043.04,0,.015.009.011,0,.01-.018,0-.023-.023-.051-.029-.025h-.025l-.021-.016.007-.036.026-.039.083-.06.025-.029.009-.034-.008-.026-.072-.048-.038-.072-.056-.012-.016-.042.019-.035.024-.01.034.022.025-.007.013-.016-.008-.026-.03-.039,0-.041.007-.033.023-.019.013-.027-.016-.044-.019-.036,0-.04.014-.028.046-.045.072-.018.03,0,.02-.017,0-.1.013-.054.01-.05.022-.037.041-.058-.006-.03-.062.005-.021-.023v-.046" transform="translate(-724.572 -847.881)" fill="none" stroke="#eaecff" stroke-linejoin="bevel" stroke-width="0.5"/><path d="M815.933,137.375l1.142.686-.345.544.237.307-.022,1.466,1.055.166-.388,1.324-1.309,2.025.275.457-.345.945.948,1.134-.345.189.151.992-.28.543-.646.118.366.826-.366.425.108.708-.6.4-.172,1.133-.754.4.043.378.1.128.953-.1,2.757,1.369,1.249-.661,1.1,1.534-.065,1.533,1.378-.991.28-.8.6-.472,1.077.684v1.062l2.261.259.474-1.934.474.142.56-.071.754.661.151.66-.689,1.392.129.542.9-.542.689-.92,1.76.142" transform="translate(-527.999 -96.405)" fill="none" stroke="#eaecff" stroke-linejoin="bevel" stroke-width="0.5"/><path d="M922.381,1265.09l0,.034.013.038.045.039.029.04.006.047-.019.039-.041.042-.064.017-.019.015-.013.047-.013.032v.046l.018.054.015.048,0,.039-.015.05-.081.126-.091.1-.029.048-.005.032.007.023.019.02.021.012.037-.011.021-.008.111-.1.025-.012.025,0,.038.02.115.092.171.026.048.016.011.024v.038l-.005.03-.025.015-.064-.009-.081,0-.07.016-.06-.018-.025-.007-.024.008-.019.018-.02.032-.031.061-.019.015-.046,0-.047.02-.039.015-.017.023-.009.022,0,.05.007.036.014.034.048.062.052.1.04.071,0,.035,0,.045-.013.024-.025.021-.029.011-.038,0-.019-.023-.014-.03-.03-.016-.054-.03-.08-.035-.04-.012-.035,0-.029.015-.018.023,0,.046-.009.069-.039.083-.033.109.042.187-.01.061-.048.031-.088.007-.1,0-.077.036-.014.077.053.133,0,.091.006.072-.012.045-.033.047-.068.01-.028.022-.061.089-.046.032-.08-.066-.047.011-.018.038.033.1,0,.033-.036.094.011.144-.025.038-.054.02-.137.009-.064.029-.055.078.028.108.015.129-.005.07-.052.057h-.063l-.128-.116-.054-.022-.072.01-.144.108-.077.123-.062.049-.1.1-.086.129-.073.193-.033.047-.071.042-.054-.02-.042-.1-.043,0-.109.026-.215-.022-.031.03,0,.053-.086.1-.14.023-.1.032-.035,0,0-.012-.022-.055v-.106l-.045-.054-.046-.091-.07-.056-.092,0-.125.053-.087.082-.08.01-.046-.026-.075,0-.072.032-.26.022-.3.053-.19-.009-.174-.051-.1-.13-.129-.054-.148-.023-.058.016-.051,0-.068-.057-.008-.056.035-.076.088-.1,0-.105-.073-.078-.065-.011-.059.037-.075-.022-.008-.07.025-.086-.056-.047-.089.006-.108.047h-.065l-.055-.019-.021-.09-.109-.075-.014-.076.073-.161.064-.07-.018-.128-.055-.084-.124.005-.046-.028-.052-.121-.03-.14-.017-.295-.044-.058-.082-.03-.1.031-.13-.069-.067-.074-.023-.081.034-.064-.025-.044-.046-.009-.111.016-.135,0-.115.043-.136.084-.067.017-.078-.055-.028-.113.035-.126-.024-.045-.134-.068-.073.01-.034.074-.071.04-.068.072-.187.1-.224.305-.083.082-.062.008-.1-.042-.173-.039h-.087l-.024.051.017.128-.044.039h-.105l-.128.034-.069-.048.012-.045,0-.2-.042-.252-.032-.032-.1,0-.243.076-.091.011-.124-.049-.007-.058.032-.077.018-.067-.014-.075-.052-.06-.1-.028-.109.036-.081.089-.023.235.12.206,0,.056-.041.063-.113.029-.093.077-.089.154-.112.109-.028.08.011.192.054.091.061.015.013.07-.011.069-.056.147-.084.163-.011.184.005.11-.014.139-.036.174-.069.1.024.207-.073.1-.107.031,0,.1.066.079.094-.013.13-.047.049.046-.007.123.032.15.143.167.054.109.119.043.191-.058.17.048.008.152-.082.066-.025.235.11.194.115.008.032.1-.057.219-.171.025-.194.068-.009.128.142.359.14.066.016.228-.193.226.145.119.206.107.082.2-.066.239.008.258.033.3.209.209.171.089-.04.1.035.129h.185l.2.065.154.382-.317.032-.4.017-.115-.132-.417-.133-.185.076-.275.45v.136l.1.083.148.37-.231.47-.125.208-.059.16.074.1-.131.311-.241.15-.008.375-.091.174-.067.491.041.148-.124.206-.024.163-.2.041v.106l.134.084.056.072-.089.161-.374.05-.026.137.035.12.289.041v.142l-.114.057-.24.249-.215.1-.176.143v.169l.1.148-.049.106.008.1.082.057-.024.18-.026.287-.04.075.028.16.016.122.142.176-.041.133.106.155.059.176v.1l-.05.108v.128l.131.123.1.167.067.176-.017.342-.059.2" transform="translate(-617.845 -1154.944)" fill="none" stroke="#eaecff" stroke-linejoin="bevel" stroke-width="0.5"/><g transform="translate(254.024 41.443)"><g transform="translate(0 0)"><path d="M-1285.873-1346.53c-.02-.163-.092-1.3-.108-1.476a13.581,13.581,0,0,1-.078-1.482,18.7,18.7,0,0,0-.111-2.028c-.178-1.728-.289-3.709-.308-5.464-.013-1.187-.048-1.394-.26-1.548-.186-.135-.224-.264-.156-.53a.639.639,0,0,0-.065-.536c-.117-.139-.118-.261-.006-.5.123-.267.19-.3.4-.188a1.285,1.285,0,0,0,.5.133.609.609,0,0,1,.429.264c.329.49.609.213,1.187-1.177a2.253,2.253,0,0,1,.805-.882,9.694,9.694,0,0,0,1.218-1.039c.614-.63,1.016-.77,1.287-.448.111.133.1.213-.046.333-.311.256-.018.644.486.644.368,0,.434-.056.567-.477.171-.54.129-.675-.21-.675-.3,0-.58-.673-.865-2.108-.194-.979-.2-1.115-.019-1.316.255-.289.113-.246-.025-.539s-.208-.075-.208-.341c0,0-.192-.125-.182-.295,0-.061-.091-.145-.2-.187-.292-.111-.179-.629.171-.781.263-.114.291-.215.291-1.041s-.026-.922-.28-.987c-.236-.061-.254-.1-.114-.271.092-.109.108-.2.037-.2" transform="translate(1312.039 1468.873)" fill="none" stroke="#eaecff" stroke-width="0.5"/><path d="M-1534.13-1552.077a1.23,1.23,0,0,1,.967-.392,1.224,1.224,0,0,1,1.091.46,2,2,0,0,1,.521.616c0,.233.258.315.461.148a.376.376,0,0,0,.123-.37.564.564,0,0,1,.1-.439c.156-.211.18-.2.346.1.1.181.228.33.288.33s.073.144.029.32-.026.32.056.32.232.2.347.438c.16.333.177.5.071.7-.187.345-.176.6.034.812a2.32,2.32,0,0,1,.325.452c.092.17.227.252.344.208.133-.051.192.011.192.2a.4.4,0,0,0,.226.356c.309.113.428.314.344.581-.051.163,0,.224.192.224.479,0,.814,1.121.509,1.7-.11.208-.066.221.5.146a5.274,5.274,0,0,1,2.129.042c.073.072.07.247-.008.45-.2.532-.032,1.236.325,1.325a.586.586,0,0,1,.385.335c.105.327.7.995.885.995a1.856,1.856,0,0,1,.593.384,2.62,2.62,0,0,0,.528.384c.041,0,.08.072.086.16.15,2.333.176,2.427.63,2.224.283-.126.317-.21.272-.671a5.711,5.711,0,0,1,.025-1.087c.068-.5.118-.568.462-.627.246-.042.4-.156.434-.312a1,1,0,0,1,.241-.437c.137-.135.169-.326.11-.649-.208-1.151-.238-1.8-.081-1.8.107,0,.131-.12.076-.368-.115-.516.223-.837.762-.724.22.046.59.117.823.157a1.09,1.09,0,0,1,.705.472,2.51,2.51,0,0,0,.417.484c.611.384.97.718.973.9,0,.231.519.432.817.318s.584.23.808,1c.251.866.274.969.553.839.042-.02.414.036.47.008" transform="translate(1543.965 1638.577)" fill="none" stroke="#eaecff" stroke-width="0.5"/><path d="M-1200.1-1435.3a2.1,2.1,0,0,0,1.36-1.565,4.858,4.858,0,0,0-.032-2.615" transform="translate(1230.425 1532.522)" fill="none" stroke="#eaecff" stroke-width="0.5"/><path d="M-1628.2-2490.175c.141.334.263.439.508.439a.554.554,0,0,1,.4.128c.124.2.271.156.707-.208.262-.219.39-.431.366-.608-.032-.228.037-.279.417-.31.44-.037.463-.065.712-.884.171-.562.334-.866.486-.906.188-.049.214-.143.142-.524a2.439,2.439,0,0,0-.262-.731,3.476,3.476,0,0,1-.147-2.115.658.658,0,0,1,1.081-.232c.321.3.444.311.444.054,0-.3.544-.227.868.111.253.265.356.288.906.2a1.257,1.257,0,0,1,1.04.158c.231.139.422.321.425.4s.114.02.247-.138a.858.858,0,0,1,.573-.288c.408,0,.652-.4.551-.909-.111-.551.294-.723.74-.313a2.066,2.066,0,0,0,.6.389c.145.045.263.135.263.2s.259.082.582.038c.485-.066.582-.044.582.13,0,.153.119.209.442.209a2.4,2.4,0,0,1,.632.072c.262.1.15-.974-.173-1.672a4.165,4.165,0,0,1-.236-1.829,12.693,12.693,0,0,0-.081-1.688.871.871,0,0,1,.127-.688c.139-.209.163-.345.073-.4a.529.529,0,0,1-.136-.4c0-.224-.071-.313-.251-.313-.528,0-.932-1.275-.46-1.454a.374.374,0,0,0,.194-.337.431.431,0,0,1,.306-.378c.441-.166.528-.505.215-.835a1.1,1.1,0,0,1-.262-.684c0-.342.049-.408.3-.408a1.019,1.019,0,0,0,.864-1.063c0-.451-.021-.474-.528-.554-.371-.058-.559-.164-.632-.354a1.634,1.634,0,0,0-.378-.514.8.8,0,0,1-.084-1.1,9.5,9.5,0,0,0,1.234-2.254.192.192,0,0,0-.2-.182,1.059,1.059,0,0,1-.517-.314,1.785,1.785,0,0,1-.242-.281l-.164-.173-.076-.219a4.245,4.245,0,0,0-.516-1.526c-.237-.267-.235-.277.07-.515a1.315,1.315,0,0,0,.4-.712l.089-.47-.8-.09c-1.239-.139-1.329-.284-1.216-1.955.1-1.48.12-1.554.4-1.554.146,0,.186-.211.186-.969v-.969l.648.034c.374.02.7.061.792-.028s.308-.055.463-.055" transform="translate(1632.265 2549.297)" fill="none" stroke="#eaecff" stroke-width="0.5"/><path d="M-1516.417-2764.75c-.183.258.143.751.391,1.013a2.315,2.315,0,0,1,.414.692c.118.335.107.445-.062.612-.248.245-.262.4-.044.478.122.044.127.117.018.3a13.3,13.3,0,0,0-.2,3.038,1.4,1.4,0,0,1-.108.59.386.386,0,0,0,.043.444c.217.293.409.063.515-.618.1-.656.19-.717.5-.344a.7.7,0,0,1,.181.608c-.041.163-.022.3.043.3.191,0,.316-.4.337-1.088.019-.62.032-.641.427-.68.353-.034.42.009.5.316.121.478.634,1,.979,1,.211,0,.309.11.4.444.1.375.136.41.242.223.118-.209.142-.209.438,0,.344.248.422.545.141.545-.172,0-.6.719-.6,1.01,0,.077.116.212.259.3.314.194.37,1.088.074,1.2s-.379.957-.146,1.4.258.7.072.7c-.071,0-.129.084-.129.187s.179.219.441.268c.281.052.464.17.505.326a.344.344,0,0,0,.338.244c.34,0,.59.5.476.951a.528.528,0,0,1-.185.3,3.517,3.517,0,0,1-.449.093" transform="translate(1527.389 2776.494)" fill="none" stroke="#eaecff" stroke-width="0.5"/><path d="M-1408.891-2956.2a.658.658,0,0,0-.114.433c.092.346-.02.628-.249.628-.1,0-.18.058-.18.128s.087.128.194.128c.252,0,.247.252-.011.617-.168.237-.175.326-.041.486.111.133.12.224.029.283a1.717,1.717,0,0,0-.345.491,2.346,2.346,0,0,1-.528.653c-.23.179-.3.327-.244.531s.009.3-.2.354c-.152.039-.276.128-.276.2s.087.094.194.053c.123-.047.194,0,.194.132a.5.5,0,0,0,.2.349,1.03,1.03,0,0,1,.227.654c.022.4-.036.563-.264.745-.162.13-.252.3-.2.38a1.5,1.5,0,0,1,.056.63c-.023.32.02.484.126.484a.782.782,0,0,1,.39.2c.248.222.5.146.5-.148,0-.239.07-.232.386.036.343.291.432.852.26,1.636-.077.352-.176.928-.218,1.28a2.827,2.827,0,0,1-.24.9,2.472,2.472,0,0,0-.25.671.9.9,0,0,1-.278.521c-.211.117-.263.482-.116.824.057.135.039.224-.046.224s-.179.233-.225.517a.926.926,0,0,1-.324.644c-.132.07-.234.169-.226.219a.35.35,0,0,1-.012.156,6.145,6.145,0,0,0-.064.676,1.687,1.687,0,0,1-.247.842,1.622,1.622,0,0,0-.211,1.052,3.115,3.115,0,0,1-.194,1.189,1.663,1.663,0,0,0-.193.54.115.115,0,0,1-.172.108c-.209-.08-.547.866-.494,1.385.02.194-.019.352-.085.352-.161,0-.3,1.047-.158,1.213s.015.835-.155.835c-.071,0-.093.091-.05.2a.606.606,0,0,1-.115.476c-.271.384-.242.6.082.6.252,0,.27.049.2.565a1.771,1.771,0,0,1-.395.9,1.808,1.808,0,0,0-.407,1c-.108.791-.164.908-.364.753s-.476-.186-2.081-.172c-.965.008-1.444.062-1.511.169s-.173.123-.43.007a.827.827,0,0,0-.638-.035c-.232.087-.412.049-.744-.159a1.92,1.92,0,0,0-.816-.278c-.32,0-.385-.062-.429-.387a1.179,1.179,0,0,0-.3-.613.888.888,0,0,1-.23-.364,2.838,2.838,0,0,1-.058-.308" transform="translate(1437.76 2956.2)" fill="none" stroke="#eaecff" stroke-width="0.5"/><path d="M-1409.49-2676.922a.812.812,0,0,1,.269.5.588.588,0,0,0,.225.417c.174.126.236.4.273,1.207s.088,1.029.219.979c.094-.036.6-.139.682-.038.384.458.77.033.77-.847,0-.53,0-.536.4-.458a1.373,1.373,0,0,1,.591.272,1.321,1.321,0,0,0,.823.194c.171-.132.5.012.721.2.192.167.308.343.448.213l.137.3c.213,0,.331.115.331.185s.257.03.266.178c0,0-.105.123.243.188a.6.6,0,0,1,.343.192c.052.08.317-.215.29-.484a7.262,7.262,0,0,1,1.417-.764,2.654,2.654,0,0,0-.58-1.455c-.23-.16-.234-.2-.049-.476s.182-.313-.021-.426-.2-.184-.058-.683a6.553,6.553,0,0,0,.2-.88,3.157,3.157,0,0,1,.184-.692,3.98,3.98,0,0,0,.12-1.22l-.03-.848-.654-.285a3.9,3.9,0,0,0-.816-.284.179.179,0,0,1-.162-.192c0-.107-.115-.192-.263-.192a.376.376,0,0,0-.337.192c-.131.339-.435.218-.435-.172a2.685,2.685,0,0,0-.133-.743,1.329,1.329,0,0,1,.54-1.434,1.049,1.049,0,0,0,.49-1.125.677.677,0,0,0-.56-.354c-.567-.1-.708-.336-.628-1.033a1.729,1.729,0,0,0-.093-.826c-.13-.239-.116-.313.082-.462.389-.292.7-.222.857.194.127.332.2.373.561.327a2.028,2.028,0,0,0,.676-.213c.231-.143.316-.1.771.377a2.267,2.267,0,0,0,.647.538.576.576,0,0,1,.306.164,6.48,6.48,0,0,0,.588.454c.335.233.469.263.679.151a.466.466,0,0,0,.262-.315,1.084,1.084,0,0,1,.388-.5c.458-.381.481-.572.121-1.025-.147-.185-.234-.39-.193-.456s-.036-.311-.17-.545a3.092,3.092,0,0,1-.317-.906c-.059-.394-.025-.5.192-.619s.247-.216.176-.544a7.838,7.838,0,0,1-.018-2.761,6.124,6.124,0,0,0-.04-2.675,3.762,3.762,0,0,1,0-2.037c.106-.1.038-.2-.259-.349-.478-.245-.51-.48-.11-.8a2.487,2.487,0,0,0,.541-1.739,1.245,1.245,0,0,1,.047-.633c.071-.231.165-.58.208-.773.091-.406.333-.476.333-.1,0,.228.1.259.873.283,1.607.05,1.747.027,2.036-.332a.865.865,0,0,1,.589-.337c.642,0,.725-.167.457-.9l-.241-.665.31-.236a1.433,1.433,0,0,1,.4-.239c.239-.007.243-.555.005-.813-.328-.357-.448-.978-.207-1.069.1-.037.178-.222.178-.41a1.259,1.259,0,0,1,.2-.619c.158-.224.171-.39.064-.861a14.532,14.532,0,0,1-.122-2.229,18.029,18.029,0,0,0-.078-2.112c-.088-.465-.153-.51-.889-.62-.174-.026-.254-.151-.27-.421a1.035,1.035,0,0,1,.073-.512.992.992,0,0,0,.117-.311c.01-.042.216-.356.222-.4" transform="translate(1426.97 2730.424)" fill="none" stroke="#eaecff" stroke-width="0.5"/><path d="M-1133.15-2531.521c.031-.024.469-.566.525-.593a2.083,2.083,0,0,1,.39-.137c.337-.08.356-.123.356-.824a2.025,2.025,0,0,0-.126-.865c-.178-.176-.272-1.407-.318-4.162a6.624,6.624,0,0,1-.049-2.367.616.616,0,0,1,.23-.374l.684-.216c.2.022.356.094.356.16,0,.217.24.124.32-.125.11-.343.368-.265.8.242l.37.435.079-.5a7.981,7.981,0,0,1,.539-1.937.272.272,0,0,1,.3-.083c.222.085.244.573.034.78a3.418,3.418,0,0,0-.171.941,1.851,1.851,0,0,0,.488,1.8l.286.346.026-.969c.019-.688.087-1.036.237-1.2a1.31,1.31,0,0,0,.211-.815,2.965,2.965,0,0,1,.248-1.092,2.5,2.5,0,0,0,.248-.7c0-.194.687-.631.806-.513.034.034.137-.027.228-.135.136-.162.128-.239-.046-.429a.8.8,0,0,1-.212-.362c0-.236.468-.555.787-.536a2.463,2.463,0,0,0,.65-.073c.29-.079.4-.018.755.43.23.287.493.522.585.522a.5.5,0,0,1,.317.179,4.281,4.281,0,0,0,1.571.589c.115,0,.113-.048-.008-.192a.524.524,0,0,0-.315-.192c-.244,0-.823-.673-.87-1.012-.033-.232.051-.36.334-.517a1.551,1.551,0,0,0,.848-1.1,2.752,2.752,0,0,1,.2-1.592,1.044,1.044,0,0,0,.2-.587,2.24,2.24,0,0,1,.11-.63.578.578,0,0,0-.03-.463.528.528,0,0,1-.049-.416c.1-.269.477-.272.477,0a1.517,1.517,0,0,0,.184.544,3.979,3.979,0,0,1,.249.548c.046.146.164.189.4.145a.725.725,0,0,1,.5.064.913.913,0,0,0,.547.085.813.813,0,0,1,.676.226c.229.213.328.238.474.118a.5.5,0,0,1,.295-.131,4.425,4.425,0,0,0,.531,0c.375-.014.42-.056.42-.39a.933.933,0,0,1,.206-.578c.231-.228.336-.809.166-.913a.637.637,0,0,1-.168-.883,2.633,2.633,0,0,0,.15-1.247,2.454,2.454,0,0,1,.064-.95" transform="translate(1167.582 2578.835)" fill="none" stroke="#eaecff" stroke-width="0.5"/><path d="M-1026.552-1916.5a1.478,1.478,0,0,0-.078-.493.835.835,0,0,1-.1-.433.666.666,0,0,0-.182-.469c-.188-.115-.208-.643-.063-1.658.153-1.07.141-1.706-.032-1.763-.085-.028-.191-.277-.236-.552s-.132-.5-.194-.5a1.307,1.307,0,0,1-.63-.625c0-.062.186-.189.413-.282l.413-.169" transform="translate(1068.948 1986.793)" fill="none" stroke="#eaecff" stroke-width="0.5"/><path d="M-1132.17-2168.826l-.4-.1a.789.789,0,0,1-.547-.454,3.069,3.069,0,0,0-1.625-1.209l-.779-.177c-.487-.111-.71-.282-.716-.55a2,2,0,0,0-.688-.912,2.135,2.135,0,0,0-.213.64c-.116.477-.215.64-.391.64a1.442,1.442,0,0,0-.428.073c-.125.047-.226-.03-.286-.219s-.037-.31.053-.34c.216-.071.178-.283-.05-.283-.108,0-.257-.13-.33-.29a1.427,1.427,0,0,0-.52-.509,1.84,1.84,0,0,1-.764-1.477,2.36,2.36,0,0,1,.988-1.482,1.417,1.417,0,0,0,.5-.819,2.319,2.319,0,0,1,.182-.609,3.66,3.66,0,0,0,.254-.6c.148-.431.137-.512-.118-.852a2.617,2.617,0,0,1-.375-1.188,5.825,5.825,0,0,0-.238-1.159.936.936,0,0,1-.006-.739c.1-.275.1-.44,0-.554a2.721,2.721,0,0,1-.122-1.054c.018-1.1-.091-1.466-.433-1.466-.205,0-.251-.072-.218-.342" transform="translate(1173.873 2232.177)" fill="none" stroke="#eaecff" stroke-width="0.5"/><path d="M-1224.139-2243c.035-.287-.021-.359-.346-.446a1.385,1.385,0,0,0-.615-.033c-.267.083-1.384-.972-1.937-1.831-.368-.572-.4-.586-1.138-.553a1.808,1.808,0,0,1-1.179-.327c-.069-.05-.665-.548-.73-.609" transform="translate(1258.571 2290.319)" fill="none" stroke="#eaecff" stroke-width="0.5"/><path d="M-1394.59-2033.9c0,.032.11.388.127.442a1.317,1.317,0,0,0,.094.226,1.218,1.218,0,0,1,.007.727,2.6,2.6,0,0,0,0,1.016,16.613,16.613,0,0,1,.192,1.851c.064,1.1.122,1.379.332,1.573a.936.936,0,0,1,.255.611c0,.3.068.393.356.463a.95.95,0,0,1,.427.192c.09.134,1.326-.323,1.391-.514.033-.1.332-.133.515-.052a.343.343,0,0,1,.186.3" transform="translate(1412.984 2090.475)" fill="none" stroke="#eaecff" stroke-width="0.5"/><path d="M-1314.308-1914.237a.621.621,0,0,1-.362-.175,4.826,4.826,0,0,0-.8-.5,2.9,2.9,0,0,1-.8-.583,1.1,1.1,0,0,0-.6-.339c-.231-.046-.617-.144-.858-.218l-.437-.134.077-.817c.082-.867.084-.864-.58-.822a4.7,4.7,0,0,1-2.119-1.108.872.872,0,0,0-.453-.3,1.122,1.122,0,0,1-.49-.231c-.265-.2-.307-.365-.365-1.437-.072-1.317-.214-1.615-.8-1.682-.285-.033-.338-.1-.318-.391.022-.316-.018-.352-.388-.348a1.327,1.327,0,0,0-.664.192,1.16,1.16,0,0,1-.594.188.9.9,0,0,0-.579.258.554.554,0,0,1-.866-.051c-.062-.095-.151-.062-.271.1-.175.237-.183.237-.361-.009a2.836,2.836,0,0,0-1.487-.8,2.5,2.5,0,0,1-.832-.4c-.27-.231-.412-.251-1.282-.176a8.561,8.561,0,0,0-1.024.123,1.407,1.407,0,0,0,.114.516,7.808,7.808,0,0,1,.268,2.131c.008.3.074.48.179.48.221,0,.306.244.246.709-.07.538.077,1.349.253,1.4.082.026.718.171,1.413.322,1.155.252,1.281.309,1.467.664a1.23,1.23,0,0,1,.113.853,11.588,11.588,0,0,0-.131,1.257c-.049.944.044,1.054,1.068,1.256.656.13.743.189,1.034.7a1.535,1.535,0,0,1,.26.952l.1,1.224a1.156,1.156,0,0,1-.106.477,4.317,4.317,0,0,1-.539.74l-.6.656c-.247.269-.247.277.022.751l.272.48-.265.184a.588.588,0,0,0-.265.353.526.526,0,0,1-.194.329c-.3.243-.231.4.13.309.2-.05.323-.026.323.062a.145.145,0,0,0,.147.142c.147,0,.488.368.5.535,0,.048-.112.124-.255.169-.339.106-.329.395.023.673.155.123.422.355.593.516a.633.633,0,0,0,.541.221c.489-.154.619.041.709,1.064a4.683,4.683,0,0,0,.208,1.177c.1.16.122.154.123-.034" transform="translate(1353.836 1987.368)" fill="none" stroke="#eaecff" stroke-width="0.5"/><path d="M-1205.27-1649.545c.005-.578,1.922,0,2.127.643a2.219,2.219,0,0,0,.5.632,1.509,1.509,0,0,0,1.034.453l.615.057v-.561c0-.612.328-1.243.593-1.142.106.04.182-.062.207-.282.033-.287.112-.352.469-.386a1.016,1.016,0,0,1,.608.107c.209.172.709.051.709-.171,0-.172.987-.515,1.166-.405a.229.229,0,0,1,.041.266.489.489,0,0,0,.194.444c.368.339.405.318.322-.192a.654.654,0,0,1,.3-.764c.2-.178.3-.325.21-.327-.173,0-.226-.338-.065-.409a2.091,2.091,0,0,0,.55-1.408c0-.412.065-.6.249-.711a.774.774,0,0,0,.306-.447l.057-.293.018.288a.832.832,0,0,1-.241.544,1.068,1.068,0,0,0-.259.817,1.78,1.78,0,0,1-.541,1.376c-.129.081-.131.107-.009.109.276,0,.178.37-.158.588-.291.189-.315.273-.265.931a9.17,9.17,0,0,0,.4,2.04,4.646,4.646,0,0,1-.467,1.978,1.023,1.023,0,0,0-.01.936c.172.187.287.954.143.954-.286,0,.056.9.445,1.174a1.047,1.047,0,0,1,.132.595c.008.523.346,1.047.675,1.047a.18.18,0,0,1,.174.185,1.8,1.8,0,0,0,.252.608,3.268,3.268,0,0,1,.339.963c.08.5.06.552-.25.691a.835.835,0,0,0-.419.42,1.423,1.423,0,0,1-.414.537c-.268.217-.335.389-.348.9" transform="translate(1235.278 1734.293)" fill="none" stroke="#eaecff" stroke-width="0.5"/><path d="M-1207.816-1574.62l.615.445.19.132-.365.288c-.316.25-.386.431-.521,1.359-.107.738-.114,1.086-.021,1.119a2.964,2.964,0,0,1,.532.4c.4.349.4.354.259,1.1a2.561,2.561,0,0,0-.028,1.04.794.794,0,0,1,.04.468,2.48,2.48,0,0,0,.632,1.6c.344.4.373.414.6.206.182-.163.3-.185.486-.089a1.058,1.058,0,0,0,.5.106c.27-.024.3.242.118.971-.079.313-.044.369.314.492.222.077.4.192.4.256a1.841,1.841,0,0,0,.692.442c.664.311.7.354.864,1.031a1.781,1.781,0,0,1,.028,1.114,8.131,8.131,0,0,0-.177,2.167c.009.123-.043.7-.043.7.1,0-.084.56,0,.824.225.69.589.629.589.629a7.942,7.942,0,0,1,.8-1.291h0c.152,0,.366-.269.7-.879a3.076,3.076,0,0,0,.218-.96c.086-1.071.415-1.75.659-1.359a2.128,2.128,0,0,0,.574.379l.493.249" transform="translate(1237.823 1659.368)" fill="none" stroke="#eaecff" stroke-width="0.5"/><path d="M-1015.767-2361.338l.074-.413c.052-.164-.017-.5-.1-.53-.192-.063.158-.851.646-1.451a1.009,1.009,0,0,0,.307-1.053c-.083-.546-.071-.574.3-.7.305-.105.37-.189.313-.4a.394.394,0,0,1,.169-.446c.189-.137.242-.344.245-.966,0-.574.06-.832.21-.941s.188-.278.144-.572a.646.646,0,0,1,.212-.676c.309-.285.334-.389.141-.581-.173-.171.053-.792.326-.9a.3.3,0,0,0,.2-.239c0-.216.295-.32.908-.32a2.914,2.914,0,0,0,.844-.13c.277-.1.33-.189.27-.427a.693.693,0,0,1,.112-.542c.266-.347.24-.539-.128-.972a1.356,1.356,0,0,1-.333-.979,3.711,3.711,0,0,1,.437-2.9,8.934,8.934,0,0,0,.478-1.926,1.746,1.746,0,0,0-.453-1.011c-.492-.638-.56-.972-.259-1.271s.224-.618-.327-1.213a2.285,2.285,0,0,1-.514-.72.536.536,0,0,0-.2-.329.486.486,0,0,1-.13-.5c.038-.182.1-.905.136-1.606a4.953,4.953,0,0,1,.2-1.4c.209-.207.147-.355-.115-.273-.183.058-.264,0-.324-.239-.083-.326.1-.97.273-.977.055,0,.1-.914.235-1.014" transform="translate(1057.471 2424.689)" fill="none" stroke="#eaecff" stroke-width="0.5"/><path d="M-1038.01-1672.378c-.016-.4.015-.53.1-.4.144.224.16.851.025.934C-1037.943-1671.815-1038-1672.053-1038.01-1672.378Z" transform="translate(1078.281 1751.552)" fill="none" stroke="#eaecff" stroke-width="0.5"/><path d="M-951.617-1763.819c-.107-.068-.136-.124-.065-.124a.783.783,0,0,1,.323.124c.107.068.136.124.065.124A.783.783,0,0,1-951.617-1763.819Z" transform="translate(997.281 1837.078)" fill="none" stroke="#eaecff" stroke-width="0.5"/><path d="M-971.334-1779.97a1.255,1.255,0,0,0-.42-.516l-.422-.357.439.232c.417.221.8.8.527.8A.145.145,0,0,1-971.334-1779.97Z" transform="translate(1016.482 1852.941)" fill="none" stroke="#eaecff" stroke-width="0.5"/><path d="M-1040.57-1784.019c.006-.149.037-.18.078-.077a.255.255,0,0,1-.01.245C-1040.545-1783.809-1040.576-1783.885-1040.57-1784.019Z" transform="translate(1080.681 1856.051)" fill="none" stroke="#eaecff" stroke-width="0.5"/><path d="M-973.06-1790.2c-.121-.313-.1-.344.115-.136s.248.338.078.338C-972.93-1790-973.017-1790.088-973.06-1790.2Z" transform="translate(1017.38 1861.975)" fill="none" stroke="#eaecff" stroke-width="0.5"/><path d="M-1042.83-1797.915a1.438,1.438,0,0,1,.259-.359c.142-.162.259-.238.259-.167a.775.775,0,0,1-.259.359C-1042.714-1797.955-1042.83-1797.88-1042.83-1797.915Z" transform="translate(1082.802 1869.485)" fill="none" stroke="#eaecff" stroke-width="0.5"/><path d="M-984.487-1803.4c-.164-.141-.231-.256-.149-.256a.871.871,0,0,1,.408.256c.142.141.209.256.149.256A1.143,1.143,0,0,1-984.487-1803.4Z" transform="translate(1028.21 1874.352)" fill="none" stroke="#eaecff" stroke-width="0.5"/><path d="M-993.658-1805.069c-.068-.176-.049-.184.116-.048.224.184.248.259.081.259C-993.524-1804.859-993.613-1804.953-993.658-1805.069Z" transform="translate(1036.681 1875.814)" fill="none" stroke="#eaecff" stroke-width="0.5"/><path d="M-848.635-2013.569c.006-.149.037-.179.078-.077a.255.255,0,0,1-.01.245C-848.61-2013.359-848.641-2013.434-848.635-2013.569Z" transform="translate(900.52 2071.521)" fill="none" stroke="#eaecff" stroke-width="0.5"/><path d="M-829.281-2108.367a1.191,1.191,0,0,1-.251-.672l.018-.335.06.318a2.074,2.074,0,0,0,.315.672C-828.815-2107.933-828.925-2107.92-829.281-2108.367Z" transform="translate(882.588 2161.319)" fill="none" stroke="#eaecff" stroke-width="0.5"/><path d="M-1694.272-2498.219a1.01,1.01,0,0,0,.382-.177.43.43,0,0,1,.259-.112c.075,0,.023.089-.115.192a.936.936,0,0,1-.517.173C-1694.524-2498.156-1694.524-2498.158-1694.272-2498.219Z" transform="translate(1694.46 2526.583)" fill="none" stroke="#eaecff" stroke-width="0.5"/></g></g></g></svg>