<svg xmlns="http://www.w3.org/2000/svg" width="112.217" height="120.677" viewBox="0 0 112.217 120.677"><g transform="translate(-23.292 -7.841)"><g transform="translate(23.646 8.262)"><g transform="translate(0 0.002)"><path d="M1557.669,938.382c.369.207.644,1.077.235.768-1.071-.808.215,2-.58,2.091s-1.026-.094-1.314.738c-.139.4-.053.167-.371.4-.425.318-.633.841-1.056,1.178-.469.373-1.163.346-1.574.74.264.663,1.905.578,2.421.966.648.486.5.729.712,1.359.158.469.864.365.887.905.03.71-.672,1.258-.55,1.92.134.721-.629,1.19-.966,1.717-.237.371-1.723,1.538-1.158,1.961a1.486,1.486,0,0,1,.365,1.668c-.382.791-.111.73.356,1.4.292.416.053,1.028.376,1.357a.619.619,0,0,1,.113.153,6.266,6.266,0,0,1,2.752-.86c.655.083.521.665.668,1.086s.732.459,1.03.725c1.323,1.184,2.451,3.567,4.542,3.287.721-.1,1.69.365,2.3.085.265-.122.4-.109.455-.017a3.535,3.535,0,0,0-.508-2.266c-.42-.672-.8-1.128-.169-1.786a2.067,2.067,0,0,0-.228-1.952c-.717-.574.156-1.5-.055-2.118a12.485,12.485,0,0,1-.482-2.47c-.075-.666.634-.446.171-1.158a9.172,9.172,0,0,1-.7-1.154c-.292-.649,1.278-1.1.751-1.724-.38-.452-.678-1.318-1.1-.373-.651-.4-1.336-.057-1.969-.4-.591-.314-1.143-.3-1.715-.548-.853-.377-1.256-.476-1.367-1.559-.049-.474-.329-2.078.143-2.276.84-.352-.576-.606-.42-1.058.512-.075.653.3,1,.565.29.216.553-.192.8-.264.619-.183.228-.452.467-.785.169-.235.493-.038.687-.352.435-.7-2.841-3.13-1.655-3.358-.111-.311-.67-.075-.932-.286.339-.341.877-.232,1.291-.388.393-.149.369-.719-.094-.672-.12-.953-.572-.819-1.316-.808-.544.469-1.113.9-1.7,1.316-.356.252-.717.5-1.081.745C1557.117,937.521,1557.04,938.028,1557.669,938.382Z" transform="translate(-1475.894 -919.234)" fill="#5751c8" stroke="#eaecff" stroke-width="0.5"/><path d="M1362.293,1044.851c-.3-.663-2.57-.941-2.513-1.267.053-.3.422-.373.6-.565.264-.288.232-.582.35-.892.175-.467.431-.2.292-.921-.151-.781-.286-1.587-.4-2.372-.06-.427.3-.828.218-1.16-.418-.068-.857.467-.582-.516.158-.565.457-.855.307-1.491a1.817,1.817,0,0,0-.928-1.261c-.458-.282-.384-.621-.672-.973-.233-.286-.823-.572-.646-1.013.247-.617.021-.666-.527-.99-.856-.508.384-1.158.476-1.982a1.327,1.327,0,0,1-.314.075,1.607,1.607,0,0,1-.235.009c-1.3-.045-1.89-2.033-2.091-3.04-.122-.617-.828-3.644-1.83-1.675-.875,1.721-.7,2.679-2.982,3.21-.09,1.161-.855,2.323-1.1,3.481-.316,1.48-.231,2.9-.452,4.364a1.46,1.46,0,0,1-1.139,1.406,2.65,2.65,0,0,1-.348.055,2.763,2.763,0,0,0-2.289,1.811,8.693,8.693,0,0,1-1.269,2.331c-.484.512-.794.273-1.075,1.054s-.887.61-1.273,1.212c-.627.981.358,2.009-.646,2.98-.776.751-1.879,1.2-2.487,2.123,2.432,3.285-.988,6.244-1.177,9.523a10.436,10.436,0,0,0,.994,4.271,9.409,9.409,0,0,1,.3,1.145,2.374,2.374,0,0,1,.041.617c.646.023,1.832.066,1.747-.685.391-.066,2.519-.367,2.536-.745.015-.346,1.329-1.08,1.6-1.065.184.011,1.024.038.67-.38-.294-.344.322-.691.484-.966.313-.535,1.568-.29,2.195-.422,1.041-.216,1.359,1.839,2.411.745.96-1,1.886-1.632,2.093-3.07.465-.058.779.76.951,1.043.348.576.919-.29,1.308.119.414.435,1.03-.147,1.5-.162.388-.013,1.05.391,1.338.38.171-.279.442-.371.794-.83.288.179.254.559.378.83.164.358.518.3.817.444.45-.439,1.156-1.141,1.19-1.8.04-.747.879-1.145.821-1.854a1.451,1.451,0,0,1,.486-1.25c.612-.456.506-.806.175-1.271-.52-.73.346-.979.153-1.758a6.924,6.924,0,0,0-.153-.732c-.375-.009-.687.124-.951-.226-.233-.307-.612-.616-.668-1.02a.478.478,0,0,0-.2-.751,2.115,2.115,0,0,1-.42-.629c-.13-.307-.429-.134-.361-.631a7.394,7.394,0,0,1,.892-.4c.328-.137.636-.26.932-.409C1361.739,1046.3,1362.528,1045.382,1362.293,1044.851Z" transform="translate(-1300.997 -991.762)" fill="#5751c8" stroke="#eaecff" stroke-width="0.5"/><path d="M1468.787,947.341c-.629-.354-.552-.86-.525-1.491-.448.3-.9.606-1.348.915a59.058,59.058,0,0,1-5.659,3.729c-1.6.866-3.023,1.353-3.435.67-.7.826-.823.664-1.771.482.209,1.564-1.466,1.468-2.547,1.489-2.069.04-1.37,1.5-2.684,2.489-1.918,1.444-2.016,1.785-1.293,4.089.591,1.881-1.271,2.91-2.779,3.338-1.325.375-1.278,2.394-2.453,2.831-.092.824-1.333,1.474-.476,1.982.546.324.774.373.527.99-.177.44.412.727.646,1.013.288.352.215.691.672.973a1.814,1.814,0,0,1,.928,1.261c.151.636-.149.924-.307,1.491-.275.981.164.448.582.516.081.331-.279.734-.218,1.16.109.783.245,1.589.4,2.372.139.721-.117.454-.292.921-.117.313-.085.606-.35.892-.177.192-.546.265-.6.565-.057.326,2.218.6,2.513,1.267.237.531-.552,1.453-.67,2.063a3.467,3.467,0,0,0,.819-.561c.461-.431,1-.307,1.423-.855.313.141,1.773.892,1.92.341.154-.582-.181-1.09.467-1.374.439-.192.249-1.688.343-2.071a5,5,0,0,1,.975-2.295,5.3,5.3,0,0,1,1.131,2.058c.013.48,1.566,1.792.887,1.986-.89.254-.941,1.182.058,1.173.681-.006.52-.011.981-.335a10.272,10.272,0,0,0,1.448.924,1.854,1.854,0,0,0,1.491-.7,1.951,1.951,0,0,0-.22-.2,1.554,1.554,0,0,1,.22.2.944.944,0,0,0,.13-1.256c-.363-.457-.563-.742-.951-1.19a1.588,1.588,0,0,1-.5-1.76c.171-1.12,1.216-.23,1.355-1.129.738-.092.892-.561.879-1.382.693-.173,1.156-.843,1.734-1a2.114,2.114,0,0,0,1.289-.766,1.845,1.845,0,0,0,.235-2.118,3.333,3.333,0,0,0,1.094-.354c.514-.337.311-1.414.828-1.76.205-.137.5.529.693.058a3.858,3.858,0,0,0,.028-1.513c-.009-.262.465-.461.3-.8l-.179.09.179-.09a.659.659,0,0,0-.113-.153c-.324-.331-.085-.941-.376-1.357-.467-.666-.738-.606-.356-1.4a1.485,1.485,0,0,0-.365-1.668c-.565-.424.921-1.589,1.158-1.961.337-.527,1.1-.994.966-1.717-.122-.663.58-1.21.55-1.92-.023-.54-.73-.437-.887-.905-.213-.631-.064-.873-.711-1.359-.516-.388-2.157-.3-2.421-.966.41-.393,1.1-.367,1.574-.74.424-.337.631-.86,1.056-1.178.318-.237.23,0,.371-.4.286-.832.52-.648,1.314-.738s-.491-2.9.58-2.091c.392.3.117-.565-.252-.772Z" transform="translate(-1387.012 -928.193)" fill="#5751c8" stroke="#eaecff" stroke-width="0.5"/><path d="M1436.759,1114.646a10.148,10.148,0,0,1-1.448-.924c-.461.326-.3.329-.981.335-1,.009-.947-.921-.058-1.173.68-.194-.872-1.506-.887-1.986a5.279,5.279,0,0,0-1.131-2.057,4.956,4.956,0,0,0-.975,2.295c-.094.382.1,1.879-.343,2.071-.649.284-.312.793-.467,1.374-.147.552-1.608-.2-1.92-.341-.425.546-.962.424-1.423.855a3.482,3.482,0,0,1-.819.561.665.665,0,0,0-.015.1.7.7,0,0,1,.015-.1c-.294.149-.6.271-.932.408a7.126,7.126,0,0,0-.892.4c-.068.5.231.326.361.631a2.079,2.079,0,0,0,.42.629.478.478,0,0,1,.2.751c.057.4.435.713.668,1.02.265.35.576.217.951.226a6.893,6.893,0,0,1,.152.732c.194.779-.672,1.03-.152,1.758.331.465.439.815-.175,1.271a1.449,1.449,0,0,0-.486,1.25c.058.71-.783,1.1-.821,1.854-.034.657-.74,1.359-1.19,1.8-.3-.145-.653-.089-.817-.444-.124-.269-.09-.651-.378-.83-.352.459-.625.552-.794.83a.289.289,0,0,0,.041,0,.147.147,0,0,1-.041,0,1.545,1.545,0,0,0-.183.687,4.463,4.463,0,0,1-.425,1.606c-.422.981.966,1.7-.416,2.423-.9.472-1.856.76-2.737,1.161-.683.311-.527,2.125-1.077,2.737-.595.663-.29.136-.01,1.011.164.51.459.015.668.36.154.254-.2.324.126.67a1.7,1.7,0,0,1,.408.563,5.415,5.415,0,0,0,.986,1.165c.576.506.616-.352,1.314.072.365.222-.184,1.052-.2,1.342-.006.105-.666,1.57-.824,2a.444.444,0,0,1,.215-.233.459.459,0,0,0-.215.233.345.345,0,0,0-.034.117,17.8,17.8,0,0,0,2.47.58c.563.145.48-.521.956-.736.514-.23-.375-1.276.028-1.811.467-.619.265-1.427.99-1.875.578-.358,1.57.16,1.711-.766a1.521,1.521,0,0,0,.757-.228c.329-.277.482-.132.919-.284.546-.192,3.724-1.818,3.857-.546.128,1.2.86.344,1.628.821.137.085,1.395,1.482,1.363.851-.021-.4,1.156-.224,1.141.231.58-.032-.045,1.079-.122,1.28a8.588,8.588,0,0,0-.572,2.219c-.1,1.182.335.843,1.2.958.54.072.7,1.263,1.3.335.358-.55.926-.777,1.3-1.325s.661-1.734,1.361-.924c.4.457,1.37.99,1.79.239.727-1.3,2.374.774,3.4.93a5.3,5.3,0,0,0-.661-2.451,11.376,11.376,0,0,0-2.206-1.129c-.889-.424-2.346.407-3.151-.185-.459-.337.81-1.282.416-2.024-.348-.657-.823-2.208-1.508-2.507-1.137-.495.075-1.38.433-2.163.429-.939,1.378-1.623,1.9-2.549a27.453,27.453,0,0,1,1.845-3.044c.241-.32.484-.665.734-1.009-.023-.04-.045-.081-.064-.122a1.072,1.072,0,0,0,.064.122,10.806,10.806,0,0,1,1.3-1.545c1.092-1.017-.113-1.581-.062-2.541.036-.674.055-1.348.042-2.024-.009-.491-.333-1.1-.264-1.561.122-.809,1.681-1.534.708-2.462-.439-.42-.092-.794-.367-1.178-.2-.273-.685-.286-.936-.627-.672-.915-.939.4-1.721-.4-.943-.973-.911.646-1.864.9-.858.232-1.357-.783-1.89-1.346A1.85,1.85,0,0,1,1436.759,1114.646Z" transform="translate(-1365.685 -1060.501)" fill="#5751c8" stroke="#eaecff" stroke-width="0.5"/><path d="M1177.3,1316.389a2.118,2.118,0,0,1-1.414-.921c-.388-.414-.425-1.192-1.113-1.235a13.5,13.5,0,0,1-1.384-.286,9.264,9.264,0,0,0-3.085.439,2.54,2.54,0,0,1-1.7.124c-.407-.152-.591-.631-1.088-.54-.032.237-.256.958-.158,1.133s.529.472.329.719c-.311.384-.842-1.218-1.325-.806-.465.4-.341-.062-.625-.207-.183-.092-.853.205-1.015.232-.823.13-1.7.192-2.5.343-.469.089-.729.649-1.259.358-.4-.216-.4-.262-.881-.068a2.092,2.092,0,0,1-2.016-.813c-.183-.431-.777-1.335-1.282-1.408-.089-.013-1.092-.149-1.449-.252-.058.559.04,1.222-.337,1.619-.874.921-1.979,1.6-2.841,2.549-.582.64-1.312,1.591-2.306,1.337s-1.677-.015-1.975,1.018c-.7,2.445-3.162,2.108-4.412,3.729-.038.049-.073.1-.109.151.555.343,1.254.352,1.8.732.76.533.3,1.651.354,2.408,1.658.615,1.521,2.53,3.243,2.908,2.566.563,1.288,2.494,2.762,3.891,1.8,1.7-.518,1.329-.275,3.272.066.529.508,2.067-.309,2.276-1.465.375-.482.593-.463,1.6,1.177.211,3.1-.418,3.287,1.188.143,1.229,2.383.657,3.132.749.625.077,1.4.619,1.225,1.35-.2.834.3.9.663,1.547,1.033,1.837,1.482.373,1.766-.811.461-1.913,2.009-3.844,2.963-5.544a12.2,12.2,0,0,1,1.269-2.368c.529-.572,1.357-.665,1.986-1.081.779-.516,1.088-1.628,1.67-2.349.6-.745,1.178-1.508,1.754-2.274.23-.307,1.621-1.638,1.529-1.99-.152-.578-.318-1.248-.52-1.818a3.72,3.72,0,0,0-1.591-.292c-.07-1.1-.021-2.85,1.4-2.931.866-.049.553-.668,1.118-1.037.521-.341,1.363-.122,1.943-.12,1.2.006,2.466-1.193,3.614-.6a7.491,7.491,0,0,0,1.911.868c-.087-.307-.322-.608-.186-.894.218-.459.192-1.515-.329-1.69s-1.024-.565-.941-1.171c.066-.493.474-.8.634-1.248a8.246,8.246,0,0,0,.122-1.242,5.354,5.354,0,0,0-1.583-.538Z" transform="translate(-1143.35 -1226.391)" fill="#5751c8" stroke="#eaecff" stroke-width="0.5"/><path d="M1233.691,1230.236c-.055-.391-.369-.26-.638-.265-.38-.008-.536-.324-.655-.625a20.405,20.405,0,0,1-2.564,1.606c-.6.459-.678,1.378-1.384,1.73-.862.431-1.95-.164-2.859-.1-1.664.113-2.323,1.329-3.422,2.323-1.534,1.387-.872-1.852-.824-2.427.171-2.059.781-4.473.471-6.519a3.872,3.872,0,0,0-1.013.051,2.756,2.756,0,0,0-1.591,1.1c-.772.911-1.845.113-2.788.279-2.605.459-.151,3.55.173,4.9.512,2.14-1.555,2.524-3.068,3.181-.881.382-1.308,1.246-1.877,1.958-.642.8-2.362.922-2.728,1.711-.2.425.623,1.941-.288,2.014-.612.049-1.338.16-1.57.843a1.752,1.752,0,0,0-.075.369c.358.105,1.361.241,1.449.252.506.073,1.1.977,1.282,1.408a2.093,2.093,0,0,0,2.016.813c.476-.194.486-.149.881.068.531.292.791-.269,1.259-.358.8-.151,1.679-.213,2.5-.343.162-.026.832-.324,1.015-.232.286.145.16.6.625.207.484-.412,1.015,1.19,1.325.806.2-.247-.239-.555-.329-.719s.126-.9.158-1.133c.5-.092.682.388,1.088.54a2.539,2.539,0,0,0,1.7-.124,9.325,9.325,0,0,1,3.085-.439,13.6,13.6,0,0,0,1.384.286c.685.043.725.819,1.113,1.235a2.111,2.111,0,0,0,1.414.921,5.549,5.549,0,0,1,1.587.536c0-.019.006-.036.009-.055a1.3,1.3,0,0,0-.516-1.687c-.215-.19-1.374-1.756-.523-1.788.783-.03.691-.119.791-.9.122-.956.666-.881,1.457-.907.6-.019.8-.636,1.178-.99.8-.753.313-.768.35-1.666.025-.606.657-1.2.471-1.813a5.746,5.746,0,0,0-.819-1.852c-.928-.721.369-2.993.988-3.5C1234.566,1230.409,1233.74,1230.6,1233.691,1230.236Z" transform="translate(-1195.01 -1155.562)" fill="#5751c8" stroke="#eaecff" stroke-width="0.5"/><path d="M1615.245,872.572c-.248-.725-1.18-1.51-.73-2.314.375-.666,1.331-1.419.873-2.278a3.679,3.679,0,0,0-2.01-1.323,8.7,8.7,0,0,0,0-1.839c-.151-.548-.644-.883-.392-1.5.514-1.258,2.155-1.707,2.393-3.14.188-1.143-1.359-1.348-1.385-2.554-.013-.584.105-1.165.075-1.747-.053-.986-1.007-.776-1.683-.892-.536-.911-.1-2-.516-2.937a11.415,11.415,0,0,0-1.3,1.2,40.574,40.574,0,0,1-7.682,5.732c-1.2.693-2.705,1.826-3.85.553-.719-.8-2.98-1.559-3.97-.828-1.081.8-1.239,2.575-2.142,3.573-1.165,1.288-1.924,2.884-3.1,4.179a14.056,14.056,0,0,1-1.229,1.188c.744-.011,1.2-.145,1.316.808.463-.047.488.523.094.672-.414.156-.953.047-1.291.388.262.209.821-.025.932.286-1.186.228,2.089,2.656,1.655,3.358-.2.314-.52.117-.687.352-.239.333.153.6-.467.785-.247.073-.51.482-.8.264-.348-.26-.489-.64-1-.565-.156.452,1.259.706.42,1.058-.471.2-.19,1.8-.143,2.276.111,1.082.512,1.182,1.367,1.559.572.252,1.124.233,1.715.548.632.337,1.318,0,1.969.4.422-.947.719-.081,1.1.373.527.625-1.045,1.077-.751,1.724a9.382,9.382,0,0,0,.7,1.154c.463.712-.247.491-.171,1.158a12.618,12.618,0,0,0,.482,2.47c.211.614-.663,1.545.055,2.118a2.067,2.067,0,0,1,.228,1.952c-.631.661-.25,1.114.169,1.786a3.559,3.559,0,0,1,.508,2.267c.186.3-.384,1.434.173,1.721.478.245,2.443,0,2.266.939a6.061,6.061,0,0,1-1.041,2.225c1.146.147,2.016.776,3.292.8.578.009,1.835-1.705,2.3-2.144.74-.7,2.15-.625,3.072-.779a15.654,15.654,0,0,1,1.564-.258c.41-.028.877-.322,1.276-.322a5.1,5.1,0,0,1-.143-3.21c-.68-.346-1.031-1.235-1.892-1.169.188-.973,1.69-1.331.811-2.47-.729-.943-2.387-.194-2.694-1.608,1.485-.075,1.6-.111,1.956-1.574.237-.986,1.711-.892,2.074-1.9s-.689-1.6.346-2.451c1.1-.9,1.794-1.118,1.432-2.7a1.4,1.4,0,0,1,.073-.823,3.7,3.7,0,0,1,2.263-1.869c1.02-.277,1.325-.057,1.843-1.237.211-.482.629-1.212,1.09-1.269a19.971,19.971,0,0,1-.8-2.167Z" transform="translate(-1504.562 -852.05)" fill="#5751c8" stroke="#eaecff" stroke-width="0.5"/><path d="M1549.881,1206.772c-.25-.757-1.154-.806-1.807-1.254-.248-.171-.77-.616-.657-.983.072-.237.358-.314.316-.6-.147-1.035-1.047-.557-1.64-.433-.841.177-2.509-.478-3.076.356-.164.239-.988.659-.621.139.141-.2.375-.277.506-.482a4.108,4.108,0,0,0,.446-1.438,4.837,4.837,0,0,1,.988-2.242c.226-.307.855-.548.235-.875a5.7,5.7,0,0,1-1.137-.6c-.762-.659-.783-1.532-1.64-.431-.245.314-.615.288-.977.292-.853.011-.2.377-.789.64-.934.418-1.225.249-2.05-.316-.335-.228-.661-.954-1.05-.393-.169.245-.346.57-.706.478a2.361,2.361,0,0,0-2.5.316c-.441.435-1.011.158-1.289-.324-.25.344-.493.689-.734,1.009a27.286,27.286,0,0,0-1.845,3.044c-.521.924-1.47,1.608-1.9,2.549-.358.783-1.57,1.668-.433,2.163.687.3,1.161,1.85,1.508,2.507.394.744-.875,1.688-.416,2.024.808.591,2.263-.239,3.151.185a11.165,11.165,0,0,1,2.206,1.129,5.263,5.263,0,0,1,.661,2.451c.023,0,.043.008.064.009.981.07.4.96.5,1.641.119.815.689.5.4-.241-.45-1.145.518-1.03.919-1.852.508-1.041.892-.8,1.922-.877.973-.072,2.829.614,3.228,1.645a8.013,8.013,0,0,0,.681,1.2c.2.326.6.277.725.672.117.375.171.813.252,1.2a5.8,5.8,0,0,1-.476,2.675c-.536.994.085,1.033.088,1.973,0,.284-.361.533.036.768a3.9,3.9,0,0,1,.779.572c.535.514,1.365.384,2.063.359a1.42,1.42,0,0,1-.247-.787l.015,0,.011,0a8.061,8.061,0,0,0,1.683-.7c.841-.538.8-1.96.849-2.82.066-1.193,1.028-1.1,1.916-1.419,1.175-.416,1.547-1.832,2-2.852.5-1.131,1.065-1.2,2.184-1.052,1.333.173.958-1.137.676-1.864-.437-1.128.649-1.668.691-2.681.025-.6-.5-.841-.836-1.231-.378-.439-.132-.951-.224-1.459-1.131-.469-1.1-1.448-.9-2.4-.567.066-1.209.862-1.805,1.013C1550.811,1207.434,1550.283,1207.986,1549.881,1206.772Z" transform="translate(-1454.815 -1132.393)" fill="#5751c8" stroke="#eaecff" stroke-width="0.5"/><path d="M1553.326,1059.493a15.532,15.532,0,0,0-1.564.258c-.922.156-2.332.081-3.072.779-.463.439-1.721,2.153-2.3,2.144-1.276-.023-2.148-.649-3.292-.8a6.063,6.063,0,0,0,1.041-2.225c.175-.943-1.788-.695-2.266-.939-.557-.286.011-1.421-.173-1.721v0c-.058-.094-.19-.107-.456.017-.6.279-1.574-.183-2.3-.085-2.091.279-3.217-2.1-4.542-3.287-.3-.267-.883-.3-1.03-.725s-.013-1.005-.668-1.086a6.241,6.241,0,0,0-2.752.86c.168.337-.307.536-.3.8a3.862,3.862,0,0,1-.028,1.514c-.188.471-.488-.2-.693-.058-.516.344-.314,1.423-.828,1.76a3.319,3.319,0,0,1-1.094.354,1.842,1.842,0,0,1-.235,2.118,2.1,2.1,0,0,1-1.289.766c-.576.16-1.039.83-1.734,1,.015.823-.141,1.29-.879,1.382-.139.9-1.184.01-1.355,1.13a1.588,1.588,0,0,0,.5,1.76c.388.448.585.732.951,1.19a.944.944,0,0,1-.13,1.256c.533.563,1.032,1.578,1.89,1.346.951-.256.92-1.875,1.864-.9.781.806,1.049-.512,1.721.4.25.341.74.354.936.627.275.384-.072.759.367,1.178.973.928-.585,1.653-.708,2.462-.07.465.254,1.069.264,1.561.013.674,0,1.35-.041,2.024-.051.96,1.154,1.525.062,2.541a10.713,10.713,0,0,0-1.3,1.545c.279.482.849.757,1.29.324a2.361,2.361,0,0,1,2.5-.316c.359.09.536-.233.706-.478.39-.563.715.164,1.051.393.824.565,1.116.734,2.05.316.589-.264-.066-.629.789-.64.361,0,.732.023.977-.292.856-1.1.877-.228,1.64.431a5.7,5.7,0,0,0,1.137.6c.619.328-.01.57-.235.875a4.8,4.8,0,0,0-.988,2.242,4.109,4.109,0,0,1-.446,1.438c-.13.205-.365.282-.506.482-.367.518.459.1.621-.139.567-.834,2.236-.179,3.076-.356.593-.126,1.493-.6,1.64.433.041.288-.245.367-.316.6-.113.367.408.813.657.983.653.448,1.557.5,1.807,1.254.4,1.214.93.661,1.943.4.595-.151,1.239-.947,1.805-1.013.032-.151.068-.3.105-.45.064-.252.58-.282.232-.659a1.062,1.062,0,0,1-.286-1.252,3.132,3.132,0,0,1,2.1-1.882,6.08,6.08,0,0,0,2.688-2.086c.821-.937,1.905-1.589,2.472-2.735.429-.868.038-2.214,1.08-2.692.966-.442.442-1.538-.267-1.992a7.1,7.1,0,0,0-3.014-.988c-.194-.751.665-1.15.732-1.839a15.354,15.354,0,0,0-.269-2.336c-.107-1.611,1.2-2.534-.094-3.823-.919-.913.311-3.119.309-4.286a7.318,7.318,0,0,0-.281-1.788C1554.2,1059.171,1553.736,1059.465,1553.326,1059.493Z" transform="translate(-1450.279 -1014.211)" fill="#5751c8" stroke="#eaecff" stroke-width="0.5"/><path d="M1445.327,1277.606a3.778,3.778,0,0,0-.779-.572c-.4-.235-.034-.486-.036-.768-.006-.941-.625-.981-.089-1.973a5.824,5.824,0,0,0,.476-2.675c-.081-.386-.136-.824-.252-1.2-.124-.4-.523-.346-.725-.672a8.19,8.19,0,0,1-.681-1.2c-.4-1.031-2.255-1.717-3.228-1.645-1.03.075-1.416-.164-1.922.877-.4.823-1.37.708-.919,1.852.292.742-.279,1.056-.4.241-.1-.682.482-1.572-.5-1.642-.021,0-.043-.006-.064-.009a1.26,1.26,0,0,1-.006.2,1.26,1.26,0,0,0,.006-.2c-1.024-.156-2.671-2.231-3.4-.93-.42.751-1.393.218-1.79-.239-.7-.809-.994.388-1.361.924s-.941.774-1.3,1.325c-.6.928-.76-.264-1.3-.335-.868-.115-1.3.222-1.2-.958a8.563,8.563,0,0,1,.572-2.219c.077-.2.7-1.312.122-1.28.015-.455-1.161-.629-1.141-.232.032.631-1.224-.766-1.363-.851-.768-.476-1.5.38-1.628-.821-.136-1.273-3.313.354-3.857.546-.435.154-.587.008-.919.284a1.521,1.521,0,0,1-.757.228c-.139.926-1.131.409-1.711.766-.725.448-.523,1.256-.99,1.875-.4.535.484,1.583-.028,1.811-.478.213-.393.879-.956.736a17.8,17.8,0,0,1-2.47-.58.344.344,0,0,1,.034-.117c-.13.262-.185.653-.392.828-.472.4-.328.329-.54.913-.151.412-.736.73-.606,1.207.092.339-.1.544-.111.872a1.069,1.069,0,0,1-.484.906c-.318.205-.237.376-.356.776-.232.779.582,1.3.021,2.044-.42.553-.119.691-.021,1.2.062.324-.262.548-.258.862.006.442.164.467-.07.909a4.651,4.651,0,0,0-.608,1.088c-.117.5-.463.4-.439.915.011.22,0,.615-.312.644-.256.023-.444.585-.744.67-.023.216-.04.433-.053.649.115.126.222.264.324.4.158.209.3.412.425.561.84,1.005,2.024.467,3.142.412,1.391-.068,2.784-.09,4.173-.2a7.224,7.224,0,0,0,3.02-.99c.941-.44,1.943,0,2.616-1.043a6.377,6.377,0,0,0,.608-2.457c.229-1.269,3.379-1.813,4.378-2.359a5.109,5.109,0,0,0,2.074-1.615,10.972,10.972,0,0,1,1.1-2.263c.286-.329,1.282-1.464,1.77-.8.427.582-.22,1.53-.1,2.176a1.207,1.207,0,0,1-.032,2.312c-1.273.433-1.984.984-1.325,2.449.634,1.412.254,1.833-.042,3.2-.252,1.167,1.391,1.536,2.216,1.517.213.723-.215,1.231.282,1.907a2.319,2.319,0,0,0,1.178,1.005c.657.152,1.276-.271,1.911-.352a6.261,6.261,0,0,1,2.11.264.765.765,0,0,1,.418-.273c.544-.154.928.179,1.416-.3.6-.584.906-1.212,1.683-1.623,1.519-.8,1.374.44,2.929.616,1.751.2,1.643-2.091,1.914-3.234.346-1.468,1.715-1.849,2.953-2.327,1.416-.546.843-1.015.456-1.66-.7.023-1.532.152-2.067-.359Z" transform="translate(-1356.395 -1184.933)" fill="#5751c8" stroke="#eaecff" stroke-width="0.5"/><path d="M1340.98,1233.231c.311-.028.324-.422.313-.644-.025-.516.322-.412.439-.915a4.644,4.644,0,0,1,.608-1.088c.235-.442.075-.467.07-.909,0-.314.32-.538.258-.862-.1-.508-.4-.646.021-1.2.563-.742-.252-1.265-.021-2.044.119-.4.036-.57.356-.776a1.066,1.066,0,0,0,.484-.905c.008-.328.2-.533.111-.872-.13-.476.456-.794.606-1.207.213-.584.066-.51.54-.913.207-.175.262-.567.391-.828.16-.427.819-1.892.825-2,.015-.29.565-1.12.2-1.342-.7-.424-.738.437-1.314-.072a5.375,5.375,0,0,1-.986-1.165,1.7,1.7,0,0,0-.408-.563c-.331-.346.026-.418-.126-.67-.209-.344-.5.151-.668-.359-.281-.875-.585-.348.009-1.011.55-.612.393-2.426,1.077-2.737.881-.4,1.837-.689,2.737-1.161,1.382-.727-.006-1.442.416-2.423a4.474,4.474,0,0,0,.425-1.606,1.546,1.546,0,0,1,.182-.687c-.288.011-.949-.393-1.338-.38-.469.015-1.084.6-1.5.162-.39-.408-.96.457-1.308-.119-.171-.282-.486-1.1-.951-1.043-.209,1.438-1.135,2.073-2.093,3.07-1.052,1.094-1.37-.962-2.411-.745-.627.13-1.882-.113-2.195.422-.16.275-.776.621-.484.966.354.418-.484.39-.67.38-.269-.015-1.583.719-1.6,1.066-.015.378-2.144.681-2.536.745.083.751-1.1.708-1.747.685a1.775,1.775,0,0,1-.525,1.144c.119.3.273.618.655.625.269,0,.585-.126.638.266.051.359.877.175.237.7-.619.51-1.916,2.782-.988,3.5a5.763,5.763,0,0,1,.819,1.852c.186.608-.446,1.208-.471,1.813-.036.9.454.913-.35,1.666-.378.354-.574.971-1.178.99-.792.026-1.337-.049-1.457.907-.1.779-.008.868-.791.9-.851.032.309,1.6.523,1.788a1.3,1.3,0,0,1,.516,1.687,11.687,11.687,0,0,1-.132,1.3c-.16.452-.567.757-.634,1.248-.083.6.425,1,.941,1.171s.548,1.231.329,1.69c-.136.286.1.587.186.894a.917.917,0,0,0,1.555-.787c1.239.068,2.263-.864,3.486-.86,1.06,0,1.862,1,2.63,1.6.55.431,1.348,1.34,2.093,1.352.874.013,1.382-.725,2.152-.947a1.265,1.265,0,0,1,1.25.557c.013-.217.03-.433.053-.649C1340.535,1233.818,1340.722,1233.253,1340.98,1233.231Z" transform="translate(-1290.784 -1136.85)" fill="#5751c8" stroke="#eaecff" stroke-width="0.5"/></g><g transform="translate(0 0)"><path d="M1254.775,874.724l-.74-2.161c-.248-.725-1.182-1.51-.73-2.313.375-.668,1.331-1.419.873-2.278a3.669,3.669,0,0,0-2.01-1.323,8.576,8.576,0,0,0,0-1.839c-.149-.548-.644-.883-.391-1.5.514-1.258,2.155-1.707,2.393-3.14.19-1.143-1.359-1.35-1.385-2.554-.013-.584.107-1.165.075-1.747-.053-.986-1.007-.777-1.683-.892-.536-.911-.1-2-.516-2.937l-1.3,1.2a40.652,40.652,0,0,1-7.682,5.732c-1.2.695-2.705,1.826-3.85.553-.719-.8-2.982-1.559-3.97-.828-1.081.8-1.239,2.573-2.142,3.573-1.165,1.288-1.926,2.884-3.1,4.179a29.39,29.39,0,0,1-5.355,4.166,57.585,57.585,0,0,1-5.661,3.724c-1.608.86-3.025,1.348-3.437.664-.7.826-.823.664-1.771.482.209,1.564-1.466,1.468-2.547,1.489-2.071.041-1.372,1.5-2.684,2.489-1.916,1.442-2.016,1.785-1.293,4.089.591,1.882-1.269,2.912-2.779,3.338s-1.239,2.976-3,2.916c-1.3-.043-1.892-2.033-2.091-3.04-.122-.617-.828-3.644-1.83-1.675-.877,1.722-.7,2.681-2.982,3.21-.09,1.161-.855,2.323-1.1,3.481-.316,1.478-.232,2.9-.452,4.364a1.469,1.469,0,0,1-1.134,1.409,2.11,2.11,0,0,1-.344.057,2.767,2.767,0,0,0-2.289,1.811,8.557,8.557,0,0,1-1.269,2.331c-.484.512-.794.273-1.075,1.054s-.887.61-1.273,1.212c-.629.981.358,2.009-.646,2.98-.774.751-1.879,1.2-2.487,2.123,2.432,3.283-.988,6.244-1.177,9.523-.126,2.182.919,3.443,1.3,5.418.4,2.1-1.875,2.475-3.048,3.368-.6.459-.678,1.378-1.384,1.73-.864.431-1.95-.166-2.859-.1-1.664.113-2.323,1.329-3.422,2.323-1.534,1.387-.872-1.852-.824-2.427.171-2.059.781-4.473.471-6.519l-1.022.043a2.762,2.762,0,0,0-1.591,1.1c-.772.911-1.845.113-2.788.279-2.605.457-.151,3.55.173,4.9.514,2.14-1.555,2.524-3.068,3.181-.881.382-1.308,1.246-1.877,1.958-.644.806-2.362.922-2.728,1.711-.2.425.625,1.941-.288,2.014-.612.049-1.338.158-1.57.843-.205.606.053,1.5-.412,1.988-.874.92-1.98,1.6-2.841,2.549-.582.64-1.314,1.591-2.306,1.337s-1.677-.015-1.975,1.018c-.7,2.445-3.164,2.108-4.411,3.731-.036.051-.072.1-.107.152.555.343,1.256.352,1.8.732.76.533.3,1.651.354,2.408,1.658.615,1.519,2.53,3.243,2.908,2.566.563,1.289,2.494,2.762,3.891,1.8,1.7-.518,1.329-.275,3.272.068.529.51,2.067-.309,2.276-1.474.377-.471.6-.459,1.613a.028.028,0,0,0,0-.017c1.177.211,3.1-.42,3.287,1.188.143,1.229,2.383.657,3.132.749.623.075,1.4.619,1.225,1.35-.2.832.3.9.663,1.547,1.033,1.837,1.48.375,1.766-.811.461-1.913,2.009-3.844,2.963-5.544a12.265,12.265,0,0,1,1.269-2.368c.529-.572,1.355-.665,1.986-1.081.779-.516,1.088-1.628,1.67-2.349.6-.745,1.178-1.51,1.755-2.274a15.158,15.158,0,0,0,1.472-1.762l-.406-2.051-1.6-.3c.084-1.381.053-2.891,1.353-2.916.866-.049.553-.666,1.118-1.037.521-.343,1.363-.124,1.943-.12,1.2.006,2.466-1.193,3.614-.6,1.291.67,1.609,1.016,3.149.922a4.72,4.72,0,0,0,.316-.841c1.237.066,2.263-.864,3.486-.86,1.062,0,1.862,1,2.63,1.6.55.433,1.346,1.34,2.093,1.352.874.013,1.384-.725,2.152-.947.877-.252,1.549.975,2,1.513.84,1.005,2.024.467,3.142.412,1.391-.068,2.784-.09,4.173-.2a7.248,7.248,0,0,0,3.02-.99c.941-.439,1.943,0,2.616-1.043a6.306,6.306,0,0,0,.608-2.457c.23-1.269,3.379-1.813,4.379-2.359a5.765,5.765,0,0,0,1.541-1.076c.219-.28.4-.3.534-.534a10.78,10.78,0,0,1,1.1-2.263c.284-.329,1.282-1.465,1.77-.8.427.58-.218,1.529-.1,2.176a1.207,1.207,0,0,1-.032,2.312c-1.273.433-1.984.983-1.325,2.449.634,1.412.254,1.833-.042,3.2-.252,1.167,1.391,1.534,2.216,1.517.213.723-.215,1.231.282,1.907a2.321,2.321,0,0,0,1.178,1.005c.657.154,1.276-.271,1.911-.352a4.093,4.093,0,0,1,2.153.3" transform="translate(-1143.35 -852.04)" fill="none" stroke="#eaecff" stroke-width="0.5"/></g></g><path d="M494.431,261.482l-1,1.672-1.325,1.169-1.4,1.715-1.442,2.586,2.854-1.149c.652.133.838.832.289,1.412a5,5,0,0,0-1.857,2.3c-.728-.024-.6.7-.78,1.162l1.229,2.981c.058,1.287.736,1.369.935,1.637.928,1.338.228,2.757-.372,3.886" transform="translate(-377.962 -205.553)" fill="none" stroke="#eaecff" stroke-width="0.5"/></g></svg>