<svg xmlns="http://www.w3.org/2000/svg" width="19.667" height="20.5" viewBox="0 0 19.667 20.5"><g transform="translate(0.5)"><path d="M134.667,344.666h0a3.333,3.333,0,0,1-6.667,0c.769-.041,1.7.016,3.73,0h2.936Zm-2.936,0" transform="translate(-123 -327.999)" fill="none" stroke="#dd5b5b" stroke-width="1"/><path d="M14.173,50.936a5.82,5.82,0,0,1-4.512-8.109A5.814,5.814,0,0,0,2.5,48.5v2.323A5.588,5.588,0,0,1,.51,55.1a1.458,1.458,0,0,0,.948,2.566h13.75a1.458,1.458,0,0,0,.94-2.573,5.58,5.58,0,0,1-1.975-4.159Zm0,0" transform="translate(0 -41.001)" fill="rgba(254,246,241,0)" stroke="#dd5b5b" stroke-width="1"/><path d="M285.665,4.167A4.167,4.167,0,1,1,281.5,0,4.167,4.167,0,0,1,285.665,4.167Zm0,0" transform="translate(-266.499)" fill="#36f482"/></g></svg>