<svg xmlns="http://www.w3.org/2000/svg" width="134.415" height="120.373" viewBox="0 0 134.415 120.373"><g transform="translate(-442.369 -577.685)"><g transform="translate(442.62 577.99)"><path d="M1678.33,578.12l.064-.13.28.091.543.278.617.443.258.233.132.339.259.34.315.13.38.011.476.13.295-.08.49.091.38.141.79.527.738.409.423.362.227.255.295.267.281.374.238.4.174.164.574.477.3.222.412.3.39.267.295.08.238-.118.174-.21.205-.141.205-.141.238-.046.5.107.249.08.432.187.326.328.316.141.184.164.259.164.163.068.194.023.326.092.532.443.249.2.131.13.281.362.326.328.227.267.369.244.359.13.39.057.163.012v.141l.11.339.205.317.543.3.479.046.337.141.412.374.521.374.532.278.295-.068.6-.068.336.13.564.245.227.057.65.2.521.42.39.21.326.256.27.443-.053.278-.053.538-.074.561-.228.209-.315.256.01.408.074.783.185.317.163.057.607.278.315.119.316.046.281.046.238.046-.306.317.089.046.185.152.184.141.088.187.085.119.163.107.174.08.152.08.228.1.142.108.042.164-.063.233-.163.119-.01.2-.01.21-.053.244-.132.2h-.241l-.216-.175-.216-.13-.174-.1-.27-.279-.142.023-.046.233.174.233.27.141.021.119-.184.091-.2-.023-.152.164-.131.233-.043.092-.1.187.043.233-.174.069-.174.118-.021.141-.075.119-.142.046-.131-.279-.121-.278-.121-.362-.217-.222-.216.023-.085.233.075.141.142.317.085.187.217.363.089.3-.167.206-.238.092-.074.141-.153.069-.052-.164-.11-.255-.2-.068-.194.187-.032.256.1.255.163.141.2.176-.142.317-.27.119-.053.164.142.21.217.164.032.279-.259.255-.49.1-.152-.118-.142.057-.01.081-.043.164-.141.187-.11-.119-.238-.1-.174-.057-.163-.119-.132.046-.121-.119-.121-.233-.227-.141-.227-.187-.142-.267-.2-.245-.163.142-.053.221.142.175.064.164-.142.221-.184.057-.164-.046-.142.068-.152.068h-.375l-.205-.046-.316-.108-.465.012-.532-.1-.315.068-.27.08-.369.2-.38.119-.237-.057-.163-.13-.217.141-.238.256-.28.045-.217.329-.052.3-.1.351-.238.267-.217.046-.248-.011-.228-.024-.216.328-.249.42-.085.187-.194.317-.2.29-.184.29-.3.4-.391.512-.4.409-.423.443-.358.362-.412.245-.205.095-.205.141-.065.267-.194.29-.227.141-.3.187-.433.29-.433.1.122-.3.032-.068-.011-.385-.064-.176-.163-.233-.39-.187-.052-.141-.2-.092-.163-.119-.132-.187-.238-.118-.238-.13-.259-.244-.194.068-.032.08v.233l-.075.175-.131.255-.185.34-.248.29-.348.141-.12.141.021.141-.075.233v.233l-.141.488-.043.187-.27.351-.27.187-.3.035-.27-.2-.217-.3-.174-.141-.152.057-.184.152-.085.317h-.11l-.085-.057-.152-.351-.088-.3-.131-.222-.132-.317-.131-.278.11-.211.121-.233.174-.222.131-.244.142-.21.121-.328.043-.245.12-.152.088-.08.174-.317.249-.3.021-.233-.141-.21-.174-.164-.174-.141-.238-.141-.216-.279-.238-.256-.27-.211-.27-.152-.295-.13-.315-.069-.27-.141-.369-.176-.248-.221-.121-.278-.052-.092.1-.351.121-.176.206-.2.184-.153.174-.107.163-.3.152-.187.121-.256.142-.278.184-.29.064-.091.1-.091-.11-.244-.053-.351-.053-.4.064-.21-.174-.119h-.11l-.217-.035-.1-.2-.085-.046-.121.091-.11.187-.142.092-.085-.256-.043-.256.032-.187.064-.164-.152-.211-.1-.233-.082-.157-.131-.118-.11.046-.238.152-.295.107-.205-.023-.217-.046-.259-.153-.259-.2-.216-.176-.238-.091-.174-.08-.259-.1-.238-.176-.163-.141-.27-.152-.216-.092-.28-.141-.217-.152-.174-.091h-.206l-.11.08-.184.057-.121-.141-.053-.176-.011-.152v-.152l-.01-.267-.021-.21v-.277l-.032-.279-.1-.255-.121-.187-.1-.233-.052-.222.032-.245v-.7l-.114-.24-.249-.176-.194-.141-.259-.2-.121-.119-.11-.141-.184-.091h-.184l-.152.046-.153.069-.184.046-.11-.069-.032-.175v-.176l.053-.152.074-.107.021-.118-.074-.057-.085-.057-.131-.068-.1-.046-.216-.068-.121-.023-.053-.107.042-.175.053-.21.064-.233.1-.176,2.224.736.422.119.227.164.28.057.4-.035.348-.046.359.187.369.164.206-.046.369-.119.163-.092.295-.454.053-.057.6-.794.228-.583.295-.584.238-.538.088-.374.085-.351.227-.4.1-.465-.117-.255-.163-.21-.11-.233-.1-.233-.085-.267-.074-.267.021-.21.132-.091.5-.351.543-.42.088-.256-.227-.409-.238-.409-.238-.256.043-.538.1-.385.121-.526-.032-.516-.1-.317-.281-.317-.326-.233-.532-.443-.194-.2-.043-.267-.1-.267.01-.339.142-.091.369.091.39.164.326-.164.032-.328-.032-.3.2-.48Z" transform="translate(-1580.052 -577.99)" fill="#5751c8" stroke="#eaecff" stroke-width="0.5"/><path d="M1096.969,597.91l.358.233.39.176.617.141.88.141h.543l.685-.091h.432l.337-.187.369-.092.443-.374.217-.233.359-.4.49-.4.671-.233.5-.1.443-.141.258.035.49-.092.422.119.49.222.465.29.521.119.465-.187.554-.164.4-.13.49-.035.4-.035.39-.244.295.022.443.092.859.256.337.164.358.164.4-.29.064-.245.49-.034.443-.08.28-.164.618-.279.379-.068.585-.267.152-.141.38-.068.3-.011.121.56.01.489-.074.56-.121.256.01.278.064.561.216.465.043.408.184.477-.088.515-.39.023-.064.211.088.409-.053.538-.359.794-.054.386-.174.4-.259.443-.216.42-.38.34-.3.4-.433.317-.074.233-.075.209-.121.443.121.091.281-.068.163-.3.238-.21.174-.2.248-.13.369-.164.348-.091.163.091.337.141.379.187.205.3.348.256.521.035.574.057.49.176.368.152.205.21.281.443.2.233.152.141.053.118.5,1.588-.053.233.032.107.121.29.174.119.174.046.131.187.2.141.205.034.359-.034.185-.012.131-.08.2.046.184.119.2.068.152-.068h.227l.185.164.216.152.152.08.132.187.021.119-.01.175.054.175.053.187-.064.21-.1.141-.085.233-.053.233-.032.164-.021.222-.088.244-.1.222-.11.091-.053.222-.11.233-.248.13-.238.057-.228.046-.248-.057-.205-.141-.141-.152-.132-.095-.152.011-.1.107-.152.187-.121.141-.163.119-.2.164-.206.1-.131-.187-.121-.187-.11-.164-.1-.153-.11.107-.088.278-.074.164-.043.233-.064.317-.064.2v.29l-.06.141.053.13.064.141.174.08.184.13-.01.1-.089.164-.294.164-.206.023-.1.118-.021.211.064.187.085.209-.1.069-.064.08-.021.187.032.119.074.13.1.13-.068.015-.053.057.021.08.032.2-.021.164-.074.119-.142.141-.163.152-.152.068-.131.08-.121.187-.074.141-.043.13v.176l-.2.046-.163-.068-.238-.13-.38.035-.27.023h-.295l-.217.1-.174.141h-.337l-.227-.267-.064-.244-.01-.187.01-.091-.1-.256-.163-.244-.043-.153v-.233l-.01-.256-.1-.13-.132-.035h-.78l-.174-.068-.142-.091-.1.046-.11.278-.085.046v-.141l-.248.069-.142-.012-.1-.08-.27-.069-.1.091-.131.164-.11.012-.216.034-.1-.023-.227.091-.152.068h-.217l-.184-.068-.142-.057-.164.107-.227-.023-.259.011-.348-.057h-.142l-.11.255.01.21.032.244-.01.2-.142.164-.2.08-.248-.012-.3-.057-.085-.176.043-.187-.064-.244-.141-.176-.2-.119.064-.175-.01-.268-.142-.152-.142-.244-.131-.233-.1-.118-.06-.031-.088.068-.142.141-.238-.034-.141-.046-.1-.233-.01-.245-.121-.2-.121-.164-.021-.13.01-.187-.163-.1-.142-.08-.228-.08-.227.023-.152.023-.185.046-.258-.13-.2-.035-.089.068-.184.069h-.185l-.2-.023-.152-.069-.141-.141-.121-.187-.053-.3.021-.2-.075-.152-.174-.1-.194-.141-.153-.046-.249-.221-.074-.187.01-.175.074-.278.089-.108.1-.034.089-.068-.032-.233-.163-.164-.121-.187-.032-.233-.088-.187.021-.119-.075-.211-.205-.13-.27-.057-.121-.057.089-.3.152-.107.11-.069.258-.034.074-.023.11-.152-.064-.29.043-.233.085-.152v-.092l-.021-.164-.141-.092-.088.068-.053.21-.11.175-.121.057-.085-.233v-.152l.074-.176.053-.08.064-.267-.021-.164.01-.152-.11-.2.174-.119.085-.012.075-.107.088-.279-.021-.141-.152-.187-.11-.21.011-.119.021-.187.075-.119-.032-.141-.152-.107-.152-.081-.121-.164.011-.141.043-.107.011-.222-.021-.187-.021-.187-.088-.279-.043-.141-.085-.2-.132-.328-.184-.34-.152-.209-.238-.119h-.316l-.27.068-.216.091-.327.21-.163.119-.248.2-.132.233-.27.29-.295.091-.184.119-.121.339-.337.176-.3.068-.206.164-.216.176-.369-.057h-.227l-.163.057-.053.267.085.141.021.164-.064.328.01.29-.032.443-.042.339-.11.351-.131.3-.131.233-.063.119-.174.141-.248.118-.163.023-.248-.023-.206-.175-.163-.267-.258-.08-.227-.08-.228-.095-.152-.21-.1-.108-.174-.107-.163.164-.205.095-.238.092-.088.1-.085.21-.141.011-.141-.011-.121.209-.021.142v.209l-.043.233-.088.278-.11.221-.174.08-.281-.023-.11-.119-.075-.119-.142-.119-.141-.068-.23.046-.1.222-.152.291-.053.175-.174.245-.141.022-.306.233-.248.141-.121-.057-.11-.256-.053-.2-.28-.279-.184-.1-.2-.023-.3-.069-.185-.046-.326.1-1.085.736.3-.362.01-.317-.433-.55-.163-.244-.3-.317-.152-.584-.085-.465-.01-.385-.053-.6-.085-.374.11-.443.248-.328.216-.267.27-.29.053-.328-.142-.42-.142-.233-.152-.21-.021-.233.074-.409.228-.385.454-.611.2-.516.295-.374.521-.374.564-.317.5-.2.685-.256.454-.118.564-.164.51-.329.379-.3.479-.641.476-.432.617-.278.37-.187.521-.107.4-.222Z" transform="translate(-1040.391 -594.025)" fill="#5751c8" stroke="#eaecff" stroke-width="0.5"/><path d="M1517.333,713.508l.543-.256.121-.222.131-.176.121-.351.248-.278.521-.351.4-.21.258-.119.259-.119.306-.233.152-.119.316-.233.359-.233.326-.164.174-.046.465.187.728.374.748.3.738.317.706.432.465.4.368.21.238.141.4.3.412.068.738-.164.454-.164.205-.13.443-.386.521-.29.359-.057.295-.092.422-.023.337-.152.391.13.205.3-.227.222-.2.5-.142.176-.184.29-.11.3-.021.2.032.175.074.233.053.141-2.224-.736-.1.176-.065.233-.052.21-.043.175.053.107.121.023.216.068.1.046.131.068.085.057.075.057-.021.118-.075.107-.052.152v.176l.032.175.11.068.185-.046.152-.068.152-.046h.184l.184.091.11.141.121.119.259.2.2.141.248.176.11.233v.7l-.032.245.052.222.1.233.12.187.1.255.032.279v.278l.021.21.01.267v.152l.011.152.053.175.122.141.184-.057.11-.08h.205l.174.091.217.152.28.141.217.092.27.152.163.141.238.175.259.1.174.08.238.092.217.176.259.2.259.152.216.046.206.023.294-.107.238-.152.11-.046.131.119.053.164.1.233.152.21-.064.164-.032.187.043.256.085.256.142-.092.11-.187.121-.091.085.046.1.2.217.035h.11l.174.119-.064.21.053.4.053.351.11.244-.1.091-.063.091-.184.29-.142.278-.121.256-.152.187-.163.3-.174.107-.184.153-.205.2-.121.176-.1.351.052.092.121.278.248.221.369.176.27.141.315.069.295.13.27.152.27.211.239.256.216.279.238.141.174.141.174.164.141.21-.021.233-.249.3-.174.317-.089.08-.121.152-.043.245-.121.328-.142.21-.131.245-.174.222-.121.233-.11.211.131.278.132.317.131.222.088.3.152.351.085.057h.11l.085-.317.184-.152.152-.057.174.141.216.3.27.2.3-.035.269-.187.27-.351.043-.187.141-.488v-.233l.074-.233-.021-.141.121-.141.348-.141.248-.29.185-.34.131-.255.074-.175v-.233l.032-.079.194-.068.259.244.238.13.238.118.132.187.163.119.2.092.052.141.391.187.163.233.064.176.011.385-.032.068-.121.3.064.328-.043.187.021.118.11.141.142.13.131.175.042.164-.1.187-.142.118-.213.119-.042.068.053.187.1.211-.01.278-.142.328-.075.278-.131.168-.174.1-.174-.011-.174-.119-.074-.046-.032.073-.043.118-.216.046-.295.068-.2.153-.141.245-.043.164.053.233.2.255.239.175.163.141.131.2.043.256.021.164.131.187.2.187.1.187-.1.211-.2.1-.12.267-.054.267-.121.256-.174.233-.088.068-.152-.233-.38-.256-.238-.141-.368-.222-.205-.034-.206.034-.152-.034-.326-.035-.259-.057-.326-.141-.281-.141-.194-.141-.443-.119-.238.046-.185.209-.295.233-.28.068-.131.233-.053.164-.021.328-.074.107-.142.107-.316-.034-.28-.152-.174-.278-.1-.233-.11-.278-.011-.278-.174-.141-.109-.118.088-.13.194-.141.205-.317.1-.2.1-.152.142-.092.326-.233.063-.153.085-.29.121-.3.174-.2.053-.29-.185-.046-.248.118-.27.046-.2.141-.152.069-.27.13-.217.107-.348.141-.152.069-.306.069-.141-.034-.163-.046-.142.057-.152.092-.184.141-.184-.023-.152.164-.1.191-.1.107-.228.21-.021.164-.239.233-.337.046-.348.068h-.295l-.248-.057-.295-.152-.259-.068-.227-.068-.205.118-.238-.068-.164-.119-.174-.035-.28-.057-.174-.046-.11-.141-.074-.233-.011-.256-.152-.233-.131.069-.174.141-.348-.068-.054-.211-.053-.2-.205-.2-.141-.164-.043-.118-.131-.046-.132.119-.152-.046-.121-.046-.142.141-.206.21-.152.068-.248.08-.259.011-.248.046-.074.046-.11.164-.217.3-.216.095-.2.023-.163-.046-.359-.164-.412-.152-.238-.141-.174-.012-.11.2-.174.362-.216.267-.206.3-.216.08-.248.012-.217-.108-.281-.21-.163-.187-.185-.21-.259-.3-.295-.233-.2-.328-.295-.255-.23-.233-.216-.256-.085-.3-.089-.245-.085-.141-.1-.119-.152-.107-.216-.119-.174-.118-.217-.152-.238-.08-.174-.057-.131-.046-.174-.107-.2-.164-.248-.057-.064.046-.142.012-.152.012-.089-.29.053-.328.042-.256.121-.118.054-.092.053-.1.219-.065.085-.187.064-.046.152-.023.11-.069.11.023.142.012v-.267l.131-.1.174-.187.032-.164-.021-.267.11-.119.011-.233-.2-.153-.142-.164-.11-.176-.085-.255-.088-.29-.121-.024-.248-.091-.281-.08-.227-.13-.142-.187-.121-.164.053-.141.1-.046.152.046.131.035.216.107.27-.107.152-.107.152-.118.163-.187.064-.187.043-.267-.053-.222-.053-.187.089-.057-.1-.267-.11-.068-.011-.255-.053-.153-.11-.011-.142-.023-.11-.119-.053-.152-.121-.176-.032-.13.121-.107.152-.141.074-.267-.089-.152-.042-.068-.185-.233L1519,725.2l-.238-.256.032-.119-.032-.141-.11-.186-.132-.164v-.252l-.032-.2-.043-.119-.227-.267-.164-.046-.3.095-.205-.023-.227-.13-.174-.023-.043.13-.074.233-.074.091-.074-.057-.1-.13-.074-.13-.032-.118.021-.187.064-.08.1-.068-.085-.21-.064-.187.021-.21.1-.119.205-.023.295-.164.088-.164.01-.1-.184-.13-.174-.08-.064-.141-.06-.122.053-.164v-.29l.064-.2.063-.317.043-.233.074-.164.089-.278.11-.108.1.153.11.164.121.187.131.187.205-.1.2-.164.163-.119.121-.141.152-.187.1-.107.152-.012.131.095.141.153.205.141.249.057.227-.046.238-.057.248-.13.11-.233.053-.222.11-.091.1-.222.088-.245.021-.222.032-.164.054-.233.085-.233.1-.141.064-.211-.053-.187-.053-.175.01-.176-.021-.118-.131-.187-.152-.08-.217-.153-.185-.164h-.227l-.152.068-.194-.068-.185-.119-.2-.046-.131.08-.185.011-.358.034-.205-.034-.2-.141-.131-.187-.174-.046-.173-.118-.121-.29-.032-.107.053-.233-.5-1.577Z" transform="translate(-1437.577 -700.649)" fill="#5751c8" stroke="#eaecff" stroke-width="0.5"/><path d="M1861.808,1033.77l.66.328.454-.908.79.351v.794l.685.454,1.465.339,1.139.351.227-.687,1.139.454.443.794.684,1.26.912.339.227-1.027.11-.573,1.139-.454.454-.221.89-.211-.01.1.074.141.021.187-.042.278-.053.142-.174.107.205.176.043.118.163.363.152.641.738,1.8.11.13.152.2.912,1.844.085.209.063.477.074.119.5.759.295.279.075.141.131,1.145v.278l-.042.119-.554-.012-.121-.107-.142-.164-.2-.1h-.173l-.4-.057h-.663l-.142-.092-.089.079-.269.222-.152.2-.369.21-.142.046-.28.034-.206.023-.164.046-.336.141-.121.057-.184-.011h-.238l-.2-.176-.131-.2-.043-.164-.085-.141-.259-.057-.238.141-.248.153-.131.045-.174-.095-.238-.255-.163-.164-.152-.141-.248-.176-.327.012-.216-.023h-.217l-.205.023-.2.069-.053-.092-.054-.046-.011-.175.053-.245.011-.21-.163-.152-.1-.08-.089-.141-.11-.233-.121-.141-.174-.175-.295-.1-.326-.034-.337.046-.259-.119-.306-.095-.216.046-.368.1-.27.187-.121-.069-.379.107-.238.233-.259.13-.316-.046-.3-.164-.39-.119-.359-.069-.228.164-.27.164-.348.141-.074.012-.248-.153-.177-.1-.163-.08-.153-.187.032-.141.142-.119-.152-.141-.131-.095-.089-.046-.053-.187-.021-.092-.174-.1h-.152l-.152.046-.131.011-.074-.079-.032-.152.01-.2v-.141l.053-.222.021-.29.032-.2-.01-.244.042-.351.01-.477.053-.362.088-.068.174-.233.121-.256.053-.267.121-.267.2-.1.1-.21-.1-.187-.2-.187-.132-.187-.021-.164-.043-.255-.131-.2-.163-.141-.238-.175-.2-.255-.053-.222.042-.175.142-.245.2-.153.295-.068.217-.046.042-.118.032-.069.074.046.174.119.174.011.177-.1.131-.165.075-.278.142-.328.015-.277h0Z" transform="translate(-1755.514 -999.669)" fill="#5751c8" stroke="#eaecff" stroke-width="0.5"/><path d="M1884.011,792.727l.433-.1.432-.29.3-.186.228-.141.2-.29.064-.267.205-.141.205-.1.412-.244.358-.362.422-.443.4-.408.39-.512.3-.4.184-.29.2-.29.2-.317.085-.187.248-.42.216-.328.228.024.248.011.217-.035.238-.278.1-.351.053-.3.217-.328.281-.046.238-.256.217-.141.163.13.238.057.38-.119.369-.2.27-.08.316-.068.532.1.464-.011.316.107.205.046h.4l.153-.069.141-.068.163.046.184-.057.142-.222-.064-.164-.142-.176.054-.221.163-.141.2.244.142.267.227.187.228.141.121.233.121.119.132-.046.163.119.174.057.238.1.11.119.142-.187.043-.164.01-.08.142-.057.152.118.49-.1.259-.256-.032-.278-.217-.164-.142-.21.054-.164.27-.119.142-.317-.194-.175-.163-.141-.1-.256.032-.255.194-.187.2.068.11.256.052.164.153-.068.074-.141.238-.091.174-.21-.088-.3-.216-.362-.085-.187-.142-.317-.074-.141.085-.233.217-.023.216.233.121.351.121.278.132.278.141-.046.075-.119.021-.141.174-.118.173-.068-.042-.233.1-.187.043-.091.131-.233.152-.164.2.023.184-.091-.021-.119-.27-.141-.184-.241.043-.233.141-.023.27.279.173.1.217.13.219.172h.238l.132-.2.054-.245.01-.21.01-.2.164-.119.064-.233-.043-.164-.141-.107-.227-.1-.152-.08-.174-.08-.164-.107-.085-.119-.088-.187-.185-.141-.184-.152-.089-.046.3-.317.295.023-.032-.42-.085-.374-.074-.362.064-.363.422-.046.4-.023.206-.175.174-.687.163-.245.348.245.49.42.163.443-.042.351.205.63.238.279.258.278.205.152.316.267.281.488.141.351.205.233.465.141.3.068.238-.068h.295l.454.3.432.21.259.046.465-.023.489-.023.564.141.326.538.075.538.248.817-.052.454.369.573.2.385.3.538.184.454.164.328.042.278-.163.057-.359.057-.1.023-.791.21-1.085.408-.684.386-.152-.011-.085-.1-.153.209.174.092-.021.08-.153.057-1.876-.023-.543.034-.269.057-1.085.233-.2-.023-.064.046.1.08-1.213.55-.1.1-.074.13-.121.011-.1-.046-.121.035v.011l-.042.1-.585.432-.532.454-.032-.012-.174.091v.012l-.248.328-.174.141-.132.046-.443.42-.315.21-.815.766-.39.538-.259.256-.174.175-.422.527-.132.119-.152.256-.11.092-.085.022-.1.023-.021.187-.088.256-.585.851-.422,1.038-.228.374-.132.279-.152.465-.89.21-.454.222-1.139.454-.11.573-.227,1.027-.912-.34-.684-1.259-.443-.794-1.139-.454-.227.687-1.139-.351-1.465-.34-.685-.454V794.6l-.79-.351-.454.908-.66-.328-.1-.21-.053-.187.042-.068.217-.118.141-.119.1-.187-.043-.164-.131-.175-.142-.13-.11-.141-.021-.119.042-.187-.06-.3h0Z" transform="translate(-1777.837 -760.752)" fill="#5751c8" stroke="#eaecff" stroke-width="0.5"/><path d="M1800.075,1300.837l-.085-.046-.065-.091.021-.08.348-.012.121.046-.205.164Zm.964-.619-.39.29-.11.023-.142-.118-.141.046h-.142l-.064-.046-.054-.069.021-.164-.088-.141h-.043l-.152.222.063.187v.267l.054.092.074.091.142.046.142-.023.369-.244.28-.057.348-.279.228-.08.184-.164.088.034-.043.1-.649.454-.052.034-1.108.584-.316.279-.194.046-.532.278-.1.092-.737.362-.6.374-.347.279-.053.035-.032-.023-.185.13.021.057-.27.164-.248.278-.295.511-.281.653-.574.839-.053.057-.8.828-.295.572-.164.244-.053-.092-.011-.141.174-.4-.064-.024-.2.34-.194.595-.217.233.163.046.075.068.021.046.132-.011.053.222.1-.107.11-.011-.011.107-.11.08-.042.1-.649-.164-.6.187-.6-.374-.859-.279h-.423l-.606.1-.422-.187-.259-.362-.6-.455-.423-.091.543-1.844-.348-.908-1.128-1.482-1.029-1.248-.564-.8-.792-1.248-.685-1.026-.11-1.026v-1.248l.9.454,1.029.675h1.354l1.367.466.9-.233,1.249.351,1.018.107,1.476.119.912.908.564.221.912.119,1.128-.675,1.366-.119.337,1.027.8.222,1.018.222.516.415Z" transform="translate(-1685.397 -1243.071)" fill="#5751c8" stroke="#eaecff" stroke-width="0.5"/><path d="M1676.167,1057.383l.348.069.173-.141.132-.068.152.233.01.255.074.234.11.141.174.046.28.057.174.035.163.13.238.057.205-.118.227.068.259.068.294.153.248.057h.294l.348-.068.337-.046.238-.233.021-.164.228-.21.1-.107.1-.2.153-.164.184.023.184-.141.152-.092.142-.057.163.046.142.034.306-.068.152-.068.348-.141.217-.107.27-.13.152-.068.2-.141.27-.046.248-.119.184.046-.052.29-.174.2-.121.3-.085.29-.064.152-.326.233-.142.091-.1.152-.1.2-.205.317-.194.141-.088.13.11.119.174.141.011.279.11.279.1.233.174.279.281.153.316.034.141-.107.074-.107.021-.328.053-.164.132-.233.28-.068.295-.233.184-.211.239-.045.443.118.194.141.281.141.326.141.259.057.326.034.153.035.205-.035.205.035.368.222.238.141.38.255.152.233-.053.363-.01.477-.043.351.011.245-.032.2-.021.29-.053.221v.141l-.01.2.032.152.074.08.132-.011.152-.046h.152l.174.1.021.092.053.187.089.046.131.1.152.141-.142.119-.032.141.152.187.163.08.184.08.249.153.074-.012.348-.141.269-.164.227-.165.358.069.39.118.3.164.316.046.259-.13.238-.233.38-.108.12.069.27-.187.369-.095.217-.046.3.1.259.119.337-.046.326.035.294.1.174.175.121.141.11.233.089.141.1.08.163.152-.011.21-.052.245.01.175.053.046.053.092-.607.515-.574.584v.909l-1.129-.233-.79.119-.912-.339-.454-.119-.11.454-.792.351-1.139.233-.79.443-.575,1.027-1.465.465v-1.027l-.575-.8-.9-.108-1.029.561-.9.909-.227.118-.564-.221v-1.146l-2.657-.339.412-.107.359-.092.28-.079.2-.046.295-.023.28-.023.206-.024.11-.187.064-.187-.085-.107-.131-.244.042-.3.142-.363.032-.278.011-.245-.164-.187-.11.012-.217-.012-.295-.023-.259.023-.194-.187-.121-.328-.142-.068-.249.011-.227-.011-.152.1-.227-.012-.281-.012-.258-.409-.021-.256.053-.362.152-.267.064-.267.085-.21.1-.328-.064-.068-.174-.046-.337.012-.412-.046-.245-.023-.152-.023-.164.023-.326-.119-.205-.107-.359-.29-.228-.267-.359-.107-.238-.119-.163-.255-.174-.119-.185-.095-.121-.023-.248.069-.4-.211-.088-.256.011-.279.053-.222.089-.431.032-.255-.153-.164-.217-.141-.248-.187-.216-.209-.131-.255-.142-.374-.021-.141.021-.152.032-.164.043-.176.1-.068.132-.057.227-.057.142-.035.152-.057.11-.046.119-.05h0Z" transform="translate(-1584.331 -1021.161)" fill="#5751c8" stroke="#eaecff" stroke-width="0.5"/><path d="M1436.468,1215.369l2.656.34v1.145l.564.222.227-.119.9-.908,1.028-.561.9.107.574.806v1.027l.217,1.026.347,1.027-.454.794.11.817v.328l.121.351.564.908-.9.233-1.365-.465H1440.6l-1.028-.676-.9-.454v1.248l.11,1.027.684,1.027.791,1.248.564.806,1.029,1.248,1.128,1.481.348.909-.543,1.843-.638.011-.217.012-.11-.012-.326.035-.1-.164.043-.222-.011-.152-.217-.012-.316-.035-.227.035-.132-.023-.348.035-.131-.164.01-.209.085-.092.132-.1.174-.119.053-.245-.11-.222-.11-.175-.174-.256-.152-.012-.11.118-.063.069-.121.023-.121-.046-.121-.21-.205-.222-.053-.187.184-.152.132-.21.121-.141-.1-.187-.184-.023-.152.046-.1.035-.153-.118-.141-.187-.11-.245-.089-.3-.121-.164-.2-.2-.227-.2-.37-.443-.295-.317-.337-.317-.412-.279-.249-.328-.238-.187.238-.233.206.046.142.13.043-.08.088-.068.042-.187-.088-.233-.085-.187-.121-.244-.348-.328-.174-.164-.11-.152-.433.152-.121-.012-.074-.1-.053-.255-.185-.1-.248-.012-.2.012-.074.011-.216-.118-.065-.08-.053-.29-.1-.363-.131-.233-.216-.13-.249-.107-.348.107-.121.279.142.187-.021.13-.574.222-.042-.211.042-.187-.2-.046-.217.141-.2.187-.227.068-.259.068-.2.291-.173.362-.043.278-.11.267-.131.245-.11.164-.315.046-.206.234-.369.209-.064.233.121.164.064.069-.085.164-.355.054-.259-.108-.315-.011-.5-.091h-.2l-.074-.2-.238-.176-.217-.1-.205.046-.131.046-.074-.068-.227.012-.163.2-.205.118-.152-.023-.248-.046-.185.187-.185.233-.01.118-.205.107-.205.152-.27.046-.248.057-.216.13-.227.1-.2.034-.064-.187.032-.328.01-.152-.184-.057-.184.034-.281.107-.337.141-.2.057-.205-.012-.11-.186-.011-.187.053-.141.074-.2.053-.1.043-.141-.064-.141-.01-.13.043-.108.227-.141h.185l.3-.233.053-.245.021-.153-.131-.118-.248.023-.27.153-.259.119-.227.046-.227.08-.295-.012-.369-.079-.11-.046-.174-.092-.238-.118-.295-.176-.217-.152-.259-.023h-.184l-.348.023-.205.023-.227.068-.185.046h-.3l-.281.011-.216-.079-.28-.187-.238-.21-.27-.164-.433-.233-.295-.141-.316-.118-.27-.119-.316-.21-.259-.152-.326-.2-.27-.187-.423-.233-.316-.362-.369-.175-.259-.141-.295-.1-.379-.141h-.564l-.258-.046-.38-.152-.216-.141-.174-.152-.281-.211-.206-.328.217-.1.121-.068.043-.187.11-.267.27-.187.142-.1.11-.2.152-.2.131-.035.205.1.281.107.238-.046.3.046.248.023.185.119.248.255.238-.046.121-.21.238-.233.248.035.27.034h.315l.348-.011.142-.011.2-.023.2-.141.074-.141.1-.068v-.245l.064-.222.217.035.152-.057.248.091.369.024h.185l.121.068.152.046.205-.13h.194l.11.107.011.068.131.141.174.13.269.221.074.141.11.187.184.3.075.328.089.256-.064.255.173.1h.174l.281.08.205.153.443-.024.131.211.152.023.174.046.163-.141.217-.119.27.046.217.141.337.21.433.023.184.119.433-.023.174.034.217.153.227-.023.074-.13.021-.141.074-.164.3-.012.205.046.2.164.248.1.2.012.131-.164.174-.256.249-.21.248-.233.142-.267.206.034.227.046h.205l.174-.069.217.1.141.119.185.119h.216l.121-.1.142-.119.11-.119.064.069.3-.119.216-.023.259-.034.121-.107.185-.187h.454l.131-.3.11-.187.216-.092.238-.057.185-.13.194-.164.121-.187.174-.119.2-.4.032-.119.053-.176.131-.153.27.046.27-.057.153-.011.173-.164.043-.233.152-.21.259-.095.227.046.206.035.185-.107.1-.069.12-.107.174-.035.2.1.174.046.217.046.216.068.206.107.184-.034.206-.175.131-.092.142-.222.11-.374.11-.267.01-.245.075-.034Z" transform="translate(-1339.882 -1168.433)" fill="#5751c8" stroke="#eaecff" stroke-width="0.5"/><path d="M1860.891,1192.857l-.131-.068-.043-.164.085-.34-.085-.222.043-.092.238-.2-.032-.527.053-.152.032-.08.01-.119-.11-.278.011-.069.064-.022.064.068.206.958-.042.164-.259.42-.053.211.021.4Zm-12.756-.954-.564-.908-.121-.352v-.328l-.11-.817.454-.794-.347-1.027-.216-1.026,1.476-.466.564-1.026.791-.443,1.139-.233.791-.351.11-.454.454.119.912.34.792-.119,1.128.233v-.908l.575-.584.606-.516.2-.068.206-.023h.216l.216.023.326-.011.249.175.152.142.163.163.238.255.174.1.132-.046.248-.152.238-.141.259.057.085.141.043.164.132.2.194.175h.238l.185.012.121-.057.337-.141.163-.046.206-.023.28-.035.142-.046.369-.21.152-.2.27-.222.089-.08.152.091h.649l.4.057h.174l.2.1.142.164.121.107.552.011-.063.13.11.363.174-.046.1.012.1.011.228.256.11.4.184.443v.119l-.043.119-.085.1-.142.023-.142.3.206-.046-.1.107.01.034.011.046h.411l.054.08.063.012.121-.023.185-.13.11-.176.074-.068h.152v.046l-.337.328-.295.2-.4.34-.259.187-1.334.909-1.238.886-.337.255-1.419,1.084-.7.675-.359.13-.01.046.042.023.121.023-.239.3-.248.465h-.053l-.142.108-.085.152-.074.255.043.538.074.255-.295.55-.131.057.042.057.142.057.01.046-.163.118.032.046.259-.023.042-.045.064.057v.13l-.074.107-.152.08-.089.1.01.079.205-.095.1.057.184-.13.085-.3.326-.233.1-.119.173-.091h.075l.053.328-.021.1-.259.175-.053.069.021.141.249-.152.1-.046v.023l-.152.443-.085.107-.249.175-.042.107.021.092.074.012.759-.687.074-.107.11-.5-.053-.153-.021-.046.085-.024.075.092.064.141-.01.164-.142.4-.933.935-.738.386-.521-.409-1.018-.222-.8-.222-.337-1.027-1.355.119-1.138.676-.912-.118-.564-.222-.912-.909-1.476-.118-1.018-.107-1.234-.357Z" transform="translate(-1743.795 -1137.66)" fill="#5751c8" stroke="#eaecff" stroke-width="0.5"/><path d="M1253.148,913.456l.053-1.248-.337-.909.617.233.454.222.228-.63.173-1.145-.227-.687.248-1.027.228-.351.454-.119.234-1.469-.121-1.493-.337-1.027-.912-1.027.121-.806.792-.339.674-.585.227-1.248.575-.222,2.44-.583-.216-.255-.085-.3-.089-.244-.085-.141-.1-.119-.152-.107-.217-.119-.174-.118-.217-.152-.238-.08-.174-.057-.131-.046-.174-.107-.2-.164-.248-.057-.064.046-.142.012-.152.012-.088-.29.053-.328.043-.256.121-.118.053-.092.053-.1.223-.065.085-.187.064-.046.152-.023.11-.069.11.023.142.012V895.2l.131-.1.164-.187.042-.164-.021-.267.1-.119.021-.233-.2-.153-.142-.164-.11-.176-.085-.256-.088-.29-.121-.024-.248-.091-.281-.08-.227-.13-.142-.187-.121-.164.053-.141.1-.046.152.046.131.035.217.107.27-.107.152-.107.152-.118.163-.187.064-.187.043-.267-.053-.222-.053-.187.089-.057-.1-.267-.121-.068v-.256l-.053-.153-.11-.011-.142-.023-.11-.119-.053-.152-.121-.176-.032-.13.121-.107.152-.141.064-.267-.075-.152-.042-.068-.185-.233-.294-.256-.238-.256.032-.119-.032-.141-.11-.186-.131-.164v-.252l-.032-.2-.042-.119-.228-.267-.163-.046-.3.1-.206-.023-.227-.13-.174-.023-.043.13-.074.233-.074.091-.074-.057-.078.023-.053.057.021.08.032.2-.021.164-.074.119-.142.141-.163.152-.152.068-.131.08-.121.187-.074.141-.043.13-.01.107v.069l-.185.046.185-.046.141.069.227-.023.2.011.184.012.121.046.164.187.11.119.074.164v.175l.01.1.11.164.064.3-.053.233-.01.187-.011.21-.1.152-.184.187-.184.209-.088.172-.121.21-.185.08-.121.08-.042.119-.088.141-.085.068-.131.023-.128-.042-.174.068-.152.024-.194.023-.238.057-.2-.057h-.2l-.152.057-.238.175-.174.153-.141.011-.258-.023-.217-.08-.216-.057-.131.035-.132.107-.163.023-.217.119-.152.164-.032.245.011.21.085.175.11.21.132.187.085.091-.011.164.021.328-.011.278.011.187.064.256.064.187.089.176.074.187.121.046.174.176.074.164-.121.233-.248.024-.185-.024-.142.057-.141.13-.248-.046-.27-.1L1249,896.3l-.185.011-.248.244-.227.233-.205.233-.185.255-.01.1.121.233.2.119.131.068.163.068.11.279.12.278.075.211.032.119-.011.119-.141.141-.1.187.021.092.2.164v.13l-.121.175-.11.21-.11.035-.121-.13-.064-.328-.064-.164-.132-.118h-.174l-.11-.046.021.21.064.29-.011.317-.121.035-.163-.046h-.205l-.205-.057-.228-.119-.174-.1h-.368l-.064-.092-.259-.068-.185-.13-.248-.057-.248.046-.249.08-.216.107.021.095.163.08.185.13.053.211-.1.1-.163-.08h-.153l-.131.2-.259-.107-.227-.107-.238-.152-.131-.175-.1-.091-.174-.153-.217-.092-.185.068-.11.279-.185.119-.227-.108-.152-.091-.185-.034-.184.21-.131.317-.064.245-.163.351-.043.164.021.164v.187l.053.164.131.141.228.141.2.164-.075.255-.184.023-.248-.164-.205-.141-.28-.141-.348.023-.174.023-.2.046-.37.152-.238.046-.184.153-.238-.069-.4-.091-.369-.069-.152-.069-.3-.118-.185.022-.194.1-.27.187-.088.08-.358.4-.337.176-.259.141-.12.057-.163.057-.27.046-.316.091-.021.1.152.119.152.068.064.256-.053.141-.1.1-.032.057.032.153v.164l-.1.222.011.2-.1.175-.121-.011h-.248l-.163-.024h-.2l-.216.068-.184.023h-.422l-.27.068-.121.068-.121.119-.131.164-.216.164-.185.164-.238.13-.131.035-.053.095v.118l.032.081-.2.08.248.783.248.175.27.046.227.035.27.141.2.153.053.119.053.068.1.187.088.222.085.29-.021.267-.01.29-.011.21.152.233.306.362.259.244.259.046.575.141.248.035.27.034.163.011.205.035.248.023.238.118.412.279.248.267.174.046.227.08.326.046.259.119.205.141.227.141.185.233.184.21.259.328.238.3.206.164.28.141.295.164.38.187.163.068.295.023.4.057.38.035.369.035.27.035.306.023.3.046.337.068.205.164.074.119.085.2-.054.069.054-.069.131-.034.152.107.131.107.184.164.163.187.085.141.074.141.064.21.1.141.217.328-.217-.328.227-.1.12-.068.043-.187.11-.267.259-.187.153-.1.11-.2.152-.2.132-.035.205.095.28.107.238-.046.306.046.248.023.184.118.248.256.238-.046.121-.21.238-.233.248.034.27.035h.316l.348-.011.142-.011.2-.023.2-.141.074-.141.1-.068v-.244l.064-.222.216.034.152-.057.249.092.369.023h.184l.121.068.152.046.228-.144h0Z" transform="translate(-1174.63 -863.847)" fill="#5751c8" stroke="#eaecff" stroke-width="0.5"/><path d="M1506.159,1068.054l.227-.63.174-1.145-.227-.688.248-1.026.227-.351.454-.119.23-1.465-.121-1.493-.337-1.026-.912-1.027.121-.806.792-.339.685-.585.217-1.248.575-.222,2.44-.583.228.233.295.256.2.328.295.233.258.3.185.21.163.187.28.21.217.107.248-.012.216-.08.206-.3.217-.267.163-.362.121-.2.174.012.238.141.412.152.359.164.163.046.2-.023.216-.095.217-.3.11-.164.074-.046.249-.046.258-.011.249-.08.152-.068.205-.21.142-.141.121.046.152.057.131-.13.132.046.042.118.142.164.205.2.054.2.053.211-.121.046-.11.046-.152.057-.142.034-.228.057-.131.057-.1.068-.043.176-.032.164-.021.153.021.141.142.374.131.256.216.21.249.187.216.141.152.164-.032.255-.088.432-.054.221-.01.278.089.256.4.21.248-.068.121.023.184.095.174.119.163.256.238.119.359.107.227.267.359.29.206.107.333.111.164-.023.152.023.238.035.412.046.337-.011.174.046.064.069-.1.328-.085.21-.064.267-.152.266-.054.363.021.256.259.408.281.012.227.011.153-.1.227.012.249-.012.141.068.122.328.194.186.259-.023.295.023.216.012.11-.012.163.187-.01.244-.032.279-.142.362-.042.3.131.244.085.108-.063.187-.11.187-.205.023-.28.023-.295.024-.2.046-.28.08-.358.091-.412.107-.205.057-.075.035-.01.245-.11.267-.11.374-.141.222-.132.091-.206.175-.184.046-.206-.118-.216-.069-.217-.046-.173-.046-.2-.1-.174.035-.12.107-.1.068-.184.108-.206-.035-.228-.046-.259.1-.152.21-.042.233-.174.164-.153.012-.27.057-.27-.046-.131.153-.053.175-.032.119-.2.4-.174.119-.121.187-.194.164-.184.13-.239.057-.217.092-.11.187-.131.3h-.454l-.185.187-.121.107-.259.035-.216.022-.3.119-.064-.069-.11.119-.142.118-.121.1h-.217l-.184-.118-.142-.119-.217-.1-.174.069h-.206l-.227-.046-.205-.035-.142.267-.248.233-.248.21-.174.255-.131.164-.2-.011-.248-.1-.2-.164-.205-.046-.306.011-.074.164-.021.141-.074.13-.227.023-.217-.153-.174-.034-.433.023-.184-.119-.433-.023-.337-.21-.216-.141-.27-.046-.217.118-.174.141-.174-.046-.152-.023-.131-.21-.443.024-.205-.153-.281-.08h-.174l-.174-.1.064-.255-.088-.256-.074-.328-.2-.3-.1-.186-.074-.141-.27-.222-.174-.13-.131-.141-.01-.069-.11-.107h-.2l.053-1.248-.337-.909.617.233.452.222Z" transform="translate(-1426.849 -1020.151)" fill="#5751c8" stroke="#eaecff" stroke-width="0.5"/><path d="M1308.122,1262.014l.141-.034.142.107.132.107.184.164.163.187.085.141.074.141.064.21.11.141.205.328.28.21.174.152.217.141.379.152.259.046h.564l.38.142.295.095.259.141.369.176.316.362.422.233.27.187.326.2.259.152.316.21.27.119.316.118.295.142.433.233.27.163.238.211.281.187.216.079.28-.011h.3l.184-.046.228-.069.205-.023.348-.023h.185l.258.023.217.152.295.175.238.119.174.091.11.046.369.08.295.012.227-.08.227-.046.259-.119.27-.152.248-.022.132.118-.021.152-.053.245-.3.233h-.184l-.228.141-.043.107.01.13.064.141-.042.141-.053.1-.074.2-.053.141.01.187.11.187-.248,1-.685.233h-1.248l-1.029.676-.227,1.145.912.351,1.593-.351.912-.454,1.029.118.454,1.026-.685.454-.574.351.348.561.912-.107.912.572.337.454.348.687-1.138.908h-1.487l-1.476.909-1.713-.119-1.583.466-2.167-.351-1.476.584-.228,1.809-.295-.233-.205-.08-.184-.187-.238-.221-.054-.08.132-.233.032-.256-.089-.187-.163-.068-.206.068h-.227l-.174-.046-.11-.046.074-.245.1-.08.064-.057.088-.08-.01-.278-.043-.164-.01-.278-.032-.095-.1-.374-.11-.221-.043-.153-.227-.141-.337.057h-.295l-.184-.092-.121-.107-.053-.209-.074-.351-.053-.234-.2-.317-.248-.267-.248-.13-.227-.141-.281-.431-.064-.187.064-.21.053-.118.1-.187.11-.119.131-.187.053-.233.121-.279.043-.374-.088-.339.021-.245.074-.454-.01-.34-.11-.1-.248-.068-.27-.068-.238-.13-.238-.221-.131-.187-.131.046-.259.023-.132.011-.174.012-.085-.092-.131-.069-.11-.141-.121-.187-.205-.141-.131-.21-.174-.164-.205-.046-.205.107-.152.034-.074.046-.131.186-.064.279-.1.29-.163.363-.131.3-.163.317-.217.351-.37.245-.379.164-.2-.011-.326-.13-.064-.164-.174-.3-.142-.187-.11-.256-.2-.267-.152-.267-.053-.351-.032-.328.021-.279.021-.233.089-.477-.1-.164-.032-.432-.174-.107-.38.068-.248-.012-.121-.176-.11.057-.152.035-.074-.046.021-.2.032-.153.064-.095.184-.141.174-.152.085-.233v-.164l-.152-.1-.053-.13.063-.21.11-.13.11-.035.163-.069.11-.107.238-.035.2.119.174-.13.185-.2.227.012.228.034.295-.08.259-.152.163-.023.174.046h.2l.315.08.306.023.3-.08.184-.119.163-.278.074-.187-.121-.176.01-.267.153-.119-.011-.21.089-.2.085-.175.075-.068.216-.13.021-.187.085-.255.131-.13.228-.118.205-.035h.174l.205.035.185-.141.121-.092.121-.385.142-.153.163-.13.11-.209-.032-.187.053-.078Z" transform="translate(-1237.901 -1211.611)" fill="#5751c8" stroke="#eaecff" stroke-width="0.5"/><path d="M1459.775,1325.8l.216-1.809,1.476-.584,2.167.351,1.583-.466,1.713.119,1.476-.908h1.487l1.139-.909-.348-.687-.337-.454-.912-.572-.912.107-.348-.561.574-.351.685-.454-.454-1.026-1.029-.119-.912.454-1.593.351-.912-.351.227-1.145,1.029-.675h1.248l.685-.233.248-1,.205.011.194-.057.337-.141.28-.107.185-.034.185.057-.011.153-.032.328.064.187.2-.035.227-.1.217-.13.248-.057.27-.046.205-.152.205-.107.011-.119.184-.233.184-.187.249.046.152.023.206-.119.163-.2.228-.012.074.069.131-.046.205-.046.216.095.238.175.075.2h.2l.5.091.316.012.259.107.368-.046.085-.163-.063-.069-.121-.163.064-.233.369-.21.205-.233.316-.046.11-.164.131-.244.11-.267.042-.279.174-.362.2-.29.259-.068.227-.069.2-.187.216-.141.2.046-.043.187.043.21.574-.222.021-.13-.142-.187.121-.278.348-.107.249.107.217.13.131.233.1.362.052.29.065.081.216.119.074-.012.2-.011.248.011.185.1.053.255.074.095.12.012.433-.152.11.152.174.164.348.328.121.245.085.187.088.233-.042.187-.089.068-.043.08-.142-.13-.194-.046-.249.233.238.187.249.328.412.278.337.317.295.317.369.443.227.2.2.2.121.164.088.3.11.245.141.187.153.119.1-.035.152-.046.184.023.1.187-.121.141-.132.211-.184.153.054.187.206.221.121.21.12.046.121-.023.064-.068.11-.119.152.011.174.256.11.175.11.222-.053.244-.173.119-.132.1-.085.091-.01.211.131.164-.706.4h-.911l-.685-.119-1.366-.119-.912-.794-.791-.8-1.259-.222-.912.339-.685.806-.684.1-.684-.222-.912,1.26-.564.221v1.951l-.574,1.367-1.008.538-.238,1.061.227,1.833.564,2.065-.717.4-.738.409-1.529.687-.511.3-.053.034-.759.385-.674.477-.369.2-.78.573-1.409,1.038-.468.4-.716-.466-.522-.748v-.737l.348-1.282.174-.549.088-.749.053-.29-.075-.153-.12-.255-.121-.245-.348-.2-.238-.4-.185-.221-.281-.1-.174.022-.185-.13-.2-.035h-.248l-.259-.187-.153-.233-.217-.279-.238-.328-.174-.107-.4-.08-.326-.091-.326-.13-.152-.176-.053-.374-.259-.29h.014v-.013Z" transform="translate(-1384.858 -1256.817)" fill="#5751c8" stroke="#eaecff" stroke-width="0.5"/><path d="M1642.738,1415.544l.348-.035.132.023.227-.035.316.035.217.012.011.164-.043.209.1.164.326-.035.11.012.217-.012.638-.011.423.092.6.454.258.362.423.187.606-.1h.423l.859.279.6.374.6-.187.649.164-.032.068-.053.08-.27.153-.833.29-.391.13-.66.29-1.4.828-.163.068-.021-.187-.074.046-.032.164-.053.091-.163.035-1.54.516-.6.255h-.131l-.3.13-.37.1-.628.176-.412.091v-.046l.337-.141.011-.035-.032-.012-.238.1-.228.046-.326-.046-.1.023-.011.057.132.046.074.023.163-.011.053.068-1.008.164-1.724.4-.11.023-.922.255-1,.351-.237.023-.717.222-.716.256-.521.267-.39.091-1.292.443-.163.046-1.118.584-.412.255-.39.13-.184.2-.923.42-.564-2.065-.227-1.832.238-1.061,1.007-.538.574-1.366v-1.95l.564-.222.912-1.26.684.222.686-.1.684-.806.912-.339,1.259.222.791.8.912.794,1.365.119.685.118h.912l.694-.383h0Z" transform="translate(-1542.431 -1352.316)" fill="#5751c8" stroke="#eaecff" stroke-width="0.5"/><path d="M1306.324,875.52l-.359-1.633-.11-1.026-.8-.339-.337.8-.571.561-.791.584-.574-.923-.228-.923-.912-1.939-.336-1.027-.685-1.493v-1.588l.564-.923.8-.687v-.56l-.8-.351-.228-1.26,1.139-.233.227-.676.543-1.049h.185l.184-.069.088-.068.2.035.259.13.185-.046.152-.023.227-.023.227.08.142.08.163.1-.011.187.021.13.121.164.121.2.01.244.1.233.141.046.238.034.141-.141.088-.068.075.023.1.118.132.233.141.244.141.153.011.267-.064.175.2.119.142.175.064.245-.043.187.085.175.3.057.248.011.2-.08.141-.164.011-.2-.032-.245-.011-.21.11-.256h.142l.348.057.259-.012.227.023.163-.107.141.057.185.068h.216l.152-.068.228-.092.1.023.217-.034.11-.012.132-.164.1-.092.27.068.1.08.142.011.248-.068v.141l.085-.046.11-.279.1-.046.141.091.174.068h.78l.131.035.1.13.01.256v.233l.043.153.164.245.1.255-.01.091.01.187.064.244.228.267h.337l.174-.141.217-.1h.294l.27-.023.379-.034.238.13.163.069.2-.046.131.069.228-.023.2.011.185.012.121.046.163.187.11.118.074.164v.175l.01.1.11.164.064.3-.053.233-.011.187-.011.211-.1.153-.185.186-.185.21-.109.18-.121.21-.185.08-.121.08-.042.119-.088.141-.085.068-.131.023-.128-.042-.174.068-.152.024-.194.023-.238.057-.2-.057h-.2l-.152.057-.238.175-.163.153-.152.011-.259-.023-.216-.08-.217-.057-.131.035-.132.107-.163.023-.217.119-.152.164-.032.245.011.21.085.175.11.21.132.187.085.091-.011.164.021.328-.011.278.011.187.064.256.064.187.089.176.074.187.121.046.174.176.074.164-.121.233-.248.024-.185-.024-.142.057-.141.13-.248-.046-.27-.1-.163-.091-.185.011-.238.244-.238.233-.205.233-.185.255-.01.1.121.233.2.119.131.068.163.068.11.279.12.278.075.211.032.119-.011.119-.141.141-.1.187.021.092.2.164v.13l-.121.175-.11.21-.11.035-.121-.13-.064-.328-.064-.164-.132-.118h-.174l-.11-.046.021.21.064.29-.011.317-.121.035-.163-.046h-.205l-.205-.057-.228-.119-.174-.1h-.368l-.064-.092-.259-.068-.185-.13-.248-.057-.248.046-.249.079-.217.107.021.095.163.08.185.13.053.211-.1.1-.163-.08h-.153l-.131.2-.259-.107-.227-.107-.238-.152-.131-.175-.1-.091-.174-.153Z" transform="translate(-1237.437 -839.881)" fill="#5751c8" stroke="#eaecff" stroke-width="0.5"/><path d="M807.664,824.974l.585-.862.912-1.26-.227-1.61.121-1.6-.348-1.6-.227-.908-.11-1.493L807.8,814.5l-.564-2.405-.574-2.054-1.139-1.6-.454-1.912.021-.317-.2.141-.295.175-.164.095-.2.164-.443.363-.443.119-.348-.035-.326-.034-.174.561.021.515-.053.607-.11.374-.238.222-.174.278-.185.256v.4l-.053.328-.088.21-.032.1-.337.279-.227.278.021.363-.205.29-.074.092-.259.443-.032.466-.249.549-.2.584-.238.675-.053.619.27.652.465.538.412.607.3.714v.339l-.337.328-.369-.023-.248-.011-.554-.176-.316-.068-.737-.119-.074.046-.337.21-.174.13-.217.443-.326.245-.088.4.088.351.085.256-.042.21-.142.221-.238.245-.316.443-.01.374-.043.42-.11.511-.152.42-.248.21-.465.374-.422.714-.316.2-.423.141-.521.164-.174-.023-.454-.164-.5-.164-.411-.141-.521-.4-.1-.187-.27-.267-.326-.222-.2-.3-.11-.255-.053-.233-.2-.164-.4.119-.412.023-.433.118-.281.164-.337.3-.326.141-.39-.046-.358-.13-.248.012-.38-.068-.358.13-.205.108-.316.118-.295.141-.184-.012-.152-.046-.39-.107-.216-.142-.248-.068-.269.046-.249-.035-.369-.035-.337.046-.281.1-.316.187-.379.255-.238.278-.074.278.01.255.11.256.032.1.131.432-.153.443.021.328-.053.279-.163.374-.38.886-.228.488-.152.317.064.187.142.245.074.186-.1.2-.11.233-.074.164-.043.351.032.1.185.057.152-.057.184.1-.258.374-.011.29-.131.267.088.118.174.107.248-.4.174-.107.316-.21.238-.164.248-.187.205-.118.326-.141.121-.023.248-.023.2.068.238.222.2.164.152.21.216.08.238-.164.2-.141.152.046.074.175-.011.363.032.267.132.279.258.339.228-.187h.205l.1-.046.295-.091.39-.13.412.023.479-.035.51-.092.422-.057.348.012.422-.068.522-.233.369-.233.185-.2.174-.267.131-.209.316-.211.258-.023.152.118.1.068.1.3.043.3.074.141.032.2.174.21.053.152.021.211.064.256.152.164.121-.068.163.011.1.012.063-.057.064-.107.075-.068.074-.091.163-.069.142-.022.021-.164.142-.141.205-.023.142.119.074.1.238.069.164-.035.163-.034.348-.209.2-.08.28.023.316-.211-.074-.256-.205-.29-.326-.2-.185-.164-.032-.187.11-.4.064-.4-.074-.34-.281-.339-.042-.1h-.074l-.142.035-.227.046-.11.091-.2.1-.2-.069-.121.023-.142-.187-.174-.244-.1-.2.01-.187.11-.091.074-.095.142-.164.184-.3.249-.187.163-.068.174-.046.152-.118.185.046.216.046.248.057.205-.08.184.068.142.21.152.278.142.3.074.1.131-.023.248-.118.269-.119.121-.255.11-.211.163-.023.28.187.032.164.141.3h.132l.074-.035.11-.454.359-.023.422-.012.327-.244.476-.233.337-.21.3-.211.142-.2.2-.255.27-.107.163-.023h.38l.4.011.337.108.358.141.216.153.11.244.217.164.153-.2.163-.29.064-.092.37-.068.163-.233.27-.164.043-.279.163.023.248.4.163.267.032.152.227.267.152.08.228.164.184.187.238.118.142.069.27-.256.142-.3.216-.385.174-.3.121-.175.152-.233.142-.233.227-.135Z" transform="translate(-756.564 -789.404)" fill="#5751c8" stroke="#eaecff" stroke-width="0.5"/><path d="M1113.117,737.463l.227,1.145-.454.7.337.908.121,1.26-.574,1.248-.685.572-.685.233-1.476-.119h-1.139l-1.018.355-.575.908v1.145l-.454,1.027-1.366.233-1.93.443-.574-2.054-1.139-1.6-.454-1.912.3-.363-.3.363,1.085-.736.326-.1.184.046.3.068.2.024.184.1.281.279.053.2.11.256.121.057.249-.141.3-.233.142-.024.174-.244.053-.176.152-.29.1-.222.259-.024.141.069.141.119.075.119.11.119.28.023.174-.08.11-.222.088-.279.042-.233v-.21l.021-.141.121-.21.142.012.142-.012.085-.21.089-.1.238-.092.205-.1.174-.164.163.107.1.107.152.211.227.095.227.08.259.08.163.267.205.176.248.023.163-.023.248-.119.174-.141.064-.119.132-.233.131-.3.11-.351.042-.339.032-.443-.01-.29.064-.328-.021-.164-.085-.141.053-.267.174-.057h.216l.369.057.216-.175.206-.164.306-.069.337-.175.517.953h0Z" transform="translate(-1052.776 -724.837)" fill="#5751c8" stroke="#eaecff" stroke-width="0.5"/><path d="M1145.947,737.416l.791-.584.574-.561.337-.8.8.339.11,1.026.359,1.633-.185.068-.11.279-.184.119-.227-.107-.152-.091-.185-.034-.184.21-.131.317-.064.244-.163.351-.043.164.021.164v.187l.053.164.131.141.227.141.2.164-.074.256-.184.023-.248-.164-.2-.141-.295-.141-.348.023-.174.023-.2.046-.369.152-.238.046-.184.153-.238-.069-.4-.091-.369-.069-.152-.069-.3-.118-.184.022-.2.1-.27.187-.088.08-.358.4-.337.176-.248.141-.132.057-.163.057-.27.046-.316.091-.021.1.152.119.152.068.064.256-.053.141-.1.1-.032.057.032.153v.164l-.1.222.011.2-.1.175-.121-.011h-.248l-.163-.024h-.194l-.217.068-.184.023h-.422l-.259.068-.131.068-.121.119-.132.164-.216.164-.184.164-.238.13-.131.035-.053.1v.118l.032.081-.194.08-.11-.934-.064-.211-.053-.141-.206-.187-.131-.1-.205-.035-.249.011-.174-.118-.141-.046-.121-.119-.011-.164-.021-.13-.152-.222-.042-.21.074-.21-.053-.187-.085-.1-.2-.092-.042-.095-.217-.092-.306-.046-.326-.141-.259-.091-.3-.034-.205.046-.337.011-.227-.1-.205-.21-.216.035-.185.057-.174-.035-.174-.221-.043-.222-.074-.209-.011-.211-.074-.328-.01-.142-.021-.1-.121-.374-.205-.187-.249-.164-.337-.187-.142-.141-.295-.141-.163-.187-.227-.164.585-.863.912-1.259-.227-1.611.121-1.6-.348-1.6-.227-.909-.11-1.493-.575-1.145-.564-2.4,1.93-.443,1.366-.233.454-1.026v-1.145l.574-.908,1.018-.351h1.138l1.476.119.685-.233.685-.572.574-1.248-.121-1.26-.337-.908.454-.7-.227-1.145-.532-.947.121-.34.185-.118.295-.092.27-.29.131-.233.249-.2.163-.119.326-.21.217-.091.27-.069h.316l.238.119.153.21.185.339.131.328.085.2.043.141.088.278.021.187.021.187-.01.222-.043.107-.01.141.121.164.152.08.152.107.032.13-.074.13-.021.187-.01.119.11.21.153.187.021.141-.089.278-.074.107-.085.011-.174.119.11.2-.011.152.021.164-.064.267-.053.08-.074.175v.149l.085.233.121-.057.11-.176.054-.21.088-.068.142.091.021.164v.091l-.085.152-.043.233.064.29-.11.152-.075.023-.259.035-.121.069-.152.107-.074.3.121.057.27.057.205.13.074.21-.021.119.088.187.032.233.121.187.163.164.032.233-.088.068-.1.034-.089.107-.074.279-.011.176.064.187.259.222.152.046.2.141.174.1.074.152-.021.2.053.3.121.187.131.141.163.068.2.023-.543,1.049-.228.675-1.139.233.227,1.259.8.351v.561l-.8.687-.564.923v1.588l.684,1.492.337,1.027.912,1.939.227.923.556.906h0Z" transform="translate(-1080.03 -702.827)" fill="#5751c8" stroke="#eaecff" stroke-width="0.5"/><path d="M985.13,1063.8l.77,1.05,1.029.351,1.138.351h.912l.564.561-.227.8-1.018,1.26-.121.687,1.259.443.685.466.227,1.259-.454,1.027-.121.794.7,1.7.238-.328.163-.351.164-.374.295-.561.1-.339v-.279l.053-.29-.032-.141.227-.63.152-.328.121-.175.359-.29.281-.091.3-.13.259-.012.337-.046.348-.023.337-.022.269.011.216-.057.238-.1.2-.141.3-.141.259-.141.368-.092.316.046.348-.035.194.023.348.035.238.119.184.164.259.119h.217l.294-.095.327-.069.28-.068.152-.068.238-.068.248-.068.39-.279.39-.233.2-.164.295-.164.326-.164.423-.255.348-.13.227-.13.348.119.259.024.39.164.121-.538-.11-.935-.063-.21-.054-.141-.206-.187-.131-.1-.2-.035-.258.012-.174-.119-.142-.046-.121-.119-.01-.164-.021-.13-.152-.222-.043-.21.074-.21-.053-.187-.085-.1-.2-.092-.043-.1-.216-.092-.306-.046-.326-.141-.266-.08-.3-.034-.205.046-.337.011-.227-.1-.205-.21-.216.035-.185.057-.174-.035-.174-.221-.043-.222-.074-.209-.011-.211-.074-.328-.01-.142-.021-.095-.121-.374-.205-.187-.249-.164-.337-.187-.142-.141-.295-.141-.163-.187-.227-.164-.238.118-.142.233-.142.233-.131.176-.174.3-.216.385-.141.3-.27.255-.142-.068-.238-.119-.185-.187-.227-.164-.152-.08-.228-.267-.032-.152-.163-.267-.248-.4-.163-.023-.043.278-.27.164-.163.233-.369.068-.064.092-.163.29-.152.2-.217-.164-.11-.245-.216-.152-.358-.141-.337-.107-.4-.012h-.38l-.163.023-.27.107-.194.256-.142.2-.3.209-.337.211-.475.233-.326.244-.422.011-.358.024-.11.454-.074.034H986.5l-.142-.3-.032-.164-.281-.187-.163.023-.11.21-.121.255-.266.138-.25.118h0Z" transform="translate(-945.18 -1025.356)" fill="#5751c8" stroke="#eaecff" stroke-width="0.5"/><path d="M780.81,1091.792l.228-.187h.205l.1-.046.295-.091.39-.13.412.022.479-.035.51-.092.422-.057.348.012.422-.068.522-.233.369-.233.185-.2.174-.267.131-.21.316-.211.258-.023.152.118.1.069.1.3.043.3.074.141.032.2.174.211.053.152.021.21.064.255.152.164.121-.068.164.012.1.012.063-.057.064-.107.075-.069.074-.091.163-.069.142-.023.021-.164.142-.141.205-.023.142.118.074.1.238.068.163-.034.163-.035.348-.21.2-.08.28.023.316-.21-.074-.256-.205-.29-.326-.2-.185-.164-.032-.187.11-.4.064-.4-.074-.34-.281-.339-.042-.092-.074-.012-.142.034-.227.046-.11.091-.2.1-.2-.068-.121.022-.142-.187-.174-.244-.1-.2.01-.186.11-.092.074-.1.142-.164.184-.3.249-.187.163-.068.174-.046.152-.119.185.046.216.046.248.057.205-.08.184.068.142.21.152.279.142.3.074.1.131-.023.77,1.05,1.029.351,1.138.351h.912l.564.561-.227.806-1.018,1.259-.121.687,1.26.443.685.465.227,1.26-.454,1.027-.121.794.7,1.7.01.092.184.164.032.328v.245l-.11.152-.185.233-.131.164-.163.187-.142.164.142-.164-.295-.141-.12-.08-.174-.057-.174.211-.142-.13-.259-.107-.369.046-.295-.2-.043-.13-.021-.187-.021-.278.085-.279.064-.211-.1.012-.2.152-.2.217-.205.13-.2.187-.281.279-.27.187-.27.141-.11.255-.194.256-.185.221-.163.2-.27.152-.281.141-.28.233-.075.279.011.187-.032.267-.238.068-.227-.118-.238-.012-.238.024-.206.057-.3.3-.216.187-.227.21-.216.21-.2.119-.174.119-.075.233-.2.328-.163.351-.11.255-.064.222-.295.278-.348.153-.326-.011-.205.011-.163-.034-.227.072-.174-.079-.238-.164-.258-.256-.227-.068-.326-.118-.1.022-.164-.141-.12-.046-.248.046-.206.068-.238.1-.185-.024-.238-.022-.131.1-.174.175-.238.141-.2.141-.141.046-.2-.012-.295-.046-.228-.107h-.295l-.627-.21-.152-.046-.27.1-.088.141-.032.233-.217.141-.163-.068-.121-.023-.174-.068-.174-.057-.27-.034-.163-.023-.194-.035-.174.012-.259.023-.142.012-.11-.152.043-.164.088-.107.152-.153.121-.118.142-.091.085-.176.085-.152.1-.187.2-.221.032-.118-.121-.176-.1-.164.043-.1.174-.2.121-.107-.064-.233-.1-.256-.1-.091-.206-.057-.152-.035-.281-.069-.248-.068-.043-.13.043-.2.074-.164.238-.279.032.21.131.234.032.091.27.011.121.046.074-.13-.064-.141.021-.187.053-.2v-.3l-.085-.13-.121.024-.089.046h-.085l-.074-.046-.131-.119-.064-.091-.074-.046-.132-.046h-.121l-.043.069-.054.187-.063.187-.085.164-.088.118-.174-.118-.074-.069-.021-.118.053-.164.032-.119.11-.13.152-.13.121-.108.141-.175.11-.187-.021-.211-.131-.068-.152-.011-.074.107-.153.222-.216.2-.074.068-.11.08-.2-.08-.227-.057-.216-.08-.1.023-.228.068-.184.035-.11-.011-.064-.023-.01-.141.085-.141.131-.328-.053-.119-.1-.164-.089-.119-.131-.255-.152-.187-.174-.2-.1-.324-.053-.351.043-.233.11-.187.11-.256.152-.328.074-.4.163-.443.01-.256.032-.351-.021-.3.088-.255.142-.152.121-.057.131-.164.043-.119.121-.21.043-.141.121-.279.163-.21.1-.164-.01-.118-.11-.13-.184-.13-.021-.141-.021-.187-.021-.175-.121-.13.042-.118.011-.187-.121-.13-.185-.012-.174-.035.248-.4.174-.107.315-.21.238-.164.248-.187.205-.119.326-.141.121-.023.248-.023.2.069.238.222.2.164.153.21.216.08.238-.164.2-.141.152.046.074.176-.01.363.032.267.131.279.271.35h0Z" transform="translate(-751.246 -1049.035)" fill="#5751c8" stroke="#eaecff" stroke-width="0.5"/><path d="M1012.24,1235.007l-.812-1.776-.454-1.259-.685-1.027-.454-.573-.348-1.248-.227-.7-.8-.443-.791-.233-.684.572.912.687.11.794-1.365.687-.912-.572-1.018.454-1.139.454-2.061-.454-1.249-.572-1.138.793-1.029,1.038-.684.688.227,1.145-.454,1.259-1.018-.351-1.15-.573-.685.222-1.582.607-.054.168-.032.13-.021.234v.13l.053.183.142.057.227.13.238.187.131.068.164.118.248.21.1.153.064.152.043.164.064.255.1.339.142.339.011.255v.176l.021.222-.074.233-.1.141-.152.176-.11.13-.064.119-.043.278v.21l.043.374.032.118.152.069.088-.046h.152l.174-.046.11-.023.163-.046.142.118.064.068.1.08.085.2-.021.278-.043.164-.238.222-.206.187-.216.107-.153.256-.01.339-.021.222-.074.317-.088.176-.132.164-.152.046-.163.047-.205-.047-.228-.035-.152-.011-.1.023-.152.057-.074.057-.142.046-.163.023-.064-.023-.152-.164-.163-.141-.174-.057-.238-.08h-.2l-.337-.046-.184.057-.11.08-.1.164-.11.141-.152.141-.075.092.021.233-.174.3-.11.141-.152.079-.174.245-.1.141-.174.187-.121.211-.152.255-.075.21-.11.278-.074.187-.043.211h0l.174.118.163.091h.216l.153.023.258.187.185.233.141.3-.021.351-.174.351-.064.209-.032.141-.131.13-.11.08.032.187.1.279.085.187.121.091.163-.046.163-.118.184-.023h.152l.259.233.174.233.258.328.152.245.184.278.053.176-.132.3-.194.164-.174.164.152.328.348.583.295.245.152.317.131.153-.01.385.1.279.142.221.184.1.185-.363.153-.21.184-.141.216.08.121.222.2.373v.244l.238.175.163-.164.142-.152.163-.13.27-.186.163-.255.011-.256.088-.233.085-.255h.184l.2-.035.248-.13.216-.1.2.119.152.1.152.164.4-.046.184.255.074.374.152.233.184.21.326.2.2-.046.295-.176.238-.187.258.022.205-.141.164-.046.141.164v.278l-.2.057-.131.057.032.233.142.069.043.175-.11.057.11-.057.184.012.259.119.2.21.1.186.131.023.295-.233h.454l.142-.023.238-.267.238-.152.163.08.2.108.281.046.184-.068.185.068.238.164.206-.069.152-.057.315.012.238.046.131.119.174.328.121.374.121.176.248.057.3-.023.1-.023h.164l.238.119.12.152.216.107.27.068.089-.068.032-.187.032-.141-.021-.118-.088-.21-.074-.1.053-.187.163-.141.132-.233-.064-.233-.163-.233-.326-.385-.281-.176-.27-.152-.11-.385.085-.187.164-.233.074-.141-.011-.233-.163-.1-.185.023-.164.091-.216.234-.163.057-.042-.317-.032-.374-.085-.21-.121-.21-.121-.255-.131-.164-.074-.279.064-.068.11.046.089.046.238-.023.174-.091h.205l-.064-.245-.121-.176.152-.222.454-.222.121-.164-.043-.245-.27-.152-.032-.256.228-.068.412.046.465-.233.316.092.422-.244.249-.012.28-.164.316-.328.206-.279.1-.046.1.164.1.187.121.2.184.153.185.164.185.164.152.119H1009l.227.068.27.107.163.107.316.092.3.233.238.164.205.023.174-.046.1-.08-.011-.211.011-.152.032-.092.064-.141-.1-.2v-.141l.021-.2-.043-.233-.043-.119.088-.278.142-.278.085-.34.042-.222.075-.245-.216-.13-.185-.118h-.152l-.085-.023-.11-.023-.295.023h-.227l-.227.023-.152-.118-.2-.153-.174-.1-.227-.119-.11-.057-.152-.011-.1.023-.227.1-.131-.142-.064-.118v-.233l.153-.3.184-.187.227-.187.121-.164.153-.046.152.069.152-.023.227-.069.131-.046.132-.023.237-.141.1-.255-.063-.119-.153-.119-.141-.08-.075-.222.089-.279.174-.175.043-.29.085-.268.089-.187.205-.187.011-.245.121-.141.043-.233.011-.255-.1-.328.011-.222.152-.279.174-.2.1.068-.011.3.021.256.053.164.206.152.216.2.185.187.227.069.142.118.121-.057.064-.187.121-.152.121-.046.216.1.11.118.121.068.174-.057.132-.035.131-.069.011-.244.152-.152.184-.023.152-.1.085-.187-.064-.164-.174-.3-.142-.186-.11-.256-.2-.267-.152-.267-.053-.351-.032-.328.021-.278.021-.233.088-.477-.1-.164-.032-.431-.174-.108-.38.069-.248-.012-.121-.175-.11.057-.152.034-.074-.046.021-.2.032-.153.064-.095.185-.141.174-.152.085-.233v-.164l-.152-.1-.053-.13.059-.215Z" transform="translate(-948.589 -1179.902)" fill="#5751c8" stroke="#eaecff" stroke-width="0.5"/><path d="M1030.494,1159.168l-.685.572.912.687.11.794-1.365.687-.912-.573-1.018.454-1.138.454-2.061-.454-1.249-.572-1.138.794-1.029,1.038-.685.687.227,1.145-.454,1.259-1.018-.351-1.149-.572-.685.222-1.582.607-.185-.233-.28-.2-.238-.21-.316-.153-.216-.164-.174-.1-.152-.255-.121-.046-.174.022-.163-.045-.1-.141.032-.209.121-.3.326-.488.152-.141.295-.046.281-.057.348-.13.227-.141.337-.234.3-.164.337-.374.142-.164.163-.186.131-.164.185-.233.11-.153v-.245l-.032-.328-.184-.164-.01-.092.238-.328.163-.351.164-.374.295-.561.1-.339v-.278l.053-.29-.032-.141.227-.63.153-.328.121-.175.359-.29.28-.091.306-.13.258-.012.337-.046.348-.024.337-.023.27.012.216-.057.238-.1.205-.141.295-.141.259-.141.369-.092.315.046.348-.034.2.023.348.035.238.119.185.164.258.119h.217l.295-.1.326-.069.28-.068.152-.068.238-.068.248-.068.39-.279.39-.233.2-.164.295-.164.326-.164.422-.256.348-.13.227-.13.348.119.259.022.39.164.132-.538.238.782.248.176.27.046.228.035.27.141.2.152.053.118.053.068.1.187.088.222.085.29-.021.267-.011.29-.01.21.152.233.3.362.258.245.259.046.574.141.249.035.27.034.163.011.205.035.249.023.238.119.412.278.258.267.164.046.227.08.326.046.259.119.216.141.217.141.184.233.185.21.258.328.238.3.205.164.281.141.295.164.38.187.163.069.295.023.4.057.39.035.359.035.269.035.306.023.3.046.337.069.205.164.085.119.074.2-.053.068.053-.068.141-.035-.141.035-.053.068.032.187-.11.209-.163.13-.141.152-.121.385-.121.092-.185.141-.205-.035h-.174l-.205.035-.227.118-.131.13-.085.255-.011.187-.227.13-.074.069-.085.175-.089.2.011.211-.152.119-.01.266.121.175-.074.187-.164.278-.184.119-.306.08-.3-.023-.316-.08h-.2l-.174-.046-.163.023-.259.152-.295.08-.228-.034-.228-.012-.184.2-.174.13-.2-.119-.238.034-.11.107-.152.068-.121.035-.11.13-.812-1.775-.454-1.26-.684-1.027-.454-.572-.348-1.248-.228-.7-.8-.443-.784-.222h0Z" transform="translate(-971.423 -1111.323)" fill="#5751c8" stroke="#eaecff" stroke-width="0.5"/><path d="M1100.309,1584.148l.617.255.564-.119.685-.935.8.465.228.584-.121.908.121.935.11.107.468.923.227,1.026.454.817.685.233.564.573-.791,1.271-1.15.676.575,1.492,1.714-1.259h1.018l.348,1.145.074,1.565-.152.164-.053.119-.152.046-.121.046-.152.091-.053.118-.032.165-.238.068-.131.035-.054.119-.053.175-.043.141-.142.012-.021.317-.11.209-.248-.187-.348-.256-.294-.08-.27-.012.152.141.132.465.174.187.194.164-.152.141-.316.1-.131.3.053.164.021.209.121.069.074.164-.032.107-.163.222-.121-.068-.1-.046-.152.152-.043.176h-.152l-.248-.069-.2.1-.01.118.184.091.228.141.054.256-.228.141-.184-.2-.205-.13-.216.091-.011.187.2.164.184.035-.053.222-.248.057-.185-.08-.164-.21-.131-.152-.227.13-.043.187.021.187.121.164.11.069.184.209v.279l-.064.187-.121.141-.217.08-.184.13.11.187.043.141-.011.187-.11.119-.205-.023-.185-.068-.205-.119-.152-.091-.163.118-.032.279-.085.118-.227.118-.316-.023-.217-.164-.174-.164-.238-.023-.238.069-.248.141-.28.187-.163.141-.227-.118-.39-.046-.259.153-.011.187-.011.176-.238.046-.316-.164-.185-.024-.085.046-.163.118-.142.046-.295-.023-.348-.279-.194-.256-.174-.187-.152-.175-.064-.08-.359-.068-.433.152-.316.057-.27.068-.28-.023-.185-.164-.216.023-.228.141-.248.164-.142.024-.121-.046-.248-.164-.121-.21-.141-.13-.075-.165-.433.176-.141.068-.053-.079-.11-.142-.131-.107-.248-.057-.238-1.294-.727-.771-.206-1.026.248-.046.259.21.295.233.227.187.248.187h.132l.237.046.1-.3-.064-.279.141-.141.27-.046.216.046h.152l.12.023.088.068.064.3.142.152.295-.057.259-.175.216-.222.281-.3.042-.233-.1-.141-.27-.187-.238-.119-.142-.256.043-.164.217-.068.184-.095.174.046.131.119.205.046.216.119.185.092.152-.164-.043-.3-.205-.362-.121-.152-.032-.4.238-.119.185-.046.032-.118-.152-.164-.121-.164-.227-.141-.248-.187-.153-.164v-.374l-.053-.164.064-.187.152-.233-.032-.3-.238-.3-.11-.233-.053-.152.152-.317.205-.374.27-.3.121-.351.141-.267-.174-.362-.021-.141.205-.1.185-.079.11-.29.032-.187-.085-.42-.216-.233-.217-.233-.27-.046-.131.141-.074.091-.184-.068-.238-.141-.259-.279-.163-.141-.11-.068-.053-.211-.131-.164.043-.176.1-.408.043-.233.163-.3.163-.21.11-.187v-.3l-.074-.164-.053-.211.011-.163.174-.13.131-.119.032-.267.032-.164-.184-.187-.205-.142-.227-.164-.216-.233-.174-.255v-.211l.085-.267-.032-.21.01-.362-.01-.351.163-.069.11-.057.184.011.249.119.205.21.1.187.131.023.295-.233h.455l.141-.023.238-.267.238-.153.163.08.2.108.28.046.185-.068.185.068.238.164.206-.068.152-.057.316.012.238.046.131.119.174.328.121.374.121.175.248.057.3-.023.1-.023h.163l.238.118.121.152.217.108.259.068.1-.068v-.216Z" transform="translate(-1042.994 -1508.667)" fill="#5751c8" stroke="#eaecff" stroke-width="0.5"/><path d="M1201.537,1368.483l.326.13.2.011.379-.164.37-.245.216-.351.163-.317.131-.3.163-.362.1-.29.064-.278.131-.187.074-.046.152-.035.205-.107.205.046.174.164.131.21.206.141.121.187.11.141.132.068.1.092.163-.012.131-.012.259-.023.131-.046.132.187.238.222.238.13.27.068.248.069.11.1.01.34-.074.454-.021.245.089.339-.042.374-.121.279-.053.233-.132.187-.11.119-.1.187-.053.119-.064.209.064.187.281.432.227.141.249.13.248.267.2.317.053.233.074.351.053.21.121.107.185.092h.295l.337-.057.227.141.043.153.11.222.1.374.032.1.01.279.043.164.01.278-.088.08-.064.057-.1.08-.075.244.11.046.174.046h.227l.205-.068.164.068.088.187-.032.256-.131.233.053.08.238.222.185.187.206.08.3.233.248.29.053.374.152.176.326.13.326.091.4.08.174.108.238.328.216.279.152.233.259.187h.248l.2.034.184.13.174-.023.281.1.185.222.238.4.348.2.121.245.121.255.074.153-.053.29-.088.748-.174.55-.337,1.282v.736l.511.749.717.465-.163.141-.412.278-.032.023-.649.572-.412.29-.216.233-.248.141-.28.3-.4.63-.121.278.011.046-.032.023-.976.466-1.007.675-.043.023-.521.443-.39.328-.781.749h-.021v.023l-.121.1-.063.023-.521.488-.607.561-.706.9-.564.828-.131-.069-.053.092.085.068.021.069-.085.222-.053.21-.043.13-.39.549-1.214-2.133-.216-.164-.281-.244-.326-.13-.281-.21-.216-.211.1-.141.27-.119-.1-.141-.141-.118.01-.108.163-.034.185.012.042-.187-.174-.153-.521.012-.174-.035-.174.255-.043.187-.011.42-.3-.046-.085.046-.281.069-.141.068-.259.023-.39-.118-.054.141.295.317.259.267.121.233.11.046.2-.141.326-.046.238.091.075.256-.088.187-.011.13-.042.118-.1.057-.121.023-.153-.023-.316-.046h-.258l-.085.107.121.278-.131.29-.141.152-.075.175-.131-.023-.089-.175-.163-.409-.074-.374-.2-.278-.142.175-.01.08-.174.023-.248-.046-.142.118-.074-1.565-.348-1.145h-1.018l-1.714,1.259-.574-1.493,1.149-.675.791-1.271-.564-.572-.685-.234-.454-.817-.228-1.027-.468-.923-.11-.107-.121-.934.121-.909-.228-.584-.8-.466-.685.935-.564.119-.617-.256.032-.141-.021-.119-.089-.21-.074-.1.053-.187.163-.141.131-.233-.064-.234-.163-.233-.326-.385-.281-.176-.27-.152-.11-.386.085-.187.163-.233.074-.141-.01-.233-.163-.095-.184.022-.164.091-.216.233-.163.057-.043-.317-.032-.374-.085-.21-.121-.21-.121-.256-.131-.164-.075-.278.064-.068.11.046.088.046.238-.023.174-.092h.206l-.064-.244-.121-.176.152-.222.454-.222.121-.164-.053-.244-.258-.152-.032-.256.227-.068.411.046.465-.233.316.092.422-.245.248-.011.281-.164.316-.328.206-.279.1-.046.1.164.1.187.121.2.184.153.184.164.185.164.152.119h.205l.227.068.27.107.163.107.315.091.295.233.248.164.205.023.174-.046.1-.08-.01-.21.01-.152.032-.092.064-.141-.1-.2v-.141l.021-.2-.043-.233-.042-.119.089-.278.141-.279.074-.34.053-.222.074-.245-.217-.13-.184-.119h-.152l-.085-.023-.11-.023-.295.023h-.227l-.227.023-.152-.119-.2-.152-.174-.1-.227-.119-.11-.057-.153-.012-.1.023-.227.1-.131-.141-.064-.118v-.233l.152-.3.184-.187.228-.187.121-.164.152-.046.153.069.152-.023.227-.068.132-.046.131-.022.238-.141.1-.255-.063-.118-.153-.118-.141-.081-.074-.222.088-.278.174-.176.042-.29.085-.267.088-.187.206-.187.011-.244.12-.141.043-.233.01-.255-.1-.328.01-.222.153-.279.174-.2.1.068-.021.3.032.255.053.164.206.152.216.2.184.187.227.068.142.118.121-.057.064-.187.121-.153.12-.046.216.095.11.118.121.069.174-.057.131-.035.131-.068.01-.245.152-.152.185-.023.152-.1Z" transform="translate(-1136.13 -1307.915)" fill="#5751c8" stroke="#eaecff" stroke-width="0.5"/><path d="M718.842,1125.114l.259-1.714.912-1.39.121-1.026.11-1.038-.227-.687-.543-1.354-.163-.069-.121-.023-.174-.069-.174-.057-.269-.034-.164-.023-.194-.034-.174.011-.259.023-.142.011-.11-.152.043-.164.088-.107.152-.152.121-.119.142-.091.085-.176.085-.153.1-.187.2-.221.032-.119-.121-.176-.1-.164.043-.1.174-.2.121-.107-.064-.233-.1-.255-.1-.092-.206-.057-.152-.035-.281-.068-.248-.068-.043-.13.043-.2.074-.164.238-.278.032.21.131.233.032.091.27.012.121.046.074-.13-.064-.141.021-.187.053-.2v-.3l-.085-.13-.121.024-.089.046h-.085l-.074-.046-.131-.119-.064-.091-.074-.046-.132-.046h-.121l-.043.068-.054.187-.063.187-.085.164-.088.119-.174-.119-.074-.069-.021-.118.053-.164.032-.118.11-.13.152-.13.121-.107.141-.175.11-.187-.021-.211-.131-.068-.152-.011-.074.107-.153.221-.216.2-.074.069-.11.08-.2-.08-.227-.057-.216-.08-.1.023-.228.068-.184.035-.11-.011-.064-.023-.01-.141.085-.141.131-.328-.053-.119-.1-.164-.089-.119-.131-.255-.152-.187-.174-.2-.1-.32-.053-.351.043-.233.11-.187.11-.255.152-.328.074-.4.163-.443.01-.256.032-.351-.021-.3.088-.255.142-.152.121-.057.131-.164.043-.119.121-.21.043-.141.121-.279.163-.21.1-.164-.01-.118-.11-.13-.184-.13-.021-.141-.021-.187-.021-.175-.121-.13.042-.118.011-.187-.121-.13-.185-.012-.174-.035-.174-.107-.088-.119.131-.267.01-.29.259-.374-.184-.095-.152.057-.185-.057-.032-.1.043-.351.074-.164.11-.233.1-.2-.074-.187-.142-.244-.063-.187.152-.317.228-.489-.228.489.228-.489-.454.466-.379.255-.238.351-.423.607-.184.374-.121.278-.248.652-.316.607-.259.374-.3.119-.326.022-.326-.187-.2-.21-.164-.245-.411-.362-.337-.012-.152.095-.152.119-.053-.141-.042-.233-.075-.2-.042-.2-.075-.046-.248.164-.089.278-.063.187-.011.3.064.328.141.4.152.512-.021.5.1.737-.085.725-.01.477.4.663.174.329.11.465-.088.585.3,1.236.131.7-.011.431.37.549.1.4.163.538.564.607.11-.432.121.035.269.328.053.351.085.465-.141.585-.295.187-.27.386-.205.408.053.351.238.118.443.3.11.488-.121.3-.326.362-.184.5.131.443.152.465.085.317-.2.454.064.4-.2.538.1.759.131.783.227.748.4.607.454.3.823.233.575.13.6-.1.554-.164.706-.057.716.095.748.034.354.26h0Z" transform="translate(-690.236 -1062.051)" fill="#5751c8" stroke="#eaecff" stroke-width="0.5"/><path d="M459.9,1932.188l-1.4-.969-.685-.222-.791-.233-.227-.351-.706-.573-.675.317-.38.279-.663.3-.27.152-.585.664-.49.42-.368.55-.834.454-.281.176-.248.256-.053.5-.032.63.053.653-.39.267-.39-.057-.859.068-.412.607-.258.561-.49.538-.5.175-.574.23-.281.454-.326.222-.38.119-.443.351-.258.488-.121.374.021.279.01.4.043.63.1.748-.1.584-.121.5-.1.454-.205.374-.205.3-.032.607-.074.527-.348.526-.184.84-.2.675-.28.7-.574.409-.585.3-.121.035-.011.351.132.4.174.339.205.725.085-.664.369-.118.27-.164.227-.233.163-.092.163-.107.174.08.042-.3.4-.374.227-.351.281-.386.326-.152.337-.119.326-.095.39-.023.337-.2.216-.2.281-.13.152-.107.227-.092.412.023.316-.164.2-.091.174.011.174.13-.174-.13.348-.652.064.267.205-.267.01-.222-.021-.3-.01-.21.085-.3.248-.068.348.118.206.164.163-.012.132-.152.1-.21.184-.119.281-.046h.184l.206-.187.412.046.238.107.316.175.141.13.348-.011.259-.046.248.141.306.328.163.176.248-.08.185.046.216.29.316.222.295.187.326-.108.2-.175.1-.3-.064-.351-.043-.328.088-.3.142-.256.1-.092.142.234.053.374.152.256.28-.092.089-.187.064-.164.153.057.227.107h.132l.141-.13-.032-.29.121-.3-.205-.328-.132-.279-.021-.317.053-.317-.01-.328.01-.21.11-.046.238.141.249.2.074-.339-.089-.255-.3-.255-.2-.046-.2.035h-.141l-.1-.221-.216-.141-.163-.233.064-.233.238-.092.194-.187.064-.187-.2-.068-.205-.187.152-.141.053-.13.085-.267-.021-.351.238-.317.348.046.379-.2.216-.164.042-.255.011-.187.217-.187-.088-.141-.205-.119-.174.046-.337.119h-.281l-.326-.222.1-.141.205-.08.089-.244.131-.222.316-.222.152-.175.152-.068-.174-.256-.227-.374-.295-.3.01-.233.206-.187.184-.278.205-.443.3-.256.2-.187.064-.255.063-.164.206-.278.121-.164.121-.317.131-.245.2-.06Z" transform="translate(-442.62 -1830.29)" fill="#5751c8" stroke="#eaecff" stroke-width="0.5"/><path d="M617.69,1733.838l2.572-.958,1.365.119.685.466h1.366l1.139-.584,1.365.351.685.233h1.369l1.366.675.348,1.05-.121,1.026h.454l1.138-1.259.7-.7,1.823-.119-.227,1.168-.348.794.574.118.912-1.145,1.018-.233.39,1.447-.3.023-.131.153-.131.2-.085.3-.2-.069-.152-.023-.053.119.164.244.216.2.174.256.184.42-.238.068-.064.279.121.209.217.023.131-.374.042-.3.053-.245.205-.13.238.21.054.233.063.175.205.152-.053.187-.238.1v-.21l-.184-.141-.163.164.021.255.075.221.1.13.205.046.248.068.085.279.011.255.226.13.295.107.121.233h-.3l-.121.233.01.278-.021.069-.258.046-.248-.21-.227.023-.206.164.227.152.121.164-.1.107-.074.164-.152.176-.174.046-.11.08-.11.023-.28.057-.316.046-.27.092-.3.153-.121.211.01.068.131.068.132.141-.238.221-.4.013-.295.046-.28-.118-.228-.046-.121-.024.121.245.054.279-.032.222-.043.255-.141.266-.185-.222-.074-.279-.205-.164-.38.023-.152-.152-.185-.175-.185-.046-.194-.069-.164-.141-.131-.118-.306.046-.141.187-.064.211.053.141.011.164-.152.164-.205.351-.227.351-.206.34-.358.477-.174.516-.011.21.021.164-.475.233-.369.092.152.278.12.233-.032.222-.121.164-.142.233.121.08.184-.08.227-.153.206-.08.184.13.011.2-.142.119-.238.079-.217.092-.021.164.021.119.174.141.185.234.121.095.326.092.227-.13.259-.222.238.187.043.187-.089.255-.131.222-.142.153-.2.21-.11.3-.131.351-.11.21-.163.164-.152.233-.3.141-.075.278.249.13.269.011.021.187.085.164.1-.1.11-.141.185-.046.074.176-.021.2-.021.187.032.1.1.079.163-.641.1.725.011.106-.032.2-.174.164-.163.068h-.152l-.205-.13-.216-.187-.185.011-.315.3-.327.222-.358.107-.39.164-.475-.092-.205.046-.216-.012-.295-.187-.228-.339-.085-.328.032-.255-.306.1h-.348l-.281-.118-.227-.024-.205-.068-.01-.21-.174-.118-.227-.119.032-.095-.032-.153-.358.1-.39.233-.248.34.194.279.132.187-.185.4.021.233v.328l-.053.21-.359.3-.082.152-.238.011-.043.153-.142.233-.28.069-.326.057-.227.164-.11.153-.131.164-.132.119-.174.141-.281.233-.184.164-.205.187-.075.21.021.233-.1.351-.2.2-.38.2L620.2,1757l-.074-.1-.163-.233-.295-.267-.258-.244-.043-.176.021-.221.01-.187-.163-.267-.131-.141.063-.1.043-.142.131-.068.185-.119.053-.3-.064-.211-.01-.222-.11-.233-.206-.153-.315-.164-.281-.092-.238-.045-.205-.035-.121-.152v-.233l.152-.255.064-.176-.1-.175-.11-.069-.141-.107-.205-.13-.174-.255-.088-.221.032-.08.088-.068.1-.3.01-.256-.053-.245-.152-.2-.185-.08-.238-.023-.2.035-.2-.141-.131-.244-.326-.152-1.4-.97-.685-.222-.791-.233-.227-.351-.706-.573.11-.29.337-.4-.021-.255-.27-.278-.465-.1-.316-.2-.295-.13-.121-.233.295-.676.4-.489.617-.538.412-.278.684-.351.479.069.532-.069.412-.2.205-.374.358-.339.423-.29.664-.2.454-.278.249-.489.01-.278-.032-.4-.163-.351-.064-.328.11-.432.142-.267.5-.21.27.046.4.164.2-.187.142-.374-.174-.187-.184-.443-.316-.454-.184-.675.1-.245.032-.374-.053-.676-.205-.164-.3-.477.043-.187-.021-.362-.064-.326Z" transform="translate(-598.906 -1647.834)" fill="#5751c8" stroke="#eaecff" stroke-width="0.5"/><path d="M868.84,1473.247l-.649-.107-.684.8-.685.817v1.729l.912.817.227,1.855-.684,1.622-.348,1.622v.923l-1.139.465-.564-.119-.121,1.049.685,1.844-.11.7-1.029.466-.337-1.169-1.029-.572-.337,1.39-.912.7.454,1.038-.121,1.271-.8,1.168-.912.806-.454.687-.912.466.348,1.049-.12,1.026h.454l1.139-1.259.7-.7,1.823-.118-.227,1.168-.348.794.574.119.912-1.145,1.018-.233.39,1.446.131.141.063.209.326.068.216-.068.2-.046.1.024.11.163v.164l.152.164.205.107.185.2.053.2.021.107.238.119.174-.068.043-.279-.053-.351.053-.443-.021-.222-.053-.13.131-.023.205.069.249.057-.011-.289-.152-.317-.121-.267.1-.267-.064-.233-.021-.279-.053-.221.131-.2.337.046-.011.278.064.279.227.233.121.152.032-.221.174.1.121.176-.216.222-.054.13-.1.279.074.091.348.164h.121l.228-.153.021-.385.142-.234.132-.176.064-.152-.075-.187-.042-.164.11-.233.2.023.032.164.063.164.043.092.141-.046.174-.119.153-.175.042-.176.064-.13.238-.091.216-.175-.131-.141-.152-.245-.1-.245-.074-.221.27-.164h.216l.216-.057-.021-.209.085-.187.206-.141.131.187-.1.255-.053.222.216.107.153-.068.174.068.032.152-.295.13-.064.141.227.1.185.08.1.107.074.118-.153.141.075.222.174.175.141.046.185.107.174.34.142.164.163.164-.021.164.075.2.326.035.295.011.064.141-.164.2-.295-.023-.053.1.206.21.248.21.074.351.074.107.228.29.01.187.074.267.164.255.206.08.142.175.532-.267-.954-1.283.954-.771.27,1.283.248-.046.259.21.295.233.228.187.248.187h.132l.238.046.1-.3-.064-.278.142-.141.27-.046.216.046h.152l.121.023.088.069.064.3.141.153.295-.057.259-.176.216-.221.281-.3.042-.233-.1-.141-.27-.187-.238-.119-.142-.255.043-.164.216-.069.184-.095.174.046.131.118.205.046.216.118.185.091.152-.164-.043-.3-.205-.363-.121-.152-.032-.4.238-.13.185-.034.032-.119-.152-.164-.121-.164-.227-.141-.248-.187-.152-.164v-.373l-.053-.164.064-.187.152-.233-.032-.3-.238-.3-.11-.233-.054-.153.153-.317.205-.374.27-.3.121-.351.141-.267-.174-.363-.021-.141.206-.1.184-.08.11-.29.032-.187-.085-.42-.216-.233-.216-.234-.27-.046-.131.141-.074.091-.184-.068-.238-.141-.259-.279-.163-.141-.11-.069-.053-.209-.131-.164.043-.176.1-.409.043-.233.163-.3.164-.21.11-.187v-.3l-.074-.164-.053-.21.011-.164.174-.13.131-.13.032-.255.032-.164-.184-.187-.206-.141-.228-.164-.216-.234-.174-.255v-.209l.085-.267-.032-.21.01-.363-.01-.351.163-.068.11-.057-.042-.175-.142-.068-.032-.234.131-.068.2-.046v-.279l-.142-.164-.164.046-.205.141-.258-.023-.238.187-.295.175-.2.046-.326-.2-.184-.21-.152-.233-.074-.374-.184-.255-.4.046-.152-.164-.152-.1-.2-.118-.216.1-.248.13-.2.034h-.184l-.085.255-.088.233-.01.255-.164.256-.269.187-.164.13-.141.152-.163.164-.238-.176v-.244l-.2-.375-.121-.221-.216-.08-.184.141-.152.21-.185.362-.185-.1-.142-.221-.1-.279.01-.385-.131-.152-.152-.317-.295-.244-.348-.585-.152-.328.174-.164.2-.164.131-.3-.053-.175-.184-.279-.152-.244-.259-.328-.174-.233-.259-.233h-.152l-.184.024-.163.119-.163.046-.121-.092-.085-.187-.1-.278-.032-.187.11-.08.132-.13.032-.141.064-.21.174-.351.021-.351-.141-.3-.185-.233-.258-.187-.152-.023h-.217l-.163-.091-.283-.133h0Z" transform="translate(-828.607 -1407.221)" fill="#5751c8" stroke="#eaecff" stroke-width="0.5"/><path d="M588.953,1418.924l-.759.992-.228,1.634.11,1.725-.227,1.168,1.376,1.5,1.018.573,1.029,1.516.337,1.39.575,2.088,1.7.923.121,1.271-.348.935-.791.806.11,1.39-1.366-.675h-1.369l-.684-.233-1.365-.351-1.139.584H585.69l-.684-.466-1.366-.118-2.572.958-.248-.21-.4-.233-.248-.141-.121-.443-.074-.5.064-.455-.075-.725-.163-.443-.326-.7.184-.141.3-.13.564-.107.522-.141.163-.3-.227-.42-.348-.187-.369-.141-.617-.141-.22-.336-.064-.339.2-.328.174-.141.3-.187.142-.725-.281-.3-.337-.012-.248-.057-.443-.3-.238-.641-.443-.874-.238-.374-.205.046-.248.351-.2.21h-.368l-.316-.233.379-.584-.074-.607-.205-.4-.216-.488.174-.443.238-.63.152-.432-.205-.687-.238-.7-.184-.538-.01-.351.194-.63.054-.351-.054-.3-.454-.068-.38.046-.6-.187-.27-.118-.281-.328-.131-.512-.184-.385-.465-.245h-.281l-.465-.245-.511-.34-.443-.362-.132-.409-.074-.76-.021-.3-.011-.3.011-.4-.021-.455-.121-.56.021-.4.174-.152.227-.29.164-.164-.053-.21.238-.385.3-.13h.423l.5.1.6.035.674.408.369.561.316.432.216.386.281.328.185.1.1-.164.032-.29.174-.13.184-.011.216.13.121.255.27.386.4.222.174-.291.053-.267.064-.255.37-.068.205.209.163.351.185.3.359.068.152-.119.27-.255.142-.29.359-.107.337.209.337.329.295.374.258.244.326.454.412.84.479,1.061.369.783.521-.35.326-.187.7-.443.6-.42.585-.233.49-.046.585-.107.348-.118.27-.035.326.362.306.153.379-.068.49-.012.248.08.021.561-.27.2-.358.29-.1.4.053.421.2.229Z" transform="translate(-562.287 -1350.528)" fill="#5751c8" stroke="#eaecff" stroke-width="0.5"/><path d="M802.292,1264.574v1.729l.912.817.227,1.855-.684,1.622-.348,1.622v.923l-1.139.465-.564-.119-.121,1.049.685,1.844-.11.7-1.029.465-.337-1.168-1.029-.572-.337,1.39-.912.7.454,1.038-.121,1.27-.8,1.168-.912.806-.454.686-.912.466-.11-1.39.791-.8.348-.935-.121-1.271-1.7-.923-.574-2.088-.337-1.39-1.029-1.516-1.018-.572-1.376-1.5.227-1.168-.11-1.725.227-1.633.759-.992.205.222.228.091.141.08.174.454.359-.443.021-.3-.032-.3.1-.328.359-.079.716-.13.51-.141.185-.362.163-1-.11-.595-.337-.561-.269-.477-.185-.561-.074-.477-.206-.42.259-1.714.912-1.39.121-1.027.11-1.038-.227-.687-.543-1.356-.163-.068.163.068.217-.141.032-.233.088-.141.27-.1.152.046.627.21h.295l.228.107.295.046.2.011.141-.046.2-.141.238-.141.174-.176.131-.1.238.024.185.023.238-.095.206-.069.248-.046.12.046.163.141.1-.024.326.119.227.068.258.255.238.164.174.08.216-.068.163.035.205-.012.326.012.348-.152.295-.279.063-.222.11-.255.163-.351.2-.328.074-.233.174-.118.2-.119.216-.21.228-.21.216-.187.3-.3.206-.057.238-.023.238.011.227.119.238-.068.032-.267-.01-.187.074-.278.28-.233.281-.141.269-.153.164-.2.184-.222.2-.255.11-.255.27-.153.27-.175.28-.278.2-.187.205-.13.2-.221.2-.153.1-.011-.064.21-.085.278.021.279.021.187.042.13.306.2.359-.046.259.107.141.13.174-.21.174.057.121.08.295.141-.142.164-.337.374-.3.164-.337.233-.227.141-.348.13-.281.057-.295.046-.152.141-.326.488-.121.3-.032.209.1.141.163.045.174-.022.121.046.152.255.174.1.216.164.316.153.238.21.28.2.185.233-.036.172-.032.13-.021.233v.13l.053.183.142.057.227.13.238.187.131.068.164.118.248.21.1.153.064.152.043.164.064.255.1.339.142.339.011.256v.176l.021.222-.074.233-.1.141-.152.176-.11.13-.064.119-.043.278v.21l.043.374.032.118.152.069.088-.046h.152l.174-.046.11-.023.163-.046.142.118.064.068.1.08.085.2-.021.278-.043.164-.238.222-.206.187-.216.107-.153.255-.01.339-.021.222-.074.317-.088.176-.132.164-.152.046-.163.046-.206-.046-.228-.035-.152-.011-.1.023-.152.057-.074.057-.142.046-.163.023-.064-.023-.152-.164-.163-.141-.174-.057-.238-.08h-.2l-.337-.046-.184.057-.11.08-.1.164-.11.141-.152.141-.075.092.021.233-.174.3-.11.141-.152.08-.174.245-.1.141-.174.187-.121.211-.152.256-.075.21-.11.278-.074.187-.043.211h0l.174.118-.28-.118-.65-.108-.685.806-.674.817Z" transform="translate(-764.076 -1197.03)" fill="#5751c8" stroke="#eaecff" stroke-width="0.5"/></g></g></svg>