<svg xmlns="http://www.w3.org/2000/svg" width="103.405" height="100.505" viewBox="0 0 103.405 100.505"><g transform="translate(-1724.89 -1225.984)"><path d="M390.446,1472.335s.849-.229.849-.569a8.158,8.158,0,0,0,0-1.978c-.507-2.029-3.962-.849-3.962-.849Z" transform="translate(1338 -167.637)" fill="#5751c8" stroke="#eaecff" stroke-width="0.5" fill-rule="evenodd"/><path d="M630.837,1460.556s-5.127-4.414-8.092-2.631c-2.262,1.358-1.612,4.711.283,5.662s5.035.272,5.942,2.547S630.837,1460.556,630.837,1460.556Z" transform="translate(1160.029 -181.24)" fill="#5751c8" stroke="#eaecff" stroke-width="0.5" fill-rule="evenodd"/><path d="M633.787,1506.3s-5.892-1.044-6.791,2.547c-.32,1.282,3.364,4.618,3.962,4.813a5.851,5.851,0,0,1,2.263,1.129C634.12,1515.464,633.787,1506.3,633.787,1506.3Z" transform="translate(1159.172 -188.594)" fill="#5751c8" stroke="#eaecff" stroke-width="0.5" fill-rule="evenodd"/><path d="M767.942,1197.5c-1.061-.919-5.942-1.953-5.942,1.129,0,3.676,4.244,3.676,4.244,3.676S769,1198.422,767.942,1197.5Z" transform="translate(1059.822 29.667)" fill="#5751c8" stroke="#eaecff" stroke-width="0.5" fill-rule="evenodd"/></g></svg>