<svg xmlns="http://www.w3.org/2000/svg" width="115.588" height="130.427" viewBox="0 0 115.588 130.427"><g transform="translate(-96.702 -90.315)"><path d="M100.771,193.783l-.738,3.136-.751,1.345-1.5,1.644-.827,1.121v.423l0,.846.906.373,2.112.371,2.414,0,4.148.145,2.036,0,2.489.3,2.489.221,2.565.222,2.488-.152,3.345-.453.673.153,1.122.676,1.047.527.6.077,1.122.08.6-.071.749-.667.524-.594.748-.667.973-.144,1.422-.514,1.122-.516.748-.071.448.673.6.6.972.154.374.225.449.3.6-.146.448.375.224.821.523.524.747.526.448.524.748.6.248.166.2.134.674-.22.523-.221.673.078.525-.668.225-.744.3-.595.6.6.448.748-.075.522-.524.594-.076.521.3.449.149.448-.3.52-.15.6.374.151.523-.146.449,0,.149.746.224.374.449.151v-1.044l.375-.744.6-.518.673-.22.149.6.373,1.045.448.748.448.971-.225.819-.6.369-.823.443.149,1.044-.225.67-.524.37-.3.3.224.6.224.374v.373l.9.526.673.674-.076.82v.447l.373.6.3.747.3-.073.673-.146.524-.146.973-.144.375-.744-.149-.448-.449-.45-.149-.522.3-.744.6-.892.225-.446.15-.521.523.226.449.152.15-.6v-.522l.449-.445.45-.221.3-.446.225-.968.3-.6.374-.52.6-.668.449-.3.3-.52.15-.372.449-.073,1.495,1.126.673.3.748-.071.523.152.6.823.523.3.973-.144.674-.369.674-.742.673,0,.823.3.448.226.449-.445.225-1.043.674-.668.972.154.523-.221.749-.369.6.226.6.3.748-.071.3.6.6.674.149.672.373.747.673.227,1.047.154.449.226.6.376.524-.072.523-.072.673-.146.374-.445.375-.222.6.3.524,0,.6-.891.974-1.412,1.123-.665,1.047-.069.748-.071.6-.668.225-.446.673-.22.6-.221.374-.222.375-.669-.373-.6-1.047-.08-.374-.076-.074-1.044-.3-.6-.148-.9.075-.3.075-.447.3-.446.15-.148.6-.742.021-.247.055-.648.3-.893.374-.445v-.373l-.149-.746.075-.372.524-.221.6-.3-.074-.373-.823-.153-.673-.3-.3-.747.225-.148.15-.223v-.373l.075-.3.374.077.972.974,1.795.9.449.226.448.076.3-.3-.074-.6-.224-.523.449-.445.374.076.224.448.3.672.523.077.374-.669.3-.818-.3-.672v-.671l.823-.369.673,0,.449.6-.3.818.224.822.523.822.523.823.673.227.673.6.9.079.674-.444.6-.519.524-.519.823-.741.824-.592.225-.595.375-.744.374-.669-.149-.6-.9-.377-.224-.821-.373-.6-.823.07-.3.222-.449.445-.449.222-.449-.077.45-1.041.674-.518.748-.294,1.123-.293,1.272-1.037,1.123-.74,1.2-.665.674-.519.748-.369-.074-.6-.973.219-.449.221.075-.745-.149-.97.375-.893,1.421-.589.375-.147.3.374.822.452.6-.37.6-.221.6.3.373.673.074.82-.075.969.149.6.673.227.673-.519.375-1.191-.373-.971-.373-1.269.226-1.266v-.671l.6-.742.075-.671-.448-.375-.748-.376-.149-.374.449-.146.524-.37.151-.968.3-.595-.224-.523-.224-.672-1.421-.827v-1.043l-.3-.449-.523.072-.6-.3-.3-.672-.374.446-.3.371-.748.071-.748-.376-.673-.451-.673-.3-.6-.376-.373-.673-.6-.674-.149-.522.375-.52.524-.519.449-.3.674-.369.374-.3.524-.221.747.451.823.3.6.077.748-.369.15-.446-.149-.9-.523-.45-.972-.229-.223-1.119-.3-.747-.523-.9.375-.371.3-.372-.745-.7-.73-.708-1.055-1.1-1.212-.546-1.13-.388-1.135-.943-.493-1.344.073-.952.394-1.192.314-1.033-.569-.71-.331-1.266.075-.793.962-.641.637-1.036-.485-.313-.806-.073-.966.007.476-.955-.25-1.108-.809-.47-.237.636-.643.163.157-.556-.085-.634-.4.479-.322.081-.487-.551-.319.478-.646-.233-.088-.951-.883.324-.884.244.078-.318.238-.557-.489-.789-.489-.868-.33-1.107-.087-.871-.084-.475-.567-.392-.568-.551-.644,0-.56.638-.642.243-.154.874.327.632-.719.719-.478.637.165.554-.559.717-1.529.17-.726-.074-.964.245-.807-.232-.416-1.82-.813-1.024.317-.8-.007-.951-.006-.793-.406-.473-.655-1.5-.653-1.184-.493-1.265-.9-1.658-.733-1.1-.411-1.186-.571-.867-.571-1.027-.733-1.1-.491-1.027-.412-1.265-.41-.948-.492-1.185-.247-.791.4-.558.725.074.564,0,0-.634-1.058-1.5-.33-1.107-.816-1.421-.974-1.023-.892-.786-1.293-.7-1.212-.467-.568-.55-.732-1.025-.565-.154-.8.085-.243-.315-1.054-.943-.808-.39-1.047-.072-1.046.087-.807-.232a11.447,11.447,0,0,1,1.323-1.1c.33-.165.56-1.648,1.186-2.867s-.231-.725-.626-.692a2.144,2.144,0,0,0-.857.363s.461-1.813.461-1.977a5.073,5.073,0,0,1,.3-1.219,1.9,1.9,0,0,1,1.582-.626,5.707,5.707,0,0,0,2.274-.3c.362-.165,1.944-3.164,2.142-3.328s1.483-1.516,1.78-1.845a8.7,8.7,0,0,1,2.5-.593l-1.285-2.636-2.027-2.866-.767,1.193-1.94,1.107-1.757.865-.212,1.113-1.038,1.108-2.526.426-1.8.767-.947.766-1.035.767.048.191a9.673,9.673,0,0,0,.132,1.384c.1.363.132,1.252-.56,1.285s-.626-.165-.659-.659a1.774,1.774,0,0,0-.791-1.12c-.3-.231-.264-.461-.132-.857s-.231-.428-.428-.231-.527.4-1.088.824a.828.828,0,0,1-1.12.1c-.362-.165-.725-.363-1.483-.791a1.317,1.317,0,0,0-1.449.182,1.646,1.646,0,0,1,.3.449,7.83,7.83,0,0,0-.087.8,1.656,1.656,0,0,0,.209.691l.354.2.245.427c.221.01.677-.038.8.17a.957.957,0,0,1,.172.4l-.242.374-.024,1.234a2.809,2.809,0,0,1-1.144.7l-.8.3-.211.373c.007.311.042.654.023.962a2.7,2.7,0,0,1-.11.415c0,.009-.021.089-.024.092a3,3,0,0,1-.979.645c-.017.01-.171.094-.177.1s-.225.3-.225.3c-.06.162-.04.527-.091.718l-.071.177-.035.089-1.008.921a1.535,1.535,0,0,1-.433.321l-.212-.009-.156-.282a1.8,1.8,0,0,0-.032-.941l-.4-.289-.264.154-.045.15a1.716,1.716,0,0,0-.1.694.747.747,0,0,1,0,.2s-.242.458-.254.476-.1.074-.107.083l-.732.565a6.663,6.663,0,0,1-.746-.029c-.214-.045-.715-.249-.944-.329a8.035,8.035,0,0,0-.588.615c-.049,0-.546.027-.562.032s-.3.193-.32.209l-.214-.049-.3-.3-.851.94s-.171.084-.186.091c-.178-.019-.379-.058-.557-.059-.011,0-.219.049-.244.055-.006,0-.052.01-.054.012-.43.351-.4.442-.92.454a3.562,3.562,0,0,1-.43-.278l-.777-.684a1.713,1.713,0,0,0-.217-.191s-.512-.188-.524-.191a4.086,4.086,0,0,0-.516-.04.252.252,0,0,0-.037.015c-.139.053-.291.1-.425.161a11.792,11.792,0,0,0-1.433,1.267c-.175.166-.389.311-.578.462-.2.163-.622.438-.712.667l-.582.066c-.087.192-.189.387-.265.583-.037.1-.044.211-.08.308-.133.355-.289.706-.433,1.058-.13.317-.175.337-.466.5a.471.471,0,0,1-.058.022l-.459.174c-.139.052-.67.114-.847.144-.051.009-.754-.029-.9-.035l-.052,0-.364-.22-.332-.681-.321-.008a8.742,8.742,0,0,1-.222,1.445l-.746.561c-.222.167-.417.354-.621.542-.235.216-.481.426-.708.65-.119.117-.208.282-.332.391s-.594.561-.709.621l-.742.385a2.463,2.463,0,0,0-.376.194c-.015.012-.315.306-.319.312a3.061,3.061,0,0,0-.19.437c-.033.077.029.163-.123.361l-.215.095a7.95,7.95,0,0,0-.876-.063.646.646,0,0,0-.081.415,6.026,6.026,0,0,1-.084.807,2.155,2.155,0,0,0-.056.357,2.884,2.884,0,0,0,.076.383,1.15,1.15,0,0,0,.226.628l-.02.239-.143.068a1.526,1.526,0,0,1-.3-.05,1.941,1.941,0,0,1-.3-.19s-.172-.017-.182-.018l-.13.068a7.242,7.242,0,0,1,.024,1.184s-.02.445-.019.456a.313.313,0,0,0,.031.076c.061.149.124.289.192.438l.26.572c.181.373.412.742.616,1.1.4.712.822,1.43,1.188,2.162.116.231.2.5.294.742.08.2.174.414.233.619.1.347.237.716.31,1.069.086.417.12.871.179,1.295l0,.033c.014.193.015.4.032.605,0,0,.551.328-.207.394s-.659.956-.264,1.022a1.251,1.251,0,0,1,.659.363l1.078,1.088a9.835,9.835,0,0,1,.273,1.714c-.066.231-.231.1-.461.066a1.5,1.5,0,0,0-.758.165c-.2.1-.818.46-.788.56a2.331,2.331,0,0,1-.563,1.088,16.4,16.4,0,0,0-1.276,1.195s.057,1.145-.207,1.409a.442.442,0,0,0-.033.659c.132.2.231.264-.066.626a1.876,1.876,0,0,0-.4,1.153c0,.33.154,3.123.154,3.123s-1.142.271-.879.766.363.758.264.956a.86.86,0,0,0,.363,1.12c.56.264,1.055.461,1.055.461a2.325,2.325,0,0,1,0,.692c-.066.2.363.923.659.692a3.087,3.087,0,0,1,1.055-.362c.33-.1.363-.363.363-.659s-.033-.89.494-.725.725.56.923.33.231-.33.56-.231a3.311,3.311,0,0,1,.857.33,1.94,1.94,0,0,1,.626,1.088,3.7,3.7,0,0,1-.2.824,5.046,5.046,0,0,1-.3.791,1.876,1.876,0,0,1-1.12.461,9.225,9.225,0,0,0-1.615.1c-.527.1-.758.165-1.159-.226s-.852.094-.918.489a3.176,3.176,0,0,1-.5.983l.144.7-.106.1a6.125,6.125,0,0,1-.51.392c-.177.14-.354.3-.538.426a5.4,5.4,0,0,1-.575.3,1.952,1.952,0,0,0-.639-.248l-.542.2-.1.148a.52.52,0,0,0-.247.142,8.134,8.134,0,0,0-1.514,1.463,1.876,1.876,0,0,1-.171.868,3.366,3.366,0,0,0-.788.109l-.153.173-.307.346c-.029.025-.56.234-.643.273-.012.024-.134.258-.136.267s.012.3.012.3c.076.183.255.347.333.53l.021.214.011.107-.336.312-.159,0a1.842,1.842,0,0,0-.548-.284l-.283.223h-.417l-.213.165c-.019.23-.035.46-.057.69l-.658.914a3.981,3.981,0,0,0-.221.536l.188.417c-.011.025-.121.28-.127.287s-.3.231-.324.253h-.843c-.035.069-.069.139-.1.208a1.407,1.407,0,0,1,.153.244c.023.069.257.807.277.839a3.761,3.761,0,0,0,.328.379l-.025.191-.079.038-.424-.091-.535.367a1.832,1.832,0,0,0-.816.151,15.176,15.176,0,0,0-1.321,2.091c-.108.183-.272.369-.4.542l-.109,0-1.206,1.173-.262.153a3.029,3.029,0,0,1-.475.019,7.569,7.569,0,0,1-.559.537c-.007,0-.415.141-.45.153l-.144.225c.1.382-.131.865-.164,1.241a5.786,5.786,0,0,0,.043.681l-.628.164-.173.237.005.17.321.248.016.192a4.136,4.136,0,0,1-.269.494,4.3,4.3,0,0,1-.415.4l-.4-.079a2.44,2.44,0,0,1-.577-.686l-.309.084c-.03.057-.235.453-.238.455l-1.386.91a3.006,3.006,0,0,0-.737,1.065l-.081.693a1.165,1.165,0,0,1-.148.294l-.092-.005c-.347-.02-.235-.092-.5-.2-.005,0-.4-.028-.435-.03-.037.066-.076.131-.112.2l.163.676a4.059,4.059,0,0,0-.188.426c-.033.108-.025.247-.048.359,0,.01-.082.158-.092.178a8.117,8.117,0,0,0-.913.18,3.75,3.75,0,0,1-.37.634,3.651,3.651,0,0,0-.759.825,1.518,1.518,0,0,0-.074.65,1.9,1.9,0,0,0,.152.315.918.918,0,0,1,.166.064q.786.547,1.547,1.127c.031.143.73,1.029.842,1.233a3.56,3.56,0,0,1,.159.395c.108.276.242.568.327.85l.1.479.171.836a1.148,1.148,0,0,1,.025.125l.115,1.307a3.854,3.854,0,0,1,.05.572c0,.013-.126.41-.138.448-.258.23-.512.482-.784.694Z" transform="translate(0 -0.478)" fill="#5751c8" fill-rule="evenodd"/><path d="M172.033,91.094l.031-.048,2.027,2.866,1.285,2.636a8.7,8.7,0,0,0-2.5.593c-.3.33-1.582,1.681-1.78,1.845s-1.78,3.164-2.142,3.328a5.707,5.707,0,0,1-2.274.3,1.9,1.9,0,0,0-1.582.626,5.073,5.073,0,0,0-.3,1.219c0,.165-.461,1.977-.461,1.977a2.144,2.144,0,0,1,.857-.363c.4-.033,1.252-.527.626.692s-.857,2.7-1.186,2.867a11.449,11.449,0,0,0-1.323,1.1l.807.232,1.046-.087,1.047.072.808.39,1.054.943.243.315.8-.085.565.154.732,1.025.568.55,1.212.467,1.293.7.892.786.974,1.023.816,1.421.33,1.107,1.058,1.5,0,.634-.564,0-.725-.074-.4.558.247.791.492,1.185.41.948.412,1.265.491,1.027.733,1.1.571,1.027.571.867.411,1.186.733,1.1.9,1.658.493,1.265.653,1.184.655,1.5.406.473.006.793.007.951-.317.8.813,1.024.416,1.82.807.232.964-.245.726.074,1.529-.17.559-.717-.165-.554.478-.637.719-.719-.327-.632.154-.874.642-.243.56-.638.644,0,.568.551.567.392.084.475.087.871.33,1.107.489.868.489.789-.238.557-.078.318.884-.244.883-.324.088.951.646.233.319-.478.487.551.322-.081.4-.479.085.634-.157.556.643-.163.237-.636.809.47.25,1.108-.476.955.966-.007.806.073.485.313-.637,1.036-.962.641-.075.793.331,1.266.569.71-.314,1.033-.394,1.192-.073.952.493,1.344,1.135.943,1.13.388,1.212.546,1.055,1.1.73.708.745.7-.3.372-.375.371.523.9.3.747.223,1.119.972.229.523.45.149.9-.15.446-.748.369-.6-.077-.823-.3-.747-.451-.524.221-.374.3-.674.369-.449.3-.524.519-.375.52.149.522.6.674.373.673.6.376.673.3.673.451.748.376.748-.071.3-.371.374-.446.3.672.6.3.523-.072.3.449v1.043l1.421.827.224.672.224.523-.3.595-.151.968-.524.37-.449.146.149.374.748.376.448.375-.075.671-.6.742v.671l-.226,1.266.373,1.269.373.971-.375,1.191-.673.519-.673-.227-.149-.6.075-.969-.074-.82-.373-.673-.6-.3-.6.221-.6.37-.822-.452-.3-.374-.375.147-1.421.589-.375.893.149.97-.075.745.449-.221.973-.219.074.6-.748.369-.674.519-1.2.665-1.123.74-1.272,1.037-1.123.293-.748.294-.674.518-.45,1.041.449.077.449-.222.449-.445.3-.222.823-.07.373.6.224.821.9.377.149.6-.374.669-.375.744-.225.595-.824.592-.823.742-.524.519-.6.519-.674.444-.9-.079-.673-.6-.673-.227-.523-.823-.523-.822-.224-.822.3-.818-.449-.6-.673,0-.823.369v.671l.3.672-.3.818-.374.669-.523-.077-.3-.672-.224-.448-.374-.076-.449.445.224.523.074.6-.3.3-.448-.076-.449-.226-1.795-.9-.972-.974-.374-.077-.075.3v.373l-.15.223-.225.148.3.747.673.3.823.153.074.373-.6.3-.524.221-.075.372.149.746v.373l-.374.445-.3.893-.055.648-.021.247-.6.742-.15.148-.3.446-.075.447-.075.3.148.9.3.6.074,1.044.374.076,1.047.08.373.6-.375.669-.374.222-.6.221-.673.22-.225.446-.6.668-.748.071-1.047.069-1.123.665-.974,1.412-.6.891-.524,0-.6-.3-.375.222-.374.445-.673.146-.523.072-.524.072-.6-.376-.449-.226-1.047-.154-.673-.227-.373-.747-.149-.671-.6-.674-.3-.6-.749.071-.6-.3-.6-.226-.749.369-.523.221-.972-.154-.674.668-.225,1.043-.449.445-.448-.226-.823-.3-.673,0-.674.742-.674.369-.973.144-.523-.3-.6-.823-.523-.152-.748.071-.673-.3-1.495-1.126-.449.072-.15.372-.3.52-.45.3-.6.668-.374.52-.3.6-.225.968-.3.446-.45.221-.449.445v.522l-.15.6-.449-.152-.523-.226-.15.521-.225.446-.6.892-.3.744.149.522.449.45.149.448-.375.744-.973.144-.524.146-.673.146-.3.073-.3-.747-.373-.6v-.447l.076-.82-.673-.674-.9-.526v-.373l-.224-.374-.224-.6.3-.3.524-.37.225-.67-.149-1.044.823-.443.6-.37.225-.819-.448-.971-.448-.748-.373-1.045-.149-.6-.673.22-.6.518-.375.744v1.044l-.449-.151-.224-.374-.149-.746-.449,0-.523.146-.374-.151.15-.6.3-.52-.149-.448-.3-.449.076-.521.524-.594.075-.522-.448-.748-.6-.6-.3.595-.225.744-.525.668-.673-.078-.523.221-.674.22-.2-.134-.248-.166-.748-.6-.448-.524-.747-.526-.523-.524-.224-.821-.448-.375-.6.146-.449-.3-.374-.225-.972-.154-.6-.6-.448-.673-.748.071-1.122.516-1.422.514-.973.144-.748.667-.524.594-.749.667-.6.071-1.122-.08-.6-.077-1.047-.527-1.122-.676-.673-.153-3.345.453-2.488.152-2.565-.222-2.489-.221-2.489-.3-2.036,0-4.148-.145-2.414,0-2.112-.371-.906-.373,0-.846v-.423l.827-1.121,1.5-1.644.751-1.345.738-3.136" transform="translate(-0.001 -0.481)" fill="none" stroke="#eaecff" stroke-linejoin="round" stroke-miterlimit="3.864" stroke-width="0.5" fill-rule="evenodd"/><path d="M420.557,239.9a1.568,1.568,0,0,1-.813.225,3.343,3.343,0,0,0-.523.07c-.289.292-1.233.507-1.2.977.065.835-.466,1.058-.486,1.587a4.81,4.81,0,0,1,.537.781,1.829,1.829,0,0,1,.059.952l-.043.107c-.059.162-.035.335-.109.5-.545,1.235.337,1.15.312,2.263-.014.624-.415,1.087-.395,1.75a7.887,7.887,0,0,1-.154,1.41,9.187,9.187,0,0,0-.032.944c0,.153-.04.308-.044.462a4.12,4.12,0,0,0,.16,1.443c.345.544.483.643.272,1.349-.107.358-.344.464-.57.724a4.829,4.829,0,0,1-.462.512c-.34.294-.555.689-.873.989l-.171.537s-.33.791-.428,1.12-1.055.692-1.549.725a1.249,1.249,0,0,0-.989,1.186c-.1.659-.916.093-.916.093l-1-1.243s-.328-.432-.484-.639-.623-.26-1.21-.363-.519-1.107-.519-1.107a.846.846,0,0,0-.691-.484c-.467,0-.311-.208-.311-.571s-.276-.26-.587-.26a1.27,1.27,0,0,0-.951.519.338.338,0,0,1-.571,0s-.052-.467-.328-.467-.415-.432-.415-.432v-.9a2.246,2.246,0,0,1-.484-.415c-.224-.26-.779-.208-.779-.208s-1.85-.276-2.213-.328-.224-.311-.224-.675-.052-.484-.415-.691a7.015,7.015,0,0,0-1.574-.743,4.149,4.149,0,0,1-.8-.156,8.653,8.653,0,0,0-.847-.467c-.26-.1-.9-.38-.9-.38a4.383,4.383,0,0,1-.571-.571A8.1,8.1,0,0,0,395,248.979a3.2,3.2,0,0,1-.779-.951,3.683,3.683,0,0,0-.8-1.262.345.345,0,0,1,.052-.639,5.134,5.134,0,0,0,.8-.467,1.9,1.9,0,0,1,.727-.276c.26-.068.535-.1.847-.156a.505.505,0,0,0,.38-.727c-.156-.363-.535-.052-1.071,0s-.415-.639.172-1.107.1-.8-.484-1.175-.382-1.428-.382-1.428" transform="translate(-257.228 -129.715)" fill="none" stroke="#eaecff" stroke-linejoin="round" stroke-miterlimit="3.864" stroke-width="0.5"/><path d="M489.354,527.04a2.412,2.412,0,0,0,.4.3,1.268,1.268,0,0,1,.527.89,1.413,1.413,0,0,0,.264.791c.132.165.791,1.022,1.088,1.318a10.187,10.187,0,0,0,1.022.824c.264.2.066.593-.165.89s.033.659.132.791a4.051,4.051,0,0,0,.527.494,5.091,5.091,0,0,1,.989,1.285,9.1,9.1,0,0,0,1.351,1.483,1.686,1.686,0,0,1-.494.461c-.231.1-3.23.692-3.592.725a6.441,6.441,0,0,1-1.911-.165,10.847,10.847,0,0,1-1.452-.9c-.616.058-1.485.132-2.054.161l-.053-.114s-.56-.363-1.351-.758a1.907,1.907,0,0,0-2.01.4,1.882,1.882,0,0,1-1.78-.066c-.428-.231-.956.132-1.186.132s-.692.132-1.45.2a5.167,5.167,0,0,1-1.549-.1c-.428-.066-.923-.33-1.318-.362a1.2,1.2,0,0,1-.824-.428c-.3-.264-.692-.132-1.45-.132a4.61,4.61,0,0,0-1.915.818,2.074,2.074,0,0,0-.692.272c-.281.179-.978.648-1.282.407s-.8-.062-1.137-.062c-.434,0-.948-.528-1.245-.528-1.018,0-.857,1.067-2.206.77a3.806,3.806,0,0,0-1.909.31c-.9.395-1.067-.093-1.853.036-.722.118-1.846,1.014-2.566.536-.55-.365-.626-.236-1.273-.143-.891.128-1.579-.375-2.343-.365-.322,0-.622-.073-.939-.09-.082,0-.165.015-.247.013a2.807,2.807,0,0,1-1.33-.392c-1.753-.187-1.8-1.7-2.9-1.745-.373-.014-.815.013-1.075-.322-.334-.132-.461-.6-.929-.53-.336.053-.73.28-1.069.173-1.167-.369-.046-2.121-2.263-2.243A2.727,2.727,0,0,1,443,532c-.33-.033-.54-.442-.606-.9s-.593-.165-.89-.132a.486.486,0,0,1-.527-.428,7.339,7.339,0,0,0-.1-.758" transform="translate(-298.588 -379.002)" fill="none" stroke="#eaecff" stroke-linejoin="round" stroke-miterlimit="3.864" stroke-width="0.5"/><path d="M664.544,528.979a2.248,2.248,0,0,0-.2-1.055,16.1,16.1,0,0,1-.659-1.582,3.155,3.155,0,0,1-.351-.989l-.374-.132a21.408,21.408,0,0,0-.461-2.274c-.132-.231-.4-.659-.4-.659a2.354,2.354,0,0,0-.56-.165c-.165,0-.956-.3-.956-.494V521.1l-.989-.066a2.97,2.97,0,0,1-.428-.725c-.132-.362-.3-1.022-.3-1.022" transform="translate(-487.851 -372.273)" fill="none" stroke="#eaecff" stroke-linejoin="round" stroke-miterlimit="3.864" stroke-width="0.5" fill-rule="evenodd"/><path d="M842.691,624.37" transform="translate(-647.435 -463.501)" fill="none" stroke="#eaecff" stroke-linejoin="round" stroke-miterlimit="3.864" stroke-width="0.5" fill-rule="evenodd"/><path d="M475.635,873.029s.131-.637.46-.835.758-.527.593-1.055l-.494-.494a2.279,2.279,0,0,0-.989-.527l-.33-1.12.4-1.911s.2-.593.593-.4a14.949,14.949,0,0,0,1.45.527,2.116,2.116,0,0,1,.659-.461c.264-.066.33-.2.659-.527a7,7,0,0,0,.791-1.186l-1.516-.132.132-1.055.527-.33a2.867,2.867,0,0,1-.4-1.12c0-.461.264-1.45.791-1.582a13.592,13.592,0,0,1,1.384-.132,4.4,4.4,0,0,0,1.12-.857,5.981,5.981,0,0,0,.264-1.055,9.158,9.158,0,0,1,.132-.989l.659-1.252" transform="translate(-328.106 -665.067)" fill="none" stroke="#eaecff" stroke-linejoin="round" stroke-miterlimit="3.864" stroke-width="0.5" fill-rule="evenodd"/><path d="M504.876,623.7s.608-.509.891-.737a1.06,1.06,0,0,1,1.282.22c.386.386.559.22.889.22a7.04,7.04,0,0,0,1.055-.165s.716-.448.771-.614a1,1,0,0,0,.055-1c-.276-.441-.937-1.165-.771-1.5a.863.863,0,0,0-.118-1.055,5.172,5.172,0,0,1-.551-1l-.055-1.055a3.464,3.464,0,0,1-.448-1c0-.276-.158-.448.173-.669s.188-.418.287-1.012.209-1.207.209-1.207a1.134,1.134,0,0,0,.331-.834c0-.551-.11-1.826-.11-1.826a3.8,3.8,0,0,1,.3-1.8,8.171,8.171,0,0,0,.758-1.351s-.824-1.318-.923-1.582-.494-.956-.428-1.318a9.327,9.327,0,0,0,0-1.384" transform="translate(-354.151 -444.983)" fill="none" stroke="#eaecff" stroke-linejoin="round" stroke-miterlimit="3.864" stroke-width="0.5" fill-rule="evenodd"/><path d="M159.921,154.552s-.488-.185-.286-.02a1.682,1.682,0,0,1,.286.441,7.838,7.838,0,0,0-.087.8,1.656,1.656,0,0,0,.209.691l.354.2.245.427c.221.01.677-.038.8.17a.956.956,0,0,1,.172.4l-.242.374-.024,1.234a2.809,2.809,0,0,1-1.144.7l-.8.3-.211.373c.007.311.042.654.023.962a.563.563,0,0,1-.013.083l-.419.153-.022.088a2.979,2.979,0,0,1-.832.518l-.092.05a.605.605,0,0,0-.235.2l-.078.1-.076.1c-.064.087,0,.153.082.2l-.164-.06a5.076,5.076,0,0,0-.1.732l-.061.154-.953.878c-.063.058-.125.117-.192.17l.006-.058-.375.18a1.8,1.8,0,0,0-.032-.941l-.4-.289-.264.154-.045.15a1.716,1.716,0,0,0-.1.694.747.747,0,0,1,0,.2s-.242.458-.254.476-.1.074-.107.083l-.732.565a6.659,6.659,0,0,1-.746-.029c-.2-.043-.661-.228-.9-.315l-.263-.251a2.815,2.815,0,0,0-.541.5l-.137.007-.183.01a.513.513,0,0,0-.309.094l-.105.069-.024.016c-.468-.475-.721-.31-1.022.057l-.092.7-.2.219s-.171.084-.186.091c-.178-.019-.379-.058-.557-.059-.011,0-.219.049-.244.055-.006,0-.052.01-.054.012-.43.351-.4.442-.92.454a3.561,3.561,0,0,1-.43-.278l-.777-.684a1.713,1.713,0,0,0-.217-.191s-.512-.188-.524-.191a4.086,4.086,0,0,0-.516-.04.252.252,0,0,0-.037.015c-.139.053-.291.1-.425.161a11.792,11.792,0,0,0-1.433,1.267c-.175.166-.389.311-.578.462-.2.163-.622.438-.712.667l-.582.066c-.08.176-.172.355-.245.534l-.434.239c-.189.507-.274,1.109-.735,1.361a3.539,3.539,0,0,1-1.323.3l-.268-.011-.447-.021-.2-.119c-.066-.136-.264-.778-.6-.786-1.03-.027-.632.713-.855,1.575l-.657.494c-.765.575-1.35,1.3-2.046,1.934-.463.421-1.122.533-1.532.931l-.109.107-.107.105a1.57,1.57,0,0,0-.357.82l-.022.01a4.5,4.5,0,0,0-.752-.06l-.085.379a.706.706,0,0,0-.067.4,6.024,6.024,0,0,1-.084.807,2.157,2.157,0,0,0-.056.357,2.888,2.888,0,0,0,.076.383,1.15,1.15,0,0,0,.226.628l-.02.239-.143.068a1.525,1.525,0,0,1-.3-.05,1.942,1.942,0,0,1-.3-.19s-.172-.017-.182-.018l-.13.068a7.243,7.243,0,0,1,.024,1.184s-.02.445-.019.456a.314.314,0,0,0,.031.076c.061.149.124.289.192.438l.26.572c.181.373.412.742.616,1.1.4.712.822,1.43,1.188,2.162.116.231.2.5.294.742.08.2.174.414.233.619.1.347.237.716.31,1.069.086.417.12.871.179,1.295l0,.033c.014.193.015.4.032.605,0,0,.551.328-.207.394s-.659.956-.264,1.022a1.251,1.251,0,0,1,.659.363l1.078,1.088a9.836,9.836,0,0,1,.273,1.714c-.066.231-.231.1-.461.066a1.5,1.5,0,0,0-.758.165c-.2.1-.818.46-.788.56a2.331,2.331,0,0,1-.563,1.088,16.405,16.405,0,0,0-1.276,1.195s.057,1.145-.207,1.409a.442.442,0,0,0-.033.659c.132.2.231.264-.066.626a1.876,1.876,0,0,0-.4,1.153c0,.33.154,3.123.154,3.123s-1.142.271-.879.766.363.758.264.956a.86.86,0,0,0,.363,1.12c.56.264,1.055.461,1.055.461a2.325,2.325,0,0,1,0,.692c-.066.2.363.923.659.692a3.087,3.087,0,0,1,1.055-.363c.33-.1.363-.363.363-.659s-.033-.89.494-.725.725.56.923.33.231-.33.56-.231a3.312,3.312,0,0,1,.857.33,1.94,1.94,0,0,1,.626,1.088,3.7,3.7,0,0,1-.2.824,5.045,5.045,0,0,1-.3.791,1.876,1.876,0,0,1-1.12.461,9.224,9.224,0,0,0-1.615.1c-.527.1-.758.165-1.159-.226s-.852.094-.918.489a3.176,3.176,0,0,1-.5.983l.144.7-.106.1a6.13,6.13,0,0,1-.51.392c-.177.14-.354.3-.538.426a5.4,5.4,0,0,1-.575.3,1.952,1.952,0,0,0-.639-.248l-.542.2-.1.148a.52.52,0,0,0-.247.142,8.135,8.135,0,0,0-1.514,1.463,1.876,1.876,0,0,1-.171.868,3.365,3.365,0,0,0-.788.109l-.153.173-.307.346c-.029.025-.56.235-.643.273-.012.024-.134.258-.136.267s.012.3.012.3c.076.183.255.347.333.53l.021.214.011.107-.336.312-.159,0a1.842,1.842,0,0,0-.548-.284l-.283.223h-.417l-.213.165c-.019.23-.035.46-.057.69l-.658.914a3.98,3.98,0,0,0-.221.536l.188.417c-.011.025-.121.28-.127.287s-.3.231-.324.253h-.843c-.035.069-.069.139-.1.208a1.406,1.406,0,0,1,.153.244c.023.069.257.807.277.839a3.76,3.76,0,0,0,.328.379l-.025.191-.08.038-.424-.091-.535.367a1.832,1.832,0,0,0-.816.151,15.175,15.175,0,0,0-1.321,2.091c-.108.183-.272.369-.4.542l-.109,0-1.206,1.173-.262.153a3.027,3.027,0,0,1-.475.019,7.566,7.566,0,0,1-.559.537c-.007,0-.416.141-.45.153l-.144.225c.1.382-.131.865-.164,1.241a5.786,5.786,0,0,0,.043.681l-.628.164-.173.237.005.17.321.248.016.192a4.138,4.138,0,0,1-.269.494,4.3,4.3,0,0,1-.415.4l-.4-.079a2.44,2.44,0,0,1-.577-.686l-.309.084c-.03.057-.235.453-.238.455l-1.386.91a3.006,3.006,0,0,0-.737,1.065l-.081.693a1.165,1.165,0,0,1-.148.294l-.092-.005c-.347-.02-.235-.092-.5-.2-.005,0-.4-.028-.435-.03-.037.066-.076.131-.112.2l.163.677a4.059,4.059,0,0,0-.188.426c-.033.108-.025.247-.048.359,0,.01-.082.158-.092.178a8.12,8.12,0,0,0-.913.18,3.75,3.75,0,0,1-.37.634,3.651,3.651,0,0,0-.759.825,1.518,1.518,0,0,0-.074.65,1.9,1.9,0,0,0,.152.315.92.92,0,0,1,.166.064q.786.547,1.547,1.127c.031.143.73,1.029.842,1.233a3.559,3.559,0,0,1,.159.395c.108.276.242.568.327.85l.1.479.171.836a1.145,1.145,0,0,1,.025.125l.115,1.307a3.855,3.855,0,0,1,.05.572c0,.013-.126.41-.138.448-.258.23-.512.482-.784.694-.153.119.781-.213-.147.363" transform="translate(-7.12 -55.538)" fill="none" stroke="#eaecff" stroke-linejoin="round" stroke-miterlimit="3.864" stroke-width="0.5" fill-rule="evenodd"/><path d="M518.458,98.993a1.293,1.293,0,0,1,1.439-.19c.758.428,1.12.626,1.483.791a.828.828,0,0,0,1.12-.1c.56-.428.89-.626,1.088-.824s.56-.165.428.231-.165.626.132.857a1.773,1.773,0,0,1,.791,1.12c.033.494-.033.692.659.659s.659-.923.56-1.285a9.671,9.671,0,0,1-.132-1.384l-.048-.191.047-.035-.157-.218.984-.732.938-.759.064-.039,1.8-.767.061-.018,2.435-.411.922-.984.2-1.036a.53.53,0,0,1,.146-.192l1.75-.862,1.875-1.07,1.062-1.064" transform="translate(-365.943)" fill="none" stroke="#eaecff" stroke-linejoin="round" stroke-miterlimit="3.864" stroke-width="0.5" fill-rule="evenodd"/><path d="M365.306,398.106a5.514,5.514,0,0,1-.889,1.108,16.166,16.166,0,0,0-1.916,2.006l-.019.041-.025.056c-.127.261-.338.369-.47.674a12.41,12.41,0,0,1-.7,1.028l-.024.048c-.334.669-1.213.639-1.791.945-.623.33-.712.886-1.035,1.424-.133.221-.191.461-.315.682a6.114,6.114,0,0,0-.485.835c.125.355-.584,1.173-.822,1.276-.347.421-.253.888-.748,1.272a3.4,3.4,0,0,0-.962,1.526,2.291,2.291,0,0,1-.864,1.69,4.9,4.9,0,0,0-1.049.828,3.5,3.5,0,0,0-.893,1.387c-.177.58-.778.429-1.037.759-.189.24-.26.417-.621.466a8.811,8.811,0,0,1-.649.948c-.5.13-.682.476-1.207.445a.783.783,0,0,1-.1-.033c-.422-.293-1.111.082-1.625-.008s-.391-.229-.972-.08a1.619,1.619,0,0,1-1.054-.013c-.876-.2-1.057.451-1.754.783a2.815,2.815,0,0,0-.783.427c-.53.517-.472.758-.775,1.28a1.021,1.021,0,0,1-.98.59s-.166.5-.561.571a8.335,8.335,0,0,1-1.055.066" transform="translate(-210.25 -267.064)" fill="none" stroke="#eaecff" stroke-linejoin="round" stroke-miterlimit="3.864" stroke-width="0.5"/><path d="M416.876,401.031s.527.791.758,1.12.989.692.89.2-.4-1.055.165-1.153.791-.165,1.055.033a1.841,1.841,0,0,0,1.582-.2,2.873,2.873,0,0,1,1.384-.758c.461-.033,1.055-.1,1.483-.132a1.127,1.127,0,0,0,.824-.461c.165-.2.2-.362.626-.165s.725.264.725.659-.1.824.758.791a1.073,1.073,0,0,0,1.186-1.022c.066-.527.066-1.088.857-1.153s.956-1.219,1.483-.89a.776.776,0,0,0,1.088-.165,2.316,2.316,0,0,1,1.351-.56,3.863,3.863,0,0,1,.89.132,1.288,1.288,0,0,0,1.12-.231c.3-.264.791-.89.494-1.153s-.3-.3-.56-.33a.909.909,0,0,1-.626-.33c-.231-.231-.626-.725-.066-1.055a7.061,7.061,0,0,0,1.582-1.582c.1-.2.132-.725-.231-.725s-.626-.1-.626-.231.165-.264.461-.3.758-.132.692-.363-.692-.4-.857-.33a4.758,4.758,0,0,1-.791.165.9.9,0,0,1-.692-.3c-.132-.165-.132-.33.066-.56s.824-.824.956-.956.4-.725.2-.989a9.623,9.623,0,0,1-.593-1.186s-.033-.659.527-.659a4.343,4.343,0,0,1,.956.1s.461.593.659.824.758.725.758.1-.033-1.615.264-1.911a2.569,2.569,0,0,1,.989-.692,1.332,1.332,0,0,0,.758-.593c.1-.2,0-.494.362-.593a.813.813,0,0,0,.56-.527,5.946,5.946,0,0,1,.264-.692.88.88,0,0,0-.066-.89,24.578,24.578,0,0,0-1.911-2.076.4.4,0,0,0-.527.033l-.4.494h-.758l-.956-.132" transform="translate(-277.751 -250.62)" fill="none" stroke="#eaecff" stroke-linejoin="round" stroke-miterlimit="3.864" stroke-width="0.5" fill-rule="evenodd"/><path d="M323.5,761.286a.872.872,0,0,0-.221-.533.7.7,0,0,1,.1-.989,1.093,1.093,0,0,0,.4-.692l-.1-.626-.593-.824s-.2-.461-.066-.692a.564.564,0,0,0-.165-.791c-.33-.231-.692-.362-.3-.725s.33-.725.1-.692a3.123,3.123,0,0,1-.989.132,1.407,1.407,0,0,1-.791-.527,2.066,2.066,0,0,1,.2-1.285.952.952,0,0,1,.824-.56,8.978,8.978,0,0,0,2.274-.3c.428-.2.824-.428.692-.692a.623.623,0,0,0-.692-.3c-.3.033-.758-.2-.428-.659a1.71,1.71,0,0,0,.3-1.12c0-.231.1-1.088.1-1.219a.586.586,0,0,1,.494-.692c.527-.066.791-.33.56-.56s-1.055-1.022-.1-.989.956-.461.956-.461-.3-.428-.527-.461a13.355,13.355,0,0,0-1.45-.264c-.527-.033-.725-.4-.626-.626s.56-.593.923-.362,1.055.428,1.417.626,1.088.4,1.318-.132.4-1.12.626-1.252a3.283,3.283,0,0,1,1.648-.3,13.517,13.517,0,0,0,2.406.33,5.845,5.845,0,0,0,1.384-.593,1.933,1.933,0,0,1,1.78-.165c.626.4.989.56,1.252.231a1.006,1.006,0,0,0-.165-1.219c-.3-.3-.725-.692-.593-1.055s.165-.461.527-.428.956-.428.527-.758-.857-.626-.857-.626-.3-.593.2-.626a1.629,1.629,0,0,0,.989-.428c.2-.165.33-.725,1.252-.428s1.153-.1,1.088-.4-.231-1.351-.033-1.615.165-.659.923-.659.923.132.923.428-.1.527.132.824a1.221,1.221,0,0,1,.264.857c-.033.2-.1.824.2.956a5.038,5.038,0,0,0,2.109,0c.461-.165.527-.2.824-.066a3.37,3.37,0,0,1,.593.362,4.222,4.222,0,0,1-.41,1.308s-.118.9.278,1.3,1.055.989,1.055.989l.4,1.977.593.066.4,1.384-.4.593-.066.989.791.593.791.791v1.384a11.191,11.191,0,0,0,.293,1.351.62.62,0,0,1,.333.2c.3.3.659.527.923.4s.461-.264.692.033.461.132.626.033.264.066.363.3a4.609,4.609,0,0,0,.857,1.12,2.778,2.778,0,0,0,1.45.659c.428,0,1.549-.231,1.944-.231a2.028,2.028,0,0,1,.89.33,5.534,5.534,0,0,0,1.648.89c.494.033.527.461.264.725a4.6,4.6,0,0,0-.56.791s-.066,2.175-.033,2.373.659.626.758.132.428-.593.659-.231a5.128,5.128,0,0,1,.4.791s-.132.494-.264.527-.264.231-.264.231-.659.692-.692.956-.3,1.318-.033,1.615a1,1,0,0,1,.33.659c0,.165.231.824.659.824s1.12-.2,1.186-.527.132-.758.363-.758.264.1.527.264.494.3.659.165a.815.815,0,0,1,.956.264,7.611,7.611,0,0,1,.4.89c.033.132.264.593-.1.692a4.556,4.556,0,0,0-.791.3c-.132.066-.692.494-.1.725s.758.132.758.494-.033.494-.363.626a1.947,1.947,0,0,0-.725.593,2.763,2.763,0,0,0-.2.857" transform="translate(-194.368 -558.932)" fill="none" stroke="#eaecff" stroke-linejoin="round" stroke-miterlimit="3.864" stroke-width="0.5" fill-rule="evenodd"/><path d="M596.512,742.868a3.984,3.984,0,0,0,.066-.857c0-.593-.4-1.384-.066-1.648a2.244,2.244,0,0,0,.527-.659l.132-.659.989.2a8.44,8.44,0,0,0,1.12-.33.809.809,0,0,1,.791-.132,1.614,1.614,0,0,0,1.516-.33,1.342,1.342,0,0,0,.264-1.055v-.989l-.659-.527-1.252-.4s-.659-.659-.659-.923-.264-1.12.33-1.12.659-.066.659-.066a.83.83,0,0,0-.066-.791c-.264-.4-.527-.725-.527-.725l-.132-1.911-.527.066s0-.593.33-.791a1.268,1.268,0,0,0,.461-.461v-.725l-.33-.4.989-1.186-.989-1.12.461-.923v-.527l.989-1.845" transform="translate(-433.594 -548.297)" fill="none" stroke="#eaecff" stroke-linejoin="round" stroke-miterlimit="3.864" stroke-width="0.5" fill-rule="evenodd"/><path d="M538.622,708.107a2.307,2.307,0,0,1,.551-.559c.228-.11,1.117-.213,1.338-.551s1.308-.163,1.308-.163l.2,1.055,1.186-.165a5.106,5.106,0,0,0,.494-.461c.1-.132.461-.264.626-.033a3.139,3.139,0,0,0,.3.363l.758-.066V707.1c0-.165.033-.527.264-.3a3.4,3.4,0,0,0,.56.428l.824.1.989-.231.824-.725,1.351-.56.725.2,1.351.3.659-.231s.033-.758.2-.758h.461l.264-.494-.428-.725.165-.527.857.461.956-.494.989.264,1.483.791-.461.527s-.33.33-.066.527a.753.753,0,0,1,.362.527c0,.132.033.56.033.56s.956.066.989.363.2,1.055.2,1.055l.824-.066s-.1-.428.165-.527.725-.4,1.12-.231.494.132.725.033,1.276-.852,1.276-.852l.374.753.824,1.153" transform="translate(-383.449 -532.234)" fill="none" stroke="#eaecff" stroke-linejoin="round" stroke-miterlimit="3.864" stroke-width="0.5" fill-rule="evenodd"/><path d="M409.9,565.115a3.534,3.534,0,0,1-.055,1.144,2.262,2.262,0,0,1-.758.857c-.363.165-.165.4-.165.593s-.362.033-.494-.4-.264-.132-.3.56-.527.3-.923-.033-.593.264-.593.692.56.428.824.428.428.362.461.56-.066,1.022-.066,1.285a1.782,1.782,0,0,1-.264.89c-.2.362-.857.593-1.417.824A2.619,2.619,0,0,0,405,573.706c-.132.3-1.318.758-1.318.758v1.384s0,.989.033,1.252a1.722,1.722,0,0,1-.264.923c-.165.3-.33.428-.363.593a4.259,4.259,0,0,1-.692,1.318,1.082,1.082,0,0,0-.231.758s-.1.923-.1,1.12.231.923.461,1.022.989.362.989.362l.461.527-.066.527-.33,2.9a2.056,2.056,0,0,0-.758.033c-.3.1-1.318.758-.956,1.318s.593.593.593.593a6.9,6.9,0,0,1,.725-.758,2.27,2.27,0,0,1,.725-.33c.132,0,.4.264.461.527a1.406,1.406,0,0,0,.264.494s.692.165.692.56a7.344,7.344,0,0,1-.1,1.582.66.66,0,0,0,.231.692c.2.132.461-.3.461-.3" transform="translate(-264.657 -412.058)" fill="none" stroke="#eaecff" stroke-linejoin="round" stroke-miterlimit="3.864" stroke-width="0.5" fill-rule="evenodd"/><path d="M291.327,714.577s-.165-.659-.56-.593-1.12.264-1.318.3-.527.132-.593-.231.066-.758-.165-.857a.465.465,0,0,1-.165-.659,2.634,2.634,0,0,0,.231-.824.875.875,0,0,0-.391-.491s-.4-.3-.235-.465a2.807,2.807,0,0,1,.692-.362l.494-.725h-.956l-.956-.857-.659-.132a.6.6,0,0,1-.033-.857c.4-.461.461-.923.3-1.186a10.134,10.134,0,0,0-1.351-1.318c-.2-.132-.494-.2-.659-.461s-.461-.923-.461-.923l.033-.758a3.653,3.653,0,0,1-.758-.231c-.132-.1-.494-.4-.494-.4a2.375,2.375,0,0,0-.494-.231c-.165-.033-1.384-.3-1.384-.3l-.107.041-1.673-.173-.527-.1-.758.1" transform="translate(-157.509 -530.716)" fill="none" stroke="#eaecff" stroke-linejoin="round" stroke-miterlimit="3.864" stroke-width="0.5" fill-rule="evenodd"/><path d="M216.757,691.641s-.4-1.483-.4-1.714a2.768,2.768,0,0,1,.428-1.351c.3-.363.363-.461.363-.758s.132-1.022-.461-.89a2.121,2.121,0,0,1-.758.1c-.165,0-.428.132-.428-.461s.066-.626-.264-.824-.758-.824-.626-1.153.231-.956.692-.56.791.4.956.264.264-.3-.066-.593-1.088-1.252-1.219-1.384a1.649,1.649,0,0,0-.824-.3c-.231,0-.725-.033-1.022,0s-.363-.033-.3-.461.494-3,.56-3.2,0-.56-.428-.362a5.262,5.262,0,0,1-1.483.231,1.369,1.369,0,0,1-1.055-.2c-.3-.264-.494-.692.033-.593s.857-.033.989-.264,1.351-2.669,1.384-2.8a2.345,2.345,0,0,0,.033-.527c0-.231-.165-1.911-.165-1.911s.033-.3.461-.3.692-.231.692-.494-.2-.527-.692-.56-1.714-.066-1.911-.033-.725-.461.1-.692a11.392,11.392,0,0,0,2.9-1.516,19.741,19.741,0,0,0,1.446-1.576l.96-.994-.33-1.088-.4-.33s-.066-.527-.066-.692.033-1.384.033-1.384l1.285-.428s.659.066,1.088.066.444-.223.444-.223c.413-.173.479-.3.479-.5s-.132-.461.2-.593a.393.393,0,0,0,.1-.725,3.19,3.19,0,0,1-.824-.956,2.53,2.53,0,0,1-.066-1.878c.3-.659.461-1.055.857-1.12a14.345,14.345,0,0,0,2.735-1.582c.33-.3,1.285-.923,1.483-1.088s.56-.527.857-.132a.778.778,0,0,0,1.022.231,2.281,2.281,0,0,1,.956-.3c.2,0,.659.165,1.055.165s1.055.033,1.12.165.593.264.725.4.758.33.824.857.33.56.857.626.923.165,1.088.2.363.33.363.33a8.053,8.053,0,0,0,1.022.758,7.762,7.762,0,0,0,1.12.4,5.378,5.378,0,0,0,1.088,0" transform="translate(-98.263 -488.304)" fill="none" stroke="#eaecff" stroke-linejoin="round" stroke-miterlimit="3.864" stroke-width="0.5" fill-rule="evenodd"/><path d="M698.339,687.077l-.223-.569a2.934,2.934,0,0,1,.3-.725.715.715,0,0,0-.066-.956c-.33-.362-.725.2-.89.659s-1.088.033-1.088.033a1.866,1.866,0,0,1-.428-.692c-.1-.362-.231-.758-1.153-.593s-.659-.231-1.022-.791-1.022-.165-1.153.033a.77.77,0,0,1-1.022.1c-.362-.3-.461-.857-.2-1.088s.4-.4.593-.461.758-.264.791.066a.984.984,0,0,0,.132.461s.461.1.494-.264a4.026,4.026,0,0,1,.33-.923.435.435,0,0,1,.33-.3,8.547,8.547,0,0,0,.824-.428s.3-.231.033-.363-.362-.264-.1-.4.4-.33.264-.494-.362-.923-.033-1.153a1.65,1.65,0,0,0,.494-.725s.033-.165.066-.461a.8.8,0,0,1,.626-.659,2.4,2.4,0,0,0,1.055-.593,8.73,8.73,0,0,1,.461-.758s-.1-.593-.1-.725a.452.452,0,0,0-.428-.527c-.428-.033-.857-.066-.758-.56s.264-.89.066-1.219-.659-1.153-.791-1.285-.56-.626-.56-.626-.264-.593-.1-.89.165-.33.494-.3.626.1.923.1,1.747-.165,1.977-.494.4-.791.989-.692.923.033,1.022-.132a8.563,8.563,0,0,1,1.055-.857c.132-.1.1-.692.1-.692a1.645,1.645,0,0,1,.231-.692c.165-.165-.33-.494-.494-.33a1.06,1.06,0,0,1-.692.33c-.264,0-.923-.066-.692-.4s.066-.593-.165-.527-.791.165-.791.165a6.825,6.825,0,0,0-1.648.165c-.33.165-.89.231-1.022.1s-1.12-.956-1.45-.857a6.355,6.355,0,0,1-1.186.1s-.56-.132-.659-.527-.1-.89.363-.923.989-.033,1.153-.428.264-1.252.725-1.516a2.268,2.268,0,0,0,1.022-1.384,1.368,1.368,0,0,0-.2-.692,3.886,3.886,0,0,1-.066-1.318,4.45,4.45,0,0,0,.2-1.153c.033-.33.132-1.055.132-1.055l.331-1.12s.032-.2.46-.2a1.1,1.1,0,0,0,.989-.593c.132-.33.4-1.186.4-1.186a3.023,3.023,0,0,0,.264-.824c-.033-.165-.033-.2.165-.461a3.392,3.392,0,0,1,1.252-.857,4.249,4.249,0,0,0,1.219-.626,6.061,6.061,0,0,1,.532-.58,2.464,2.464,0,0,1,.885-.277c.363,0,1.45-.132,1.516-.363s.132-.264-.132-.593-.428-.659-.264-.956a.928.928,0,0,0-.2-1.153c-.4-.3-.989-.165-.527-1.055a4.846,4.846,0,0,0,.593-2.109c-.033-.3-.132-.659.066-.89s.3-.461.692-.4.989.132.989.132l.824.461" transform="translate(-515.953 -477.898)" fill="none" stroke="#eaecff" stroke-linejoin="round" stroke-miterlimit="3.864" stroke-width="0.5" fill-rule="evenodd"/><path d="M729.626,618.56a2.428,2.428,0,0,1,.89-.494,9.5,9.5,0,0,1,1.615-.4,1.531,1.531,0,0,0,.626-.132,2.257,2.257,0,0,1,1.088-.56,6.317,6.317,0,0,0,.989-.1,3.835,3.835,0,0,1,1.252-.461,11.268,11.268,0,0,0,1.351-.165s.4-.3.692-.066l.593.461.461.923s-.066.758-.066,1.022-.033,1.12-.033,1.12l-.033,1.088-.3.824a5.327,5.327,0,0,0,1.318-.2c.132-.132.33.033.527.132s.692.428.692.428v.461l.923-.4-.132-.791a9.928,9.928,0,0,1,1.351-.1,4.126,4.126,0,0,1,.758.231,3.342,3.342,0,0,0,.626.066s.527-1.219.593-1.516a1.33,1.33,0,0,0-.066-.89c-.132-.2-.476-.8-.066-1.153.231-.2,0-.89,0-.89a.961.961,0,0,1-.033-.758c.132-.527,0-.89.3-.956a2.243,2.243,0,0,1,.4-.066s.461.264.659.066.4-.264.428-.428a3.783,3.783,0,0,1,.791-1.088,3.663,3.663,0,0,1,.692-.33l.132-.428-.165-1.186-.1-.3-.56.033-1.45-1.648-1.055-1.219-.165-.4-.659-.1-1.088-.593-.494-.066s-.416-.621-.383-.752c.078-.363.267-1.134-.013-1.258a5.857,5.857,0,0,0-.758-.33c-.165-.033-.3-.461-.165-.626s.428-.461.3-.692a1.19,1.19,0,0,0-.411-.382,1.029,1.029,0,0,1-.281.283c-.362.231-.659.428-.989.362s-.4-.3-.428-.527-.2-.758.2-.956.824-.56.824-.857a2.861,2.861,0,0,0-.2-1.186c-.2-.461-.231-.494-.593-.428a.609.609,0,0,0-.494.593,6.121,6.121,0,0,1-.2,1.12c-.066.165-.3.56-.461.33s-.461-.758-.461-.758l.165-2.307V597.04" transform="translate(-549.274 -439.774)" fill="none" stroke="#eaecff" stroke-linejoin="round" stroke-miterlimit="3.864" stroke-width="0.5" fill-rule="evenodd"/><path d="M849.376,625.149l1.714-1.714a2.614,2.614,0,0,1,.626-1.153,1.7,1.7,0,0,0,.692-1.088,1.93,1.93,0,0,1,.165-.626l.989-1.45s-.165-.527.132-.725.956-.33,1.12-.461a2.608,2.608,0,0,1,1.088-.593c.4-.033,1.219-.231,1.351-.527s.692-.494.89-.659a5.228,5.228,0,0,1,.527-.362" transform="translate(-653.239 -456.053)" fill="none" stroke="#eaecff" stroke-linejoin="round" stroke-miterlimit="3.864" stroke-width="0.5" fill-rule="evenodd"/><path d="M872.625,707.321s-.033-.33.824-.3.824.231.857.56,0,1.417,0,1.648.231.527.363.264a2.225,2.225,0,0,0,.165-.4l.461.1s-.1.4,0,.56a1.833,1.833,0,0,1,.132.758c0,.231-.066.494.132.494s.428-.066.56.165.264.461.494.231.264-.4.428-.428a.8.8,0,0,0,.264-.1v.593c0,.165.033.527.231.33s.626-.33.692-.56a1.41,1.41,0,0,1,.264-.593c.132-.132.231-.33.428-.527a8.622,8.622,0,0,0,.659-.956s.824.89.989,1.022.066.527.033.791a4.836,4.836,0,0,0,.066.89h.692a.608.608,0,0,1,.264.264.719.719,0,0,1-.066.758c-.231.3-.692.264-.626.692s.3.89-.132,1.252a4.606,4.606,0,0,0-.725.725c-.1.132-.132.1-.132.362s-.066.626-.3.33-.33-.165-.33.066a1.753,1.753,0,0,0,.165.659,4.253,4.253,0,0,1,.1.791" transform="translate(-673.423 -535.259)" fill="none" stroke="#eaecff" stroke-linejoin="round" stroke-miterlimit="3.864" stroke-width="0.5" fill-rule="evenodd"/><path d="M680.126,496.3h.692c.231,0,.758.461.758.461a3.538,3.538,0,0,1,.692.494.893.893,0,0,0,.659.264c.2,0,1.516.066,1.813.1s.923.033,1.022.2a.788.788,0,0,1,.1.494c0,.231-.033.824.33.56s.56-.4.791-.2a1.335,1.335,0,0,1,.461.692,3.08,3.08,0,0,0,.593,1.186,4.346,4.346,0,0,0,.659.428.747.747,0,0,1,.362.527c0,.2.362.3.758.33a.685.685,0,0,1,.626.428.626.626,0,0,0,.89.3c.428-.3.494-.362.494-.659,0-.266.212-.77.256-1.109l1.03-.407.264-.758a1.805,1.805,0,0,1,.264-.791c.231-.33.593-.066.593-.066h.758l.494,1.153,1.582-.231.131-1.252v-.033a2.023,2.023,0,0,0-.593-1.219,3.5,3.5,0,0,1-.725-.725l-1.088-.923" transform="translate(-506.299 -351.654)" fill="none" stroke="#eaecff" stroke-linejoin="round" stroke-miterlimit="3.864" stroke-width="0.5" fill-rule="evenodd"/><path d="M600.343,402.132l.626.066a1.018,1.018,0,0,1,.527.165c.231.165.3.165.659-.033a.817.817,0,0,1,.89.132,2.03,2.03,0,0,0,.956.132c.33,0,.362.165.461.3s-.165.791-.165.791a2.7,2.7,0,0,0-.824.461c-.33.3-.132.989,0,1.219s.593.1.824.1.33.33.33.494a7.425,7.425,0,0,1,0,.857.951.951,0,0,1-.692.626c-.428.066-.231-.494-.165-.89s-.4-.692-.791-.659-.363.593-.231.758a2.762,2.762,0,0,1,.3.824.712.712,0,0,1-.527.659c-.33.033-.626.033-.857.066s-.626.56-.725.692a1.871,1.871,0,0,0-.33.923c0,.362.034.913.034.913a1.7,1.7,0,0,0-.462.141c-.2.1-.264.165-.461.066a9.911,9.911,0,0,0-1.714,0,.937.937,0,0,1-.758-.33c-.231-.264-.494-.923-.362-1.186s.494-.527.527-.692.33-.758.1-1.022-.231-.428-.363-.1-.2.56-.428.56a.6.6,0,0,1-.494-.527,11.5,11.5,0,0,0-.231-1.219c-.033-.165.2-.725.428-.791s.725-.2.461-.659-.231-.989.264-.791.56.033.626-.132a.423.423,0,0,0-.165-.461c-.132-.1-.428-.4-.2-.593s.3-.264.593-.033.89.692,1.088.4.33-.56.626-.692a3.323,3.323,0,0,0,.857-.758,5.07,5.07,0,0,0,.758-1.219c0-.231.066-1.055.033-1.318s-.231-.989-.527-1.12a5.572,5.572,0,0,1-1.483-1.055,7.454,7.454,0,0,0-1.186-1.549,12.727,12.727,0,0,1-1.153-.989,3.791,3.791,0,0,0-.132-1.088c-.132-.231-.3-1.088-.56-1.351s-.857-.89-.857-.89-.857.066-1.022.1a3.411,3.411,0,0,1-.593,0l-.725-.132" transform="translate(-430.768 -261.146)" fill="none" stroke="#eaecff" stroke-linejoin="round" stroke-miterlimit="3.864" stroke-width="0.5" fill-rule="evenodd"/><path d="M232.627,653.7l.582.233,2.64.039.272.311.272.039.854-.388.349.039.078.427.815.776.7.272.427.776" transform="translate(-117.79 -488.965)" fill="none" stroke="#eaecff" stroke-width="0.5"/><path d="M315.961,405.494l.543-.155.66-.815,1.164-.155.233-.349.466-.116.388.427.776-.155.233-1.009.543-.349.233.233h1.9l1.009.66.194.7.97.427,1.863-.5.233-.311.311.116-.233.815.738.349.776-.5.155-.5.427-.155.272.349,1.514.311.155-.194-.078-.311.272-.194.194.155,2.329.854h.738l.194.621.66.155.543-.388.078-.388.427.078.776-.621.66.039.116.621.854.66,1.164-.194.66.194.621.582" transform="translate(-190.139 -271.153)" fill="none" stroke="#eaecff" stroke-linejoin="round" stroke-width="0.5"/><path d="M532.7,191.879l.556.313.869.209.73.73.9.313.209.417.382.1.243-.348.626-.278.487.348,1.286.452h.521l.452.313.73.07.452.243v.417l.382,1.112.487.417.556.765" transform="translate(-378.311 -88.022)" fill="none" stroke="#eaecff" stroke-linejoin="round" stroke-width="0.5"/><path d="M319.785,274.541a1.11,1.11,0,0,0-.582-.325l-.379-.118-.571.1-.571.1-.347-.264a4.293,4.293,0,0,1-.4-.327,1.218,1.218,0,0,1-.1-.334,1.145,1.145,0,0,0-.086-.3,1.715,1.715,0,0,0-.4-.063l-.366-.031-.384.3c-.38.3-.387.3-.634.288l-.25-.014-.044.2c-.036.165-.084.229-.279.372-.17.126-.264.166-.342.148-.437-.1-.432-.1-.49-.3-.133-.467-.1-.444-.548-.444-.386,0-.424-.01-1.529-.416a12.76,12.76,0,0,1-1.242-.5c-.145-.113-.209-.107-.4.038-.151.115-.159.135-.135.316a.389.389,0,0,1-.007.214,5.318,5.318,0,0,1-.715-.116c-.681-.136-.682-.137-.846-.324l-.164-.188-.251.079c-.292.092-.315.115-.415.419-.068.206-.106.247-.412.439l-.337.212-.276-.13a1.015,1.015,0,0,1-.276-.161c0-.017.044-.191.1-.387.112-.41.1-.45-.195-.538l-.189-.057-.164.181c-.158.175-.194.189-1.02.411l-.856.229-.439-.194-.439-.194-.094-.338-.094-.338-.52-.349-.52-.349-.958,0-.958,0-.107-.114c-.146-.155-.233-.144-.551.072s-.314.224-.428.77c-.045.213-.084.391-.088.4a3.084,3.084,0,0,1-.308.073l-.3.063-.195-.2c-.214-.218-.278-.231-.611-.131a.5.5,0,0,0-.323.222c-.108.169-.124.174-.826.262l-.425.053-.343.414c-.279.337-.377.424-.529.469-.227.067-.255.037-.257-.282a10.865,10.865,0,0,0-.345-2.069,16.45,16.45,0,0,0-1.869-4.057c-.318-.557-.691-1.269-.83-1.581l-.253-.568.014-.56.014-.56.145.037a.933.933,0,0,0,.7-.058.63.63,0,0,0,.114-.758,1.982,1.982,0,0,1-.188-.975,5.184,5.184,0,0,0,.066-.6,3.835,3.835,0,0,1,.075-.6l.048-.164.309.022c.287.021.318.014.427-.1a.4.4,0,0,0,.118-.222,1.417,1.417,0,0,1,.392-.725,4.451,4.451,0,0,1,.722-.45,6.126,6.126,0,0,0,.682-.4c.075-.062.527-.495,1-.961s1.114-1.036,1.416-1.266c.626-.477.6-.435.708-1.33l.055-.477.163-.014c.163-.014.164-.012.308.319.128.294.171.347.366.457s.257.124.768.124a5.945,5.945,0,0,0,.888-.065,2.914,2.914,0,0,0,1.11-.448,3.036,3.036,0,0,0,.469-.919c.091-.284.124-.333.311-.455a.973.973,0,0,0,.322-.349c.1-.193.13-.215.318-.243a.644.644,0,0,0,.5-.262,7.315,7.315,0,0,1,.64-.556c.288-.23.745-.626,1.014-.881a2.491,2.491,0,0,1,.534-.436.213.213,0,0,1,.045.15,1.344,1.344,0,0,0,.323.672c.06.052.232.18.382.284.235.162.431.381.431.483a2.78,2.78,0,0,1-.292.339c-.485.516-.613.922-.37,1.166.138.138.284.142.8.018l.387-.093.08.1a.336.336,0,0,1-.18.533,3.1,3.1,0,0,1-.445.1,3.562,3.562,0,0,0-1.286.407c-.143.092-.417.257-.608.365-.361.2-.448.312-.448.555,0,.1.052.192.21.35a3.572,3.572,0,0,1,.716,1.079,3.523,3.523,0,0,0,1.211,1.4,11.224,11.224,0,0,1,.979.854,2.4,2.4,0,0,0,1.079.762c.294.124.7.322.9.439a2.042,2.042,0,0,0,.74.281c.2.037.467.095.586.128a9.848,9.848,0,0,1,1.557.814c.134.107.137.118.152.588.013.392.03.492.1.553a5.863,5.863,0,0,0,1.349.256c.7.1,1.353.192,1.459.2.152.018.256.077.489.279l.3.256v.412a1.39,1.39,0,0,0,.088.6.668.668,0,0,0,.46.376c.072,0,.121.077.223.349a.45.45,0,0,0,.484.259,1.426,1.426,0,0,0,.386-.273,1.115,1.115,0,0,1,.909-.381h.313v.335c0,.394.028.43.373.478.461.064.573.186.658.719.108.673.252.816.951.941.611.109.7.154.955.489.365.478,1.307,1.651,1.35,1.681.094.065-.465.721-1.4,1.642-.55.543-1.072,1.091-1.16,1.219s-.257.365-.376.528a4.649,4.649,0,0,0-.308.475c-.05.1-.107.178-.126.178a1.159,1.159,0,0,1-.238-.207h0Z" transform="translate(-168.53 -139.694)" fill="#5751c8" stroke="#eaecff" stroke-linejoin="round" stroke-width="0.5"/></g></svg>