<svg xmlns="http://www.w3.org/2000/svg" width="136.122" height="120.814" viewBox="0 0 136.122 120.814"><g transform="translate(-13.576 -9.767)"><g transform="translate(13.841 45.389)"><path d="M22.779,189.449l-.086.367.946.258h.6l.86.516.688.344.344-.344.86-.258.688.43.43-.43.258-.43.516-.086.258.6h1.72l.86-.344.688-.344.516-.086.6.43.172.774.43.172h.688l.774.086.6,1.032.6.86.43-.516v-.688l.086-.516.688-.516v-.43l-.688-.258-.6-.344-.516-.516.43-.258.774-.344.946-.43.86-.172.6-.516.258-.43.516-.6.258-.6.86.172h1.376l.258-.43.43-.43.43-.258.344.688.344.258.258-.258.516-.43h.6l.43.688.172,1.032h.688l.6.344.688.6.688-.172.43-.43.344.43.516.774,1.032-.086V188.1l.6-.258.688-.086v-.344h.636l-.314-.564-.314-.564-.063-1,.125-.69.627-.439-.314-.815-.314-.5-.188-.564.251-.439.125-.5-.314-.69.314-.376.564-.5-.063-.815L53.265,178l-.251-.752-.188-.878.439-.314-.439-.752h-.752l-.376-.188-.376-1.066-.439-.439-.941-.188-.627-.314-.314-.69.376-.376.314-.5.188-1.066-.188-.941.314-.564.564-.063h.5l.314-.752.815-.125.878-.376.439-.251.627-.125.125.564s-.314.5-.063.69.815.063.815.063l.251.5.063.314.564-.439.376-.752.5-.627.627-.69.063-.69-.439-.251-.815.627L55.4,166.4l-.376-.627-.5-.188-.5-.376.376-.627.125-.878.063-.815-.439-.439-.314-.251-.376-.564-.941-.063-.627.376-.627.063-.439-.376-.314-.314-.331.422-2.463.462H45.1l-2.463-.308-1.693.616-2.155.77-1.693,1.077-1.693.462-1.385-.77-1.231-1.077-.616-2.155-.308-1.231-1.847-1.077-2,.154-2,1.385-.923,1.693L23.7,163.592l-1.231,1.693-.923,1.385-.77.923-1.693,1.539-2.463,1.231-1.385.77-.462,2.309-.462,2-.77,1.231.308,1.539.462,1.077.616.462,1.693,1.231,1.231.923.923.923.923-.308h1.385l.616.154.923.462,1.231.923.154,1.847-.154,2.155-1.077,1.385Z" transform="translate(-13.544 -158.512)" fill="#5751c8" stroke="#eaecff" stroke-width="0.5" fill-rule="evenodd"/></g><g transform="translate(22.152 71.792)"><path d="M64.686,298.726l-.616-.88-.77-1.539-1.077-.923L61.454,294l-.923-1.847L58.991,290l-.77-2-.462-2.463-.462-1.847v-1.231l-1.539-.462-2-.154H51.911l-.77-.462-.308-.923-.923-.308v-1.077l-.154-.77-1.077-1.231-.308-2.309.838-.71.946.258h.6l.86.516.688.344.344-.344.86-.258.688.43.43-.43.258-.43.516-.086.258.6h1.72l.86-.344.688-.344.516-.086.6.43.172.774.43.172h.688l.774.086.6,1.032.6.86.43-.516v-.688l.086-.516.688-.516v-.43l-.688-.258-.6-.344-.516-.516.43-.258.774-.344.946-.43.86-.172.6-.516.258-.43.516-.6.258-.6.86.172h1.376l.258-.43.43-.43.43-.258.344.688.344.258.258-.258.516-.43h.6l.43.688.172,1.032h.688l.6.344.688.6.688-.172.43-.43.344.43.516.774,1.032-.086v-.258l.6-.258.688-.086v-.344l.688-.086.43.172.43.688.516.774.946.43.86-.086.688-.43.6.344h.516l-.086-.516.43-.6h1.29l.774.258.774.6.43.6.172.6.086.86.086.946.258.6-.6.258-.774.172-.086.344.86.344,1.032.516.688.258.516.6.516.774h-.6l-.774.172v.43l-.172.86-.688.688-.43.516-.172.516-.6.258-.516.086-.43.516-.344.86a1.542,1.542,0,0,1-.946.43c-.516,0-.344.6-.344.6l-.258.516-.774-.258h-.6l-.172.6-.172.258-.774.086-.946-.086-.516-.6-.946-.43-.344-.258-.688-.516-.946.43v.6l-.258.43-.688.344-.344.6.172.774-.172.43-.516.172-.344.6-.43.688-.258.946-.172.774h-.6l-.6.086-.344.6-.344.516-.86-.43-.86-.172-.172.6-.344-.258-.6-.258-.86.172-1.118.688-.172.6h-.516l-.086.6.258.258-.258.516-.774.516-.086,1.118-.6.688-1.118.344-.774.43Z" transform="translate(-48.371 -269.148)" fill="#5751c8" stroke="#eaecff" stroke-width="0.5" fill-rule="evenodd"/></g><g transform="translate(38.467 82.711)"><path d="M116.994,335.1l.64.7,1.3.076h.688l.841.535.841-.535,1.147-.382,1.377.153.841.459.612.076.994-.459,1.071.612.612.153.612-.688.918.382.688-.076.765-.688.918.535.765.612.393.066.437-.437.6-.546.656-.656.656-.546.164-.71.328-.819.437-.6h.874l.546-.164.219-.983.546-.983.328-.6.983-.437.328-.765.819-.765.328-1.147.929-.71.219-1.2.874-.656.765-.164.6.164.6.492.273.382.109-.765-.164-.765-.6-.546-.109-.382h.765l.71-.382.382-.546.219-1.038v-.929l-.328-.874-.71-.6-.983-.819-.437-.874-.546-.656-.085-.6-.618-.085-.774.172v.43l-.172.86-.688.688-.43.516-.172.516-.6.258-.516.086-.43.516-.344.86a1.542,1.542,0,0,1-.946.43c-.516,0-.344.6-.344.6l-.258.516-.774-.258h-.6l-.172.6-.172.258-.774.086-.946-.086-.516-.6-.946-.43-.344-.258-.688-.516-.946.43v.6l-.258.43-.688.344-.344.6.172.774-.172.43-.516.172-.344.6-.43.688-.258.946-.172.774h-.6l-.6.086-.344.6-.344.516-.86-.43-.86-.172-.172.6-.344-.258-.6-.258-.86.172-1.118.688-.172.6h-.516l-.086.6.258.258-.258.516-.774.516-.086,1.118-.6.688-1.118.344-.774.43.462.352-.2,1.183Z" transform="translate(-116.735 -314.905)" fill="#5751c8" stroke="#eaecff" stroke-width="0.5" fill-rule="evenodd"/></g><g transform="translate(54.749 91.541)"><path d="M194.725,369.773l.071-.661.546-.819.492-.656.929-.382.6-.437.328-.109-.328-.6.273-.929.437-.983.382-1.093.765-1.038.546-.874.656-.71-.055-.71-.492-.656-1.093-.492-.765-.273-.437-.273.437-.874.983-.765.546-.71.164-.656-.219-.656-.382-.382-.546.328-.437.328-.437.109-.273-.6-.492-.219-.219-.273.437-.437.273-.328-.219-.382-.6-.492-.6-.164-.765.164-.874.656-.219,1.2-.929.71-.328,1.147-.819.765-.328.765-.983.437-.328.6-.546.983-.219.983-.546.164h-.874l-.437.6-.328.819-.164.71-.656.546-.656.656-.6.546-.437.437.448.087,1.224-.076.076.994s-.229.459.153.459h.994v.688l.306.306h.841l.306.765.076.841.765-.688-.076-.841.535-.229.459.612h.994l.688.153v1.147l.918.841Z" transform="translate(-184.963 -351.904)" fill="#5751c8" stroke="#eaecff" stroke-width="0.5" fill-rule="evenodd"/></g><g transform="translate(64.512 94.928)"><path d="M252.382,390.38l.055-.9.055-1.038.055-.656.492-.6.055-.929-.328-.929-.328-.6h-.6l-.382-.164-.273-.382-.164-.983-.273-.6-.437-.546-.6-.382.055-.765-.273-.874-.382-.437-.6-.164-.382-.273v-.328l.437-.328-.109-.656-.437-.765-.437-.546-.382-.328-.983-.546-.929-.437-.819-.437-.71-.437H243.2l-.6.328-.437.164h-.382l-.382.6-.109.219-.437.109-.6-.219-.382-.109h-.492l-.437.328-.492.055-.492-.492-.546-.874-.437-.819-.328-.765-.492-.656-.328-.765-.219-.492-.055-1.093V369.1l-.055-.929.055-.765-.055-.656-.055-.437-.164-.219h-.546l-.164.437-.328.6v.874l.055.765-.219.382h-.546l-.819.382-.273.819-.273.71-.6.164-.656.765-.546.874-.765,1.038L229.219,375l-.437.983-.273.929.328.6-.328.109-.6.437-.929.382-.492.656-.546.819-.071.661.628-.071.994.535.612-.612.382-.918.765-.918h.765l.153,1.3.918.382.612.382-.535.918-.918.535-.459.918.535.994.688.765.535.229.535.765.076.841.994.153.459-.918.382-.765.306.688.612.382.382.535.071,1.038.464.317,1.147.382,1.147.055,1.147.328,1.2.328,1.038-.273.819-.328,1.2-.219,1.147.219.656.164.328-.328.546-.164.546.273.219.546.328.164.273.055.382.109.437-.109.765-.109.6.656.6.355.6-.246.546.164.874.3Z" transform="translate(-225.87 -366.097)" fill="#5751c8" stroke="#eaecff" stroke-width="0.5" fill-rule="evenodd"/></g><g transform="translate(72.635 116.687)"><path d="M270.159,465.832l-.994-.459-.994.153-.535-.459-.841-.076-.306-.535H265.8l-.382-.612-1.071-.153-.765-.382-.688-.765-.765-.765-.459-.918-1.683-.612-.076-.765.153-1.147.612-.612.483-.454.588.2,1.147.382,1.147.055,1.147.328,1.2.328,1.038-.273.819-.328,1.2-.219,1.147.219.656.164.328-.328.546-.164.546.273.219.546.328.164.273.055.382.109.437-.109.765-.109.6.656.546.382-.874.164-.819.437-.874.437-.546.6-1.257.6-.109,1.147v.819l-.382.6-.328.6-.6.382-.273.437Z" transform="translate(-259.911 -457.271)" fill="#5751c8" stroke="#eaecff" stroke-width="0.5" fill-rule="evenodd"/></g><g transform="translate(82.884 118.747)"><path d="M314.66,469.066l.1-.212v-.546l.109-.6-.164-.819-.382-.164-.492-.109-1.147-.382h-.874l-.929.164-.765-.328-.546-.164-.656.219-.874.219-.819.437-.874.437-.546.6-1.257.6-.109,1.147v.819l-.382.6-.328.6-.6.382-.273.437.153.153.153.612h.765l.612.535-.382.612.382.841.994.076h.688l.306.765v.765l.688.612.612-.765.459-.153.841.459.688-.076.918-.688,1.53-.459.688-.765-.229-.918-.612-.153-1.071-.535-.382-.535.306-1.377.765-.382.153-.688,1.147-.382.994-.382.639-.509Z" transform="translate(-302.855 -465.904)" fill="#5751c8" stroke="#eaecff" stroke-width="0.5" fill-rule="evenodd"/></g><g transform="translate(86.107 95.365)"><path d="M334.246,372.19l.392-.479.329.47.141.282h1.035l.564-.141.517-.094.753.094.658.282h.658l.517.235.188.47v.564l.517.423.517.235.188.611.188.423v.658l-.3.106-.673.065-1.3,1.071-.994.688h-.994l-1.224-.459-.688-.382-.918-.459-.688-.153h-.994l-.688-.765.076-.765.688-.153h.841l.841.153.688-.306.765-.153-.459-.688-.765.076-1.377.229-.612-.535.306-.382.535-.229.382-.459.382-.535Zm-9.354,22.021,1.017.312,1.071-.535.918-.841-.229-1.071-.153-.841.535-1.071.229-1.377-.229-.918-.841-.612.076-1.071-.076-.841-.535-.535h-.765l-.612-.229-.076-.612.612-1.224.459-.841-.688-.841-1.071-.765.153-.994.382-.918.765-1.071,1.071-.382,1.147.612,1.147-.153.612-.841-.459-.918-.841-.153h-.994l-.612-.229-.382-1.224v-.688l1.071-.076.688.688.535.459.765-.077.765-.153.535-.994.918-.612.076-.612.382-.688.71-.011v-.437l-.055-.328-.164-.71-.656-.273-.71-.219-.437.328-.437.382-.437-.055-.71-.328-.656-.055-.492-.437-.492-.546-.6-.219-.546.328-.219.492h-.546l-.382-.492.492-.273-.164-.492h-.6l-.492.055-.437.382-.437.492-.71.164-.656-.055-.656-.492-.492-.437-.492.109-.492.382-.437-.164-.492-.273-.656.437-.218.656-.055.765-.71.273-.328.492.219.656.437.437-.492.6-.164.6v.874l-.382.437.382.382v.6l-.219,1.038-.382.929-.437.6.33.364.216.237.437.765.109.656-.437.328v.328l.382.273.6.164.382.437.273.874-.055.765.6.382.437.546.273.6.164.983.273.382.382.164h.6l.328.6.328.929-.055.929-.492.6-.055.656-.055,1.038.055.874.71-.109h.874l1.147.382.492.109.382.164.164.819-.109.6Z" transform="translate(-316.36 -367.929)" fill="#5751c8" stroke="#eaecff" stroke-width="0.5" fill-rule="evenodd"/></g><g transform="translate(105.752 103.333)"><path d="M420.356,408.605l-.262.782.765,1.224.765.688-.153.841-1.071.688h-.765l-.459-.612-.535-.076-.994-.535.229-.382.765-.612-.153-.841-.994.153-.382.841-1.071.382-.229.688h-.841l-.459-.535H412.9l-.841-.535-.459.153-.306.612h-.841l-.229-.841-.535-.153-.459.306.077,1.377-.459,1.224-1.071.612-.612.612v.918l.153.765-1.377.382-.535.153-.765.153-.612.229-.459-.612-.612.153v.688l-.459.535-.076.994-1.224-.688-.765-.535-.229-.841-.688-.535-.382-.306-.459-.535.076-.688.765-.688.612.076.765.382.765-.076h.688l.612.688.535-.153v-.459l.306-.765.688-.077v-.535l-.765-.459-.076-1.224.153-1.071.612-.841-.841-.153-.459-.612v-.688l-.306-.841.918-.229.688.076.841.459.688-.153-.153-.688.153-1.224.067-.695.094-.243.423-.282-.141-.752.376-.611h.705l.517.376.611.141h.705l.423-.188.47-.611.094-.941.564-.047.376.517.376.376.282-.376.282-.611.658-.376.517.564.188.517.329.658.423.658.47.988v.658l-.235.8.282.658.8.423h1.787l1.223.517,1.129.564.611.282Z" transform="translate(-398.679 -401.316)" fill="#5751c8" stroke="#eaecff" stroke-width="0.5" fill-rule="evenodd"/></g><g transform="translate(109.594 85.791)"><path d="M428.647,333.373l-.427-.6-.535-.918.306-1.147-.382-1.224.16-.452h-1.129l-.705.094-.941-.188-.705-.423-.611-.517-.564-.188-.329.329-.752.047h-.47l-.517.329.282.847.564.423,1.035.329.846.658-.094.611-.188.705-.282.847-.846.611-.705.235-.235.894-.376.847-.705.894-.847.752-.988.517h-.8l-.988.094-.564.658-.376.8.094,1.223-.282.847-.376.752-.435.405.152.3v.564l.517.423.517.235.188.611.188.423.051.667.663.544.077.841v.612l.306.535.992.464.358-.231-.141-.752.376-.611h.705l.517.376.611.141h.705l.423-.188.47-.611.094-.941.564-.047.376.517.376.376.282-.376.282-.611.478-.26.415-.54.329-.423.188-.47-.517-.564-.8-.094h-.752L423.3,343l-.564-.988-.423-.658-.141-.658.235-1.082.611-1.129.282-1.364.282-.752.329-.753.047-.517.705-.188,1.035-.188.705-.047.941-.376.658-.423Z" transform="translate(-414.776 -327.81)" fill="#5751c8" stroke="#eaecff" stroke-width="0.5" fill-rule="evenodd"/></g><g transform="translate(116.989 91.353)"><path d="M456.324,369.868l-.12.518-.611-.282-1.129-.564-1.223-.517h-1.787l-.8-.423-.282-.658.235-.8v-.658l-.47-.988-.423-.658-.329-.658-.188-.517-.437-.378-.174-.139.329-.47.329-.423.188-.47-.517-.564-.8-.094h-.752l-.47-.376-.564-.988-.423-.658-.141-.658.235-1.082.611-1.129.282-1.364.282-.752.329-.753.047-.517.705-.188,1.035-.188.705-.047.941-.376.658-.423.643-.5.262.625.076,1.071.535.688h.994l.688.459.918.459.994-.229.918.153.765.612.994-.306.382-.459.765.076,1.071.229.765-.535.229-.688.535-.688,1.147.229-.306.994.535.382.153.841.612.535.382.306-.459.841-.153.918-.918.688-.994.153-.918-.841-.918.535-1.377.535-1.53.153-1.453.535.382,1.071.306,1.071-.076.765-.994.229-.918.229.153.841.994.535.765.153,1.224.229.841,1.071.229,1.453-.535.765-.765.535-.535.612-.535-.765-.535-.765-.994.459.459.841Z" transform="translate(-445.764 -351.117)" fill="#5751c8" stroke="#eaecff" stroke-width="0.5" fill-rule="evenodd"/></g><g transform="translate(113.753 70.326)"><path d="M447.291,274.3l-.523.573-.918,1.224-.841.765-.841.535h-1.377l-.688.535-.612.994-.452.772H439.91l-.705.094-.941-.188-.705-.423-.611-.517-.564-.188-.329.329-.222.027-.207-.311-.311-.57.1-.88.1-.621.311-.466.207-.725-.259-.518-.362-.052-.362.311-.362.207-.311.362-.673-.155-.1-.621.1-.828-.155-.414-.466-.311-.673-.155-.207-.414v-.777l.155-.518.828-.1.777-.207.57-.311.1-.466v-.777l.052-.777-.1-.466.052-.518.362-.362-.207-.621-.57-.311.621-.362.466-.052.518.155.414.518.466.414.414.362.673.518.673.155.777-.518.466-.984.052-.621-.466-.57-.362-.362.259-.984.414-.828.179.189.329.348.581.533,1.018.291.581.291.727.194.872.145.581-.436.388-.581.485-.581.678-.291.63-.242.581-.145.63.1v.436l-.242.921-.339.678-.533.775-.63.63-.727,1.114-.775.921-.969.727-.872.969-.484.63-.048,1.018.436.194.678.194,1.066.1.485.1.872.194.533.339.485.581.485.678Z" transform="translate(-432.208 -263.005)" fill="#5751c8" stroke="#eaecff" stroke-width="0.5" fill-rule="evenodd"/></g><g transform="translate(121.181 66.643)"><path d="M478.22,257.713l.085-.69-.291-.63-.824-.388-.63-.242-.63-.291-.048-.775.1-.921.533-.485.581-.048h.581l.581-.242.145-.63-.436-.775.228-.419-.228-.405-.145-.678.291-.63-.242-.533-.291.194-.824.194h-.388l-.242-.339-.581.145-.436.1-.291-.388-.678-.485h-.872l-.63.339-.485.242-.727.1-.533-.145-1.066-.485-.678-.291-.727-.485-.485-.048-.1.388-.63.291-.533.436-.872.533-.824.63-.727.388-.339.678-.581.581.485.581.581.533,1.018.291.581.291.727.194.872.145.581-.436.388-.581.485-.581.678-.291.63-.242.581-.145.63.1v.436l-.242.921-.339.678-.533.775-.63.63-.727,1.114-.775.921-.969.727-.872.969-.485.63-.048,1.018.436.194.678.194,1.066.1.485.1.872.194.533.339.485.581.485.678.7-.727.994-.841,1.453-.612,1.147-.765,1.683-.688.765-.994.489-.206Z" transform="translate(-463.332 -247.574)" fill="#5751c8" stroke="#eaecff" stroke-width="0.5" fill-rule="evenodd"/></g><g transform="translate(133.731 66.739)"><path d="M519.821,251.251l-.9.07-.678.048L518,251.9l.436.775-.145.63-.581.242h-.581l-.581.048-.533.485-.1.921.048.775.63.291.63.242.824.388.291.63.1.648,1.09.018.229-.535-.535-.306.841-.382h1.224l.841-.841.765-.612,1.759-.535,1.53-.918.459-.918.918-.459.918-.076.765-.077.918-1.3,1.147-1.071.229-1.071.076-.612-1.224-.306-1.3.382-.535.765-.918-.459-1.147-.153-1.224-.076H523.5l-.841.918-.918.306-.994.382-.612.688-.317.521Z" transform="translate(-515.918 -247.977)" fill="#5751c8" stroke="#eaecff" stroke-width="0.5" fill-rule="evenodd"/></g><g transform="translate(128.434 52.208)"><path d="M502.845,204.894l-.82.068-.556.084-.365-.326-.145-.678.291-.63-.242-.533-.291.194-.824.194h-.388l-.242-.339-.581.145-.436.1-.291-.388-.678-.485H496.4l-.276.064-.262-.656-.306-.787-.044-.612-.524-.656.044-.743v-.568l.044-.35-.175-.306-.262-.306v-.219l.219-.219h.83l.393-.044.612.262.524-.175-.131-.35-.437-.306-.437-.437.044-.481.481-.393.568-.219.524-.437-.044-.524.044-.35-.7-.175-.743-.131-.437-.568-.393-.35-.612-.219-.524-.175-.262-.131-.35-.568-.087-.568.393-.131.481.568.437.219.437.175.524.131.612.175.131-.35-.524-.35-.219-.35.087-.481-.044-.481-.306-.262.164-.546.688-.688.153-.535-.153-.612.841.076.918.306v-.382l.765.229.688.153h.688l.306.382.306.918.229.765-.459.459.153.688.382.688.229.382.382.765.535.765.382.994,1.147.535.918.306.382.918.077.459.382.382.076.765-.612.535-.688.765.153.688.688.535.994.688-.459.765-1.377.535-1.683.382-.459,1.147.369,1.211Z" transform="translate(-493.724 -187.086)" fill="#5751c8" stroke="#eaecff" stroke-width="0.5" fill-rule="evenodd"/></g><g transform="translate(115.629 44.942)"><path d="M454.882,166.287l-.371.142-.535.076-.459-.765.153-1.071.306-1.147.153-1.377v-1.224l-.076-.994.765-.918-.459-1.071-.459-.841-.688-.382-.841-.076-.229.994-.535.382-.765.076-.612.765v.765l-.918.841-.459-.306-.535-.306-.841-.153-.076-.612.076-.841-.918-.765h-1.071l-.306.459.688.765.153.765-.382.076-.918-.153-1.147-.535-.918.306-.382.612.459.765-.229.612.535.688.765.459-.459.688-.33.4-.195.324-.131.35-.131.524.044.568-.524.393-.306.481v.437l.044.568.219.787-.087.787-.306.7-.612.481-.393.743-.35.656-.218.7.437.437.262.393.087.087.087.393.437.306h.35l.262-.131.044-.393.393-.35.219.219.087.612.306.787.1.686.6.232.656-.044.219-.612.437-.087.437.087.524.35.481.219.306-.481.568-.481.481-.524.481-.524.306.044v1.267l.262.568.568.306.524-.219.262-.306.568-.131.524-.175.35-.35.262-.612.087-.568.219-.087.306.743.393.219.262.131.568.044.219-.175h.83l.393-.044.612.262.524-.175-.131-.35-.437-.306-.437-.437.044-.481.481-.393.568-.219.524-.437-.044-.524.044-.35-.7-.175-.743-.131-.437-.568-.393-.35-.612-.219-.524-.175-.262-.131-.35-.568-.087-.568.393-.131.481.568.437.219.437.175.524.131.612.175.131-.35-.524-.35-.219-.35.087-.481-.044-.481Z" transform="translate(-440.066 -156.64)" fill="#5751c8" stroke="#eaecff" stroke-width="0.5" fill-rule="evenodd"/></g><g transform="translate(116.197 61.101)"><path d="M455.611,225.529l-.577-.084-.262-.131-.393-.219-.306-.743-.219.087-.087.568-.262.612-.35.35-.524.175-.568.131-.262.306-.524.219-.568-.306-.262-.568v-1.267l-.306-.044-.481.524-.481.524-.568.481-.306.481-.481-.219-.524-.35-.437-.087-.437.087-.219.612-.656.044-.656-.262-.437.306-.175.524-.262.437-.175.656-.219.83.087.83.262.481.481.481.175.393.131.743-.175.918-.481.743-.524.612-.568.481-.568.612v.656l.175.524.488-.068.518.155.414.518.466.414.414.362.673.518.673.155.777-.518.466-.984.052-.621-.466-.57-.362-.362.259-.984.414-.828.211-.254.393-.372.339-.678.727-.388.824-.63.872-.533.533-.436.63-.291.1-.388.485.048.727.485.678.291,1.066.485.533.145.727-.1.484-.242.353-.276-.262-.656-.306-.787-.044-.612-.524-.656.044-.743v-.568l.044-.35-.175-.306-.262-.306.009-.222Z" transform="translate(-442.448 -224.352)" fill="#5751c8" stroke="#eaecff" stroke-width="0.5" fill-rule="evenodd"/></g><g transform="translate(98.168 51.213)"><path d="M384.928,204.607l.2.508-.486.388-.757-.285-.362.052-.57.207-.932.207-.621-.311-.828-.414-.466.1-.621.518-.362.57-.414.57-.362.207-.621-.259-.155-.414-.57.052-.1.414-.621-.259-.414-.725-.414-.1h-1.45l-.362-.311-.259-.259-.88-.259-.621.155-.518.414-.219.542-.039.338-.362-.259-.414-.57-.518-.466-.362-.362a4.363,4.363,0,0,1-.362-.932,1.531,1.531,0,0,1,.1-.466l-.57-.466-.362-.1-.311-.311.207-.311.259-.207.259-.466-.1-.207-.518-.1-.518-.052-.466-.466v-.621l-.155-.777.207-.518.259-.518.673-.1.414.311.259.259h.725l.466-.1.932-.155v-.518l-.153-.235.393-.393-.044-.524.437-.393.393-.175.219-.437.044-.7.437-.262.481.044.35-.481.262-.787.219-.35h.656l.175-.35-.262-.306v-.306a.61.61,0,0,1,.35-.175c.175,0,.83-.044.83-.044h.481l.087-.437.524-.219.437.262.568.131.7-.437.481-.612.656-.787.7-.524.874-.219.656-.306.393-.175.437-.35.306-.743.131-.656-.306-.7-.481-.437.393-.787.35-.7.568-.481.6-.77,1.1-.027.994.229.785.5-.064.416-.131.524.044.568-.524.393-.306.481v.437l.044.568.219.787-.087.787-.306.7-.612.481-.393.743-.35.656-.219.7.437.437.262.393.087.087.087.393.437.306h.35l.262-.131.044-.393.393-.35.219.219.087.612.306.787-.025.687-.368.275-.175.524-.262.437-.175.656-.219.83.087.83.262.481.481.481.175.393.131.743-.175.918-.481.743-.524.612-.568.481-.568.612Z" transform="translate(-366.899 -182.919)" fill="#5751c8" stroke="#eaecff" stroke-width="0.5" fill-rule="evenodd"/></g><g transform="translate(94.748 43.644)"><path d="M373.017,159.112l.193-.34-.535-.918.459-.841.037-.377-.419-.169h-.7l-.656.175h-.787l-.962.306-.612.087-.437.612-.219.524-.131.481-.306.612v.787l-.219.437-.437-.35-.219-.306h-.393l-.481.087v.306l-.175.262-.393-.175-.393-.262a.471.471,0,0,0-.437,0,2.518,2.518,0,0,0-.219.175l-.306.087h-.7l-.524-.481-.219-.306-.437-.437-.219-.874-.175-.7-.393-.393-.524-.568-.131-.262-.481-.524-.306-.524-.131-.524-.262-.35-.393-.7-.087-.787-.393-.612-.524-.437-.247-.447-.169-.184-.513.051-.616.051-.667.1-.462.359-.462.462-.257.513-.718.257-.051.564-.1.821v.77l.051.564.462.359.257.462-.667.257-.308-.1-.564.462.41.41.154.821-.41.462-.513.41-.1.616.1.77-.051.872-.154.564h.513l.308.308-.257.41-.667.154-.1.564.359.257.616.1.513.1.051.257.513.257.462.308.1.564.154.513.051.667.308.154.41.205.308-.051.257-.257.257-.1.513.257h.359l.257-.257.154-.359.257.051.77-.154.462.154.154.257V167l-.564.77-.462.564-.1.564.513.257.462.257.308.41.462.359.513.051.6.283.548.019.35-.481.262-.787.219-.35h.656l.175-.35-.262-.306v-.306a.61.61,0,0,1,.35-.175c.175,0,.83-.044.83-.044h.481l.087-.437.524-.219.437.262.568.131.7-.437.481-.612.656-.787.7-.524.874-.219.656-.306.393-.175.437-.35.306-.743.131-.656-.306-.7-.481-.437.393-.787.35-.7.568-.481Z" transform="translate(-352.569 -151.203)" fill="#5751c8" stroke="#eaecff" stroke-width="0.5" fill-rule="evenodd"/></g><g transform="translate(100.158 37.763)"><path d="M390.468,137.486l-.459.219h-.7l-.656.175h-.787l-.961.306-.612.087-.437.612-.219.524-.131.481-.306.612v.787l-.219.437-.437-.35-.219-.306h-.393l-.481.087v.306l-.175.262-.393-.175-.393-.262a.471.471,0,0,0-.437,0,2.51,2.51,0,0,0-.219.175l-.306.087h-.7l-.524-.481-.219-.306-.437-.437-.219-.874-.175-.7-.393-.393-.524-.568-.131-.262-.481-.524-.306-.524-.131-.524-.262-.35-.393-.7-.087-.787-.393-.612-.524-.437-.393-.656v-.524l.481-.437.612-.219.393.175.524-.262-.219-.83-.175-.874.131-.437.481-.175.35.262s0,.262.175.262.35-.35.35-.35l.175-.743.175-.306h.656l.437.219-.131.656.131.568.437.437.393.044.437-.306.306-.306.656-.219.044.524-.131.393.743.131.219-.524.437-.568.481-.35.393-.568.175-.7v-.83l.328.175.568.579.535.994.765.459.688.459.535.918h.612l1.071.612,1.071.994.382.841.688,1.453.382,1.071-.535.765-.153,1.147-.841.459Z" transform="translate(-375.237 -126.56)" fill="#5751c8" stroke="#eaecff" stroke-width="0.5" fill-rule="evenodd"/></g><g transform="translate(78.161 30.286)"><path d="M314.225,102.86l-.355-1.389.306-1.3-.076-.994-.841-.765-.153-1.071.459-1.071v-.688l-.812-.284-.555.277-.832-.347-.347.416-.277.624-.416-.208-.555-.763h-.416l-.555.555-.555.971-.347.347-.9.069-.9.069h-.624l-.208-.347.347-.347v-.624l-.486-.069-.347.139-.694.139-.763-.139-.763-.347h-.763l-.971.139V96.2l.416.555.416.971h-.971l-.347-.347h-.624l-.555.139-.486.555h-1.526L296.591,98l-1.04-.624-.277-.416-.763.069-.694.694-.416.139H291.32l-.416.485.277.416.277.624-.416.347-.624.277-.485.555.208.555.347.139-.208.555-.277.694-.486.9-.208.971.208.624.208.555v.624l-.555.347h-.485l-.555.277-.694.416-.416.139-.763-.485-.555-.208-.486-.139-.416.277-.416.694.069,1.11-.486.416-.485.416-.416.555.277.763.347.624.139.763.208.555.624.416.416.069.763.416.485.624v.555l-.069.9-.069.832v.624l.069.9.347.694.208.555-.069.9-.526.328.1.272.616.205.513-.1.564-.359.462.1a.784.784,0,0,1,.616.205c.257.257.77.667.77.667l.359.462.462.462.616.1.513-.41v-.667l-.154-.257-.051-.513a.965.965,0,0,0,.462-.41,6.027,6.027,0,0,0,.205-.821l.359-.667.513-.462.77-.359.77-.205.923.051.462.1h.616l.41.205.359.051.257-.718.513-.308h.308l-.051.77.359.462h.41l.719-.3v-.83l.1-.616.513-.41.41-.462-.154-.821-.41-.41.564-.462.308.1.667-.257-.257-.462-.462-.359-.051-.564v-.77l.1-.821.051-.564.718-.257.257-.513.462-.462.462-.359.667-.1.616-.051.443-.037.093-.564.481-.437.612-.219.393.175.524-.262-.219-.83-.175-.874.131-.437.481-.175.35.262s0,.262.175.262.35-.35.35-.35l.175-.743.175-.306h.656l.437.219-.131.656.131.568.437.437.393.044.437-.306.306-.306.656-.219.044.524-.131.393.743.131.219-.524.437-.568.481-.35.393-.568.175-.7.027-.676Z" transform="translate(-283.067 -95.229)" fill="#5751c8" stroke="#eaecff" stroke-width="0.5" fill-rule="evenodd"/></g><g transform="translate(80.866 13.967)"><path d="M301.976,26.954l.178-.109H304.3l1.759.153h1.3l1.53.153-.153.459-.612.459-1.147.688-.459.459-.459.459.229.841,1.071-.153.688.076-.076.841-.306.918.229,1.147.076,1.224-.841.535.076.841.382.459.229.688.535.229.459-.688.535.229h.765l.688.229.535-.841.688.229.765.382.382.612.306.765.382.459h.688l.841.382.382.382.459-.229.688-.153h.612l.688.076.612-.306.612-.076,1.224.459-.229,1.3-.153,1.071.306.918.459.459.335.251-.555.277-.832-.347-.347.416-.277.624L318.953,44l-.555-.763h-.416l-.555.555-.555.971-.347.347-.9.069-.9.069H314.1l-.208-.347.347-.347v-.624l-.486-.069L313.4,44l-.694.139L311.948,44l-.763-.347h-.763l-.971.139v.347l.416.555.416.971h-.971l-.347-.347h-.624l-.555.139-.485.555h-1.526l-.555-.069-1.04-.624L303.9,44.9l-.763.069-.694.694-.416.139h-2.081l-.542.451-.637-.243h-.555l-.416-.347.9-.763.347-.971-.416-.9-.2-.295.273-.954.416-.971.694-.624V39.35l-.416-.971-1.11-.555-.624-.347-.624-.416-.069-.624.486-.555-.416-.971H296.2l-.555-.208.139-.763-.416-.971-.9-.832-.069-.694.763-.139,1.318-.416L297.8,30.4l1.11-.555.832-.485.9-.9.763-.832.57-.675Z" transform="translate(-294.4 -26.845)" fill="#5751c8" stroke="#eaecff" stroke-width="0.5" fill-rule="evenodd"/></g><g transform="translate(62.348 10.219)"><path d="M242.969,14.995l-.8.869-.6.641-.9.9-.832.485-1.11.555-1.318.485-1.318.416-.763.139.069.694.9.832.416.971-.139.763.555.208h.832l.416.971-.485.555.069.624.624.416.624.347,1.11.555.416.971v.832l-.694.624-.416.971-.312.9-.451-.416h-.277l-.347.416.277.555-.139.416-.347.277h-.208l-.277-.763-.208-.347-.624.277-.347.208-.485-.139-.277-.624-.624-.624-.485-.347h-2.219l-.485.139-.9.069h-2.913l-.832.485-.208.624-.832.208-.347.277v.555l-.208.763-.416.416-.208.416-.416.277-.139.485.069.624.208.555-.139.624-.624.347-.971.139-.555.347-.832.069h-.9l-.832-.069-.971-.416-.694-.624-.694-.277-.208-.416-.416-.763,1.361-.778,1.693-.77,1.693-1.077,1.539-1.077,1.077-2.155.923-1.539,1.077-1.693,1.231-2,.462-1.693,1.077-2.309.462-1.231-.154-2.155,1.231-1.077,1.693-.308h3.386l.462-1.385,1.385-1.385.93-.693.076.535-.076.688-.076.918.153.841h.841l1.453.459,1.377.229.887.182Z" transform="translate(-216.805 -11.141)" fill="#5751c8" stroke="#eaecff" stroke-width="0.5" fill-rule="evenodd"/></g><g transform="translate(50.803 28.691)"><path d="M198.943,115.393l.517-.285.069-.9-.208-.555-.347-.694-.069-.9v-.624l.069-.832.069-.9v-.555l-.485-.624-.763-.416-.416-.069-.624-.416-.208-.555-.139-.763-.347-.624-.277-.763.416-.555.485-.416.486-.416-.069-1.11.416-.694.416-.277.485.139.555.208.763.485.416-.139.694-.416.555-.277h.485l.555-.347v-.624l-.208-.555-.208-.624.208-.971.485-.9.277-.694.208-.555-.347-.139-.208-.555.485-.555.624-.277.416-.347-.277-.624-.347-.485-.694-.208H202.3l-.416-.347.9-.763.347-.971-.416-.9-.347-.347-.347-.416h-.277l-.347.416.277.555-.139.416-.347.277h-.208l-.277-.763-.208-.347-.624.277-.347.208-.486-.139-.277-.624-.624-.624-.485-.347h-2.219l-.486.139-.9.069h-2.913l-.832.485-.208.624-.832.208-.347.277V90.9l-.208.763-.416.416-.208.416-.416.277-.139.486.069.624.208.555-.139.624-.624.347-.971.139-.555.347-.832.069h-.9l-.832-.069-.971-.416-.694-.624-.694-.277-.208-.416-.416-.763-.794.453-1.385.462-1.077.616-1.231,1.847-.923,1.385v.923l-.154,1.385-.462.923-1.231.616-2,.923-.616,1.847-.462,2.155-.812.837-.4.281.314.314.439.376.627-.063.627-.376.941.063.376.564.314.251.439.439-.063.815-.125.878-.376.627.5.376.5.188.376.627.815.188.815-.627.439.251-.063.69-.627.69-.5.627-.376.752-.487.473.207.155.466.57.414-.1.155-.362.155-.466h.311l.518.052.259-.259.362-.621.466-.259.362-.362.518-.052h.466l.466-.259.88-.1.932.052.621.414.414.673.57-.052.155-.466.725-.259.207.518-.414.57.052.466.518.673.518.621.673-.1.57.362.828.1.725-.259.828.052-.1.414.1.673.023.742.616.1.41-.051h.616l.462.359.051.564.564.564.1.462.308.359.257-.462v-.872l.154-.462.616-.41.616-.257.667-.359.1-.564.513-.359-.051-.718v-.872l-.051-.41.205-.359.667.051.513.1.257-.41-.051-.462.257-.205.308.308.462.205.41.359h.41l.462.1.359.308a.5.5,0,0,0,.41,0l.513-.257.257-.308.27.044Z" transform="translate(-168.426 -88.544)" fill="#5751c8" stroke="#eaecff" stroke-width="0.5" fill-rule="evenodd"/></g><g transform="translate(49.298 54.156)"><path d="M194.368,216l-.155-.673-.777-.621-.777-.725-.673-.311-.362-.621-.414-.984-.362-1.346-.052-.932-.466-1.036-.673-.725-.777-.725-1.139-.052h-.932l-1.4-.052-1.346-.57-1.087-.57-.207-.673.052-.984-.207-.932-.207-1.294v-.828l.052-.725V199.8l-.1-.673.1-.414-.828-.052-.725.259-.828-.1-.57-.362-.673.1-.518-.621-.518-.673-.052-.466.414-.57-.207-.518-.725.259-.155.466-.57.052-.414-.673-.621-.414-.932-.052-.88.1-.466.259h-.466l-.518.052-.362.362-.466.259-.362.621-.259.259-.518-.052h-.311l-.155.466-.155.362-.414.1-.466-.57-.207-.155-.14-.347-.251-.5s-.564.125-.815-.063.063-.69.063-.69l-.125-.564-.627.125-.439.251-.878.376-.815.125-.314.752h-.5l-.564.063-.314.564.188.941-.188,1.066-.314.5-.376.376.314.69.627.314.941.188.439.439.376,1.066.376.188h.752l.439.752-.439.314.188.878.251.752.627.941.063.815-.564.5-.314.376.314.69-.125.5-.251.439.188.564.314.5.314.815-.627.439-.125.69.063,1,.314.564.34.522.456.129.43.688.516.774.946.43.86-.086.688-.43.6.344h.516l-.086-.516.43-.6h1.29l.774.258.774.6.43.6.172.6.086.86.086.946.258.6-.6.258-.774.172-.086.344.86.344,1.032.516.688.258.516.6.3.51.085.333.725-.207.673-.414.57-.518.57-.518.518-.311.155-.725.207-.466.621.311.362.311h.828l.052-.725.1-.57.466.1.466.518.414.414h.57l.518-.259h.57l.466.414.621.518.673-.052.57-.621.414-.57.311-.414.621.259.052.621.311.777.362.155.207-.362.518-.1.621.362.466-.052.259-.621-.1-.362-.207-.725.207-.57.311-.777.259-.673.1-.777.1-.725.673-.518Z" transform="translate(-162.12 -195.25)" fill="#5751c8" stroke="#eaecff" stroke-width="0.5" fill-rule="evenodd"/></g><g transform="translate(65.34 73.823)"><path d="M229.4,286.53l.164.71.546.656.437.874.983.819.71.6.328.874v.929l-.219,1.038-.382.546-.71.382h-.765l.109.382.6.546.164.765-.164.765-.273.328-.437.437.219.273.492.219.273.6.437-.109.437-.328.546-.328.382.382.219.656-.164.656-.546.71-.983.765-.437.874.437.273.765.273,1.093.492.492.656.055.6.6-.109.273-.71.273-.819.819-.382h.546l.219-.382-.055-.765V299.8l.328-.6.164-.437h.546l.164.219.055.437.055.656-.055.765.055.765.6-.6.6-.328.546-.382.6-.546-.109-.546.382-.765.6-.437.437-.437.273-1.093.71-.328.328-.71.219-.6.6-.656.109-1.093.546-.874.437-.71.437-.546.71.328.656.273.328-.164.109-.382.055-.546.328-.656h.71l.164-.437-.219-.328-.382-.164-.055-.546.6-.382.73.008.126-.665.052-.466.466-.88.362-.311.311-.259.466-.466v-.88l.1-.777.828-.207h.518l.259-.414.311-.725.414-.777-.466-.1-.725.311-.673-.052-.052-.414.466-.311.362-.466-.311-.466-.207-.518-.1-.673-.362-.311-.362.1-.518.362-.362.362-.414-.311-.57-.984-.259.207.052.621-.466.621-.207.155-.518-.362-.725-.155h-1.553l-.621.518-.1.725-.1.777-.259.673-.311.777-.207.57.207.725.1.362-.259.621-.466.052-.621-.362-.518.1-.207.362-.362-.155-.311-.777-.052-.621-.621-.259-.311.414-.414.57-.57.621-.673.052-.621-.518-.466-.414h-.57l-.518.259h-.57l-.414-.414-.466-.518-.466-.1-.1.57-.052.725h-.828l-.362-.311-.621-.311-.207.466-.155.725-.518.311-.57.518-.57.518-.673.414-.725.207" transform="translate(-229.339 -277.662)" fill="#5751c8" stroke="#eaecff" stroke-width="0.5" fill-rule="evenodd"/></g><g transform="translate(74.197 81.981)"><path d="M278.421,335.2l-.328-.3-.983-.546-.929-.437-.819-.437-.71-.437H274.1l-.6.328-.437.164h-.382l-.382.6-.109.219-.437.109-.6-.219-.382-.109h-.492l-.437.328-.492.055-.492-.492-.546-.874-.437-.819-.328-.765-.492-.656-.328-.765-.218-.492-.055-1.093v-.847l.6-.683.6-.328.546-.382.6-.546-.109-.546.382-.765.6-.437.437-.437.273-1.093.71-.328.328-.71.219-.6.6-.656.109-1.093.546-.874.437-.71.437-.546.71.328.656.273.328-.164.109-.382.055-.546.328-.656h.71l.164-.437-.219-.328-.382-.164-.055-.546.6-.382h.656l.546.219.492-.055.328-.273.328-.437.437-.328.164.273.546-.109v-.492l.164-.6.546-.328.382.328-.109.437-.328.71-.437.71-.656.273a4.108,4.108,0,0,1-.765.437,1.167,1.167,0,0,0-.437.273v.492l-.109.656-.328.219-.765.219-.546.273v.71l.219.437.164.273-.109.328-.492.382v.492l.219.6v.328l-.219.382-.437.219-.273.273.219.273.055.492-.109.328-.492.273-.109.492.219.273v.6l.109.656.109.382.328.055.382.219v.6l-.437.273.055.492.328.328.6.164.273.382.109.437.492.328.6.328.437.055.437-.027.492.41-.492.6-.164.6v.874l-.382.437.382.382v.6l-.219,1.038-.382.929-.382.628Z" transform="translate(-266.457 -311.844)" fill="#5751c8" stroke="#eaecff" stroke-width="0.5" fill-rule="evenodd"/></g><g transform="translate(83.266 83.44)"><path d="M308.5,333.351l-.437.027-.437-.055-.6-.328-.492-.328-.109-.437-.273-.382-.6-.164-.328-.328-.055-.492.437-.273v-.6l-.382-.219-.328-.055-.109-.382-.109-.656v-.6l-.219-.273.109-.492.492-.273.109-.328-.055-.492-.219-.273.273-.273.437-.219.219-.382v-.328l-.219-.6v-.492l.492-.382.109-.328-.164-.273-.219-.437v-.71l.546-.273.765-.219.328-.219.109-.656v-.492a1.167,1.167,0,0,1,.437-.273,4.109,4.109,0,0,0,.765-.437l.656-.273.251-.4h.705l.988.047.423.141.564.235h.658l.517-.141.47-.094.564.047h.517l.47-.282.658-.282.282.282.282.376.376.611.329.188.517.141.376.047.705.282h.752l.658.188.564.188.141.423-.094.705.611.423h.423l.658.188.235.329.47.235.47-.047.564-.094h.282l.329-.282.423-.141.611-.188.732.005.162.23.235.376v1.552l-.329.8-.47.752-.423.752-.47.8-.847.47.188.423.423.376.517.282.658.658.47-.047.705.423.141.376v.8l.094.705-.235.847-.47.376.188.517.423.47.141.47-.376.047-.564.141h-1.035l-.141-.282-.329-.47-.086-.133-.535-.382-1.049.066v-.437l-.055-.328-.164-.71-.656-.273-.71-.218-.437.328-.437.382-.437-.055-.71-.328-.656-.055-.492-.437-.492-.546-.6-.218-.546.328-.219.492h-.546l-.382-.492.492-.273-.164-.492h-.6l-.492.055-.437.382-.437.492-.71.164-.656-.055-.656-.492-.492-.437-.492.109-.492.382-.437-.164-.492-.273-.656.437-.219.656-.055.765-.71.273-.328.492.164.683Z" transform="translate(-304.457 -317.957)" fill="#5751c8" stroke="#eaecff" stroke-width="0.5" fill-rule="evenodd"/></g><g transform="translate(103.585 84.804)"><path d="M395.572,339.215l.47-.306.376-.752.282-.847-.094-1.223.376-.8.564-.658.988-.094h.8l.988-.517.847-.752.705-.894.376-.847.235-.894.705-.235.847-.611.282-.847.188-.705.094-.611-.847-.658-1.035-.329-.564-.423-.141-.47-.282.047-.752-.282-.658-.611-.329-.564-.47-.376H399.1l-.47.423h-.376l-.329-.235-.564-.47-.188.376v.752l.047.753-.705.329-.517.329-.47.564-.753.47-.611-.329-.611-.47-.235-.564-.611-.188-.658.141-.376.282.235.282.235.376v1.552l-.329.8-.47.752-.423.752-.47.8-.847.47.188.423.423.376.517.282.658.658.47-.047.705.423.141.376v.8l.094.705-.235.846-.47.376.188.517.423.47.212.447.823.071.658.282h.658l.517.306Z" transform="translate(-389.6 -323.672)" fill="#5751c8" stroke="#eaecff" stroke-width="0.5" fill-rule="evenodd"/></g><g transform="translate(101.637 73.098)"><path d="M395.755,275.378l-.8-.339-.362.052-.57.207-.932.207-.621-.311-.828-.414-.466.1-.621.518-.362.57-.414.57-.362.207-.621-.259-.155-.414-.57.052-.1.414-.621-.259-.414-.725-.414-.1h-1.45l-.362-.311-.259-.259-.88-.259-.621.155-.518.414-.311.725-.155.673-.052.828-.311.57.1.673-.259.828.052.673.259.518.052.57.259.88.414.259h.466l.362-.207.362-.311.621.052-.052.57.052.57.155.673.155.414-.155.362-.518.1-.621.414-.362.725v.518l.777.673.414.57.1.57.1.828.459-.094h.705l.329-.329.658-.141.611.188.235.564.611.47.611.329.752-.47.47-.564.517-.329.705-.329-.047-.752v-.753l.188-.376.564.47.329.235h.376l.47-.423h.423l.47.376.329.564.658.611.752.282.282-.047-.141-.376.517-.329h.47l.531-.02-.207-.311-.311-.57.1-.88.1-.621.311-.466.207-.725-.259-.518-.362-.052-.362.311-.362.207-.311.362-.673-.155-.1-.621.1-.828-.155-.414-.466-.311-.673-.155-.207-.414v-.777l.155-.518.828-.1.777-.207.57-.311.1-.466v-.777l.052-.777-.1-.466.052-.518.362-.362-.207-.621-.387-.23Z" transform="translate(-381.436 -274.624)" fill="#5751c8" stroke="#eaecff" stroke-width="0.5" fill-rule="evenodd"/></g><g transform="translate(85.369 64.4)"><path d="M332.285,261.258l.152-.095-.1-.828-.1-.57-.414-.57-.777-.673v-.518l.362-.725.621-.414.518-.1.155-.362-.155-.414-.155-.673-.052-.57.052-.57-.621-.052-.362.311-.362.207h-.466l-.414-.259-.259-.88-.052-.57-.259-.518-.052-.673.259-.828-.1-.673.311-.57.052-.828.16-.46-.316-.317-.414-.57-.518-.466-.362-.362a4.362,4.362,0,0,1-.362-.932,1.531,1.531,0,0,1,.1-.466l-.57-.466-.362-.1-.311-.311.207-.311.259-.207.259-.466-.1-.207-.518-.1-.518-.052-.466-.466v-.621l-.155-.777.207-.518.259-.518.673-.1.414.311.259.259h.725l.466-.1.932-.155v-.518l-.466-.518-.414-.311-.673-.1-.57-.725h-1.087l-.621.259-.518.259-.673.1-.414.518-.311.57-.155.932-.57.777-.57.57-.466.052-1.036.259v.362l.362.414.518.207.311.207-.155.414-.207.518-.621.362-.155.725-.518.052-.414-.311-.362-.311-.777.155-.052.518-.311.518-.466.311-.466.311-.518.311-.57.362-.777.414-.616.444.1.591.207.518.311.466-.362.466-.466.311.052.414.673.052.725-.311.466.1-.414.777-.311.725-.259.414h-.518l-.828.207-.1.777v.88l-.466.466-.311.259-.362.311-.466.88-.052.466-.009.714.355.162.492-.055.328-.273.328-.437.437-.328.164.273.546-.109v-.492l.164-.6.546-.328.382.328-.109.437-.328.71-.186.313h.705l.988.047.423.141.564.235h.658l.517-.141.47-.094.564.047h.517l.47-.282.658-.282.282.282.282.376.376.611.329.188.517.141.376.047.705.282h.752l.658.188.564.188.141.423-.094.705.611.423h.423l.658.188.235.329.47.235.47-.047.564-.094h.282l.329-.282Z" transform="translate(-313.27 -238.174)" fill="#5751c8" stroke="#eaecff" stroke-width="0.5" fill-rule="evenodd"/></g><g transform="translate(69.585 52.212)"><path d="M265.306,209.519l-.362-.337-.362.1-.518.362-.362.362-.414-.311-.57-.984-.259.207.052.621-.466.621-.207.155-.518-.362-.725-.155h-1.45l-.207-.673-.777-.621-.777-.725-.673-.311-.362-.621-.414-.984-.362-1.346-.052-.932-.466-1.036-.673-.725-.777-.725-1.139-.052h-.932l-1.4-.052-1.346-.57-1.087-.57-.207-.673.052-.984-.207-.932-.207-1.294v-.828l.052-.454.023-.357.616.1.41-.051h.616l.462.359.051.564.564.564.1.462.308.359.257-.462v-.872l.154-.462.616-.41.616-.257.667-.359.1-.564.513-.359-.051-.718v-.872l-.051-.41.205-.359.667.051.513.1.257-.41-.051-.462.257-.205.308.308.462.205.41.359h.41l.462.1.359.308a.5.5,0,0,0,.41,0l.513-.257.257-.308.308.051.051.308.616.205.513-.1.564-.359.462.1a.783.783,0,0,1,.616.205c.257.257.77.667.77.667l.359.462.462.462.616.1.513-.41v-.667l-.154-.257-.051-.513a.965.965,0,0,0,.462-.41,6.02,6.02,0,0,0,.205-.821l.359-.667.513-.462.77-.359.77-.205.923.051.462.1h.616l.41.205.359.051.257-.718.513-.308h.308l-.051.77.359.462h.41l.77-.359v.872l-.154.564h.513l.308.308-.257.41-.667.154-.1.564.359.257.616.1.513.1.051.257.513.257.462.308.1.564.154.513.051.667.308.154.41.205.308-.051.257-.257.257-.1.513.257h.359l.257-.257.154-.359.257.051.77-.154.462.154.154.257v.564l-.564.77-.462.564-.1.564.513.257.462.257.308.41.462.359.513.051.616.308-.386.213-.044.7-.219.437-.393.175-.437.393.044.524-.393.393-.313-.283-.414-.311-.673-.1-.57-.725h-1.087l-.621.259-.518.259-.673.1-.414.518-.311.57-.155.932-.57.777-.57.57-.466.052-1.036.259v.362l.362.414.518.207.311.207-.155.414-.207.518-.621.362-.155.725-.518.052-.414-.311-.362-.311-.777.155-.052.518-.311.518-.466.311-.466.311-.518.311-.57.362-.777.414-.621.388Z" transform="translate(-247.131 -187.105)" fill="#5751c8" stroke="#eaecff" stroke-width="0.5" fill-rule="evenodd"/></g><g transform="translate(22.99 13.988)"><path d="M67.359,298.726l.774-.43,1.118-.344.6-.688.086-1.118.774-.516.258-.516-.258-.258.086-.6h.516l.172-.6,1.118-.688.86-.172.6.258.344.258.172-.6.86.172.86.43.344-.516.344-.6.6-.086h.6l.172-.774.258-.946.43-.688.344-.6.516-.172.172-.43-.172-.774.344-.6.688-.344.258-.43v-.6l.946-.43.688.516.344.258.946.43.516.6.946.086.774-.086.172-.258.172-.6h.6l.774.258.258-.516s-.172-.6.344-.6a1.542,1.542,0,0,0,.946-.43l.344-.86.43-.516.516-.086.6-.258.172-.516.43-.516.688-.688.172-.86v-.43l.774-.172h.6l-.516-.774-.516-.6-.688-.258-1.032-.516-.86-.344.086-.344.774-.172.6-.258-.258-.6-.086-.946-.086-.86-.172-.6-.43-.6-.774-.6-.774-.258h-1.29l-.43.6.086.516h-.516l-.6-.344-.688.43-.86.086-.946-.43-.516-.774-.43-.688-.43-.172-.688.086v.344l-.688.086-.6.258v.258L80,272.674l-.516-.774-.344-.43-.43.43-.688.172-.688-.6-.6-.344h-.688l-.172-1.032-.43-.688h-.6l-.516.43-.258.258-.344-.258-.344-.688-.43.258-.43.43-.258.43H70.885l-.86-.172-.258.6-.516.6-.258.43-.6.516-.86.172-.946.43-.774.344-.43.258.516.516.6.344.688.258V275l-.688.516-.086.516v.688l-.43.516-.6-.86-.6-1.032-.774-.086h-.688l-.43-.172-.172-.774-.6-.43-.516.086-.688.344-.86.344h-1.72l-.258-.6-.516.086-.258.43-.43.43-.688-.43-.86.258-.344.344-.688-.344-.86-.516h-.6l-.946-.258" transform="translate(-51.883 -211.344)" fill="none" stroke="#eaecff" stroke-width="0.5"/><path d="M166.885,196.375l-.314-.564-.314-.564-.063-1,.125-.69.627-.439-.314-.815-.314-.5-.188-.564.251-.439.125-.5-.314-.69.314-.376.564-.5-.063-.815-.627-.941-.251-.752-.188-.878.439-.314-.439-.752h-.752l-.376-.188-.376-1.066-.439-.439-.941-.188-.627-.314-.314-.69.376-.376.314-.5.188-1.066-.188-.941.314-.564.564-.063h.5l.314-.752.815-.125.878-.376.439-.251.627-.125.125.564s-.314.5-.063.69.815.063.815.063l.251.5.063.314.564-.439.376-.752.5-.627.627-.69.063-.69-.439-.251-.815.627-.815-.188-.376-.627-.5-.188-.5-.376.376-.627.125-.878.063-.815-.439-.439-.314-.251-.376-.564-.941-.063-.627.376-.627.063-.439-.376-.314-.314" transform="translate(-135.812 -136.077)" fill="none" stroke="#eaecff" stroke-width="0.5"/><path d="M184.963,336.563l.437-.437.6-.546.656-.656.656-.546.164-.71.328-.819.437-.6h.874l.546-.164.219-.983.546-.983.328-.6.983-.437.328-.765.819-.765.328-1.147.929-.71.219-1.2.874-.656.765-.164.6.164.6.492.273.382.109-.765-.164-.765-.6-.546-.109-.382h.765l.71-.382.382-.546.219-1.038v-.929l-.328-.874-.71-.6-.983-.819-.437-.874-.546-.656-.164-.71" transform="translate(-153.204 -246.116)" fill="none" stroke="#eaecff" stroke-width="0.5"/><path d="M225.481,373.079l.164-.656.546-.819.492-.656.929-.382.6-.437.328-.109-.328-.6.273-.929.437-.983.382-1.093.765-1.038.546-.874.656-.71-.055-.71-.492-.656-1.093-.492-.765-.273-.437-.273.437-.874.983-.765.546-.71.164-.656-.219-.656-.382-.382-.546.328-.437.328-.437.109-.273-.6-.492-.219-.219-.273.437-.437.273-.328" transform="translate(-184.052 -277.662)" fill="none" stroke="#eaecff" stroke-width="0.5"/><path d="M302.855,472.405l.273-.437.6-.382.328-.6.382-.6v-.819l.109-1.147,1.256-.6.546-.6.874-.437.819-.437.874-.219.656-.218.546.164.765.328.929-.164h.874l1.147.382.492.109.382.164.164.819-.109.6v.546" transform="translate(-242.961 -361.145)" fill="none" stroke="#eaecff" stroke-width="0.5"/><path d="M280.336,459.379l-.546-.382-.6-.656-.765.109-.437.109-.382-.109-.273-.055-.328-.164-.219-.546-.546-.273-.546.164-.328.328-.656-.164-1.147-.219-1.2.219-.819.328-1.038.273-1.2-.328-1.147-.328-1.147-.055-1.147-.382-.546-.273" transform="translate(-214.378 -354.347)" fill="none" stroke="#eaecff" stroke-width="0.5"/><path d="M270.67,390.352l-.055-.874.055-1.038.055-.656.492-.6.055-.929-.328-.929-.328-.6h-.6l-.382-.164-.273-.382-.164-.983-.273-.6-.437-.546-.6-.382.055-.765-.273-.874-.382-.437-.6-.164-.382-.273v-.328l.437-.328-.109-.656-.437-.765-.437-.546-.382-.328-.983-.546-.929-.437-.819-.437-.71-.437h-.546l-.6.328-.437.164h-.382l-.382.6-.109.219-.437.109-.6-.219-.382-.109h-.492l-.437.328-.492.055-.492-.492-.546-.874-.437-.819-.328-.765-.492-.656-.328-.765-.219-.492-.055-1.093V369.1l-.055-.929.055-.765-.055-.656-.055-.437-.164-.219h-.546l-.164.437-.328.6v.874l.055.765-.219.382h-.546l-.819.382-.273.819-.273.71-.6.109" transform="translate(-202.527 -285.156)" fill="none" stroke="#eaecff" stroke-width="0.5"/><path d="M316.361,377.871l.437-.6.382-.929.219-1.038v-.6l-.382-.382.382-.437v-.874l.164-.6.492-.6-.437-.437-.219-.656.328-.492.71-.273.055-.765.219-.656.656-.437.492.273.437.164.492-.382.492-.109.492.437.656.492.656.055.71-.164.437-.492.437-.382.492-.055h.6l.164.492-.492.273.382.492h.546l.219-.492.546-.328.6.219.492.546.492.437.656.055.71.328.437.055.437-.382.437-.328.71.219.656.273.164.71.055.328v.437" transform="translate(-253.244 -286.551)" fill="none" stroke="#eaecff" stroke-width="0.5"/><path d="M279.514,328.725h-.382l-.437-.055-.6-.328-.492-.328-.109-.437-.273-.382-.6-.164-.328-.328-.055-.492.437-.273v-.6l-.382-.219-.328-.055-.109-.382-.109-.656v-.6l-.219-.273.109-.492.492-.273.109-.328-.055-.492-.219-.273.273-.273.437-.219.219-.382v-.328l-.219-.6V319l.492-.382.109-.328-.164-.273-.219-.437v-.71l.546-.273.765-.219.328-.219.109-.656v-.492a1.166,1.166,0,0,1,.437-.273,4.109,4.109,0,0,0,.765-.437l.656-.273.437-.71.328-.71.109-.437-.382-.328-.546.328-.164.6v.492l-.546.109-.164-.273-.437.328-.328.437-.328.273-.492.055-.546-.219h-.656l-.6.382.055.546.382.164.218.328-.164.437h-.71l-.328.656-.055.546-.109.382-.328.164-.656-.273-.71-.328-.437.546-.437.71-.546.874-.109,1.093-.6.656-.219.6-.328.71-.71.328-.273,1.093-.437.437-.6.437-.382.765.109.546-.6.546-.546.382-.6.328-.6.6" transform="translate(-215.25 -243.851)" fill="none" stroke="#eaecff" stroke-width="0.5"/><path d="M444.051,408.605l-.611-.282-1.129-.564-1.223-.517H439.3l-.8-.423-.282-.658.235-.8V404.7l-.47-.988-.423-.658-.329-.658-.188-.517-.517-.564-.658.376-.282.611-.282.376-.376-.376-.376-.517-.564.047-.094.941-.47.611-.423.188h-.705l-.611-.141-.517-.376h-.705l-.376.611.141.752-.423.282" transform="translate(-339.612 -311.97)" fill="none" stroke="#eaecff" stroke-width="0.5"/><path d="M448.585,363.1l.329-.47.329-.423.188-.47-.517-.564-.8-.094h-.752l-.47-.376-.564-.988-.423-.658-.141-.658.235-1.082.611-1.129.282-1.364.282-.752.329-.752.047-.517.705-.188,1.035-.188.705-.047.941-.376.658-.423.611-.517" transform="translate(-351.765 -273.711)" fill="none" stroke="#eaecff" stroke-width="0.5"/><path d="M399.722,388.291v-.658l-.188-.423-.188-.611-.517-.235-.517-.423v-.564l-.188-.47-.517-.235h-.658l-.658-.282-.752-.094-.517.094-.564.141H393.42l-.141-.282-.329-.47" transform="translate(-311.555 -298.617)" fill="none" stroke="#eaecff" stroke-width="0.5"/><path d="M414.627,342.437l.47-.376.376-.752.282-.847-.094-1.223.376-.8.564-.658.988-.094h.8l.988-.517.847-.752.705-.894.376-.847.235-.894.705-.235.847-.611.282-.847.188-.705.094-.611-.847-.658-1.035-.329-.564-.423-.282-.847.517-.329h.47l.752-.047.329-.329.564.188.611.517.705.423.941.188.705-.094h1.129" transform="translate(-328.059 -256.007)" fill="none" stroke="#eaecff" stroke-width="0.5"/><path d="M392.844,338.58l-.141-.47-.423-.47-.188-.517.47-.376.235-.847-.094-.705v-.8l-.141-.376-.705-.423-.47.047-.658-.658-.517-.282-.423-.376-.188-.423.847-.47.47-.8.423-.752.47-.752.329-.8v-1.552l-.235-.376-.235-.282.376-.282.658-.141.611.188.235.564.611.47.611.329.752-.47.47-.564.517-.329.705-.329-.047-.752v-.752l.188-.376.564.47.329.235h.376l.47-.423h.423l.47.376.329.564.658.611.753.282.282-.047" transform="translate(-309.004 -252.856)" fill="none" stroke="#eaecff" stroke-width="0.5"/><path d="M343.554,321.813h-.705l-.611.188-.423.141-.329.282H341.2l-.564.094-.47.047-.47-.235-.235-.329-.658-.188h-.423l-.611-.423.094-.705-.141-.423-.564-.188-.658-.188h-.753l-.705-.282-.376-.047-.517-.141-.329-.188-.376-.611-.282-.376-.282-.282-.658.282-.47.282h-.517l-.564-.047-.47.094-.517.141h-.658l-.564-.235-.423-.141-.988-.047h-.705" transform="translate(-260.842 -248.505)" fill="none" stroke="#eaecff" stroke-width="0.5"/><path d="M518.342,268.628V268l-.291-.63-.824-.388-.63-.242-.63-.291-.049-.775.1-.921.533-.485.581-.048h.581l.581-.242.145-.63-.436-.775.242-.533.678-.048.824.048" transform="translate(-405.178 -205.894)" fill="none" stroke="#eaecff" stroke-width="0.5"/><path d="M470.988,262.547l-.485-.678-.485-.581-.533-.339-.872-.194-.485-.1-1.066-.1-.678-.194-.436-.194.048-1.018.485-.63.872-.969.969-.727.775-.921.727-1.114.63-.63.533-.775.339-.678.242-.921v-.436l-.63-.1-.581.145-.63.242-.678.291-.485.581-.388.581-.581.436-.872-.145L466,253.2l-.581-.291-1.018-.291-.581-.533-.485-.581.581-.581.339-.678.727-.388.824-.63.872-.533.533-.436.63-.291.1-.388.485.048.727.485.678.291,1.066.485.533.145.727-.1.485-.242.63-.339h.872l.678.485.291.388.436-.1.581-.145.242.339h.388l.824-.194.291-.194.242.533-.291.63.145.678.291.339" transform="translate(-365.141 -194.919)" fill="none" stroke="#eaecff" stroke-width="0.5"/><path d="M229.339,286.62l.725-.207.673-.414.57-.518.57-.518.518-.311.155-.725.207-.466.621.311.362.311h.828l.052-.725.1-.57.466.1.466.518.414.414h.57l.518-.259h.57l.466.414.621.518.673-.052.57-.621.414-.57.311-.414.621.259.052.621.311.777.362.155.207-.362.518-.1.621.362.466-.052.259-.621-.1-.362-.207-.725.207-.57.311-.777.259-.673.1-.777.1-.725.621-.518h1.553l.725.155.518.362.207-.155.466-.621-.052-.621.259-.207.57.984.414.311.362-.362.518-.362.362-.1.362.311.1.673.207.518.311.466-.362.466-.466.311.052.414.673.052.725-.311.466.1-.414.777-.311.725-.259.414h-.518l-.828.207-.1.777v.88l-.466.466-.311.259-.362.311-.466.88-.052.466-.052.673" transform="translate(-186.99 -217.826)" fill="none" stroke="#eaecff" stroke-width="0.5"/><path d="M214.872,216.306l-.207-.673-.777-.621-.777-.725-.673-.311-.362-.621-.414-.984-.362-1.346-.052-.932-.466-1.036-.673-.725-.777-.725-1.139-.052h-.932l-1.4-.052-1.346-.57-1.087-.57-.207-.673.052-.984-.207-.932-.207-1.294v-.828l.052-.725V200.1l-.1-.673.1-.414-.828-.052-.725.259-.828-.1-.57-.362-.673.1-.518-.621-.518-.673-.052-.466.414-.57-.207-.518-.725.259-.155.466-.57.052-.414-.673-.621-.414-.932-.052-.88.1-.466.259h-.466l-.518.052-.362.362-.466.259-.362.621-.259.259-.518-.052h-.311l-.155.466-.155.362-.414.1-.466-.57-.207-.155" transform="translate(-156.264 -155.383)" fill="none" stroke="#eaecff" stroke-width="0.5"/><path d="M435.833,279.743l-.207-.311-.311-.57.1-.88.1-.621.311-.466.207-.725-.259-.518-.362-.052-.362.311-.362.207-.311.362-.673-.155-.1-.621.1-.828-.155-.414-.466-.311-.673-.155-.207-.414V272.8l.155-.518.828-.1.777-.207.57-.311.1-.466v-.777l.052-.777-.1-.466.052-.518L435,268.3l-.207-.621-.57-.311.621-.362.466-.052.518.155.414.518.466.414.414.362.673.518.673.155.777-.518.466-.984.052-.621-.466-.57-.362-.362.259-.984.414-.828" transform="translate(-341.444 -207.584)" fill="none" stroke="#eaecff" stroke-width="0.5"/><path d="M384.336,288.916l-.1-.828-.1-.57-.414-.57-.777-.673v-.518l.362-.725.621-.414.518-.1.155-.362-.155-.414-.155-.673-.052-.57.052-.57-.621-.052-.362.311-.362.207h-.466l-.414-.259-.259-.88-.052-.57-.259-.518-.052-.673.259-.828-.1-.673.311-.57.052-.828.155-.673.311-.725.518-.414.621-.155.88.259.259.259.362.311h1.45l.414.1.414.725.621.259.1-.414.57-.052.155.414.621.259.362-.207.414-.57.362-.57.621-.518.466-.1.828.414.621.311.932-.207.57-.207.362-.052.725.311" transform="translate(-302.789 -215.514)" fill="none" stroke="#eaecff" stroke-width="0.5"/><path d="M323.288,248.426l.621-.414.777-.414.57-.362.518-.311.466-.311.466-.311.311-.518.052-.518.777-.155.362.311.414.311.518-.052.155-.725.621-.362.207-.518.155-.414-.311-.207-.518-.207-.362-.414v-.362l1.036-.259.466-.052.57-.57.57-.777.155-.932.311-.57.414-.518.673-.1.518-.259.621-.259h1.087l.57.725.673.1.414.311.466.518v.518l-.932.155-.466.1h-.725l-.259-.259-.414-.311-.673.1-.259.518-.207.518.155.777v.621l.466.466.518.052.518.1.1.207-.259.466-.259.207-.207.311.311.311.362.1.57.466a1.531,1.531,0,0,0-.1.466,4.362,4.362,0,0,0,.362.932l.362.362.518.466.414.57.362.259" transform="translate(-258.518 -187.762)" fill="none" stroke="#eaecff" stroke-width="0.5"/><path d="M496.127,209.959l-.262-.656-.306-.787-.044-.612-.524-.656.044-.743v-.568l.044-.35-.175-.306-.262-.306v-.219l.219-.219h.83l.393-.044.612.262.524-.175-.131-.35-.437-.306-.437-.437.044-.481.481-.393.568-.219.524-.437-.044-.524.044-.35-.7-.175-.743-.131-.437-.568-.393-.35-.612-.219-.524-.175-.262-.131-.35-.568-.087-.568.393-.131.481.568.437.219.437.175.524.131.612.175.131-.35-.524-.35-.219-.35.087-.481-.044-.481-.306-.262" transform="translate(-388.28 -156.464)" fill="none" stroke="#eaecff" stroke-width="0.5"/><path d="M442.622,236.677l-.175-.524V235.5l.568-.612.568-.481.524-.612.481-.743.175-.918-.131-.743-.175-.393-.481-.481-.262-.481-.087-.83.219-.83.175-.656.262-.437.175-.524.437-.306.656.262.656-.044.219-.612.437-.087.437.087.524.35.481.219.306-.481.568-.481.481-.524.481-.524.306.044v1.267l.262.568.568.306.524-.219.262-.306.568-.131.524-.175.35-.35.262-.612.087-.568.219-.087.306.743.393.219.262.131.568.044" transform="translate(-349.24 -177.239)" fill="none" stroke="#eaecff" stroke-width="0.5"/><path d="M443.038,197.449v-.656l-.306-.787-.087-.612-.219-.219-.393.35-.044.393-.262.131h-.35l-.437-.306-.087-.393-.087-.087-.262-.393-.437-.437.218-.7.35-.656.393-.743.612-.481.306-.7.087-.787-.219-.787-.044-.568v-.437l.306-.481.524-.393-.044-.568.131-.524.131-.35" transform="translate(-347.427 -148.238)" fill="none" stroke="#eaecff" stroke-width="0.5"/><path d="M382.746,197.7l.393-.393-.044-.524.437-.393.393-.175.219-.437.044-.7.437-.262.481.044.35-.481.262-.787.219-.35h.656l.175-.35-.262-.306v-.306a.61.61,0,0,1,.35-.175c.175,0,.83-.044.83-.044h.481l.087-.437.524-.219.437.262.568.131.7-.437.481-.612.656-.787.7-.524.874-.219.656-.306.393-.175.437-.35.306-.743.131-.656-.306-.7-.481-.437.393-.787.35-.7.568-.481.524-.743" transform="translate(-303.786 -145.868)" fill="none" stroke="#eaecff" stroke-width="0.5"/><path d="M390.446,137.748l-.437-.044h-.7l-.656.175h-.787l-.961.306-.612.087-.437.612-.219.524-.131.481-.306.612v.787l-.219.437-.437-.35-.219-.306h-.393l-.481.087v.306l-.175.262-.393-.175-.393-.262a.471.471,0,0,0-.437,0,2.521,2.521,0,0,0-.219.175l-.306.087h-.7l-.524-.481-.219-.306-.437-.437-.219-.874-.175-.7-.393-.393-.524-.568-.131-.262-.481-.524-.306-.524-.131-.524-.262-.35-.393-.7-.087-.787-.393-.612-.524-.437-.393-.656v-.524l.481-.437.612-.219.393.175.524-.262-.219-.83-.175-.874.131-.437.481-.175.35.262s0,.262.175.262.35-.35.35-.35l.175-.743.175-.306h.656l.437.219-.131.656.131.568.437.437.393.044.437-.306.306-.306.656-.219.044.524-.131.393.743.131.219-.524.437-.568.481-.35.393-.568.175-.7v-.83" transform="translate(-298.069 -102.784)" fill="none" stroke="#eaecff" stroke-width="0.5"/><path d="M361.6,170.545l-.616-.308-.513-.051-.462-.359-.308-.41-.462-.257-.513-.257.1-.564.462-.564.564-.77v-.564l-.154-.257-.462-.154-.77.154-.257-.051-.154.359-.257.257h-.359l-.513-.257-.257.1-.257.257-.308.051-.41-.205-.308-.154-.051-.667-.154-.513-.1-.564-.462-.308-.513-.257-.051-.257-.513-.1-.616-.1-.359-.257.1-.564.667-.154.257-.41-.308-.308h-.513l.154-.564.051-.872-.1-.77.1-.616.513-.41.41-.462-.154-.821-.41-.41.564-.462.308.1.667-.257-.257-.462-.462-.359-.051-.564v-.77l.1-.821.051-.564.718-.257.257-.513.462-.462.462-.359.667-.1.616-.051.513-.051" transform="translate(-280.811 -121.546)" fill="none" stroke="#eaecff" stroke-width="0.5"/><path d="M247.443,194.34l.616.1.41-.051h.616l.462.359.051.564.564.564.1.462.308.359.257-.462v-.872l.154-.462.616-.41.616-.257.667-.359.1-.564.513-.359-.051-.718v-.872l-.051-.41.205-.359.667.051.513.1.257-.41-.051-.462.257-.205.308.308.462.205.41.359h.41l.462.1.359.308a.5.5,0,0,0,.41,0l.513-.257.257-.308.308.051.051.308.616.205.513-.1.564-.359.462.1a.783.783,0,0,1,.616.205c.257.257.77.667.77.667l.359.462.462.462.616.1.513-.41v-.667l-.154-.257-.051-.513a.965.965,0,0,0,.462-.41,6.025,6.025,0,0,0,.205-.821l.359-.667.513-.462.77-.359.77-.205.923.051.462.1h.616l.41.205.359.051.257-.718.513-.308h.308l-.051.77.359.462h.41l.77-.359" transform="translate(-200.773 -148.881)" fill="none" stroke="#eaecff" stroke-width="0.5"/><path d="M235.738,115.385l.555-.277.069-.9-.208-.555-.347-.694-.069-.9v-.624l.069-.832.069-.9v-.555l-.486-.624-.763-.416-.416-.069-.624-.416-.208-.555-.139-.763-.347-.624-.277-.763.416-.555.485-.416.486-.416-.069-1.11.416-.694.416-.277.486.139.555.208.763.485.416-.139.694-.416.555-.277h.485l.555-.347v-.624l-.208-.555-.208-.624.208-.971.485-.9.277-.694.208-.555-.347-.139-.208-.555.485-.555.624-.277.416-.347-.277-.624-.347-.485-.694-.208h-.555l-.416-.347.9-.763.347-.971-.416-.9-.347-.347-.347-.416h-.277l-.347.416.277.555-.139.416-.347.277h-.208l-.277-.763-.208-.347-.624.277-.347.208-.485-.139-.277-.624-.624-.624-.485-.347h-2.219l-.486.139-.9.069H227.97l-.832.485-.208.624-.832.208-.347.277V90.9l-.208.763-.416.416-.208.416-.416.277-.139.485.069.624.208.555-.139.624-.624.347-.971.139-.555.347-.832.069h-.9l-.832-.069-.971-.416-.694-.624-.694-.277-.208-.416L216.8,93.4" transform="translate(-177.446 -73.841)" fill="none" stroke="#eaecff" stroke-width="0.5"/><path d="M298.492,42.746l.208-.9.416-.971.694-.624v-.832l-.416-.971-1.11-.555-.624-.347-.624-.416-.069-.624.486-.555-.416-.971H296.2l-.555-.208.139-.763-.416-.971-.9-.832-.069-.694.763-.139,1.318-.416,1.318-.485,1.11-.555.832-.485.9-.9.763-.832.694-.763" transform="translate(-236.524 -26.932)" fill="none" stroke="#eaecff" stroke-width="0.5"/><path d="M315.907,98.35l.416-.485H318.4l.416-.139.694-.694.763-.069.277.416,1.04.624.555.069h1.526l.485-.555.555-.139h.624l.347.347h.971l-.416-.971-.416-.555v-.347l.971-.139h.763l.763.347.763.139.694-.139.347-.139.485.069v.624l-.347.347.208.347h.624l.9-.069.9-.069.347-.347.555-.971.555-.555h.416l.555.763.416.208.277-.624.347-.416.832.347.555-.277" transform="translate(-252.898 -78.93)" fill="none" stroke="#eaecff" stroke-width="0.5"/></g></g></svg>