<svg xmlns="http://www.w3.org/2000/svg" width="93.341" height="120.524" viewBox="0 0 93.341 120.524"><g transform="translate(-583.279 -15.929)"><g transform="translate(583.546 16.18)"><path d="M569.49,115.951a12.246,12.246,0,0,1,1.3-3.787c.867-1.222.28-2.877.571-4.312,1.343-.888.681-1.85,1.48-3.16.191-1.333,1.484-1.987,1.94-3.159a6.806,6.806,0,0,0-2.045-3.139c-.728-1.03.19-2.264.031-3.46.178-1.6,1.128-3.463,3.026-3.561.535-.574-.932-1.739-.851-2.738.053-1.3-1.4-2.021-2.212-3.029-.191-1.192-.511-3.085,1.1-3.5.041-.87,1.119-2.365.482-2.758-.359-1.131.945-2.241,1.354-3.094,1.192-1-.343-2.3,1.029-3.579.78-1.551,3.291-1.5,3.191-3.614.688-1.28-.037-3.122,1.528-3.929,1.4-.566,1.621-2.07,1.9-3.393,1.34-1-.845-2.312.408-3.373.573-1.113-.414-3.575,1.532-3.327,1.572-.554,1.023-2.419,1.482-3.682-.021-.872,2.709-2,.785-2.906.318-1.273-2.68-2.48-.928-2.847.83-.754,2.72-1.73,1.726-2.8-.118-1.475-2.15-.748-2.884-2.033a16.894,16.894,0,0,0-3.215-1.761c.34-1.2-.747-2.247-1.606-3.241-1.035-1.382.541-1.907.905-2.814,1.258-1.033-.647-2.043.736-3.021.52-1.6,2.079.335,3.12.5.928,1.012,2.306,1.264,3.738,1.524,0-.954-.157-3.488,1.955-2.47,1.088-1.648,1.764-.119,2.111,1.074.471,2.173,1.679.394,2.316-.473,1.41,1.137,1.408-1.324,2.584-1.175,1.608.906,2.065-1.458,3.2-1.34,1.062.307,1.679-1.181,3.1-1.2,1.472-.172,2.717-.084,3.443,1.232,1.019.188,2.818-.017,2.658-1.674.329-1.378,1.974-1.575,3.134-2.061,1.1-.789,2.822-.4,2.985-2.132-.045-1.517,2-2.082,2.387-2.946.742,1.345,2.277.915,2.789,2.193.714-.286,2.575.838,2.876-.692-.579-1.112.44-2.306.365-3.511-.588-1.074,1.131-3.011,1.962-1.654.978.2,2.552-.212,2.865-1.026.162-1.511,1.39-2.126,2.568-2.647,1.1-1.431,1.315,1.475,1.959,2.091a5.334,5.334,0,0,1,2.351,2.947c1.094.36,1.787-1.042,3.146-.386,1.549-.519,3.032,1.275,4.394.059,1.372-1,1.934.978,2.783,1.787.65,1.292,2.351,1.095,2.773,2.6a4,4,0,0,0,2.865,2.293c1.68.391.779,2.6,1.612,3.81a11.9,11.9,0,0,0,.058,4.072c-.85,1.084-1.388,2.991.653,2.807,1.911-.564,2.023,1.841,2.318,3.067,1.8.932-.174,2.991,1.144,4.286.652,1.043-.6,2.534-.368,3.829-1.055.64-2.635,1.367-2.167,2.74.61,1.319-.545,2.707-.34,4.086-.491,1.533.827,2,1.193,3.272-1.736.483-.139,3.04-1.915,3.334-2.515.542,1.117,1.933-.488,3.15.067,1.123,1.161,2.33-.326,3.325-.459,2.056-2.541.638-2.785,1.987-1.527,1.432.125,2.411-.607,3.958.906,1.77-2.627,1.637-1.62,3.148.005,1.448-2.064.523-2.847,1.478,1.448.992.754,2.656,1.464,3.967,2.052-.141,1.277.97,1.08,2.333a12.34,12.34,0,0,0-.557,4.173c-1.22.908.2,2.378.721,3.263.366.9.7,2.877,1.781,3.065-.938,1.827,1,1.523,1.333,2.425s1.431,2.179,2.3,1.9c1.461-.857,2.486.343,2.28,1.726,1.239.641,2.127,1.347,1.9,2.742,1.1.686,1.6,1.973,3.115,1.639,1.92.243-.758,2.625-.291,3.479a2.648,2.648,0,0,1-1.364,3.4c-1.573.806-3.152.67-4.921.658-2.067-.5-2.606,1.577-4.619,1.792-.235,1.018-.068,2.65-.325,3.873-.836,1.082-.8,3.652-1.981,3.56a2.983,2.983,0,0,0-2.554,3.006c.383,1.027-1.576,2.223-2.877,2.177-1.417-.54-1.237-3.5-3.2-4.07-1.619-1.491-3.277.831-4.5,1.327-2.368-.072-2.738-3.495-5.221-3.061a15.428,15.428,0,0,0-3.3.34c-1.134.507-2.569-.032-3.341.918-1.037.753-1.626.667-.829,2.064,1.383,1.483-.872,1.168-1.533,2.3-1.313.812-1.545,2.21-2.948,2.12-1.383-.379-1.876,1.577-2.385,2.672-.341,1.98-3.195,2.674-4.684,1.527-1.738-.323-3.165-1.445-4.986-1.114-1.466.451-1.661-1.287-3.009-1.556-1.87,1.368-1.276-.52-2.333-1.41-.581-1.059-2.252-.375-3.4-.7-1-.608-2.6.427-3.774.856-1.768,1.048-2.45-1.465-3.849-1.379-1.225.106-2.83-.485-3.623.764-1.072,1.91-2.994,1.482-4.5.342-1.368-1.1-4.227-1.171-4.439-3.071.486-2-1.987-3.576-1.46-5.251.891-1.777-2.467-2.358-3.755-2.974-.679-.028-1.927,1.068-2.112.931Z" transform="translate(-569.49 -11.071)" fill="#5751c8" stroke="#eaecff" stroke-width="0.5"/></g><g transform="translate(608.852 84.935)"><path d="M747.869,357.408a16,16,0,0,0-2.94-.78c-.741.5-1.432,1.233-2.383.779-1.452-.181-3.192-.9-4.415.237a14.285,14.285,0,0,1-2.168,1.717c-.949-.065-1.971-.442-2.722.344-1.15.885-2.717.624-4.07.952a29.473,29.473,0,0,0-3.981-1.042c-1.709.173-3.422.643-5.12.155a2.543,2.543,0,0,0-2.531.33l-2.783,1.586c-1.476-.639-3.066-1.122-4.471-1.858a23.133,23.133,0,0,1-2.389-3.1l-1.4-6.3c-1.512-1.3-3.23-2.393-4.274-4.135a2.215,2.215,0,0,0-2.116-1.339c-1.139-.09-2.348-.783-3.391-.041a25.169,25.169,0,0,0-2.978,1.37,20.643,20.643,0,0,0-1.5,2.693l1.349,9.522c1.309-.527,2.505-1.548,3.993-1.284a1.571,1.571,0,0,1,2.037,1.1c.533-.089,1.219-1.438,1.354.152a6.028,6.028,0,0,1,.692,3.216,17.331,17.331,0,0,0-2.875,1.215c-.408,1.044-.51,2.3-1.62,2.858-.408.614-2.129,1.074-1.313,1.83.537.695,1.254,1.338.882,2.293a1.481,1.481,0,0,1-1.393,1.617c-.59.424-1.352.793-1.556,1.493-.142,1.015,1.143.761,1.456,1.418a9.068,9.068,0,0,1,1.345,1.436c.3.826-.845,1.7-.126,2.35-.344.687.415,1.429,1.019,1.69a1.446,1.446,0,0,1,1.27,1.729c.892.532.1,1.319.521,2.057-.685.609-1.872.613-2.271,1.444-.661.449-.954,1.325-1.681,1.8.354,1.055-.977,1.128-1.007,1.96-.524.455-.085.69-.292,1.236" transform="translate(-692.238 -344.576)" fill="none" stroke="#eaecff" stroke-linejoin="round" stroke-width="0.5"/></g><g transform="translate(627.053 102.037)"><path d="M789.024,451.116c-.225-.825-1.386-.384-2-.823-.493-.492-.753-1.078-1.256-1.574a1.756,1.756,0,0,1-.082-1.968c-.253-.907.727-1.771.11-2.639-.291-.98-1.658-.549-1.928-1.511-.972.415-1.249-.323-1.643-.907a2.058,2.058,0,0,1-1.7-1.2c.4-.7-.332-1.3.325-1.958.494-.515.052-1.423.262-2.074,1.019-.484-.039-1.88,1.18-1.913a16.523,16.523,0,0,0,2.547-1.3c.345-1.354-.866-2.617-.34-3.984l.35-1.737" transform="translate(-780.525 -427.532)" fill="none" stroke="#eaecff" stroke-linejoin="round" stroke-width="0.5"/></g><g transform="translate(593.667 75.341)"><path d="M618.58,298.04l9.372,3.253,2.28,2.831,1,2.521,4.107,2.573" transform="translate(-618.58 -298.04)" fill="none" stroke="#eaecff" stroke-linejoin="round" stroke-width="0.5"/></g></g></svg>