<svg xmlns="http://www.w3.org/2000/svg" width="50" height="46.669" viewBox="0 0 50 46.669"><g transform="translate(0 -15.99)"><path d="M29.057,16.156a1.662,1.662,0,0,0-1.763.2L11.08,29.326H3.333A3.339,3.339,0,0,0,0,32.659V45.992a3.337,3.337,0,0,0,3.333,3.333H11.08L27.29,62.3a1.669,1.669,0,0,0,1.767.2,1.663,1.663,0,0,0,.943-1.5V17.659A1.672,1.672,0,0,0,29.057,16.156Z" transform="translate(0 0)" fill="#fff"/><path d="M344.589,122.732a1.668,1.668,0,0,0-2.343,2.373,13.294,13.294,0,0,1,0,18.827,1.665,1.665,0,1,0,2.343,2.367,16.626,16.626,0,0,0,0-23.567Z" transform="translate(-306.153 -95.193)" fill="#fff"/><path d="M389.709,77.609a1.668,1.668,0,1,0-2.35,2.367,19.89,19.89,0,0,1,0,28.23,1.668,1.668,0,0,0,2.35,2.367,23.229,23.229,0,0,0,0-32.963Z" transform="translate(-346.569 -54.766)" fill="#fff"/></g></svg>