<svg xmlns="http://www.w3.org/2000/svg" width="83.911" height="120.519" viewBox="0 0 83.911 120.519"><g transform="translate(-13.185 -9.266)"><path d="M153.186,273.176a.343.343,0,1,1-.343-.343A.343.343,0,0,1,153.186,273.176Z" transform="translate(-107.248 -203.058)" fill="#5751c8" stroke="#eaecff" stroke-width="0.5"/><path d="M75.5,305.264c.346-.173.343-1.257.458-1.716a5.953,5.953,0,0,0,.229-1.6,3.852,3.852,0,0,1,.343-1.373c.122-.489.436-.6.572-1.144l.343-1.373c.124-.5.241-1.079.343-1.487.156-.624.3-.76.458-1.373.158-.631.222-1,.343-1.487.139-.555.222-1,.343-1.487.106-.426.632-.92.8-1.258a3.723,3.723,0,0,0,.229-1.487v-1.716c0-.835-.14-.966.572-1.144.632-.158.286-.8.114-1.144-.3-.607.06-.921.229-1.258.286-.572.561-.893.8-1.373s.5-.772.686-1.144c.234-.467.681-.676.915-1.144a2.728,2.728,0,0,1,.915-1.144,3.542,3.542,0,0,0,.686-1.144,3.778,3.778,0,0,1,.915-1.03,4.054,4.054,0,0,0,.686-1.258c.22-.439.783-.563,1.258-.8.448-.224.75-.489,1.144-.686.451-.225.718-.718,1.03-1.03l1.144-1.144c.415-.415.9-.553,1.258-.915l1.03-1.03c.174-.174.05-.15.114-.343l.572-.229a2.053,2.053,0,0,1,1.373-.114,2.5,2.5,0,0,0,1.6-.229c.492-.246.38-.458,1.258-.458.46,0,.812.229,1.487.229a2.4,2.4,0,0,1,1.373.343c.719.36.9-.255,1.258.458a5.439,5.439,0,0,1,.458,1.373c0,.008.5.993.572,1.144a5.145,5.145,0,0,1,.572,1.144c.083.331.647.608.8.915a4.729,4.729,0,0,0,.8,0c.3.6.227,1.141.458,1.6.256.513.417.525.572,1.144a2,2,0,0,0,.572,1.144,5.038,5.038,0,0,1,.572,1.144,3.84,3.84,0,0,0,.686,1.03c.272.272.236.944.343,1.373.1.4.586.829.8,1.258a4.656,4.656,0,0,1,.572,1.144c.1.412.36.981.458,1.373a7.559,7.559,0,0,0,.458,1.258,3.728,3.728,0,0,0,.915,1.144,3.736,3.736,0,0,1,.686,1.258,3.937,3.937,0,0,0,.686,1.03,6.307,6.307,0,0,1,.572,1.144c.162.323.238.151.343.572.237.474-.8.843-.8,1.373a5.322,5.322,0,0,1-.343,1.487c-.087.348-.8.723-1.03,1.03-.3.4-.3.756-.686,1.144-.35.35-.392.735-.686,1.03-.372.372-.738.207-.915.915-.062.25-.79.894-.915,1.144a3.435,3.435,0,0,1-.686,1.03,6.634,6.634,0,0,0-.458,1.258,6.883,6.883,0,0,0-.229,1.487,7.894,7.894,0,0,0,0,1.716c0,.182.8.742.915.8.572.286.458.842.458,1.487,0,.524.418.762.686,1.03.286.286.4.744.686,1.03.171.171,0,1.444,0,1.716v1.716a8.122,8.122,0,0,0,.114,1.6,2,2,0,0,0,.686,1.03c.35.35.62.506.915.8.556.556-.439.739-.686.8-.22.055-.74,1.022-.8,1.144a2.935,2.935,0,0,0-.114.686c-.175.35-1.478-.427-1.6-.458-.6-.149-.686.659-.686,1.144,0,.745-.11.913-.572,1.144-.595.3-.8.172-.8,1.03,0,.743.058,1.086-.343,1.487-.459.459-.686.007-.686,1.03,0,.39-1.3.229-1.6.229-.808,0-1.1-.126-1.258.686-.068.341-1.144.229-1.487.229H99.638c-.413,0-.395.738-.686,1.03-.315.315.026,1.118-.343,1.487-.286.286-.515.629-.8.915-.062.062-.878-.878-.915-.915-.442-.442.187-.988.343-1.144.474-.474-.02-.582-.458-.8a4.144,4.144,0,0,0-1.716-.114c-.77,0-.722-.264-1.144-.686L93,325.055a1.542,1.542,0,0,1-.572-1.258c0-.647.508-.775-.229-1.144-.559-.279-.1.578-.8.229-.473-.237-.343-.7-.343-1.373v-1.716c0-.752-.233-.809-.458-1.258-.183-.365-.8-.569-1.03-.8-.491-.491.267-1,.458-1.144.54-.4-.479-.937-.686-1.144-.391-.391-.682-.568-1.03-.915-.171-.171,0-1.444,0-1.716,0-.44.458-.824.458-1.487s.1-.469-.458-1.03c-.37-.37-1.017-.216-1.373-.572-.274-.274-.651-.765-.915-1.03-.459-.459-.762-.647-.915-1.258-.085-.341-.647-.721-.8-1.03-.171-.342-.821-.639-1.144-.8a2.215,2.215,0,0,0-1.6.114c-.5.124-.159,1.425-.114,1.6a6.784,6.784,0,0,1,.114,1.6c0,.345-.429.858-.572,1.144-.274.548-.458.568-.458,1.373v1.716a5.27,5.27,0,0,0,.229,1.487c.115.459.465.715.572,1.144.142.567.6.735.8,1.144a4.638,4.638,0,0,1,.572,1.144c.134.535.691.39.343,1.258a3.686,3.686,0,0,0-.229,1.487c0,.82-.711.566-1.144.458-.371-.093-.637-.719-1.03-.915a7,7,0,0,1-1.144-1.144,1.943,1.943,0,0,1-.686-1.144c-.141-.564-.334-.764-.458-1.258-.082-.329-.551-.76-.686-1.03-.268-.536-.642-.509-.8-1.144a7.893,7.893,0,0,1,0-1.716v-1.716a3.2,3.2,0,0,0-.229-1.487,2.773,2.773,0,0,1-.343-1.373,7.756,7.756,0,0,0-.114-1.6A2.434,2.434,0,0,0,75.5,305.264Z" transform="translate(-47.866 -200.102)" fill="#5751c8" stroke="#eaecff" stroke-width="0.5" fill-rule="evenodd"/><path d="M57.664,154.173c.013-.443.625-.906.915-1.487a6.667,6.667,0,0,0,.229-1.487,7.152,7.152,0,0,0,.114-1.716,8.122,8.122,0,0,0-.114-1.6c-.134-.535-.561-.64-.686-1.144a6.066,6.066,0,0,1-.114-1.6c0-.386-.114-1.05-.114-1.6v-1.716a6.222,6.222,0,0,0-.572-3.089,3.925,3.925,0,0,0-.686-1.03c-.258-.258.273-1.321.343-1.6a7.894,7.894,0,0,0,0-1.716,2.163,2.163,0,0,0-.458-1.258,5.949,5.949,0,0,1,0-1.83v-5.148a7.194,7.194,0,0,0-.114-1.716,8.469,8.469,0,0,1,0-1.83c0-.579-.114-.948-.114-1.6,0-.534-.542-.97-.686-1.258a2.852,2.852,0,0,1-.229-.686l-.171.515c-.145.437-.933-.246-1.258-.572-.385-.385-.689-.343-1.373-.343-.71,0-.837.078-1.258-.343a3.961,3.961,0,0,1-.572-1.144,5.629,5.629,0,0,1-.458-1.373c-.136-.543-.321-.711-.458-1.258-.094-.375-.537-.732-.686-1.03-.271-.542-.769-.494-1.373-.343-.244.061-.114,1.495-.114,1.716,0,.55.483.623.686,1.03a3.9,3.9,0,0,1,.572,1.144c.176.705-.772.458-1.258.458-.386,0-.229.7-.229,1.258V122.2c0,.852-.238.686-1.03.686-.255,0-.716.745-.8.915-.2.408-.591.591-.915.915-.277.277-1.205.114-1.6.114-.722,0-.948.36-1.373.572a1.109,1.109,0,0,1-1.487-.229c-.34-.34-.922-.229-1.487-.229-.734,0-.746-.288-1.144-.686a2.113,2.113,0,0,0-1.258-.686,5.222,5.222,0,0,0-1.6-.343,3.581,3.581,0,0,0-1.6.229c-.311.155-1.177-.266-1.487-.343a7.894,7.894,0,0,0-1.716,0c-.793,0-.8.13-.8.915a4,4,0,0,0,.572,1.6,4.9,4.9,0,0,1,.572,1.258c.166.663.3.737.458,1.373a2.13,2.13,0,0,1-.343,1.487c-.186.372-.516.689-.686,1.03-.274.548.218,1.122.343,1.373.367.733.043.876-.572,1.03-.37.092-.893-.55-1.144-.8-.134-.134-1.159.229-1.258.229-.261,0-.507-.7-.915-.8-.1-.025-.393.731-1.03.572-.282-.07-.519-.273-.8-.343-.555-.139,0,1.144,0,1.716,0,.794-1.02-.334-1.03-.343l-.229-.229c-.388-.388-1.011,1.525-1.03,1.6-.122.488.477.821.686,1.03.441.44.173.857-.114,1.144a3.664,3.664,0,0,1-1.487.229c-.479,0-.506-.5-1.144-.343-.505.126-.572.684-.572,1.258v1.716a1.406,1.406,0,0,0,.458,1.258c.286.286.286.858.572,1.144.426.426.458.465.458,1.258a3.376,3.376,0,0,1-.229,1.487c-.229.458-.744.232-.915.915-.131.523-.458.448-.458,1.258a12.513,12.513,0,0,0,.458,1.373c.193.771-.029.886.458,1.373.639.639-.908.572-1.144.572a1.561,1.561,0,0,1-1.258-.686c-.372-.372-1.092-.213-1.487-.114-.349.087-.615.765-.915.915-.461.231-.358.83-.572,1.258a4.842,4.842,0,0,0-.458,1.258c-.122.488-.882.147-.915.114-.156.623.932.981,1.258,1.144a3.292,3.292,0,0,0,1.6.229,3.45,3.45,0,0,1,1.6.229c.736.368.49-1.013.8.229a1.489,1.489,0,0,1-.458,1.487c-.452.452-.169.686-1.03.686H15.508c-.748,0-1.106-.192-.915.572a5.1,5.1,0,0,1,.229,1.487c0,.162.5,1.1.572,1.373.1.384.531.719.686,1.03.142.284.873.551,1.144.686.706.353.833.127,1.03.915.177.708.054.855.458,1.258.429.429.572.2.572,1.144,0,.475-.641.41-.458,1.144.047.187.91.566,1.03.686s.076.3.114.458c.612.612-.731.9.686,1.258.7.175,1.045-.1,1.487.343a11.265,11.265,0,0,1,.229,1.487c.267.533.572.371.572,1.144,0,.444.114,1.08.114,1.6,0,.055.836.6.915.915.107.429.458.569.458,1.258,0,.219.58.816.686,1.03.239.477.045,1.119.229,1.487s.683.568.915.8c.481.481.658.228.458,1.03-.165.661-.572.535-.572,1.373a1.465,1.465,0,0,0,.572,1.144,7.858,7.858,0,0,1,.229,1.6c.05.2.83.179,1.03.229,0,0,0-1.543,0-1.945,0-.5.343-.936.343-1.6,0-.732.005-1.035.458-1.487a2.925,2.925,0,0,0,.572-1.373c.125-.5.12-1.053.229-1.487a5.911,5.911,0,0,1,.572-1.258,2.945,2.945,0,0,0,.343-1.6,3.6,3.6,0,0,1,.229-1.6c.292-.585.537-.731.8-1.258a6.269,6.269,0,0,0,.458-1.373,6.78,6.78,0,0,0,.114-1.6,3.376,3.376,0,0,1,.229-1.487c.273-.547.572-.207.572-1.144,0-.386-.114-1.05-.114-1.6,0-.235.837-.952,1.03-1.144a6.972,6.972,0,0,0,.686-1.373,7.014,7.014,0,0,1,.686-1.144,10.762,10.762,0,0,1,.915-1.144c.4-.4.5-.73.8-1.03.4-.4.728-.614,1.03-.915a10.13,10.13,0,0,0,.686-1.258,1.457,1.457,0,0,1,1.03-.686,6.349,6.349,0,0,0,1.144-.686c.368-.184.608-.685.915-.915a9.853,9.853,0,0,0,1.03-1.03c.35-.35.62-.506.915-.8.459-.459.737-.509,1.144-.915.371-.371.582-.7.915-1.03.374-.374,1.13-.229,1.716-.229a7.784,7.784,0,0,0,1.83-.114c.335-.084.828-.436,1.373-.572a4.111,4.111,0,0,1,1.83.229,9.649,9.649,0,0,1,1.716.458,4.02,4.02,0,0,1,.686,1.03,5.514,5.514,0,0,1,.458,1.258c.142.569.524.753.8,1.03.308.308.41.868.686,1.144C57.012,154.207,57.387,154.08,57.664,154.173Z" transform="translate(0 -79.841)" fill="#5751c8" stroke="#eaecff" stroke-width="0.5" fill-rule="evenodd"/><path d="M205.169,165.945a2.3,2.3,0,0,1,1.144-.229c.444,0,1.129.351,1.6.114.427-.214.915-.328.915-.915,0-.5-.187-1.373.343-1.373a3.761,3.761,0,0,0,1.373-.343c.6-.15.758-.514.572-1.258-.1-.414.018-1.073-.114-1.6-.1-.385-.107-1.115-.229-1.6a5.6,5.6,0,0,1-.229-1.487,4.879,4.879,0,0,0-.229-1.487c-.1-.417-.474-.75-.572-1.144a2.706,2.706,0,0,0-.572-1.487,2.742,2.742,0,0,1-.572-1.258c-.213-.854.343-.632.343-1.258,0-.552-.114-1.215-.114-1.6a9.262,9.262,0,0,1-.114-1.716c.108-.433,1.258-.011,1.258-.458a2.291,2.291,0,0,0-.343-1.373,3.469,3.469,0,0,1-.229-1.487c0-.47.457-1.374,1.03-.8.286.286.4.744.686,1.03.328.328.314.8.458,1.373.139.555.41.723.572,1.373a2.164,2.164,0,0,0,.686,1.144,1.639,1.639,0,0,0,1.144.572c.54.108,1.018.206,1.258.686.077.154.464,1.114.8,1.03l1.373-.343c.539-.135.649-.532.343-1.144-.183-.367-.432-.915.343-.915.739,0,.931-.016,1.373-.458.17-.17.657-1.222.8-1.258.491-.123,1-.08,1.373-.458s.458-.48.458-1.258c0-.518-.148-1.3.229-1.6l.572-.458a6.378,6.378,0,0,0-.114-1.716l-.343-1.373a5.218,5.218,0,0,1-.229-1.487v-3.432a3.377,3.377,0,0,0-.229-1.487,7.733,7.733,0,0,1-.343-1.487,6.409,6.409,0,0,1-.229-1.83,4.487,4.487,0,0,0-.343-1.373,7.231,7.231,0,0,0-.8-1.373,3.34,3.34,0,0,0-.8-1.03c-.371-.371-.467-.81-.8-1.144-.375-.375-.553-.782-.915-1.144a2.742,2.742,0,0,1-.572-1.144c-.14-.559-.435-.825-.572-1.373a2.7,2.7,0,0,0-.686-1.258,1.873,1.873,0,0,1-.458-1.487v-1.716c0-.242-.824-.824-.915-.915-.3-.3-1,.968-1.03,1.03a2.273,2.273,0,0,1-1.03.915c-.518.259-.981.2-1.487.458a2.415,2.415,0,0,1-1.487.458,3.2,3.2,0,0,1-1.487-.229c-.456-.228-.655-.613-1.03-.8a2.364,2.364,0,0,1-.8-1.03c-.234-.468-.589-.607-.8-1.03a4.509,4.509,0,0,0-.8-1.03c-.44-.44-.727-.612-1.03-.915a1.745,1.745,0,0,0-.343-.229l-.114-.572a2.031,2.031,0,0,0-.572-1.258l-.915-.915a5.15,5.15,0,0,1-.458-1.487,2.212,2.212,0,0,0-.686-1.144c-.425-.425-.919-.17-1.258,0-.558.279-.19.667-1.03.458-.5-.125-.821-.348-1.258-.458-.456-.114-.763-.744-1.144-1.03a8.811,8.811,0,0,1-1.03-.8c-.382-.382-.873.3-1.03.458-.45.45-.2.407.458.572.206.051.114,1.3.114,1.6a2.875,2.875,0,0,0-.229,1.258c.128.511.444.631.572,1.144.156.624.1.989.229,1.487a.775.775,0,0,1-.458,1.03c-.433.108.258.859.458,1.258a3.249,3.249,0,0,1,.229,1.487v1.716c0,.541.114,1.118.114,1.716,0,.487.229.959.229,1.6,0,.579.114.948.114,1.6v1.716c0,.4-.229,1.06-.229,1.6a3.32,3.32,0,0,0,.114.8c0,.88.343.8.343,1.716V130.6c0,.656-.343.571-.343,1.373,0,.044.632.922.686,1.03a7.694,7.694,0,0,1,.343,1.373,7.346,7.346,0,0,1,.114,1.6V139.4a4.739,4.739,0,0,0,.343,1.373,3.129,3.129,0,0,0,.686,1.144c.26.347.114,1.153.114,1.6v3.432c0,.331-.63.529-.8.572,0,.8-.343,1.127-.343,1.945,0,.429.425.851.572,1.144.2.4.522.7.686,1.03.24.48.285.912.458,1.258a3.329,3.329,0,0,0,.686,1.03,1.521,1.521,0,0,1,.572,1.258c0,.823.078.878.458,1.258a2.436,2.436,0,0,1,.458,1.258,3.069,3.069,0,0,0,.8,1.03,2.3,2.3,0,0,1,.343,1.487c0,.288.492.94.572,1.258a2.606,2.606,0,0,0,.8,1.03c.337.337.523.752.8,1.03.3.3.292.864.686,1.258C204.988,165.306,204.837,165.113,205.169,165.945Z" transform="translate(-138.868 -74.396)" fill="#5751c8" stroke="#eaecff" stroke-width="0.5" fill-rule="evenodd"/><path d="M256.124,68.383a6.378,6.378,0,0,0-.114-1.716l-.343-1.373a5.218,5.218,0,0,1-.229-1.487V60.375a3.377,3.377,0,0,0-.229-1.487,7.732,7.732,0,0,1-.343-1.487,6.409,6.409,0,0,1-.229-1.83,4.487,4.487,0,0,0-.343-1.373,7.231,7.231,0,0,0-.8-1.373,3.34,3.34,0,0,0-.8-1.03c-.371-.371-.467-.81-.8-1.144-.375-.375-.553-.782-.915-1.144a2.742,2.742,0,0,1-.572-1.144c-.14-.559-.435-.825-.572-1.373a2.7,2.7,0,0,0-.686-1.258,1.873,1.873,0,0,1-.458-1.487V42.529c0-.242-.824-.824-.915-.915-.3-.3-1,.968-1.03,1.03a2.273,2.273,0,0,1-1.03.915c-.518.259-.981.2-1.487.458a2.415,2.415,0,0,1-1.487.458,3.2,3.2,0,0,1-1.487-.229c-.456-.228-.655-.613-1.03-.8a2.364,2.364,0,0,1-.8-1.03c-.234-.468-.589-.607-.8-1.03a4.51,4.51,0,0,0-.8-1.03c-.44-.44-.727-.612-1.03-.915a1.745,1.745,0,0,0-.343-.229l.47-.286A2.661,2.661,0,0,1,238.4,38.7c.7,0,.458-.64.458-1.258a8.122,8.122,0,0,0-.114-1.6,5.2,5.2,0,0,1-.229-1.487c0-.5.556-1,.686-1.258.2-.395.008-1.292.114-1.716.117-.469.338-.779.458-1.258a7.346,7.346,0,0,0,.114-1.6,1.449,1.449,0,0,0-.458-1.258,2.045,2.045,0,0,1-.572-1.144,3.8,3.8,0,0,1-.343-1.373c0-.165.952-.723,1.03-.8.435-.435.817-.3.915-.686.106-.423,1.02.782,1.03.8a4.012,4.012,0,0,0,.8.915c.607.607.915-.429.915-.8a3.369,3.369,0,0,0-.229-1.6c-.13-.261-.832-.718-1.03-.915-.574-.574-.169-.643.572-.458s.743.2,1.373-.114c.568-.284.6-.686,1.373-.686a1.6,1.6,0,0,1,1.258.686c.385.385.689.343,1.373.343h2.059c.724,0,.551-.544.915-1.03a13.8,13.8,0,0,1,1.03-1.258,4.343,4.343,0,0,1,1.144-.8c.194-.1.114-.626.114-.8.987-.493.581-.458,1.716-.458.858,0,.345-.912.229-1.144a5.267,5.267,0,0,0-.8-.915c-.344-.344-.213-1-.114-1.487.118-.589.222-1.116.343-1.6.168-.672-.173-.913.114-1.487.183-.366.943-.6,1.144-.8.327-.327,1.424.2,1.487.229a8.84,8.84,0,0,1,.343,1.373,10.8,10.8,0,0,0,.572,1.144c.211.422.915.229,1.373.343.246.061.114,1.367.114,1.6,0,.538.452.8.686,1.03a8.571,8.571,0,0,1,.229,1.487,2.582,2.582,0,0,0,.686,1.144,2.732,2.732,0,0,1,.458,1.258c.134.535.435.686,1.03.686.509,0,.22.994.343,1.487a6.453,6.453,0,0,0,.572,1.144c.194.388-.114,1.539-.114,2.059,0,.5-.114.862-.114,1.373,0,.431-.791,1.238-.915,1.487a2.949,2.949,0,0,0-.343,1.487v1.716a6.464,6.464,0,0,0,.229,1.487c.157.63.329.686,1.03.686a3.984,3.984,0,0,1,1.373.343c.184.046.612.878.915,1.03.135.067.47,1.156.572,1.258a1.479,1.479,0,0,1,.572,1.258c0,.483.492.87.686,1.258a7.154,7.154,0,0,0,.686,1.144c.249.332.114,1.272.114,1.716v1.716c0,.707-.3.764-.229.8a5.336,5.336,0,0,1-.229,1.487,7.892,7.892,0,0,0,0,1.716v1.716a1.912,1.912,0,0,0,.458,1.258c.4.4.458.533.458,1.258s-.335.793-.686,1.144c-.388.388-.229,1.172-.229,1.716V55.4a2.227,2.227,0,0,0,.572,1.258c.331.331.229.947.229,1.487v1.716c0,.265-.588.833-.686,1.03-.018.037-1.54.1-1.6.114a.686.686,0,0,0-.458.915c-.666.167-.592,1.507-.915,1.83s-.229.931-.229,1.487a7.13,7.13,0,0,1-.114,1.716c-.138.55-.54.558-.686,1.144-.092.367-.6.711-.8.915a1.394,1.394,0,0,0-.458,1.258c0,.547-.41.935-.572,1.258a4.988,4.988,0,0,0-.458,1.258c-.159.634.084,1.03-.686,1.03-.687,0-.784-.31-1.03-.8a5.475,5.475,0,0,1,0-1.716c0-.562-.445-.737-.8-.915-.447-.224-.871-.264-1.258-.458a1.387,1.387,0,0,1-.686-1.03C257.127,68.289,256.9,67.913,256.124,68.383Z" transform="translate(-171.988)" fill="#5751c8" stroke="#eaecff" stroke-width="0.5" fill-rule="evenodd"/></g></svg>