<svg xmlns="http://www.w3.org/2000/svg" width="130.184" height="120.512" viewBox="0 0 130.184 120.512"><g transform="translate(-342.573 -380.75)"><path d="M417.451,537.893a9.9,9.9,0,0,0,1.221-.945c.373-.373.487-.671.893-1.077a1.067,1.067,0,0,0,.276-.5,2.5,2.5,0,0,0,.079-.656,6.752,6.752,0,0,1,.079-1.248.739.739,0,0,1,.328-.46,2.836,2.836,0,0,0,.473-.341c.317-.318.448-.435.814-.8a1.006,1.006,0,0,1,.669-.2c.273-.009.557.026.749.026a2.122,2.122,0,0,0,.735-.079.811.811,0,0,0,.42-.46c.113-.227.279-.461.433-.709a2.854,2.854,0,0,0,.368-.8,3.147,3.147,0,0,1,.276-.63,1.551,1.551,0,0,0,.171-.709c0-.289.456-.832.617-1.156a2.589,2.589,0,0,0,.368-1.247c0-.432.171-.916.171-1.418V522.7a5.258,5.258,0,0,0-.263-1.418,1.852,1.852,0,0,0-.433-.617c-.2-.219-.431-.431-.551-.551a2.41,2.41,0,0,1-.46-.5,1.06,1.06,0,0,1,.013-.748c.057-.229,1.033-.91,1.155-.971a3.542,3.542,0,0,1,.683-.276,2.926,2.926,0,0,1,.748-.079,3.2,3.2,0,0,0,.735-.053,1.6,1.6,0,0,0,.6-.3,3.333,3.333,0,0,0,.88-1.076,1.974,1.974,0,0,0,.276-1.156,6.226,6.226,0,0,0-.092-1.51,6.723,6.723,0,0,0-.709-1.51c-.2-.406-.169-.876-.355-1.247a3.28,3.28,0,0,0-.381-.656,1.806,1.806,0,0,0-.6-.42,1.6,1.6,0,0,1-.591-.473,4.293,4.293,0,0,1-.394-.683c-.166-.332-.191-.736-.354-1.064a1.851,1.851,0,0,1-.158-.6,1.385,1.385,0,0,0-.289-.643,3.819,3.819,0,0,0-.591-.643,3.134,3.134,0,0,0-.643-.42,1.476,1.476,0,0,1-.486-.473,3.113,3.113,0,0,1-.315-.6,1.921,1.921,0,0,1-.144-.578,2.4,2.4,0,0,1,.053-.67,2.932,2.932,0,0,0,0-1.326,6.374,6.374,0,0,0-.63-1.339,1.937,1.937,0,0,0-.381-.6.975.975,0,0,0-.683-.2,1.733,1.733,0,0,0-.669.145,4.324,4.324,0,0,1-.578.21.991.991,0,0,0-.473.407,4.309,4.309,0,0,0-.329.578,5.565,5.565,0,0,0-.3.853,1.716,1.716,0,0,1-.407.748,5.809,5.809,0,0,1-1.247.893,1.76,1.76,0,0,1-.748.224,6.3,6.3,0,0,0-.853.131,6.177,6.177,0,0,1-1.34,0c-.526,0-.892.171-1.51.171a5.58,5.58,0,0,1-1.6-.263,3.953,3.953,0,0,1-.788-.328,1.785,1.785,0,0,0-.814-.21,1.618,1.618,0,0,0-.748.171,3.348,3.348,0,0,1-.683.276,1.722,1.722,0,0,0-.709.42c-.215.189-.411.409-.617.564a5.729,5.729,0,0,0-1.247,1.247,8.178,8.178,0,0,0-.893,1.326,2.224,2.224,0,0,0-.236.657,1.957,1.957,0,0,0,.066.775,5.919,5.919,0,0,1,.079,1.418c0,.322.068.537.053.709s-.111.3-.407.447a1.233,1.233,0,0,1-.762.092c-.259-.039-.518-.113-.748-.171a7.1,7.1,0,0,0-1.694-.092,2.408,2.408,0,0,1-.749-.092,4.071,4.071,0,0,1-.591-.263,1.564,1.564,0,0,1-.46-.67c-.143-.3-.273-.625-.341-.762a4.353,4.353,0,0,0-.972-1.155,1.681,1.681,0,0,0-.683-.433,2.644,2.644,0,0,0-.827-.105,1.948,1.948,0,0,0-.709.3c-.274.157-.553.335-.722.42a1.948,1.948,0,0,0-.551.433,6.708,6.708,0,0,0-.42.538,9.912,9.912,0,0,1-.893,1.248c-.436.436-.758.85-1.155,1.247a3.682,3.682,0,0,1-.985.8c-.292.146-.9,1.174-1.156,1.431-.3.3-.46.723-.709.972a8.186,8.186,0,0,0-.893.985,1.837,1.837,0,0,0-.315.788,3.175,3.175,0,0,1-.224.814,1.922,1.922,0,0,0-.039,1c.051.381.131.756.131.958a2.326,2.326,0,0,0,.158.906,1.659,1.659,0,0,0,.552.7.905.905,0,0,1,.3.656c.029.264.008.541.052.762a4.8,4.8,0,0,0,.184.722,2.322,2.322,0,0,0,.355.617,1.5,1.5,0,0,1,.144.854c-.01.347-.053.714-.053.932a1.277,1.277,0,0,1-.328.683,3.678,3.678,0,0,0-.919,1.891,8.234,8.234,0,0,1-.42,1.2,1.227,1.227,0,0,0,1.221.052c.445-.222.985-.23,1.418-.446a3.986,3.986,0,0,1,1.247-.355,4.186,4.186,0,0,0,1.339-.263,5.34,5.34,0,0,1,1.418-.276,4,4,0,0,0,1.431-.079,2.742,2.742,0,0,0,1.155-1.169,1.644,1.644,0,0,1,1.34-.88c.5,0,1.044.079,1.51.079a2,2,0,0,1,1.418.722,3.325,3.325,0,0,1,.538,1.248c.1.409.458.834.538,1.156.135.539.49.711.893,1.247.228.3.4,1.046.8,1.247a4.09,4.09,0,0,1,1.248.971,3.745,3.745,0,0,0,1.418,1.248,9.773,9.773,0,0,0,1.418.617,9.4,9.4,0,0,1,1.6.722,8.025,8.025,0,0,0,1.431.525,3.118,3.118,0,0,1,1.248.722,4.526,4.526,0,0,0,1.247.709,7.854,7.854,0,0,0,1.6.617C416.384,537.5,416.962,537.718,417.451,537.893Z" transform="translate(-26.539 -68.589)" fill="#5751c8" stroke="#eaecff" stroke-width="0.5" fill-rule="evenodd"/><path d="M550.359,450.217v.118c0,.345-.092.842-.092,1.248,0,.422-.026.545-.092.617a3.9,3.9,0,0,0-.355.276,4.244,4.244,0,0,1-.985.617,1.653,1.653,0,0,1-.617.171c-.216.018-.444.013-.709.013a.869.869,0,0,0-.617.223c-.153.135-.286.312-.459.486a.862.862,0,0,0-.105.617,4.265,4.265,0,0,0,.105.63,2.284,2.284,0,0,0,.42.788,6.243,6.243,0,0,0,.564.63c.25.25.5.408.709.591a1.263,1.263,0,0,1,.446.748,1.165,1.165,0,0,1-.21.788,3.4,3.4,0,0,1-.5.63,2.277,2.277,0,0,0-.407.7c-.113.267-.2.541-.3.735a4.808,4.808,0,0,0-.368,1.418,2.174,2.174,0,0,0,.013.788c.043.253.112.487.171.722.156.624.474,1.123.617,1.694a6.018,6.018,0,0,1,.276,1.6c0,.254.005.491-.013.709a1.674,1.674,0,0,1-.171.63,7.039,7.039,0,0,0-.709,1.34,2.808,2.808,0,0,0,.092,1.247,1.033,1.033,0,0,0,.446.617,4.776,4.776,0,0,1,.617.447,3.871,3.871,0,0,1,.893,1.418,11.163,11.163,0,0,1,.355,1.431,1.322,1.322,0,0,0,.407.565c.2.182.425.346.578.5a1.3,1.3,0,0,1,.289.617c.06.241.1.5.158.722a5.488,5.488,0,0,1,0,1.51,5.56,5.56,0,0,1-.184,1.432,7.539,7.539,0,0,1-.354,1.418c-.236.471-.419.667-.709,1.247a1.3,1.3,0,0,0-.04.749,5.705,5.705,0,0,1,.119.761,6.536,6.536,0,0,0,.184,1.34,1.613,1.613,0,0,0,.683.761,3.485,3.485,0,0,0,1.011.486,1.949,1.949,0,0,1,.735.342,1.814,1.814,0,0,1,.512.63,1.253,1.253,0,0,1,.013.761,2.813,2.813,0,0,1-.2.578c-.042.084-.192.134-.394.158a4.924,4.924,0,0,1-.722.013c-.531-.02-1.091-.079-1.287-.079a7.982,7.982,0,0,1-1.51-.184,2.042,2.042,0,0,0-.788,0c-.245.044-.478.123-.722.184a.421.421,0,0,0-.263.223,1.421,1.421,0,0,0-.131.42,5.129,5.129,0,0,0-.052.867c0,.371-.062.649-.066.893a1.05,1.05,0,0,0,.236.709,2.471,2.471,0,0,0,.591.525.879.879,0,0,1,.394.539.528.528,0,0,1-.053.354,1.311,1.311,0,0,1-.25.329,1.6,1.6,0,0,1-.591.394,7.4,7.4,0,0,1-1.6,0c-.191,0-.363-.179-.525-.381a2.525,2.525,0,0,0-.459-.512,1.08,1.08,0,0,0-.709-.105,2.137,2.137,0,0,0-.617.2c-.053.026,0,.111,0,.171a1.045,1.045,0,0,0-.525.538.444.444,0,0,1-.21.2,1.341,1.341,0,0,1-.512.066,1.43,1.43,0,0,1-.644-.158c-.186-.091-.348-.207-.512-.289a2.428,2.428,0,0,0-1.156-.263.267.267,0,0,0-.276.171.761.761,0,0,0-.013.381,2.625,2.625,0,0,0,.2.6.622.622,0,0,0,.289.276,1.96,1.96,0,0,0,.447.145,4.716,4.716,0,0,1,.866.21,3.355,3.355,0,0,1,.788.656c.268.276.526.565.722.762a7.543,7.543,0,0,0,1.156.709,2.131,2.131,0,0,1,.643.578,2.22,2.22,0,0,1,.342.762,9.248,9.248,0,0,0,.446,1.694,8.411,8.411,0,0,1,.329.84,2.033,2.033,0,0,0,.473.762,3.121,3.121,0,0,1,.263.354,7.747,7.747,0,0,0,.8.8,4.586,4.586,0,0,0,1.418.984,4.518,4.518,0,0,1,.827.46,1.219,1.219,0,0,1,.42.775,1.093,1.093,0,0,1,.026.42.307.307,0,0,1-.145.21,1.473,1.473,0,0,1-.683.092c-.337,0-.527-.048-.7-.039a.794.794,0,0,0-.551.3,5,5,0,0,0-.394.5c-.095.092-.232.118-.67.118h-1.51a2.688,2.688,0,0,0-.814.145,1.792,1.792,0,0,0-.7.394,7.354,7.354,0,0,1-1.694.984,3.23,3.23,0,0,0-.617.342.747.747,0,0,0-.276.63,3.053,3.053,0,0,1-.132.7,1.518,1.518,0,0,0-.053.735.458.458,0,0,0,.289.276,2.372,2.372,0,0,0,.551.145c.395.065.8.07.945.105s.052.379-.066.722a6.55,6.55,0,0,1-.289.709,3.141,3.141,0,0,1-1.156.893,1.049,1.049,0,0,1-.433.132.569.569,0,0,1-.315-.092,3.241,3.241,0,0,1-.5-.486,1.038,1.038,0,0,0-.6-.355.7.7,0,0,0-.551.263.9.9,0,0,0-.118.67,4.65,4.65,0,0,0,.118.67,1.5,1.5,0,0,0,.354.6,1.45,1.45,0,0,1,.355.722c.037.222.247.376.5.486a4.938,4.938,0,0,0,.748.237,7.625,7.625,0,0,1,1.956.879.868.868,0,0,1,.3.289.612.612,0,0,1,.079.328.92.92,0,0,1-.289.63c-.353.353-.9.64-1.156.893a.489.489,0,0,0-.131.355,1.544,1.544,0,0,0,.079.46c.1.314.25.625.315.788a1.6,1.6,0,0,0,.341.551c.13.135.281.255.46.433a1.435,1.435,0,0,0,.932.276c.372.016.754-.013,1.024-.013a.321.321,0,0,1,.276.118.711.711,0,0,1,.105.315c.034.239.015.521.066.722.128.511.084.906.184,1.156.064.16.284.206.539.21s.545-.026.709-.026a1.213,1.213,0,0,0,.67-.342,3.087,3.087,0,0,1,.656-.459,1.926,1.926,0,0,0,.5-.355,1.555,1.555,0,0,1,.656-.355c.6-.149,1.122-.487,1.694-.63a5.265,5.265,0,0,1,.8-.158,2.333,2.333,0,0,1,.8.066,4.181,4.181,0,0,1,1.05.46,2.011,2.011,0,0,1,.735-.63c.418-.1.892.017,1.326-.092.515-.129.8-.319.8-.893,0-.511-.079-.929-.079-1.418,0-.307-.149-1.111.079-1.339.345-.345.554-.262,1.076,0,.112.056,1.248.479,1.248-.092,0-.53-.276-.858-.276-1.418a6.173,6.173,0,0,1,0-1.339,6.629,6.629,0,0,0,.184-1.34,6.533,6.533,0,0,0,0-1.418c-.165-.661-.581-.765-1.063-1.247a2.036,2.036,0,0,1-.538-1.063,5.57,5.57,0,0,1-.184-1.339,2.179,2.179,0,0,1,.276-1.247,6.4,6.4,0,0,1,.709-1.34c.227-.227.589-.8.971-.8.56,0,.783-.4.985-.8a6.263,6.263,0,0,1,.63-1.063,11.746,11.746,0,0,1,1.234-1.156c.251-.251.722-.461.722-1.064v-1.431a2.528,2.528,0,0,0-.184-1.418,10.943,10.943,0,0,0-.8-1.431,2.771,2.771,0,0,1-.893-1.248,1.763,1.763,0,0,1,.276-1.51c.231-.231.531-.751.971-.971s.582-.645.893-.8c.449-.225.737-.421,1.156-.63a3.778,3.778,0,0,1,1.432-.355,2.007,2.007,0,0,0,1.156-.263c.454-.227.763-.6,1.156-.8a3.569,3.569,0,0,0,1.063-.893,1.146,1.146,0,0,0,.184-1.432c-.192-.385-.559-.876-.446-1.326.092-.368.048-.937.538-1.077a7.552,7.552,0,0,1,1.956,0H571a7.27,7.27,0,0,0,1.432-.079,1.967,1.967,0,0,0,1.063-.63,3.748,3.748,0,0,0,.893-1.063,6.38,6.38,0,0,1,.709-1.34c.2-.2.383-.648.709-.893.363-.273.629-.839,1.077-1.063a4.7,4.7,0,0,0,1.247-.709c.32-.32.512-.327.709-.722.125-.251.893-.872.893-1.235V478.2c0-.458-.1-1.158.171-1.523.394-.525.655-.684,1.156-.434.474.237.716.313,1.247.525a3.341,3.341,0,0,0,1.247.447,2.454,2.454,0,0,0,1.247-.263c.344-.172,1.155-.516,1.155-.893a3.564,3.564,0,0,0-.355-1.694c-.169-.339-.347-.779-.8-.893a8.553,8.553,0,0,1-1.864-.88,6.365,6.365,0,0,0-1.432-.368,6.208,6.208,0,0,1-1.418-.525c-.481-.241-.852-.741-1.339-.985-.523-.261-.792-.744-1.247-.971-.358-.179-.679-.346-1.064-.539-.3-.15-1.05-.314-1.247-.709a1.913,1.913,0,0,0-.63-.8,6.236,6.236,0,0,0-1.326-.8,2.513,2.513,0,0,1-1.247-.984,3.928,3.928,0,0,0-1.6-1.418c-.453-.226-1.04-.575-1.432-.184-.268.268-.684,1.037-1.156.8a4.971,4.971,0,0,1-1.063-.709c-.6-.449-.571-.346-1.339-.538a12.36,12.36,0,0,1-1.6-.617c-.412-.165-1.253-.852-1.418-.893a3.79,3.79,0,0,1-1.248-.617c-.373-.28-.757-.4-.984-.63a5.181,5.181,0,0,0-1.156-.971,2.777,2.777,0,0,0-1.339-.184c-.729,0-.879-.349-1.326-.617-.525-.315-.835-.682-1.34-.984-.148-.089-.3-.174-.446-.263a1.538,1.538,0,0,1-.709-1.34c0-.378-.109-1.23.092-1.431.411-.411.366-.617,1.156-.617.666,0,1,.1,1.155-.538.066-.263.247-1,0-1.326a2.573,2.573,0,0,0-.985-.893c-.521-.261-.525-.414-.525-1.064,0-.345.006-1.159-.354-1.339-.641-.321-.66-.031-1.248.263-.545.272-.727.8-1.431.8-.64,0-.839-.025-1.155-.263C550.467,450.288,550.414,450.251,550.359,450.217Z" transform="translate(-113.45 -39.659)" fill="#5751c8" stroke="#eaecff" stroke-width="0.5" fill-rule="evenodd"/><path d="M385.5,474.942l.013-.013a1.948,1.948,0,0,1,.551-.433c.169-.085.449-.263.722-.42a1.941,1.941,0,0,1,.709-.3,2.644,2.644,0,0,1,.827.105,1.677,1.677,0,0,1,.683.433,4.351,4.351,0,0,1,.972,1.155c.068.137.2.46.341.762a1.56,1.56,0,0,0,.46.669,3.977,3.977,0,0,0,.591.263,2.392,2.392,0,0,0,.749.092,7.1,7.1,0,0,1,1.694.092c.23.058.49.132.748.171a1.23,1.23,0,0,0,.762-.092c.3-.148.392-.274.407-.446s-.053-.387-.053-.709a5.921,5.921,0,0,0-.079-1.418,1.957,1.957,0,0,1-.066-.774,2.227,2.227,0,0,1,.236-.657,8.181,8.181,0,0,1,.893-1.326,5.729,5.729,0,0,1,1.248-1.247c.207-.155.4-.375.617-.564a1.718,1.718,0,0,1,.709-.42,3.348,3.348,0,0,0,.683-.276,1.618,1.618,0,0,1,.748-.171,1.785,1.785,0,0,1,.814.21,3.954,3.954,0,0,0,.788.328,5.581,5.581,0,0,0,1.6.263c.618,0,.984-.171,1.51-.171a6.179,6.179,0,0,0,1.34,0,6.308,6.308,0,0,1,.853-.131,1.759,1.759,0,0,0,.748-.224,5.81,5.81,0,0,0,1.248-.893,1.721,1.721,0,0,0,.407-.748,5.57,5.57,0,0,1,.3-.853c.035-.07.105-.179.158-.276a4.3,4.3,0,0,1-.158-.749,5.7,5.7,0,0,1,.079-1.1,1.935,1.935,0,0,1,.184-.551.85.85,0,0,1,.368-.355,1.07,1.07,0,0,0,.394-.328,1.251,1.251,0,0,0,.184-.368,1.7,1.7,0,0,1,.42-.814c.092-.092,1.5-.488,1.51-.512a1.347,1.347,0,0,0-.053-.84,9.06,9.06,0,0,1-.315-.919c-.138-.553-.214-1.093-.381-1.759-.2-.79-.688-1.373-.88-2.14a2.091,2.091,0,0,0-.341-.748,4.361,4.361,0,0,1-.42-.644,3.189,3.189,0,0,0-.552-.761,5.73,5.73,0,0,0-.709-.617,5.709,5.709,0,0,1-.735-.63,1.986,1.986,0,0,1-.512-.88,8.351,8.351,0,0,1-.2-1.287,3.933,3.933,0,0,1,0-.735.876.876,0,0,1,.2-.5c.157-.157.313-.418.525-.669a1.638,1.638,0,0,1,.853-.591,9.136,9.136,0,0,0,.893-.236,2.269,2.269,0,0,0,.867-.512c.141-.141.456-.34.748-.578a1.765,1.765,0,0,0,.643-.814,4.492,4.492,0,0,1,.368-.84,2.694,2.694,0,0,0,.171-.617c-.031-.024-.093-.037-.118-.066a1.455,1.455,0,0,1-.25-.617,4.02,4.02,0,0,0-.249-.748,1.555,1.555,0,0,0-.46-.591c-.226-.17-.407-.334-.591-.486a2.321,2.321,0,0,0-.657-.394,10.188,10.188,0,0,0-1.431-.184,3.736,3.736,0,0,0-.709-.105,1.487,1.487,0,0,0-.709.105,7.4,7.4,0,0,0-1.34.8.959.959,0,0,0-.394.46,2.382,2.382,0,0,0-.053.7v1.51a7.316,7.316,0,0,1-.263,1.878,1.809,1.809,0,0,1-.21.565,1.188,1.188,0,0,1-.5.407,2.237,2.237,0,0,1-1.247.276,9.021,9.021,0,0,0-1.155-.276c-.575,0-.885-.263-1.34-.263a2.394,2.394,0,0,0-.722.092,1.031,1.031,0,0,0-.525.355,2.874,2.874,0,0,1-1.063.8,7.174,7.174,0,0,1-.683.25,1.762,1.762,0,0,0-.656.368,2.764,2.764,0,0,1-.735.381c-.289.123-.561.249-.6.42-.08.321.058,1.039-.092,1.34a2.173,2.173,0,0,1-.473.617c-.187.178-.4.343-.591.539-.25.25-.368.46-.709.8a3.394,3.394,0,0,1-.512.446.967.967,0,0,1-.735.184.63.63,0,0,1-.355-.171.619.619,0,0,1-.118-.263,1.219,1.219,0,0,0-.118-.289.685.685,0,0,0-.3-.263,2.153,2.153,0,0,0-.538-.223,1.329,1.329,0,0,0-.525.039,1.212,1.212,0,0,0-.617.249.839.839,0,0,0-.184.644c0,.51.092.919.092,1.431a3,3,0,0,1-.184,1.247c-.2.49-.3.858-.539,1.326a4.312,4.312,0,0,1-.446.761.7.7,0,0,1-.276.224.207.207,0,0,1-.25-.092c-.185-.247-.677-.605-.893-.893-.313-.417-.809-1.163-1.063-1.418a4.7,4.7,0,0,0-.565-.447,1.289,1.289,0,0,1-.42-.446,1.346,1.346,0,0,0-.433-.46,1.4,1.4,0,0,1-.46-.512,4.1,4.1,0,0,0-.893-.984c-.348-.348-.632-.461-1.063-.893a11.151,11.151,0,0,0-1.248-1.064,7.029,7.029,0,0,0-1.326-.709,6.773,6.773,0,0,0-.657-.315,1.845,1.845,0,0,0-.42-.118c-.122-.015-.213,0-.263.066-.124.165-.241.361-.381.538a1.564,1.564,0,0,1-.512.447,3.06,3.06,0,0,1-.643.223,1.909,1.909,0,0,1-.775.039,8.605,8.605,0,0,1-.985-.237,1.336,1.336,0,0,1-.381-.25c-.234-.008-.483-.025-.735-.013a1.2,1.2,0,0,0-.814.263,2.014,2.014,0,0,0-.447.735,2.979,2.979,0,0,0-.184,1.024,1,1,0,0,1-.132.538,1.335,1.335,0,0,1-.3.328,2.185,2.185,0,0,0-.3.276.54.54,0,0,0-.145.368,3.076,3.076,0,0,1-.079,1.037.5.5,0,0,1-.263.263,1.262,1.262,0,0,1-.538.092,1.126,1.126,0,0,0-.551.092c-.092.057-.1.127-.053.223a2.7,2.7,0,0,0,.722.683,8.888,8.888,0,0,0,.84.578,3.9,3.9,0,0,0,1.05.433c.282.071.634.1.972.158a2.145,2.145,0,0,1,.919.355,2.835,2.835,0,0,0,.959.5,4.257,4.257,0,0,0,1.182.118c.307,0,.658-.034,1.011-.053a3.476,3.476,0,0,1,1,.053c.245.061.633.127,1,.223a2.07,2.07,0,0,1,.893.407,9.686,9.686,0,0,1,.7.683,1.125,1.125,0,0,1,.236.394.587.587,0,0,1-.053.433,7.755,7.755,0,0,1-.446.827,5.214,5.214,0,0,1-.683.814,13.908,13.908,0,0,1-1.379.879,1.5,1.5,0,0,0-.486.539,1.941,1.941,0,0,0-.145.853.743.743,0,0,0,.132.512.464.464,0,0,0,.368.118c.3,0,.708-.132,1.129-.132a3.788,3.788,0,0,1,1.2.145,2.39,2.39,0,0,1,.945.617c.066.066.377.285.657.551a2.453,2.453,0,0,1,.368.42.579.579,0,0,1,.118.407,6.652,6.652,0,0,1-.237.972,2.085,2.085,0,0,1-.525.788,2.657,2.657,0,0,0-.525.748,2.373,2.373,0,0,0-.223,1.011,5.527,5.527,0,0,0,.026.88,1.1,1.1,0,0,0,.341.63c.15.15.287.368.46.578a2.116,2.116,0,0,0,.683.564C385,474.62,385.238,474.786,385.5,474.942Z" transform="translate(-16.63 -35.155)" fill="#5751c8" stroke="#eaecff" stroke-width="0.5" fill-rule="evenodd"/><path d="M357.525,507.54a.461.461,0,0,1-.118.276,3.3,3.3,0,0,0-.709,1.064,6.235,6.235,0,0,0-.447,1.247c-.106.424-.071.888-.184,1.34a1.691,1.691,0,0,1-.8,1.326c-.432.216-1.889.494-2.048.893-.529.4-.83.4-1.064.985a8.652,8.652,0,0,1-.617,1.418c-.18.24-.722.725-.722,1.155v1.339a5.641,5.641,0,0,1-.263,1.51c-.1.385-.709.871-.709,1.34,0,.324-.092.906-.092,1.418a3.129,3.129,0,0,0,.538,2.587c.193.386.374.843.617,1.248a2.09,2.09,0,0,1,.446,1.247,2.581,2.581,0,0,0,.184,1.339,5.706,5.706,0,0,1,.8,1.063c.087.174.6,1.34.88,1.34a4.228,4.228,0,0,0,1.247-.184c.524-.131,1.006-.137,1.51-.263s1.129.151,1.615-.092c.284-.142.909-.308,1.155-.8.124-.247.621-.963.971-.893a3.952,3.952,0,0,1,1.248.447,3.689,3.689,0,0,1,1.063.709c.31.31.86.6,1.248.985s1,.542,1.431.971a6.859,6.859,0,0,0,1.248,1.156,3.082,3.082,0,0,0,.289.132,8.232,8.232,0,0,0,.42-1.2,3.674,3.674,0,0,1,.919-1.891,1.276,1.276,0,0,0,.328-.683c0-.219.042-.585.053-.932a1.5,1.5,0,0,0-.144-.853,2.318,2.318,0,0,1-.355-.617,4.8,4.8,0,0,1-.184-.722c-.044-.221-.023-.5-.052-.762a.905.905,0,0,0-.3-.656,1.658,1.658,0,0,1-.552-.7,2.322,2.322,0,0,1-.158-.906c0-.2-.08-.578-.131-.958a1.922,1.922,0,0,1,.039-1,3.174,3.174,0,0,0,.224-.814,1.839,1.839,0,0,1,.315-.788,6.981,6.981,0,0,1,.748-.827,4.751,4.751,0,0,1-.578-.171,2.331,2.331,0,0,1-.8-.512c-.388-.388-.79-1.04-1-1.248a2.758,2.758,0,0,1-.539-.827,6.583,6.583,0,0,1-.341-1.063,4.014,4.014,0,0,0-.315-.84,3.066,3.066,0,0,0-.565-.8c-.156-.156-.506-.421-.827-.722a2.363,2.363,0,0,1-.7-.906,10.667,10.667,0,0,0-.88-2.022c-.076-.153-.3-.523-.5-.906a2.95,2.95,0,0,1-.381-.985,1.093,1.093,0,0,0-.092-.486.775.775,0,0,0-.276-.3,1.619,1.619,0,0,0-.893-.21Z" transform="translate(-3.996 -73.373)" fill="#5751c8" stroke="#eaecff" stroke-width="0.5" fill-rule="evenodd"/><path d="M353.53,462.041h1.208a1.619,1.619,0,0,1,.893.21.775.775,0,0,1,.276.3,1.093,1.093,0,0,1,.092.486,2.95,2.95,0,0,0,.381.985c.2.383.422.753.5.906a10.669,10.669,0,0,1,.88,2.022,2.363,2.363,0,0,0,.7.906c.321.3.671.566.827.722a3.066,3.066,0,0,1,.565.8,4.013,4.013,0,0,1,.315.84,6.588,6.588,0,0,0,.341,1.063,2.76,2.76,0,0,0,.539.827c.208.208.61.86,1,1.248a2.331,2.331,0,0,0,.8.512,4.749,4.749,0,0,0,.578.171c.049-.049.092-.105.145-.158.249-.249.405-.668.709-.972.257-.257.863-1.285,1.156-1.431a3.68,3.68,0,0,0,.985-.8c.4-.4.72-.812,1.155-1.248a9.913,9.913,0,0,0,.893-1.248c.121-.162.25-.351.407-.525-.258-.156-.5-.322-.775-.46a2.116,2.116,0,0,1-.683-.564c-.173-.21-.31-.428-.46-.578a1.1,1.1,0,0,1-.341-.63,5.531,5.531,0,0,1-.026-.88,2.373,2.373,0,0,1,.223-1.011,2.657,2.657,0,0,1,.525-.748,2.086,2.086,0,0,0,.525-.788,6.657,6.657,0,0,0,.237-.972.579.579,0,0,0-.118-.407,2.452,2.452,0,0,0-.368-.42c-.279-.266-.59-.485-.657-.551a2.39,2.39,0,0,0-.945-.617,3.788,3.788,0,0,0-1.2-.145c-.421,0-.825.129-1.129.132a.464.464,0,0,1-.368-.118.743.743,0,0,1-.132-.512,1.941,1.941,0,0,1,.145-.853,1.5,1.5,0,0,1,.486-.539,13.914,13.914,0,0,0,1.379-.879,5.218,5.218,0,0,0,.683-.814,7.763,7.763,0,0,0,.446-.827.587.587,0,0,0,.053-.433,1.125,1.125,0,0,0-.236-.394,9.68,9.68,0,0,0-.7-.683,2.07,2.07,0,0,0-.893-.407c-.365-.1-.753-.162-1-.223a3.475,3.475,0,0,0-1-.053c-.353.018-.7.053-1.011.053a4.255,4.255,0,0,1-1.182-.118,2.834,2.834,0,0,1-.959-.5,2.146,2.146,0,0,0-.919-.355c-.338-.06-.69-.087-.972-.158a3.9,3.9,0,0,1-1.05-.433,8.887,8.887,0,0,1-.84-.578,2.7,2.7,0,0,1-.722-.683c-.047-.1-.04-.166.052-.223a1.126,1.126,0,0,1,.551-.092,1.262,1.262,0,0,0,.538-.092.5.5,0,0,0,.263-.263,3.075,3.075,0,0,0,.079-1.037.54.54,0,0,1,.145-.368,2.181,2.181,0,0,1,.3-.276,1.336,1.336,0,0,0,.3-.328,1,1,0,0,0,.132-.538,2.979,2.979,0,0,1,.184-1.024,2.014,2.014,0,0,1,.447-.735,1.2,1.2,0,0,1,.814-.263c.253-.012.5.005.735.013-.113-.074-.305-.13-.328-.223a.622.622,0,0,1,.013-.394.664.664,0,0,1,.21-.263,7.436,7.436,0,0,0,.67-.5c.187-.187.35-.292.486-.42a1.076,1.076,0,0,0,.315-.565,3.223,3.223,0,0,0,0-1.51c-.125-.5-.406-.8-.538-1.327-.056-.223-.076-.426-.118-.6a.942.942,0,0,0-.237-.473c-.411-.411-.86-.506-1.155-.8a5.31,5.31,0,0,1-1.077-1.248c-.259-.518-.356-.9-.617-1.418a4.1,4.1,0,0,1-.263-.538.906.906,0,0,1,0-.709,4.682,4.682,0,0,0,.525-1.247,4.263,4.263,0,0,1,.25-.6.8.8,0,0,0,.105-.552,1.624,1.624,0,0,0-.25-.354,1.177,1.177,0,0,0-.552-.355c-.423-.106-.8-.314-1.326-.447a1.311,1.311,0,0,0-.788,0,7.269,7.269,0,0,1-.735.263c-.118.03-.236.062-.355.092a5.882,5.882,0,0,1-1.51.171,5.485,5.485,0,0,1-1.34-.079,2.7,2.7,0,0,1-.5-.184c-.013,0-.013,0-.026,0a5.593,5.593,0,0,1-1.248-.538c-.155-.078-.8-.531-1.155-.355-.91.455-.092.26-.092,1.156,0,.655.525,1.011,1.155,1.169.187.047,1.155.334,1.155.525,0,.251.15,1.232,0,1.431-.6.8-.457.382-1.064.079-.256-.128-.937-.374-1.076.184-.171.682-.342.652-.171,1.339.055.221.247.993-.092,1.247a7.543,7.543,0,0,0-.972.8,1.067,1.067,0,0,0-.446,1.064,2.185,2.185,0,0,0,.617,1.339c.258.258.984.771.984,1.155a6.953,6.953,0,0,0,0,1.51c.164.658.586.555.8.985a1.727,1.727,0,0,1,.079,1.234,6.248,6.248,0,0,1-.355,1.248,1.407,1.407,0,0,0-.171,1.248,1.275,1.275,0,0,0,.709.984c.059.035,1.091.833,1.063.972-.058.288-.06.8-.525.8a1.66,1.66,0,0,0-1.155.368,10.3,10.3,0,0,1-.893.617,6.952,6.952,0,0,1-1.155.709c-.333.167-.66.422-1.077.63-.288.144-.669.374-.971.525-.453.227-1.308,1.03-1.431.539.354.59.158.565.63.8a5.1,5.1,0,0,1,1.247.8c.356.355.839.471,1.156.893s.653.468.972.893a13.082,13.082,0,0,0,1.156,1.063,10.453,10.453,0,0,0,1.169,1.064,11.483,11.483,0,0,1,1.234.984c.383.383.753.477,1.169.893a3.383,3.383,0,0,0,1.156.709C352.949,461.193,353.637,461.577,353.53,462.041Z" transform="translate(0 -27.874)" fill="#5751c8" stroke="#eaecff" stroke-width="0.5" fill-rule="evenodd"/><path d="M484.906,581.82c-.048-.016-.065-.052-.118-.066a6.992,6.992,0,0,0-2.009-.249,2.955,2.955,0,0,0-.971.131,5.848,5.848,0,0,1-.788.237,8.629,8.629,0,0,1-.919.2c-.156-.005-.284-.1-.722-.315a11.794,11.794,0,0,1-1.261-1.392,2.09,2.09,0,0,1-.5-.63,1.361,1.361,0,0,1,0-.88.717.717,0,0,0-.066-.46,2.433,2.433,0,0,0-.315-.486,7.326,7.326,0,0,0-.63-.683,3.637,3.637,0,0,0-.67-.578,3.024,3.024,0,0,0-.84-.3,2.036,2.036,0,0,0-.906-.013,4.516,4.516,0,0,1-.854.132,2.393,2.393,0,0,0-1.1.263,1.475,1.475,0,0,0-.656.617,1.908,1.908,0,0,1-.447.644,1.211,1.211,0,0,1-.814.236,2.266,2.266,0,0,1-1.09-.2,3.569,3.569,0,0,1-.8-.683c-.275-.274-.477-.529-.7-.761a2.754,2.754,0,0,0-.814-.617l-.5-.25a1.538,1.538,0,0,1-.67-.683,2.176,2.176,0,0,0-.263-.368,1.54,1.54,0,0,0-.46-.341,1.921,1.921,0,0,0-.971-.223,1.668,1.668,0,0,0-.919.354,13.76,13.76,0,0,0-1.261,1.129c-.248.248-.408.527-.6.748a1.246,1.246,0,0,1-.329.276.914.914,0,0,1-.446.105,1.652,1.652,0,0,0-.7.315,1.871,1.871,0,0,1-.945.315,1.345,1.345,0,0,1-.788-.315,6.223,6.223,0,0,0-.84-.564,8.412,8.412,0,0,1-1.51-.88,5.916,5.916,0,0,1-.814-.814c-.052-.058-.118-.089-.171-.144a.805.805,0,0,1-.341.368,2.124,2.124,0,0,1-.735.079c-.192,0-.476-.035-.749-.026a1.009,1.009,0,0,0-.669.2c-.366.366-.5.484-.814.8a2.862,2.862,0,0,1-.473.341.739.739,0,0,0-.328.46,6.751,6.751,0,0,0-.079,1.247,2.5,2.5,0,0,1-.079.656,1.067,1.067,0,0,1-.276.5c-.405.405-.52.7-.893,1.076a9.9,9.9,0,0,1-1.221.945,4.713,4.713,0,0,1,.591.21,4.886,4.886,0,0,1-.263,1.063,8.089,8.089,0,0,1-.447,1.064,2.688,2.688,0,0,1-.8,1.169,1.822,1.822,0,0,1-1.34.355c-.3,0-1.419-.1-1.51.263-.134.537-.319.617-.972.617h-1.339c-.988,0-.447.431-.447.893,0,.06-.026.131,0,.184a4.4,4.4,0,0,0,.985,1.064c.333.333.793.7,1.156,1.063a4.772,4.772,0,0,0,1.155.893c.445.222.724.507,1.155.722a2.469,2.469,0,0,1,.893.8c.336.448.209.852.446,1.327.109.218.337,1.062.709,1.156.651.163.929.722,1.773.722a4.676,4.676,0,0,0,1.247-.184c.434-.108.8-.263,1.169-.355.49-.122.865-.239,1.326-.355a1.472,1.472,0,0,1,1.247.263,7.593,7.593,0,0,1,.893.709,4.177,4.177,0,0,1,.8,1.339c.216.432.568.685.709,1.247a2.329,2.329,0,0,0,.63,1.248,3.326,3.326,0,0,0,.972.617c.3.15.528.539.893.722.438.219.524.535.985.88a8.494,8.494,0,0,0,1.155.893c.412.206.655.8,1.247.8a4.917,4.917,0,0,1,1.327.184c.44.11.778.26,1.155.355.4.1,1.076.5,1.156.893.084.42.123,1.123.63,1.326.407.163.9.893,1.51.893h2.941c.34,0,1.151-.124,1.248.263.052.208.432,1.247.8,1.247.524,0,.839-.263,1.248-.263.534,0,1.131-.184,1.6-.184.547,0,.984.092,1.51.092a2.327,2.327,0,0,0,1.248-.355,3.073,3.073,0,0,1,1.34-.263c.294,0,1.3-.16,1.51,0a1.332,1.332,0,0,1,.709,1.063,3.15,3.15,0,0,0,.617,1.34c.3.4.36.576.893.709.31.078,1.09.105,1.339.355.364.364.5.667.985,1.156.232.232.962.713,1.234.985.213.214.808.666,1.248.446a4.388,4.388,0,0,0,1.155-.63c.22-.22.829-.489.985-.8.2-.41.169-.784.355-1.156.129-.258,1.155-.848,1.155-1.156v-3.033a4.222,4.222,0,0,1,.184-1.234,6.485,6.485,0,0,1,.447-1.34,3.448,3.448,0,0,1,.8-1.063c.219-.219.787-.471.893-.893s.062-.906.171-1.339a5.619,5.619,0,0,0,.092-1.34,2.252,2.252,0,0,1,.263-1.247,3.087,3.087,0,0,1,.709-1.155,2.884,2.884,0,0,0,.342-.341,4.187,4.187,0,0,0-1.05-.46,2.335,2.335,0,0,0-.8-.066,5.279,5.279,0,0,0-.8.158c-.571.143-1.1.481-1.694.63a1.55,1.55,0,0,0-.656.355,1.914,1.914,0,0,1-.5.354,3.1,3.1,0,0,0-.656.46,1.215,1.215,0,0,1-.67.342c-.164,0-.455.031-.709.026s-.474-.05-.538-.21c-.1-.249-.056-.645-.184-1.156-.05-.2-.031-.483-.066-.722a.715.715,0,0,0-.105-.315.321.321,0,0,0-.276-.118c-.27,0-.652.03-1.024.013a1.432,1.432,0,0,1-.932-.276c-.178-.178-.33-.3-.46-.433a1.594,1.594,0,0,1-.341-.552c-.065-.163-.219-.474-.315-.788a1.527,1.527,0,0,1-.079-.459.49.49,0,0,1,.132-.355c.253-.253.8-.54,1.155-.893a.921.921,0,0,0,.289-.63.616.616,0,0,0-.079-.328.864.864,0,0,0-.3-.289,7.652,7.652,0,0,0-1.956-.88,4.882,4.882,0,0,1-.749-.236c-.252-.11-.462-.264-.5-.486a1.453,1.453,0,0,0-.355-.722,1.507,1.507,0,0,1-.355-.6,4.7,4.7,0,0,1-.118-.669.9.9,0,0,1,.118-.67.705.705,0,0,1,.552-.263,1.038,1.038,0,0,1,.6.355,3.244,3.244,0,0,0,.5.486.568.568,0,0,0,.315.092,1.05,1.05,0,0,0,.433-.132,3.145,3.145,0,0,0,1.156-.893,6.557,6.557,0,0,0,.289-.709c.118-.343.2-.69.066-.722s-.551-.04-.945-.105a2.375,2.375,0,0,1-.552-.145.458.458,0,0,1-.289-.276,1.513,1.513,0,0,1,.053-.735,3.077,3.077,0,0,0,.131-.7A.748.748,0,0,1,484.906,581.82Z" transform="translate(-57.161 -111.964)" fill="#5751c8" stroke="#eaecff" stroke-width="0.5" fill-rule="evenodd"/><path d="M509.158,500.54c-.017.016-.036.023-.053.039a6.73,6.73,0,0,1-.827.617,2.029,2.029,0,0,1-.814.394c-.083-.021-.488-.124-.906-.184s-.851-.081-.985.053a3.164,3.164,0,0,1-.63.525,1.416,1.416,0,0,1-.486.184.828.828,0,0,1-.512-.079,7.73,7.73,0,0,0-.972-.42,1.941,1.941,0,0,0-.564-.118.356.356,0,0,0-.355.158,2.182,2.182,0,0,0-.223.788,2.971,2.971,0,0,0,.092.984,4.484,4.484,0,0,1,.145.932,2.006,2.006,0,0,1-.053.525.863.863,0,0,1-.21.42,5.345,5.345,0,0,0-1.011,1.392,3.193,3.193,0,0,0-.328.854c-.044.218-.056.446-.171.906a10.838,10.838,0,0,0-.184,1.076c-.056.487-.072.971.053,1.064.1.074.508.326.893.6s.748.588.748.788a4.33,4.33,0,0,1-.131,1.116,1.883,1.883,0,0,1-.237.525,1.018,1.018,0,0,1-.394.368,4.458,4.458,0,0,1-.932.3,2.33,2.33,0,0,0-.827.328,4.431,4.431,0,0,1-.8.434,2.29,2.29,0,0,1-.591.171.706.706,0,0,1-.5-.105c-.271-.2-.529-.456-.827-.657a1.858,1.858,0,0,0-1.063-.341,2.865,2.865,0,0,0-.958.105,8.007,8.007,0,0,0-.8.394,4.135,4.135,0,0,1-.972.394,1.343,1.343,0,0,1-.919-.145c-.326-.163-.676-.385-1.024-.565a2.332,2.332,0,0,0-.985-.315,4.517,4.517,0,0,0-.879.1,1.8,1.8,0,0,0-.447.158c-.116.066-.184.141-.184.237,0,.22.02.605,0,.958a1.158,1.158,0,0,1-.25.814,5.155,5.155,0,0,1-.657.42,3.7,3.7,0,0,1-.853.328,3.731,3.731,0,0,1-1.759,0,3.806,3.806,0,0,1-.683-.342,1.189,1.189,0,0,0-.84-.158.979.979,0,0,0-.447.25,3.717,3.717,0,0,0-.328.381,1.673,1.673,0,0,1-.355.342.843.843,0,0,1-.5.158,1.431,1.431,0,0,1-.565-.079.4.4,0,0,1-.21-.236,2.623,2.623,0,0,0-.355-.814,1.446,1.446,0,0,0-.578-.551,2.761,2.761,0,0,0-.932-.079c-.04,0-.042-.012-.079-.013a2.169,2.169,0,0,1-.223.906,3.33,3.33,0,0,1-.88,1.077,1.606,1.606,0,0,1-.6.3,3.2,3.2,0,0,1-.735.053,2.906,2.906,0,0,0-.748.079,3.565,3.565,0,0,0-.683.276c-.123.062-1.1.743-1.156.972a1.06,1.06,0,0,0-.013.748,2.41,2.41,0,0,0,.46.5c.121.121.347.333.551.551a1.852,1.852,0,0,1,.433.617,5.258,5.258,0,0,1,.263,1.418v1.786c0,.5-.171.986-.171,1.418a2.59,2.59,0,0,1-.368,1.248c-.162.324-.617.867-.617,1.156a1.551,1.551,0,0,1-.171.709,3.142,3.142,0,0,0-.276.63,2.846,2.846,0,0,1-.368.8c-.154.249-.32.482-.433.709-.026.051-.054.05-.079.092.053.055.118.087.171.144a5.917,5.917,0,0,0,.814.814,8.411,8.411,0,0,0,1.51.88,6.224,6.224,0,0,1,.84.564,1.345,1.345,0,0,0,.788.315,1.871,1.871,0,0,0,.945-.315,1.652,1.652,0,0,1,.7-.315.913.913,0,0,0,.446-.105,1.243,1.243,0,0,0,.329-.276c.2-.221.355-.5.6-.748a13.769,13.769,0,0,1,1.261-1.129,1.668,1.668,0,0,1,.919-.354,1.921,1.921,0,0,1,.971.223,1.539,1.539,0,0,1,.46.341,2.175,2.175,0,0,1,.263.368,1.537,1.537,0,0,0,.67.683l.5.25a2.754,2.754,0,0,1,.814.617c.218.232.421.487.7.761a3.57,3.57,0,0,0,.8.683,2.266,2.266,0,0,0,1.09.2,1.212,1.212,0,0,0,.814-.236,1.909,1.909,0,0,0,.447-.644,1.475,1.475,0,0,1,.656-.617,2.393,2.393,0,0,1,1.1-.263,4.511,4.511,0,0,0,.854-.132,2.037,2.037,0,0,1,.906.013,3.024,3.024,0,0,1,.84.3,3.642,3.642,0,0,1,.67.578,7.335,7.335,0,0,1,.63.683,2.437,2.437,0,0,1,.315.486.717.717,0,0,1,.066.46,1.361,1.361,0,0,0,0,.88,2.089,2.089,0,0,0,.5.63,11.8,11.8,0,0,0,1.261,1.392c.439.22.566.31.722.315a8.636,8.636,0,0,0,.919-.2,5.839,5.839,0,0,0,.788-.237,2.955,2.955,0,0,1,.971-.131,6.99,6.99,0,0,1,2.009.249c.054.014.07.05.118.066,0,0,.01,0,.013,0a3.315,3.315,0,0,1,.6-.342,7.336,7.336,0,0,0,1.694-.985,1.79,1.79,0,0,1,.7-.394,2.684,2.684,0,0,1,.814-.145h1.51c.437,0,.575-.026.67-.118a5.09,5.09,0,0,1,.394-.5.8.8,0,0,1,.552-.3c.169-.008.359.039.7.039a1.475,1.475,0,0,0,.683-.092.31.31,0,0,0,.145-.21,1.087,1.087,0,0,0-.026-.42,1.215,1.215,0,0,0-.42-.775,4.513,4.513,0,0,0-.827-.46,4.581,4.581,0,0,1-1.418-.985,7.7,7.7,0,0,1-.8-.8,3.126,3.126,0,0,0-.263-.355,2.032,2.032,0,0,1-.473-.761,8.421,8.421,0,0,0-.328-.84,9.251,9.251,0,0,1-.446-1.694,2.236,2.236,0,0,0-.342-.762,2.132,2.132,0,0,0-.643-.578,7.538,7.538,0,0,1-1.156-.709c-.2-.2-.455-.486-.722-.762a3.372,3.372,0,0,0-.788-.656,4.725,4.725,0,0,0-.866-.21,1.953,1.953,0,0,1-.447-.145.62.62,0,0,1-.289-.276,2.626,2.626,0,0,1-.2-.6.757.757,0,0,1,.013-.381.266.266,0,0,1,.276-.171,2.427,2.427,0,0,1,1.156.263c.163.081.326.2.512.289a1.428,1.428,0,0,0,.643.158,1.343,1.343,0,0,0,.512-.066.444.444,0,0,0,.21-.2,1.045,1.045,0,0,1,.525-.538c0-.059-.053-.144,0-.171a2.134,2.134,0,0,1,.617-.2,1.079,1.079,0,0,1,.709.105,2.529,2.529,0,0,1,.46.512c.162.2.334.381.525.381a7.4,7.4,0,0,0,1.6,0,1.6,1.6,0,0,0,.591-.394,1.313,1.313,0,0,0,.25-.328.532.532,0,0,0,.053-.355.88.88,0,0,0-.394-.538,2.462,2.462,0,0,1-.591-.525,1.048,1.048,0,0,1-.237-.709c0-.244.066-.522.066-.893a5.129,5.129,0,0,1,.053-.867,1.411,1.411,0,0,1,.131-.42.42.42,0,0,1,.263-.223c.244-.061.477-.14.722-.184a2.06,2.06,0,0,1,.788,0,7.945,7.945,0,0,0,1.51.184c.2,0,.755.059,1.287.079a4.879,4.879,0,0,0,.722-.013c.2-.024.352-.074.394-.158a2.778,2.778,0,0,0,.2-.578,1.255,1.255,0,0,0-.013-.761,1.814,1.814,0,0,0-.512-.63,1.949,1.949,0,0,0-.735-.342,3.479,3.479,0,0,1-1.011-.486,1.608,1.608,0,0,1-.683-.762,6.5,6.5,0,0,1-.184-1.339,5.778,5.778,0,0,0-.118-.762,1.292,1.292,0,0,1,.039-.748c.29-.58.473-.776.709-1.247a7.528,7.528,0,0,0,.355-1.418,5.573,5.573,0,0,0,.184-1.431,5.507,5.507,0,0,0,0-1.51c-.055-.221-.1-.481-.158-.722a1.3,1.3,0,0,0-.289-.617c-.153-.153-.383-.317-.578-.5a1.32,1.32,0,0,1-.407-.565,11.146,11.146,0,0,0-.354-1.431,3.877,3.877,0,0,0-.893-1.418,4.806,4.806,0,0,0-.617-.447,1.035,1.035,0,0,1-.447-.617C509.164,500.618,509.165,500.57,509.158,500.54Z" transform="translate(-75.557 -69.314)" fill="#5751c8" stroke="#eaecff" stroke-width="0.5" fill-rule="evenodd"/><path d="M478.353,420.572a8.771,8.771,0,0,1-.919.853c-.463.347-.648.683-1.155,1.063-.155.117-.385.223-.565.368a.721.721,0,0,0-.21.263.522.522,0,0,0-.026.355c.075.3.416.908.355,1.155-.045.182-.058.448-.132.67a.665.665,0,0,1-.158.289.468.468,0,0,1-.328.118,8.15,8.15,0,0,1-.827-.118,1.5,1.5,0,0,0-.775.026,3.685,3.685,0,0,0-.564.276.572.572,0,0,0-.21.236.289.289,0,0,0,.066.289c.126.167.327.335.486.512a.633.633,0,0,1,.223.551,6.384,6.384,0,0,1-.709,1.431c-.248.5-.532.881-.8,1.418a.8.8,0,0,0-.105.722,1.742,1.742,0,0,0,.551.525c.162.121.5.4.8.683a2.4,2.4,0,0,1,.617.735,1.34,1.34,0,0,1,.04.5,2.06,2.06,0,0,1-.223.669,1.49,1.49,0,0,1-.368.512.918.918,0,0,1-.6.2h-1.339c-.573,0-.981.263-1.51.263a3.3,3.3,0,0,1-1.248-.092,7.162,7.162,0,0,1-1.155-.617,7.3,7.3,0,0,1-.735-.709,3.154,3.154,0,0,0-.775-.63,6.651,6.651,0,0,0-1.247-.263,1.055,1.055,0,0,1-.434-.21,2.692,2.692,0,0,1-.171.617,4.494,4.494,0,0,0-.368.84,1.765,1.765,0,0,1-.643.814c-.292.237-.608.437-.748.578a2.269,2.269,0,0,1-.867.512,9.147,9.147,0,0,1-.893.236,1.638,1.638,0,0,0-.853.591c-.212.252-.368.512-.525.669a.876.876,0,0,0-.2.5,3.931,3.931,0,0,0,0,.735,8.355,8.355,0,0,0,.2,1.287,1.987,1.987,0,0,0,.512.88,5.707,5.707,0,0,0,.735.63,5.738,5.738,0,0,1,.709.617,3.19,3.19,0,0,1,.552.761,4.359,4.359,0,0,0,.42.644,2.092,2.092,0,0,1,.341.748c.192.767.682,1.351.88,2.14.166.666.242,1.206.381,1.759a9.053,9.053,0,0,0,.315.919,1.347,1.347,0,0,1,.052.84c-.006.024-1.418.42-1.51.512a1.7,1.7,0,0,0-.42.814,1.251,1.251,0,0,1-.184.368,1.07,1.07,0,0,1-.394.328.85.85,0,0,0-.368.355,1.935,1.935,0,0,0-.184.551,5.7,5.7,0,0,0-.079,1.1,4.3,4.3,0,0,0,.158.749,2.571,2.571,0,0,1,.171-.3.991.991,0,0,1,.473-.407,4.327,4.327,0,0,0,.578-.21,1.733,1.733,0,0,1,.669-.145.973.973,0,0,1,.683.2,1.936,1.936,0,0,1,.381.6,6.364,6.364,0,0,1,.63,1.339,2.933,2.933,0,0,1,0,1.326,2.4,2.4,0,0,0-.053.67,1.924,1.924,0,0,0,.144.578,3.116,3.116,0,0,0,.315.6,1.474,1.474,0,0,0,.486.472,3.169,3.169,0,0,1,.643.42,3.837,3.837,0,0,1,.591.644,1.386,1.386,0,0,1,.289.643,1.846,1.846,0,0,0,.158.6c.163.328.189.732.354,1.064a4.289,4.289,0,0,0,.394.683,1.6,1.6,0,0,0,.591.473,1.8,1.8,0,0,1,.6.42,3.279,3.279,0,0,1,.381.656c.185.371.151.841.355,1.248a6.717,6.717,0,0,1,.709,1.51,6.225,6.225,0,0,1,.092,1.51c0,.129-.045.155-.053.25.037,0,.039.013.079.013a2.761,2.761,0,0,1,.932.079,1.446,1.446,0,0,1,.578.551,2.623,2.623,0,0,1,.355.814.4.4,0,0,0,.21.236,1.43,1.43,0,0,0,.565.079.843.843,0,0,0,.5-.158,1.674,1.674,0,0,0,.355-.342,3.722,3.722,0,0,1,.328-.381.979.979,0,0,1,.447-.25,1.189,1.189,0,0,1,.84.158,3.8,3.8,0,0,0,.683.342,3.729,3.729,0,0,0,1.759,0,3.7,3.7,0,0,0,.853-.328,5.158,5.158,0,0,0,.657-.42,1.158,1.158,0,0,0,.25-.814c.02-.353,0-.739,0-.958,0-.1.068-.171.184-.237a1.8,1.8,0,0,1,.447-.158,4.518,4.518,0,0,1,.879-.105,2.332,2.332,0,0,1,.985.315c.349.18.7.4,1.024.565a1.343,1.343,0,0,0,.919.145,4.135,4.135,0,0,0,.972-.394,8,8,0,0,1,.8-.394,2.865,2.865,0,0,1,.958-.105,1.858,1.858,0,0,1,1.063.341c.3.2.556.453.827.657a.706.706,0,0,0,.5.105,2.289,2.289,0,0,0,.591-.171,4.436,4.436,0,0,0,.8-.434,2.329,2.329,0,0,1,.827-.328,4.456,4.456,0,0,0,.932-.3,1.017,1.017,0,0,0,.394-.368,1.883,1.883,0,0,0,.237-.525,4.331,4.331,0,0,0,.131-1.116c0-.2-.364-.51-.748-.788s-.794-.529-.893-.6c-.124-.093-.109-.577-.053-1.064a10.841,10.841,0,0,1,.184-1.077c.115-.46.127-.687.171-.906a3.193,3.193,0,0,1,.328-.854,5.345,5.345,0,0,1,1.011-1.392.863.863,0,0,0,.21-.42,2.006,2.006,0,0,0,.053-.525,4.483,4.483,0,0,0-.145-.932,2.971,2.971,0,0,1-.092-.984,2.182,2.182,0,0,1,.223-.788.356.356,0,0,1,.355-.158,1.941,1.941,0,0,1,.564.118,7.736,7.736,0,0,1,.972.42.828.828,0,0,0,.512.079,1.416,1.416,0,0,0,.486-.184,3.165,3.165,0,0,0,.63-.525c.134-.134.567-.112.985-.053s.823.163.906.184a2.029,2.029,0,0,0,.814-.394,6.73,6.73,0,0,0,.827-.617c.017-.017.035-.023.053-.039a2.56,2.56,0,0,1-.079-1.142,7.01,7.01,0,0,1,.709-1.34,1.673,1.673,0,0,0,.171-.63c.018-.218.013-.455.013-.709a6.019,6.019,0,0,0-.276-1.6c-.142-.571-.461-1.069-.617-1.694-.059-.235-.128-.469-.171-.722a2.174,2.174,0,0,1-.013-.788,4.808,4.808,0,0,1,.368-1.418c.1-.195.189-.469.3-.735a2.277,2.277,0,0,1,.407-.7,3.4,3.4,0,0,0,.5-.63,1.167,1.167,0,0,0,.21-.788,1.263,1.263,0,0,0-.446-.748c-.209-.184-.459-.341-.709-.591a6.238,6.238,0,0,1-.565-.63,2.3,2.3,0,0,1-.42-.788,4.311,4.311,0,0,1-.105-.63.862.862,0,0,1,.105-.617c.174-.174.307-.351.46-.486a.868.868,0,0,1,.617-.223c.265,0,.493.005.709-.013a1.654,1.654,0,0,0,.617-.171,4.258,4.258,0,0,0,.985-.617,3.826,3.826,0,0,1,.355-.276c.066-.072.092-.195.092-.617,0-.406.092-.9.092-1.248v-.118a2.909,2.909,0,0,1-.722-.512c-.455-.455-.819-.635-1.156-.971a4.423,4.423,0,0,0-1.247-.985c-.471-.235-.54-.461-.972-.893a4.828,4.828,0,0,0-1.077-.709c-.386-.192-.706-.3-1.156-.525-.494-.247-.907-.449-1.064-1.077-.066-.262.03-1.248-.184-1.418s-1.025-1.208-1.418-1.077c-.534.178-.864.489-1.431.63-.532.133-.866-.17-1.234-.538-.227-.226-1.119-1.174-1.523-.971-.371.185-.571.517-.971.617a3.885,3.885,0,0,1-1.248.263c-.705,0-.84.255-1.34.63a2.157,2.157,0,0,1-1.6.709,1.974,1.974,0,0,1-1.34-.447c-.307-.307-.94-.677-1.326-1.063s-.392-.93-.709-1.248c-.23-.23-.491-.963-.893-1.063a6.792,6.792,0,0,0-1.6-.184c-.761,0-.8-.062-.8-.709s.035-.7-.447-.893A.855.855,0,0,1,478.353,420.572Z" transform="translate(-67.416 -22.947)" fill="#5751c8" stroke="#eaecff" stroke-width="0.5" fill-rule="evenodd"/><path d="M408.7,381.027a3.478,3.478,0,0,0-.88.722,5.72,5.72,0,0,0-.63,1.063c-.291.484-.7.959-.893,1.339-.236.472-.726.542-1.155.972-.323.323-.432.524-.8.893a2.891,2.891,0,0,0-.893,1.155,4.832,4.832,0,0,0-.263,1.339,7.686,7.686,0,0,0,0,1.418,1.748,1.748,0,0,0,.447,1.077c.337.337.655.747,1.063,1.155a3.666,3.666,0,0,1,.722,1.063c.077.154.524.908.354,1.077-.286.286-.793.687-1.169,1.063a1.1,1.1,0,0,1-1.063.446c-.487,0-.864-.092-1.34-.092a1.684,1.684,0,0,1-1.234-.447c-.25-.25-.588-.5-.985-.893a3.064,3.064,0,0,1-.8-.971,12.5,12.5,0,0,0-.617-1.432,6.811,6.811,0,0,0-1.339-.171c-.512,0-.984.079-1.51.079a6.235,6.235,0,0,1-1.523-.079,6.343,6.343,0,0,1-1.51-.355,2.993,2.993,0,0,0-1.155-.368,3.037,3.037,0,0,0-1.418.092,6.012,6.012,0,0,1-1.339.538,5.086,5.086,0,0,1-1.34.171c-.387,0-1.134.055-1.339-.355a1.792,1.792,0,0,0-.8-.972,8.09,8.09,0,0,1-1.418-.63,3.287,3.287,0,0,0-1.063-.709c-.5-.124-.814-.342-1.339-.447-.548-.11-.971-.311-1.51-.446-.264-.066-1.266-.146-1.431.184-.209.418-.5.5-.893.893a2.961,2.961,0,0,1-.972.617,8.3,8.3,0,0,0-1.51.538c-.266.133-.858.586-.984.617s-.236.062-.355.092a1.266,1.266,0,0,1-.447.184,2.871,2.871,0,0,0-1.063.355,11.11,11.11,0,0,1-1.077,1.155,1.751,1.751,0,0,1-1.247.355,6.809,6.809,0,0,1-1.773-.184c-.443-.11-.953,0-1.431-.079-.355-.059-1.259.067-1.51-.184-.069-.069-.625-.713-.8-.184a5.485,5.485,0,0,0-.355,1.523c0,.258.417,1.163.092,1.326-.234.117-.892.1-1.248.276s-.811.381-.893.709a3.965,3.965,0,0,1-.538,1.063c-.167.223-.724.676-.8.985a2.792,2.792,0,0,0,0,1.247c.108.434-.129.734,0,1.247.042.169.548,1.177-.053,1.064a2.693,2.693,0,0,0,.5.184,5.485,5.485,0,0,0,1.34.079,5.863,5.863,0,0,0,1.51-.171c.119-.029.236-.062.355-.092a7.477,7.477,0,0,0,.735-.263,1.307,1.307,0,0,1,.788,0c.529.132.9.34,1.326.446a1.177,1.177,0,0,1,.552.355,1.632,1.632,0,0,1,.25.355.8.8,0,0,1-.105.551,4.264,4.264,0,0,0-.25.6,4.68,4.68,0,0,1-.525,1.247.906.906,0,0,0,0,.709,4.1,4.1,0,0,0,.263.538c.261.522.358.9.617,1.418a5.3,5.3,0,0,0,1.077,1.247c.3.295.745.39,1.155.8a.944.944,0,0,1,.237.473c.042.179.062.381.118.6.132.529.413.825.538,1.326a3.224,3.224,0,0,1,0,1.51,1.074,1.074,0,0,1-.315.564c-.136.129-.3.233-.486.42a7.431,7.431,0,0,1-.67.5.667.667,0,0,0-.21.263.622.622,0,0,0-.013.394c.05.2.355.356.709.473a8.531,8.531,0,0,0,.985.237,1.9,1.9,0,0,0,.775-.04,3.059,3.059,0,0,0,.643-.223,1.563,1.563,0,0,0,.512-.447c.14-.178.257-.373.381-.538.05-.067.14-.08.263-.066a1.864,1.864,0,0,1,.42.118,6.771,6.771,0,0,1,.657.315,7,7,0,0,1,1.326.709,11.091,11.091,0,0,1,1.248,1.063c.432.432.715.545,1.064.893a4.1,4.1,0,0,1,.893.985,1.4,1.4,0,0,0,.46.512,1.35,1.35,0,0,1,.433.46,1.293,1.293,0,0,0,.42.447,4.692,4.692,0,0,1,.565.446c.255.255.751,1,1.063,1.418.216.288.708.646.893.893a.207.207,0,0,0,.25.092.7.7,0,0,0,.276-.223,4.318,4.318,0,0,0,.446-.762c.234-.468.342-.836.539-1.326a3,3,0,0,0,.184-1.248c0-.512-.092-.921-.092-1.431a.838.838,0,0,1,.184-.643,1.209,1.209,0,0,1,.617-.25,1.345,1.345,0,0,1,.525-.04,2.172,2.172,0,0,1,.538.223.688.688,0,0,1,.3.263,1.226,1.226,0,0,1,.118.289.5.5,0,0,0,.473.433.965.965,0,0,0,.735-.184,3.411,3.411,0,0,0,.512-.447c.341-.341.458-.55.709-.8.2-.2.4-.361.591-.538a2.182,2.182,0,0,0,.473-.617c.15-.3.012-1.018.092-1.34.043-.171.315-.3.6-.42a2.762,2.762,0,0,0,.735-.381,1.769,1.769,0,0,1,.656-.368,7.086,7.086,0,0,0,.683-.25,2.866,2.866,0,0,0,1.063-.8,1.031,1.031,0,0,1,.525-.355,2.4,2.4,0,0,1,.722-.092c.454,0,.764.263,1.34.263a9.032,9.032,0,0,1,1.156.276,2.241,2.241,0,0,0,1.247-.276,1.188,1.188,0,0,0,.5-.407,1.809,1.809,0,0,0,.21-.565,7.315,7.315,0,0,0,.263-1.878v-1.51a2.386,2.386,0,0,1,.052-.7.958.958,0,0,1,.394-.459,7.4,7.4,0,0,1,1.34-.8,1.486,1.486,0,0,1,.709-.105,3.73,3.73,0,0,1,.709.105,10.239,10.239,0,0,1,1.431.184,2.331,2.331,0,0,1,.657.394c.184.152.364.316.591.486a1.55,1.55,0,0,1,.46.591,4.034,4.034,0,0,1,.249.748,1.453,1.453,0,0,0,.25.617,1.017,1.017,0,0,0,.552.276,6.689,6.689,0,0,1,1.247.263,3.154,3.154,0,0,1,.775.63,7.312,7.312,0,0,0,.735.709,7.193,7.193,0,0,0,1.155.617,3.3,3.3,0,0,0,1.248.092c.529,0,.937-.263,1.51-.263h1.339a.918.918,0,0,0,.6-.2,1.493,1.493,0,0,0,.368-.512,2.062,2.062,0,0,0,.223-.67,1.34,1.34,0,0,0-.039-.5,2.4,2.4,0,0,0-.617-.735c-.305-.285-.639-.561-.8-.683a1.733,1.733,0,0,1-.551-.525.8.8,0,0,1,.105-.722c.269-.538.553-.922.8-1.418a6.39,6.39,0,0,0,.709-1.432.633.633,0,0,0-.223-.551c-.158-.177-.36-.345-.486-.512a.288.288,0,0,1-.066-.289.572.572,0,0,1,.21-.237,3.771,3.771,0,0,1,.564-.276,1.5,1.5,0,0,1,.775-.026,8.166,8.166,0,0,0,.827.118.468.468,0,0,0,.328-.118.663.663,0,0,0,.158-.289c.073-.222.086-.488.132-.67.062-.248-.279-.854-.355-1.156a.522.522,0,0,1,.026-.355.724.724,0,0,1,.21-.263c.179-.144.409-.251.565-.368.508-.381.693-.716,1.156-1.063a8.683,8.683,0,0,0,.919-.853c-.107-.259-.1-.509-.2-.565-.478-.273-1.054-.711-1.6-.985-.345-.172-1.112-.254-1.339-.709-.125-.25-.6-.556-.709-.985a5.215,5.215,0,0,1-.184-1.248v-1.418c0-.834-.173-.552-.8-.709-.393-.1-1.047-.1-1.156-.538-.175-.7-.425-.653.263-1.34.4-.4.737-.61.354-.8-.345-.173-.688-.259-.8-.709a2.481,2.481,0,0,0-.525-1.064,15.089,15.089,0,0,0-1.248-1.155c-.273-.273-.867-.417-1.156-.8a8.891,8.891,0,0,0-.984-1.248,2.436,2.436,0,0,0-.8-1.156,3.843,3.843,0,0,0-.617-.538C409.6,381.485,409.057,380.847,408.7,381.027Z" transform="translate(-10.339)" fill="#5751c8" stroke="#eaecff" stroke-width="0.5" fill-rule="evenodd"/></g></svg>