<svg xmlns="http://www.w3.org/2000/svg" width="149.531" height="149.747" viewBox="0 0 149.531 149.747"><g transform="translate(-80.935 -138.064)"><path d="M1430.162,1452.5h0a4.381,4.381,0,0,0,.726-2.358c0-1.361-1-.635-2-.816s-1.27-1.451-2.177-1.905-.363-1-.363-1.27.4-.7.326-.97c-.04-.146-.886-.5-.886-.5l-.585-.427-1.034-.587-.861-1.082a20.434,20.434,0,0,1,3.824.178c2.556.469,3.027,1.277,4.633,1.919,1.361.542,2.449.442,3.553,1.562a5.312,5.312,0,0,0,3.758,1.694c1.578.116-1.688-.156.408,0s2.061,1.213,2.7,3.1a36.981,36.981,0,0,1,1.438,4.509c.124.606.534,1.935-.237,1.987a5.4,5.4,0,0,1-2.582-.1c-1.349-.586-1.578-2.333-2.875-3a6.418,6.418,0,0,0-2.036-.434,7.876,7.876,0,0,1-2.357-.863,10.191,10.191,0,0,0-3.311-.6" transform="translate(-1250.735 -1215.65)" fill="#5751c8" stroke="#eaecff" stroke-linecap="round" stroke-linejoin="round" stroke-width="0.5"/><path d="M108.858,171.808c.763.02,1.63-.337,2.285.181a8.9,8.9,0,0,1,1.152.968c.426-.94,1.718-.642,2.525-.606.618.028.935-.855,1.213-1.329a3.981,3.981,0,0,1,1.072-1.048c-.739-.4-.634-1.6-.727-2.3-.185-1.361-.9-1.987.213-3.212a8.025,8.025,0,0,0,2.092-2.963c.442-1.325.55-3.276,2.529-2.919-2.345-1.373-5.035-1.65-6.8-3.983-.4,1.939-1.843,3.136-3.051,4.589a5.438,5.438,0,0,0-1.245,2.313c-.2.972-1.285,0-1.767.883-.389.711-.462,1.51-1.333,1.678s-1.024,1.088-1.048,1.839a4.016,4.016,0,0,1-.414,2.22c-.606.915-.96,1.791-1.49,2.738a12.769,12.769,0,0,0,4.79.952" transform="translate(-21.326 -15.385)" fill="#5751c8" stroke="#eaecff" stroke-width="0.5"/><path d="M85.907,385.677c.454.281.807.755,1.337.9.755.209,1.461-.321,2.172.088.462.265.63.843,1.172.715.711-.165,1.4-.422,2.116-.574,1.522-.325,1.763,1,3.031,1.241a5.953,5.953,0,0,0,3.782-.7,2.075,2.075,0,0,1,1.791-.072c1.2.458,1.357.024.6-.879-1.1-1.313-.751-2.927-.811-4.533a2.981,2.981,0,0,1,.357-1.578c.257-.667.389-1.6-.161-2.024a9.429,9.429,0,0,0-1.265-1.112c.578-.618.092-1.385.237-2.1a14.778,14.778,0,0,1-2.875.578c-.49-.012-.795-.4-1.148.028s-.478.233-.819.807c-.61,1.036-.751,1.357-1.931,1.281-.654-.04-1.49-.044-1.807.658.237-.6-2.112-1.253-2.421-1.225a11.511,11.511,0,0,1-5.412-.715c-1.3-.534-1.574,2.5-1.747,3.489a13.439,13.439,0,0,0,.377,5.408,3.929,3.929,0,0,1,3.425.313" transform="translate(-0.724 -220.831)" fill="#5751c8" stroke="#eaecff" stroke-width="0.5"/><path d="M361.748,368.558c-.141,2.12-.325,4.4,1.12,6.067.329.381.169,1.469.153,2.22a9.207,9.207,0,0,1-.341,2.453c2.566.068,4.826.851,7.412.3.871-.189,2.048-.137,2.437-.944a2.559,2.559,0,0,0,.293-1.361,1.5,1.5,0,0,0,1.016-1.172,4.746,4.746,0,0,1,1.257-2.537,2.352,2.352,0,0,1,1.16-.474c.654-.084.426-.59.98-.687.919-.161,3.746-.514,1.883-1.759-1.449-.968-2.895-1.843-4.32-2.867a9.634,9.634,0,0,1-2.614-2.453,12.383,12.383,0,0,0-1.73-2.754,1.937,1.937,0,0,0-2.357-.3c-.875.345-1.759.036-2.272.956-.49.879-1.474.815-1.947,1.578-.333.538-.63,1.991-1.562,1.53-.016.522.108,1.967-.566,2.2" transform="translate(-261.372 -208.695)" fill="#5751c8" stroke="#eaecff" stroke-width="0.5"/><path d="M471.844,525.922a18.564,18.564,0,0,1-1.136,2.6c.911,0,1.052,1.136,1.1,1.815a11.422,11.422,0,0,0,.9,2.574c.293,1.044-1.2,1.217-1.59,1.911-.546.968.056,1.943-1.377,2.2a21.641,21.641,0,0,1-2.746.157c-.638.032-.048,3.176-.12,3.818-.076.675-.426,1.257-.53,1.927-.153.98-.092.847.63,1.369.875.634,1.357,1.526,2.517,1.65,1.213.133,2.156-.413,3.312-.586a1.814,1.814,0,0,1,2.124-1.124c.691.04.972.285,1.18-.518a2.781,2.781,0,0,0-.06-1.233,4.579,4.579,0,0,0-1.241-2.594c-.3-.1-.369-.329-.213-.7-.153-.586.064-.783.65-.594.835-.008,1.654.229,2-.63a3.309,3.309,0,0,0-.554-3.69,2.854,2.854,0,0,1-.349-2.827c.225-.6.715-.514,1.008-1.1a5.172,5.172,0,0,1,1.036-1.646,1.986,1.986,0,0,1-1.184-.064c-.674-.353-.241-1.04-.9-1.325-.59-.257-.911-.847-1.3-1.321-.526-.638-1.192-.622-.819-1.614a2.323,2.323,0,0,0-2.325,1.546" transform="translate(-358.865 -359.984)" fill="#5751c8" stroke="#eaecff" stroke-width="0.5"/><path d="M590.86,588.043c-1.261,0-1.06,2.465-.61,3.128,1.116,1.642,1.4,2.61.546,4.513-.863.141-2.4-.333-2.421.695-.016.739.438.811.783,1.437.558,1.012,1.189,2.674.426,3.726,1.028.225.972.374,1.871-.132.606-.341,1.265-.554,1.879-.867a15.356,15.356,0,0,0,3.883-2.963c.715-.771.381-1.983,1.128-2.823a19.658,19.658,0,0,0,1.405-1.486,6.19,6.19,0,0,1,1.5-1.871c-.3-1.144-1.722-1.112-2.6-1.586-.6-.321-1.144-.727-1.755-1.028-.915-.446-1.349-.008-1.409-1.112-.056-1.032-.369-1.747-1.482-1.9-1.975-.269-2.3.743-3.144,2.264" transform="translate(-472.654 -417.167)" fill="#5751c8" stroke="#eaecff" stroke-width="0.5"/><path d="M631.325,671.176c-.675.755-1.466,1.265-1.69,2.317a2.968,2.968,0,0,1-1.273,2.2,25.572,25.572,0,0,1-2.618,2.04,22.1,22.1,0,0,0-3.108,1.65,3.477,3.477,0,0,1,2.008,2.469c.2.819.024,3.132,1,3.051a3.158,3.158,0,0,1,3,.923c.743.723,1.975-.353,2.915-.032,1.349.462-.377,1.747.478,2.433.638.514.542.088,1.1-.281a3.312,3.312,0,0,1,1.871-.4c.112-1.249.068-4.348,2.088-2.818.08-.59.365-1.714-.3-2.1-.149-1.024.417-1.526,1.108-2.168.414-.385.8-.791.67-1.389a10.265,10.265,0,0,1-.221-1.056c-.357-.016-.807-.137-.919-.534.145-.43-.008-.582-.462-.462a.947.947,0,0,1-.675-.5c-.438-.759-.972-.907-.751-1.887.181-.807.622-1.522.791-2.333a12.791,12.791,0,0,1,.345-2.537,10.658,10.658,0,0,0-2.26-.165c-.968-.012-1.008.116-1.229-.739-.859.522-1.217,1.594-1.863,2.317" transform="translate(-504.583 -494.63)" fill="#5751c8" stroke="#eaecff" stroke-width="0.5"/><path d="M810.976,685.738c.53.245.6.723.948,1.12a1.234,1.234,0,0,0,.992.317.71.71,0,0,0,.506.9c1.73.546-.08,2.477-.695,3.128a1.363,1.363,0,0,0-.193,1.815c.458.787-.542,2.228.775,1.935a5.676,5.676,0,0,1,1.474-.1c.691.028.462.149.695.695.273.646.823,1.389,1.626,1.221-.08-1.959-.377-5.834,2.369-6.243,1.068-.161,1.722.634,2.638-.253.707-.683,1.526-1.429,2.333-.337.325-1.233,1.939,0,2.08-1.578.084-.936,0-2.028-1.168-2.1a8.594,8.594,0,0,1,.614-2.156,4.757,4.757,0,0,1,.554-.931,10.877,10.877,0,0,0-.8-1.241c-.739-.968-.674-1.369-1.907-.9a3.04,3.04,0,0,0-1.9,1.313c-.345.671-.377,1.156-1.217,1.152-.381,0-.759-.02-1.136-.052a1.125,1.125,0,0,0-.181-.9c-.257-.265-.662-.2-.98-.325a.454.454,0,0,1-.269-.261c-.185-.466-.743-.329-1.217-.217-.024-.646.032-1.293.008-1.939a4.262,4.262,0,0,0-1.514-.024,8.867,8.867,0,0,1-3.252.117,12.536,12.536,0,0,0-.345,2.537c-.237,1.116-1.016,2.124-.843,3.312" transform="translate(-680.074 -504.748)" fill="#5751c8" stroke="#eaecff" stroke-width="0.5"/><path d="M928.021,714.5c-.522.409-1.229.04-1.743.405-.562.4.137,1.084.3,1.558a6.2,6.2,0,0,1-.177,3.75c-.538,1.486-2.228,1.072-2.14,3,.044.972-.125.891-.959,1.281-.434.2-1.225.494-1.437.976a.657.657,0,0,1,.281-.634,4.609,4.609,0,0,0-1.967,1.522c-.606,1.008.152,1.855.538,2.762a3.553,3.553,0,0,1,.225,1.277,7.382,7.382,0,0,1,2,.092,10.6,10.6,0,0,1,3.184,1.779,2.47,2.47,0,0,1,1.514-2.088c.8-.385,1.755-1.3,2.353-.47.45.626,1.028,1.088,1.8.59a1,1,0,0,0,.49-.887,8.811,8.811,0,0,1,2.176.177c.843.136,2.007.422,2.758-.145a3.045,3.045,0,0,1,2.417-.944,9.238,9.238,0,0,1,2.694.944c.4.189.8.381,1.217.542.691.269.618,1.108.743,1.771,1.409-3.3-.341-6.741-2.128-9.524-.859-1.345-1.967-2.674-2.232-4.292-.3-1.839.634-3.642,1.65-5.111.7-1.008.654-1.076-.1-2.044a9.3,9.3,0,0,0-1.534-1.57,10.44,10.44,0,0,0-4.573-1.875,10.839,10.839,0,0,0-5.585.036c-1.847.63-2.546,2.525-2.843,4.288,1.505.1,1.184,1.8,1.084,2.839" transform="translate(-781.649 -530.163)" fill="#5751c8" stroke="#eaecff" stroke-width="0.5"/><path d="M1214.416,762.469c1.566,2.381,3.284,5.3,2.887,8.267-.2,1.49-.779,2.056.4,3.34.871.948.843,1.883.9,3.108.048,1,.771,1.738.8,2.521.036.815.538.787.365,1.6s.113.767.735.948c1.152.341,1.357,1.329,1.317,2.409-.02.522-.088,1.04-.108,1.558-.04.956.911-.478,1.22-.7.847-.606,2.686-1.682,2.485-2.951a11.814,11.814,0,0,0-.614-3.224c-.305-.727-1.361-2.558-.875-3.34.626-1,1.875-1.911-.165-1.991-.863-.036-.534-.9-.678-1.642a9.705,9.705,0,0,0-.647-2.028,7.8,7.8,0,0,0-.65-1.646c-.313-.418-.8-.683-.815-1.253-.02-.791.859-.434,1.469-.462a5.126,5.126,0,0,1,.931-1.225,4.849,4.849,0,0,1,3.248-1.759,45.149,45.149,0,0,0-4.541-9.431c-1.5-2.441-3.445-4.73-6.6-3.706.145.056.253.213.4.277-1.405,1.767-3.015,3.626-3.421,5.922-.369,2.088.871,3.762,1.951,5.4" transform="translate(-1054.184 -570.819)" fill="#5751c8" stroke="#eaecff" stroke-width="0.5"/><path d="M1339.572,950.833c-.727.032-1.771-.333-1.425.767.161.51.755.8.976,1.3.317.727.586,1.534.831,2.285a8.513,8.513,0,0,1,.349,1.554c.092.695-.241,1.08.594,1.112,2.477.1.257,1.112.092,2.176-.233,1.51,1.128,3.369,1.518,4.794,1.839-1.718,2.533,1.253,4.051,1.06,1.261-.161.767-2.867.827-3.686,1.1,0,4.433,2.513,3.742-.393a2.167,2.167,0,0,0-1.409-1.361c-.514-.213-.827-.048-.827-.7a4.01,4.01,0,0,1,.293-1.4c.642-1.67,2.188-2.357,2.943-3.883.783-1.582,2.73-1.188,4.216-1.148.747-.482.566-.855.261-1.743a5.252,5.252,0,0,0-1.775-2.465c-1.662-1.269-3.794-1.261-5.79-1.18-3.517.149-7.536-.956-9.467,2.907" transform="translate(-1171.307 -754.658)" fill="#5751c8" stroke="#eaecff" stroke-width="0.5"/><path d="M1503.471,1020.767c-1.056,0-2.7-.349-3.561.446a6.818,6.818,0,0,0-.867,1.482c-.385.6-1.112.883-1.566,1.433-.538.65-2.084,3.232-.839,3.63,1.486.478,2.172,1.465,1.582,2.987,1.405.281,1.517,1.779,2.521,2.534-2.365,1.485.7,2.353,1.558,3.188a1.509,1.509,0,0,0,2.116.245c.638-.47.594-1.831,1.18-1.823a5.123,5.123,0,0,1,.919-4.216c1.076-1.281,3.011-.55,4.428-.638a2.231,2.231,0,0,1-.161-1.562c.136-.751.594-.594.96-1.2.458-.751.458-1.75,1.1-2.4,0,.088,0,.181-.008.269a2.708,2.708,0,0,1,1.7-.911c.8-.116.6-.755.249-1.429a5.217,5.217,0,0,0-2.935-2.236c-1.494-.538-2.943-.193-4.477-.129-.715.028-1.421-.088-2.136-.084-.638.008-1.2.41-1.763.41" transform="translate(-1318.627 -822.115)" fill="#5751c8" stroke="#eaecff" stroke-width="0.5"/><path d="M1640.4,1077.7c0-.088,0-.177.008-.269-.642.646-.642,1.646-1.1,2.4a1.42,1.42,0,0,1-.839.658,2.755,2.755,0,0,0,.04,2.1c-2.168.132-4.067-.675-5.1,1.807a5.372,5.372,0,0,0-.245,3.047,2.53,2.53,0,0,1,2.325,1.353c.257.5.092.94.731.843a5.63,5.63,0,0,0,1.6-.538c1.084-.506,1.935.357,2.794.911.911.586,2.028.7,2.927,1.329a3.633,3.633,0,0,1,1.433-.257c.63-.012.847-.5,1.534-.558-.365-1.136.169-1.317.6-2.18.522-1.044.173-2.188,1.365-2.867.63-.361,1.61-.526,1.911-1.277a3.758,3.758,0,0,0-.369-2.831c-1.361-2.465-7.071-6.657-9.616-3.67" transform="translate(-1446.202 -874.669)" fill="#5751c8" stroke="#eaecff" stroke-width="0.5"/><path d="M1837.813,1118.819c-2.369.092-6.368-1.108-6.3,2.69.036,2.236-1.4,1.7-2.578,3.068-.678.787-.329,1.939-.984,2.686-.217.249-1.084,1.931-.317,1.9-.361-1.229,3.3-.51,3.83-.466.016.851-.173,1.763.759,2.172a22.225,22.225,0,0,1,2.839,1.192c.735.446.638.345,1.4-.149.558-.365,1.2-.6,1.779-.919,1.16-.63,1.192-1.506,1.714-2.582.309-.638.8-.646.847-1.389a3.95,3.95,0,0,1,.458-1.863c.417-.678,1.4-.422,1.911-1.1-1.63.036-1.767-1.935-1.871-3.124-.036-.414-.173-2.77-.562-2.8-1.032-.072-1.907.642-2.923.683" transform="translate(-1627.233 -913.309)" fill="#5751c8" stroke="#eaecff" stroke-width="0.5"/><path d="M1957.351,1205.54c-.971.478-1.546.253-1.839,1.554-.16.723.052,1.269-.506,1.763a3.578,3.578,0,0,0-.831,1.682c-.5,1.449-1.951,1.674-3.116,2.429-.482.313-1.2.55-.426.923.394.193.454.839.5,1.213a22.614,22.614,0,0,0,.41,3.063,14.7,14.7,0,0,1,2.224.068c.365.032.727.048,1.092.048.839,0,.4-.189.731-.747,1.08-1.807,4.055,2.381,4.629,2.895,1.012.907,2.14-.016,3.393.044.927.044,3.851.8,4.328-.43.221-.57-.442-1.028-.916-1.084a5.723,5.723,0,0,0-.831,0c-.67.024-.209-.225-.562-.618a.7.7,0,0,0-.594-.213,4.733,4.733,0,0,1-.209-1.132c-.08-1.1.4-1.855-.931-1.827-1.285.024-3.071.084-3.3-1.582-.141-1,.59-2.7-.458-3.385-1.084-.711-1.213-.417-1.208-1.815,0-1.208-1.289-2.027-1.128-3.272.052,0-.458.426-.446.422" transform="translate(-1741.833 -994.373)" fill="#5751c8" stroke="#eaecff" stroke-width="0.5"/><path d="M1941.193,1383.124c-.554-.417-1.839-1.554-2.578-.943a.986.986,0,0,0-.3.514c-.189.646-.486.458-1.144.426a22.138,22.138,0,0,0-2.779-.1c.189.735.839,2.915-.221,3.328-1.032.4-2.465.157-2.26,1.791.2,1.614,1.707,1.088,2.714,2.028a5.736,5.736,0,0,1,1.14,1.441c.454.847-.084.879-.406,1.638.711-.1,1.076-1.028,1.883-1.185a1.991,1.991,0,0,1,2.008,1.04c.871,1.313,2.826,2.838,4.549,2.276a3.826,3.826,0,0,1-1.04-1.481c.956.076,3.63-.305,3.642-1.614a3.692,3.692,0,0,0-.53-1.883c-.4-.51-1.349-.309-1.9-.462-1.185-.329-3.445-.851-2.553-2.542.353-.667,1.1-.542,1.718-.687.538-.129.65-.55,1.024-.884-1.461-.3-1.883-1.883-2.963-2.7" transform="translate(-1724.683 -1159.213)" fill="#5751c8" stroke="#eaecff" stroke-width="0.5"/><path d="M2000.92,1557.813a16.3,16.3,0,0,0-2.164-1.345,6.267,6.267,0,0,1,.285.8c-.638.04-1.176.052-1.586.586a3.358,3.358,0,0,1-1.69,1.253c-.453.2-.666,1.245-.225,1.562.566.406,1.454.084,1.554,1.092.125,1.225-1.389,1.417-.161,2.4a14.463,14.463,0,0,0,2.782,1.457,1.565,1.565,0,0,1,.939,1.213c.245,1.237.626,2.489.807,3.734.634-.261,1.413-.257,1.747-.96.273-.574.128-1.369.727-1.746.843-.534,2.333.016,2.152,1.144,1.116.133,1.393-.944,2.329-1.257,1.2-.41,2.381.562,3.553.666,2.124.189,2.69-2.136.743-2.963a53.508,53.508,0,0,1-6.922-3.621c-1.144-.7-.9-1.971-1.823-2.895-.426-.426-.855-1.032-1.454-.879a2.018,2.018,0,0,1-1.594-.241" transform="translate(-1783.772 -1321.797)" fill="#5751c8" stroke="#eaecff" stroke-width="0.5"/><path d="M1826.466,1661.883a6.85,6.85,0,0,1-2.682-1.759c-.53.867-1.3.466-2.2.209a6.769,6.769,0,0,0-2.477-.153,4.307,4.307,0,0,0-1.71.385c-.867.466-.3,1.2-1.566.924.141.759-2.337.052-2.927.859,1.574.992-1.445,2.485-2.409,2.4.1.5.269,2.244-.3,2.248.478.474.345.606,1.028.486a4.621,4.621,0,0,1,1.935.024c.719.185,1.309.634,2.036.795.7.153,1.425.153,2.124.305,3,.647,2.317,2.919,2.634,5.216a27.475,27.475,0,0,1,4.067-2.112c1.779-.59,1.935-1.923,2.991-3.244.454-.566,1.1-.727,1.642-1.124.63-.466-.1-1.755-.261-2.493-.374-1.642-.265-2.256-1.919-2.963" transform="translate(-1611.269 -1418.395)" fill="#5751c8" stroke="#eaecff" stroke-width="0.5"/><path d="M1819.892,1769.194c-1.144-.634-2.493-.4-3.694-.835-1.449-.526-2.361-.932-3.939-.57.1.136.6.185.787.149a1.077,1.077,0,0,0,.349.711c.341.341.927.594.98,1.136a1.486,1.486,0,0,1-.984,1.4c-.715.329-1,1.389-1.558,1.429.835.638,3.1,4.4,1.269,4.557-.819.072-.582.454-.55,1.225.024.618.084,1.233.068,1.851a5.713,5.713,0,0,0-.04,1.409c.12.546.622.948.614,1.53a2.381,2.381,0,0,0-.851.185c.843,1,1.727,1.967,3.116,2.02,1.152.04,2.533-.349,3.6.225-1.068-.972-1.056-2.979-1.486-4.284a6.921,6.921,0,0,1,.63-5.272,2.874,2.874,0,0,1,1.413-1.385c.462-.189.964-.253,1.426-.45.674-.285.345-.594.357-1.237.04-1.6.06-2.923-1.51-3.794" transform="translate(-1612.801 -1518.599)" fill="#5751c8" stroke="#eaecff" stroke-width="0.5"/><path d="M1656.356,1986.441c-.779-.53-1.337-1.923-2.24-1.281a1.508,1.508,0,0,0-1.915-1.3,9.082,9.082,0,0,1-3.345.185c-.959-.185-.859-.133-1.273.578a2,2,0,0,1-.988.831,3.69,3.69,0,0,1-2.987-.136,6.039,6.039,0,0,1-.261,2.164,3.728,3.728,0,0,0-.671,1.662c.943.06,2.553.245,3.2-.654a1.5,1.5,0,0,1,1.975,1.478c.385.482,2.076.474,1.433,1.682-.385.723-1.534.655-2.156.354-.068.662-.47,2.088.578,1.9.024.61-.028,1.225-.008,1.835a1.077,1.077,0,0,1,.968.369c.711,1.1-.8,2.967-1.1,4.007a5.083,5.083,0,0,0-.177.976c-.454-.1-.943-.136-.96.4-.016.594,1.185.956,1.466,1.646.209.514-.116,1.433.747,1.381-.112.783.51,1.068,1.172,1.18.49.084,1.249-.02,1.389.486a1.762,1.762,0,0,0,1.184,1.06,6.768,6.768,0,0,0,4.011.108c1.763-.51.795-2.116,1.357-3.344.309-.683,1.064-.165,1.112-.916.048-.771,1.028-.57,1.538-.6-.129-.916-1.249-1.562-.321-2.437.554-.522,1.7-.795.992-1.746-.944-1.273.4-1.67.59-2.77.121-.7-1.526-2.425,0-2.7a2.623,2.623,0,0,0,1.353-4.441,4.192,4.192,0,0,0-2.517-1.582c-1.309-.1-2.971.418-4.135-.373" transform="translate(-1455.163 -1720.063)" fill="#5751c8" stroke="#eaecff" stroke-width="0.5"/><path d="M1531.5,1855.067a8.155,8.155,0,0,1,.578-1.056,6.043,6.043,0,0,0,.261-2.164,3.78,3.78,0,0,0,2.666.249c.948-.269,1.377-1.67,2.06-1.6a10.227,10.227,0,0,0,3.549-.048c1.068-.225,2.048.028,2.232,1.241a2.636,2.636,0,0,1,1.441-.51c.008-.9-.711-1.473-.61-2.481a10.894,10.894,0,0,0,0-1.7c-.048-.807-.4-1.759.518-1.835.988-.084.614-1.494.345-2.289-.209-.61-.943-2.2-1.694-2.264,0,.522.385.919.474,1.421-.791.253-1.55-.377-2.337-.044-.626.265-1.076.883-1.751,1.052s-1.036-.329-1.341-.827a1.846,1.846,0,0,0-1.723-.863,2.726,2.726,0,0,1-.968-.133c-.775-.285-.309-.189-.8.229-.381.325-1.064.2-1.518.193a11.453,11.453,0,0,1-2.313.068,14.67,14.67,0,0,0-2.513-.056c-.642-.036-3.14-1.261-2.558.454.333.979,1.554,1.445,2.14,2.256.919,1.269-.385,2.14-1.3,2.851-1.478,1.156-1.554,3.344-3.063,4.581.879-.068.618.385.622,1.156.791.068,1.59.032,2.377.1.028.747-.044,1.493-.016,2.24.434.024.867.048,1.3.076,0,.434,0,.867.008,1.3.855-.145.919,1.028,1.686.847.088-.662-.157-1.313-.044-1.971q.5-.006,1,.036c.927.068,1,.365,1.289-.51" transform="translate(-1343.893 -1586.589)" fill="#5751c8" stroke="#eaecff" stroke-width="0.5"/><path d="M1364.956,1707.812a5.906,5.906,0,0,1,1.481-2.481c.65-.51,1.514-.919,1.606-1.843.133-1.3-1.542-1.967-2.212-2.839-.329-.426-.462-1.044.092-1.357.353-.2.7-.915,1.068-1.317.414-.446.165-1.317.755-1.586,1.1-.5-.076-1.281-.446-2.007-.51-1,.221-1.843-.747-2.694-.7-.618-1.4.072-2.06-.333-.546-.333-.743.052-1.2-.566a4.072,4.072,0,0,0-4.248-2.124c-.735-.012-1.706-.594-2.373-.108a5.12,5.12,0,0,0-1.317,2.076c-.454,1.02-1.317.478-2.1.92,1.445.257,1.26,1.831,2.666,1.991.911.1,1.8.333,2.71.458a7.079,7.079,0,0,0,1.128.076,1.75,1.75,0,0,1-.209,1.229.7.7,0,0,1-.642.446c-.53.032-.414.442-.667.771-.353.462-.269.675-.9.827a17.185,17.185,0,0,1-2.53-.032,22.082,22.082,0,0,0-3.115.51,8,8,0,0,1,.43,3.517c.791-.088,1.975-.161,2.108.907.1.827-.522,1.558-.438,2.377,1.429.116,1.991-.454,2.746.96.586,1.092,2.212.586,3.188.67.683.06-.389,3.108,1.068,3.634,1.939.707,3.4-.373,4.156-2.08" transform="translate(-1183.999 -1444.711)" fill="#5751c8" stroke="#eaecff" stroke-width="0.5"/><path d="M1134.405,1740.594c-.823.193-1.389.526-2.192.06a6.236,6.236,0,0,0-1.923-1.092,4.194,4.194,0,0,1-3.148-1.767c1.425-.646-.454-1.6-1.172-1.746-1.1-.229-1.265-.775-1.441-1.807a5.7,5.7,0,0,1-.4,1.9c-.289.675-.964.968-1.249,1.554-.582,1.2-2.184,1.474-3.264,2.14-1.172.727-1.136,1.879-1.076,3.148a2.772,2.772,0,0,0,.574,1.743c.618.771,1.321-.02,1.4,1.229a1.993,1.993,0,0,0,.181-1.068,10.85,10.85,0,0,1,1.445.04c-.133.49-.59.53-.811.952a3.073,3.073,0,0,0-.169,1.281,5.807,5.807,0,0,1-.835,2.907c.871.253,1.389-.518,2.1-.835.695-.313.779.225,1.437.361a18.529,18.529,0,0,0,4.449.012c-.506-1.12.474-1.859.883-2.794a1.405,1.405,0,0,0-.2-1.461.992.992,0,0,1,.771-.273c.695.016.43.45.574,1,.4-.711.968-1.425,1.891-1.156a1.641,1.641,0,0,0,1.71,1.614c-.152-.851.638-1.485.365-2.365,1.188-.044.393-2.746.1-3.565" transform="translate(-966.693 -1487.466)" fill="#5751c8" stroke="#eaecff" stroke-width="0.5"/><path d="M957.131,1653.573c.887-1.514,3.316-1.265,4.1-2.871.361-.747,1.132-1.08,1.409-2,.133-.434.61-2.321-.3-2.365-.723-.036-.5.662-1.008-.133a2.994,2.994,0,0,0-.827-.883,4.176,4.176,0,0,0-2.425-.494c-1.706,0-4.3-.177-5.167-1.971-.285-.586.305-.759.526-1.2.486-.972-2.473-.715-3.067-.759-.851-.064-1.554.727-2.192,1.333-.57.538.125,1.245.434,1.747a2.061,2.061,0,0,1-.1,2.457,3.564,3.564,0,0,1-1.052.855c-.578.321-.47.466-.59,1.1-.209,1.084-.49,1.225-1.321,1.887-.494.394-.743,2.469-.136,2.67.008-.478.8-.763,1.144-.9.655-.249,1.546-.711,1.594.148a5.094,5.094,0,0,0,2.835,3.477c.225,1.333-1.1,1.4-1.678,2.264-.526.783.61.755-.036,1.538-.5.193-1.373.594-1.469,1.164a5.885,5.885,0,0,0,1.16.02c.51.089.7-.1.574-.558a1.081,1.081,0,0,1,1.373-.7c1.04.333.06,2.016.835,2.068.875.06.879-1.032.8-1.63a4.306,4.306,0,0,0-.257-1.048c.422-.321,1.229-.494,1.485.132.542-1.188.839-.819,1.365.109.393.691,1.582.321,2.2.381-.1-.763-1.188-1.353.4-1.337-.839-1.088-1.381-3.2-.61-4.517" transform="translate(-805.045 -1400.482)" fill="#5751c8" stroke="#eaecff" stroke-width="0.5"/><path d="M741,1579.5c.245-.522.911-.57,1.241-1.04a3.173,3.173,0,0,0,.325-1.164c.12-.634.012-.775.59-1.1a3.139,3.139,0,0,0,1.281-1.2c.658-1.213-.273-2.08-.743-3.128-.365-.815,1.329-1.6,1.755-2.116a3.368,3.368,0,0,1-2.566-1.482c-.3.831-.542,1.313-1.253.486a4.586,4.586,0,0,1-.831-1.759c-.213-.767.028-1.321-.815-1.353a3.073,3.073,0,0,1-2.28-1.028c-.189.377-.542.249-.932.257.193,1.12.626,2.477.016,3.545-.9,1.574-2.108.835-3.4.454a7,7,0,0,0-2.164-.189c-.365.012-.735.02-1.1.028-.891.008-.486.4-.594,1.144-.133.919-2.654,1.522-3.553,1.385-.028.879-.161,1.747-.157,2.63,0,.586.024,1.172.008,1.755-.02.843.125.562.831.8,1.867.618,3.593,1.494,5.621,1,1.983-.486,2.895-1.225,4.8.064,1.212.823,2.879,2.425,2.365,4.063a5.98,5.98,0,0,1,1.478.261,4.126,4.126,0,0,1,.076-2.3" transform="translate(-600.738 -1329.385)" fill="#5751c8" stroke="#eaecff" stroke-width="0.5"/><path d="M705.071,1738.53c-.879-2-3.361-3.89-5.565-3.067a7.156,7.156,0,0,1-4.079.538c-1.341-.253-2.521-1.012-3.862-1.229-.084,1.164-.807,1.835-1.144,2.887-.257.8-1.534.594-1.317,1.839.173.98,1.931.691,2.024,1.546.112,1.052,1.385.747,2.12.811.2,1.16-4.561,4.372-1.341,4.886.112-.586-.55-1.341.2-1.722.707-.361,1.534.068,2.268.04-.056-.49.072-1.381.779-.984a1.6,1.6,0,0,1,.61.687c.261.522.6.4,1.176.425,1.12.044,2.24-.02,3.357-.068.787-.036.526-.365.55-1.06.048-1.281.124-2.011,1.409-1.634,1.084.317,3.092-1.064,2.365-2.281.9-.153.823-.771.454-1.614" transform="translate(-566.5 -1487.959)" fill="#5751c8" stroke="#eaecff" stroke-width="0.5"/><path d="M427.714,1616.882c.092-.891.783-1.518,1.068-2.333.422-1.2.157-2.654.189-3.9.024-.972.662-1.979-.482-2.156-1.281-.2-2.638-.052-3.891-.3-1.626-.321-1.2-2.489-2.489-2.935-.9-.309-1.975.165-2.706-.562a6.873,6.873,0,0,0-1.349,2.967c-.349-.321-.743-.39-.9.124-.169.546.177,1.3-.442,1.353-.036.807,1.02,1.321.891,2.14-.181,1.184-1.939.474-2.646,1.044a3.508,3.508,0,0,1-3.051.614c-.948-.132-2.337-.353-2.509.915-.1.755.4,1.847-.7,1.63-1.586-.313-1.3.867-1.373,2.052a5.627,5.627,0,0,0,.1,2.184,1.025,1.025,0,0,0,.795.735c.53.084.7.763.823,1.329a8.674,8.674,0,0,0,3.605-.277c-.016-1.188-.3-2.156-1.606-2.272-.566-.048-1.935-.494-.7-.811,1.309-.333,1.277-1.891,2.566-2.192.843-.2,1.273.273,1.385,1.076.092.654,1.473.795,1.775.056a3.667,3.667,0,0,0,.185-1c1.028.12,1.048-.032,1.084-.972.028-.743.59-.474,1.148-.9a6.488,6.488,0,0,1,1.421-1c.5.811-.51,1.277-.562,2.032-.056.819.711,1.425.735,2.228a3.221,3.221,0,0,0-2.048.514c-.9.815-.233,1.506.5,2,.169-.695-.06-1.345.791-1.429s.683.514.526,1.136a1.536,1.536,0,0,1-.887,1.016c-.181.534-.048,1.3.63.751.478-.389.321-.57.972-.839.357-.149,1.008-.4,1.221.112.145.349-.1.715,0,1.068.141.478.59.269.478.964.574.024,1.028-.373,1.59-.414.65-.052,1.261.385,1.891.482.988.157,1.188-.181,1.124-1.112.438-.044.414-.554.365-.871-.217-1.309-1.919-4.031.47-4.256" transform="translate(-303.882 -1366.745)" fill="#5751c8" stroke="#eaecff" stroke-width="0.5"/><path d="M358.4,1851.908c.008.177.012.349.02.526-.662-.141-.9.285-1.2.775a.807.807,0,0,1-.518.426c-.5.088-.317.441-.345.939-.08,1.377-1.662,3.967-3.421,3.525-.133,1.289,1.144,3.052,1.566,4.232a5.259,5.259,0,0,1,.438,2.333c-.1.791-1.044.912-1.008,1.526.06,1,1.241.819,1.907,1.148.863.426.839,1.449.735,2.269-.06.458-.153.907-.2,1.365-.08.771.305.667,1.02.763.867.112.546-.7.755-1.325a2.546,2.546,0,0,1,1.04-1.3c.249,1.329,2.088.558,2.654,1.662.5.971.253,2.537,1.682,2.71-.281-1.638,2.148-1.108,2.052.189,1.056-.305,1.8-1.2,2.786-1.642.9-.4.325-1.843,1.453-2.389a10.209,10.209,0,0,0-1.108-1.349c-.333-.285-1.3-.5-.674-1.092a.752.752,0,0,1,.634-.157c.056-.357.1-.715.141-1.072.02-.626-.3-.835-.658-1.26-.43-.514-.153-.739-1.032-.534a8.17,8.17,0,0,1-1.771.394c-.851.016-.43-1-.313-1.59a16.772,16.772,0,0,0,.45-2.67c.048-1.493-.518-1.405-1.594-1.9-.811-.374-.626-1.51-.594-2.22a6.7,6.7,0,0,0-.108-2.385.856.856,0,0,0-.518-.6.951.951,0,0,0-.462-.012,3.975,3.975,0,0,1-.2-1.566,8.65,8.65,0,0,1-3.6.277" transform="translate(-253.235 -1596.862)" fill="#5751c8" stroke="#eaecff" stroke-width="0.5"/><path d="M587.706,1465.874c1.329.341,1.12,1.746,2.012,2.618.626.61,1.542.458,2.333.474a15.468,15.468,0,0,1,3.039.345,4.733,4.733,0,0,0,2.493-.582c.606-.233.952-.024,1.064-.8.108-.743-.3-1.136.594-1.144a11.254,11.254,0,0,1,3.264.161c.759.225,1.5.827,2.321.482,1.393-.59,2.132-4.421.53-4.485-2.256-.092-2.654-1.947-4.352-2.931-1.3-.759-2.694-1.73-2.738-3.3a28.46,28.46,0,0,1-3.9-.67c-.6-.137-1.2-.285-1.815-.378-.422-.06-1.257.2-1.112-.353-.819.012-1.751-.361-1.8.578-.04.735-.2,1.453-.245,2.188-.06.936-.369.289-.9.847-.289.305-.305.731-.486,1.088-.249.486-.53.112-.658.791-.125.651.12,1.241-.357,1.7-.815.787-.634,2.276-1.622,2.919.687.682,1.51.241,2.333.454" transform="translate(-469.856 -1227.465)" fill="#5751c8" stroke="#eaecff" stroke-width="0.5"/><path d="M556.868,1290.662c.233-1.907,1.257-3.581,1.622-5.452.092-.474.1-.948.157-1.421.06-.514-.325-.305-.735-.474a2.135,2.135,0,0,1-.839-.671,1.483,1.483,0,0,1-1.289-.076c-.691-.357-1.193-.662-1.943-.225-.735.43-1.313,1.032-2.24.819-.763-.177-1.574-.7-2.365-.337-1.016.47-1.373-.3-2.333-.177.313.1.442.012.381-.285-.807.181-1.875.309-1.457,1.249a20.637,20.637,0,0,0,1.706,2.1c.349.249.678.526,1.024.783-.092.558.329.863.795,1.024.7.241,1.6.281,1.742,1.172.157.992-.056,1.791.49,2.718.221.377.478.735.691,1.12.422.775.064,1.477,1.02,1.453.566-.012,1.156.277,1.3-.377.1-.446.149-.9.261-1.349a2.148,2.148,0,0,1,2.015-1.59" transform="translate(-432.916 -1066.137)" fill="#5751c8" stroke="#eaecff" stroke-width="0.5"/><path d="M680.8,1314.2c.691-1.381.743-3.156,1.486-4.481a.837.837,0,0,1,.518-.43,8.665,8.665,0,0,0,.225-1.193c.136-.9.811-1.289,1.6-1.6-.092-.426-1.281-1.381-1.658-1.707a2.836,2.836,0,0,0-1.638-.55,19.888,19.888,0,0,1-2.746-.927c-1.389-.381-.964.462-1.176,1.558a18.856,18.856,0,0,1-.948,2.927c-.3.815-.365,2.417-1.152,2.618-1.738.442-1.526,2.108-1.963,3.493,2.321-.024,4.589.935,6.9,1.128-.008-.426.052-.791.554-.835" transform="translate(-551.837 -1085.792)" fill="#5751c8" stroke="#eaecff" stroke-width="0.5"/><path d="M184.246,1155.8a6.689,6.689,0,0,1-4.392-.9c-.47-.317-1.092-.678-1.245-1.273-.173-.667-.028-1.325-.731-1.722-1.16-.655-2.533.221-3.308-1.225-.462-.859-1.052-3.489.068-3.891-.867-.875-1.2-1.582-2.594-1.2a3.4,3.4,0,0,0-2.385,1.911c-.353.016-.887.116-1.188-.148-.361-.321-1.036.213-1.518.353-1.345.394-2.6-.04-3.947-.012,1.369.414-.373,1.674-.225,2.461-1.57-.39-1.8,1.963-1.06,2,1.2.056,3.116-.076,3.4,1.478-.707-.036-2.04-.237-2.381.61-.253.626-1.321.325-1.991.321s-.715.229-1.3.494c-1.008.45-2.521,3.573-.506,3.445-.153-2.3,2.092-2.08,3.734-1.939a10.941,10.941,0,0,0,1.357.06c-.044-.667-.145-1.534.57-1.566a3.381,3.381,0,0,1,1.429.136c.466.193.707.735,1.144.9.779.293,1.7-.787,2.465-.879.7-.084.064,1.915,1.449,1.59a3.758,3.758,0,0,1,.514-1.73c.871.036.522-.2.98-.695.61-.671.691.108.952.558a1.859,1.859,0,0,0,1.269.988.83.83,0,0,0,.092,1.574,7.481,7.481,0,0,0,2.232-.2,4.555,4.555,0,0,1,2.036.482,8.762,8.762,0,0,0,4.035.466c.992-.06.482-.678,1.626-.474a3.233,3.233,0,0,1,1.329.594c.08-.3-.727-.574-.984-.875a5.7,5.7,0,0,1-.919-1.69" transform="translate(-71.532 -938.801)" fill="#5751c8" stroke="#eaecff" stroke-width="0.5"/><path d="M150.742,975.293a7.353,7.353,0,0,0,4.537-.57,6.213,6.213,0,0,1-.8-2.879c-.072-.831.61-1.775.289-2.557-.217-.522-.108-1.221-.731-1.718-.839-.671-1.321-1.241-1.02-2.333a2.384,2.384,0,0,0-.666-2.554c-.586-.711-.056-1.843-1.16-2.112a7.784,7.784,0,0,0-2.59-.036c-.638.064-1.277.125-1.919.181-.755.068-1.369-.12-1.164.662.209.8-1.128,1.562-1.385,2.3a4.586,4.586,0,0,0,.092,2.718c.265.964.658,1.883.98,2.827a17.748,17.748,0,0,0,.55,2.441c.667,1.245,3.8.727,4.063,2.056.12.606-1.112.389-1.124.61-.064,1.02,1.405.875,2.052.968" transform="translate(-58.5 -766.358)" fill="#5751c8" stroke="#eaecff" stroke-width="0.5"/><path d="M204.3,905.624c.606.522.261,1.518.927,2.168a2.125,2.125,0,0,1,.406,2.276c-.478,1.71,1.341,2.052,1.678,3.533,1.18-1.245,2.574-.931,2.819-2.835.193-1.5.96-3.011,2.73-1.963.646.381.683,1.16.972,1.779a3.1,3.1,0,0,0,2.61,1.59c.462-.948,1.53-.984,1.6-2.212.024-.442-.024-.883.02-1.325a3.494,3.494,0,0,1,1.851-.3c.012-.867-.128-1.963.823-2.349.875-.357.173-1.739.879-1.686a3.23,3.23,0,0,0-1.1-1.056,2.153,2.153,0,0,0-.771-.237c-.719-.088-.438-.265-.5-.919a3.109,3.109,0,0,1-2.823.189c-1.116-.393-2.164.185-3.256.349s-1.943-.634-2.975-.883a11.353,11.353,0,0,0-3.63-.474c-1.012.088-1.482.783-2.513.695a12.453,12.453,0,0,1-1.835-.4,6.1,6.1,0,0,0-1.225-.233c-.65-.02-.474.634-.454,1.064.016.377-.173.715-.076,1.1s.373.658.325,1.068c-.04.341-.273.807.245.835a13.38,13.38,0,0,0,1.791-.221,2.222,2.222,0,0,1,1.49.454" transform="translate(-111.117 -711.192)" fill="#5751c8" stroke="#eaecff" stroke-width="0.5"/><path d="M136.874,734.437c.438-.128,1.221.225,1.831.177,1.357-.112.867-1.052.281-1.807a11.979,11.979,0,0,1-2.168-5.609,14,14,0,0,1,.04-2.594c-.506-.217-.582.084-.646-.51a1.045,1.045,0,0,0-.426-.743,3.635,3.635,0,0,0-1.775-.5c-1.349-.169-2.409-1.734-3.895-.992-.931.466,1.2,1.429.068,2.044.871.526.618,1.626.835,2.485a7.737,7.737,0,0,0,1.538,2.3c.189.273.369.554.546.839a13.956,13.956,0,0,1,1.116,2.128,6.883,6.883,0,0,1,.353,1.112,2.457,2.457,0,0,1,.056.514,5.217,5.217,0,0,0-.028.61,1.056,1.056,0,0,1,.052.321,2.346,2.346,0,0,1,2.22.229" transform="translate(-45.375 -543.834)" fill="#5751c8" stroke="#eaecff" stroke-width="0.5"/><path d="M120.209,654.61a3.108,3.108,0,0,1,1.474.466,1.067,1.067,0,0,1,.426.743c.064.594.141.293.646.51.052-.671,1.269.036,1.867.016a4.289,4.289,0,0,0,1.108-.153,2.714,2.714,0,0,0,.743-.381c.177-.12.345-.249.51-.381a.97.97,0,0,1,.538-.12c.293-.024.586-.02.879-.032a2.9,2.9,0,0,1,.233-1.152c.3-.61.915-.558,1.457-.317a29.057,29.057,0,0,1,3.613,2.18,11.006,11.006,0,0,0-.791-4c-.193-.458-.4-.911-.578-1.377-.6.06-1.2.008-1.8.06-1.08.1-2.373-.414-3.212.526-.554.622-.972,1.726-2.024,1.453-.787-.2-.727-1.273-.747-1.9-.032-1.06-1.269-.775-2.156-.9a2.457,2.457,0,0,1-2.16-1.449c-1.353.494-1.128,1.409-1.277,2.622-.61-.317-1.088-.8-1.831-.679a3.056,3.056,0,0,1-2.385-.141,15.274,15.274,0,0,1,.907,1.369c.141.036.4-.165.586-.148.016.217-.016,2.152.209,2.012a3.011,3.011,0,0,1,1.53.225c.141.072.281.129.414.209a5.039,5.039,0,0,0,1.823.743Z" transform="translate(-31.272 -475.563)" fill="#5751c8" stroke="#eaecff" stroke-width="0.5"/><path d="M94.294,533.239a4.358,4.358,0,0,1,1.365.7c.1-.875-.153-1.959.815-2.429.687-.337.181-1.249.132-2.04-.068-1.044-.406-3.919.935-4.356a1.945,1.945,0,0,0-2.1-.871c-1.217.257-1.755-.727-2.746-1.16a3.93,3.93,0,0,0-2.951-.072,24.748,24.748,0,0,1,.393,4.107,13.834,13.834,0,0,0,.385,3.425,5.886,5.886,0,0,0,.321,1.012c.209-.044.554.6.55.751-.008.369-.9.281.124.711.084.927,2.2.149,2.778.225" transform="translate(-7.975 -358.476)" fill="#5751c8" stroke="#eaecff" stroke-width="0.5"/><path d="M201.7,552.35c.779-.016.691-1.281.727-1.947.052-.988.349-1.73-.59-2.04a2.784,2.784,0,0,0-2.65.116A5.3,5.3,0,0,1,196.6,549c-1.807.04-2.325-1.706-4.284-1.16-1.767.494-2.71.562-2.875,2.582-.116,1.421-.317,3.738.763,4.882a3.243,3.243,0,0,0,2.124.779c.839.088,1.718-.128,1.747.851.048,1.534,1.088,2.831,2.3,1.08,1.289-1.847,3.505-1.024,5.48-1.225a7.463,7.463,0,0,1-.161-4.437" transform="translate(-100.801 -381.75)" fill="#5751c8" stroke="#eaecff" stroke-width="0.5"/><path d="M369.1,598.2a8.747,8.747,0,0,0,1.361,2.445c.153.185,2.26-.173,2.875.048.108-1.008.534-1.919.642-2.9a31.732,31.732,0,0,0-.177-3.264c.008-1.2,2.987-.221,3.883-1.032.622-.562.112-1.542.751-2.152.454-.434,1.365-.594,1.417-1.357.044-.662-.646-1.229-.827-1.843-.229-.779.016-1.638-.426-2.377a.866.866,0,0,0-.775-.454c-.626,0-.381.422-.438.9-.1.839-.381.948-1.116,1.1a18.281,18.281,0,0,1-7.247.233,13.956,13.956,0,0,0-1.734-.181c-.679-.02-.542.582-.622,1.148a6.561,6.561,0,0,0,.377,3.288,22.839,22.839,0,0,1,1.092,2.935,11.164,11.164,0,0,1,.249,1.827c.048.779.434.911.715,1.63" transform="translate(-265.984 -416.769)" fill="#5751c8" stroke="#eaecff" stroke-width="0.5"/><path d="M247.468,736.111a5.892,5.892,0,0,0-2.891-1.429,9.2,9.2,0,0,1,.422-3.377c.169-.55-1.124-2.168-1.4-2.871-.426-1.084-1.273-1.188-2.156-1.791-.715-.486-2.9-2.509-3.6-1.076-.345.7.145,1.136-.811,1.172-.835.032-.847.321-1.49.7-1.1.654-2.413.233-3.549-.028a14.442,14.442,0,0,0,.642,5.372,6.306,6.306,0,0,0,.823,2.377c.486.683,1.241,1.345,1.365,2.216,1.233-.682,3-.217,4.284.076,1.317.3,2.429,1.233,3.794.911a9.122,9.122,0,0,1,2.016-.414,15.36,15.36,0,0,1,1.991.494,3.617,3.617,0,0,0,1.686-.542,2.687,2.687,0,0,0-1.128-1.795" transform="translate(-140.479 -547.007)" fill="#5751c8" stroke="#eaecff" stroke-width="0.5"/><path d="M428.244,820.33a3.984,3.984,0,0,0,2.594,1.337,9.178,9.178,0,0,1,2.967.7,1.594,1.594,0,0,1,.935.887c.2.691-.6.486-.586,1.18.012.787.815.141,1.325.145a5.089,5.089,0,0,1,1.891.735,6.851,6.851,0,0,1,.036-1.112c.084-.859.289-.53.723-1.132s.59-1.188,1.225-1.614c.345-.229,1.192-.763.691-1.249-.446-.434-.389-.723-.3-1.381a10.167,10.167,0,0,0,1.016-.414c-.851-.727-.642-.859-.418-1.9.253-1.18-1.514-1-2.116-.755-.948.377-1.47-.124-2.144-.735a1.942,1.942,0,0,0-1.682-.341c-.98.132-1.068.132-1.2-.831-.329-2.405-.723-4.4-3.453-5-.65-.145-1.931-.377-2.473.169-.47.474-.313.755-1.028.944a13.384,13.384,0,0,1-1.755.486c-2.546.3-3.425-2.361-5.99-2.252-1.257.056-1.2.771-1.3,1.819-.462.08-.3,1.208-.293,1.618,0,.835.715.626,1.393.931a5.705,5.705,0,0,1,2.369,1.919,2.557,2.557,0,0,1,.3,1.3c.036.831.594.406,1.249.751a2.918,2.918,0,0,1,.871.743c.406.5,1.1.438,1.7.687a12.339,12.339,0,0,1,3.461,2.361" transform="translate(-312.824 -624.48)" fill="#5751c8" stroke="#eaecff" stroke-width="0.5"/><path d="M720.211,831.744a6.227,6.227,0,0,0-.032,1.16c.245.12.57.345.466.67-.169.53-.843.731-1.217,1.076-.61.558-.646,1.522-1.494,1.863a9.487,9.487,0,0,0-.1,1.718,6.167,6.167,0,0,1,1.421.679,5.387,5.387,0,0,0,3.778,1.546c.763-.044,1.233-.8,2.032-.393.815.418.96,1.482.992,2.293a6.175,6.175,0,0,0-.124-2.6,6.949,6.949,0,0,1-.1-1.706,3.893,3.893,0,0,1,1.4.076c.61.2.638.654.98,1.1.751.992.923-.646,1.08-1.08.253-.7,1.971-.422,2.7-.478,1.152-.092.381-1.3-.008-2.02-.96-1.767.285-2.811,1.8-3.581a.649.649,0,0,0-.281.634c.325-.731,1.747-1.12,2.421-1.405.092-1.345-.257-2.152,1.16-2.8,1.75-.8,1.582-4.115.811-5.541a1.287,1.287,0,0,0-2.3-.305c-.907.976-1.293.586-2.421.506-3.144-.233-2.927,4.3-2.847,6.259-1.514.317-1.3-1.871-2.321-1.915-.679-.028-1.714.377-2.208,0-.341-.261-.911-.642-1.353-.361-.767.49-.65,2.088-.707,2.859-.036.514-1.369.369-1.9.723-.582.39-1,.667-1.618,1.024" transform="translate(-593.284 -637.404)" fill="#5751c8" stroke="#eaecff" stroke-width="0.5"/><path d="M838.054,1050.338c-.269.462-.237,1.787-.839,1.734s-.6-.839-1-1.144a2.042,2.042,0,0,0-1.317-.3c-.783.02-.534.514-.458,1.168a8.371,8.371,0,0,1,.2,3.152c.032.843.39,6.155-.253,6.271a3.516,3.516,0,0,0,2.433,1.931,3.409,3.409,0,0,1,2.7,1.558,3.029,3.029,0,0,1,.454,1.156c.141.855-.112.875.791,1.012a5.172,5.172,0,0,1,2.14-.337c.767.008,1.5.321,1.71-.4.562-1.915,3.124,1.337,4.212,1.068.5-.125.333-.5.634-.847a1.975,1.975,0,0,1,1.377-.574c.654-.048.919-.562,1.606-.63a2.116,2.116,0,0,0,1.658-.61,2.328,2.328,0,0,1,.8-.779c.422-.177,1.393.072,1.441-.434.1-.988-1.373-1.373-2.02-1.742a7.957,7.957,0,0,0-2.959-1.044c-.711-.1-1.421.161-1.49-.622a4.677,4.677,0,0,0-.534-1.726,27.059,27.059,0,0,0-1.835-2.734,7.811,7.811,0,0,1-.923-1.734c-.265-.731-.028-1.482-.674-1.9a7.3,7.3,0,0,0-3.26-1.594c-1.522-.169-3.059.221-4.6.108" transform="translate(-701.868 -849.991)" fill="#5751c8" stroke="#eaecff" stroke-width="0.5"/><path d="M1011.411,1028.291a27.283,27.283,0,0,0,2.068,3.136,6.77,6.77,0,0,1,.819,1.634c.233.735-.129,1.329.735,1.409,1.148.108,6.653,1.289,5.838,3.156.385,0,.767.02,1.152.048.771.052.49-.141.638-.783a1.587,1.587,0,0,1,.8-1.176,4.026,4.026,0,0,1,1.562-.2c.8-.016.883-.8,1.9-.522,1.349.361,2.284.474,2.485-1.112.217-1.707,2.128.622,2.562,1.188a3.279,3.279,0,0,1,.253-1.1,1.337,1.337,0,0,1-.538-1.06c-.024-.6-.506-.8-.666-1.429-.281-1.112.116-2.505-.49-3.521-.394-.662-1.088-1.084-1.321-1.851-.225-.743-.06-1.955-.859-2.268-1.469-.574-3.1-1.771-4.758-1.478a3.629,3.629,0,0,0-1.566.932,3.015,3.015,0,0,1-2.208.229,11.959,11.959,0,0,0-2.722-.257,1.143,1.143,0,0,1-1.172,1.1c-.727.016-.932-.654-1.361-1.092-.381-.385-1.257.381-1.739.59-1.939.843-2.289,2.574-1.413,4.433" transform="translate(-866.46 -824.018)" fill="#5751c8" stroke="#eaecff" stroke-width="0.5"/><path d="M1355.968,1167.473a2.2,2.2,0,0,0,1.457,1.257c.63.213.57.438,1.1.843.731.558,1.951.907,2.329,1.819.964-.092,1.7.751,2.666.426,1.257-.426,2.534-1.734,3.782-.494.177-1.032,0-2.043,1.148-2.309a14.164,14.164,0,0,1,2.8-.148,6.071,6.071,0,0,0,2.83-1.156,2.245,2.245,0,0,0-.092-1.734,7.168,7.168,0,0,1,1.289-.309,2.734,2.734,0,0,0-2.252-2.228c-.948-.116-.682.048-.919.8a1.842,1.842,0,0,1-1.044,1.193c-1.3.518-1.666-.731-2.694-1.148-1.168-.474-2.216-1.478-.618-2.481-.923-.7-1.056-2.02-2.232-2.457-.5-.185-1.048-.1-1.546-.277-.763-.281-1.4-.887-2.26-.887a10.35,10.35,0,0,1-.2,3.112c-.558,1.409-1.779-.08-2.341-.594-1.04-.956-2.915-.076-2.389,1.341.759,2.04-2.666,2.863-3.308,4.352,1.06.044,2.032-.06,2.5,1.08" transform="translate(-1185.647 -950.633)" fill="#5751c8" stroke="#eaecff" stroke-width="0.5"/><path d="M1564.55,1257.838c.426,1.2.225,1.674-.823,2.281a4.491,4.491,0,0,1-2.357.618,10.3,10.3,0,0,0-2.357.145c-1.032.241-.879.795-1.048,1.727-.2,1.084,1.478,3.087,2.553,3.489,1.124.422,2.5.687,3.156,1.863.759-.779,2.116-.253,2.83.414.759.707,2.172.43,3.128.578a5.337,5.337,0,0,1,1.522.482c.522.257.41-.028.8-.37.558-.49,1.381-.875,1.674-1.6.418-1.056-.638-1.445-1.309-1.931a3.625,3.625,0,0,1-1.072-2.658c.028-.839.863-.964,1.55-.94.249-.9-.325-2.272.755-2.766a7.206,7.206,0,0,0-2.108-.919c-.911-.273-1.542-1.076-2.425-1.4-.751-.277-1.281.193-1.947.442-.815.3-1.71.257-2.525.55" transform="translate(-1376.205 -1042.5)" fill="#5751c8" stroke="#eaecff" stroke-width="0.5"/><path d="M1757.341,1279.3c-1.859-.068-2.55.434-2.557,2.244,0,1.068-.357.57-1.124.919-.582.265-.542.927-.417,1.453a3.455,3.455,0,0,0,.992,2c.618.446,1.485.7,1.385,1.634-.128,1.172-1.678,1.49-2.192,2.425,1.429.594,2.951.747,4.184,1.775-.076-1.5.353-2.971.112-4.469a.829.829,0,0,1,.5-1.04c.731-.418.486-1.184.245-1.835s-.51-1.217.152-1.566c.63-.329.614-1.638.6-2.385-.016-.8-1.06-2.875-1.875-1.156" transform="translate(-1558.127 -1062.881)" fill="#5751c8" stroke="#eaecff" stroke-width="0.5"/><path d="M1819.761,1270.781a4.707,4.707,0,0,1,0,2.168,7.99,7.99,0,0,0-.116,1.116c-.522.08-.847.221-.791.783.072.751.675,1.481.47,2.252-.148.574-1.036.558-1,1.208.088,1.61-.153,3.2-.068,4.81.5.414.052,1.116.7,1.217.683.108,1.365.237,2.044.365a8.952,8.952,0,0,1,3.344,1.036c.751.486,1.012,1.417,1.855,1.345a2.835,2.835,0,0,1,2.309.622c.875,1.124,1.9-.032,1.349-1.068a4.257,4.257,0,0,0-2.714-2.208c-.654-.177-.839-.137-1.056-.867a1.543,1.543,0,0,1,.394-1.73c.839-.6,2.1.012,2.284-1.3.2-1.457-.538-2.782-.61-4.216-.024-.526.1-2.606-.783-2.582-.341-.936-2.128-1.417-2.963-1.7-1.409-.474-1.381-1.028-1.409-2.4a22.661,22.661,0,0,0-2.758-.245c-.329.012-.916.04-1.064.414-.2.49.458.63.59.984" transform="translate(-1618.765 -1054.258)" fill="#5751c8" stroke="#eaecff" stroke-width="0.5"/><path d="M1887,1529.431a3.828,3.828,0,0,0-2.573-.313,2.6,2.6,0,0,1,.016,2.132c-.394.939-1.168.156-1.128,1.249.032.968-.6.6-1.208,1a2.172,2.172,0,0,0-.8,1.787c-.052.964.53.711.478,1.6a9.388,9.388,0,0,0,.313,2.425c1.16.253.679-.213,1.313-.755a3.463,3.463,0,0,1,1.963-.554,6.625,6.625,0,0,1,1.971.024,6.374,6.374,0,0,0,2.465.426c.361-1.092,2.064-2.863-.084-3.228-1.313-.225-.41-1.759.478-1.987.506-.132.723-.554,1.028-.96.406-.534.948-.546,1.586-.586-.345-1.188-1.188-2.939-2.714-2.638-.783.153-.992.663-1.57,1.06-.771.522-1.016-.4-1.534-.678" transform="translate(-1677.54 -1296.214)" fill="#5751c8" stroke="#eaecff" stroke-width="0.5"/><path d="M1698.429,1498.4c-1.184-.2-.313-2.771.731-2.911.835-.112.807-.482.775-1.217-.02-.417.538-.437.9-.414a3.128,3.128,0,0,0,.47-1.393c.221-3.373-4.918-3.758-7.267-4.091a13.137,13.137,0,0,1-.072,2.1c-.084.964-1.18.373-1.843.08a15.362,15.362,0,0,0-1.69-.735c-1.16-.357-1.337-.076-1.3,1.056a18.627,18.627,0,0,1,.028,2.273,2.013,2.013,0,0,1-1.634-.514c-.771-.827-1.674-2.353-2.979-1.393.935,1.156,1.281,2.991,1.767,4.376.265.755,1.642,4.525.526,4.6.522.827.281,1.188,1.377,1.494a26.265,26.265,0,0,1,4.184,1.618c1.064.518.875,2.024,2.4,1.184.747-.41,2.084-1.546,1.008-2.228.626-.851,2.064-.409,2.939-.442a2.711,2.711,0,0,0-.249-1.188,9.25,9.25,0,0,1-.064-2.26" transform="translate(-1494.177 -1258.339)" fill="#5751c8" stroke="#eaecff" stroke-width="0.5"/><path d="M1693.709,1755.249c-.04.377.185,1-.076,1.329-.474.59-1.168-.217-1.329.956-.048.333.056,1.261-.4,1.253a3.334,3.334,0,0,1-.41,2.642c.747.478,1.522.2,2.3.474s.823,1.136,1.485,1.5c.779.426,1.522-.4,2.112-.775.932-.6,1.743.157,2.69-.148-.084-.5-.47-.9-.474-1.421.727.068.47-.337.763-.8.261-.414.711-.526,1.112-.755,1.128-.634.751-1.6-.036-2.24a1.254,1.254,0,0,1-.546-.891c-.731.129-.875-.285-1.329-.735-1.959.028-3.895-.458-5.862-.385" transform="translate(-1500.655 -1507.036)" fill="#5751c8" stroke="#eaecff" stroke-width="0.5"/><path d="M1574.52,1752.618a1.735,1.735,0,0,1-1.341-.767,3.544,3.544,0,0,0-2.036-1.2c-1.429-.357-3.782-.8-4.685-2.028a3.078,3.078,0,0,0,.55,2.529,1.776,1.776,0,0,1,.5.919c.052.618-.426.293-.723.655-.4.482-.136,1.148-.719,1.594-.955.727-.5,1.136.41,1.417.988.3,1.839-.165,2.786.064a7.729,7.729,0,0,0,2.489.128c.566-.036,1.542.2,2.02-.2a3.221,3.221,0,0,0,.751-3.108" transform="translate(-1383.272 -1500.867)" fill="#5751c8" stroke="#eaecff" stroke-width="0.5"/><path d="M1553.964,1618.455c-1.421-.426-2.782-1.1-4.188-1.586-.943-.329-.51-1.421-1.49-1.321a3.123,3.123,0,0,1-3.373-1.421,3.735,3.735,0,0,0-2.782-2.056c.024.879-1.405-.389-1.453.767-.052,1.313-.373.755-1.377,1.14-.923.357-1.052,2.618-1.578,3.417a3.79,3.79,0,0,0-.739,1.931c-1.164.6-.257,1.1.574.964,1.056-.177,1.458.763,2.044,1.425.691.779,1.935.831,2.863,1.156.823.289,1.751.478,2.537.843s1.116,1.329,1.935,1.586c1.12.349.691-.9.952-1.6.325-.871,1.373.024,1.333-1.176-.036-1.092.783-.719,1.722-.638,1.176.1,2.345.285,3.525.325.8.024.855.225.919-.6a6.241,6.241,0,0,0-.024-1.642,1.869,1.869,0,0,0-1.4-1.514" transform="translate(-1356.152 -1373.614)" fill="#5751c8" stroke="#eaecff" stroke-width="0.5"/><path d="M1315.108,1582.111a4.669,4.669,0,0,1,.952-2.269,12.382,12.382,0,0,0,.847-2.517c.221-.618.823-.675,1.405-.723.694-.056.462-.374.49-.988.032-.811.807-.458,1.478-.478-.088-.458-2.16-.735-2.742-1.028a7.31,7.31,0,0,0-3.738-.755c-1.458.032-2.911.2-4.368.168-1.22-.032-2.638.365-3.722-.377-.329-.225-1.827-1.461-2.032-.823-.016.052-.771.542-.847.61a2.757,2.757,0,0,0-.851,1.4,3.353,3.353,0,0,0,.133,1.261,3.8,3.8,0,0,0-1.449,1.068,6.206,6.206,0,0,1-2.325,1.373c.948.168.815.936.98,1.646a.788.788,0,0,0,.65.606c.116.642-.277,1.2-.277,1.827.96-.084,1.763.67,2.642.915a4.349,4.349,0,0,0,2.81-.088c1.2-.578.859-3.14,2.714-2.831,1.69.281,3.505.08,4.866,1.285a8.34,8.34,0,0,1,1.016,1.317c.514.695.927-.374,1.369-.6" transform="translate(-1134.271 -1336.403)" fill="#5751c8" stroke="#eaecff" stroke-width="0.5"/><path d="M1250.176,1663a10.257,10.257,0,0,1,.285-1.345c.1-.763-.506-.442-.658-1.088-.221-.951-.129-1.53-1.309-1.63a14.023,14.023,0,0,0,.361,1.618c-1.763.161-3.26.691-2.248,2.73a3.489,3.489,0,0,1,.558,2.309c-.136.731-.4,2.02-1.429,1.245a.614.614,0,0,1-.522.775,3.606,3.606,0,0,0,2.333,1.614,4.816,4.816,0,0,1,1.634.49,4.759,4.759,0,0,0,1.915,1.04c1.12.108,2.791-.61,3.915-.779.719-.108,3.4.426,3.746-.385a4.449,4.449,0,0,1,.6-1.156c.4-.418.907-.12,1.144-.9.317-1.056-.285-.831-1.092-.943-.907-.125-1.8-.349-2.71-.458-1.333-.157-1.088-1.59-2.252-1.9a14.2,14.2,0,0,1-2.044-.462,4.9,4.9,0,0,0-2.224-.767" transform="translate(-1084.765 -1417.292)" fill="#5751c8" stroke="#eaecff" stroke-width="0.5"/><path d="M997.639,1548.7c1.373-.8.092-3.272-.233-4.143-.691-1.851,1-2.168,2.441-2.3a15.927,15.927,0,0,1-.361-1.618,1.9,1.9,0,0,1-1.028-.466,3.092,3.092,0,0,1-1.056-2.369c-2.433.289-3.365-1.987-5.6-2.112-1.221-.068-2.409.237-3.569-.3a2.7,2.7,0,0,1-1.192-1.016c-.474.145-.815-.217-1.036-.586-.373-.622-.574-1.991-1.437-1.771-1.265.325-2.224,1.337-3.413,1.847-1.682.723-4.6,3.389-2.3,4.983.952.658,2.373.57,3.473.618,1.245.052,2.417-.032,1.349,1.212-1.4,1.642,3.895,2.65,4.7,2.65a5.727,5.727,0,0,1,2.526.317,2.841,2.841,0,0,1,1.128,1.06c.582.911.582-.3,1.233.217.679.538.116,1.831.907,2.361.526.353,1.237.241,1.775.586.466.309,1.024,1.216,1.69.827" transform="translate(-835.757 -1298.998)" fill="#5751c8" stroke="#eaecff" stroke-width="0.5"/><path d="M886.281,1312.346c1.466-.687,3.176-2.192,4.8-2.325-.935-1.546-.767-3.035-2.272-4.212s-1.618-3.252-3.292-4.264c-1.586-.956-3.055-1.389-3-3.541a2.42,2.42,0,0,0-.879-2.3c-.4-.3-1.915-1.345-.956-1.763-.249-.036-.5-.068-.747-.092-.02.442-.357.45-.787.349a6.975,6.975,0,0,1-.45,1.606,5.792,5.792,0,0,1-.642,1.2c-.072.1-.883.823-.883.851a2.868,2.868,0,0,1,2.6,2.14c.333.811.261.943,1,1.285a3.884,3.884,0,0,1,1.293,1.184c1.574,1.983,2.5,5.83-.847,6.3-1.052.149-2.887,3.18-2.2,3.8a3.149,3.149,0,0,0,2,.743c.847.032.6.59.815,1.353a4.584,4.584,0,0,0,.831,1.759c.707.827.952.345,1.253-.486.514-1.421.851-2.887,2.353-3.593" transform="translate(-741.788 -1077.065)" fill="#5751c8" stroke="#eaecff" stroke-width="0.5"/><path d="M784.452,1364.926c.405-.8,1.08-.815,1.867-.919,1.048-.141,1.506-1.2,1.6-2.152a6.041,6.041,0,0,0-2.208-4.918c-.687-.59-1.024-.321-1.361-1.245a4.024,4.024,0,0,0-1.55-2.236c-1.012-.574-1.742.1-2.782-.1-.968-.189-1.8-.426-2.425.715-.385.7-.1,1.425-.715,1.959-.566.486-.723,1.919-.984,2.614-.2.53-.313,1.084-.5,1.614-.193.55-.723.518-.767,1.052a2.079,2.079,0,0,0,.53,1.787,7.591,7.591,0,0,0,2.2,1.819c.956.554,1.289,1.329,2.048,2.068a4.2,4.2,0,0,0,3.24.859c.891-.04,1.417-2.152,1.8-2.915" transform="translate(-646.211 -1132.368)" fill="#5751c8" stroke="#eaecff" stroke-width="0.5"/><path d="M717.118,1216.506a4.505,4.505,0,0,1,1.815.426c.719.47,1.148,1.265,1.875,1.746,2.068,1.357,3.67-.345,4.308-2.236a7.048,7.048,0,0,0,.293-1.18c.426.1.767.1.787-.349a3.629,3.629,0,0,0-1.12-2.839c-.707-.739-1.622-.634-2.529-.891-.546-.157-1.943-1.839-2.092-1.815.261,1.349-1.7,1.156-2.485.984-1.51-.329-2.71-1.735-4.344-1,.586.241.261.936.265,1.514a8.685,8.685,0,0,0,.393,1.51c.193,1.116-1.2,1.943-2.084,2.256a2.73,2.73,0,0,0,2.08.915c1.024.1,1.839.807,2.839.964" transform="translate(-588.047 -998.12)" fill="#5751c8" stroke="#eaecff" stroke-width="0.5"/><path d="M405.893,1130.674c-.558-.128.285-2.457-.076-3.1a1.1,1.1,0,0,0-.47-.438c-.554-.3-.426-.506-.41-1.14.016-.682.137-1.405.835-1.706a2.909,2.909,0,0,0-.964-1.024c-.747-.522-.823-1.1-1.1-1.907a3.44,3.44,0,0,0-3.148.988,3.049,3.049,0,0,0-.546,1.558c-.9.036-1.654-.2-2.457.309a2.822,2.822,0,0,1-1.722.329.555.555,0,0,0-.9-.056,9.26,9.26,0,0,0-.084,1.377c.016,1.22.309,3.067,1.8,3.264a5.266,5.266,0,0,1,2,.273c.7.4.562,1.056.731,1.722.313,1.217,2.4,2.056,3.509,2.168a16.993,16.993,0,0,0,2.26,0c.149-.687.992-.651,1.526-.771-.044-.707-.791-1.128-.791-1.851" transform="translate(-292.307 -916.294)" fill="#5751c8" stroke="#eaecff" stroke-width="0.5"/><path d="M306.809,1015.362c-.55-.345-.217-1.237-.7-1.658-.546-.478-.807.177-.984-.646-.108-.51-.41-1.028-.072-1.522,1.321-1.947,5.609-1.217,5.878-3.846.072-.7-.353-2.634.606-2.871.072-.779-.819-.474-1.365-.309-.835.249-.385,1.2-.538,1.931-.12.578-.57.855-1.008,1.18-.65.482-.554.679-1.453.4-1.5-.458-1.518-1.542-2.188-2.7a1.854,1.854,0,0,0-2.505-.514,3.633,3.633,0,0,0-.743,2.329,2.305,2.305,0,0,1-1.526,1.791,3.8,3.8,0,0,0-1.253.711c-.177.185.153,1.164.012,1.63a5.458,5.458,0,0,0,.072,3.176c.189.679,1.277,2.465,1.975,1.18a3.774,3.774,0,0,1,2.65-1.69,1.607,1.607,0,0,1,1.373.289c.466.442.944,1.662,1.771,1.136" transform="translate(-202.763 -807.239)" fill="#5751c8" stroke="#eaecff" stroke-width="0.5"/><path d="M674.8,1054.854a5.441,5.441,0,0,0-.39-2.975c-.642-1.064-1.377-.55-2.236-.245-2,.707-3.477-1.277-5.039-1.923-.859-.353-1.815-1.108-2.782-.927-1.1.209-1.987.406-1.237,1.586.546.855,1.441,1.461,1.9,2.369.345.674.719,2.614-.273,2.762a1.44,1.44,0,0,1,.658,1.124c.028.626.442.9.723,1.482.458.96.847,1.867,2.024,1.6,1.747-.389,3.28,1.4,5.119,1.3.659-.036,1.337-.329,1.188-1.1.4-.068.345-.377.369-.751.076-1.429-.084-2.863-.028-4.3" transform="translate(-542.045 -848.658)" fill="#5751c8" stroke="#eaecff" stroke-width="0.5"/><path d="M556.578,1134.848c.08-.558-.265-.964-.361-1.486-.116-.638.337-1.694-.3-1.959-1.441-.594-1.325-2.417-2.674-3.108-.618-.317-1.321-.422-1.939-.731-.526-.261-.911-.747-1.486-.916a3.53,3.53,0,0,1-1.674-.683c-.434-.41-.887-.642-1.437-.305-.907.558-1.281,2.24-2.164,2.337-1.634.181-1.618,1.522-1.562,2.867,1.449.418.931,1.831.763,2.923a2.079,2.079,0,0,0,.438,1.542c.241.393.984,1.333.141,1.353.6-.076,1,.422,1.57.45s.972-.45,1.6-.373c1.148.145,1.939.847,3.051.1,1.4-.94,1.61-.478,3.059-.092a3.017,3.017,0,0,0,2.975-1.919" transform="translate(-430.333 -920.176)" fill="#5751c8" stroke="#eaecff" stroke-width="0.5"/><path d="M1189.529,1184.921a2.319,2.319,0,0,0-1.662-.518c.044.727-.337.923-.434,1.465-.185,1.048-1.8.181-2.433.08a.958.958,0,0,0-1.136.586,13.567,13.567,0,0,0-1.454.068c-1.132.161-1.345,1.148-1.461,2.14.651.048,2.116.281,2.245,1.112s-.759.165-.209,1.241c.474.932.883,1.9,1.281,2.859a10.462,10.462,0,0,0,1.654,3.132c.622.695,1.461,2.626.494,3.276a4.529,4.529,0,0,1,2.108,1.124c.478.518,1.028.293,1.726.229a5.163,5.163,0,0,1,2.032.076c.811.261.671.265,1.461-.289.6-.417-.181-1.963-.277-2.642a4.432,4.432,0,0,1,.377-2.534,6.032,6.032,0,0,0,.365-2.357c.028-.867.024-2.272,1.14-1.6-.277-1.253-1.064-1.538-2.228-1.554-.723-.012-.735,0-.683-.719.04-.534.1-1.068.088-1.6a1.875,1.875,0,0,0-1.6-2.068c-.747-.141-.855-1.088-1.4-1.51" transform="translate(-1024.876 -975.051)" fill="#5751c8" stroke="#eaecff" stroke-width="0.5"/><path d="M1365.517,1305.79c1.132.044,1.4.893,1.112,1.739s3.156.586,3.959.662a10.985,10.985,0,0,1,4.015,1.072c.867.438,2.562,1.807,3.441,1a2.5,2.5,0,0,0,.783-1.02c.112-.353-.124-.883.133-1.18.558-.646,1.783.325,2.622-.229a9.111,9.111,0,0,0,1.076-.843c.574-.522-.237-.8-.663-1.16-.807-.674-1.714-.678-2.614-1.176-2.136-1.184-1.988-4.429-5.127-2.674a2.321,2.321,0,0,1-2.473.2c-.506-.217-.932-.044-1.249-.466a3.848,3.848,0,0,0-1.176-.911c-.755-.446-1.373-1.225-2.092-1.466-.614-.209-1.068-.711-1.662-.96-.686-.289-.714.8-.759,1.3a10.768,10.768,0,0,1-.566,3.252c-.586,1.486-.024,3.047.377,4.509.646-.819-.915-1.726.863-1.654" transform="translate(-1195.485 -1081.245)" fill="#5751c8" stroke="#eaecff" stroke-width="0.5"/><path d="M1574.215,1417.464c-1.032-.1-1.5-1.084-2.566-1.148-1.357-.084-1.847,1.048-2.987,1.662-.735.4-1.706-.646-2.289.028-.257.3-.016.827-.133,1.181a3.7,3.7,0,0,1-1.1,1.325c1.586.265,2.144,1.321,3.356,2.192,1.337.96,3.22.237,4.461,1.1.606.418,1.092-.269,1.891.229a4.73,4.73,0,0,1,1.22,1.245,1.755,1.755,0,0,0,1.321.719c.931.076.486-1.558.462-2.264-.028-.875-.145-1.333.879-1.16a9.009,9.009,0,0,1,2.112.839c.662.3,1.759.887,1.843-.08a13.528,13.528,0,0,0,.068-2.244c-.145-1.634-2.208-2.08-3.537-2.457a25.754,25.754,0,0,0-5-1.16" transform="translate(-1382.904 -1191.185)" fill="#5751c8" stroke="#eaecff" stroke-width="0.5"/><path d="M938.682,1293.3c.6-.618,1.5-.662,1.983-1.457a2.459,2.459,0,0,0-.173-2.357c.7-.032,4.617.566,4.324-.554-.385-1.477-1.57-1.658-2.526-2.614-.851-.851-1.373-1.9-2.176-2.742a10.779,10.779,0,0,0-1.622-1.221c-.558-.414-.638-1.481.3-1.265a9.093,9.093,0,0,0-2.124-3.71,1.143,1.143,0,0,0-.566-.357c-.574-.149-.277-.213-.8-.5-.546-.305.084-1.04.337-1.3a2.234,2.234,0,0,0-1.8.582c-.5.578-.554,1.2-1.526.719-.711-.349-2.81-2.682-3.32-.944-.193.662-.434.438-1.156.414a10.15,10.15,0,0,0-1.638.04c-.952.129-1.859.47-.935,1.4.5.5,1.237.767,1.542,1.445.43.952-.1,2.056.381,3,.739,1.461,2.69,1.63,3.734,2.8a19.124,19.124,0,0,1,1.337,2.481,13.9,13.9,0,0,0,1.847,1.727c.634.666.55,1.538.835,2.353a22.492,22.492,0,0,0,1.064,1.987c.245.522.526,1.526,1.208,1.63.984.161.988-1.064,1.465-1.554" transform="translate(-786.247 -1059.446)" fill="#5751c8" stroke="#eaecff" stroke-width="0.5"/><path d="M1075.854,1250.463c.04.329,1.217,1.052,1.558,1.642.562.968,1.341,1.674,1.558,2.823-.747-.173-.927.542-.514,1.06.462.578,1.309.863,1.839,1.421.968,1.02,1.558,2.4,2.774,3.244,2.313,1.61,2.268-.944,3.987-1.57,2.14-.779,1.184-2.766.12-4.107-1.144-1.441-1.586-3.449-2.373-5.091-.289-.6-.731-.863-.253-1.345a.51.51,0,0,0,.1-.671,2.534,2.534,0,0,0-1.6-.843,11.477,11.477,0,0,0-2.75-.128c-1.048.06-1.188.614-1.911,1.2-.775.63-1.807.173-2.578.96-.409.43-.931,1.3.04,1.405" transform="translate(-926.423 -1033.281)" fill="#5751c8" stroke="#eaecff" stroke-width="0.5"/><path d="M132.811,716.359c-.08.145-.3.116-.381.245.128-.128.43-.084.47-.289a.412.412,0,0,0-.108-.345A.492.492,0,0,1,132.811,716.359Z" transform="translate(-47.756 -538.533)" fill="#5751c8" stroke="#eaecff" stroke-width="0.5"/><path d="M134.007,704.607a.161.161,0,0,0,.02.036.3.3,0,0,1,0-.1c.02-.125.092-.249.068-.361a1.6,1.6,0,0,0-.1.181A.644.644,0,0,0,134.007,704.607Z" transform="translate(-49.209 -527.543)" fill="#5751c8" stroke="#eaecff" stroke-width="0.5"/><path d="M131.35,732.773l-.04-.116A.214.214,0,0,0,131.35,732.773Z" transform="translate(-46.712 -554.083)" fill="#5751c8" stroke="#eaecff" stroke-width="0.5"/><path d="M137.146,713.611a.473.473,0,0,0,.028.1.16.16,0,0,1,.02.036Z" transform="translate(-52.151 -536.335)" fill="#5751c8" stroke="#eaecff" stroke-width="0.5"/><path d="M144.986,961.25c1,1.116.61,1.365-.2,2.2-2.144,2.192.795,6.01.843,8.263.032,1.566,1.69,1.458,2.762,1.911.43.181,1.02.2,1.337.6.61.759-.988.771-.992.859-.088,1.445,2.389.141,1.7,2.192-.59.133-.751.578-.638,1.193-1.526-.381-1.49.843-1.4,1.975,1.309.116,3.433-.173,3.738,1.5-.919-.048-2.385-.2-2.449.948-.843.032-1.718-.04-2.558,0-.028.112-.052.221-.076.333-2,.132-2.943,3.71-1.1,3.593-.193-2.955,2.987-1.8,5.091-1.879-.032-.49.132-1.06.1-1.546,1.333-.052,1.939-.189,2.835.867.614.727,2.084-.931,2.947-.715.149.807.076,1.835,1.172,1.578a3.855,3.855,0,0,1,.514-1.73c.225.008.514-.064.743-.044.076-.618.281-.811.823-.927.3.887.783,1.69,1.638,1.827a.824.824,0,0,0,.092,1.574c.94.209,1.859-.325,2.794-.181,1.032.157,1.923.771,2.951.927a17.4,17.4,0,0,0,3.2-.028c-.012-.145.064-.349.052-.494,1.634-.06,2.108.55,3.284,1.433-.149.879.867,1.052,1.494,1.217,1.148.3,1.1.927,1.052,2.016-.06,1.349.883,2.068,1.369,3.216.57,1.349-.076,2.931-.028,4.332-1.63.016-.9,1.7-1.883,1.739a5.558,5.558,0,0,0-.233,1.959c-1.08.57-.9,2.686-2.056,3.208-.233.98-1.064,1.919-1.2,2.879-1.036-.948-1.04.8-.976,1.449-.124.012-.241.02-.361.028-.036.8,1.317,1.65.771,2.437-.389.558-.944.466-1.522.41-.775-.076-1.012.438-1.586.779-1.124.671-2.746-.056-3.967.08-1.417.161-.944,1.646-1.028,2.634-.6.237-1.55-.514-1.931.253a4.821,4.821,0,0,0-.128,1.8c-.06.964-.293,3.083,1.253,2.927.132.646.61,1.168.494,1.851-1.3-.273-.907,1.377-2.008,1.2-.12,1.325.064,2.365-1.088,3.284-.554.442-1.6,1.385-2.393,1.184-.133,1.269,3.814,7.03,1.012,7.673-.153,1.281.586,1.184,1.538,1.437,1.971.522.767,3.027.867,4.348a6.912,6.912,0,0,0,1.57.177,2.9,2.9,0,0,1,1.269-2.618c.229,1.213,1.558.67,2.3,1.229,1,.751.285,2.935,2.04,3.148-.044-.265.1-.63.064-.9.819-.245,2.072-.044,1.991,1.088,1.144-.329,2-1.469,3.236-1.8.052-.867.133-1.807,1-2.228-.6-.731-.907-1.458-1.935-1.815-.116-.546.253-.855.783-.783a3.962,3.962,0,0,0,.072-1.594c-.193-.538-.835-.682-.8-1.333-.936-.136-1.943.646-3.063.417-.06-1.626.919-3.65.518-5.2-.305-1.176-1.474-.4-1.979-1.4s.7-5.107-1.2-4.746c-.5-1.112.253-2.875-.992-3.666-.542-.341-2.272.052-1.987-.927,1.18,0,1.714-.972,2.2-1.951,1.566-.7,2.176-.381,2.252,1.221,1.574.141,1.767.141,1.919-1.385.325.04.711-.052,1.036-.016.044-.47.036-.96.072-1.433,1.06.024,1.518-1,2.546-1.417.43.7-.185,1.084-.462,1.654-.43.887.61,1.73.634,2.61-1.3.052-2.654.181-2.429,1.943.293.181.654.414.883.566a5.759,5.759,0,0,0,.213-1.3,2.164,2.164,0,0,1,1.172-.108c.028.984-.012,1.674-.952,2.124a1.982,1.982,0,0,0-.028.9.787.787,0,0,0,.96-.739c.446-.072,1.265-.671,1.71-.349.618.442-.361,1.413.638,1.622-.036.181.052.446.024.626.771.032,1.229-.6,2.036-.369.923.261,1.469.662,2.5.353-.024-.325.088-.707.068-1.028,1.048-.1-.321-2.722-.422-3.4.855.048,1.172.887,2.064.755-.116,1.566.9,1.152,2.124,1.261.153.9-4.513,4.38-1.341,4.886.116-.614-.574-1.329.2-1.722.65-.333,1.582.068,2.268.04-.2-1.71,1.172-1.16,1.522.04a31.645,31.645,0,0,0,4.934-.008c.04-.47-.181-3.7,1.168-2.79,1.028.691,3.369-.911,2.622-2.16a5.341,5.341,0,0,1,2.248.285c.008-.679,2.14-1.3,2.722-1.237.032.831.028,1.586.735,2.132.618.478,1.417,1.57,2.12,1.831.305,1.8-2.124,1.558-1.787,2.991.145.044.245.108.369.157a2.24,2.24,0,0,1-.3.655c-.418.161-.269.088-.546.389a.96.96,0,0,0-.923.775,4.607,4.607,0,0,0,1.714-.084,1.053,1.053,0,0,1,1.393-1.152c.851.273.486,1.365.5,2,1.582.486,1.2-1.795.875-2.614.47-.357,1.237-.47,1.486.132a1.371,1.371,0,0,0,.285-.763c.859-.221.771.321,1.084.871.357.63,1.618.325,2.2.381a2.748,2.748,0,0,1,.008-.361.942.942,0,0,1-.574-.819,4.228,4.228,0,0,1,1.947-.088,3.236,3.236,0,0,0,.132.807,2.076,2.076,0,0,0,.181-1.068,10.891,10.891,0,0,1,1.445.04.926.926,0,0,1-.518.622c-.534.37-.426,1.052-.462,1.61a5.7,5.7,0,0,1-.835,2.907c1.18.341,1.622-1.052,2.778-.964.036.919,4.22.538,5.2.5-.8-1.779,1.931-2.562.683-4.252a1.261,1.261,0,0,1,1.213-.217,2.115,2.115,0,0,0,.132.939c.353-.63.871-1.453,1.891-1.156.012.265.189.494.161.767.458.474.735.932,1.55.847-.165-.907.687-1.337.365-2.365.626-.024,1.743-.3,2.272.165.948.831-.161,2.1-.06,3.072.859.068,2.325-.534,2.61.6.414,1.646,2.5.811,3.626,1.08.04.976-.442,2.284.181,3.156.711,1,2.75.341,3.766.43,0,.381.008.787.008,1.168.783.068,1.594.032,2.377.1.028.739-.044,1.5-.016,2.24.426.044.875.032,1.3.076.02.426-.012.875.008,1.3,1.052-.181.839,1.048,1.686.847.092-.7-.157-1.3-.044-1.971,1.457-.052,4.549.662,5.4-.53a2.092,2.092,0,0,1,1.847.558,7.134,7.134,0,0,1,.128.919c.265.329.779.084,1.048.377,1.341,1.469-.482,2.281-1.771,1.658a14.106,14.106,0,0,0-.052,1.843c.181-.032.454.084.63.052.024.6-.028,1.233-.008,1.835,1.377-.032,1.2,1.056.871,2.016-.466,1.349-1.048,1.815-1.184,3.34-.265-.06-.638.076-.9.016a1.584,1.584,0,0,0-.02.763,2.2,2.2,0,0,1,1.429,1.265c.217.53-.157,1.433.747,1.381-.2,1.381,1.582,1.112,2.517,1.409.088,1.907,4.388,1.919,5.681,1.257,1.405-.719.241-2.5,1.116-3.5.385-.438.851.289.9-.594.048-.767.988-.566,1.538-.6-.137-.968-1.321-1.494-.321-2.437.562-.53,1.747-.731.992-1.747-.719-.968-.193-1.666.426-2.441.49-.614-.217-.831-.341-1.373a5.067,5.067,0,0,1,.068-1.594c1.333-.129,2.425-.687,2.509-2.164.1-1.747-.723-2.521-2.036-3.441-1.445-1.016-.972-2.549-1.558-3.967a6.028,6.028,0,0,1-.048-4.637c.41-1.217.956-2.381,2.317-2.686,1.734-.385,2.429-1.273,3.923-2.056,1.064-.558,2.57-.6,3.3-1.666.771-1.124,1.088-2.722,2.65-3,.373-.594,1.249-.554,1.807-.855.634-.337.667-1.044.8-1.658.285-1.357,2.839-1,2.6.5,1.072.129,1.172-.538,1.915-1.048,1.212-.839,2.694.345,3.967.458,2.65.237,2.553-2.505.381-3.088s-3.541-1.967-5.541-2.955a8.787,8.787,0,0,1-1.494-.867c-.642-.494-.361-1.16-.719-1.779-.759-1.3-2.2-1.722-2.762-3.264a5.529,5.529,0,0,0,3.381-.988c.562-.434.052-1.594-.092-2.12-.221-.827-.859-.678-1.594-.755-1-.1-1.847-.783-2.911-.9-.51-1.168-.377-2.3,1.116-2.361s.863-.907,2.156-1.277c1.618-.466,3.361.237,5.007-.012.735-.112,1.385-.578.747-1.329-.434-.51-1.325-.277-1.9-.325a.711.711,0,0,0-.783-.827,9.409,9.409,0,0,1-.229-2.911c-1.164-.2-2.6.3-3.605-.518-1.164-.944-.337-2.5-.566-3.726-.273-1.437-2.16-.667-1.763-2.184.361-1.4-1.253-2.292-1.076-3.674-1.522.052-1.759-1.586-1.867-2.794" transform="translate(-58.538 -767.111)" fill="rgba(0,0,0,0)" stroke="#eaecff" stroke-linejoin="round" stroke-width="0.5"/><path d="M97.128,616.443a15.264,15.264,0,0,1-.606-2.654" transform="translate(-14.294 -443.31)" fill="rgba(0,0,0,0)" stroke="#eaecff" stroke-linejoin="round" stroke-width="0.5"/><path d="M82.228,189.266c-.132-2.542-.016-4.7-.771-7.187-.715-2.345.108-5.472.9-7.733.12-.012.237-.02.361-.032.422-.711.393-1.5.984-2.136a2.785,2.785,0,0,0,.927-1.827c.072-1.18-.229-2.967,1.494-2.923.2-.586.715-.626.807-1.309.128-.944,1.128-.743,1.8-.771.225-2.493,2.774-3.83,3.854-5.9a5.627,5.627,0,0,0,.458-1.2" transform="translate(0 -18.791)" fill="rgba(0,0,0,0)" stroke="#eaecff" stroke-linejoin="round" stroke-width="0.5"/><path d="M250.226,138.086c-.108,1.225,1.59,2.172,2.377,2.883,1.365,1.237,3.268,1.321,4.814,2.224-.683-.124-1.257.317-1.863.542-.426,1.353-.63,2.979-1.562,4.107-.8.968-2.578,2.064-1.7,3.461.534.851.157,2.762.94,3.244,1.084.667,2.73-.124,3.846-.321-.128.63.349,1.465-.237,2.1.5.257,1.626,1.859,2.252,1.337,1.108-.919.393-1.73,1.919-2.136,1.064-.285.859-1.73,1.935-1.654,1.329.092,2.068-1.1,3.244-.293,1.381.944,1.478,2.272,2.441,3.493,1.136,1.437,3.023,2.4,4.4,3.605.518.454,2.859,1.353,2.911,2.028.072.919-2.184.911-2.738,1.076a1.886,1.886,0,0,0-.442,1.55c1.16.414,1.3,1.927,2.59,2.12.024,2.1,1.734,1.08,3.088,1.132,1.987.08,1.9,1.032,1.967,2.71,1.429-.084,2.67,1.377,4.023,1.726,1.325.341,1.738.622,1.8,1.911a21.11,21.11,0,0,1,3.6.257c1.594.426,3.019-.486,4.561-.141.024.638-.036,1.3-.008,1.939a3.111,3.111,0,0,1,1.172-.032c.032,1.116,1.666-.024,1.474,1.743a14.183,14.183,0,0,0,1.7.044c.626-.727.59-1.634,1.57-2.056.173-.072.345-.145.522-.217" transform="translate(-157.527)" fill="rgba(0,0,0,0)" stroke="#eaecff" stroke-linejoin="round" stroke-width="0.5"/><path d="M491.855,952.158a6.637,6.637,0,0,0-3.256-.972c-3.156-.373-4.665-4.2-8.086-4.111-.088.992.161,1.313-.8,1.815-.8.409-.494,1.935-.562,2.658-.51.124-.6.615-.6,1.111.216.017,1.115.087,1.315.087a1.306,1.306,0,0,1,.863.59c.182.318.726.091,1-.045a.787.787,0,0,1,.817.136,2.625,2.625,0,0,0,1.271.318,5.363,5.363,0,0,1,1.135.182,1.37,1.37,0,0,1,.817.681c.227.409.953.772,1.317.318s.59-.726.908-.363a2.65,2.65,0,0,0,1.634.635c.363-.045,1.407-.318,1.407-.318l.077.031c.013-.266.283-.4.809-.581C491.345,954.218,492.746,952.849,491.855,952.158Z" transform="translate(-370.308 -753.9)" fill="#5751c8" stroke="#eaecff" stroke-width="0.5"/><path d="M409.844,1033.73a13.386,13.386,0,0,1-1.369-1.606,1.533,1.533,0,0,1-.327-.776l-.077-.031s-1.044.272-1.407.318a2.649,2.649,0,0,1-1.634-.636c-.318-.363-.545-.091-.908.363s-1.09.091-1.317-.318a1.37,1.37,0,0,0-.817-.681,5.352,5.352,0,0,0-1.135-.182,2.624,2.624,0,0,1-1.271-.318.787.787,0,0,0-.817-.136c-.272.136-.817.363-1,.046a1.307,1.307,0,0,0-.863-.59c-.2,0-1.1-.07-1.315-.087,0,.3.037.611.031.836a3.611,3.611,0,0,1-.622,2.313,14.13,14.13,0,0,0-2.975,1.132c-.634.305-1.911.715-2.325,1.325s-.024,1.911.534,1.967c.751.076.787.715.911,1.309a.778.778,0,0,0,1.188.55,3.527,3.527,0,0,1,1.072-.534c.771-.112,1.6.422,1.787-.442.257-1.2,3.316-3.365,3.754-1.614.245.984.827,1.188,1.485,1.843.377.377.213.655.779.518.747-.177.779.02,1.116-.654a4.324,4.324,0,0,1,1.457-1.751c.863-.53,1.265.373,1.959.691.638.289,1.277.245,1.855.678.96.715,2.232.8,3.14,1.538a1.5,1.5,0,0,0-.63-1.546C411.479,1037.051,410.411,1034.369,409.844,1033.73Z" transform="translate(-287.346 -830.337)" fill="#5751c8" stroke="#eaecff" stroke-width="0.5"/><path d="M1124.493,1436.616c.523,0,1.536-1.226,1.484-1.277a1.261,1.261,0,0,0-.453-.635c-.363-.272-1.451-.091-1.451-.091s.181-.726.453-.726h-.907c-.816,0-.454-.635-.454-.635s.726-1.361.907-1.814a3.872,3.872,0,0,0,.091-1.361l-.272-.454.907-1.633s-.181-2-.181-2.9.091-2.993.091-2.993-.556.054-1.07.074-1.176-.863-1.726-1.112c-.883-.4-1.273-.209-2.092.253-1.253.7-1.377,2.726-3.24,1.771-.028.406.642.341.943.735a3.419,3.419,0,0,1,.562,1.433c-1.458.6-2.9.125-4.4.2.526,1.112.618,2.212-.462,3.015-.422.317-.98.41-1.353.8-.478.494-.373,1.3-1.144,1.538,1.168,1.931,3.485,1.032,5.272,1.373,2.044.389,2.754,2.329,5.087,2.052-.048,1.176.819,2.726,2.1,2.835C1123.585,1437.09,1124.039,1436.688,1124.493,1436.616Z" transform="translate(-959.431 -1195.405)" fill="#5751c8" stroke="#eaecff" stroke-linecap="round" stroke-linejoin="round" stroke-width="0.5"/><path d="M1295.726,1422.2a5.083,5.083,0,0,1-.551.389,1.3,1.3,0,0,0-.453-.7c-.363-.272-1.451-.091-1.451-.091s.181-.726.454-.726h-.907c-.816,0-.454-.635-.454-.635s.726-1.361.907-1.814a3.873,3.873,0,0,0,.091-1.361l-.272-.453.907-1.633s-.181-2-.181-2.9.091-2.993.091-2.993a4.619,4.619,0,0,1,2.9.227c.389-.345,1.108-.51,1.108-1.132,0-.281-.341-.811-.173-1.064.261-.394,1.377-.189,1.686.032a1.322,1.322,0,0,1,.453,1.1c-.4,1.1.491.923,1.362,1.044.426.614.348.546.8,1.129l1.086.569.577.453a5.162,5.162,0,0,1,.886.449c-.037.461-.342.73-.342,1s-.544.816.363,1.27,1.179,1.723,2.177,1.9,2-.544,2,.816a4.382,4.382,0,0,1-.726,2.358h0a10.742,10.742,0,0,1-1.79.2,33.194,33.194,0,0,1-5.011.116c-1.261-.125-1.8-1.129-3.023-1.431-.061-.015-.072.145-.231.236a3.413,3.413,0,0,0-1.664,1.962,3.362,3.362,0,0,0,.133,1.261A2.231,2.231,0,0,0,1295.726,1422.2Z" transform="translate(-1128.628 -1182.595)" fill="#5751c8" stroke="#eaecff" stroke-linecap="round" stroke-linejoin="round" stroke-width="0.5"/></g></svg>