<svg xmlns="http://www.w3.org/2000/svg" width="115.655" height="180.53" viewBox="0 0 115.655 180.53"><g transform="translate(0.297 0.252)"><g transform="translate(0 0)"><path d="M399.159,33.011l.041,1.318v.865l-.329.412-.371.906.659.329.165.988.824.577-.124.329.535.288.741-.082.206.741.453.453.659.371.124.371-.329.906.618.288.082.782-.041.618.7.329.535.741-.453.7.371.741.124.782.206.988v1.03l-.329,1.03-.206,1.03-.124.741-.494.783-.165.247-.041.7-.453.741-.247.947.371.165.577.412.535-.082.371-.041v-.494l.494-.371.7.165.577-.329-.247-.288.412.288.041.7-.906.494-.577.618v.329l.412.453.783-.288.124.782.412.124.453-.659.082-.535.206-.288.412.453.782-.453.124-.165.659.206.494-.659.082-.535.041-.783s.041.494.206-.082l.165-.577.329-.741.412-.247-.206-.741.453-.329-.247-.494-.247-.7-.124-.206.659-.659.535.206.371-.124.165-.412-.453-.247-.453-.412.082-.618.288-.329-.041-.7-.124-.782.206-.659.412-.494h.288l.535-.247.412-.082.206.165-.494-.7-.371-.659.082-.741-.7-.7-.329-.412-.659-.288.041-.906-.494-.206-.329-.206.618-.494.124-.247-.206-.288.206-.206-.165-.659.371-.494.288-.412-.577-.206-.535-.082-.412-.247-.618.206-.371-.206-.535-.412-.371.371-.124-.618-.371-.082h-.535l-.329-.288-.329.329-.865.247-.494-.082-.041-.494-.741.082-.577.247-.412.659-.577-.247-1.112-.618-.412-.082-.041-.865-.329-.412-.041-.618-.165-.453-.535-.165-.783-.082Z" transform="translate(-338.624 -32.97)" fill="#5751c8" stroke="#eaecff" stroke-width="0.5"/><path d="M472.485,39.468l-.659.906.165.659-.206.206.206.288-.741.741.824.412-.041.906.659.288,1.03,1.112-.082.741.662.54.377.215h.431a1.31,1.31,0,0,0,.027-.323.6.6,0,0,0,.323-.054l.189-.081.377-.027.215-.189.081-.135.377-.054.377.215h.323l.108-.189.108-.458h.35l.242-.485a1.074,1.074,0,0,0,.189-.458,1.535,1.535,0,0,1,.215-.539l.081-.431h.269l.054.4.215.269-.242.269.189.189.539-.108a3.74,3.74,0,0,1,.592,0l.3.027h.592l.458-.135h.3l-.108-.512.054-.673.269-.189.458-.189.081-.458.619.027.458.108.512.35s-.027.189.242.269l.269.081.269-.269-.135-.727.027-.727.188-.781-.162-.7v-.646l-.215-.646.081-.3-.592.108-.242-.377-.458.054-.592-.35-.485-.242-.7-.054-.108-.539-.7.673-.592-.3-.269-.7-.485-.35-.485-.054-.269.485-.35.162-.4-.162-.323-.242-.269-.431-.673.081-.269-.162-.35.162-.512.054-.485.189a1.424,1.424,0,0,1-.215.377l-.081.054-.269-.269.323.673-.323.3-.35.485-.431.242-.512.108-.135.4-.162.539Z" transform="translate(-399.389 -35.349)" fill="#5751c8" stroke="#eaecff" stroke-width="0.5"/><path d="M472.868,84.662l-.247-.494-.371-.906.659-.659.535.206.371-.124.165-.412-.906-.659.082-.618.288-.329-.165-1.483.206-.659.412-.494.824-.247.412-.082-.659-1.194,1.039.755.437.055.021-.378.512-.135.377-.027s-.081-.269.3-.323l.377-.054.377.215h.323l.215-.646h.35l.242-.485.4-1,.081-.431h.269l.054.4.215.269-.242.269.189.189.539-.108.889.027h.592l.754-.135-.108-.512.054-.673L483,73.6l.458-.189.081-.458.619.027.458.108.512.35.512.35.454.43.282-.352.463-.8.382-.4.493.317.458.6-.237.884.426.246.654.378.557-.321.609-.352.352.249.358.1v.358l.033.391.554-.13.456.293.26-.033-.033.684.456.358-.1.489.163.261-.26.391.13.423-.163.554-.163.033.1.228-.033.456-.391.1-.065.456.261.326-.2.554-.1.261-.065.456-.065.456-.293.554-.2.619-.2.684.033.456.391.489.326.391.26-.13.586.163h.326l.033.326-.163.2-.293.228.358.228-.13.326.326.326.326.456.033.293h-.814l-.293-.228-.358-.358-.554.358-.261.228h-.489l-.586-.358h-.716l-.489-.261s.2.391.13.521l-.065.13a2.3,2.3,0,0,1-.163.521l-.065.065-.554.13.326.489-.163.619h-.488l-.489-.163.456.554-.1.358-.717.065-.13.391-.1.456-.228.651-.521.1-.489.456-.586.228h-.391l-.684-.456-.343-.2-.243.361-.228.358.033.684.26.619-.228.293.261.717-.293.358-.619.1-.391.358-.586-.358-.293,1.042-.749-.261.391-.358.13-.684.13-.261-.228-.423.521-.2.586.456.879-.489-.163-.782-.293.1-.521.326s.391.521,0,.2-.391-.358-.391-.358l-.163-.749v-.586l-.228.13.13-.586-.2-.489-.489.163-.489-.423-.228.13-.2-.423-.358-.033.2-.651-.228-.554-.684-.033h-.228l.2.521-.489.228-.358-.326-.391.13.2-.651-.293-.489-.423.423-.391-.2V88.8l-.391-.2v-.13l-.619.065v-.619l-.293-.326-.423-.1-.261.293-.293.065-.521-.684-.2-.456.1-.423-.2-.586-.1-.586.1-.423Z" transform="translate(-400.224 -66.129)" fill="#5751c8" stroke="#eaecff" stroke-width="0.5"/><path d="M587.42,96.057l.13.423-.163.554-.163.033.065.684h0l-.391.1-.065.456.261.326-.293.814-.13.912-.293.554-.391,1.3.033.456.716.879.261-.13a1.226,1.226,0,0,0,.586.163h.326l.032.326-.456.423.358.228-.13.326.326.326.326.456.033.293.651-.163.033.293.358-.163.619.358.032.2a.791.791,0,0,0,.456-.163c.2-.163.228-.163.228-.163l.293.261.554-.033.293.261.423.163.391.163.586-.13.488.163.358-.2.13-.2.586.065.521-.1.358.358.358.456.228.2.489-.293.326-.13.293.163.228-.163s.456-.163.423-.326l-.033-.163h.619l.489.228.456.261s.1-.358.489-.13l.391.228.2.228.2.326-.163.13.228.391-.1.423.521.293.163-.554.489-.2.293.554.456.293.065.261.228-.684.619-.163s.391,0,.358-.2,0-.2,0-.2l.293-.065.456.1.456.326.358-.293v-.13l.391.033-.1-.423.228.033.456.228-.1-.619.326-.293h.423l.358.13.521-.033.651-.033h.261l-.261-.456.782.228.261.1.033-.554-.228-.391.1-.326-.2-.489.326-.293-.033-.554.033-.619-.163-.358.554-.293-.261-.521.13-.586-.554-.228V101.5l.456-.358-.2-.586.163-.651-.358-.749-.554.033-.847-.261-.554.326-.684.261-.456-.782-.033-.456-.489.293-.651-.065-.684-.065-.521-.228-.293.619-.326.326-.684-.13-.326-.1.228-.554.358-.13.293-.423.1-.619-.619-.261-.2.228-.423-.456h-.586l-.456-.13-.261-.261-.391-.261-.326.033-.228-.261a2.05,2.05,0,0,0-.749.293l-.228.2-.521.326-.423-.228-.358-.521-.326-.521-.651.1h-.847l-.033-.358-.261-.619-.586.13-.554.456-.391.261-.358-.358-.326.293-.554.326-.358.521-.782.163-.293-.293-.554.065-.423.261-.293.391-.358-.586-.586.261-.163.261h-.619l-.228-.391-.521-.586h0Z" transform="translate(-495.225 -84.358)" fill="#5751c8" stroke="#eaecff" stroke-width="0.5"/><path d="M537.876,168.275l-.261-.716.228-.293-.261-.619-.033-.684.471-.719,1.027.654h.391l.586-.228.489-.456.521-.1.326-1.107.13-.391.716-.065.1-.358-.456-.554.489.163h.489l.163-.619-.326-.489.554-.13.228-.586-.065-.651.488.261h.716l.586.358h.489l.814-.586.651.586h.814l.651-.163.033.293.358-.163.619.358.033.2h0l.684-.326.293.261.554-.033.293.261.814.326.586-.13.489.163.358-.2.13-.2.586.065.521-.1.358.358.586.651.814-.423.293.163.228-.163.391-.489h.619l.944.489.261-.261.619.358.391.554-.163.13.228.391-.1.423.521.293.163-.554.489-.2.293.554.456.293.065.261.228-.684.619-.163.358-.391.293-.065.456.1.456.326.358-.293v-.13l.391.033-.1-.423.228.033.456.228-.1-.619.326-.293h.423l.358.13,1.433-.065-.26-.456,1.042.326.065.326.326-.228.033.423-.326.326-.814-.13-.2.326.261.228-.261.228.358.163.293-.1.228.716-.684.1s.684.586.358.521l-.326-.065-.391.261.1.554-.489-.521-.391.423-.358.065.2.847-.554.423-.456.065.261.456-.2.228h-.912l.358.456v.554l-.521.065-.261-.456v.423l.554.586s-.489.391-.293.586l.2.2.456.228-.521.2.033.521-.716.163-.489-.619.2-.2.521.13-.326-.619-.163-.521-.065.489-.358.423-.456-.13-.423-.358.033.586.391.456s-1.14.326-.651.261l.489-.065.391.684s.228.456-.293.163l-.521-.293h-.521l-.293.749.13.684.456.261s.391-.554.261-.228l-.13.326-.293.261-.423.293.521.293.391-.651s.684.456.489.684l-.2.228.456.489-.2.261-.619.065-.586.423-.293.423-.163.2-.228.717.423.586-.358.326s0,.065-.391.261-.033.489-.391.2l-.358-.293s-.358-.391-.13-.684l.228-.293a1.25,1.25,0,0,1-.521-.065l-.293-.1a.435.435,0,0,1-.488.228l-.358-.065-.326.326s.1-.065-.489-.261-.619-.2-.619-.2l-.163-.847-.261-.293-.293.293-.423.456s.358.261.065.423l-.293.163-.847-.163-.619-.2-.423-.554-.619-.521-.684.261.1-.651-.521.065-.163-.326.2-.358-.456-.326-.391-.456-.358-.489s.1.033-.293.033H550.9l-.489.065-.619-.456-.326-.619v-.391l-.489-.391.423-.912-.521-.912-.391-.782-.489-.456s-.423-.033-.1-.293l.326-.261.456.2.2-.944-.489-.2-.228.489-.261.13s.261-.521,0-.554l-.261-.033.326-.717-.488-.619.032-.749-.489-.065-.423-.261-.651.261-.228-.521-.456-.163-.619-.1-.2-.684-.716-.586-.456.2a.3.3,0,0,1,.2.423l-.13.326-.423-.065-.358.261.26.261-.163.228h-.456l.293.489.033.651-.033.163.651.358.489-.261.163.358-.293.423.391.261.033-.684h.651l-.13.586.554.163-.391.293-.2.619h.423l.13.358.489-.13.2-.651.163.228v.456s.326.521.489.163l.163-.358.456.456-.163.326.033.423-.326.163.033.391-.651-.065-.489-.033-.586.033-.586.293-.684-.391-.261-.651-.358-.554h-.554l-.651.1-.423-.228-.261.619v.554l.423.423.228.228-.684.163-.782-.326-.554-.261-.163-.879v-.782l-.554-.228-.456.228Z" transform="translate(-454.767 -139.348)" fill="#5751c8" stroke="#eaecff" stroke-width="0.5"/><path d="M385.635,174.367l.453-.659a.538.538,0,0,1,.082-.535l.206-.288.412.453.783-.453.124-.165.659.206.2.465-.046.276.438.322.23.207-.069-.875.115-.345h.553s-.046.507.138.322l.184-.184.3.069.438.461.322-.345.484.415.345-.207.53.253.138.276.461.461v.53l.484.576.138.645.138.622-.392.553-.507-.415-.115.415-.622-.3-.3-.507a.39.39,0,0,1-.138.461l-.253.161.023.553-.345.184-.6-.207-.115.368.276.484-.668-.069-.345.322-.207.3-.53.645.092.53-.046.322.207.484-.322.53-.345.23-.668.3-.484.069-.345.484-.852-.069h-.322l-.322.76-.622.069s.069-.23-.253.138l-.322.368s-.3-.23-.23.276l.069.507-.115.391-.322.484.184.507.438.391-.023.415-.207.115.138.507s.438.184.3.345l-.138.161s0,.046-.461.092a2.509,2.509,0,0,1-.461.046h-.253l-.092.622-.253.391-.207.368.161.461-.322.069-.069.53-.253.415-.23-.23-.207.415.138.507.276.645.138.461s-.23.253,0,.368l.23.115s.069-.046-.138.3l-.207.345.207.415.345.391.069.622.714-.023.138.576.415-.507h.3l.184-.576.253.092s.046.415.138.415h.092l.392-.161s-.069-.368.115-.23l.184.138.368-.461.461-.115.576.115v1.036l.484.092.276.3.438.438s-.23.276.276.345l.507.069.576.253.553.461-.046.576.368.184.391.53.806.253.6-.069.3.576-.161.553-.046.76a1.542,1.542,0,0,1-.276.668c-.23.3-.253.161-.253.161s-.668-.023-.53-.23.115-.207.115-.207l-.345-.276-.253.069-.161.415-.461-.023-.253.322-.184.484-.3.161-.207.23-.484.023-.184.322.115.484-.553.368-.345.115-.3.276-.046.484-.461.276-.322.046.115.322.276.161v.783l-.23.438-.322.023-.161-.345-.322-.023-.322.115-.253.276.207.23-.184.23.207.438-.3.484-.322-.23-.368-.276-.184-.115-.115.553.276.345.23.023-.138.253-.392.23.253.345v.253l-.23.415.3.069.576-.046.576-.184.276.415.553.184.253-.069s.438.069.345.253l-.092.184s.023.184-.3.3l-.322.115-.207-.484-.622-.046-.161.3-.3.438-.276.207-.414-.536-.586-.1-.261.391a.251.251,0,0,0-.065.391c.2.228.326-.261.2.228l-.13.489-.521.326-.163-.879-.489-.163.13-.521.358-.033s.391-.391.065-.586l-.326-.2s-.261-.261.033-.717l.293-.456-.2-.651-.749-.358.423-.293v-.358s.261-.326.033-.423l-.228-.1-.293-.554-.391-.456-.2-.554-.163-.944-.228-.228.358-.1-.358-.456-.749-.391-.261-.619-.065-.521-.033-.586.326-.391.033-.782.423-.1-.521-.326.358-.423-.228-.586.13-.326-.261-.391s-.228.782-.521.261l-.293-.521s-.261-.749-.684-.521l-.423.228-.261-.619-.554-.293-.358-.977a.565.565,0,0,0-.651.065,2.414,2.414,0,0,1-.423.261l.2-.912-.228-.456-.293-.651.456-.261.261-.489-.489-.423-.423.326-.619-.358-1.205.033-.13-.521.065-.684s-.651.1-.456-.261l.2-.358.684-.228-.228-.717.1-.489-.1-.749.358-.749v-.521l.423-.423.586-.13.1-.456.358-.521s.13.163.326-.065l.2-.228.1-.1.065.293.293.521.554-.391.261-.13.489-.13-.521-.554.423-.1s.879-.163.391-.358-.391-.977-.391-.977l.423-.261.358.293.13-.619.619-.326.293-.326.391.2.391-.228.358.065.521-.521s-.065.033.293-.423l.358-.456.651-.065.033-.586s-.065-.456.358-.456-.13.261.391,0a2.527,2.527,0,0,0,.488-.261l.065-.423.879-.163.358-.717.521-.521.2-.456.358-.033s.1.326.228.13.13-.228.13-.228l.228-.456-.423-.651-.228-.358-.2.326h-.456l-.489-.456.391-.456.423-.423.391-.163-.456-.391-.261-.163Z" transform="translate(-317.686 -149.698)" fill="#5751c8" stroke="#eaecff" stroke-width="0.5"/><path d="M449.187,344.968l-.53.829s-.849.046-.632-.2l.217-.242-.345-.276-.253.069-.161.415-.461-.023-.438.806-.3.161-.207.23-.484.023-.184.322.115.484-.553.368-.345.115-.3.276-.046.484-.461.276-.322.046.115.322.276.161v.783l-.23.438-.322.023-.161-.345-.322-.023-.322.115-.253.276.207.23-.184.23.207.438-.3.484-.875-.622-.115.553.276.345.23.023-.138.253-.392.23.253.6-.23.415.3.069.576-.046.576-.184.276.414.553.184.253-.069.629.023.361.06.422.392.452.12.572-.271.482.181s.452.392.663.3.181-.09.181-.09-.06-.392.09-.392h.151l.422.241.482-.361-.422-.271.361-.06h.632l.03.482-.151.693.452.512.181-.331v.6l-.271.452v.361l-.3.3-.06.572s.361-.12.422.09a1.585,1.585,0,0,1,.06.241l.452-.361.211-.392.723-.03.542.392.542-.151.331.181.3.723h.452l.422-.6.241.03.482-.542.994-.06.783.181.3-.241h.512l.572.181.452.482.542.271.422-.512.392.482.813.181.181-.723.542-.361.181-.3.241.392.512.241.572.3.6.151.392.512.151-.783.512.181-.422-.813.331-.392.3.09-.06-.813-.06-.271.422-.512.512-.452h.542v-.482l.211-.12h-.843l-.482-.422-.572.422-.452-.422-.392.06-.331-.632-.12-.241h-.422v.482l-.422-.392-.482-.542v-.241l-.512.03.09-.632-.331-.392-.271-.331-.271-.211.572-.211-.181-.783.392-.241-.181-.693-.06-.3-.512-.241-.181-.211-.06-.813-.271-.181-.422.361-.663-.3s.482.361.181.452-.542-.09-.3.12l.241.211-.391.331a.332.332,0,0,1-.512-.09c-.241-.331-.181-.482-.271-.331l-.09.151-.422.361-.09.452-.331.211-.361-.361-.211.392-.572-.422h-.331l-.181-.542-.392.271-.452-.753-.211-.151-.392.6-.452-.211-.512-.331-.331.512-.181-.934-.693-.422-.512-.12.151-.723-.181-.3-.542.12-.452-.452Z" transform="translate(-374.286 -293.571)" fill="#5751c8" stroke="#eaecff" stroke-width="0.5"/><path d="M378.5,361.251l.163.944.2.554.391.456.293.554h0a.422.422,0,0,1,.211.071c.1.069.118.02.1.059l-.02.039-.094.352v.358l-.423.293.749.358.2.651-.338.518-.079.246v.266l.091.142.322.2.158.167-.079.246-.141.166-.358.033-.13.521.489.163.163.879.521-.326.166-.668s-.049.128-.187,0-.158.049-.138-.128-.12-.043.02-.177l.14-.134.261-.391.586.1.414.536.276-.207.461-.737.622.046.207.484.519-.166.1-.248.114-.264-.079-.069-.059-.089.4.006.361.06.422.392.452.12.572-.271.482.181s.318.467.58.339l.263-.128.013-.414.228.022.422.241.482-.361-.422-.271.361-.06h.632l.03.482-.151.693.452.512s.161-.509.141-.233l.04.5-.271.452v.361l-.3.3-.06.572.313,0,.169.328-.225.3.543.5.125.32-.251.836s-.5-.306-.5-.084-.028.2-.028.2.251-.028.251.362v.39l.084.641-.167.334-.195.668.557.334-.418.752-.473.418-.279.278.306.529-.39.306-.446-.084v.446s.836-.167.334.251l-.5.418a1.719,1.719,0,0,0-.557-.362l-.195-.028-.418.195a1.491,1.491,0,0,1-.111.557c-.111.223-.084.223-.084.223s-.473-.167-.446.111l.028.278.473.306.139.557-.473.557-.251-.7-.446.5-.418-.473-.891.278s.724-.724.529-.668a1.188,1.188,0,0,1-.251.056v-.668l-.5-.585-.557-.529s.167-.752-.613-.362l-.78.39-.557.223s-.111.418-.39.5l-.278.084.418.836.418.279-.446.251.39.613.2.139-.613.5-.39.446-.223.668s-.084-.306-.334-.195-.39,1-.39,1l-.418.251-.251.251h-.279a1.283,1.283,0,0,1,.139.863c-.084.529.251-.056-.084.529l-.334.585-.641.585-.446.5-.279.473-.668-.334-.613-.752.167-1-.111-.947-.279-.362-.5-.78-.529-.7-.78-.752-.306-.752-.613-.919-.028-.7-.306-1.225-.084-1.03s.7-.279.279-.668l-.418-.39-.251-.641-.334-.362-.028-.529-.473-.223L371,374.7l-.446-.891-.084-1.225-.084-1.114.056-.529-.418-.39-.279-.223.5.111.473.306.473-.056.557.223.306.167L372,370.47l-.279-.613.39-.557.418.084-.084-.668.195-.139-.557-.418s.613.028-.084-.446l-.7-.473-.613-.084-.306-.473s.279-.446.195-.668.223.167-.084-.223l-.306-.39-.39-.111v-1.058l.334-.056-.223-.557.418-.529.7.4s.47.125.5-.126l.028-.251s-.195-.529-.056-.529.223.223.223.223.167-.446.529-.446h.362l-.167-.641.39-.5s.39.362.306-.028l-.084-.39.529.167.167-.278.473-.446.752.084.195-.279a2.282,2.282,0,0,0,.585.529l.223.084s.223-.418.279-.111l.056.306.056.418.39-.251h.251a.68.68,0,0,1,.223.446v.251l.585-.028h.585Z" transform="translate(-314.607 -306.171)" fill="#5751c8" stroke="#eaecff" stroke-width="0.5"/><path d="M384.7,491.079l.306.752.78.752.529.7.5.78.279.362.111.947-.167,1,.613.752.668.334.727.411.748.867.512.945.473.788.867,1.024s.512.867.827.945-.67-.512.315.079l.985.591a.588.588,0,0,0,.394.63l.473.2,1.142-.039.67.591.709.867,1.1.748,1.654.315,1.142-.551.866.591,1.182.709.551-.079.473.906.236.512.63-1.063.551.591.748-.118.63.354.512-.354h.945l.748.315.591.866v3.112l.354.394.236.788-.788.63s-1.063.039-.945.118.079-.354.118.079.039.473.039.473l-.354.512H407.8l.276.276s-.709,0-.709.079v.079s.236.039,0,.63-.276.591-.276.591l-.2.315.591.118-.2.63s.039.473-.315.551-.315.079-.315.079l-.867-.512-.276-1.063-.709-.276h-.394l.079.985-.315.709h-.748l.315.512-.158.788-.315-.039-.433.354v.276s-.158-.512-.473-.276-.354.236-.354.236v.433l.867.158.551.394v.63l-.394-.315-.433-.276-.394.473.236.551.118.748-.118.315.158.433-.827.158s.394-.591.2-.827l-.2-.236h-.433a.949.949,0,0,1,0,.669l-.118.473-.473.591-.236-.748-.591.315-.67-.394H398.9l-.236.512h-.788l-.591.079-.709-.118-.2.433h-.63l-.079.433.079.63-.236.315-.591-.158-.394-.118-.512.2-.591.394-.158.748-.591-.355h-.236v-.433s.039.039-.394.039h-.473l-.315.867-.748.039-.315-.512-.394-.709.079-.236.551-.394-.906-.512-.079-.906-.63-.63-.394.354-.67-.236.079.551-.158.551v.276l-.512-.315-.67-.551.039-.236-.473-.276-.512.433-.158-1.1-.315.551-.315-.63-.473-.433-.236-.866.315-.354.355.039V520.2l-.473-.512.355-.512-.315-.433.394-.276-.394-.827.473-.039.118-.315.473-.039.2-1.457.236-.394-.512-.512.591-.709-.394-.276.2-.551.906-.473-.354-.473.354-.118.67.354.709-.276.158-.551.433-.118-.354-.473.118-.433h.433l.394-.118-.118-.433a.987.987,0,0,1-.315-.67V508.5l-.354-.158-.354.276v-.354a.536.536,0,0,0-.473-.433l-.433-.079-.118-.67.276-.394.039-.985.158-.512a1.675,1.675,0,0,1-.2-.906l.039-.512-.276-.63-.473-.236-.63-1.418-.748-.2-.118-.67-.079-.512.473-.158-.039-.748s-.63.354-.788,0l-.158-.354s.118-.354.433-.354h.355l.2-.945s-.827-.039-.748-.354a2.428,2.428,0,0,1,.118-.394l.354-.748-.433-.473-.315-.473-.354.2-.709-.2-.788-.512.276-.354.315-.709v.67l.591.079.158-.709.315-.158-.276-.827v-.118l.67.039.41-.68Z" transform="translate(-325.303 -415.613)" fill="#5751c8" stroke="#eaecff" stroke-width="0.5"/><path d="M279.08,545.3l.2,1.182.748.2.63,1.418.473.236.276.63-.012.811.17.607-.158.512-.039.985-.276.394.118.67.491.175.415.337v.354l.354-.276.354.157.074,1.292.242.441.118.433-.827.118-.118.433.354.473-.433.118-.158.551-.709.276-.67-.354-.354.118.354.473-.906.473-.2.551.394.276-.591.709.512.512-.236.394-.2,1.457-.473.039-.118.315-.473.039.394.827-.394.276.315.433-.354.512.473.512v.945l-.354-.039-.315.354.236.867.473.433.315.63.315-.551.158,1.1.512-.433.473.276-.039.236.8.813.378.053-.323.587.111.223-.529.084.028.362.5.111-.084.084v.334l-.334.056-.278.418-.446.223-.251.5.223.362.251.473v.167l-.446.139.39.418.365-.211.248.628.641.418-.251.585-.028.613s-.641-.056-.585.083l.056.139s.251.167-.028.446l-.279.279-.278.418-.279.418-.362-.7-.641.418-.557.056-.2-.557h-.7l-.418.139-.641-.724-.557.056-.167-.334-.613.278-.39-.585-.334-.446-.557.418-.306-.529-.613.334-.167.334-.7-.167-.557.223-.473.195-.446.139-.557-.39-.613.056-.279-.474h-.334l-.39.529-.418-.139-.39.084-.613-.195-.7-.529-.111.39-.111-.7-.362-.474-.139-.668-.585-.7-.641-.028-.418-.585-.557.083-.668-.139-.641.139-.446-.474-.334-.613-.251.028-.418.362a.4.4,0,0,1-.529,0,1.75,1.75,0,0,0-.334-.223h-1.615l-.585-.306-.585-.39-.39-.585-.473-.5-.529-.139,1.17.139s.223.5.557.334l.334-.167.39.028.279-.836-.585-.613-.557-.362.139-.5.5.056.78.418.39.279.084-.5s.251.7.39.5a2.7,2.7,0,0,1,.167-.223l.752-.083h.251s-1.03.724-.7.808l.334.084.585-.028.028-.919a1,1,0,0,1-.223-.836l.084-.529.279-.39.167.334.056.585s.056.473.334.195l.279-.278.223-.557-.167-.919-.028-.613-.306-.251-.418-.195-.084-.418.279-.195-.279-.724-.279.334-.251-.39-.279-.446-.028-.362.306-.362.418.251a.419.419,0,0,0,.473.251l.362-.056.557.028.473-.195.418.334a1.523,1.523,0,0,1-.39.418l-.2.111.251.306s.5.111.641.028l.139-.084.306-.306s.028-.195.39-.028l.362.167.5.446.557-.084s.306.641.446.446l.139-.2.39-.167-.195-.418-.613-.418.585-.028s.39.278.585.139l.2-.139.39-.362.529-.306v-.279l-.557-.223v-.529l.279-.251.139-.279h-.362l-.084-.362.195-.557h.446l.362.334.306.39.557.111h.585l-.139-.613.139-.446.39-.223.473-.251-.362-.334-.529-.223-.306-.251.418-.223a.273.273,0,0,0,.39.056c.223-.167-.473-.195.251-.167l.724.028s-.111.474.334.418l.446-.056.752.111.418-.446s.39-.529-.056-.668l-.446-.139-.306-.5s.111.362-.446.056a2.732,2.732,0,0,1-.557-.334l.167-1.086.279-.028.111.306.306-.167s.195.084.641-.223l.446-.306-.028-.641s.334.334.223,0l-.111-.334.641.111.474-.39.362-.279-.028-.919.306-.223.223-.39.306-.446.362-.585-.306-.446.473-.083-.028-.5-.195.167s-.78.111-.529-.084l.251-.2v-.529s.334.251.334-.028v-.278l.418-.418-.195-.446.111-.724-.752.473.278-.919-.139-.557.028-.306.362-.111-.362-.585-1.03-.251.39-.362v-.139l.418.111.446.084.446.279.306.473.39.223.5-.39.474-.111Z" transform="translate(-219.428 -460.801)" fill="#5751c8" stroke="#eaecff" stroke-width="0.5"/><path d="M467.987,920.808l.232-.373-.283-.116.683-.18.348.219.58.026.193.27.335-.155.476.013.412-.4.219-.206.142-.515.322-.567.077-.18.219-.425-.232-.425.592.013.386.219-.013.824.386.348.013.412.386.322.039.5.605.515.142.373.258-.064.374.219.1.258-.258.167-.219-.129-.309-.129-.258.064-.167-.193-.348.09.3.219-.142.258.116.348-.322.283-.283.348-.258.232-.013.206-.386-.077-.27.206-.515-.154-.283-.026-.039-.335-.245-.142-.1.142v.232l-.27.206-.348-.052-.116.155-.3-.039-.142.026v-.386l-.283-.129.039-.348h-.245l.258-.27.077-.232s.219.09.219-.039v-.129l.064-.27-.232-.322v-.386l-.206-.193-.167.154-.258.077-.013-.258-.335.193-.373-.064-.155-.116Z" transform="translate(-396.621 -772.033)" fill="#5751c8" stroke="#eaecff" stroke-width="0.5"/><path d="M214.515,687.03l.529.139.473.5.39.585.585.39.585.306,1.633-.026.541.335.305-.086.418-.362.251-.028.334.613.446.474.641-.139.668.139.557-.084.418.585.641.028.585.7.139.668.362.474.111.7.111-.39.7.529.613.195.39-.084.418.139.39-.529h.334l.279.474-.375.086.155.438-.386.026-.361.361v.489l-.386.077.051.541-.206.232s-.206-.567-.206-.335v.232l-.283.18.18.335s-.361.077-.361.335v.258l.206.18-.283.18s-.258.129-.155.258-.258.18.1.129l.361-.052v.567l.309.361s-.361,0-.258.129l.1.129s-.077.258-.1.386.026-.026-.026.129l-.052.155-.567-.257s-.464.1-.283.232.18-.258.18.129v.386l-.464-.258-.438-.154-.206-.386-.515-.052-.489-.154-.386-.258-.335-.412-.67-.232-1.494-.979-.515-.361-.8-.773-.592-.438-.541-.386-.592.154-.721-.283-.541-.232-.489-.129-.773-.438-.773-.489h-.361l-.592-.283-.309-.361-.592.1h-.541l-.283.283-.515-.232-.361-.052-.335.077-.567.129-.489-.232-.232-.541-.464-.052a.5.5,0,0,1-.464-.335c-.1-.335-.129-.335-.129-.335l-.155-.232-.335.206-.258-.155-.309-.18-.515-.309.026-.515.18-.618.1-.438h.309l.051-.773-.541-.747-.206-.67-.129-.464s.309.361.335.129-.18-.309.026-.232.206.1.206.1l.077.618s.386.077.464,0-.1.258.077-.077l.18-.335.412-.155.206-.464s.026-.129.258-.1.18.206.18.206a.814.814,0,0,0,.052.464l.1.283.283-.309s-.206-.489-.232-.592l-.026-.1v-.721s.361-.541.541-.489-.077-.077.18.052l.258.129.335.747.464.335.541-.283.077-.618.412.283.592.386-.026-.258.953.515.515.361.206.309Z" transform="translate(-178.147 -577.418)" fill="#5751c8" stroke="#eaecff" stroke-width="0.5"/><path d="M322.417,701.589l-.27-.617.373-.13.567.257.18-.67-.142-.232.3-.026-.309-.361v-.567l-.4.077s-.27-.283-.09-.348l.18-.064.283-.18-.206-.18-.013-.322.373-.27-.18-.335.283-.18.039-.258.167.361.206-.232-.052-.541.386-.077v-.489l.361-.36.386-.026-.155-.438.375-.086.613-.056.557.39,1.476-.557.7.167.167-.334.613-.334.306.529.557-.418.724,1.031.613-.279.167.334.557-.056.641.724.418-.139h.7l.195.557.557-.056.641-.418.362.7.557-.836.424-.487-.118-.237-.024-.214.553-.009.028-.613.251-.585-.641-.418-.248-.628-.365.211-.39-.418.446-.139v-.167l-.473-.835.251-.5.446-.223.279-.418.334-.056v-.334l.083-.083-.5-.111-.028-.362.529-.084-.111-.223.323-.587v-.276l.158-.551-.079-.551.67.236.394-.354.63.63.079.906.906.512-.551.394-.079.236.709,1.221.748-.039.315-.866.867-.039v.433h.236l.591.354.158-.748.591-.394.512-.2-.162.579s.361-.142.283-.013l-.077.129-.116.27.309.245.476.1.451.3-.116.245h-.476l-.245-.039-.373-.1-.489-.026-.258-.013-.167.283-.258.348-.3.335-.116.425-.039.682.4.205v.328a.831.831,0,0,0,.692.364h.474l.473-.109.474.51.51-.4.364.073.146-.219.4.073s-.328.656-.036.656h.291l.4.546.51-.291.328.328-.291.437-.546.182-.51.146.073.4.364.328.328-.4h.473l.219-.364.474.328.4-.219.328.328v.291l.583.619.146.328-.328.619-.474.219.291.437-.073.182-.765-.036-.036.51.328.291-.4.328.146.291h.546l.073.4-.255.619-.656.364.036.437s.473.109.473.255v.146l-.328.073.036.4-.182.51.4.182.328.4-.255.109-.4-.036.146.291h.473l.146.4.219.51-.255.182.437.437.437.182.546.437s.51-.291.51-.036v.255l-.4.328-.437-.109-.109.291-.219.4h-.328l.146.364-.073.4-.146.291s.255-.036.182.291l-.073.328-.291.255h-.109l-.219-.4-.146-.182-.4.182-.546.036h-1.056l-.328-.219s-.109-.729-.291-.474l-.182.255-.4-.4-.4.219-.765-.182-.619.073-.109.51-.328.364.291.109-.073.765-.219.474-.4.473-.437.219-.219.474-.4-.036-.583.291-.8-.182-.146.474.146.4-.255.146-.255.255.474.291.109.437h-.546v.328l-.364-.4-.182.4h-.364l.219.364-.619.364-.328-.364h-.437l.036.437h-.4l-.4.328-.583.036-.656.255-.073-.728h-.437v.656l-.692-.146-.291.182-.437-.182-.219-.328-.255.4L333,715.25h-.328l-.474.219-.838-.073-.219-.656-.364-.656-.583-.291-.364-.219.619-.109.473.036.583-.182-.109-.8.255-.364.51-.219-.546-.437L331,710.042l-.146.656-.473-.291-.765-.182.109-.619-.8-.546-.219-.765-.255-.4.4-.692-.255-.437-.51.036-.4-.328-.619-.291-.656-.838-.4-.146-.364-.656-.8-.656-.838-.437-.546-.692Z" transform="translate(-274.849 -579.445)" fill="#5751c8" stroke="#eaecff" stroke-width="0.5"/><path d="M461,634.117l-.354.512h-.591l.276.276-.709.158h0l.1.285-.374.936-.2.315.591.118-.2.63-.061.478-.57.153-.866-.512-.276-1.064-.709-.276h-.394l.079.985-.315.709h-.748l.315.512-.158.788-.315-.039-.433.354v.276l-.254-.361-.573.322v.433l.866.158.551.394v.63l-.827-.591-.394.473.236.551.118.748-.118.315.158.433-.827.158.309-.666-.309-.4h-.433l.052.612-.17.531-.473.591-.236-.748-.591.315-.67-.394h-.354l-.236.512h-.788l-.591.079-.709-.118-.2.433H448v1.063l-.236.315-.985-.276-.162.579.206.116-.116.27.309.245.476.1.451.3-.116.245h-.476l-.618-.142-.747-.039-.425.631-.3.335-.116.425-.039.682.4.205v.328l.469.372.7-.007.474-.109.474.51.51-.4s.219.291.364.073l.181-.313.365.168-.134.414-.024.238.413,0,.4.546.51-.291.328.328-.291.437-1.056.328.073.4.364.328.328-.4h.474l.219-.364.473.328.4-.218.328.328v.291l.583.619.146.328-.328.619-.474.219.291.437-.073.182-.765-.036-.036.51.328.291-.4.328.146.291h.546l.073.4-.255.619-.656.364.036.437.423.112.05.289-.328.073.036.4-.182.51.4.182.328.4-.255.109-.4-.036.146.291h.474l.364.911-.255.182.437.437.437.182.546.437.44-.177.119.119.452-.31.453-.286.453-.024.214.429v.5l-.167.5-.214.476-.31.667.1.333.429.429.333-.191.81.143.143.572.1.572-.572.429-.667-.333-.333.286v1.334l-.572.381h-.476l-.238.476v.476l-.191.333.191.953.143.381.476-.429,1.1.1.333.572.524-.143.429-.381.143.667h.857l.667.333.572.048.572.1.333.333-.048.572.619.1.381-.286.524.1s.286,0,.143-.381-.143-.286-.143-.286l-.476-.476s.143-.048.1-.333l-.048-.286.572-.191-.381-.524-.143-.667.381-.429-.048-.619.524-.238-.1-.905.381-.667s-1-.905-.715-.905h.286l-.238-.572.286.238.429-.715-.127-.652-.034-.4.539-.034.168-.707-.472-.808.135-.741.573-.1.606.269-.674-.741-.4-.707-.472-.438.337-.573.269.034.876-.2-.472-.842-.236-.2.168-.067s-.1.337.337-.034l.438-.371-.236-.573-.337-.37.438-.472s-.573-.337-.3-.4l.269-.067v-.438s.135-.573.337-.337l.2.236.4-.269a.489.489,0,0,1-.168-.606l.135-.438.236-.64-.505-.269-.438.472-.438.337s-.067.034-.4-.2l-.337-.236s-.1,0-.3-.236l-.2-.236-.505-.067-.3-.707-.337-.2-.438-.168-.337-.539.1-.674-.1-.606-.606-.1-.438.337-.505.135s-.573.034-.472-.1-.236.438.1-.135l.337-.573.135-.505h-1.078l-.034-.438.337-.707.1-.505a1.277,1.277,0,0,1-.37-.64l-.067-.37.4-.573-.168-.573.168-.3s-.876-.337-.505-.4-.067.606.371-.067.539-.472.438-.674l-.1-.2.438-.168s-.438-.1-.371-.4l.067-.3s-.842-.606-.573-.707l.269-.1.741-.034.371-.034.4.236.269-.236.472-.034.236-.472.236-.135.438-.438.269-.4.337.236.2-.4.438-.067.034-.539.1-.269-.236-.741.168-.505.472.067.269-.337-.135-.573-.37.067-.606.472s-.573-.236-.2-.472l.37-.236.1-.876s-.64.034-.505-.4l.135-.438-.1-.539v-.471h-.2l-.438.4Z" transform="translate(-377.555 -535.043)" fill="#5751c8" stroke="#eaecff" stroke-width="0.5"/><path d="M185.518,732.605l.489.232.9-.206.361.051.515.232.283-.283h.541l.592-.1.309.361.592.283h.361l.666.448.88.479.489.129,1.262.515.592-.154,1.133.824.8.773.856.643,1.152.7.67.232.335.412.386.258,1,.206.206.386.9.412.92,1.042.667.818.838.437.8.656.364.656.4.146.656.838.619.291.4.328.51-.036.255.437-.4.692.255.4.219.765.8.546-.109.619.765.182.473.291.146-.656.619,1.457.546.437-.51.219-.255.364.109.8-.583.182-1.093.073.364.219.056.518-.5-.031-.249.529-.623-.093-.374-.093-.031.529.5.28-.093.716s-.062-.062-.125.218l-.062.28-.467.187-.031.312.031-.218.125.685-.28.249-.4-.125-.187-.187-.374.125-.249-.156.031-.28-.53-.156-.187-.218-.311.031-.4-.156s-.249-.218-.374-.187l-.125.031-.5.187-.467.343-.748.187-.187-.4h-.81l-.156-.311-.654.062-.218-.343-.53.031-.311-.218h-.467l-.592.249h-.218l-.218.374-.156.249-.4.031-.187.125.125.343-.467.093-.467.125-.561.031-.311-.062-.311-.156-.249.4-.592.249-.311-.249-.374.156.218.156-.249.4-.436.529-.374.467h-1.215l-.685-.125h-.218l-.218.872.218.561.343.529.4.53-.093.436.187.5-.125.187-.5.156-.748.187-.062.5-.436.343-.311.28.311.467-.031.561-.249.343-.28-.093-.623-.716-.5.031-.343.374-.062.436.125.343-.53.125-.4.343-.81-.9-.436-.125-.685-.374-.5-.561-.716-.312-.249-.436-.5.187-.5-.374-.093-.343-.654-.374H181.5l-.156-.249-.4.187a3.547,3.547,0,0,1-.436-.467l-.187-.249-.561.031-.5-.654-.623-.249-.81-.031s-.187,0-.031-.374.156-.031.156-.374v-.343l.685.156.28-.436.311-.031.156-.5.467-.343.716-.311v-.841l-.561-1.246.561-.436.249-1,.249-.249a1.159,1.159,0,0,1,.031-.654c.125-.311.125-.28.125-.28l-.28-.436.343-.28-.125-.436.374-1.184-.311-.28-.529-.343a1.555,1.555,0,0,0,.187-.654l.031-.4.4-.592.374-.156s-.311-.343-.062-.592l.249-.249.654-.093-.093-.654-.467-.623.436-.374-.218-.592.125-.311-.156-.374.28-.311-.125-.343v-.561l.156-.374.561-.031.187-.311-.093-.312.716-.031-.218-.561.592-.031-.125-.81.156-.53.467-.4a5.165,5.165,0,0,1-.841.093H183.5s-.218-.062-.093-.561l.125-.5,1.028.093.156-.592.467-.529.5.218-.467-.716.156-.716-.374-.311-.5-.716.343-.187.343.062-.125-.467-.031-.436.125-.685Z" transform="translate(-154.226 -617.286)" fill="#5751c8" stroke="#eaecff" stroke-width="0.5"/><path d="M63.461,721.271l1.082.644.335-.206.155.232.592.67.464.052.232.541-.37.3-.125.685.156.9-.685.125.5.716.374.311-.156.716.467.716-.5-.218-.467.53-.156.592-1.028-.093-.119.758.088.3,1.215-.093-.467.4-.156.53.125.81-.592.031.218.561-.716.031.093.311-.187.312-.561.031-.156.374v.561l.125.343-.28.311.156.374-.125.312.218.592-.436.374.467.623.093.654-.654.093-.362.376.175.465-.374.156-.4.592-.218,1.059.53.343.311.28-.374,1.184.125.436-.343.28.28.436-.193.584.037.351-.249.249-.249,1-.561.436.561,1.246v.841l-1.184.654-.156.5-.311.031-.28.436-.685-.156.016.473-.286.419.066.308-.132.551-.22.595-.286.2.044.44-.485.242-.132.595-.463-.286-.595.176-.551-.154s.749,1.145.088.529-.308-.529-.308-.529a.5.5,0,0,1-.749-.22l-.22-.529-.485-.573-.925-.925s-.176.308.088-.4.176.176.264-.7a5.934,5.934,0,0,0,.088-.881v-.352l.573.088-.176-.7.485-.4-.837-.573v-.573s.088.4.573-.044l.485-.44.573.176.837-.22.264-.837s.352.529.352.088v-.485h-.485l-.4.661-.529-.7-.925.044-.617.176-.661-.352-.749.617s-.132.132-.4-.176l-.264-.308-.44.088-.925.088L49.3,743.25l-.529.352-.529.308-1.277.044-.44-.485-.44.044-.44-1.013h-.529l-.22-.573-.352-.264v-.529l-.793-.22-.485.088-.44-.529-.529-.088-.661-.22.22-.4-.529-.881-.617-.308-.44.308-.881-.529-.44.4a.417.417,0,0,0-.529.088l-.264.264-.485-.352s-1.189-.793-.881-.925.308-.176.308-.176l-.529-.661-.969-.132.088-.617-.661-.7.22-.484.308-.441.22-.881s.7.176.749-.308l.044-.485.617-.44-.7-.4.352-1.013.529.132s-.749-.176-.44-.44.44.352.308-.264L37.1,729.9s-.529.793-.617.22l-.088-.573s0-.749.529-.881.573-.132.573-.132l1.321.088.793-.4.837.308.44-.308,1.189-.132-.749-.529-.485-1.145v-.529l.969-.7.925.44,1.277-.044.7.352v.881l-.22.264.485.617-.308.925.837-.044,1.013.484.44.308.176-.617.308-.088v.661l-.44.617.661.264.573-.485.749.308s.44.529.485.4l.044-.132v-.661l.485-.484.44.132.44-.573V727.48l.44-.529-.44-.573.793-1.233.529-.044.485.088-.132-.485.749-.264s-.308-.308-.132-.529.176-.176.176-.176l.7-.264.7-.088.881.264.661-.308,1.542-1.277h.925l.7-.4,1.189-.352,1.189.132.176.573.837-.22Z" transform="translate(-35.029 -607.884)" fill="#5751c8" stroke="#eaecff" stroke-width="0.5"/><path d="M336.18,813.525l.5-.187.5.156.4.156.311-.031.187.218.53.156-.031.28.249.156.374-.125.187.187.4.125.28-.249-.125-.685.467-.28.28-1.215-.5-.28.031-.53,1,.187.249-.53.5.031-.056-.518.583.291.364.656.219.656.838.073.474-.219h.328l.583.765.255-.4.219.328.437.182.291-.182.692.146v-.656h.437l.073.729.656-.255.583-.036.4-.328h.4l-.036-.437h.437l.328.364.619-.364-.219-.364h.364l.182-.4.364.4v-.328h.546l-.109-.437-.473-.291.51-.4-.146-.4.146-.474.8.182.583-.291.4.036.219-.474.437-.219.4-.473.219-.474.073-.765-.291-.109.328-.364.109-.51.619-.073.765.182.4-.218.4.4.258-.349.216.567.328.219,1.6-.036.4-.182.364.583.4-.255.146-.4-.255-.223.219-.692-.146-.364h.328l.219-.4.109-.291.437.109.4-.328.05-.276.905-.6.453-.024.214.429v.5l-.167.5-.524,1.143.1.333.429.429.333-.191.81.143.238,1.143-.572.429-.667-.333-.333.286V809.2l-.572.381h-.476l-.238.476v.476l-.191.333.191.953.143.381-.186.854.093.748-.654,1.028-.436.312s.28.623.218.716l-.062.093-.5.031v.716l-.156.467-.436.374-.062.4.561.125.529.592-.311.436.187.592a1.163,1.163,0,0,1,.093.654c-.062.343.156-.374-.062.343l-.218.716.186.554-.653-.8h-.312l-.529-.311-.187.436-.779-.125-.4.311-.561-.654L357.8,821h-.841s-.716.093-.654.343l.062.249-.374-.374-.374-.81-.125.4-.9-.125-.125-.5h-.374l-.031.28-.934.249-.28-.841-.28.685V821l-.467-.249H351.5l-.561-.748-.218-.716.343-.5-.28-.654-.249-.4-.343.28H349.6l-.062,1.028-.156,1.153-.4.5.187.81-.093.4.4.343-.28.374-.9-.125v.561l-.685.436-.5-.249-.4.4-.9-.561-.187-.156-.5-.529.093-.467-.654-.685-.53-.779.062-.592-.685-.748V818.2l-.467-.249-.343-.4-.374.436h-.685l.062-.716-.685-.125-.53-.062-.311-.28-.156-.81-.374-.218-.685.4-.654-.436-.5-.343-1,.062.374-.592-.654-.716Z" transform="translate(-286.57 -676.198)" fill="#5751c8" stroke="#eaecff" stroke-width="0.5"/><path d="M399.773,898.038l.4-.4.5.249.685-.436v-.561l.9.125.28-.374-.4-.343.093-.4-.187-.81.4-.5.218-2.18h.592l.343-.28.53,1.059-.343.5.218.716.561.748h.592l.467.249v-.436l.28-.685.28.841.934-.249.031-.28h.374l.125.5.9.125.125-.4.374.81.374.374.062-.467.934-.125h.436l.436-.187.561.654.4-.312.779.125.187-.436.841.311.653.8.232.425-.219.425-.4.747-.142.515-.631.605-.476-.013-.335.155-.193-.27-.579-.026-.348-.219-.683.18.283.116-.232.373.361.232-.033.374-.53.312-.561.062-1.121,1.152-.748.125h-.53v.592l.249.716.5.436-.031.5-.561.28-.592.529-.28.623.311.81v.81l-.53.5-.218,1.184-.592,1h-.561l-1.09-.53-1.121-1.308V906.7l-.031-1.464-.4-1,.062-.4-.529-.467-.218-.436-.748.031-.81-.343.062-.4.685-.374-.5-.436-.529-.716h.561v-.467l-.592-.28-.623-.747v-.561l.28-.311Z" transform="translate(-339.635 -750.588)" fill="#5751c8" stroke="#eaecff" stroke-width="0.5"/><path d="M257.613,869.726l.467-.093-.062-.685.093-.436-.748-1.059-.218-.561.218-.872.9.125h1.215l1.059-1.4-.218-.156.374-.156.311.249.592-.249.249-.4.623.218,1.5-.249-.125-.343.187-.125.4-.031.374-.623h.218l.592-.249h.467l.311.218.53-.031.218.343.654-.062.156.312h.81l.187.4.748-.187.467-.343.249.623.654.716-.374.592,1-.062,1.152.779.685-.4.374.218.156.81.311.28,1.215.187-.062.716h.685l.374-.436.81.654-.467-.249.467.249v.934l.685.748-.062.592.53.779.654.685-.093.467.685.685.9.561.218.28-.28.312v.561l.623.748.592.28v.467h-.561l-.592-.156-.5.4-.187.094-.748.592-.343-.031-.561.28" transform="translate(-220.555 -725.951)" fill="none" stroke="#eaecff" stroke-width="0.5"/><path d="M257.613,869.726l.467-.093-.062-.685.093-.436-.748-1.059-.218-.561.218-.872.9.125h1.215l1.059-1.4-.218-.156.374-.156.311.249.592-.249.249-.4.623.218,1.5-.249-.125-.343.187-.125.4-.031.374-.623h.218l.592-.249h.467l.311.218.53-.031.218.343.654-.062.156.312h.81l.187.4.748-.187.467-.343.249.623.654.716-.374.592,1-.062,1.152.779.685-.4.374.218.156.81.311.28,1.215.187-.062.716h.685l.374-.436.81.654-.467-.249.467.249v.934l.685.748-.062.592.53.779.654.685-.093.467.685.685.9.561.218.28-.28.312v.561l.623.748.592.28v.467h-.561l-.592-.156-.5.4-.187.094-.748.592-.343-.031-.561.28-.722-.1-.37-.463-.525.154-.556-.586-.154.8-.37.123-.062.525-.432.247-.185.833.37.679-.247,1.2-.185,1.019.679.37,1.019-.216.587.37-.062.525-.309.741-.031.679-.185.9-.093.339.494.185.494.278.062.494-.679.247.031.556-.185.617.185.34-1.019.864-1.482.123-.4.185-.432-.216-.741.494-.648.37-.556-.216-.772-.093-.617.525.278.34-.154.556.123.37-.617.154v.679s.463-.031.494.185-.062-.34.031.216l.093.556.37.494.556.34a3.685,3.685,0,0,1-.71.4l-.278.093.185.8-.432.463-.679.247.154.432.247.8-.309.556-.309.926-.216.278.309.37.062.494h-1.081l-.648-.154-.309.154-.494-.648-.432.031-.772-.093-.556-.4-.432.185-.37-.586-.278-.833-.432-.9-.185-.648V895.5l.463-.247-.833-1.42-.247-.741-.216-.494-.494-1.019-.617-.494-.463-.741-.37-.309h-.4l-.123-.463.34-.185s-.216,0-.247-.37l-.031-.37.278-.4.525-.154.617-.309-.37-.432-.031-.772h.216l-.247-.648.031-.648s-.278-.216.309-.124.278-.093.587.093a.865.865,0,0,0,.587.123l.062-.741-1.173-.8.4-.617-.8-.556-.772-.432.432-.432.525-.71.679-.247.71-.339.679-.371s.463-.093.062-.309l-.4-.216-.432.339-.741-.031-.309.37-.525.154-.37-.34v-.494l-.278-.124-.37.278-1.08-.586.494-.556-.463-.463h-.71a2.926,2.926,0,0,0,.154-.957v-.556l.586-.833-.4-.957s-.432-.926-.247-.926h.216v-.71l-.4-.587s.123-.8.494-.9l.37-.093-.124-.926-.71-.123Z" transform="translate(-220.555 -725.951)" fill="#5751c8" stroke="#eaecff" stroke-width="0.5"/><path d="M170.465,898.223l.132-.595.485-.242-.044-.44.286-.2.22-.595.132-.551.889-.079.623.249.5.654.561-.031.623.716.4-.187.156.249h.467l.654.374.093.343.5.374.5-.187.249.436.716.311.5.561.685.374.436.125.81.9.4-.343.53-.125-.125-.343.062-.436.343-.374.5-.031.623.716.28.093.249-.343.031-.561-.311-.467.748-.623.062-.5.779-.249.667.866.71.124.123.926-.525.278-.34.71.4.586v.71h-.4l.833,1.883-.587.833.031,1.111-.185.4h.71l.463.463-.494.556,1.08.587.37-.278.278.123v.494l.37.34.525-.154.309-.37.741.031.432-.34.556.216-.216.309-2.068.957-.957,1.142.772.432.8.556-.4.617,1.173.8-.062.741-.679-.185-.8.093-.031.648.247.648h-.216l.031.772.37.432-1.142.463-.278.4.031.556.247.185-.34.185.123.463h.4l.525.587.309.463.617.494.34.8.617,1.451-.247.463-1.05-.34-.37-.432-.34.586-.123.8-.617.37-.729-.214-.48.83.262.393-.218.655-.087.262h-.655l-.96-.218-.48-.349-.611-1.135a3.313,3.313,0,0,1,.306-1.048l.524-1.048-.131-1.135-.262-.917-1.048-.524-.786-.568-1.7-.175-1.31-.306-.568.175-.96-1.048-.349-.917-.873.393-1.222.175a4.936,4.936,0,0,1-.218-1.615l.131-.349.218-.524s.044.568.786.262a4.478,4.478,0,0,0,.742-.306l.829-.393v-.96l1.31.131.873-.087s.524-1,.131-1.222l-.393-.218s-1.091-.044-1.222-.437l-.131-.393.393-1.746-.7-.829-1.79-.437-.349-1.091.131-.742,1.091.087.306-.873-.917-1.266-.829-.917-1,.131-1.222.262-.873-.83-.349-.262.175-1.528-1.135-1.048-.437-.087Z" transform="translate(-148.154 -753.431)" fill="#5751c8" stroke="#eaecff" stroke-width="0.5"/><g transform="translate(48.529 149.941)"><path d="M329.991,967.162l-.062-.494-.309-.37.216-.278.309-.926.309-.556-.4-1.235.679-.247.432-.463-.185-.8.988-.494-.556-.34-.37-.494-.031-.8-.587-.154v-.679l.617-.154-.124-.37.154-.556-.278-.34.617-.525.772.093.556.216,1.389-.864.432.216.4-.185,1.482-.123,1.019-.864-.185-.34.185-.617-.031-.556.679-.247-.062-.494-.988-.463.278-1.235.031-.679.309-.741.062-.525-.587-.37-1.019.216-.679-.37.432-2.223-.37-.679.185-.833.432-.247.062-.525.37-.123.154-.8.556.586.525-.154.37.463.722.1.561-.28.343.031,1.433-1.09.592.156.53.716.5.436-.685.374-.062.4.361.638.648.123.71.71.247,1.049.154,1.266s-.278-.617-.247-.247l.031.37-.031,1.049.34,1.019.926.679-.062.463,1.605.556.71-.062,1.111.586.4-.247s1.019-.093,1.019.031v.123l1.729,2.161-.463.957-.833.772-.988.648-1.3.772-1.2-1.142v-.617l-.988-.864-1.05-.062s-.432.123,0,.185l.432.062.9.463.4,1.142.926.926-.864,2.593-.957,2.346-1.574,1.945-.957.463-1.482,1.543-.926.926-.741.37h-.741l-.833.9-2.315.772-.8.123-1.945.278-2.037.772-.154-.679-.556-.309.123-.617.093-1.327-.34-.648-.4-.031Z" transform="translate(-329.62 -943.168)" fill="#5751c8" stroke="#eaecff" stroke-width="0.5"/><path d="M439.345,1038.663l.141-1.171.585-1.484.7-.525,1.241-.4-.858,1.615-.646,1.06-.454.555Z" transform="translate(-421.27 -1019.939)" fill="#5751c8" stroke="#eaecff" stroke-width="0.5"/></g><path d="M488.743,819.135l-.258.064-.142-.373-.584-.451-.04-.484-.406-.4-.013-.412-.386-.348.013-.824-.386-.219-.592-.013-.186-.554.307-1.022.005-.4-.312-.88.312-.436-.529-.592-.561-.125.062-.4.436-.374.156-.467V809.7l.5-.031.059-.153-.215-.657.436-.311.654-1.028-.093-.748.186-.854.476-.429,1.1.1.333.572.524-.143.429-.381.143.667h.857l.667.333,1.143.143.333.333-.066.635.638.031.381-.286.524.1.173-.113-.116-.484-.533-.545.129-.186-.082-.433.572-.191-.381-.524-.143-.667.381-.429-.048-.619.524-.238-.1-.9.381-.667-.806-.833.378-.072-.176-.478.223.145.429-.714-.16-1.057.539-.034.168-.707-.472-.808.135-.741.573-.1.513.2-.1-.363.747.081.283.585.828-.02.061-1.13a1.476,1.476,0,0,0,1.029.727c.747.141.545.182.545.182l1.13-.081.545.222s-.646.5-.121.5h.525l.888-.1.363-.666.383.5-.182.828-.121.2-.545-.262-.141.464-.525.2-.162.888-.182.444-.565.444-.565.384-.444.262v.646l.283.484-.161.464.2.424-.141.424-.242.606.262.686-.1.444.343.363.182-.121.384.3v.424s-.02-.061.161.161.182,0,.182.222v.222l-.161.2.2.525-.061.363.424.1.707-.283.262.626.4.464-.141.908-.081.646-.646.384-.4.686.081.787.424.747.666.706-.383,1.171-.464.343.1.606.747.121-.121.424-.4.383v.888l.545.384.464,1.151-.161.141.706,1.211.2.464v.565l.162.222-.424.484-.363.2.363.464.283.182-.222.565.222.3-.242.888.222.444.767.141.262.747-.747-.222v.5l.606.787.585.384.02.606.848.626.242.646-.283.484.343.646.262.323-.363.242-.4.1-1.151-.969-.121-1.13-.848-.1-1.009-.929-.161-.545-.565-.484v-.242l-.727.182-.4-.02-.646-.343-.646-.262-.1.464-.5.121-.161-.1-.424-.545v-.585l.121-.4-.162-.2.242-.585.1-.706-.283-.3-.484.283-.5.061-.242-.626-.464-.161-.565-.747-.626-.161-.262-.182-.061-.767-.444-.2-.343-.646-.706-.3-.061-.626-.484-.868-.283-.363-.222-.283.182-.182-.343-.343-.464-.444-.2-.545-.565-.061-.363-.444-.222.3-.161.464.081.585-.242.222-.363.707-.141.464-.424-.283h-.444l-.646-.565-.222-.1v1.03l-.2.464Z" transform="translate(-410.861 -669.909)" fill="#5751c8" stroke="#eaecff" stroke-width="0.5"/><g transform="translate(66.562 145.705)"><path d="M443.26,928.073v-.81l-.312-.81.28-.623.592-.53.561-.28.031-.5-.5-.436-.249-.716v-.592l1.277-.125,1.121-1.152.561-.062.53-.311.033-.375.373.064.335-.193.013.257.425-.232.206.193v.386l.232.322-.064.27h0l-.046.232-.173-.064-.077.232-.258.27h.245l-.039.348.283.129v.386l.142-.026.3.039.116-.154.348.051.27-.206v-.232l.1-.142.245.142.039.335.335.067.464.113.27-.206.386.077.013-.206s.44-.416.49-.5l.051-.082.322-.283-.116-.348.142-.258-.3-.219.348-.09.167.193.258-.064.528.258.258-.167-.1-.258-.373-.219.339-.695v-1.029l.222.1.646.565h.444l.424.283.141-.464.363-.707.242-.222-.081-.585.161-.464.222-.3.363.444.565.06.2.545.807.787-.182.182.554.7.435.811.061.626.707.3.343.646.444.2.06.767.262.182.626.161.565.747.464.161.242.626.5-.061.484-.283.283.3-.1.706-.242.585.162.2-.121.4v.585l.424.545.161.1.5-.121.1-.464,1.292.606.4.02.727-.182.026.308.54.418.161.545,1.009.929.848.1.121,1.13,1.151.969-.438.528-.162,1.069.187.747.821,1.195.448.747-.261.709-.149,1.232-.821.149-.6.336-.187.448-1.867-.859-.485-.485-.635-1.68-.373-.411.336,1.568.075.933-.485.485-.9-.075-.523.037-.747-.9-1.008-1.045-.747-.149-.336-.075.485-.56-.261-.821-.261-.672-.9.075-.448-.635.747-.635.261-.635v-.859l-.448.672-.112.411-1.008.747-.187.6.6.635.747.112.261,1.083-.821.971-.6.709-1.008.336-.523-.3v-.3l.448-1.531.411-1.531-.859-1.195.3-1.083.336-.859.56-.635-.3-.56-.448.747-.261.747-.373.523-.336.821.261.672.075,1.008.261.672-.448.635-.3.635-.261.672.224,1.307.224.523-.9,1.008-.261,1.12-.373.859-.448-.075-.448-.784-.6-.485-.56-.672H454.7l.411.933v.784l.448.672-.411.523h-.784l.224.485-.149,1.232-.149.9-.075.411.336.933-.149.971-.3.821-.411-.6-.448-.261v-.523s-.485.112-.224.411-.075-.075.261.3l.336.373s-.635-.3-.709.336l-.075.635-.485-.523-.075-1.008-.224-.672.261-.672.336-.6-.037-.448h-.336l-.373-.523-.448.3.336.336h.448l.261.187-.411.485-.6.3-.672-.56-.411.075s-.411.037,0,.037.112-.709.411,0l.3.709.075.821-.224.933-.9.485-.112-1.157.224-.821-.187-.747-.411.112.411.523v.56l-.373.373-.149.523-.075.56.075.485.523.373-.224.523-.709.336-.523-.037-.336-.261-.149-.112.112-.56-.261-.485-.485-.261-.373.075-.373-.821-.411-1.344.037-.56.373-.6.448-1.083.112-.784-.3-.821-.411-.9-.709-.971-.187-.6.075-.747.187-.6-.56-.784v-.485l.485-.523.933-1.493.3-1.232v-1.269l-.411-1.157-.075-.635-.672-.672-.635-.411h-.784l-.821-.261-1.045.037v-.112l.3-.709.112-.859a1.308,1.308,0,0,0,.249-1.273Z" transform="translate(-442.021 -917.451)" fill="#5751c8" stroke="#eaecff" stroke-width="0.5"/><path d="M441.774,1063.69l-.317.29-.238.594-.515.845-.356.884-.224.3-.145.62-.053.713-.5.66-.119.409-.224.488.04,1.069.383.436.713.264.9.264.964-.185.238-.383.185-.172.106-.845-.251-.277.185-.594.172-.554.132-.858-.013-1.043-.158-.251.079-.62.066-.4-.449-.422-.383-.766Z" transform="translate(-439.082 -1039.599)" fill="#5751c8" stroke="#eaecff" stroke-width="0.5"/><path d="M518.991,1082.181l-.019-.822a1,1,0,0,1,.373-.579l.336-.28.429-.709-.037-.523.224-.261-.019-.821-.336-.765-.112-.541-.392-1.027.093-.355-.093-.243.355-.523.5-.467.467-.075.691.523.243.355.411-.187.392-.093.392.448.093.317.205.485-.168.392-.149.56-.28.336-.429.037.075.523.168.28-.075.467-.336.205.3.466.187.56-.392.467-.187.448-.075.6-.448.317-.616.149-.261.485-.317.336-.728-.187Z" transform="translate(-505.812 -1048.371)" fill="#5751c8" stroke="#eaecff" stroke-width="0.5"/><path d="M535.325,1055.982l-.739-.132s-.317-.238-.317-.37v-.132l.607-1.557.66-.845.449-.792.607.343-.106.739-.264,1.426v.845l.053.713-.37.158Z" transform="translate(-518.588 -1029.964)" fill="#5751c8" stroke="#eaecff" stroke-width="0.5"/><path d="M556.321,1040.111a3.187,3.187,0,0,1,.132.95c-.053.29-.079.264-.079.264l-.132.528-.106.317-.079.475-.132.554-.238.528s.317,0,.158.211l-.158.211-.079.554.4.132-.106.422s.29-.053.238.29a1.246,1.246,0,0,1-.079.37l-.106.713-.264.607.106.528a1.342,1.342,0,0,1,.185.528l.079.4-.475.422.053.528.871.95-.053.475-.211.739v.766l.766.343.977-.343.845-.238-.554-.66s-.422-.4-.343-.66l.079-.264.29-.713a.326.326,0,0,1,.5,0l.29.264-.053.449.581.422.475-.053.422-.4-.106-.845-.554-1,.185-.924a.567.567,0,0,1,.132-.66l.317-.317a2.947,2.947,0,0,0-.686-.29h-.158l-.317-.766.185-.713s-.211.158-.264-.264l-.053-.422.132-.5.343-.792.026-.317-.449-.37-.343-.158-.211-.343-.106-.449.158-.4-.211-.4-.634-.66-.4-.158h-.37Z" transform="translate(-536.39 -1019.794)" fill="#5751c8" stroke="#eaecff" stroke-width="0.5"/><path d="M580.5,1110.97l-.132.634-.106.264.238.528,1,.422.9-.211.185-.079-.238-.528-.317-.343-.5-.317-.475-.053Z" transform="translate(-557.003 -1079.09)" fill="#5751c8" stroke="#eaecff" stroke-width="0.5"/><path d="M577.376,1050.07l.5.37.554.158.422-.211a1.125,1.125,0,0,0,.766.106c.29-.132.026.079.29-.132l.264-.211.343.026.871.422.766.475.634.29.686.37.053.95-.37.739a1.259,1.259,0,0,1,.079.686,1.479,1.479,0,0,1-.079.29,3.5,3.5,0,0,0,.158.475l.132.343.766.634.475.581s.5.5.343.66-.158.185-.158.185l.66.687a1.269,1.269,0,0,1,.106.607c-.026.343.238.079-.026.343l-.264.264-.581.37-.5-.106-.29-.211-.37-.343.079.211.264.449-.422.581-.581.026-.238-.581-.238.158-.554.053-.475-.554-.211-.634.264-.686-.026-.528-.158-.422s-.449-.158-.686-.264l-.238-.106a1.156,1.156,0,0,1,.528.66c.211.528.211.264.211.264l-.475,1.769s.053-.158-.5-.5a5.375,5.375,0,0,0-.581-.343s.264-.211-.053-.686l-.317-.475a2.026,2.026,0,0,1,0-.95l.132-.449-.106-.634-.317-.4-.871-.317s-.026.237.053-.422l.079-.66s-.37-.422-.264-.766-.211-.053.106-.343l.317-.29.106-.792-.475-.449Z" transform="translate(-554.594 -1028.223)" fill="#5751c8" stroke="#eaecff" stroke-width="0.5"/></g></g></g></svg>