<svg xmlns="http://www.w3.org/2000/svg" width="15" height="15" viewBox="0 0 15 15">
  <g id="dark_mode" data-name="dark mode" transform="translate(0 0)">
    <path id="Path_65" data-name="Path 65" d="M0,154.076A3.091,3.091,0,1,0,3.105,151,3.105,3.105,0,0,0,0,154.076Zm0,0" transform="translate(0 -146.576)" fill="#fff"/>
    <path id="Path_66" data-name="Path 66" d="M305.395,149.981a1.752,1.752,0,0,1-1.429-2.774l.626-.878-1.062.191a3.073,3.073,0,0,0,.547,6.1,2.959,2.959,0,0,0,2.914-2.529l.191-1.062-.878.626A1.438,1.438,0,0,1,305.395,149.981Zm0,0" transform="translate(-292.182 -142.041)" fill="#fff"/>
    <path id="Path_67" data-name="Path 67" d="M115.636,387.3l-.615-.628a5.72,5.72,0,0,1-6.677.953l1.354-.363-.227-.849-2.826.757.757,2.922.849-.228-.373-1.489a6.58,6.58,0,0,0,7.759-1.077Zm0,0" transform="translate(-103.52 -375.093)" fill="#fff"/>
    <path id="Path_68" data-name="Path 68" d="M104.592,3.679l2.826-.757L106.661,0l-.849.228.374,1.492a6.6,6.6,0,0,0-7.76,1.073l.615.627a5.723,5.723,0,0,1,6.677-.952l-1.354.363Zm0,0" transform="translate(-95.543)" fill="#fff"/>
  </g>
</svg>
