<svg xmlns="http://www.w3.org/2000/svg" xmlns:xlink="http://www.w3.org/1999/xlink" width="33" height="33" viewBox="0 0 33 33">
  <defs>
    <linearGradient id="linear-gradient" x1="0.5" x2="0.5" y2="1" gradientUnits="objectBoundingBox">
      <stop offset="0" stop-color="#ff4a4a"/>
      <stop offset="1" stop-color="#9a1818"/>
    </linearGradient>
  </defs>
  <g id="privacy_policy" data-name="privacy policy" transform="translate(-300 -727)">
    <circle id="Ellipse_4" data-name="Ellipse 4" cx="16.5" cy="16.5" r="16.5" transform="translate(300 727)" fill="url(#linear-gradient)"/>
    <g id="privacy" transform="translate(271 737)">
      <path id="Path_64" data-name="Path 64" d="M50.656,2.105,45.679.039a.508.508,0,0,0-.389,0L40.313,2.105A.508.508,0,0,0,40,2.574V5.086a8.5,8.5,0,0,0,5.292,7.877.508.508,0,0,0,.384,0,8.5,8.5,0,0,0,5.292-7.877V2.574A.508.508,0,0,0,50.656,2.105Zm-.7,2.981a7.49,7.49,0,0,1-4.469,6.855,7.49,7.49,0,0,1-4.469-6.855V2.913l4.469-1.855,4.469,1.855ZM44.923,6.8l2.183-2.183a.508.508,0,1,1,.718.718L45.282,7.875a.508.508,0,0,1-.718,0L43.145,6.456a.508.508,0,0,1,.718-.718Z" fill="#fff"/>
    </g>
  </g>
</svg>
