<svg xmlns="http://www.w3.org/2000/svg" width="15.2" height="10.483" viewBox="0 0 15.2 10.483">
  <g id="translate" transform="translate(1 -22.85)">
    <g id="Group_498" data-name="Group 498" transform="translate(1 21.333)">
      <g id="Group_497" data-name="Group 497" transform="translate(0 0)">
        <path id="Path_60" data-name="Path 60" d="M238.566,192h-1.2l-2.7,7.2h1.2l.675-1.8h2.85l.675,1.8h1.2Zm-1.575,4.2.975-2.6.975,2.6Z" transform="translate(-228.066 -187.2)" fill="#fff"/>
      </g>
    </g>
    <g id="layer1" transform="translate(-7.07 14.684)">
      <g id="flowRoot2844" transform="translate(6.07 8.166)">
        <path id="path2853" d="M9.107,22.193a1.245,1.245,0,0,1-.221-.287,2.84,2.84,0,0,1-.136-.332q-.057-.177-.107-.361t-.1-.361l-.1-.3a4.469,4.469,0,0,1-.271-.42q-.121-.214-.25-.413a4.545,4.545,0,0,0-.278-.4,1.978,1.978,0,0,0-.342-.354,2.116,2.116,0,0,1-.35.509,2.167,2.167,0,0,1-.457.361,2.083,2.083,0,0,1-.528.221,2.192,2.192,0,0,1-.564.074,2.063,2.063,0,0,1-.935-.221,3.229,3.229,0,0,1-.813-.6,5.138,5.138,0,0,1-.7-.9,10.264,10.264,0,0,1-.578-1.1q-.257-.59-.464-1.216t-.342-1.238l.457.192q.107.435.264.885a7.3,7.3,0,0,0,.385.862,6.292,6.292,0,0,0,.507.789,3.836,3.836,0,0,0,.635.649,3.121,3.121,0,0,0,.778.435,2.648,2.648,0,0,0,.92.155,1.5,1.5,0,0,0,.542-.088,1.058,1.058,0,0,0,.385-.258,1.087,1.087,0,0,0,.221-.391,1.511,1.511,0,0,0,.078-.494,2.221,2.221,0,0,0-.064-.538,1.758,1.758,0,0,0-.164-.464,1,1,0,0,0-.235-.324A.393.393,0,0,0,6,16.141a1.785,1.785,0,0,1-.521.553,1.107,1.107,0,0,1-.621.2.962.962,0,0,1-.371-.074,1.146,1.146,0,0,1-.321-.2,1.034,1.034,0,0,1-.228-.31.868.868,0,0,1-.086-.383,1.218,1.218,0,0,1,.243-.715.908.908,0,0,1,.285-.243.761.761,0,0,1,.378-.1,2.61,2.61,0,0,1,1.1.229,2.659,2.659,0,0,1,.878.634,2.9,2.9,0,0,1,.578.966,3.423,3.423,0,0,1,.207,1.209l.849,1.519V14.468h-7.2v-.759h9.254v.759H9.107v7.725" transform="translate(-1.173 -13.709)" fill="#fff"/>
      </g>
    </g>
  </g>
</svg>
