<svg xmlns="http://www.w3.org/2000/svg" width="139" height="28" viewBox="0 0 139 28"><g transform="translate(-168 -136)"><g transform="translate(168 136)" fill="#cbe7ff" stroke="#afc7dc" stroke-width="1"><rect width="139" height="28" rx="5" stroke="none"/><rect x="0.5" y="0.5" width="138" height="27" rx="4.5" fill="none"/></g><g transform="translate(1)"><text transform="translate(180 155)" fill="#0b66b4" font-size="15" font-family="Nunito-SemiBold, Nunito" font-weight="600" letter-spacing="0.015em"><tspan x="0" y="0">State Helpline</tspan></text><g transform="translate(287.97 145)"><g transform="translate(0)"><path d="M107.192,4.609,102.743.16a.548.548,0,0,0-.773,0l-.328.328a.548.548,0,0,0,0,.773L105.378,5l-3.74,3.74a.548.548,0,0,0,0,.774l.328.327a.548.548,0,0,0,.773,0l4.453-4.453a.552.552,0,0,0,0-.776Z" transform="translate(-101.478)" fill="#0b66b4"/></g></g></g></g></svg>