<svg xmlns="http://www.w3.org/2000/svg" width="325" height="205" viewBox="0 0 325 205"><g transform="translate(-25 -1114)"><g transform="translate(25 1114)" fill="#cbe7ff" stroke="#afc7dc" stroke-width="1"><rect width="325" height="205" rx="5" stroke="none"/><rect x="0.5" y="0.5" width="324" height="204" rx="4.5" fill="none"/></g><g transform="translate(1 1124)"><g transform="translate(34)" fill="#95ccfc" stroke="#95ccfc" stroke-width="1"><rect width="118" height="20" rx="5" stroke="none"/><rect x="0.5" y="0.5" width="117" height="19" rx="4.5" fill="none"/></g><text transform="translate(52 14)" fill="#0b66b4" font-size="11" font-family="Nunito-Regular, Nunito" letter-spacing="0.015em"><tspan x="0" y="0">Andhra Pradesh</tspan></text></g><text transform="translate(51 1174)" fill="#0b66b4" font-size="12" font-family="Nunito-SemiBold, Nunito" font-weight="600" letter-spacing="0.015em"><tspan x="0" y="12">Sri Venkateswara Institute of Medical Sciences, </tspan><tspan x="0" y="28">Tirupati</tspan></text><text transform="translate(35 1186)" fill="#0b66b4" font-size="12" font-family="Nunito-SemiBold, Nunito" font-weight="600" letter-spacing="0.015em"><tspan x="0" y="0">1.</tspan></text><g transform="translate(0 47)"><text transform="translate(51 1174)" fill="#0b66b4" font-size="12" font-family="Nunito-SemiBold, Nunito" font-weight="600" letter-spacing="0.015em"><tspan x="0" y="12">Rangaraya Medical College, Kakinada</tspan></text><text transform="translate(35 1186)" fill="#0b66b4" font-size="12" font-family="Nunito-SemiBold, Nunito" font-weight="600" letter-spacing="0.015em"><tspan x="0" y="0">2.</tspan></text></g><g transform="translate(0 78)"><text transform="translate(51 1174)" fill="#0b66b4" font-size="12" font-family="Nunito-SemiBold, Nunito" font-weight="600" letter-spacing="0.015em"><tspan x="0" y="12">Sidhartha Medical College, Vijaywada</tspan></text><text transform="translate(35 1186)" fill="#0b66b4" font-size="12" font-family="Nunito-SemiBold, Nunito" font-weight="600" letter-spacing="0.015em"><tspan x="0" y="0">3.</tspan></text></g><g transform="translate(0 109)"><text transform="translate(51 1174)" fill="#0b66b4" font-size="12" font-family="Nunito-SemiBold, Nunito" font-weight="600" letter-spacing="0.015em"><tspan x="0" y="12">Govt. Medical College, Ananthpur</tspan></text><text transform="translate(35 1186)" fill="#0b66b4" font-size="12" font-family="Nunito-SemiBold, Nunito" font-weight="600" letter-spacing="0.015em"><tspan x="0" y="0">4.</tspan></text></g></g></svg>