<svg xmlns="http://www.w3.org/2000/svg" width="325" height="423" viewBox="0 0 325 423"><g transform="translate(-25 -1114)"><g transform="translate(25 1114)" fill="#cbe7ff" stroke="#afc7dc" stroke-width="1"><rect width="325" height="423" rx="5" stroke="none"/><rect x="0.5" y="0.5" width="324" height="422" rx="4.5" fill="none"/></g><g transform="translate(1 1124)"><g transform="translate(34)" fill="#95ccfc" stroke="#95ccfc" stroke-width="1"><rect width="68" height="20" rx="5" stroke="none"/><rect x="0.5" y="0.5" width="67" height="19" rx="4.5" fill="none"/></g><text transform="translate(52 14)" fill="#0b66b4" font-size="11" font-family="Nunito-Regular, Nunito" letter-spacing="0.015em"><tspan x="0" y="0">Kerala</tspan></text></g><text transform="translate(51 1174)" fill="#0b66b4" font-size="12" font-family="Nunito-SemiBold, Nunito" font-weight="600" letter-spacing="0.015em"><tspan x="0" y="12">National Institute of Virology, Field Unit, </tspan><tspan x="0" y="28">Allapuzzha</tspan></text><text transform="translate(35 1186)" fill="#0b66b4" font-size="12" font-family="Nunito-SemiBold, Nunito" font-weight="600" letter-spacing="0.015em"><tspan x="0" y="0">1.</tspan></text><g transform="translate(0 140)"><text transform="translate(51 1174)" fill="#0b66b4" font-size="12" font-family="Nunito-SemiBold, Nunito" font-weight="600" letter-spacing="0.015em"><tspan x="0" y="12">Rajiv Gandhi Center for Biotechnology, </tspan><tspan x="0" y="28">Thiruvanathapuram</tspan></text><text transform="translate(35 1186)" fill="#0b66b4" font-size="12" font-family="Nunito-SemiBold, Nunito" font-weight="600" letter-spacing="0.015em"><tspan x="0" y="0">5.</tspan></text></g><g transform="translate(0 187)"><text transform="translate(51 1174)" fill="#0b66b4" font-size="12" font-family="Nunito-SemiBold, Nunito" font-weight="600" letter-spacing="0.015em"><tspan x="0" y="12">Sree Chitra Tirunal Institute of Medical Sciences, </tspan><tspan x="0" y="28">Thiruvanathapuram</tspan></text><text transform="translate(35 1186)" fill="#0b66b4" font-size="12" font-family="Nunito-SemiBold, Nunito" font-weight="600" letter-spacing="0.015em"><tspan x="0" y="0">6.</tspan></text></g><g transform="translate(0 78)"><text transform="translate(51 1174)" fill="#0b66b4" font-size="12" font-family="Nunito-SemiBold, Nunito" font-weight="600" letter-spacing="0.015em"><tspan x="0" y="12">Govt. Medical College, Kozhikode</tspan></text><text transform="translate(35 1186)" fill="#0b66b4" font-size="12" font-family="Nunito-SemiBold, Nunito" font-weight="600" letter-spacing="0.015em"><tspan x="0" y="0">3.</tspan></text></g><g transform="translate(0 109)"><text transform="translate(51 1174)" fill="#0b66b4" font-size="12" font-family="Nunito-SemiBold, Nunito" font-weight="600" letter-spacing="0.015em"><tspan x="0" y="12">Govt. Medical College, Thrissur</tspan></text><text transform="translate(35 1186)" fill="#0b66b4" font-size="12" font-family="Nunito-SemiBold, Nunito" font-weight="600" letter-spacing="0.015em"><tspan x="0" y="0">4.</tspan></text></g><g transform="translate(0 47)"><text transform="translate(51 1174)" fill="#0b66b4" font-size="12" font-family="Nunito-SemiBold, Nunito" font-weight="600" letter-spacing="0.015em"><tspan x="0" y="12">Govt. Medical College, Thiruvanathapuram</tspan></text><text transform="translate(35 1186)" fill="#0b66b4" font-size="12" font-family="Nunito-SemiBold, Nunito" font-weight="600" letter-spacing="0.015em"><tspan x="0" y="0">2.</tspan></text></g><g transform="translate(0 234)"><text transform="translate(51 1174)" fill="#0b66b4" font-size="12" font-family="Nunito-SemiBold, Nunito" font-weight="600" letter-spacing="0.015em"><tspan x="0" y="12">State Public Health Laboratory, Trivandrum</tspan></text><text transform="translate(35 1186)" fill="#0b66b4" font-size="12" font-family="Nunito-SemiBold, Nunito" font-weight="600" letter-spacing="0.015em"><tspan x="0" y="0">7.</tspan></text></g><g transform="translate(0 265)"><text transform="translate(51 1174)" fill="#0b66b4" font-size="12" font-family="Nunito-SemiBold, Nunito" font-weight="600" letter-spacing="0.015em"><tspan x="0" y="12">Inter University, Kottayam</tspan></text><text transform="translate(35 1186)" fill="#0b66b4" font-size="12" font-family="Nunito-SemiBold, Nunito" font-weight="600" letter-spacing="0.015em"><tspan x="0" y="0">8.</tspan></text></g><g transform="translate(0 296)"><text transform="translate(51 1174)" fill="#0b66b4" font-size="12" font-family="Nunito-SemiBold, Nunito" font-weight="600" letter-spacing="0.015em"><tspan x="0" y="12">Malabar Cancer Center, Thalassery</tspan></text><text transform="translate(35 1186)" fill="#0b66b4" font-size="12" font-family="Nunito-SemiBold, Nunito" font-weight="600" letter-spacing="0.015em"><tspan x="0" y="0">9.</tspan></text></g><g transform="translate(0 327)"><text transform="translate(59 1174)" fill="#0b66b4" font-size="12" font-family="Nunito-SemiBold, Nunito" font-weight="600" letter-spacing="0.015em"><tspan x="0" y="12">Central University of Kerala, Periye, Kasaragod</tspan></text><text transform="translate(35 1186)" fill="#0b66b4" font-size="12" font-family="Nunito-SemiBold, Nunito" font-weight="600" letter-spacing="0.015em"><tspan x="0" y="0">10.</tspan></text></g></g></svg>