<svg xmlns="http://www.w3.org/2000/svg" width="325" height="313" viewBox="0 0 325 313"><g transform="translate(-25 -1114)"><g transform="translate(25 1114)" fill="#cbe7ff" stroke="#afc7dc" stroke-width="1"><rect width="325" height="313" rx="5" stroke="none"/><rect x="0.5" y="0.5" width="324" height="312" rx="4.5" fill="none"/></g><g transform="translate(1 1124)"><g transform="translate(34)" fill="#95ccfc" stroke="#95ccfc" stroke-width="1"><rect width="86" height="20" rx="5" stroke="none"/><rect x="0.5" y="0.5" width="85" height="19" rx="4.5" fill="none"/></g><text transform="translate(52 14)" fill="#0b66b4" font-size="11" font-family="Nunito-Regular, Nunito" letter-spacing="0.015em"><tspan x="0" y="0">Rajasthan</tspan></text></g><text transform="translate(51 1174)" fill="#0b66b4" font-size="12" font-family="Nunito-SemiBold, Nunito" font-weight="600" letter-spacing="0.015em"><tspan x="0" y="12">Sawai Man Singh Medical College, Jaipur</tspan></text><text transform="translate(35 1186)" fill="#0b66b4" font-size="12" font-family="Nunito-SemiBold, Nunito" font-weight="600" letter-spacing="0.015em"><tspan x="0" y="0">1.</tspan></text><g transform="translate(0 31)"><text transform="translate(51 1174)" fill="#0b66b4" font-size="12" font-family="Nunito-SemiBold, Nunito" font-weight="600" letter-spacing="0.015em"><tspan x="0" y="12">Dr. Sampurnan and Medical College, Jodhpur</tspan></text><text transform="translate(35 1186)" fill="#0b66b4" font-size="12" font-family="Nunito-SemiBold, Nunito" font-weight="600" letter-spacing="0.015em"><tspan x="0" y="0">2.</tspan></text></g><g transform="translate(0 62)"><text transform="translate(51 1174)" fill="#0b66b4" font-size="12" font-family="Nunito-SemiBold, Nunito" font-weight="600" letter-spacing="0.015em"><tspan x="0" y="12">Jhalawar Medical College, Jhalawar</tspan></text><text transform="translate(35 1186)" fill="#0b66b4" font-size="12" font-family="Nunito-SemiBold, Nunito" font-weight="600" letter-spacing="0.015em"><tspan x="0" y="0">3.</tspan></text></g><g transform="translate(0 93)"><text transform="translate(51 1174)" fill="#0b66b4" font-size="12" font-family="Nunito-SemiBold, Nunito" font-weight="600" letter-spacing="0.015em"><tspan x="0" y="12">RNT Medical College, Udaipur</tspan></text><text transform="translate(35 1186)" fill="#0b66b4" font-size="12" font-family="Nunito-SemiBold, Nunito" font-weight="600" letter-spacing="0.015em"><tspan x="0" y="0">4.</tspan></text></g><g transform="translate(0 124)"><text transform="translate(51 1174)" fill="#0b66b4" font-size="12" font-family="Nunito-SemiBold, Nunito" font-weight="600" letter-spacing="0.015em"><tspan x="0" y="12">All India Institute of Medical Sciences, Jodhpur</tspan></text><text transform="translate(35 1186)" fill="#0b66b4" font-size="12" font-family="Nunito-SemiBold, Nunito" font-weight="600" letter-spacing="0.015em"><tspan x="0" y="0">5.</tspan></text></g><g transform="translate(0 155)"><text transform="translate(51 1174)" fill="#0b66b4" font-size="12" font-family="Nunito-SemiBold, Nunito" font-weight="600" letter-spacing="0.015em"><tspan x="0" y="12">SP Medical College, Bikaner</tspan></text><text transform="translate(35 1186)" fill="#0b66b4" font-size="12" font-family="Nunito-SemiBold, Nunito" font-weight="600" letter-spacing="0.015em"><tspan x="0" y="0">6.</tspan></text></g><g transform="translate(0 186)"><text transform="translate(51 1174)" fill="#0b66b4" font-size="12" font-family="Nunito-SemiBold, Nunito" font-weight="600" letter-spacing="0.015em"><tspan x="0" y="12">JLN Medical College, Ajmer</tspan></text><text transform="translate(35 1186)" fill="#0b66b4" font-size="12" font-family="Nunito-SemiBold, Nunito" font-weight="600" letter-spacing="0.015em"><tspan x="0" y="0">7.</tspan></text></g><g transform="translate(0 217)"><text transform="translate(51 1174)" fill="#0b66b4" font-size="12" font-family="Nunito-SemiBold, Nunito" font-weight="600" letter-spacing="0.015em"><tspan x="0" y="12">Govt. Medical College, Kota</tspan></text><text transform="translate(35 1186)" fill="#0b66b4" font-size="12" font-family="Nunito-SemiBold, Nunito" font-weight="600" letter-spacing="0.015em"><tspan x="0" y="0">8.</tspan></text></g></g></svg>