<svg xmlns="http://www.w3.org/2000/svg" width="325" height="236" viewBox="0 0 325 236"><g transform="translate(-25 -1114)"><g transform="translate(25 1114)" fill="#cbe7ff" stroke="#afc7dc" stroke-width="1"><rect width="325" height="236" rx="5" stroke="none"/><rect x="0.5" y="0.5" width="324" height="235" rx="4.5" fill="none"/></g><g transform="translate(1 1124)"><g transform="translate(34)" fill="#95ccfc" stroke="#95ccfc" stroke-width="1"><rect width="88" height="20" rx="5" stroke="none"/><rect x="0.5" y="0.5" width="87" height="19" rx="4.5" fill="none"/></g><text transform="translate(52 14)" fill="#0b66b4" font-size="11" font-family="Nunito-Regular, Nunito" letter-spacing="0.015em"><tspan x="0" y="0">Telengana</tspan></text></g><text transform="translate(51 1174)" fill="#0b66b4" font-size="12" font-family="Nunito-SemiBold, Nunito" font-weight="600" letter-spacing="0.015em"><tspan x="0" y="12">Gandhi Medical College, Secunderabad</tspan></text><text transform="translate(35 1186)" fill="#0b66b4" font-size="12" font-family="Nunito-SemiBold, Nunito" font-weight="600" letter-spacing="0.015em"><tspan x="0" y="0">1.</tspan></text><g transform="translate(0 78)"><text transform="translate(51 1174)" fill="#0b66b4" font-size="12" font-family="Nunito-SemiBold, Nunito" font-weight="600" letter-spacing="0.015em"><tspan x="0" y="12">Osmania Medical College, Hyderabad</tspan></text><text transform="translate(35 1186)" fill="#0b66b4" font-size="12" font-family="Nunito-SemiBold, Nunito" font-weight="600" letter-spacing="0.015em"><tspan x="0" y="0">3.</tspan></text></g><g transform="translate(0 109)"><text transform="translate(51 1174)" fill="#0b66b4" font-size="12" font-family="Nunito-SemiBold, Nunito" font-weight="600" letter-spacing="0.015em"><tspan x="0" y="12">Nizam’s Institute of Medical Sciences, Hyderabad</tspan></text><text transform="translate(35 1186)" fill="#0b66b4" font-size="12" font-family="Nunito-SemiBold, Nunito" font-weight="600" letter-spacing="0.015em"><tspan x="0" y="0">4.</tspan></text></g><g transform="translate(0 140)"><text transform="translate(51 1174)" fill="#0b66b4" font-size="12" font-family="Nunito-SemiBold, Nunito" font-weight="600" letter-spacing="0.015em"><tspan x="0" y="12">Institute of Preventive Medicine, Hyderabad</tspan></text><text transform="translate(35 1186)" fill="#0b66b4" font-size="12" font-family="Nunito-SemiBold, Nunito" font-weight="600" letter-spacing="0.015em"><tspan x="0" y="0">5.</tspan></text></g><g transform="translate(0 31)"><text transform="translate(51 1174)" fill="#0b66b4" font-size="12" font-family="Nunito-SemiBold, Nunito" font-weight="600" letter-spacing="0.015em"><tspan x="0" y="12">Sir Ronald Ross of Tropical &amp; Communicable </tspan><tspan x="0" y="28">Diseases, Hyderabad</tspan></text><text transform="translate(35 1186)" fill="#0b66b4" font-size="12" font-family="Nunito-SemiBold, Nunito" font-weight="600" letter-spacing="0.015em"><tspan x="0" y="0">2.</tspan></text></g></g></svg>