<svg xmlns="http://www.w3.org/2000/svg" width="325" height="363" viewBox="0 0 325 363"><g transform="translate(-25 -1114)"><g transform="translate(25 1114)" fill="#fce8e7" stroke="#f5aea8" stroke-width="1"><rect width="325" height="363" rx="5" stroke="none"/><rect x="0.5" y="0.5" width="324" height="362" rx="4.5" fill="none"/></g><g transform="translate(1 1124)"><g transform="translate(34)" fill="#f5aea8" stroke="#f5aea8" stroke-width="1"><rect width="216" height="20" rx="5" stroke="none"/><rect x="0.5" y="0.5" width="215" height="19" rx="4.5" fill="none"/></g><text transform="translate(52 14)" fill="#a41a18" font-size="11" font-family="Nunito-Regular, Nunito" letter-spacing="0.015em"><tspan x="0" y="0">When to get tested for COVID-19 ?</tspan></text></g><text transform="translate(35 1174)" fill="#a41a18" font-size="12" font-family="Nunito-SemiBold, Nunito" font-weight="600" letter-spacing="0.015em"><tspan x="0" y="12">You are not required to get tested for COVID-19 if you </tspan><tspan x="0" y="28">do not have any symptoms (Cough, fever, or difficulty </tspan><tspan x="0" y="44">in breathing)</tspan><tspan x="0" y="60"></tspan><tspan x="0" y="76">If you have any of the above symptoms and have </tspan><tspan x="0" y="92">travelled to any of the COVID-19 affected countries </tspan><tspan x="0" y="108">(Italy, Iran, France, Spain, Germany, etc.) or you are a </tspan><tspan x="0" y="124">contact of a laboratory confirmed positive case </tspan><tspan x="0" y="140">immediately call the State Helpline Number or the </tspan><tspan x="0" y="156">Ministry of Health &amp; Family Welfare (MOHFW), or </tspan><tspan x="0" y="172">Government of India&apos;s 24x7 helpline number</tspan><tspan x="0" y="188"></tspan><tspan x="0" y="204">The helpline service will note down your contact </tspan><tspan x="0" y="220">details and contact you with the testing protocols of </tspan><tspan x="0" y="236">COVID-19</tspan><tspan x="0" y="252"></tspan><tspan x="0" y="268">If you qualify as a care for testing as per the protocol, </tspan><tspan x="0" y="284">you will be tested at a Government approved lab only.</tspan></text></g></svg>