<svg xmlns="http://www.w3.org/2000/svg" width="207" height="40" viewBox="0 0 207 40"><g transform="translate(-167 -136)"><g transform="translate(167 136)" fill="#cbe7ff" stroke="#afc7dc" stroke-width="1"><rect width="207" height="40" rx="5" stroke="none"/><rect x="0.5" y="0.5" width="206" height="39" rx="4.5" fill="none"/></g><g transform="translate(196 146)"><text transform="translate(25.291 15)" fill="#0b66b4" font-size="15" font-family="Nunito-SemiBold, Nunito" font-weight="600" letter-spacing="0.015em"><tspan x="0" y="0">+91 6913347770</tspan></text><g transform="translate(0 3)"><path d="M13.8,9.846a8.516,8.516,0,0,1-2.675-.426,1.222,1.222,0,0,0-1.189.251L8.246,10.944a9.321,9.321,0,0,1-4.191-4.19L5.291,5.111a1.212,1.212,0,0,0,.3-1.228A8.529,8.529,0,0,1,5.162,1.2,1.2,1.2,0,0,0,3.958,0H1.2A1.205,1.205,0,0,0,0,1.2,13.812,13.812,0,0,0,13.8,15,1.205,1.205,0,0,0,15,13.8V11.049A1.205,1.205,0,0,0,13.8,9.846Z" fill="#0b66b4"/></g></g></g></svg>