<svg xmlns="http://www.w3.org/2000/svg" width="13.75" height="15" viewBox="0 0 13.75 15"><path d="M311.676,4.688a2.344,2.344,0,1,1,2.344-2.344A2.347,2.347,0,0,1,311.676,4.688Zm0-3.75a1.406,1.406,0,1,0,1.406,1.406A1.408,1.408,0,0,0,311.676.938Zm0,0" transform="translate(-300.27)" fill="#fff"/><path d="M311.676,356.688a2.344,2.344,0,1,1,2.344-2.344A2.347,2.347,0,0,1,311.676,356.688Zm0-3.75a1.406,1.406,0,1,0,1.406,1.406A1.408,1.408,0,0,0,311.676,352.938Zm0,0" transform="translate(-300.27 -341.688)" fill="#fff"/><path d="M2.344,180.688a2.344,2.344,0,1,1,2.344-2.344A2.347,2.347,0,0,1,2.344,180.688Zm0-3.75a1.406,1.406,0,1,0,1.406,1.406A1.408,1.408,0,0,0,2.344,176.938Zm0,0" transform="translate(0 -170.844)" fill="#fff"/><path d="M120.158,99.8a.468.468,0,0,1-.233-.876l5.8-3.306a.469.469,0,0,1,.464.814l-5.8,3.306a.47.47,0,0,1-.231.061Zm0,0" transform="translate(-116.183 -92.76)" fill="#fff"/><path d="M125.978,275.793a.465.465,0,0,1-.231-.062l-5.8-3.306a.469.469,0,0,1,.464-.814l5.8,3.306a.469.469,0,0,1-.232.876Zm0,0" transform="translate(-116.204 -263.593)" fill="#fff"/></svg>