<?xml version="1.0"?>
<svg xmlns="http://www.w3.org/2000/svg" xmlns:xlink="http://www.w3.org/1999/xlink" version="1.1" id="Capa_1" x="0px" y="0px" viewBox="0 0 201.387 201.387" style="enable-background:new 0 0 201.387 201.387;" xml:space="preserve" width="512px" height="512px"><g><g>
	<g>
		<path d="M180.32,62.94c-0.635-0.939-1.693-1.5-2.826-1.5h-153.6c-1.132,0-2.191,0.562-2.826,1.5s-0.765,2.13-0.343,3.181    l6.827,17.067c0.519,1.295,1.773,2.145,3.169,2.145h139.947c1.396,0,2.65-0.85,3.169-2.145l6.827-17.067    C181.083,65.07,180.954,63.877,180.32,62.94z M168.356,78.507H33.031l-4.096-10.24h143.517L168.356,78.507z" data-original="#000000" class="active-path" data-old_color="#000000" fill="#141414"/>
	</g>
</g><g>
	<g>
		<path d="M163.84,44.373H37.547c-1.884,0-3.413,1.529-3.413,3.413v17.067c0,1.884,1.529,3.413,3.413,3.413H163.84    c1.884,0,3.413-1.529,3.413-3.413V47.787C167.253,45.903,165.724,44.373,163.84,44.373z M160.427,61.44H40.96V51.2h119.467V61.44z    " data-original="#000000" class="active-path" data-old_color="#000000" fill="#141414"/>
	</g>
</g><g>
	<g>
		<path d="M163.84,34.133H37.547c-1.884,0-3.413,1.529-3.413,3.413v10.24c0,1.884,1.529,3.413,3.413,3.413H163.84    c1.884,0,3.413-1.529,3.413-3.413v-10.24C167.253,35.663,165.724,34.133,163.84,34.133z M160.427,44.373H40.96V40.96h119.467    V44.373z" data-original="#000000" class="active-path" data-old_color="#000000" fill="#141414"/>
	</g>
</g><g>
	<g>
		<path d="M136.533,13.653h-71.68c-1.884,0-3.413,1.529-3.413,3.413v20.48c0,1.884,1.529,3.413,3.413,3.413h71.68    c1.884,0,3.413-1.529,3.413-3.413v-20.48C139.947,15.183,138.418,13.653,136.533,13.653z M133.12,34.133H68.267V20.48h64.853    V34.133z" data-original="#000000" class="active-path" data-old_color="#000000" fill="#141414"/>
	</g>
</g><g>
	<g>
		<path d="M118.893,15.174l-6.827-10.24c-0.633-0.951-1.698-1.521-2.84-1.521H92.16c-1.142,0-2.207,0.57-2.84,1.521l-6.827,10.24    c-0.698,1.048-0.763,2.394-0.169,3.504c0.592,1.109,1.749,1.802,3.009,1.802h30.72c1.26,0,2.417-0.693,3.009-1.802    C119.656,17.568,119.591,16.222,118.893,15.174z M91.711,13.653l2.277-3.413h13.413l2.275,3.413H91.711z" data-original="#000000" class="active-path" data-old_color="#000000" fill="#141414"/>
	</g>
</g><g>
	<g>
		<path d="M163.84,78.507H37.547c-1.884,0-3.413,1.529-3.413,3.413v112.64c0,1.884,1.529,3.413,3.413,3.413H163.84    c1.884,0,3.413-1.529,3.413-3.413V81.92C167.253,80.036,165.724,78.507,163.84,78.507z M160.427,191.147H40.96V85.333h119.467    V191.147z" data-original="#000000" class="active-path" data-old_color="#000000" fill="#141414"/>
	</g>
</g><g>
	<g>
		<path d="M197.973,191.147H3.413c-1.884,0-3.413,1.529-3.413,3.413c0,1.884,1.529,3.413,3.413,3.413h194.56    c1.884,0,3.413-1.529,3.413-3.413C201.387,192.676,199.858,191.147,197.973,191.147z" data-original="#000000" class="active-path" data-old_color="#000000" fill="#141414"/>
	</g>
</g><g>
	<g>
		<path d="M100.693,88.747c-17.881,0-32.427,14.546-32.427,32.427v73.387c0,1.884,1.529,3.413,3.413,3.413h58.027    c1.884,0,3.413-1.529,3.413-3.413v-73.387C133.12,103.293,118.574,88.747,100.693,88.747z M126.293,191.147h-51.2v-69.973    c0-14.116,11.484-25.6,25.6-25.6s25.6,11.484,25.6,25.6V191.147z" data-original="#000000" class="active-path" data-old_color="#000000" fill="#141414"/>
	</g>
</g><g>
	<g>
		<path d="M56.32,88.747c-6.588,0-11.947,5.359-11.947,11.947c0,6.588,5.359,11.947,11.947,11.947    c6.588,0,11.947-5.359,11.947-11.947C68.267,94.106,62.908,88.747,56.32,88.747z M56.32,105.813c-2.823,0-5.12-2.297-5.12-5.12    s2.297-5.12,5.12-5.12c2.823,0,5.12,2.297,5.12,5.12S59.143,105.813,56.32,105.813z" data-original="#000000" class="active-path" data-old_color="#000000" fill="#141414"/>
	</g>
</g><g>
	<g>
		<path d="M145.067,88.747c-6.588,0-11.947,5.359-11.947,11.947c0,6.588,5.359,11.947,11.947,11.947    c6.588,0,11.947-5.359,11.947-11.947C157.013,94.106,151.654,88.747,145.067,88.747z M145.067,105.813    c-2.823,0-5.12-2.297-5.12-5.12s2.297-5.12,5.12-5.12c2.823,0,5.12,2.297,5.12,5.12S147.89,105.813,145.067,105.813z" data-original="#000000" class="active-path" data-old_color="#000000" fill="#141414"/>
	</g>
</g><g>
	<g>
		<path d="M78.507,136.533H30.72c-1.884,0-3.413,1.529-3.413,3.413s1.529,3.413,3.413,3.413h47.787c1.884,0,3.413-1.529,3.413-3.413    S80.391,136.533,78.507,136.533z" data-original="#000000" class="active-path" data-old_color="#000000" fill="#141414"/>
	</g>
</g><g>
	<g>
		<path d="M78.507,170.667H30.72c-1.884,0-3.413,1.529-3.413,3.413s1.529,3.413,3.413,3.413h47.787c1.884,0,3.413-1.529,3.413-3.413    S80.391,170.667,78.507,170.667z" data-original="#000000" class="active-path" data-old_color="#000000" fill="#141414"/>
	</g>
</g><g>
	<g>
		<path d="M170.667,136.533H122.88c-1.884,0-3.413,1.529-3.413,3.413s1.529,3.413,3.413,3.413h47.787    c1.884,0,3.413-1.529,3.413-3.413S172.551,136.533,170.667,136.533z" data-original="#000000" class="active-path" data-old_color="#000000" fill="#141414"/>
	</g>
</g><g>
	<g>
		<path d="M170.667,170.667H122.88c-1.884,0-3.413,1.529-3.413,3.413s1.529,3.413,3.413,3.413h47.787    c1.884,0,3.413-1.529,3.413-3.413S172.551,170.667,170.667,170.667z" data-original="#000000" class="active-path" data-old_color="#000000" fill="#141414"/>
	</g>
</g></g> </svg>
