<svg xmlns="http://www.w3.org/2000/svg" width="23.977" height="24.004" viewBox="0 0 23.977 24.004"><path d="M16.354,23.17c.02-.006.039-.014.059-.021C28.628,18.3,25.249,0,12,0a12,12,0,1,0,4.354,23.17ZM5.281,20.059c.852-1.432,3.609-5.472,8.315-6.866a25.274,25.274,0,0,1,1.742,8.755A10.433,10.433,0,0,1,5.281,20.059Zm11.532,1.263a26.925,26.925,0,0,0-1.71-8.467,13.591,13.591,0,0,1,7.225.987A10.524,10.524,0,0,1,16.813,21.322Zm5.672-9.031a14.551,14.551,0,0,0-7.959-.834c-.355-.8-.728-1.569-1.123-2.277A20,20,0,0,0,19.94,5.15,10.365,10.365,0,0,1,22.485,12.291Zm-3.61-8.209a19.249,19.249,0,0,1-6.26,3.77,28.062,28.062,0,0,0-4.6-5.562A10.438,10.438,0,0,1,18.875,4.082ZM6.583,3.023A26.4,26.4,0,0,1,11.131,8.38,33.017,33.017,0,0,1,1.722,9.854,10.52,10.52,0,0,1,6.583,3.023ZM1.532,11.36A34.53,34.53,0,0,0,11.941,9.712c.376.659.733,1.377,1.076,2.123-4.735,1.508-7.694,5.4-8.827,7.159A10.363,10.363,0,0,1,1.532,11.36Z" fill="#fff"/></svg>