<svg xmlns="http://www.w3.org/2000/svg" xmlns:xlink="http://www.w3.org/1999/xlink" width="90" height="36" viewBox="0 0 90 36"><defs><clipPath id="b"><rect width="90" height="36"/></clipPath></defs><g id="a" clip-path="url(#b)"><rect width="90" height="36" fill="rgba(255,255,255,0)"/><path d="M7.418,3.16A7.291,7.291,0,0,1,3.91,2.317,6.292,6.292,0,0,1,1.444-.022,6.444,6.444,0,0,1,.546-3.4a6.444,6.444,0,0,1,.9-3.382A6.292,6.292,0,0,1,3.91-9.125a7.328,7.328,0,0,1,3.527-.843,7.4,7.4,0,0,1,2.983.58A5.974,5.974,0,0,1,12.658-7.72L10.773-5.979A4.055,4.055,0,0,0,7.581-7.466a4.238,4.238,0,0,0-2.1.517A3.674,3.674,0,0,0,4.036-5.507,4.238,4.238,0,0,0,3.52-3.4a4.238,4.238,0,0,0,.517,2.1A3.674,3.674,0,0,0,5.478.141a4.238,4.238,0,0,0,2.1.517,4.035,4.035,0,0,0,3.191-1.5L12.658.893A5.878,5.878,0,0,1,10.41,2.58,7.462,7.462,0,0,1,7.418,3.16Zm14,0a7.409,7.409,0,0,1-3.563-.852A6.325,6.325,0,0,1,15.369-.041a6.41,6.41,0,0,1-.9-3.364,6.41,6.41,0,0,1,.9-3.364,6.325,6.325,0,0,1,2.484-2.348,7.409,7.409,0,0,1,3.563-.852,7.356,7.356,0,0,1,3.554.852,6.407,6.407,0,0,1,2.484,2.348A6.361,6.361,0,0,1,28.361-3.4a6.361,6.361,0,0,1-.907,3.364A6.407,6.407,0,0,1,24.97,2.308,7.356,7.356,0,0,1,21.416,3.16Zm0-2.5A4.028,4.028,0,0,0,23.447.141,3.708,3.708,0,0,0,24.87-1.3a4.238,4.238,0,0,0,.517-2.1,4.238,4.238,0,0,0-.517-2.1,3.708,3.708,0,0,0-1.423-1.442,4.028,4.028,0,0,0-2.031-.517,4.028,4.028,0,0,0-2.031.517,3.708,3.708,0,0,0-1.423,1.442,4.238,4.238,0,0,0-.517,2.1,4.238,4.238,0,0,0,.517,2.1A3.708,3.708,0,0,0,19.385.141,4.028,4.028,0,0,0,21.416.658Zm18.15,2.285L37.119-.594h-2.7V2.942H31.48V-9.75h5.494a7.051,7.051,0,0,1,2.928.562,4.351,4.351,0,0,1,1.913,1.6,4.4,4.4,0,0,1,.671,2.448,4.308,4.308,0,0,1-.68,2.439,4.31,4.31,0,0,1-1.931,1.568l2.847,4.08Zm-.054-8.087a2.01,2.01,0,0,0-.689-1.641,3.085,3.085,0,0,0-2.013-.571H34.417v4.424h2.393a3.051,3.051,0,0,0,2.013-.58A2.016,2.016,0,0,0,39.512-5.145ZM51.86,3.16A7.409,7.409,0,0,1,48.3,2.308,6.325,6.325,0,0,1,45.813-.041a6.41,6.41,0,0,1-.9-3.364,6.41,6.41,0,0,1,.9-3.364A6.325,6.325,0,0,1,48.3-9.116a7.409,7.409,0,0,1,3.563-.852,7.356,7.356,0,0,1,3.554.852A6.407,6.407,0,0,1,57.9-6.768,6.361,6.361,0,0,1,58.8-3.4,6.361,6.361,0,0,1,57.9-.041a6.407,6.407,0,0,1-2.484,2.348A7.356,7.356,0,0,1,51.86,3.16Zm0-2.5A4.028,4.028,0,0,0,53.891.141,3.709,3.709,0,0,0,55.315-1.3a4.238,4.238,0,0,0,.517-2.1,4.238,4.238,0,0,0-.517-2.1,3.709,3.709,0,0,0-1.423-1.442,4.028,4.028,0,0,0-2.031-.517,4.028,4.028,0,0,0-2.031.517,3.708,3.708,0,0,0-1.423,1.442,4.238,4.238,0,0,0-.517,2.1,4.238,4.238,0,0,0,.517,2.1A3.708,3.708,0,0,0,49.83.141,4.028,4.028,0,0,0,51.86.658ZM73.565-9.75V2.942H71.153L64.825-4.764V2.942h-2.9V-9.75h2.43l6.31,7.706V-9.75ZM85.84.222H79.947l-1.124,2.72h-3.01L81.47-9.75h2.9L90.047,2.942H86.964Zm-.925-2.23L82.9-6.867,80.89-2.008Z" transform="translate(-0.047 12.468)" fill="#131313" stroke="#131313" stroke-width="0.5"/><path d="M1.162-9.75H4.1V2.944H1.162Zm18.5,0V2.944H17.248L10.919-4.763V2.944h-2.9V-9.75h2.43l6.311,7.708V-9.75Zm6.855,2.358v3.355h5.876V-1.68H26.515V2.944H23.577V-9.75h9.594v2.358ZM42.094,3.162A7.41,7.41,0,0,1,38.53,2.31,6.326,6.326,0,0,1,36.045-.039a6.411,6.411,0,0,1-.9-3.364,6.411,6.411,0,0,1,.9-3.364A6.326,6.326,0,0,1,38.53-9.116a7.41,7.41,0,0,1,3.564-.852,7.357,7.357,0,0,1,3.555.852,6.408,6.408,0,0,1,2.485,2.349A6.362,6.362,0,0,1,49.039-3.4a6.362,6.362,0,0,1-.907,3.364A6.408,6.408,0,0,1,45.648,2.31,7.357,7.357,0,0,1,42.094,3.162Zm0-2.5A4.028,4.028,0,0,0,44.125.142,3.709,3.709,0,0,0,45.548-1.3a4.238,4.238,0,0,0,.517-2.1,4.238,4.238,0,0,0-.517-2.1,3.709,3.709,0,0,0-1.424-1.442,4.028,4.028,0,0,0-2.031-.517,4.028,4.028,0,0,0-2.031.517,3.709,3.709,0,0,0-1.424,1.442,4.238,4.238,0,0,0-.517,2.1,4.238,4.238,0,0,0,.517,2.1A3.709,3.709,0,0,0,40.062.142,4.028,4.028,0,0,0,42.094.659Z" transform="translate(-0.662 30.468)" fill="none" stroke="#131313" stroke-width="0.7"/></g></svg>