<?xml version="1.0" encoding="iso-8859-1"?>
<!-- Generator: Adobe Illustrator 19.0.0, SVG Export Plug-In . SVG Version: 6.00 Build 0)  -->
<svg version="1.1" id="Capa_1" xmlns="http://www.w3.org/2000/svg" xmlns:xlink="http://www.w3.org/1999/xlink" x="0px" y="0px"
	 viewBox="0 0 512.001 512.001" style="enable-background:new 0 0 512.001 512.001;" xml:space="preserve">
<g>
	<g>
		<path d="M511.433,86.297c-0.397-0.984-1.036-1.852-1.785-2.602L428.181,2.228c-1.427-1.427-3.361-2.227-5.378-2.227
			s-3.95,0.801-5.378,2.227L276.118,143.535c-0.749,0.749-1.388,1.617-1.784,2.601c-1.191,2.954-0.449,6.172,1.659,8.279
			l25.383,25.383l-7.739,7.739l-31.795-31.795c-8.82-8.821-20.238-14.384-32.406-16.023c14.609-46.06,2.58-96.534-32.036-131.151
			c-1.427-1.427-3.36-2.227-5.378-2.227s-3.95,0.801-5.378,2.227l-55.84,55.84c-17.197-12.083-41.157-10.458-56.522,4.903
			c-15.361,15.362-16.987,39.324-4.903,56.521l-55.716,55.716c-0.749,0.749-1.387,1.617-1.783,2.599
			c-1.19,2.953-0.449,6.171,1.66,8.278c12.247,12.247,26.408,21.717,42.182,28.223c4.038,1.666,8.647-0.452,10.064-4.585
			l0.001-0.002c1.303-3.804-0.586-7.954-4.303-9.489c-11.58-4.783-22.178-11.381-31.641-19.696L191.847,24.873
			c28.266,32.229,36.296,77.46,20.469,117.677l-69.192,66.419c-15.446,5.349-31.974,7.335-48.279,5.835
			c-4.002-0.368-7.601,2.425-8.217,6.396v0.003c-0.669,4.313,2.418,8.337,6.764,8.738c4.004,0.37,8.019,0.555,12.031,0.555
			c11.45,0,22.875-1.506,33.926-4.474c0.947,13.419,6.634,26.064,16.39,35.822l31.795,31.795l-7.738,7.738l-25.382-25.382
			c-1.427-1.427-3.36-2.227-5.378-2.227c-2.018,0-3.95,0.801-5.378,2.227L2.227,417.427c-2.97,2.97-2.97,7.784,0,10.753
			l81.594,81.594c1.485,1.484,3.432,2.227,5.378,2.227c1.946,0,3.892-0.742,5.378-2.227L236.008,368.34
			c2.97-2.97,2.97-7.784,0-10.753l-25.384-25.384l7.738-7.738l60.528,60.529c1.427,1.427,3.36,2.227,5.378,2.227
			s3.95-0.801,5.378-2.227l95.349-95.349c2.97-2.97,2.97-7.784,0-10.753l-32.728-32.728c-0.002-0.002-0.003-0.004-0.005-0.005
			l-24.375-24.375l-3.42-3.42l7.739-7.739l25.384,25.384c1.485,1.484,3.431,2.227,5.378,2.227c1.946,0,3.892-0.742,5.378-2.227
			l103.212-103.213c2.97-2.97,2.97-7.784,0-10.754s-7.784-2.97-10.754,0l-4.797,4.797l-70.839-70.84l37.641-37.64L493.645,89.2
			l-8.403,8.402c-2.97,2.97-2.97,7.784,0,10.754c2.97,2.97,7.784,2.97,10.753,0l13.779-13.779
			C511.881,92.47,512.624,89.252,511.433,86.297z M80.383,114.827c-6.297-11.032-4.75-25.359,4.654-34.763
			c9.407-9.407,23.733-10.952,34.764-4.654L80.383,114.827z M89.197,493.644l-70.84-70.84l37.641-37.641l70.84,70.841
			L89.197,493.644z M137.592,445.249l-70.841-70.84l33.891-33.891l70.841,70.84L137.592,445.249z M219.876,362.964l-37.64,37.64
			l-70.841-70.84l37.641-37.641L219.876,362.964z M190.553,312.127l7.735-7.735l9.319,9.319l-7.735,7.736L190.553,312.127z
			 M166.494,251.088c-8.519-8.516-12.811-20.045-11.995-31.959l67.417-64.716c10.918,0.004,21.415,4.322,29.172,12.08l60.665,60.664
			l-84.595,84.595L166.494,251.088z M304.39,198.29l7.736-7.736l9.319,9.319l-7.736,7.736L304.39,198.29z M368.861,284.268
			l-84.595,84.596l-21.981-21.981l84.595-84.596L368.861,284.268z M336.127,251.535l-84.595,84.595l-8.815-8.816l-4.806-4.806
			l84.595-84.596L336.127,251.535z M362.963,219.878l-70.841-70.839l37.641-37.64l70.84,70.84L362.963,219.878z M445.248,137.592
			l-33.891,33.891l-70.84-70.839l33.891-33.891L445.248,137.592z"/>
	</g>
</g>
<g>
</g>
<g>
</g>
<g>
</g>
<g>
</g>
<g>
</g>
<g>
</g>
<g>
</g>
<g>
</g>
<g>
</g>
<g>
</g>
<g>
</g>
<g>
</g>
<g>
</g>
<g>
</g>
<g>
</g>
</svg>
